<svg xmlns="http://www.w3.org/2000/svg" width="800" height="800" xml:space="preserve"><path fill="#103653" d="m746.392 200.003-92.823-53.594-53.581-92.81H492.815L399.992.005l-92.824 53.594H199.996l-53.594 92.824-92.808 53.58v107.172L0 399.999l53.594 92.823v107.173l92.824 53.594 53.594 92.824h107.172l92.81 53.58 92.824-53.594H599.99l53.594-92.824 92.824-53.595V492.809l53.594-92.823-53.594-92.824V200.003h-.016zm-382.501 363.71c-7.458 7.458-17.284 11.083-27.066 10.946-9.785.139-19.608-3.488-27.066-10.946L192.774 446.729c-14.654-14.654-14.654-38.428 0-53.082l30.969-30.969c14.654-14.654 38.428-14.654 53.082 0l60 59.999L523.15 236.339c14.654-14.654 38.428-14.654 53.082 0l30.969 30.969c14.654 14.654 14.654 38.427 0 53.081l-243.31 243.324z"/></svg>