<svg xmlns="http://www.w3.org/2000/svg" xml:space="preserve" width="2rem" height="1rem" viewBox="-30.049 80.582 860.049 638.843"><path fill="#133754" d="M329.018 689.425h-.01a27.264 27.264 0 0 1-12.601-3.09L71.988 559.478c-27.067-14.034-47.051-37.777-56.263-66.85-9.212-29.073-6.544-59.987 7.512-87.047l40.019-77.106a27.274 27.274 0 0 1 36.77-11.643l190.959 99.122L560.78 142.625c21.645-21.904 50.509-33.962 81.285-33.962 30.196 0 58.668 11.673 80.169 32.87l61.851 61.083c10.716 10.583 10.825 27.847.245 38.565-1.087 1.1-109.876 111.299-217.44 220.082-63.181 63.896-113.583 114.811-149.808 151.326-21.522 21.696-38.221 38.492-49.631 49.922a3491.117 3491.117 0 0 1-14.13 14.09 480.1 480.1 0 0 1-3.996 3.919c-2.763 2.665-9.233 8.905-20.307 8.905zM99.104 377.809l-27.459 52.909c-7.339 14.127-8.731 30.261-3.923 45.436 4.81 15.178 15.245 27.576 29.383 34.907l226.904 117.766c58.064-58.049 288.781-291.545 402.347-406.562l-42.432-41.904c-11.214-11.054-26.085-17.151-41.859-17.151-16.084 0-31.169 6.301-42.477 17.744l-283.91 287.63a27.276 27.276 0 0 1-31.975 5.047L99.104 377.809z"/></svg>