<svg xmlns="http://www.w3.org/2000/svg" width="800" height="800" xml:space="preserve"><g fill="#103653"><path d="M713.486 434.537c51.909-22.96 49.914-101.822-3.989-102.821 19.963-33.94 28.948-72.872-3.992-104.816-28.948-27.951-74.869-29.948-109.808-12.977 6.986-28.95-22.96-47.916-49.916-50.911-24.954-2.995-47.914 12.978-54.902 35.937-8.984-18.967-26.953-31.944-49.912-29.948-10.981.999-21.962 6.988-29.949 15.972 0 .998-11.978 15.972-9.981 17.969-1.997-.998-5.99-4.991-11.979-5.99-37.934-3.993-65.885-10.981-93.835 21.962-19.965 22.959-24.957 52.908-9.983 77.864-26.954.998-56.902 14.974-56.902 45.92 0 18.967 12.977 32.941 28.949 35.938-18.967 26.952-34.938 57.898-19.965 90.841 8.984 19.963 27.951 31.943 48.914 32.94-17.968 21.963-21.961 59.898-6.988 81.859 20.964 29.945 56.901 27.952 85.85 12.978.999 28.95 23.958 47.916 53.907 55.901 40.928 10.98 72.871-5.99 93.835-39.929 41.928 41.927 110.805 23.958 127.774-31.944 78.862 51.906 152.735-121.791 72.872-146.745zm-71.874 130.77c-3.991-2.995-8.984-2-10.978 2.994-14.974 52.907-70.878 69.878-111.805 33.94.998-4.991-5.99-7.986-8.984-2.994-.998.998-1.996 1.996-1.996 2.994-8.984 12.978-19.965 23.959-31.944 34.939-46.918 17.972-77.864.998-93.836-50.911 1.996-5.989-4.992-10.978-10.981-7.986-3.993 1.997-7.986 3.99-10.981 6.986-38.932 18.967-59.895 11.98-63.888-21.963-7.986-23.958-12.977-41.927 7.986-61.889h1.997c4.991-.998 3.993-8.986-.998-8.986-.999 0-1.996-.996-3.993 0-26.953-1.998-58.896-13.974-55.902-51.907 1.997-24.957 16.971-46.918 32.943-64.887 4.991-5.989 0-13.976-6.988-11.979-18.967-28.95-17.969-44.922 2.995-48.915 5.989-2.995 12.977-3.993 19.965-4.991 5.99-.998 4.991-8.984 0-10.98-27.951-69.878 53.906-114.8 109.809-78.863 3.992 1.997 7.986-.998 7.986-4.991 43.923-28.949 68.879-24.956 75.867 9.983 1.996 4.991 10.98 4.991 9.982-.998v-.999l2.994-2.995c7.986-18.966 12.978-37.933 36.936-38.932 20.963-1.997 51.911 11.979 44.921 37.934-.995 2.994 0 4.991 2 6.988-.996 3.993 2.995 7.986 7.986 6.987 29.946-7.986 59.895-17.969 88.843 0 41.929 26.953 27.955 70.876 4.995 106.814-3.992 5.989 2.995 14.973 9.98 12.978 41.929 22.959 50.913 41.926 25.955 58.896-7.986 9.982-17.971 15.972-30.946 17.969-1.998.998-2.994 1.996-3.994 2.994h-.995c-8.984 0-8.984 12.978 0 12.978 104.809 4.993 14.966 173.697-44.931 119.792zM412.016 185.969z"/><path d="M639.617 319.737c-20.964-19.965-66.883-8.984-92.838-7.986-60.895.998-121.789 4.991-182.682 9.982-5.989.999-8.984 5.99-8.984 10.981-.999.998-1.997 1.996-1.997 3.992-2.995 28.95-5.99 57.899-6.988 86.849-.999 23.958-9.982 56.9-2.995 79.858 4.991 16.971 11.979 17.969 27.951 19.965 52.907 6.987 113.802-.998 167.707-1.999 27.953 0 70.875 8.986 93.834-12.978 17.973-17.969 17.973-50.907 18.969-73.869.003-25.952 7.99-95.828-11.977-114.795zm-63.888 7.987c14.976 0 24.956-1.997 33.94 1.996-20.965 17.969-47.915 46.918-73.87 63.889 0-9.982-1.995-18.967-10.98-23.959-17.969-9.982-25.954 5.989-29.946 25.955 0-.998-1-.998-1-1.996-6.987-10.981-16.97-15.973-29.947-10.981-4.991 1.997-6.988 8.984-5.988 13.976 0 .998.997 2.994.997 3.993-30.946-14.974-64.886-43.923-89.843-59.896 68.878-6.988 137.758-10.983 206.637-12.977zm-217.62 123.781c1.997-33.94 3.993-67.881 3.993-100.823 29.948 21.962 60.894 42.925 90.841 63.888.998.998 1.996.998 2.995 1.997-33.94 23.958-65.885 50.911-96.831 77.864-6.987-13.976-1.996-28.949-.998-42.926zm152.733 53.906c-33.939.998-68.879.998-102.819 2-16.971 0-30.946 4.99-42.925-5.99 33.941-24.956 69.877-48.914 101.823-76.867.997.998 2.994 1.996 3.992 2.995 5.99 8.983 12.979 16.971 20.963 23.958v.998c3.993 9.982 18.967 9.982 21.963 0 6.987-8.984 11.979-18.967 15.972-29.947 20.963 25.955 45.918 53.905 73.868 73.871-26.951 13.972-61.891 7.984-92.837 8.982zm108.81-19.966c-12.979-9.982-25.955-19.965-38.931-29.947-15.974-12.978-30.947-27.951-45.921-41.927 1.996-1.996 2.994-2.994 4.99-3.992 27.951-22.961 55.903-44.923 83.853-67.882 11.98 13.976 9.984 30.946 10.98 48.914.003 29.95 5.992 71.874-14.971 94.834zM179.474 187.8c-.997-11.979-7.986-21.961-18.969-25.955-5.989-1.996-12.976-1.996-17.97.999 1-15.972-15.971-26.953-30.945-24.957-12.979.995-30.947 11.979-28.949 25.953-10.979-3.991-21.964-4.992-33.943 0-9.984 3.992-16.97 11.98-19.965 21.964-3.992 13.972 5.99 29.944 19.965 31.944-3.991 5.989-7.986 11.979-7.986 17.968-.995 9.983 4.995 16.971 12.979 21.962 11.979 5.989 26.952 5.989 38.931 0 .997 20.966 32.94 25.954 47.917 14.973 15.971-11.979 17.968-30.945 11.979-47.916 3.991-.995 8.986-1.997 11.981-3.989 9.981-5.993 15.972-19.968 14.975-32.946zm-12.976 6.989c-1.998 6.988-6.99 12.978-13.976 14.974-3.995.998-7.986.998-10.979 0l-.997-.999c-1.998-1.997-4.992-.995-5.989.999h-2.998c-3.992.998-4.991 5.989-3.992 8.984 2.995 3.993 6.99 5.991 11.979 6.988 3.995 10.98 2.995 22.959-6.984 31.944-12.979 10.981-22.96 2.994-32.944-5.99 1-.999 2.998-2.995 3.994-3.993 2.995-3.991-2.994-8.984-6.989-6.988-10.978 8.987-26.952 14.978-40.929 6.988-10.978-5.989-5.991-13.972-1.997-21.961.997-2.995 1.997-4.991 1.997-7.986.999 0 1.998-.999 1.998-.999 4.993-1.998 1.999-7.986-1.998-8.984-.997-.999-2.995-.999-3.991 0-4.995 0-9.981-3.993-11.979-8.985-2-5.992.994-12.977 4.992-16.97 8.985-8.984 24.955-9.982 36.934-9.982h1c1.997 2.994 6.987.998 5.99-2.995-7.987-19.965 45.919-31.944 42.921-.999 0 .999 0 2 1 2.995-2.995 4.995 4.993 8.986 7.985 4.995 3.992-5.99 12.976-4.995 17.969-.998 6.983 2.991 9.978 11.975 7.983 19.962zM205.944 399.533c-1.998-4.992-4.993-9.982-9.98-11.979 7.985-8.984 8.984-25.955-1-33.942-10.976-8.986-26.95-2.997-30.944 8.986-4.993-7.986-15.974-10.981-24.959-5.992-6.986 3.992-9.981 11.981-7.986 19.964-6.984 0-13.974 3.992-17.968 6.987-8.985 7.986-11.979 19.965-6.986 30.945 3.992 9.983 12.976 17.973 24.955 16.971 7.987 0 15.974-4.991 20.966-11.979 5.992 16.969 30.947 17.969 44.922 6.987 6.982-5.983 11.975-16.965 8.98-26.948zm-11.979 7.988c-2 5.991-6.986 9.98-11.979 10.979-8.985 2.994-17.97 0-21.964-7.986-1.995-3.993-7.985-2.995-9.979 0-1 0-2 0-2.997.995-7.986 10.98-25.953 9.982-29.948-3.99-1.997-5.993 1-12.978 5.993-16.97 4.989-3.993 10.978-2.994 16.966-4.994 2.995-.995 3.994-3.99 1.999-6.985-.997-.999-1.999-2-2.995-2-.996-4.991 0-11.979 4.993-13.972 5.992-2.997 11.98 0 15.971 4.991 1 .999 2 .999 2.994.999 0 .995 0 1.997 1.001 2.995.996 5.989 8.984 2.995 7.985-1.998-1.997-10.979 12.979-14.976 17.972-5.992 1.995 3.994 1.995 7.987 0 11.983-1.998 3.989-5.99 4.991-9.984 7.985-3.99 2.995-2.995 9.982 2.995 9.982h2.995c6.985 0 9.98 7.988 7.982 13.978z"/></g></svg>