<svg xmlns="http://www.w3.org/2000/svg" width="1626.777" height="842.644" viewBox="-826.777 -183.144 1626.777 842.644" xml:space="preserve"><path opacity=".2" fill="#96D2CA" d="M-501.089-168.145h160c14.728 0 26.667 11.939 26.667 26.666v400c0 14.729-11.939 26.668-26.667 26.668h-160c-14.728 0-26.667-11.939-26.667-26.668v-400c0-14.726 11.94-26.666 26.667-26.666z"/><path fill="#F79927" d="M75.045 510.552h37.576c10.155-29.715 38.339-51.148 71.451-51.148 33.11 0 61.293 21.435 71.45 51.148h209.5c10.155-29.715 38.34-51.148 71.45-51.148 33.111 0 61.293 21.435 71.451 51.148h42.627a23.4 23.4 0 0 0 1.207-6.465c.133-2.931.248-6.121.33-9.527.367-15.545.006-35.545-2.709-55.254-9.172-66.579-49.852-129.558-101.229-156.719-49.736-26.29-105.695-29.332-143.876-27.258-35.578 1.935-100.646 11.21-136.676 51.565-9.216 10.322-16.316 22.187-23.836 34.746a922.878 922.878 0 0 1-5.118 8.491c-.323.531-.948 1.695-1.787 3.234-12.254 22.5-17.4 29.504-25.723 29.504h-45.73c-50.559 0-91.688 45.056-91.688 100.435v19.365a24.115 24.115 0 0 0 1.33 7.883zm481.276-91.126c0-4.959 4.059-9.021 9.021-9.021h27.066c4.963 0 9.021 4.063 9.021 9.021 0 4.962-4.059 9.021-9.021 9.021h-27.066c-4.96 0-9.021-4.061-9.021-9.021zm-142.806-45.11v-89.854a10.55 10.55 0 0 1 9.636-10.508c70.467-6.114 115.448 20.258 140.774 43.458 27.537 25.223 38.229 51.923 38.668 53.048a10.544 10.544 0 0 1-9.815 14.401H424.06c-5.825 0-10.547-4.721-10.547-10.547l.002.002zm-64.337 45.11c0-4.959 4.061-9.021 9.022-9.021h27.063c4.961 0 9.022 4.063 9.022 9.021 0 4.962-4.06 9.021-9.022 9.021H358.2c-4.961 0-9.022-4.061-9.022-9.021zm-99.964-39.356a10.541 10.541 0 0 1-.806-10.021c24.907-56.284 61.63-79.303 88.052-88.7 28.989-10.313 52.146-6.928 53.115-6.779a10.548 10.548 0 0 1 8.942 10.427v89.319c0 5.828-4.721 10.547-10.546 10.547H258.053a10.547 10.547 0 0 1-8.839-4.793z"/><g fill="#103653"><path d="M798.591 510.91c2.438-7.789 1.695-16.063-2.086-23.295-5.713-10.922-17.016-17.053-28.736-16.375-3.352-4.535-8.036-7.883-13.516-9.6-6.834-2.142-14.092-1.486-20.436 1.828-6.345 3.319-11.019 8.91-13.154 15.742-1.621 5.176-1.641 10.592-.115 15.67-7.615 8.521-9.59 21.219-3.99 31.928 5.039 9.625 14.884 15.141 25.062 15.141 4.543 0 9.018-1.104 13.041-3.215a28.163 28.163 0 0 0 8.654-7.029 30.547 30.547 0 0 0 20.278-2.854c7.232-3.779 12.558-10.152 14.998-17.941zm-20.779-13.518a9.409 9.409 0 0 1 .65 7.213 9.416 9.416 0 0 1-4.646 5.557 9.51 9.51 0 0 1-9.533-.442 10.46 10.46 0 0 0-2.803-1.271c-5.603-1.606-11.443 1.631-13.052 7.23a7.066 7.066 0 0 1-3.549 4.365c-3.481 1.827-7.807.471-9.631-3.015-1.822-3.487-.471-7.811 2.961-9.604l.313-.152a10.55 10.55 0 0 0 5.698-7.328 10.55 10.55 0 0 0-2.305-8.996 5.793 5.793 0 0 1-.734-1.078 5.67 5.67 0 0 1-.391-4.354 5.66 5.66 0 0 1 2.805-3.354 5.722 5.722 0 0 1 2.64-.653 5.791 5.791 0 0 1 1.713.266 5.674 5.674 0 0 1 3.354 2.799c.205.392.363.813.479 1.254.115.445.258.886.43 1.313 2.172 5.402 8.313 8.021 13.715 5.85a9.423 9.423 0 0 1 11.886 4.4zM670.028 346.723c-5.584 1.655-8.767 7.526-7.109 13.111.898 3.03 1.717 6.086 2.449 9.161 1.156 4.842 5.481 8.101 10.25 8.101.83-.001 1.654-.101 2.461-.292 5.664-1.354 9.16-7.047 7.807-12.71a195.846 195.846 0 0 0-2.746-10.263c-1.659-5.581-7.526-8.769-13.112-7.108zm-77.539-76.871c16.709 11.172 31.067 24.255 42.678 38.881a166.856 166.856 0 0 1 10.023 14.064 166.773 166.773 0 0 1 5.047 8.479 10.537 10.537 0 0 0 14.338 4.099c5.096-2.829 6.932-9.25 4.102-14.342a186.597 186.597 0 0 0-16.992-25.416c-12.971-16.343-28.94-30.909-47.471-43.302-4.84-3.239-11.393-1.936-14.629 2.902-3.238 4.845-1.938 11.398 2.904 14.635zm-389.754 40.916.011.007c5.049 2.896 11.49 1.153 14.388-3.896 2.845-4.949 3.954-6.438 8.091-11.971l.33-.438c10.54-14.107 23.415-26.582 38.273-37.076 4.758-3.358 5.89-9.939 2.528-14.7-3.362-4.753-9.942-5.888-14.699-2.527-16.667 11.772-31.135 25.796-43.003 41.683l-.33.439c-4.245 5.683-6 8.034-9.478 14.08-2.902 5.047-1.161 11.496 3.889 14.399zm-21.649 23.25c-.704 1.733-3.798 10.594 4.335 14.852a10.405 10.405 0 0 0 4.834 1.187c3.609 0 7.137-1.85 9.128-5.106.572-.935.995-1.952 1.253-3.017.377-.926 1.231-2.951 3.133-7.255 2.355-5.329-.053-11.557-5.379-13.912-5.334-2.352-11.559.053-13.913 5.38-1.855 4.191-2.857 6.553-3.391 7.871zm217.127-48.541c0-5.206-3.799-9.636-8.946-10.425-.967-.148-24.125-3.535-53.111 6.778-26.422 9.397-63.146 32.416-88.054 88.7a10.561 10.561 0 0 0-.902 4.271c.003 5.823 4.726 10.543 10.55 10.541h129.918c5.826 0 10.546-4.721 10.546-10.548v-89.317h-.001zM274.671 364.25c33.553-61.603 82.443-68.704 102.449-68.829v68.829H274.671zm327.617 6.693c-.439-1.125-11.133-27.825-38.668-53.048-25.326-23.2-70.312-49.571-140.777-43.458a10.552 10.552 0 0 0-9.635 10.508v89.854c0 5.826 4.721 10.548 10.547 10.548h168.719c1.322 0 2.634-.248 3.863-.732 5.418-2.132 8.082-8.253 5.951-13.672zm-167.984-76.126c45.795-1.996 84.24 10.75 114.373 37.997 12.303 11.123 20.842 22.699 26.287 31.436h-140.66v-69.433zm-49.342 116.071h-27.064c-4.963 0-9.021 4.061-9.021 9.021 0 4.959 4.06 9.021 9.021 9.021h27.064c4.96 0 9.021-4.06 9.021-9.021s-4.061-9.023-9.021-9.021zm207.144 0H565.04c-4.963 0-9.021 4.061-9.021 9.021 0 4.959 4.062 9.021 9.021 9.021h27.066c4.961 0 9.021-4.06 9.021-9.021s-4.06-9.023-9.021-9.021z"/><path d="M423.007 234.997c-44.001.099-85.149 9.75-85.147 9.751-30.906 8.246-63.319 22.849-86.3 48.586-10.55 11.815-18.506 25.106-26.198 37.961-1.664 2.777-3.328 5.559-5.021 8.326-.413.674-1.231 2.163-2.313 4.146-5.05 9.27-8.723 15.466-10.966 18.498h-41.963c-48.285 0-89.565 32.876-105.617 78.939-6.878-.282-17.806.666-26.854 7.859-5.851 4.656-12.922 13.725-13.368 30.502-.366 13.783 3.619 24.398 11.852 31.553 3.672 3.188 7.72 5.246 11.67 6.554a15.31 15.31 0 0 0-2.813 8.846v2.867c0 8.516 6.966 15.481 15.48 15.481h28.278c2.849.685 5.798 1.074 8.837 1.074h16.445c3.552 25.299 19.688 46.615 41.851 57.396H98.151c-5.823 0-10.547 4.721-10.547 10.547s4.724 10.547 10.547 10.547h581.777c5.824 0 10.547-4.721 10.547-10.547s-4.723-10.547-10.547-10.547H569.069c22.166-10.781 38.299-32.099 41.854-57.396h21.611c3.006-.004 6-.363 8.922-1.074h28.418c8.514 0 15.48-6.967 15.48-15.481v-.967h6.235c5.826 0 10.547-4.722 10.547-10.548v-33.373c0-5.825-4.721-10.547-10.547-10.547h-3.617c2.531-1.534 4.996-3.426 7.234-5.813 5.109-5.455 10.789-15.455 8.791-32.117-1.643-13.691-7.131-23.613-16.314-29.494-8.854-5.672-18.688-5.85-25.282-5.039-17.314-59.685-56.115-111.38-104.701-137.063-16.519-8.735-33.604-15.103-50.529-19.683 0 .002-40.164-9.842-84.164-9.744zM51.2 498.119c-2.2-.485-4.459-1.369-6.255-2.926-3.243-2.818-4.79-7.889-4.6-15.068.185-6.905 1.985-11.782 5.349-14.5 2.032-1.643 4.626-2.532 7.178-2.979L51.2 498.119zm156.925 37.273a24.233 24.233 0 0 1-2.427 10.549c-3.935 8.164-12.263 13.813-21.933 13.813s-18-5.65-21.934-13.813a24.23 24.23 0 0 1-2.426-10.549c0-13.451 10.903-24.357 24.358-24.357 13.456 0 24.362 10.902 24.362 24.357zm8.543 67.947c22.166-10.781 38.3-32.099 41.852-57.396h202.896c3.551 25.297 19.686 46.613 41.85 57.396H216.668zm343.86-67.947a24.207 24.207 0 0 1-2.429 10.549c-3.934 8.164-12.264 13.813-21.932 13.813-9.67 0-18-5.65-21.934-13.813a24.232 24.232 0 0 1-2.429-10.549c0-13.451 10.906-24.357 24.359-24.357 13.459 0 24.365 10.902 24.365 24.357zm88.547-95.603c2.715 19.709 3.076 39.709 2.707 55.255a435.262 435.262 0 0 1-.33 9.526 23.464 23.464 0 0 1-1.205 6.465H607.62c-10.158-29.715-38.342-51.147-71.451-51.147-33.111 0-61.295 21.434-71.451 51.147H255.217c-10.159-29.715-38.341-51.147-71.452-51.147-33.11 0-61.295 21.434-71.451 51.147H74.74a24.015 24.015 0 0 1-1.328-7.881v-19.365c0-55.379 41.129-100.434 91.688-100.434h45.73c8.323 0 13.469-7.005 25.724-29.504.837-1.539 1.462-2.704 1.786-3.234 1.724-2.82 3.422-5.655 5.119-8.491 7.518-12.561 14.619-24.425 23.836-34.746 36.031-40.355 101.096-49.631 136.676-51.565 38.182-2.073 94.139.969 143.876 27.258 51.377 27.159 92.056 90.139 101.228 156.716zm23.285 67.537c.049-.6.139-1.188.164-1.795.146-3.211.271-6.727.354-10.485h8.166v12.28h-8.684zm7.512-53.672c-1.771 1.918-4.207 3.18-6.666 3.992l-3.506-35.34c2.317.172 4.711.746 6.686 2.033 3.578 2.33 5.82 7.104 6.67 14.188.822 6.861-.248 11.949-3.184 15.127zm93.002 149.685h-48.988c-5.826 0-10.547 4.721-10.547 10.547s4.721 10.547 10.547 10.547h48.988c5.824 0 10.547-4.721 10.547-10.547s-4.725-10.547-10.547-10.547zm-719.564 0H15.094c-5.827 0-10.547 4.721-10.547 10.547s4.72 10.547 10.547 10.547H53.31c5.826 0 10.547-4.721 10.547-10.547s-4.721-10.547-10.547-10.547z"/></g><path fill="#113653" d="M236.282 68.659a2.425 2.425 0 0 1-1.768-.774c-10.032-10.875-11.517-34.64-9.565-53.362a2.362 2.362 0 0 1-.559-.893c-1.493-3.985-2.391-9.51-2.702-15.809-5.9 3.188-11.993 5.886-18.04 8.113-14.484 5.282-25.286 4.782-32.12-1.512-4.274-3.949-6.602-9.895-7.559-16.913-16.335-1.754-31.429-4.782-44.063-9.093a2.396 2.396 0 0 1-1.59-2.602c1.324-9.281 3.115-10.861 9.162-14.927 1.448-.973 3.093-2.075 5.107-3.562 1.773-1.314 4.824-2.602 8.769-3.809a41.922 41.922 0 0 1-2.112-5.206c-7.297-.527-14.063-2.423-19.78-5.996-10.197-6.399-20.907-20.776-13.99-53.025 4.333-20.275 18.644-37.208 38.25-45.279 17.319-7.137 36.032-6.211 52.176 2.4a46.062 46.062 0 0 1 5.991-2.121c8.136-2.283 18.351-1.477 27.531 2.004.38-.41.787-.774 1.2-1.102 6.422-5.133 17.086-6.88 28.492-4.663 11.447 2.215 21.021 7.945 24.988 14.963 5.557 9.819 5.887 20.756 1.306 30.939 7.889 2.833 14.402 7.918 17.444 17.016 2.629 7.835 1.672 15.348-2.666 22.24 5.176 1.583 9.271 3.128 11.946 4.484 16.34 8.369 23.179 14.872 22.891 21.738-.293 6.798-7.604 12.751-23.711 19.288-15.501 6.308-34.406 11.026-54.626 14.077 8.832 25.474-4.755 63.815-18.47 82.414a2.415 2.415 0 0 1-1.805.971l-.127.001zm-6.454-54.465a8.94 8.94 0 0 0-.068.54c-2.135 19.968.431 38.374 6.413 47.48 3.367-5.029 6.684-11.328 9.569-18.277-1.059-.238-1.883-1.164-1.901-2.3-.064-2.835-.211-5.873-.348-9.093-.449-9.221-.953-19.698.394-29.368-2.95 4.549-7.453 8.347-14.059 11.018zm23.11-24.751c-6.156 11.566-5.337 28.758-4.659 42.876.078 1.502.143 2.968.207 4.384 5.433-15.68 8.218-33.417 4.452-47.26zm-18.406 2.204c-1.658 5.075-3.022 10.797-3.967 16.926 9.244-4.718 12.722-12.542 13.459-21.621-.678.082-1.352.151-2.007.22-2.327 2.042-4.818 3.535-7.485 4.475zm-65.666-3.642c.948 5.776 2.928 10.124 5.909 12.881 5.42 4.975 14.567 5.153 27.22.531A132.761 132.761 0 0 0 221.6-7.598v-.349a17.215 17.215 0 0 1-4.503-1.928c-4.777 2.318-8.685 1.805-11.626.408-8.254 3.262-16.866 5.217-23.436 5.442-1.168.046-2.244-.815-2.446-1.997a49.246 49.246 0 0 1-.595-5.213 318.898 318.898 0 0 1-10.128-.76zm57.531 7.155c.055 2.51.196 4.901.431 7.119a108.441 108.441 0 0 1 2.111-8.648 136.88 136.88 0 0 1-2.542 1.529zm-42.565-6.138c.06.706.119 1.374.192 2.029 3.056-.271 6.34-.856 9.688-1.713a337.48 337.48 0 0 1-9.88-.316zm20.247-5.589c.395.436.761.834 1.173 1.2.65-.018 1.273-.018 1.915-.027a78.622 78.622 0 0 0 2.858-1.383 32.845 32.845 0 0 1-1.695-2.744 60.855 60.855 0 0 1-4.251 2.954zm-35.753-.27c3.468.344 6.963.609 10.513.833 0-.916.014-1.841.046-2.78-2.3-2.598-4.343-5.882-6.147-9.638-.32.064-.632.137-.962.192a25.798 25.798 0 0 1-3.284.426c-.317 3.995-.377 7.664-.166 10.967zm58.649-1.173c-.056.591-.129 1.173-.17 1.764a338.1 338.1 0 0 0 5.74-.449c2.886-6.688 6.564-12.332 11.131-15.68.064-2.201.184-4.489.395-6.807a78.078 78.078 0 0 1-7.732 5.836c-.248.444-.49.879-.738 1.301-.993 2.891-2.208 5.493-3.715 7.664-1.696 2.445-3.323 4.553-4.911 6.371zm-103.6-7.471c11.671 3.784 25.373 6.491 40.151 8.154-.179-3.39-.097-6.963.188-10.627-5.822-.751-11.136-3.655-15.611-8.603a41.735 41.735 0 0 1-4.402-5.753c-3.724 1.09-6.61 2.274-8.259 3.491a131.752 131.752 0 0 1-5.286 3.694c-4.812 3.24-5.838 3.922-6.781 9.644zm60.438 4.929c1.183 1.081 2.396 1.91 3.684 2.474.847.362 1.713.6 2.593.705-2.337-2.968-4.16-6.61-5.534-10.714a108.662 108.662 0 0 0-.743 7.535zm6.139-6.762c1.447 3.637 3.335 6.716 5.73 8.956.398-.179.807-.375 1.214-.6-.998-1.97-1.851-4.146-2.574-6.468a34.325 34.325 0 0 1-4.37-1.888zm59.001 8.86v.014a456.57 456.57 0 0 0 4.934-.682c7.132-2.565 12.29-11.223 13.976-20.05.701-3.702.844-7.778.056-11.457-4.059 10.58-10.509 19.899-18.406 27.925-.22.421-.448.834-.678 1.228.063 1.015.096 2.014.118 3.022zm-5.323-7.385c-1.429 1.594-2.813 3.555-4.09 5.827a102.421 102.421 0 0 0 4.182-3.766 70.392 70.392 0 0 1-.06-1.704c-.005-.118-.032-.237-.032-.357zm28.493-27.64c1.393 4.688 1.447 10.066.463 15.21-1.232 6.457-4.132 12.806-8.282 17.46 16.665-2.968 32.152-7.123 45.208-12.432 13.541-5.52 20.522-10.582 20.715-15.057.188-4.524-6.445-10.161-20.293-17.251-2.676-1.372-7.114-2.964-12.845-4.606-4.92 5.721-12.332 10.911-22.075 15.4-.949.431-1.92.854-2.891 1.276zm-72.249 29.528c.303.774.632 1.53.957 2.245a44.55 44.55 0 0 0 1.998-1.832 36.196 36.196 0 0 1-2.955-.413zm13.638.11c.353.197.7.375 1.081.522 1.9.774 3.747.774 5.511.215a34.27 34.27 0 0 0 3.114-2.799c.046-.238.092-.486.129-.715-3.271 1.237-6.523 2.125-9.712 2.657-.046.046-.082.083-.123.12zM177.4-29.833a47.2 47.2 0 0 0 2.011 3.692 109.1 109.1 0 0 1 .623-4.805c-.884.412-1.745.774-2.634 1.113zm20.765.577c1.498.394 3.02.687 4.595.866a43.727 43.727 0 0 1-2.428-4.42c-.998-.046-2.006-.092-2.986-.147.228 1.264.512 2.501.819 3.701zm24.916-4.475c-.917 1.049-1.828 2.093-2.758 3.101a52.192 52.192 0 0 0 4.168-1.649c.133-.577.275-1.164.412-1.723-.604.092-1.217.188-1.822.271zm-14.751 1.039c.165.678.353 1.361.568 2.025.453-.65.894-1.347 1.301-2.062-.623.029-1.255.037-1.869.037zm-19.77-1.016c.724.467 1.447.935 2.217 1.383.669.385 1.356.747 2.043 1.077-.137-.683-.27-1.37-.385-2.075-1.315-.12-2.602-.248-3.875-.385zm60.769-9.622a111.181 111.181 0 0 0-.889 11.088c1.447-4.15 2.528-8.63 3.243-13.129a30.72 30.72 0 0 1-2.354 2.041zm-79.826 6.983c-.201 1.253-.361 2.474-.521 3.678.591-.06 1.186-.142 1.786-.256a69.567 69.567 0 0 1-1.265-3.422zm-20.889-7.242a37.335 37.335 0 0 0 3.051 3.809c3.684 4.054 7.861 6.411 12.516 7.052.21-1.887.494-3.784.787-5.682-3.165-1.147-7.879-3.186-13.055-5.894-1.141.236-2.235.467-3.299.715zm26.258 7.771c.192.536.394 1.063.604 1.58a33.215 33.215 0 0 0 2.419-1.01c-1.035-.183-2.052-.37-3.023-.57zm82.024-12.272a89.103 89.103 0 0 1-2.227 11.823c3.019-4.214 5.625-8.74 7.687-13.534a136.26 136.26 0 0 1-5.46 1.711zm-39.221 9.833c-.036.142-.082.27-.128.412.98-.083 1.942-.188 2.904-.305a119.794 119.794 0 0 0 3.069-3.8c-.843.074-1.686.131-2.528.2a20.663 20.663 0 0 1-1.901 2.192 17.83 17.83 0 0 1-1.416 1.301zm-10.82-1.606c.05.341.096.668.155.994 2.483-.291 4.673-1.063 6.556-2.318.022-.071.027-.13.041-.199-.513.012-1.026.025-1.548.035-.046.025-.092.06-.138.083-1.887 1.254-3.618 1.559-5.066 1.405zm-27.017-1.791a31.77 31.77 0 0 0 1.851 2.201c.073-.247.119-.492.183-.737a73.386 73.386 0 0 0-.21-1.663c-.597.082-1.22.139-1.824.199zm16.546 1.652c.256.08.513.153.77.222.142.037.293.071.449.105a54.803 54.803 0 0 1-.601-1.921 17.497 17.497 0 0 1-.737-.048c.046.549.064 1.101.119 1.642zm35.634-1.045c.078.213.151.435.233.646l.601-.176a57.5 57.5 0 0 0 .398-2.483c-.165.021-.33.044-.495.069a58.343 58.343 0 0 0-.737 1.944zm-58.914-.048c.454.108.907.213 1.365.318-.151-.245-.302-.481-.444-.714-.353-.014-.705-.023-1.054-.048.05.153.096.304.133.444zm67.975-3.243c-.051.222-.097.433-.161.655a35.256 35.256 0 0 0 1.823-.971c-.55.103-1.098.208-1.662.316zm-16.147-5.307c.971.525 1.777 1.086 2.409 1.718.119.122.225.238.33.353a131.55 131.55 0 0 0 6.166-9.631 85.579 85.579 0 0 0-.211-3.257 21.044 21.044 0 0 0-2.231-2.824 20.489 20.489 0 0 0-1.854-1.805 56.581 56.581 0 0 1-2.57 4.466c-.29 3.852-.945 7.59-2.039 10.98zm-18.952.985c.005.184.005.362.032.55a31.38 31.38 0 0 0 1.104-.492c-.375-.026-.751-.04-1.136-.058zm34.819-7.691c.655 2.263.953 4.606.907 6.972 1.283-.256 2.557-.513 3.812-.797.705-3.818 1.612-7.616 2.776-11.211-2.694.936-5.195 2.61-7.495 5.036zm-92.318 4.629c1.319.788 2.644 1.537 3.944 2.251a33.788 33.788 0 0 1-.312-2.613c-1.217.151-2.426.27-3.632.362zm8.388-1.091c.073.879.165 1.782.33 2.709a238.23 238.23 0 0 1 6.083-.971 37.508 37.508 0 0 1-3.426-2.333c-.994.222-1.998.421-2.987.595zM220.03-51.5c.142.048.279.083.421.13.165-.515.316-1.033.458-1.56-.279.295-.559.575-.852.87.001.189-.027.372-.027.56zm-13.999-1.97c2.707.165 5.259.401 7.604.728.604-.49 1.2-1.008 1.791-1.543a66.715 66.715 0 0 0-.027-5.277 31.109 31.109 0 0 1-6.39 1.888 78.795 78.795 0 0 1-2.978 4.204zm51.36.039c0 .058 0 .117-.018.165 2.464-.74 4.864-1.55 7.21-2.405.165-.493.33-.994.467-1.498a11.909 11.909 0 0 0-3.985-3.387 54.366 54.366 0 0 1-2.886 5.098 20.518 20.518 0 0 1-.788 2.027zm-65.437-1.09c-.143.305-.289.607-.426.925.101-.014.215-.014.302-.014.055-.304.083-.607.124-.911zm60.838-4.959a74.578 74.578 0 0 0-1.558 5.58c.522-.68 1.017-1.37 1.493-2.075.046-1.182.065-2.355.065-3.505zm-109.857 3.095c2.954.034 6.037-.188 9.13-.598.114-1.512.348-2.966.705-4.356-2.066-3.564-3.563-7.093-4.512-10.549a32.832 32.832 0 0 1-4.37-4.851c.21 3.527-.541 6.328-1.81 8.449-.252 3.759-.069 7.791.857 11.905zm37.26-3.878c.298 1.125.613 2.215.976 3.28.05-1.276.114-2.554.196-3.83-.385.188-.778.371-1.172.55zm-12.757-95.68c-7.339 0-14.736 1.45-21.892 4.396-18.136 7.473-31.375 23.119-35.383 41.843-5.007 23.378-.916 39.95 11.855 47.941 2.959 1.853 6.257 3.186 9.821 4.065-3-2.662-5.625-5.495-7.618-8.45-1.919-1.511-3.678-3.598-5.071-6.326-7.096-13.83-3.614-26.097 9.803-34.581 4.517-2.858 10.083-5.167 16.208-6.938 8.218-13.158 22.707-24.07 37.091-28.31 2.098-3.259 4.828-6.131 8.461-8.509a55.39 55.39 0 0 0-23.275-5.131zm19.033 92.56a103.033 103.033 0 0 0-.39 5.603 29.813 29.813 0 0 0 2.543-.797 60.861 60.861 0 0 1 1.823-3.151 19.757 19.757 0 0 1-2.565-2.414c-.477.257-.944.514-1.411.759zm86.183-12.432a71.613 71.613 0 0 1-2.373 17.895 113.84 113.84 0 0 0 2.712-1.207c5.817-2.662 13.289-6.833 18.809-12.458-5.625-1.454-12.103-2.893-19.148-4.23zm-114.631 13.77a21.967 21.967 0 0 0 2.945 3.376c.994-.248 1.988-.518 3.001-.797-.303-1.981-.572-3.96-.793-5.904a41.706 41.706 0 0 1-3.146-.614 18.446 18.446 0 0 0-2.007 3.939zm-24.91-1.02a65.477 65.477 0 0 0 4.416 3.878 46.011 46.011 0 0 1-.366-4.732 4.38 4.38 0 0 0-.344.14 11.32 11.32 0 0 1-3.706.714zm35.099-1.827c.164 1.313.339 2.625.54 3.937.257-.08.541-.176.797-.268.119-1.198.303-2.392.536-3.612-.628 0-1.25-.023-1.873-.057zm94.795-.069a16.237 16.237 0 0 1 3.449 2.293c.931-4.476 1.406-9.15 1.397-14.024-.705-.13-1.397-.248-2.107-.374-.027.385-.063.772-.082 1.146-.307 3.577-1.209 7.264-2.657 10.959zm-14.338-14.601c-1.429 5.107-3.417 10.309-5.863 15.465a21.023 21.023 0 0 1 7.521-2.717 48.78 48.78 0 0 1 1.576-3.385 32.725 32.725 0 0 0-.848-3.587c-.596-2.039-1.236-3.951-1.942-5.719-.137-.023-.293-.037-.444-.057zm-34.1 12.21c-.421.923-.897 1.86-1.406 2.822a38.324 38.324 0 0 0 1.723-.854 51.23 51.23 0 0 0-.317-1.968zm20.467-10.408c1.319 3.784 2.291 8.193 2.904 12.856 2.456-5.025 4.499-10.158 5.938-15.208a333.422 333.422 0 0 0-6.871-.683 52.208 52.208 0 0 1-1.971 3.035zm-55.968 12.446c.018.069.027.14.046.199.196-.094.38-.176.586-.27-.22.023-.422.048-.632.071zm13.376-1.534c.018.023.022.034.046.048.329.28.654.55.979.795.051-.06.102-.105.133-.163-.022-.458-.05-.916-.055-1.386-.374.248-.736.47-1.103.706zm-64.732-2.733c2.529 1.748 5.3 2.109 7.384 1.313a5.508 5.508 0 0 0 2.249-1.581c.266-2.813.774-5.683 1.498-8.603a18.504 18.504 0 0 0-.398-1.826c-.312-1.207-3.399-3.587-6.844-4.292-.87-.188-3-.479-3.843.6-2.51 3.234-3.138 6.633-1.919 10.394.421 1.334 1.062 2.671 1.873 3.995zm91.1-.854c.165.751.312 1.523.444 2.32.435-.293.848-.607 1.264-.937.078-.293.143-.598.216-.903a20.562 20.562 0 0 0-1.924-.48zm39.559-1.184a33.44 33.44 0 0 1 .715 3.408c.765-2.189 1.301-4.345 1.604-6.455a27.822 27.822 0 0 0-2.319 3.047zm-26.766 1.992c.279.222.563.456.848.692a59.523 59.523 0 0 0-.403-1.853c-.138.387-.293.777-.445 1.161zm-63.925-.105c1.173.083 2.433.14 3.646.117a44.775 44.775 0 0 1 1.728-4.535c-.032-.527-.083-1.067-.11-1.592-1.997.843-3.853 1.791-5.538 2.858.081 1.031.173 2.084.274 3.152zm12.744-2.733c-.312.74-.613 1.512-.861 2.3.958-.131 1.915-.271 2.872-.421.143-.894.289-1.771.427-2.636a48.451 48.451 0 0 1-.563-2.075 57.193 57.193 0 0 0-1.875 2.832zm-27.888-2.07c1.585 1.239 3.514 2.249 5.735 3.021a28.972 28.972 0 0 1 3.848-3.539 6.43 6.43 0 0 0 .238-.174c-.357-7.125-.124-13.394.655-17.813.581-3.282 1.287-6.376 2.13-9.247a38.543 38.543 0 0 0-4.256 3.223c-7.654 6.691-10.462 15.152-8.35 24.529zm35.433.279c.238.811.49 1.604.819 2.357a97.886 97.886 0 0 0 4.407-1.184c.114-.096.243-.179.376-.259.027-.843.091-1.686.146-2.531a35.56 35.56 0 0 1-.793-4.828c-1.232.153-2.45.328-3.642.527-.479 1.876-.91 3.857-1.313 5.918zm29.692-1.254c1.333.179 2.648.449 3.939.811-.307-2.018-.678-3.997-1.149-5.896-.55.387-1.127.772-1.686 1.15a93.816 93.816 0 0 1-1.104 3.935zm10.102-5.965a131.688 131.688 0 0 1-1.1 6.692 57.144 57.144 0 0 0 2.414-2.881c.105-.483.197-.962.279-1.454a14.776 14.776 0 0 0-.541-1.125 12.7 12.7 0 0 0-.632-1.198c-.137-.009-.274-.023-.42-.034zm44.754.504c8.479 1.617 16.244 3.436 22.767 5.238 3.775-5.377 5.516-11.812 3.023-19.299-2.551-7.595-8.153-11.86-15.135-14.262a48.325 48.325 0 0 1-5.79 7.666 55.99 55.99 0 0 1-12.771 10.275c.531 2.26.907 4.631 1.095 7.068a20.915 20.915 0 0 1 3.752-1.161 2.394 2.394 0 0 1 1.924.424c.55.41.889 1.028.957 1.708.068.788.132 1.569.178 2.343zm-16.606 2.368c.216.447.398.905.591 1.349.298-.387.628-.763.972-1.115-.532-.082-1.049-.151-1.563-.234zm-84.594-27.056c-1.484 3.935-2.685 8.426-3.573 13.463-.623 3.479-.82 8.333-.632 13.923a48.54 48.54 0 0 1 5.634-2.593c-.201-9.478.573-18.738 1.292-25.918a46.96 46.96 0 0 0-2.721 1.125zm28.79 24.244a48.76 48.76 0 0 0-.041 1.795 17.427 17.427 0 0 1 1.695-1.912c-.549.034-1.099.068-1.654.117zm-54.663-2.028c.459.96.99 1.911 1.613 2.859.036-8.321 3.628-15.925 10.673-22.101 2.886-2.531 6.212-4.688 9.803-6.445a56.737 56.737 0 0 1 1.906-4.065c-.788.046-1.576.105-2.378.163-9.28 7.171-17.218 17.73-21.617 29.589zm-3.526-24.491c-3.849 1.372-7.362 3.012-10.403 4.945-9.167 5.788-12.708 13.138-10.559 21.892.559-2.018 1.567-3.965 3.023-5.827 1.777-2.286 4.837-3.115 8.589-2.353 2.295.467 4.777 1.544 6.771 2.987-1.595-6.198-.985-12.996 1.9-20.062.202-.528.445-1.055.679-1.582zm111.066 23.775c2.693.364 5.359.763 7.989 1.175a39.18 39.18 0 0 0-.798-6.07 48.465 48.465 0 0 1-8.419 2.998c.413.623.825 1.255 1.228 1.897zm-60.137-1.801a8.045 8.045 0 0 0-.591.362c.188-.025.376-.048.563-.071 0-.093.01-.199.028-.291zm10.573-4.384c.815.749 1.585 1.734 2.254 3.01.192-1.04.361-2.107.54-3.163a69.24 69.24 0 0 0-2.794.153zm25.735 2.275c.183.163.348.337.521.524-.027-.21-.06-.41-.082-.621-.073-.034-.156-.083-.238-.126-.068.067-.127.14-.201.223zm-50.114-20.346c-.568 5.344-1.242 12.563-1.407 20.332 1.971-5.027 4.43-9.986 7.325-14.588a24.184 24.184 0 0 1 3.5-5.146 80.473 80.473 0 0 1 1.97-2.52c-3.839.271-7.687.903-11.388 1.922zm62.363 18.69c.398.014.778.023 1.172.023h.015c-.298-.28-.573-.559-.885-.829-.087.27-.183.54-.302.806zm8.465-15.891c1.1 3.999 1.476 8.463 1.118 13.351-.037.479-.083.959-.119 1.452a44.357 44.357 0 0 0 7.984-2.963c-1.723-4.842-4.467-9.189-8.195-13.007a13.23 13.23 0 0 1-.596.889c-.059.095-.127.186-.192.278zm-101.548-4.297a43.78 43.78 0 0 0-2.647 5.364c-1.576 3.905-2.776 8.671-2.281 13.665 3.82-7.991 9.144-15.259 15.281-21.172-3.541.549-7.018 1.25-10.353 2.143zm84.975 16.345c.211.657.394 1.326.559 2.004.051-.348.078-.701.101-1.063.064-.822.11-1.62.147-2.396-.249.492-.528.976-.807 1.455zm-12.043-.841c.618.101 1.236.231 1.859.362a23.084 23.084 0 0 1-1.699-2.636c-.05.749-.105 1.498-.16 2.235v.039zm22.377-3.167c.916.941 1.806 1.97 2.676 3.085.063-2.636-.101-5.112-.509-7.396-.545.328-1.113.607-1.694.854a36.386 36.386 0 0 1-.473 3.457zm9.107-13.887c4.755 4.466 8.236 9.599 10.398 15.355a50.004 50.004 0 0 0 10.71-8.779 43.783 43.783 0 0 0 4.471-5.74c-7.989-1.739-17.133-1.725-25.332-1.69-.083.295-.165.574-.247.854zm-52.506 14.379c-.495.284-.967.566-1.447.868.412-.21.824-.41 1.236-.607.065-.083.133-.165.211-.261zm-.732-12.632a38.387 38.387 0 0 0-4.897 6.104c-1.36 2.066-2.552 4.292-3.587 6.61 3.354-5.46 7.477-9.725 12.259-12.762a51.53 51.53 0 0 0-2.758-.371c-.339.126-.678.266-1.017.419zm13.22 7.664c.468.096.87.305 1.195.623.105-.025.216-.048.316-.06a11.76 11.76 0 0 0-.458-.786c-.348.072-.696.14-1.053.223zm-3.981-5.298a30.089 30.089 0 0 0-5.447 3.434 49.073 49.073 0 0 1 6.932-2.435c-.458-.341-.949-.68-1.485-.999zm28.635-.76c.357 1.09.655 2.238.897 3.445.366-.009.733-.035 1.091-.071a20.158 20.158 0 0 0-.275-2.81c-.572-.2-1.146-.388-1.713-.564zm-8.558-1.956c.944 1.617 2.053 2.872 3.345 3.761.068-.632.128-1.241.15-1.825-.215-.506-.43-.985-.678-1.455a46.302 46.302 0 0 0-2.817-.481zm15.039 1.887c.083.55.165 1.113.22 1.674.115-.092.238-.188.362-.293a15.184 15.184 0 0 0-.582-1.381zm-4.465-4.327c.824.261 1.64.541 2.464.845-.192-.27-.375-.527-.577-.788a66.932 66.932 0 0 1-1.887-.057zm-64.728-.222c-.165.28-.33.575-.494.868.137-.048.283-.096.416-.14.028-.244.051-.48.078-.728zm81.594-4.393c7.86 0 16.624.222 24.498 2.158 3.404-7.093 5.122-16.654-.833-27.176-3.289-5.827-11.627-10.664-21.723-12.62-9.647-1.864-18.507-.671-23.917 3.211 7.312 3.724 13.481 9.29 16.638 16.463 2.218 5.014 3.45 11.729 2.887 17.963l2.45.001zm-77.105-19.006c-10.119 4.052-20.046 11.517-26.903 20.376 4.27-.889 8.672-1.544 13.134-1.97 3.436-2.528 7.026-4.64 10.71-6.244.686-4.324 1.626-8.415 3.059-12.162zm.99 17.879c5.722.131 11.214.683 16.171 1.643a49.56 49.56 0 0 1 4.086-3.374 40.833 40.833 0 0 1 5.291-3.376c-6.491-.245-12.841.14-18.607 1.067a36.384 36.384 0 0 0-5.521 1.347 20.62 20.62 0 0 0-1.2 1.033c-.078.536-.147 1.102-.22 1.66zm65.296 1.116c1.117.025 2.309.034 3.518.034.559-5.451-.463-11.587-2.423-16.053-2.854-6.445-8.699-11.425-15.58-14.672-2.904 4.816-5.034 13.007-5.295 21.069 3.143.563 6.257 1.628 9.35 3.2 2.111 1.079 4.026 2.32 5.721 3.715a58.453 58.453 0 0 1 4.709 2.707zm-32.69-3.962c.696 0 1.402.037 2.116.13-.06-.256-.128-.504-.201-.749-.715.163-1.425.371-2.153.619h.238zm-27.356-17.073c-1.777 3.248-2.978 7.029-3.866 11.39.376-.233.747-.456 1.127-.667 8.145-4.478 18.223-4.654 30.014-.541a47.802 47.802 0 0 0-3.015-6.326c-3.774-3.154-8.465-4.876-13.943-5.076-3.309-.116-6.8.317-10.317 1.22zm35.345 10.955h.188c.303-8.236 2.354-16.707 5.575-22.439-7.897-2.742-16.523-3.339-23.294-1.443-.7.204-1.396.412-2.065.635 5.089 3.399 9.069 7.84 12.121 12.938 3.041 2.684 5.552 6.138 7.475 10.309zm-26.133-16.99c.426 0 .838 0 1.265.023 2.368.082 4.631.41 6.747.985a33.259 33.259 0 0 0-4.476-3.504 62.07 62.07 0 0 0-2.432-1.498c-2.369 1.23-4.361 2.671-6.047 4.313a38.754 38.754 0 0 1 4.943-.319zM-30.618 313.104c-.219 0-.457-.019-.676-.049-2.321-.378-3.911-2.559-3.54-4.874 2.151-13.598-1.943-21.639-7.115-31.826-2.077-4.081-4.234-8.309-6.208-13.293-5.83-14.67-7.884-28.584-9.157-49.048-9.102 4.971-19.458 9.242-30.442 9.278h-.019c-2.248 0-4.082-1.73-4.24-3.978-.871-12.702 5.331-21.725 11.332-30.452 3.96-5.785 7.743-11.301 9.369-17.722-12.464 3.46-28.176 10.287-28.493 22.867-.055 2.318-1.968 4.143-4.265 4.143h-.109a4.237 4.237 0 0 1-4.131-4.362c.391-15.212 15.03-26.733 41.178-32.447a4.22 4.22 0 0 1 3.619.886 4.203 4.203 0 0 1 1.535 3.415c-.354 11.533-6.123 19.916-11.686 28.037-4.605 6.686-8.961 13.056-9.771 20.817 9.918-1.231 19.508-6.312 27.769-11.28 1.285-.765 2.863-.811 4.191-.11s2.169 2.044 2.254 3.537c1.225 23.437 2.967 38.107 8.992 53.289 1.834 4.605 3.887 8.65 5.873 12.556 5.403 10.644 10.515 20.695 7.932 37.011a4.253 4.253 0 0 1-4.192 3.605zM31.919 161.246c-2.212 0-4.082-1.73-4.24-3.975-.451-6.826-2.528-13.107-4.709-19.76-2.431-7.341-4.904-14.883-5.203-23.424-2.211.28-4.472.405-6.701.515-3.302.17-6.714.344-8.633 1.09a4.222 4.222 0 0 1-4.831-1.279 4.256 4.256 0 0 1-.28-5.001c1.81-2.818 3.826-5.703 5.958-8.746 6.349-9.068 13.396-19.148 16.479-29.73-18.447 4.983-44.692 17.856-51.077 30.495-1.066 2.105-3.625 2.949-5.715 1.889a4.256 4.256 0 0 1-1.895-5.721C-29.74 79.397 6.692 64.385 24.5 61.096a4.244 4.244 0 0 1 3.697 1.112 4.207 4.207 0 0 1 1.292 3.612c-1.87 14.914-11.094 28.101-19.233 39.725-.115.204-.286.393-.408.591.256-.012.518-.027.78-.045 3.667-.186 7.45-.372 10.07-1.322a4.251 4.251 0 0 1 4.015.637 4.219 4.219 0 0 1 1.657 3.726c-.743 9.211 1.883 17.238 4.679 25.715 2.272 6.856 4.605 13.948 5.136 21.865.164 2.336-1.614 4.365-3.966 4.521-.098.013-.19.013-.3.013z"/><path fill="#103653" d="M-501.089 296.856h66.667v306.668c0 7.363 5.969 13.332 13.333 13.332 7.363 0 13.333-5.969 13.333-13.332V296.856h66.667c22.092 0 40-17.908 40-40v-400c0-22.092-17.908-40-40-40h-160c-22.092 0-40 17.908-40 40v400c0 22.092 17.908 40 40 40zm-13.333-440c0-7.363 5.969-13.334 13.333-13.334h160c7.363 0 13.333 5.971 13.333 13.334v400c0 7.363-5.97 13.334-13.333 13.334h-160c-7.364 0-13.333-5.971-13.333-13.334v-400z"/><path fill="#103653" stroke="#103653" stroke-width="4" stroke-miterlimit="10" d="M-466.866-56.671v-9.92l50.461-69.869h15.67v68.432h14.377v11.357h-14.377v23.146h-12.938v-23.146h-53.193zm53.767-66.132-38.673 54.774h38.673v-54.774zM-466.866 219.271v-9.92l50.461-69.869h15.67v68.432h14.377v11.357h-14.377v23.146h-12.938v-23.146h-53.193zm53.767-66.132-38.673 54.774h38.673v-54.774z"/><path fill="#F07861" d="M-396.524 34.191c-1.103-5.797-3.355-10.47-6.757-14.017-3.403-3.544-8.315-5.319-14.735-5.319-6.52 0-11.479 1.775-14.88 5.319-3.403 3.547-5.656 8.22-6.757 14.017-1.104 5.801-1.653 12.867-1.653 21.205 0 8.627.55 15.863 1.653 21.709 1.101 5.848 3.354 10.544 6.757 14.089 3.401 3.547 8.36 5.319 14.88 5.319 6.42 0 11.332-1.772 14.735-5.319 3.401-3.545 5.654-8.241 6.757-14.089 1.102-5.846 1.653-13.082 1.653-21.709 0-8.338-.552-15.404-1.653-21.205z"/><path fill="#103653" stroke="#103653" stroke-width="4" stroke-miterlimit="10" d="M-455.58 12.797c5.366-9.248 14.758-13.873 28.178-13.873 13.32 0 22.665 4.625 28.033 13.873 5.367 9.25 8.051 22.117 8.051 38.6 0 16.773-2.684 29.809-8.051 39.104-5.368 9.299-14.713 13.945-28.033 13.945-13.42 0-22.812-4.646-28.178-13.945-5.369-9.295-8.051-22.33-8.051-39.104 0-16.483 2.682-29.35 8.051-38.6zm49.67 17.394c-1.103-5.797-3.355-10.47-6.757-14.017-3.403-3.544-8.315-5.319-14.735-5.319-6.52 0-11.479 1.775-14.88 5.319-3.403 3.547-5.656 8.22-6.757 14.017-1.104 5.801-1.653 12.867-1.653 21.205 0 8.627.55 15.863 1.653 21.709 1.101 5.848 3.354 10.544 6.757 14.089 3.401 3.547 8.36 5.319 14.88 5.319 6.42 0 11.332-1.772 14.735-5.319 3.401-3.545 5.654-8.241 6.757-14.089 1.102-5.846 1.653-13.082 1.653-21.709 0-8.338-.552-15.404-1.653-21.205z"/><path fill="#103653" d="M-816.23 606.308c-5.822 0-10.547 4.721-10.547 10.547s4.725 10.547 10.547 10.547h581.777c5.824 0 10.547-4.721 10.547-10.547s-4.723-10.547-10.547-10.547H-816.23zM-141.506 606.309h-48.988c-5.826 0-10.547 4.721-10.547 10.547s4.721 10.547 10.547 10.547h48.988c5.824 0 10.547-4.721 10.547-10.547s-4.725-10.547-10.547-10.547z"/><g fill="#103653"><path d="M316.506 213.652a29.522 29.522 0 0 0 8.995-1.435c3.298-1.065 6.211-2.568 8.738-4.505a30.4 30.4 0 0 0 6.45-6.708 33.396 33.396 0 0 0 4.187-8.184 34.441 34.441 0 0 0 1.608-6.405 49.255 49.255 0 0 1-1.164 6.156 27.67 27.67 0 0 1-3.602 8.205c-1.658 2.567-3.767 4.877-6.325 6.931-2.561 2.052-5.68 3.674-9.358 4.863l-1.237.399c-5.266 1.702-10.213 2.003-14.84.907-4.629-1.097-8.801-3.058-12.517-5.887-3.716-2.827-6.92-6.292-9.612-10.398-2.692-4.104-4.745-8.345-6.16-12.722a67.204 67.204 0 0 1-1.605-5.944 33.004 33.004 0 0 1-.776-6.633c-.043-2.298.2-4.636.729-7.014.527-2.377 1.54-4.717 3.038-7.024a28.265 28.265 0 0 1 4.284-5.115c1.638-1.544 3.389-2.688 5.25-3.43-.148.189-.203.346-.162.473.082.254.312.478.689.67.378.193.618.449.72.766l.062.19c.082.254.001.491-.243.709-.244.22-.649.543-1.211.969a39.8 39.8 0 0 0-2.151 1.798c-.872.772-1.862 1.828-2.97 3.167.503.258.786.482.848.672.999-1.022 1.966-1.826 2.899-2.408.933-.581 1.843-1.016 2.731-1.303 1.84-.594 3.274-.707 4.305-.34 1.028.369 1.596.711 1.698 1.027.164.509-.1 1.049-.79 1.622a70.894 70.894 0 0 0-2.375 2.081c-.894.814-1.782 1.802-2.668 2.964-.886 1.163-1.4 2.607-1.542 4.334-.523 1.851-.687 4.005-.487 6.463a31.647 31.647 0 0 0 1.436 7.208c1.292 3.997 2.946 7.492 4.964 10.482 2.018 2.992 4.287 5.411 6.811 7.257 2.523 1.848 5.253 3.032 8.189 3.554s5.989.271 9.162-.753c3.045-.984 5.543-2.631 7.493-4.943 1.95-2.311 3.357-5.06 4.22-8.247.862-3.185 1.178-6.65.949-10.396-.229-3.744-.979-7.582-2.25-11.516a50.445 50.445 0 0 0-2.162-5.554c-.827-1.798-1.85-3.448-3.069-4.946s-2.662-2.818-4.327-3.961c-1.667-1.143-3.654-2.041-5.968-2.696-2.821-.489-5.079-.758-6.776-.806-1.696-.046-2.627-.324-2.791-.832-.062-.19-.007-.453.165-.789 3.397-.326 6.621-.106 9.671.658 2.818.702 5.4 1.97 7.745 3.803-2.554-2.047-5.135-3.42-7.742-4.119-2.859-.827-6.05-1.162-9.572-1.005.214-.419.281-.756.199-1.01-.082-.253-.615-.327-1.596-.22-.981.107-2.052.208-3.212.302a20.329 20.329 0 0 1-3.306.017c-1.043-.083-1.656-.411-1.841-.982-.225-.697.183-1.389 1.222-2.076a619.537 619.537 0 0 1 3.817-2.495 4.591 4.591 0 0 1 1.346-.225c.454-.005.858.003 1.218.027a33.443 33.443 0 0 1 9.881.17 31.525 31.525 0 0 1 9.427 3.154c2.988 1.557 5.753 3.658 8.29 6.307 2.537 2.648 4.663 5.868 6.378 9.657-1.527-3.64-3.469-6.777-5.826-9.415-2.359-2.635-5.021-4.805-7.988-6.509-2.968-1.703-6.178-2.907-9.628-3.615a42.106 42.106 0 0 0-10.556-.793c2.918-.942 6.01-1.293 9.276-1.053 3.265.242 6.467 1.099 9.605 2.571 3.138 1.474 6.128 3.573 8.971 6.297 2.841 2.726 5.331 6.09 7.465 10.094-.128.042-.303.15-.524.327-.224.177-.398.287-.525.327 1.616 3.051 2.917 6.099 3.9 9.144a44.588 44.588 0 0 1 2.166 13.697c.009 4.692-.732 9.117-2.226 13.277s-3.778 7.876-6.854 11.147c-3.078 3.271-7.026 5.686-11.847 7.243a30.303 30.303 0 0 1-8.773 1.469 35.953 35.953 0 0 1-8.688-.871c.167.086.271.191.313.319.04.126-.098.242-.415.344a31.112 31.112 0 0 0 8.747 1.064zm-8.593-.902c-.021-.063-.074-.117-.157-.159.02.063.072.116.157.159zm18.305-61.087a1.614 1.614 0 0 0-.408-.288c.103.108.239.203.408.288zm10.944 23.788a40.476 40.476 0 0 0-1.816-8.872 44.404 44.404 0 0 0-1.854-4.761 43.07 43.07 0 0 1 1.482 3.935 53.58 53.58 0 0 1 2.188 9.698zm0 0a35.819 35.819 0 0 1-.024 7.732 24.736 24.736 0 0 1-1.949 7.303 22.13 22.13 0 0 0 2.091-7.191c.296-2.548.257-5.162-.118-7.844zm5.829-7.979c.48 2.577.847 5.28 1.095 8.106.247 2.828.259 5.68.032 8.555a37.365 37.365 0 0 1-1.644 8.413 27.496 27.496 0 0 1-3.8 7.428 28.682 28.682 0 0 0 3.957-7.269 35.692 35.692 0 0 0 1.864-8.379 44.076 44.076 0 0 0-.029-8.871 54.316 54.316 0 0 0-1.627-8.775c-.001.211.05.476.152.792zm1.266-3.562c.349 1.08.644 2.209.886 3.392.285 1.1.549 2.24.791 3.423a39.948 39.948 0 0 1-.979-3.678 53.308 53.308 0 0 0-1.285-4.629l-.554-1.713c.228.488.434 1.016.618 1.587l.523 1.618zm1.861 7.386.65 4.939c.051 1.245.098 2.474.14 3.686a32.781 32.781 0 0 1-.081 3.652 62.199 62.199 0 0 0-.146-6.469 86.407 86.407 0 0 0-.686-6.189l.123.381zm.401 14.899zm.238-1.864-.073 1.074c.024-.357.047-.714.073-1.074zm.07-.758zM406.568 127.83l-.095 1.822c.036 3.284.232 6.784.589 10.5.347 3.651.498 7.358.457 11.12.115-3.703.14-7.328.073-10.878-.083-3.68-.158-7.294-.225-10.844a32.349 32.349 0 0 1 1.228 3.282c.367 1.167.627 2.412.776 3.736.044 3.351.107 6.564.189 9.64.08 3.078.076 6.299-.011 9.663l-1.258.445c.014 3.085-.306 6.476-.958 10.173a37.024 37.024 0 0 1-3.492 10.461c-1.676 3.277-3.987 6.106-6.938 8.486-2.95 2.383-6.646 3.824-11.082 4.328a32.653 32.653 0 0 1-4.66.177 28.026 28.026 0 0 1-4.844-.557 23.58 23.58 0 0 1-4.592-1.441 13.093 13.093 0 0 1-3.915-2.575l.121.188.012.099-.088.111-.31-.065c.465.551.955 1.033 1.473 1.443a22.048 22.048 0 0 1-3.696-3.304c-1.912-2.063-3.541-4.596-4.889-7.597a41.666 41.666 0 0 1-2.034-5.506 56.322 56.322 0 0 1-1.389-6.032 143.713 143.713 0 0 1-1.044-6.977 624.54 624.54 0 0 1-.997-8.34c.325-2.453.517-4.89.578-7.312a87.989 87.989 0 0 0-.116-7.233c.198-.023.426-.082.685-.179.256-.095.518-.159.783-.189.463-.053.907.166 1.332.654.424.49.734 1.595.931 3.316l.102.894c.029.266.029.567.002.906l1.192-.135c.213-2.842.602-5.033 1.166-6.574.563-1.539 1.208-2.351 1.938-2.434.529-.06 1.094.631 1.694 2.072.6 1.441 1.08 3.752 1.441 6.932.264 2.319.463 4.677.603 7.077.137 2.4.35 4.858.636 7.375.443 3.909 1.027 7.431 1.753 10.569.725 3.139 1.746 5.774 3.062 7.905 1.314 2.132 3.02 3.7 5.113 4.703 2.093 1.005 4.695 1.329 7.81.975 2.584-.293 4.646-1.332 6.188-3.118 1.541-1.785 2.758-4.07 3.649-6.855.892-2.784 1.553-5.963 1.987-9.535.433-3.571.799-7.287 1.1-11.145a52.072 52.072 0 0 0-.063-3.213 55.385 55.385 0 0 0-.273-3.291l-.35-3.08c-.218-1.92-.303-3.554-.255-4.902.049-1.347.524-2.173 1.43-2.477.384 3.378.664 6.735.842 10.069.228 3.194.324 6.404.288 9.629.109-3.166.12-6.32.032-9.464a239.93 239.93 0 0 0-.531-10.004c.427.221.772.315 1.038.285.265-.03.515-.192.75-.487l-.406-3.577c.195-1.23.431-2.112.706-2.646.274-.535.611-.824 1.009-.87.397-.045.817.109 1.26.461.442.353.896.804 1.361 1.355l1.132 1.985zm-35.059 60.843zm.42.153a25.372 25.372 0 0 0 5.149 1.479c1.745.305 3.375.472 4.888.501 1.513.03 2.732-.008 3.66-.113 4.637-.526 8.462-2 11.475-4.423 3.012-2.421 5.388-5.292 7.125-8.608a38.802 38.802 0 0 0 3.696-10.434c.683-3.432 1.132-6.57 1.347-9.412-.148 2.835-.526 5.998-1.137 9.489a39.187 39.187 0 0 1-3.68 10.583c-1.733 3.352-4.069 6.266-7.008 8.747s-6.661 3.977-11.165 4.488c-2.519.286-5.04.237-7.565-.147a23.764 23.764 0 0 1-7.205-2.302c.139.051.278.103.42.152zm35.28-28.763c.071-1.148.111-2.26.125-3.335l.081-2.827c-.066 2.961-.38 6.116-.938 9.466a44.468 44.468 0 0 1-2.786 10.028 31.485 31.485 0 0 1-5.352 8.709c-2.137 2.457-4.75 4.263-7.839 5.418 2.715-.912 5.067-2.352 7.058-4.324a27.447 27.447 0 0 0 5.052-6.914 38.232 38.232 0 0 0 3.057-8.096c.717-2.831 1.231-5.539 1.542-8.125zm-9.047 8.072a37.367 37.367 0 0 1-1.961 4.449 21.173 21.173 0 0 1-2.624 3.921 16.628 16.628 0 0 0 2.734-3.833 26.537 26.537 0 0 0 1.851-4.537zm9.296-14.743zM429.981 217.432c.343-3.721.65-7.393.922-11.016.271-3.625.522-7.467.751-11.526.098-1.732.16-3.447.19-5.147.029-1.701.022-3.354-.021-4.959l-.62 10.983a394.44 394.44 0 0 1-.767 10.924 126.867 126.867 0 0 1-1.354 10.691c-.3-.618-.564-1.251-.794-1.898a9.705 9.705 0 0 1-.484-2.081c.234-1.79.41-3.432.529-4.928.117-1.496.228-3.142.328-4.939l1.232-.532a44.418 44.418 0 0 1-.16-4.266c.014-1.436.062-2.851.14-4.249.087-1.532.186-3.011.301-4.44.114-1.43.215-2.908.301-4.44.105-1.863.16-3.713.163-5.55a45.754 45.754 0 0 0-.336-5.578l-.3-.017a767.817 767.817 0 0 1-.118 8.307 223.77 223.77 0 0 1-.313 8.195 65.513 65.513 0 0 1-.303 3.589l-.246 2.59c.227-6.397.347-12.666.36-18.81.102-6.537.013-13.253-.265-20.147l.867-8.264a25.74 25.74 0 0 0-2.291-.229l-2.296-.129-.17-2.313c.019-.332.268-.619.749-.859.48-.239 1.421-.321 2.818-.242l.998.056.068-1.198c-2.182-.389-3.87-.953-5.063-1.688-1.194-.734-1.77-1.468-1.729-2.201.037-.665.67-1.214 1.896-1.646 1.227-.432 2.797-.744 4.711-.936a64.838 64.838 0 0 1 6.276-.297c2.27-.005 4.47.052 6.601.172 2.329.131 4.839.34 7.526.625 2.688.287 5.381.772 8.081 1.458a39.313 39.313 0 0 1 7.8 2.894 23.42 23.42 0 0 1 6.68 4.984c1.951 2.081 3.526 4.641 4.725 7.678 1.196 3.04 1.875 6.701 2.034 10.982-.203 3.594-1.152 6.495-2.845 8.704-1.694 2.208-3.679 3.949-5.954 5.223-2.275 1.273-4.612 2.144-7.009 2.609-2.396.466-4.366.755-5.908.869l-5.356.85c-2.021.321-3.73.44-5.128.361-1.532-.086-2.422-.303-2.668-.651-.248-.347-.356-.787-.326-1.32 3.003.036 6.013-.044 9.028-.242a50.944 50.944 0 0 0 9.096-1.44 77.053 77.053 0 0 1-9.079 1.14c-3.016.198-6.025.278-9.027.242a8.31 8.31 0 0 0-.03-1.253c-.042-.436-.229-.664-.562-.683-.667-.038-1.243.999-1.729 3.108-.486 2.11-.897 4.64-1.229 7.593a200.7 200.7 0 0 0-.815 9.118 710.735 710.735 0 0 0-.489 7.785 30.416 30.416 0 0 0-.017 2.954 27.761 27.761 0 0 1 0 2.654c-.037.665-.169 1.225-.395 1.68-.227.454-.806.656-1.737.603l.71-12.58a134.17 134.17 0 0 0-.604 6.276c-.15 2.06-.284 4.156-.405 6.287l-1.797-.102-.045.799c-.034.599.042 1.037.227 1.315-.805 1.222-1.672 1.809-2.604 1.756-.733-.042-1.271-.272-1.613-.692-.345-.42-.83-.983-1.458-1.685l.351-.881zm2.814-56.932c.14-.125.305-.684.495-1.675a70.85 70.85 0 0 0 .532-3.225c.166-1.158.327-2.25.485-3.278.158-1.025.309-1.635.454-1.827l-1.292-.173-.674 10.178zm9.222 15.845 1.397.079c2.329.131 5.015.15 8.06.054 3.043-.094 5.917-.433 8.621-1.016 2.703-.582 5.007-1.486 6.914-2.715 1.905-1.227 2.918-2.906 3.039-5.037l.045-.799c.037-.665.028-1.4-.026-2.205a5.546 5.546 0 0 0-.719-2.345c.047.338.176 1.012.387 2.025.209 1.013.296 1.854.258 2.519-.116 2.064-.927 3.704-2.431 4.921-1.506 1.217-3.361 2.148-5.566 2.791-2.207.644-4.601 1.042-7.179 1.197-2.58.155-5.034.167-7.363.035l-1.997-.113a20.212 20.212 0 0 1-1.991-.212c.973-.679 2.217-1.127 3.731-1.342a61.883 61.883 0 0 1 4.785-.481c1.674-.105 3.316-.213 4.926-.323 1.608-.109 2.991-.365 4.149-.767l.531 1.231c2.394-1 4.104-2.022 5.131-3.065 1.026-1.044 1.596-2.53 1.705-4.461.172-3.061-.524-5.805-2.09-8.231-1.565-2.425-3.759-4.118-6.574-5.079l-.333.582c2.408 1.072 4.453 2.723 6.13 4.954 1.677 2.232 2.431 4.845 2.262 7.84-.09 1.597-.528 2.842-1.313 3.732-.711.761-1.817 1.434-3.318 2.016 1.228-.464 2.164-1.08 2.809-1.845a7.888 7.888 0 0 0 1.672-3.01c.158-2.796-.375-5.195-1.597-7.202-1.224-2.005-2.998-3.658-5.329-4.958-2.33-1.299-5.163-2.295-8.495-2.984-3.334-.689-7.031-1.148-11.09-1.377.37 2.893.511 6.023.421 9.389-.09 3.367-.06 6.657.095 9.871l.343 6.331zM496.854 178.333c.959.572 2.07 1.453 3.329 2.642a94.236 94.236 0 0 0 4.289 3.795c1.599 1.34 3.4 2.625 5.404 3.854 2.003 1.231 4.236 2.138 6.702 2.724l1.07.254c.389.092.857.136 1.408.129l.885 1.033c2.715-.177 5.141-1.158 7.279-2.947 2.137-1.787 3.646-4.529 4.525-8.226.632-2.659.435-4.641-.591-5.948-1.025-1.306-3.226-2.36-6.598-3.162a51.525 51.525 0 0 0-6.573-1.101 55.981 55.981 0 0 1-7.157-1.239c-1.104-.263-2.227-.581-3.371-.956s-2.295-.87-3.449-1.488l-.139.584c2.439 1.266 4.925 2.199 7.454 2.8 2.465.586 4.851.999 7.158 1.239 2.307.24 4.497.606 6.573 1.1 1.752.417 3.086.923 4.008 1.518.92.596 1.569 1.247 1.951 1.954.379.707.554 1.486.524 2.334-.032.85-.162 1.761-.394 2.733-.725 3.049-2.153 5.45-4.282 7.205-2.035 1.641-4.184 2.466-6.447 2.476 2.599-.271 4.828-1.284 6.684-3.036 1.949-1.865 3.25-4.161 3.897-6.885.463-1.946.314-3.557-.443-4.834-.76-1.276-2.371-2.208-4.835-2.794-2.012-.478-4.312-.887-6.903-1.23a81.36 81.36 0 0 1-8.167-1.53c-1.751-.417-3.726-1.125-5.919-2.126a21.094 21.094 0 0 1-5.965-4.091c-1.784-1.725-3.131-3.844-4.04-6.356-.911-2.512-.949-5.52-.116-9.022.663-2.788 1.843-5.231 3.541-7.33a21.63 21.63 0 0 1 6.004-5.151 22.311 22.311 0 0 1 7.477-2.694 20.944 20.944 0 0 1 7.933.139c2.464.585 4.735 1.485 6.811 2.698a36.53 36.53 0 0 1 5.748 4.142 53.059 53.059 0 0 1 4.896 4.916 89.207 89.207 0 0 1 4.134 5.094l-2.408 1.483c-.454-.108-1.07-.545-1.847-1.313-.777-.767-1.944-2.056-3.501-3.865l-.792.737c1.888 2.437 3.174 4.593 3.859 6.468.685 1.876.919 3.269.703 4.176-.255.489-.64.67-1.158.547-.52-.124-1.456-.792-2.813-2.005a477.428 477.428 0 0 0-4.632-4.082 60.558 60.558 0 0 0-5.604-4.313c-2.006-1.367-3.917-2.268-5.731-2.699a9.064 9.064 0 0 0-3.252-.157 10.375 10.375 0 0 0-3.203.935 8.824 8.824 0 0 0-2.682 1.984c-.783.841-1.313 1.846-1.59 3.014-.447 1.882.127 3.355 1.725 4.419 1.597 1.065 3.821 1.936 6.676 2.615.584.139 1.22.274 1.909.402.688.13 1.34.2 1.955.208 1.491.354 2.492.541 3.002.56.509.018.99.081 1.445.189a62.252 62.252 0 0 1 8.228 2.573c2.695 1.052 4.992 2.489 6.89 4.311 1.896 1.822 3.241 4.095 4.033 6.817.791 2.724.709 6.096-.247 10.117-.663 2.79-1.793 5.45-3.388 7.983a22.71 22.71 0 0 1-5.99 6.388c-2.398 1.727-5.15 2.922-8.254 3.588-3.105.666-6.539.552-10.3-.342-2.271-.54-4.843-1.614-7.715-3.221a71.333 71.333 0 0 1-8.016-5.195c-2.472-1.855-4.511-3.658-6.114-5.411-1.605-1.751-2.3-3.081-2.083-3.99.061-.258.269-.415.625-.468 3.262 3.859 6.713 7.215 10.352 10.067 3.604 2.707 7.491 4.659 11.662 5.856a30.744 30.744 0 0 1-5.972-2.551 55.493 55.493 0 0 1-5.806-3.898 49.306 49.306 0 0 1-5.269-4.645 126.14 126.14 0 0 1-4.63-4.955l1.76-.917c-.179-.11-.482-.423-.908-.936-.427-.513-.813-1.119-1.161-1.818s-.639-1.419-.874-2.161c-.234-.74-.282-1.404-.144-1.987.153-.647.383-1.04.689-1.172.305-.133.62-.161.945-.083.323.077.95.467 1.881 1.167.931.703 2.08 1.49 3.45 2.363zm19.141 15.035c-2.271-.54-4.672-1.607-7.204-3.203a41.08 41.08 0 0 1-6.965-5.51c1.686 1.84 3.635 3.588 5.846 5.244 2.21 1.656 4.936 2.869 8.18 3.641 4.345 1.033 8.114.525 11.31-1.526 3.193-2.05 5.323-5.313 6.387-9.788l.231-.973c.168-2.152-.123-4.021-.877-5.605-.755-1.583-2.22-2.702-4.393-3.357 1.3.583 2.318 1.271 3.056 2.063.736.792 1.252 1.652 1.546 2.578.293.927.422 1.899.385 2.918a15.74 15.74 0 0 1-.425 3.085c-1.277 4.219-3.438 7.251-6.479 9.098-3.045 1.846-6.577 2.291-10.598 1.335zm11.454 6.732c1.866-.651 3.466-1.607 4.793-2.869a33.477 33.477 0 0 0 3.64-4.068c-2.01 2.4-4.445 4.357-7.306 5.869-2.861 1.514-5.975 2.142-9.341 1.891 1.278.098 2.625.126 4.04.086a11.715 11.715 0 0 0 4.174-.909zm-7.155-8.382-.195-.046.195.046zm20.745-7.711a5.62 5.62 0 0 0 .097-2.136 12.542 12.542 0 0 1-.093-1.77l-.204 1.288c-.06.535-.195 1.256-.411 2.164a22.188 22.188 0 0 1-1.786 4.92 41.611 41.611 0 0 1-2.593 4.42 91.018 91.018 0 0 0 2.778-4.119 20.258 20.258 0 0 0 2.212-4.767zm.073-4.197-.069.292.069-.292z"/></g></svg>