<svg xmlns="http://www.w3.org/2000/svg" width="841.89" height="48.182" xml:space="preserve"><path fill="#96D2CA" d="M14.598 16.923c1.754 3.875 5.709 6.581 10.314 6.581a11.33 11.33 0 0 0 9.408-4.953 11.384 11.384 0 0 0 6.533 2.052c1.902 0 3.689-.466 5.26-1.276.145 5.983 5.131 10.795 11.275 10.795 3.617 0 6.83-1.674 8.896-4.268 5.084 10.264 15.818 17.34 28.25 17.34 13.814 0 25.541-8.749 29.729-20.896a11.402 11.402 0 0 0 5.117 1.209c2.592 0 4.971-.863 6.877-2.303 1.816 9.926 10.654 17.463 21.311 17.463 9.482 0 17.521-5.976 20.465-14.283.893.357 1.863.56 2.891.56a7.696 7.696 0 0 0 6.26-3.188c4.994 3.283 11.002 5.199 17.469 5.199 5.135 0 9.977-1.215 14.256-3.357.623 11.179 10.045 20.061 21.613 20.061 10.654 0 19.494-7.537 21.311-17.464a11.375 11.375 0 0 0 6.877 2.304c1.844 0 3.578-.441 5.115-1.21 4.189 12.147 15.912 20.896 29.73 20.896 16.443 0 29.924-12.391 31.266-28.158a31.828 31.828 0 0 0 12.184 2.401c8.355 0 15.941-3.205 21.566-8.42 5.689 7.832 15.023 12.947 25.586 12.947 13.098 0 24.316-7.861 29.02-19.028a11.403 11.403 0 0 0 5.865 1.622c.314 0 .625-.021.936-.046 3.402 13.376 15.742 23.288 30.451 23.288 12.627 0 23.506-7.31 28.486-17.839.895.357 1.873.56 2.898.56.912 0 1.783-.164 2.596-.45a11.355 11.355 0 0 0 8.691 4.005c5.006 0 9.244-3.193 10.723-7.613 5.521 4.736 12.748 7.613 20.664 7.613 10.563 0 19.896-5.113 25.586-12.945 5.625 5.215 13.211 8.42 21.566 8.42 4.32 0 8.438-.855 12.182-2.402 1.342 15.77 14.822 28.158 31.27 28.158 13.816 0 25.539-8.75 29.73-20.897 1.537.77 3.271 1.21 5.115 1.21a11.35 11.35 0 0 0 6.875-2.303c1.818 9.925 10.658 17.463 21.313 17.463 11.564 0 20.988-8.883 21.611-20.059a31.762 31.762 0 0 0 14.256 3.356c6.465 0 12.475-1.918 17.467-5.198a7.697 7.697 0 0 0 6.26 3.186c1.023 0 2-.199 2.895-.557 2.939 8.309 10.979 14.283 20.461 14.283 10.652 0 19.494-7.539 21.313-17.464a11.374 11.374 0 0 0 6.875 2.304c1.844 0 3.58-.441 5.117-1.209 4.193 12.145 15.916 20.895 29.732 20.895 2.688 0 5.291-.35 7.779-.975V0H0v15.849a11.353 11.353 0 0 0 7.945 3.213c2.491 0 4.785-.8 6.653-2.139z"/></svg>