<svg xmlns="http://www.w3.org/2000/svg" width="780" height="111.898" xml:space="preserve"><path fill="#96D2CA" d="M5.952 70.982c-6.157-.018-12.075 2.498-16.488 7.012V193.63h1746.982V37.635c-5.16-1.364-10.563-2.128-16.141-2.128-28.671 0-53 19.096-61.692 45.6-3.192-1.675-6.785-2.638-10.622-2.638-5.146-.006-10.155 1.769-14.268 5.037-3.773-21.67-22.125-38.12-44.227-38.12-19.678 0-36.357 13.036-42.456 31.169a15.5 15.5 0 0 0-6.012-1.216c-5.142-.008-9.979 2.57-12.99 6.952-10.356-7.147-22.827-11.333-36.243-11.333-10.271-.021-20.397 2.486-29.581 7.317-1.296-24.39-20.85-43.774-44.848-43.774-22.113 0-40.454 16.45-44.229 38.109-4.104-3.271-9.114-5.045-14.266-5.027a22.608 22.608 0 0 0-10.6 2.642c-8.701-26.509-33.022-45.604-61.695-45.604-34.143 0-62.101 27.031-64.886 61.45a63.35 63.35 0 0 0-25.289-5.242c-17.332 0-33.073 6.993-44.746 18.375-11.809-17.093-31.173-28.24-53.094-28.24-16.427 0-31.424 6.278-42.878 16.604-3.077-9.646-11.859-16.604-22.262-16.604-6.936-.031-13.534 3.175-18.024 8.74a15.573 15.573 0 0 0-5.39-.981c-2.131 0-4.154.449-6.016 1.221-10.334-22.97-32.91-38.931-59.111-38.931-30.521 0-56.13 21.631-63.186 50.822a22.557 22.557 0 0 0-1.945-.101 22.77 22.77 0 0 0-12.169 3.539c-9.769-24.372-33.041-41.525-60.221-41.525-21.924 0-41.292 11.163-53.093 28.255-11.675-11.38-27.411-18.375-44.75-18.375a63.018 63.018 0 0 0-25.283 5.241c-2.78-34.411-30.764-61.452-64.884-61.452-28.673 0-52.997 19.096-61.689 45.603-3.19-1.678-6.79-2.642-10.615-2.642-5.148-.006-10.161 1.77-14.271 5.038-3.771-21.674-22.113-38.123-44.221-38.123-24.005 0-43.559 19.39-44.851 43.785-8.882-4.665-18.928-7.327-29.583-7.327-13.423 0-25.887 4.183-36.25 11.348-3.012-4.385-7.848-6.981-12.988-6.956-2.135 0-4.146.44-5.999 1.221-6.106-18.121-22.791-31.171-42.468-31.171-22.114 0-40.452 16.449-44.223 38.11-3.955-3.143-8.892-5.025-14.269-5.025a22.7 22.7 0 0 0-10.617 2.64c-8.693-26.508-33.026-45.603-61.69-45.603-25.799 0-48.071 15.433-58.621 37.842-4.286-5.658-10.954-9.321-18.459-9.321-12.748 0-23.095 10.512-23.396 23.559a22.886 22.886 0 0 0-10.914-2.774c-4.85-.007-9.581 1.558-13.557 4.479-4.386-6.791-11.704-10.84-19.514-10.81-9.557 0-17.761 5.904-21.401 14.36-3.872-2.922-8.633-4.668-13.801-4.668z"/></svg>