<svg xmlns="http://www.w3.org/2000/svg" width="780" height="172.797" xml:space="preserve"><path fill="#96D2CA" d="M1713.957 115.941c6.158.018 12.076-2.498 16.488-7.012V-6.708H-16.537v155.995c5.16 1.364 10.563 2.128 16.14 2.128 28.671 0 53-19.096 61.693-45.6 3.192 1.675 6.785 2.638 10.622 2.638 5.146.006 10.155-1.769 14.268-5.037 3.773 21.67 22.125 38.12 44.226 38.12 19.678 0 36.358-13.036 42.456-31.169a15.495 15.495 0 0 0 6.012 1.216c5.141.008 9.979-2.57 12.99-6.952 10.357 7.147 22.827 11.333 36.243 11.333 10.271.021 20.398-2.486 29.581-7.317 1.296 24.39 20.85 43.774 44.848 43.774 22.113 0 40.454-16.45 44.229-38.109 4.104 3.271 9.115 5.045 14.266 5.027a22.608 22.608 0 0 0 10.6-2.642c8.701 26.509 33.022 45.604 61.696 45.604 34.143 0 62.1-27.031 64.885-61.45a63.354 63.354 0 0 0 25.289 5.242c17.332 0 33.074-6.994 44.746-18.375 11.809 17.093 31.174 28.24 53.094 28.24 16.426 0 31.424-6.278 42.879-16.604 3.076 9.646 11.859 16.604 22.26 16.604 6.936.031 13.535-3.175 18.025-8.74 1.725.643 3.549.975 5.389.981 2.131 0 4.156-.449 6.016-1.221 10.334 22.97 32.91 38.931 59.111 38.931 30.521 0 56.131-21.631 63.186-50.822a22.9 22.9 0 0 0 1.945.101 22.783 22.783 0 0 0 12.17-3.539c9.768 24.371 33.041 41.525 60.221 41.525 21.924 0 41.291-11.163 53.092-28.255 11.674 11.38 27.412 18.375 44.75 18.375a63.014 63.014 0 0 0 25.283-5.241c2.781 34.411 30.764 61.452 64.885 61.452 28.672 0 52.996-19.096 61.689-45.603a22.71 22.71 0 0 0 10.615 2.642c5.148.006 10.16-1.77 14.27-5.038 3.771 21.674 22.113 38.123 44.221 38.123 24.004 0 43.559-19.39 44.85-43.785 8.883 4.665 18.928 7.327 29.584 7.327 13.422 0 25.887-4.183 36.25-11.348 3.012 4.385 7.848 6.981 12.988 6.956 2.135 0 4.146-.44 5.998-1.221 6.107 18.121 22.791 31.171 42.469 31.171 22.113 0 40.451-16.449 44.223-38.11 3.955 3.143 8.893 5.025 14.27 5.025a22.703 22.703 0 0 0 10.617-2.64c8.691 26.508 33.025 45.603 61.689 45.603 25.799 0 48.07-15.433 58.621-37.842 4.285 5.658 10.953 9.321 18.459 9.321 12.748 0 23.094-10.512 23.396-23.559a22.886 22.886 0 0 0 10.914 2.774c4.85.007 9.58-1.558 13.557-4.479 4.385 6.791 11.703 10.84 19.514 10.81 9.557 0 17.762-5.904 21.4-14.36 3.876 2.923 8.636 4.669 13.804 4.669z"/></svg>