<svg xmlns="http://www.w3.org/2000/svg" width="800" height="800" xml:space="preserve"><path fill="#F79927" d="M729.502 520.032a24.063 24.063 0 0 0 1.328-7.881v-19.365c0-55.379-41.13-100.434-91.688-100.434h-45.731c-8.322 0-13.469-7.004-25.723-29.504-.838-1.539-1.463-2.703-1.787-3.234a990.112 990.112 0 0 1-5.118-8.492c-7.519-12.56-14.62-24.424-23.836-34.746-36.031-40.356-101.097-49.632-136.676-51.566-38.18-2.074-94.138.968-143.875 27.258-51.377 27.161-92.057 90.14-101.229 156.718-2.714 19.709-3.075 39.709-2.708 55.254.082 3.406.197 6.598.33 9.527a23.387 23.387 0 0 0 1.206 6.465h42.627c10.159-29.715 38.341-51.148 71.451-51.148 33.112 0 61.296 21.434 71.452 51.148h209.499c10.158-29.715 38.34-51.148 71.451-51.148 33.112 0 61.295 21.434 71.451 51.148h37.576zm-490.298-82.105h-27.067c-4.962 0-9.021-4.061-9.021-9.021s4.06-9.021 9.021-9.021h27.067c4.963 0 9.021 4.061 9.021 9.021s-4.06 9.021-9.021 9.021zm151.83-54.131c0 5.826-4.721 10.547-10.547 10.547H211.769a10.55 10.55 0 0 1-8.714-4.607 10.54 10.54 0 0 1-1.1-9.795c.438-1.125 11.131-27.826 38.667-53.048 25.326-23.2 70.31-49.572 140.776-43.458a10.55 10.55 0 0 1 9.635 10.508v89.853zm55.313 54.131h-27.064c-4.963 0-9.022-4.061-9.022-9.021s4.06-9.021 9.022-9.021h27.064c4.963 0 9.022 4.061 9.022 9.021s-4.061 9.021-9.022 9.021zm108.986-48.377a10.544 10.544 0 0 1-8.839 4.791H416.575c-5.826 0-10.547-4.719-10.547-10.547v-89.32c0-5.207 3.799-9.634 8.945-10.426.967-.148 24.125-3.535 53.114 6.779 26.422 9.398 63.144 32.416 88.052 88.701a10.543 10.543 0 0 1-.806 10.022z"/><g fill="#103653"><path d="M5.956 520.389c2.439 7.789 7.766 14.162 14.999 17.943a30.546 30.546 0 0 0 20.279 2.852 28.163 28.163 0 0 0 8.654 7.03 28.047 28.047 0 0 0 13.041 3.214c10.178 0 20.021-5.514 25.061-15.139 5.599-10.71 3.625-23.408-3.99-31.929 1.525-5.078 1.506-10.493-.115-15.669-2.138-6.832-6.812-12.423-13.156-15.742-6.343-3.316-13.601-3.969-20.434-1.828-5.48 1.716-10.164 5.064-13.516 9.599-11.722-.678-23.024 5.453-28.737 16.375-3.782 7.233-4.524 15.505-2.086 23.294zm20.78-13.516a9.427 9.427 0 0 1 11.887-4.406 10.542 10.542 0 0 0 14.144-7.162c.115-.441.274-.863.479-1.254a5.67 5.67 0 0 1 3.352-2.798 5.79 5.79 0 0 1 1.714-.265c.908 0 1.811.223 2.638.653a5.66 5.66 0 0 1 2.806 3.354 5.678 5.678 0 0 1-.391 4.355 5.807 5.807 0 0 1-.734 1.078 10.55 10.55 0 0 0-2.306 8.996 10.547 10.547 0 0 0 5.7 7.328l.313.153c3.43 1.794 4.783 6.116 2.96 9.604-1.825 3.485-6.148 4.841-9.63 3.013a7.07 7.07 0 0 1-3.55-4.364 10.55 10.55 0 0 0-15.854-5.96 9.504 9.504 0 0 1-9.533.444 9.416 9.416 0 0 1-4.645-5.557 9.406 9.406 0 0 1 .65-7.212zM134.519 356.203c-5.587-1.661-11.454 1.527-13.112 7.109-.995 3.35-1.92 6.803-2.745 10.262-1.354 5.664 2.142 11.356 7.806 12.71a10.67 10.67 0 0 0 2.46.292c4.769 0 9.094-3.258 10.251-8.1a174.528 174.528 0 0 1 2.449-9.161c1.656-5.585-1.526-11.456-7.109-13.112zM214.963 264.699c-3.238-4.837-9.789-6.142-14.63-2.902-18.53 12.392-34.499 26.959-47.471 43.301a187.287 187.287 0 0 0-11.295 15.848 184.27 184.27 0 0 0-5.697 9.568c-2.829 5.092-.993 11.513 4.101 14.342a10.48 10.48 0 0 0 5.11 1.328c3.708 0 7.304-1.956 9.229-5.426a164.316 164.316 0 0 1 5.047-8.48 166.693 166.693 0 0 1 10.023-14.065c11.609-14.626 25.969-27.709 42.677-38.881 4.843-3.238 6.143-9.79 2.906-14.633zM605.7 305.847c-3.477-6.046-5.232-8.398-9.477-14.08l-.33-.44c-11.869-15.886-26.336-29.909-43.003-41.682-4.757-3.36-11.337-2.225-14.7 2.528-3.361 4.76-2.229 11.341 2.529 14.7 14.858 10.494 27.733 22.969 38.273 37.076l.33.439c4.137 5.533 5.246 7.021 8.091 11.971a10.54 10.54 0 0 0 14.399 3.889c5.05-2.904 6.791-9.352 3.888-14.401zM623.461 343.498c-.534-1.318-1.536-3.68-3.391-7.873-2.354-5.327-8.579-7.731-13.913-5.38-5.326 2.356-7.734 8.583-5.379 13.912 1.902 4.304 2.756 6.33 3.133 7.255a10.54 10.54 0 0 0 1.253 3.016c1.991 3.258 5.519 5.107 9.128 5.107a10.37 10.37 0 0 0 4.834-1.186c8.133-4.257 5.039-13.117 4.335-14.851zM406.333 294.957v89.32c0 5.827 4.721 10.547 10.547 10.547h129.918a10.545 10.545 0 0 0 9.647-14.813c-24.908-56.284-61.631-79.302-88.053-88.7-28.988-10.314-52.146-6.928-53.113-6.779a10.547 10.547 0 0 0-8.946 10.425zm21.094 78.773v-68.829c20.006.125 68.896 7.227 102.449 68.829H427.427zM202.26 380.423a10.543 10.543 0 0 0 9.814 14.403h168.718c5.826 0 10.547-4.721 10.547-10.547v-89.854a10.55 10.55 0 0 0-9.635-10.508c-70.467-6.114-115.45 20.258-140.776 43.458-27.537 25.222-38.23 51.923-38.668 53.048zm167.984-6.694H229.583c5.445-8.736 13.985-20.312 26.287-31.435 30.133-27.247 68.578-39.994 114.374-37.997v69.432zM410.563 429.389c0 4.961 4.061 9.021 9.022 9.021h27.065c4.961 0 9.021-4.061 9.021-9.021s-4.059-9.021-9.021-9.021h-27.065c-4.961-.001-9.022 4.06-9.022 9.021zM203.419 429.389c0 4.961 4.06 9.021 9.021 9.021h27.067c4.961 0 9.021-4.061 9.021-9.021s-4.058-9.021-9.021-9.021H212.44c-4.961-.001-9.021 4.06-9.021 9.021z"/><path d="M381.541 244.477c-44-.098-84.164 9.746-84.164 9.746-16.927 4.58-34.012 10.947-50.531 19.682-48.585 25.683-87.385 77.378-104.7 137.063-6.593-.811-16.429-.633-25.284 5.039-9.184 5.88-14.672 15.802-16.314 29.494-1.997 16.662 3.682 26.662 8.792 32.118 2.237 2.386 4.702 4.276 7.234 5.812h-3.618c-5.825 0-10.547 4.72-10.547 10.547v33.373c0 5.826 4.722 10.547 10.547 10.547h6.237v.967c0 8.515 6.967 15.481 15.481 15.481h28.418a37.912 37.912 0 0 0 8.921 1.075h21.612c3.553 25.299 19.686 46.615 41.852 57.396H124.619c-5.825 0-10.547 4.721-10.547 10.547 0 5.827 4.722 10.547 10.547 10.547h581.776c5.824 0 10.547-4.72 10.547-10.547 0-5.826-4.723-10.547-10.547-10.547h-52.707c22.164-10.781 38.299-32.098 41.851-57.396h16.445c3.039 0 5.989-.391 8.837-1.075H749.1c8.514 0 15.48-6.967 15.48-15.481v-2.868c0-3.286-1.045-6.336-2.813-8.846 3.95-1.306 7.998-3.364 11.67-6.553 8.232-7.153 12.217-17.768 11.851-31.552-.446-16.778-7.517-25.846-13.368-30.502-9.049-7.193-19.977-8.142-26.855-7.86-16.051-46.063-57.332-78.939-105.617-78.939h-41.963c-2.243-3.032-5.916-9.229-10.965-18.498-1.082-1.983-1.9-3.472-2.313-4.146-1.692-2.768-3.356-5.549-5.02-8.326-7.693-12.854-15.649-26.145-26.199-37.961-22.98-25.738-55.393-40.34-86.299-48.586.001-.001-41.148-9.653-85.148-9.751zm370.134 227.648c2.552.446 5.145 1.337 7.178 2.979 3.363 2.717 5.164 7.595 5.348 14.5.191 7.181-1.356 12.251-4.599 15.068-1.796 1.558-4.055 2.44-6.255 2.927l-1.672-35.474zm-155.253 72.748c0-13.455 10.906-24.359 24.36-24.359 13.455 0 24.359 10.906 24.359 24.359 0 3.784-.887 7.352-2.426 10.547-3.934 8.164-12.264 13.813-21.934 13.813s-17.998-5.648-21.932-13.813a24.225 24.225 0 0 1-2.427-10.547zm-295.139 67.945c22.164-10.781 38.298-32.099 41.85-57.396h202.894c3.552 25.298 19.686 46.615 41.852 57.396H301.283zm-57.264-67.945c0-13.455 10.906-24.359 24.361-24.359 13.454 0 24.36 10.906 24.36 24.359 0 3.784-.889 7.352-2.428 10.547-3.933 8.164-12.264 13.813-21.933 13.813s-17.999-5.648-21.933-13.813a24.211 24.211 0 0 1-2.427-10.547zm-88.547-95.604c9.172-66.577 49.852-129.557 101.229-156.718 49.737-26.29 105.695-29.332 143.875-27.258 35.58 1.935 100.645 11.21 136.676 51.566 9.217 10.321 16.318 22.186 23.836 34.746 1.697 2.836 3.395 5.671 5.119 8.491.324.531.949 1.696 1.786 3.235 12.255 22.499 17.401 29.504 25.724 29.504h45.73c50.559 0 91.688 45.055 91.688 100.433v19.365c0 2.781-.48 5.435-1.328 7.882h-37.574c-10.156-29.715-38.34-51.148-71.451-51.148s-61.293 21.433-71.452 51.148h-209.5c-10.156-29.715-38.34-51.148-71.452-51.148-33.11 0-61.292 21.433-71.451 51.148H154.3a23.508 23.508 0 0 1-1.206-6.465c-.133-2.93-.248-6.121-.33-9.527-.368-15.545-.006-35.545 2.708-55.254zm-31.97 67.536v-12.28h8.165c.085 3.76.21 7.275.356 10.486.026.606.114 1.195.164 1.794h-8.685zm-2.01-68.796c.849-7.086 3.092-11.86 6.67-14.19 1.974-1.287 4.366-1.861 6.685-2.033l-3.506 35.34c-2.458-.813-4.894-2.074-6.666-3.992-2.935-3.178-4.006-8.266-3.183-15.125zM21.127 623.365c0 5.826 4.722 10.547 10.547 10.547h48.988c5.825 0 10.547-4.721 10.547-10.547s-4.722-10.547-10.547-10.547H31.674c-5.824 0-10.547 4.721-10.547 10.547zM740.69 623.365c0 5.826 4.721 10.547 10.547 10.547h38.216c5.827 0 10.547-4.721 10.547-10.547s-4.72-10.547-10.547-10.547h-38.216c-5.826 0-10.547 4.721-10.547 10.547z"/></g><g fill="#103653" stroke="#103653" stroke-width="6" stroke-linecap="round" stroke-linejoin="round" stroke-miterlimit="10"><path d="M254.518 208.866a23.86 23.86 0 0 0-5.855 1.188 201.584 201.584 0 0 0-5.657 1.81c1.783-.479 3.601-.999 5.453-1.562 1.939-.6 3.886-.889 5.841-.867a5.41 5.41 0 0 1-.322.695c-.117.209-.263.353-.438.431a7.456 7.456 0 0 1-1.879.561 7.748 7.748 0 0 0-1.944.59l-.351-.79c-.2.142-.498.3-.893.476a12.546 12.546 0 0 1-3.427.975 12.508 12.508 0 0 0-3.428.975 7.412 7.412 0 0 0-1.557.93l.117.263a66.828 66.828 0 0 1 4.5-1.491 78.308 78.308 0 0 1 4.842-1.25c-1.502.407-3.091.877-4.77 1.415a45.493 45.493 0 0 0-4.623 1.743 36.244 36.244 0 0 0-3.033 1.507c.41.92.91 1.986 1.5 3.193a51.276 51.276 0 0 0 1.859 3.469 40.892 40.892 0 0 0 1.822 2.854c.565.799 1.038 1.271 1.419 1.417l1.119.919c1.249 1.389 3.364 1.418 6.346.091.658-.292 1.408-.732 2.25-1.317a50.746 50.746 0 0 0 2.518-1.869 63.73 63.73 0 0 1 2.418-1.827c.777-.555 1.472-.971 2.087-1.244.613-.273 1.003-.34 1.169-.205.166.137.317.358.454.665a45.019 45.019 0 0 0-4.889 3.358 46.418 46.418 0 0 1-3.931 2.854 87.006 87.006 0 0 0 3.924-2.693 56.817 56.817 0 0 1 4.786-3.235c.03.303.064.498.104.585a.88.88 0 0 0 .621.512l.862-.541c.244-.161.493-.311.746-.451.254-.139.469-.3.65-.487.887-.131 1.553-.14 2-.023.446.117.737.33.874.635.254.571.156 1.087-.295 1.55-.451.464-.809 1.044-1.077 1.74l-.263.119a24.407 24.407 0 0 0-3.552 1.936 179.392 179.392 0 0 0-3.24 2.191 161.822 161.822 0 0 1-3.274 2.207 25.238 25.238 0 0 1-3.584 1.95l-.92.411-.395.175c.872-.282 1.791-.64 2.755-1.069a31.307 31.307 0 0 0 3.366-1.734 70.147 70.147 0 0 0 2.92-1.852 95.206 95.206 0 0 1 2.721-1.763 22.57 22.57 0 0 1 2.773-1.472c-.546.664-1.25 1.384-2.111 2.161a31.426 31.426 0 0 1-2.974 2.35 55.408 55.408 0 0 1-3.552 2.291 36.885 36.885 0 0 1-3.778 1.958c-.877.391-1.752.727-2.624 1.01-.872.284-1.898.398-3.078.347l-.388-.694c-.711.055-1.539-.064-2.481-.354a20.48 20.48 0 0 1-2.71-1.041 23.512 23.512 0 0 1-2.266-1.197c-.648-.393-1.012-.678-1.09-.854l-.461-.504a15.432 15.432 0 0 1-2.184-2.337 31.247 31.247 0 0 1-1.921-2.811 80.91 80.91 0 0 1-1.69-2.912 79.804 79.804 0 0 1-1.457-2.741 159.63 159.63 0 0 1-4.187-8.697 322.955 322.955 0 0 1-1.973-4.521 338.82 338.82 0 0 0-2.003-4.586l-.196.088a44.897 44.897 0 0 0 1.776 4.962 332.336 332.336 0 0 0 2.017 4.619l1.142 2.565a106.933 106.933 0 0 0 4.77 9.384 35.588 35.588 0 0 0 6.867 8.606c-1.771-1.26-3.163-2.676-4.178-4.247-1.015-1.57-1.954-3.032-2.817-4.381a77.912 77.912 0 0 1-2.99-5.21 94.888 94.888 0 0 1-2.566-5.32l-.615-1.382a170.357 170.357 0 0 1-3.259-7.849c-1.04-2.69-1.885-5.649-2.535-8.88-.263.117-.454.044-.57-.219-.117-.263-.142-.699-.07-1.309.07-.608.222-1.242.455-1.898a7.66 7.66 0 0 1 .953-1.843c.401-.572.866-.977 1.392-1.21l15.655-6.971a85.622 85.622 0 0 0 5.104-1.367 71.871 71.871 0 0 0 5.091-1.753l.607 1.542c.117.263.089.526-.083.785-.172.262-.677.577-1.509.948-.263.118-.586.249-.969.392-.382.146-.803.293-1.26.444l.264.592c1.973-.406 3.602-.552 4.886-.442 1.284.112 2.044.43 2.279.957.273.615-.143 1.246-1.246 1.895-1.104.649-2.62 1.403-4.55 2.262a1042.91 1042.91 0 0 1-7.874 3.467 114.972 114.972 0 0 1-8.219 3.226l-1.118.498a69.247 69.247 0 0 0 1.824 5.335 218.275 218.275 0 0 0 2.205 5.481 23.285 23.285 0 0 0 2.028-1.021c.65-.369 1.347-.718 2.094-1.051a18.13 18.13 0 0 1 2.21-.787 48.67 48.67 0 0 1 2.756-.714 43.31 43.31 0 0 1 2.975-.575 36.358 36.358 0 0 1 2.803-.342 1.59 1.59 0 0 0 .491-.141l1.118-.497c.569-.253.993-.336 1.269-.25.275.088.529.395.765.921-.747.332-1.467.601-2.164.805-.697.205-1.372.401-2.024.587a12.038 12.038 0 0 0 2.127-.356 47.355 47.355 0 0 0 2.236-.642c.01.259.044.482.1.665.056.187.113.345.172.476.477-.106.866-.031 1.166.229.3.261.538.588.714.983.254.57.333 1.073.239 1.509-.099.436-.107.743-.029.918zm-19.843 17.741c.643.975 1.354 2.011 2.132 3.109a19.053 19.053 0 0 0 2.7 3.053 13.694 13.694 0 0 0 3.521 2.334c1.072.521 2.305.813 3.7.875a9.734 9.734 0 0 1-4.511-1.458c-1.629-1.061-3.128-2.391-4.495-3.989a40.2 40.2 0 0 1-3.823-5.311 177.58 177.58 0 0 1-3.163-5.687 108.65 108.65 0 0 0 1.809 3.53 41.315 41.315 0 0 0 2.13 3.544zm11.36 11.178a7.963 7.963 0 0 1-1.922-.247 16.82 16.82 0 0 1-1.206-.41c.38.146.793.252 1.243.314.638.137 1.267.251 1.885.343zm-1.22-31.77a38.28 38.28 0 0 0 2.515-.726 21.65 21.65 0 0 0-2.457.502 25.71 25.71 0 0 1-2.295.51c.687.009 1.433-.086 2.237-.286zM273.389 221.571c-.064-.231-.072-.528-.024-.89a2.72 2.72 0 0 0-.083-1.098 94.768 94.768 0 0 0-.393-2.47 14.26 14.26 0 0 0-.289-1.302 129.524 129.524 0 0 0-1.929-6.227 464.566 464.566 0 0 0-2.196-6.377 91.48 91.48 0 0 0-.675-2.278c-.27-.871-.52-1.547-.755-2.031a184.293 184.293 0 0 0-.992-4.881 84.449 84.449 0 0 0-1.2-4.824l-.485-1.732a25.17 25.17 0 0 0-.573-1.784c.177.1.334.131.474.092.185-.052.362-.177.531-.373.17-.197.347-.321.532-.374.322-.09.686.182 1.088.817s.933 2.131 1.592 4.49l.624-.175c-.492-2.653-.71-4.811-.651-6.472.058-1.661.341-2.563.85-2.705.231-.065.739.329 1.526 1.181.786.852 1.478 2.34 2.072 4.467l.413-1.462a40.44 40.44 0 0 1 1.175-2.347 12.37 12.37 0 0 1 1.63-2.325 13.138 13.138 0 0 1 2.276-2.02c.874-.618 1.935-1.102 3.183-1.452 2.403-.671 4.647-.713 6.731-.125a15.288 15.288 0 0 1 5.654 2.978c1.688 1.397 3.221 3.087 4.597 5.069a47.265 47.265 0 0 1 3.63 6.162 58.232 58.232 0 0 1 2.646 6.25c.72 2.042 1.288 3.803 1.702 5.281.375 1.341.516 2.162.426 2.46-.091.3-.337.531-.741.693a154.152 154.152 0 0 0-3.739-10.692 40.889 40.889 0 0 0-5.642-10.01c2.27 3.303 4.072 6.673 5.408 10.113a112.79 112.79 0 0 1 3.498 10.498c-.316-.062-.589-.06-.82.005a.69.69 0 0 0-.428.343c.103.371.236.756.399 1.16a18.864 18.864 0 0 1 .741 2.11c.021 1.141-.043 1.982-.192 2.521-.147.541-.337.843-.569.907-.277.077-.544.016-.8-.188a5.09 5.09 0 0 1-.782-.79 20.823 20.823 0 0 1-.825-1.078 6.467 6.467 0 0 0-1.018-1.098c-.128-.812-.236-1.467-.325-1.966-.09-.498-.18-.908-.271-1.232a176.386 176.386 0 0 0-1.331-4.487 70.273 70.273 0 0 0-1.924-5.405 51.675 51.675 0 0 0-2.581-5.484c-.977-1.793-2.056-3.337-3.238-4.626-1.183-1.288-2.486-2.244-3.905-2.87-1.422-.623-2.942-.709-4.559-.257-1.11.311-1.988.956-2.637 1.934-.648.979-1.122 2.134-1.423 3.463a25.547 25.547 0 0 0-.572 4.235 39.329 39.329 0 0 0-.013 4.228c.054-1.41.113-2.847.177-4.312.063-1.463.253-2.837.566-4.12.313-1.285.787-2.4 1.418-3.35a4.485 4.485 0 0 1 2.612-1.89c1.432-.4 2.779-.354 4.039.141 1.26.496 2.422 1.266 3.488 2.313 1.065 1.049 2.041 2.309 2.927 3.78a40.254 40.254 0 0 1 2.363 4.573 52.667 52.667 0 0 1 1.79 4.659 93.362 93.362 0 0 1 1.219 3.957c.246.879.479 1.76.702 2.645.223.884.439 1.797.653 2.733a46.766 46.766 0 0 1-2.479-5.25 406.996 406.996 0 0 0-2.25-5.502 77.418 77.418 0 0 0-2.38-5.165 24.514 24.514 0 0 0-2.839-4.402l.292-.829c-.76-.934-1.51-1.608-2.249-2.025-.74-.416-1.426-.685-2.058-.808-.632-.122-1.187-.14-1.662-.059-.475.085-.782.145-.92.184-1.156.323-2.068 1.027-2.736 2.111-.669 1.084-1.142 2.426-1.417 4.023-.276 1.598-.41 3.393-.4 5.383.007 1.991.112 4.056.312 6.193.199 2.138.448 4.274.747 6.408.297 2.135.606 4.129.926 5.983l.623-.174a444.068 444.068 0 0 0-.727-5.404 310.244 310.244 0 0 1-.787-6.023 86.827 86.827 0 0 1-.526-6.02c-.101-1.965-.071-3.769.093-5.41.164-1.64.509-3.032 1.037-4.178.493-1.084 1.252-1.846 2.277-2.282-.952.517-1.626 1.402-2.023 2.66-.429 1.315-.694 2.86-.796 4.633a54.999 54.999 0 0 0-.007 5.722c.098 2.041.208 3.992.329 5.852l1.446 10.511c-.004.699.019 1.315.069 1.85l.13 1.534c.037.488.083 1.011.139 1.568.057.558.113 1.202.167 1.935l.025.89-.417.117-7.662-.398c-.244.02-.438-.001-.579-.063a8.97 8.97 0 0 1-.47-.244zm2.112-38.946c-.705 1.044-1.197 2.091-1.476 3.142a46.168 46.168 0 0 0-.724 3.156l.019.069c.272-1.521.792-3.137 1.56-4.848.748-1.603 1.955-2.988 3.623-4.153-.55.354-1.075.701-1.578 1.04a4.8 4.8 0 0 0-1.424 1.594zm7.68-4.617c-.245.02-.574.087-.99.203a55.395 55.395 0 0 1 4.5.05c1.416.078 2.884.602 4.402 1.571-1.084-.842-2.345-1.386-3.784-1.632-1.44-.245-2.815-.308-4.128-.192zm4.084 7.382a4.68 4.68 0 0 0-1.467-.3 34.574 34.574 0 0 1-1.953-.164l-.108-.12c.799-.172 1.541-.194 2.226-.062.684.134 1.408.492 2.17 1.075l-.868-.429zm4.006-5.458c.867.605 1.72 1.339 2.559 2.2.839.862 1.578 1.628 2.213 2.298-.76-.935-1.47-1.783-2.132-2.545-.662-.761-1.543-1.412-2.64-1.953zM323.695 213.992a349.047 349.047 0 0 0-5.083-11.998 788.045 788.045 0 0 0-5.331-11.676c-.873-1.82-1.644-3.618-2.316-5.393s-1.537-3.537-2.592-5.285a1.62 1.62 0 0 0 .749-.644 1.02 1.02 0 0 1 .77-.502c.236-.032.482.081.734.337.252.258.484.553.699.888.213.335.417.684.611 1.044.193.363.323.612.39.748l.827-.328a27.005 27.005 0 0 1-.763-2.187 14.284 14.284 0 0 1-.478-2.225c-.038-.286-.061-.729-.069-1.334-.008-.604.227-.938.702-1.001.714-.095 1.586.455 2.617 1.649 1.031 1.195 2.098 2.76 3.203 4.694a107.991 107.991 0 0 1 3.36 6.417 214.703 214.703 0 0 1 3.158 6.807c.97 2.194 1.825 4.164 2.565 5.904a201.53 201.53 0 0 1 1.549 3.716 37.385 37.385 0 0 0 2.627-5.361 355.998 355.998 0 0 0 2.13-5.55 111.926 111.926 0 0 1 2.242-5.528 31.726 31.726 0 0 1 2.963-5.297c.282-.424.711-1.113 1.288-2.061a68.096 68.096 0 0 1 1.866-2.899 26.977 26.977 0 0 1 2.011-2.628c.672-.768 1.247-1.182 1.723-1.247.237-.031.474.107.709.414-1.568 2.05-3.123 4.097-4.667 6.142a31.061 31.061 0 0 0-3.858 6.759 34.429 34.429 0 0 1 3.953-6.591 114.75 114.75 0 0 1 4.844-5.911l.756.772c.229-.467.688-1.011 1.379-1.637.691-.624 1.298-.972 1.822-1.042.381-.05.682.032.904.244.221.213.358.51.409.89.044.333.053.767.028 1.304-.026.537-.119.936-.276 1.198a3.684 3.684 0 0 1-.743.971 235.836 235.836 0 0 1-3.933 4.554c-1.242 1.4-2.364 3.063-3.367 4.989l.433-.567a43.154 43.154 0 0 1 3.349-4.584c1.15-1.364 2.484-2.703 4.004-4.021-.703 1.644-1.564 3.078-2.587 4.303a51.435 51.435 0 0 0-3.053 4.074 11.288 11.288 0 0 0-1.173 2.372 8.527 8.527 0 0 1-1.254 2.309l-.671-.128c-.644 2.07-1.32 4.183-2.025 6.334a79.726 79.726 0 0 1-2.388 6.346 44.56 44.56 0 0 1-3.092 5.969 25.96 25.96 0 0 1-4.148 5.127c-.104.304-.369.594-.792.868-.425.274-.746.499-.964.673l-4.762-1.399a196.844 196.844 0 0 0-3.215-6.691l-.348.119 2.849 6.667a.752.752 0 0 0 .269.109c.125.031.378.106.756.226.38.119.957.284 1.737.496.778.21 1.845.492 3.199.845 1.75-1.395 3.204-2.849 4.36-4.357 1.114-1.456 2.147-3.143 3.103-5.062-.403.974-.839 1.88-1.309 2.716a20.55 20.55 0 0 1-3.494 4.86 19.572 19.572 0 0 1-2.541 2.19l-6.355-1.91zm10.976-19.039a219.903 219.903 0 0 1 3.361-8.583 93.799 93.799 0 0 0-3.522 8.458 96.057 96.057 0 0 1-3.48 8.236 63.898 63.898 0 0 0 3.641-8.111zm-1.354 14.925a49.592 49.592 0 0 0 4.806-8.919 84.773 84.773 0 0 0 3.22-9.363l-.018-.143a152.973 152.973 0 0 0-1.806 4.707 194.995 194.995 0 0 1-1.803 4.744 79.096 79.096 0 0 1-2 4.624 38.44 38.44 0 0 1-2.399 4.35zm4.254-4.053a1.143 1.143 0 0 0 0 0zm.115-.232a60.59 60.59 0 0 0 1.638-4.068l.124-.162c-.042.055-.059.106-.052.153a44.416 44.416 0 0 1-1.71 4.077zm1.961-4.91a1.824 1.824 0 0 1 0 0zm.909-2.445-.417 1.217c.137-.405.278-.81.417-1.217zm3.024-11.661c-.387.729-.74 1.442-1.059 2.138-.319.696-.628 1.379-.926 2.048.346-.675.764-1.349 1.256-2.02.493-.669.735-1.392.729-2.166zM373.253 166.306c.049.242.313.36.793.359h.144c.289 0 .479.024.576.071 2.496.766 4.981 1.879 7.456 3.339a32.411 32.411 0 0 1 6.702 5.25 25.398 25.398 0 0 1 4.833 6.941c1.227 2.591 1.842 5.375 1.846 8.351a19.164 19.164 0 0 1-1.503 7.489c-1.006 2.402-2.396 4.492-4.168 6.269 1.821-1.586 3.271-3.568 4.349-5.945 1.078-2.377 1.614-4.935 1.611-7.669-.004-3.072-.655-5.938-1.953-8.602a28.176 28.176 0 0 0-4.977-7.158c-2.019-2.109-4.265-3.919-6.739-5.428s-4.887-2.67-7.24-3.484c1.823-.002 3.684.404 5.582 1.217 1.896.815 3.71 1.88 5.439 3.198a31.623 31.623 0 0 1 4.793 4.53c1.466 1.703 2.704 3.442 3.714 5.216l-.503.721a17.446 17.446 0 0 1 2.202 4.677c.506 1.681.76 3.408.762 5.183.004 3.409-.725 6.397-2.185 8.966-1.462 2.57-3.307 4.709-5.537 6.415a24.429 24.429 0 0 1-7.338 3.861c-2.664.866-5.172 1.301-7.523 1.304-1.343.002-2.7-.141-4.068-.426-1.368-.287-2.749-.766-4.142-1.436v.432c1.344.766 2.726 1.293 4.142 1.579 1.416.287 2.82.43 4.212.427 3.456-.003 6.851-.763 10.186-2.28 3.333-1.516 6.151-3.643 8.453-6.381-2.206 2.835-4.951 5.045-8.237 6.633s-6.706 2.385-10.257 2.388c-3.648.005-6.601-.7-8.858-2.113-2.258-1.412-4.024-3.151-5.298-5.213-1.274-2.063-2.128-4.246-2.563-6.549-.435-2.304-.654-4.367-.656-6.191a27.036 27.036 0 0 1 .964-7.201 21.56 21.56 0 0 1 2.98-6.484c1.341-1.969 3.067-3.663 5.178-5.082 2.109-1.418 4.652-2.417 7.628-2.997l-2.089-.502c-1.008-.239-1.728-.526-2.161-.862-.433-.334-.649-.622-.649-.862 0-.384.418-.805 1.259-1.263.836-.457 1.785-.687 2.84-.688zm-3.229 9.076c1.295-.48 2.542-.723 3.743-.725 1.199 0 2.124.178 2.772.537.649.359.973.731.973 1.115 0 .242-.276.504-.827.793-.552.289-1.248.686-2.086 1.19-.84.504-1.752 1.143-2.734 1.911-.983.77-1.895 1.743-2.732 2.92-.84 1.178-1.534 2.606-2.083 4.286-.551 1.683-.824 3.649-.821 5.906.004 3.312.75 5.807 2.241 7.485 1.489 1.679 3.555 2.515 6.195 2.513 1.68-.002 3.396-.293 5.147-.87a16.523 16.523 0 0 0 4.749-2.454 12.777 12.777 0 0 0 3.452-3.892c.886-1.538 1.329-3.266 1.327-5.187a12.992 12.992 0 0 0-.761-4.318 18.2 18.2 0 0 0-2.094-4.138 21.774 21.774 0 0 0-3.172-3.704 20.793 20.793 0 0 0-4-2.948c-1.393-.766-2.534-1.353-3.422-1.761-.889-.405-1.524-.8-1.91-1.185-.385.193-.924.421-1.619.685a49.17 49.17 0 0 0-2.771 1.191l.433.65zm4.819-4.542-.648-.287c-.048.096-.12.192-.216.287-.097.097-.144.193-.144.289 0 .097.06.228.181.396.119.169.228.3.325.396l.502-1.081zm.002 1.153c2.208.716 4.322 1.795 6.34 3.233a36.718 36.718 0 0 1 4.757 4.242 32.789 32.789 0 0 0-4.542-4.387 21.957 21.957 0 0 0-6.268-3.593l-.287.505zm13.996 24.535a13.168 13.168 0 0 1-3.019 4.107 8.666 8.666 0 0 0 2.194-2.09 14.724 14.724 0 0 0 1.473-2.45c.383-.816.669-1.56.861-2.233.143-.623.262-1.127.359-1.513a120.768 120.768 0 0 1-1.868 4.179zm-2.467-16.557a4.907 4.907 0 0 0-.433-.503c.145.191.288.359.433.503zm7.298 22.743c-.048.097-.12.193-.215.289-.048.047-.097.071-.145.072-.048 0 .072-.252.359-.756.288-.504.634-1.104 1.042-1.801.407-.695.802-1.428 1.186-2.196.334-.578.575-1.082.718-1.514a22.642 22.642 0 0 1-2.945 5.906zm2.945-5.907a.643.643 0 0 0 0 0zm.144-.432c-.048.048-.072.097-.072.144 0-.047.024-.096.072-.144zm.93-5.329c.001.768-.047 1.524-.141 2.267a8.957 8.957 0 0 1-.502 2.053c.333-1.199.501-2.543.499-4.032a18.077 18.077 0 0 0-.291-3.24 23.87 23.87 0 0 0-.579-2.663c.241.864.458 1.727.651 2.592.239.96.361 1.967.363 3.023zM398.906 229.183c.334.427.954.805 1.857 1.131.904.326 1.784.542 2.642.645 1.572.19 3.136-.141 4.689-.992 1.554-.853 3.091-2.082 4.615-3.685 1.523-1.605 3.019-3.479 4.487-5.622a115.784 115.784 0 0 0 4.304-6.805l-.072-.009a225.774 225.774 0 0 1-3.855 6.098c-1.364 2.083-2.8 3.964-4.308 5.644-1.509 1.679-3.084 3.012-4.726 3.998-1.643.986-3.322 1.376-5.037 1.168-1.383-.166-2.692-.737-3.928-1.707.745-.153 1.425-.19 2.045-.116.189.022.518.11.983.265.762.09 1.407.144 1.938.161a6.342 6.342 0 0 0 1.541-.14 4.41 4.41 0 0 0 1.452-.623 15.229 15.229 0 0 0 1.599-1.221l.832.318a56.32 56.32 0 0 0 4.604-5.391 404.102 404.102 0 0 0 4.379-5.926l1.633-2.703-.627-.222-1.384 2.444a149.25 149.25 0 0 1-4.195 5.911 34.385 34.385 0 0 1-4.761 5.19c1.914-1.848 3.716-3.951 5.404-6.309a86.432 86.432 0 0 0 4.738-7.406l-.342-.766a16.107 16.107 0 0 0-.685-3.346 38.076 38.076 0 0 0-.841-2.64c.61 2.153.967 4.202 1.07 6.148-.461-.201-.817-.546-1.072-1.036a9.114 9.114 0 0 1-.663-1.713 22.832 22.832 0 0 1-.481-2.016 14.573 14.573 0 0 0-.58-2.101l.436-.601c-.619-1.282-1.263-2.859-1.931-4.729-.671-1.87-1.38-3.793-2.132-5.769a194.643 194.643 0 0 0-2.309-5.792c-.789-1.883-1.588-3.479-2.396-4.785l-.24.188 6.992 17.162a266.23 266.23 0 0 0-4.668-9.992c-1.669-3.394-3.083-7.092-4.242-11.101.041-.333.046-.78.017-1.34a70.243 70.243 0 0 0-.114-1.754 44.233 44.233 0 0 0-.178-1.834 29.893 29.893 0 0 0-.233-1.66l1.927-.348c.238.028.44.162.605.399.164.237.277.699.34 1.383.238.028.476-.135.713-.494.236-.358.49-.763.763-1.213s.562-.85.87-1.2c.309-.351.678-.499 1.105-.447.619.075 1.13.561 1.528 1.454.399.895.753 1.966 1.063 3.211.309 1.247.645 2.556 1.011 3.93.366 1.375.849 2.581 1.449 3.62a139.604 139.604 0 0 0 1.865 4.069 39.563 39.563 0 0 1 1.705 4.195c.483 1.993 1.182 4.023 2.092 6.091a29.342 29.342 0 0 1 1.985 6.369c1.605-3.673 2.932-6.958 3.984-9.854a92.105 92.105 0 0 0 2.684-8.703c.707-1.461 1.368-3.123 1.98-4.982a28.648 28.648 0 0 0 1.244-5.508l1.564.261c.238.03.439.163.605.4.164.237.197.762.1 1.572a8.21 8.21 0 0 1-.126.747c-.058.258-.132.577-.224.951l.643.078c.619-1.521 1.271-2.722 1.959-3.607.687-.883 1.292-1.294 1.816-1.23.382.046.703.496.961 1.349.261.854.274 2.233.045 4.139-.387 3.193-1.186 6.602-2.396 10.227a659.36 659.36 0 0 1-3.689 10.723c-1.922 4.7-4.059 9.18-6.411 13.439s-5.19 8.534-8.513 12.824a79.28 79.28 0 0 1-3.383 3.688 22.658 22.658 0 0 1-4.18 3.375c-1.544.975-3.253 1.722-5.129 2.245-1.877.523-3.959.646-6.246.369-1.668-.201-2.774-.552-3.318-1.052-.543-.502-.801-.871-.772-1.109.018-.144.084-.306.204-.483 1.373.648 2.868 1.071 4.489 1.268 1.144.139 2.489.095 4.04-.128 1.55-.224 2.969-.669 4.259-1.334a23.027 23.027 0 0 1-3.862 1.056c-1.41.264-2.664.331-3.76.198a19.632 19.632 0 0 1-4.926-1.249c.041-.333-.054-.659-.281-.975a7.657 7.657 0 0 0-.793-.931 7.389 7.389 0 0 1-.794-.93 1.438 1.438 0 0 1-.272-1.048c.046-.382.198-.654.46-.815.261-.162.552-.271.874-.329.321-.059.653-.103.995-.133.345-.033.641-.081.891-.147zm25.546-9.749a361.794 361.794 0 0 1-5.191 6.951c-1.779 2.323-3.925 4.468-6.435 6.438 2.546-1.869 4.721-3.962 6.524-6.283s3.504-4.689 5.102-7.106zm-7.758-16.822a35.82 35.82 0 0 0-1.378-3.901 53.54 53.54 0 0 0-1.815-3.881 177.108 177.108 0 0 0 1.715 4.414 64.427 64.427 0 0 1 1.67 4.19l-.192-.822zm2.702-7.941c-.04.72-.006 1.331.105 1.826.108.497.249.937.42 1.32.171.384.346.743.522 1.079s.335.729.474 1.18l-.116-.231-1.405-5.174zm1.865 6.172 1.65 6.147.48-.376-2.13-5.771zm2.238 6.074-.568.51c.076.155.156.298.238.429.08.13.133.295.158.49l.426-.528-.254-.901zm.962-.755c.259-.549.495-1.101.708-1.655l.636-1.664-.402-.267-1.124 2.692c.048.395.109.692.182.894zM467.365 222.504c-1.919.188-3.353.208-4.304.058s-1.782-.286-2.494-.403c-2.617-.618-4.859-1.665-6.73-3.143-1.871-1.477-3.355-3.233-4.453-5.267-1.1-2.035-1.789-4.28-2.07-6.74-.285-2.458-.123-4.973.483-7.542.354-1.494.86-3.016 1.521-4.561a29.541 29.541 0 0 1 2.387-4.467 21.244 21.244 0 0 1 3.205-3.868 17.94 17.94 0 0 1 3.873-2.933 14.242 14.242 0 0 0-3.91 2.776 24.017 24.017 0 0 0-3.275 3.851 25.38 25.38 0 0 0-2.473 4.52 29.635 29.635 0 0 0-1.553 4.702c-.463 1.962-.642 4.127-.535 6.496a19.572 19.572 0 0 0 1.594 6.886c.955 2.222 2.393 4.227 4.314 6.011 1.921 1.786 4.471 3.052 7.646 3.802 1.496.352 3.11.511 4.846.477-2.053.749-4.176.865-6.37.346-1.776-.418-3.382-1.082-4.82-1.988-1.438-.907-2.71-1.997-3.815-3.268s-2.042-2.688-2.808-4.25a22.794 22.794 0 0 1-1.74-4.85l.763-.411c-.42-1.775-.617-3.499-.592-5.17a22.9 22.9 0 0 1 .615-4.959 23.762 23.762 0 0 1 2.636-6.627 31.755 31.755 0 0 1 4.17-5.6l2.228-1.916c.401-.447.932-.864 1.59-1.252s1.372-.749 2.143-1.085c.77-.336 1.563-.617 2.381-.843a61.643 61.643 0 0 1 2.324-.598 70.564 70.564 0 0 1 5.584-1.087c1.84-.28 3.92-.32 6.24-.118l-.23-.277c-4.397-.594-8.287-.414-11.668.538-3.381.954-6.288 2.4-8.717 4.343-2.432 1.941-4.401 4.227-5.908 6.854-1.509 2.628-2.582 5.297-3.221 8.006a25.872 25.872 0 0 0-.648 4.472 27.4 27.4 0 0 0 .122 4.652c-.507-3.078-.39-6.183.349-9.313.727-3.083 1.963-6.021 3.707-8.816 1.744-2.794 4.017-5.216 6.82-7.268 3.408-1.907 6.934-3.159 10.577-3.755 3.641-.596 7.004-.53 10.088.197.98.232 1.946.633 2.897 1.202.949.569 1.766 1.292 2.447 2.168s1.163 1.915 1.447 3.115c.283 1.202.244 2.573-.12 4.114-.298 1.262-.966 2.731-2.002 4.411-1.038 1.679-2.353 3.23-3.946 4.654a17.23 17.23 0 0 1-5.475 3.295c-2.059.772-4.254.883-6.588.332l-2.314-.546a42.722 42.722 0 0 1-4.424-2.412 38.19 38.19 0 0 0-3.756-2.107 10.542 10.542 0 0 0-.819 2.063 55.362 55.362 0 0 0-.507 1.988 17.594 17.594 0 0 0-.479 4.067c0 1.358.201 2.649.602 3.878a9.352 9.352 0 0 0 1.852 3.284c.832.962 1.951 1.708 3.355 2.235.844.396 1.59.685 2.238.86.648.179 1.19.332 1.631.459.438.129.748.275.931.442s.235.414.158.74c-.5.03-1.001.011-1.503-.059a15.959 15.959 0 0 1-1.521-.286c-1.637-.386-3.045-1.001-4.226-1.848-1.183-.845-2.157-1.729-2.926-2.65a9.194 9.194 0 0 0 3.317 3.186 15.799 15.799 0 0 0 4.257 1.708c.794.188 1.628.311 2.503.369-.161.258-.246.411-.256.458-.066.28.006.494.218.643.197-.002.556-.055 1.073-.155a89.92 89.92 0 0 1 1.585-.292c.54-.095 1.062-.168 1.567-.222.506-.053.852-.057 1.039-.014.234.055.436.14.606.254.17.114.2.406.091.872-.111.468-.407.99-.889 1.566-.482.579-1.125 1.116-1.935 1.616zm-13.285-10.161c-.239-.452-.479-.902-.716-1.354a6.558 6.558 0 0 1-.47-1.146 7.47 7.47 0 0 0 1.186 2.5zm5.716-15.446c.115-.071.207-.197.275-.378.066-.182.111-.319.133-.413l-3.012-1.969-.582.899 3.186 1.861zm4.447-4.424 1.476.645c.491.214.948.371 1.368.47.467.111 1.053.089 1.754-.067.703-.154 1.436-.438 2.198-.85.764-.412 1.489-.98 2.178-1.706.69-.725 1.276-1.596 1.765-2.616l.24-.388c-.656-.155-1.676-.222-3.059-.204a36.276 36.276 0 0 0-4.371.338 25.972 25.972 0 0 0-4.371.966c-1.387.438-2.412 1.021-3.076 1.751a76.125 76.125 0 0 0 3.898 1.661zM483.344 215.616c.387-1.034.829-1.842 1.329-2.424a5.624 5.624 0 0 1 1.701-1.362 9.085 9.085 0 0 0-1.592 1.481c-.5.581-.9 1.276-1.203 2.086l-2.369 6.339 1.939 1.187c.578.37 1.173.697 1.787.976.611.28 1.211.529 1.795.748.629.235 1.194.435 1.698.597.503.163 1.001.335 1.497.521l5.167 2.009-5.149-1.85-.742-.276c-.404-.152-.848-.304-1.328-.458s-.99-.333-1.529-.535a22.454 22.454 0 0 1-1.594-.671 14.545 14.545 0 0 1-1.721-.952l-2.006-1.21 2.32-6.206zm44.503-.809c-1.203.472-2.577.856-4.121 1.15a49.498 49.498 0 0 1-4.705.662c-1.594.147-3.129.214-4.609.198s-2.789-.082-3.923-.199a95.506 95.506 0 0 0-3.173-.148 25.912 25.912 0 0 0-2.795.069c-.898.075-1.813.194-2.745.357a23.63 23.63 0 0 0-2.966.736c-.754.231-1.371.41-1.854.537-.483.127-.883.234-1.196.322a8.144 8.144 0 0 1-.759.178 8.914 8.914 0 0 0-.539.105l2.353 1.111c1.821.887 3.57 1.757 5.249 2.616 1.677.858 3.372 1.735 5.088 2.632.73.376 1.158.6 1.285.673.126.074.258.135.393.185a726.072 726.072 0 0 1 7.566 3.405c1.441.668 2.061 1.271 1.859 1.811-.067.181-.133.285-.193.312a61.27 61.27 0 0 1-5.172-2.51c-1.639-.894-3.611-1.823-5.915-2.787a63.713 63.713 0 0 0-2.997-1.545 94.458 94.458 0 0 0-3.608-1.655 218.385 218.385 0 0 0-3.78-1.606 112.982 112.982 0 0 0-3.583-1.417c-1.036-.388-1.96-.721-2.778-1-.817-.279-1.491-.468-2.019-.563 1.214.454 2.644 1.015 4.291 1.682 1.646.667 3.334 1.363 5.062 2.086 1.729.723 3.415 1.455 5.059 2.199a59.899 59.899 0 0 1 4.188 2.064l2.232 1.22a43.336 43.336 0 0 0 4.267 2.056 62.408 62.408 0 0 1 4.358 2.014c-.31.14-.505.324-.589.547-.151.405.062.69.642.855.578.166 1.359.509 2.344 1.031.764.697 1.283 1.261 1.555 1.696.273.436.36.787.26 1.057-.102.27-.379.461-.83.575-.453.112-.973.135-1.563.068l-1.863-.159a55.959 55.959 0 0 0-5.055-2.62 132.568 132.568 0 0 1-5.375-2.586l-1.678-.858a173.585 173.585 0 0 0-4.071-2.061 783.653 783.653 0 0 0-4.165-2.018l-6.947-3.213a37.074 37.074 0 0 0-1.58-.706c-.576-.241-1.18-.48-1.809-.715l-1.214-.453a13.896 13.896 0 0 0-1.307-.412l-1.239-.386 1.941-5.193c.521-1.393 1.267-2.358 2.235-2.893.968-.533 1.933-.853 2.894-.955a7.738 7.738 0 0 1 1.416-.086.657.657 0 0 0-.295-.034 9.23 9.23 0 0 0-2.355.235c-.813.184-1.588.547-2.328 1.089-.742.543-1.332 1.399-1.768 2.567l-2.061 5.303 6.542 2.446 4.038 1.741a136.14 136.14 0 0 1 5.969 2.847c1.916.974 3.813 1.963 5.691 2.973l2.032 1.145c1.64.818 3.169 1.595 4.587 2.33 1.416.735 2.867 1.508 4.358 2.322a35.65 35.65 0 0 1-2.196-.399 17.67 17.67 0 0 1-2.524-.752 18.647 18.647 0 0 1-2.242-.992 84.874 84.874 0 0 0-2.259-1.152l-2.059-1.076a150.443 150.443 0 0 0-4.304-2.263l-4.464-2.245-.127-.894-5.463-2.042a10.216 10.216 0 0 0-.754-.244 12.135 12.135 0 0 1-.957-.319l-1.687-.63a50.361 50.361 0 0 1-1.741-.689 21.48 21.48 0 0 1-1.824-.874l-1.788-.976 2.193-5.868c.556-1.484 1.331-2.564 2.327-3.242.996-.677 2.023-1.127 3.08-1.347a14.455 14.455 0 0 1 3.041-.322c.971.004 1.733-.045 2.283-.147l2.006-.634a44.315 44.315 0 0 1 7.001-1.457 32.77 32.77 0 0 1 7.112-.107l1.113.108a23.991 23.991 0 0 1 3.648-.097c1.258.061 2.482.006 3.673-.164l-.075-.412a35.241 35.241 0 0 1-3.886.008c-1.28-.069-2.401-.052-3.361.049l-1.114-.108a34.748 34.748 0 0 0-7.397.155c-2.45.313-4.751.812-6.9 1.494l-1.777.641-.271-.101c-.135-.05-.332-.072-.59-.067l.802-.085c3.2-1.159 6.173-1.88 8.917-2.161 2.744-.281 5.389-.329 7.934-.146 1.943.01 3.52.047 4.724.113 1.205.067 2.372.03 3.501-.113-1.603-1.06-3.048-1.921-4.338-2.583a35.038 35.038 0 0 0-5.387-2.244c-.549-.179-1.1-.347-1.656-.505a7.174 7.174 0 0 0-.92-.42l-.875-.328a23.127 23.127 0 0 0-4.729-1.23 25.783 25.783 0 0 0-4.627-.269c.117-.314.091-.619-.081-.914s-.198-.6-.081-.915c.101-.27.53-.493 1.289-.671.759-.177 2.036-.135 3.835.127l.116-.727c-1.613-.346-3.016-.64-4.206-.881-1.192-.239-2.169-.502-2.934-.789-.495-.185-.858-.346-1.087-.483-.231-.137-.341-.359-.33-.661a.657.657 0 0 1 .168-.245.637.637 0 0 0 .169-.245c1.234-.563 2.635-.949 4.2-1.158 1.563-.209 3.232-.252 5.005-.127 1.772.125 3.604.4 5.495.825 1.891.425 3.78.991 5.668 1.697 1.395.521 2.914 1.217 4.563 2.089 1.646.872 3.459 1.883 5.438 3.033.398.304.757.579 1.076.825.316.248.652.514 1.008.799.354.287.743.613 1.171.978.427.364.95.816 1.569 1.354-.028-.062.232.165.785.678.549.514 1.027 1.257 1.434 2.228l-3.565 7.89zm-34.716-4.601-1.769.414c-.676.158-1.449.278-2.326.36-.877.083-1.766.367-2.662.85 1.324-.94 2.709-1.486 4.148-1.639 1.441-.153 2.532-.194 3.273-.122l-.664.137zm1.052 6.85c-.631-.236-1.27-.206-1.918.089s-1.141.484-1.478.563l.11.117c.273-.05.793-.138 1.559-.263.763-.124 1.58-.254 2.451-.39.87-.136 1.715-.267 2.531-.399a45.853 45.853 0 0 0 1.893-.33c-.276.051-.666.097-1.168.14a68.527 68.527 0 0 0-3.041.323c-.459.06-.771.111-.939.15zm-1.126-4.803c.865.016 1.485-.137 1.862-.456l.506-.119c1.044-.326 2.135-.674 3.272-1.044a30.544 30.544 0 0 1 3.45-.901 16.75 16.75 0 0 0-4.31 1.041 27.12 27.12 0 0 1-4.478 1.285c-.275.051-.573.094-.894.128l.592.066z"/></g></svg>