<svg xmlns="http://www.w3.org/2000/svg" width="841.89" height="81.404" viewBox="0 -33.222 841.89 81.404" xml:space="preserve"><path fill="#F8F9F6" d="M524.712-2.58c-4.514-1.683-9.473-2.614-14.678-2.614-10.069 0-19.21 3.487-25.987 9.163-6.854-8.524-18.101-14.09-30.826-14.09-15.78 0-29.297 8.555-34.965 20.707a14.859 14.859 0 0 0-7.067-1.766c-.379 0-.753.024-1.126.051-4.101-14.557-18.968-25.343-36.69-25.343-15.214 0-28.321 7.953-34.322 19.413a10.269 10.269 0 0 0-6.621-.118c-2.494-2.663-6.258-4.358-10.472-4.358-6.032 0-11.138 3.476-12.919 8.287-6.652-5.156-15.357-8.287-24.897-8.287-12.725 0-23.973 5.565-30.827 14.09-6.776-5.677-15.919-9.163-25.986-9.163-5.206 0-10.163.93-14.675 2.614-1.618-17.16-17.86-30.644-37.673-30.644-16.648 0-30.772 9.522-35.822 22.743a14.975 14.975 0 0 0-6.164-1.316c-3.122 0-5.99.94-8.285 2.504-2.19-10.799-12.841-19.002-25.678-19.002-13.934 0-25.286 9.666-26.039 21.827-5.155-2.329-10.99-3.653-17.176-3.653-7.79 0-15.028 2.086-21.045 5.658C33.1 2.027 30.348.655 27.23.655c-1.234 0-2.409.218-3.486.606C20.296-7.538 11.027-13.931 0-14.266v62.447h841.89v-65.314c-6.903-6.558-16.741-10.662-27.668-10.662-.49 0-.978.01-1.464.026-.023.029-.049.056-.071.085l-.137-.077c-15.917.612-29.271 9.932-34.152 22.708a14.98 14.98 0 0 0-6.166-1.315c-3.121 0-5.989.939-8.284 2.505-2.188-10.802-12.838-19.003-25.677-19.003-11.425 0-21.11 6.5-24.652 15.542a10.223 10.223 0 0 0-3.483-.607c-3.12 0-5.87 1.374-7.542 3.47-6.017-3.574-13.255-5.658-21.046-5.658-6.188 0-12.021 1.322-17.177 3.653-.751-12.164-12.103-21.825-26.041-21.828-15.13-.004-24.384 10.305-25.676 19.003-2.295-1.565-5.164-2.506-8.286-2.506-2.222 0-4.312.48-6.163 1.317-5.049-13.221-19.173-22.742-35.822-22.742-2.332 0-4.612.193-6.828.551-6.521 1.193-12.43 3.872-17.254 7.627-.048-.133-.109-.259-.162-.39-7.525 5.574-12.563 13.689-13.427 22.854z"/><g fill="#F79927"><path d="M737.859 13.606c-.571-.505-1.365.171-1.936-.334-.251.366.01.326.336.316-.242.193-.473.389-.321.627.042-.004.083-.006.124-.012.135-.061.238-.114.344-.065a2.484 2.484 0 0 1-.344.065 2.37 2.37 0 0 1-.109.047c-.01-.014-.006-.023-.015-.035-1.421.11-2.562-.97-4.085-.659a12.586 12.586 0 0 0 5.153 1.021c-.371-.413-.636-.536-.355-.968.392.02.82.14 1.208-.003zm-8.108-1.585.031-.066c-.494-.147-1.055-.327-1.609-.343a.73.73 0 0 0-.082.523c.56.179 1.135-.196 1.66-.114zm-4.227.452c1.182.227 2.484.188 3.614.871.189-.232.326-.01.388-.142-.498-.313-.958-.362-1.466-1-.958.681-1.7-.146-2.572.174l-.097.035.133.062zm21.809-2.837-.03.066.102.128c.719.011.791-.84 1.072-1.272-.579.377-.63.834-1.144 1.078zm19.885-.592c.138.225.01.326.146.551l.066.03c.285-.27.429.119.754.107l1.806-1.814c-1.048-.165-1.651.441-2.772 1.126zm-12.623 4.52.066.031c.417-.208.275-.595.398-.86-.488.014-.702.476-.464.829zm16.134-9.323c-.563-.342.058-.296-.349-.806-.484.178-.313.499-.73.708.243.514.667.469 1.079.098zm4.132 31.33c-.016.001-.03.004-.047.004a.094.094 0 0 0 .017.063l.03-.067zm11.859-11.544c-.012-.005-.021-.006-.031-.01 0 .024.002.048-.001.076l.032-.066zm-10.988-12.888c-.019.01-.037.021-.056.028.008.016.019.021.024.038l.032-.066zm2.831 14.013c-.041 0-.072.013-.108.02.004.005.009.009.012.015l.096-.035zm-47.658-11.631a.735.735 0 0 0 .592.111c-.474-.539-1.091-.424-1.681-.536.336.315.815-.025 1.089.425zm61.857 12.904c.001.015-.004.021-.005.036.024-.004.047-.001.071-.006l-.066-.03zm-17.585 2.22c.014.017.019.035.029.052l.036-.021-.065-.031zm-16.765-1.98-.041.042c.004.007.007.017.012.022l.029-.064zm.337-4.023c.019-.023.042-.039.063-.061-.025.007-.048.027-.063.061zm32.247-21.55-.027.021c.031.007.063.012.095.02-.023-.016-.045-.023-.068-.041zm-26.54 23.63a.185.185 0 0 0-.063.085l.139-.082c-.026-.002-.053 0-.076-.003zm1.614 7.099-.021.007c-.001.02-.01.038-.01.06l.031-.067zm-31.821-18.923c-.464-.214-.983-.134-1.473-.118l.036.097c-.418.209-.852-.072-1.305.038.87.404 1.875.398 2.742-.017zM771.665 1.7c.006.02-.002.033 0 .052.022-.009.042-.012.066-.021l-.066-.031zM769.538.394l-.058.032c.01.015.018.02.027.034l.031-.066zm11.656 5.721c-.012-.024-.023-.04-.035-.06-.013.009-.017.021-.031.028l.066.032z"/><path d="M748.746 32.956c.106.291-.185.397.146.552.586-.051.862-.646 1.646-.604-.244-.516-.719-.012-1.055-.327-.538-.571-.686-1.122-.176-1.529.325-.009.56.18.978-.029-.142-.387.012-.718.46-.992.102.127.173.321.111.453 1.678-.67 2.748-1.941 4.429-1.404.021-.393.47-.666.327-1.054.494.148 1.131-.359 1.578.41-.302.824-1.391.4-1.662 1.158-1.444-1.393-1.907 1.689-3.775 1.386-.179.561-.179.561-.623.997-.168-.158-.275-.449-.469-.377.108.291-.509.406-.011.718.723.174 1.615-.537 2.281-.068l.607-.442a.734.734 0 0 1 .111.454c.353-.239.342-.565.597-.769l.407.509c.092-.197.135-.981.663-.736-.088.361.213.581.151.713-.315.337-.515.244-.713.152-.179.56-.358 1.12-.802 1.557-.692-.239-.453-.933-.432-1.325-.254.204-.361-.086-.585.05l-.169-.157-.061.132c-.021.393.055.749-.329 1.055a4.378 4.378 0 0 0-3.017 1.655c.444-.552.286.303-.104.162.051.156.09.313.135.47.642-.165 1.313-.425 1.875-1.276.718.012 2.152 1.079 1.622 1.877.265.123.673-.411.993-.584.371.413.82.14 1.191.553-.122.264-.144.655.029.979.586-.051 1.34.057 1.646-.604.137.225.01.326.146.551-.678.248-1.143 1.078-2.019 1.234-.22.3.019.652-.135.982.203.255.499.312.755.107-.139.82-.689.967-1.403 1.119.22-.301.077-.688.297-.987-.569-.506-1.216-.323-1.787-.828.547-.311.567-.703 1.271-1.181-.087.361.336.317.6.44-.274-.45-.115-.618.099-1.081-1.044-.001-1.636.931-2.598.404-.145.657-.245.529-.99.747-.304-.383-.116-.616-.253-.841.479-.34.846-.09 1.243.094.052-.458.5-.733.952-.844-.781-1.087-2.285-.095-3.411-.617-.02.017-.026.033-.038.05.035.135.08.265.111.399.063.096.113.188.079.266l-.024.015c.118.545.202 1.095.253 1.65.134.073.267.104.374-.021-.034.307-.178.287-.355.198.034.44.048.882.038 1.324.092.05.183.103.271.144.127-.102.692.24.58-.213.225-.138.045.422.464.214-.244-.515-.173-.321.5-.731.005.162-.153.33-.016.555l-.771.446c-.167-.157-.387.143-.529-.245l-.214.464a.922.922 0 0 0-.347.288c-.021.224-.04.448-.074.673.237.195.092.39.209.709.356-.077.276-.595.448-.274.207.194.304.379.343.556 1.328-.011 2.67.276 4.041.912.345.156.675.341.996.537.023-.014.037-.033.063-.047.049.058.089.114.126.171.667.431 1.281.94 1.817 1.533a22.757 22.757 0 0 1 4.992-3.358 1.34 1.34 0 0 1-.338-.271c.348-.402.556.015.872-.32a.649.649 0 0 1 .162.244 22.838 22.838 0 0 1 5.12-1.636c-.025-.044-.054-.079-.074-.134.285-.271.515-.244.836-.417l.27.38c.088-.013.175-.033.262-.045.142-.176.016-.376-.017-.578.256-.203.367.25.591.113a1.674 1.674 0 0 1-.155.418c3.4-.397 6.845-.024 10.081 1.092a4.766 4.766 0 0 1 1.238-.276c.796-.677 1.749-1.521 2.517-.924.418-.207.113-.59.694-.804 1.273.028 3.258-2.349 4.565-1.18-1.375-.155-2.202 1.631-3.741 1.481-.024.229-.377.468-.174.724-.234-.189-.718-.012-1.08-.099-.22.301.117.616-.367.794-.845-.527-1.585.09-2.272.801.424.18.842.372 1.254.576-.08-.056-.16-.111-.252-.197.684-.085 1.387-.563 2.008-.516-.487.419-.798.998-1.32.918a23.257 23.257 0 0 1 6.521 4.362c.619-.427 1.3-1.06 1.707-.341.021-.008.037-.018.059-.025l-.03.066c-.009-.017-.019-.026-.028-.041-.509.195-.924.46-1.319.722.169.167.341.33.504.501.542-.323 1.041-.696 1.362-1.262.739-.381 1.687-.344 1.892-1.133.137.224.483-.178.616-.116.321-.174.479-.342.438-.602 1.076-1.108 4.751-2.621 5.425-4.076 1.16-2.678 3.369-5.19 3.485-7.87-.01-.326-.355-.968.235-.855.122-.265.343-.564.037-.947-.56-.18-.602.605-.429.927-.792 1.884-.765 3.905-2.509 5.59-.453.11-.824-.302-1.313-.288l1.25-1.832c-.163.006-.295-.056-.366-.25.734-.544.659-1.944 1.385-2.814-.173-.321-.361-.087-.503-.475-.081-.52.658-.9.149-1.538l.576-.376c-.977-1.015.211-1.671.609-2.53-.238-.352-.55.146-.692-.24.107-.754.843-1.298.721-2.077.626.21.83.465 1.089 1.468-.316.336-.551.146-.907.224.178.484.432.28.692.24-.027 1.273.368 2.5-.22 3.596a.661.661 0 0 1 .367.25c.734-.543.322-1.217.797-1.72.097-3.332-.332-6.745-.76-10.159-1.062-1.697.01-2.969-1.282-4.692-.166-1.202-.954-2.451-.661-3.602-.9-.658-2.366-1.658-2.08-2.973-2.888-3.252-5.975-5.53-9.289-6.304.204.13.387.105.629.363l-.065-.031c-.551.146-.719-.011-1.203.166-.005-.158.183-.233.545-.518-.413-.093-.83-.166-1.252-.212-1.766-1.22-3.567-1.492-5.411-2.024.974-3.488 2.833-6.806 4.722-10.19 2.511-3.337 5.643-6.628 7.268-10.136l.83-.58c.123-.265.179-.56.135-.982-.128.102-.26.041-.26.041-.123.265-.251.366-.506.569-.04-.26-.075-.357-.366-.25-.158.167-.774.284-.602.605.459.052-.025.229-.438.6l-.689.967c-.254.204-.184.397-.373.631.04.26-.541.473-.663.738.27.286.631.373.315.708l-.464-.214-.592.931.133.061c-.607.442-.889.875-1.657 1.322-.053.458-.862.646-.558 1.028.429.118.571-.54.836-.417-.352.239.086.683-.235.855-.824-.302-.796.676-1.324.431-.739.381-.399.86-.813 1.231.103.127-.025.229.107.291a6.362 6.362 0 0 0-1.469 1.088c.244.515-.796.676-.521 1.125l.576-.376c.438.444-.47.667-.729.708l-.352.239c.086.682-.485 1.221-1.123 1.73l.138.225c.192-.072.301.219.468.377-.062.133-.373.631-.576.376l-.066-.031c-.255.204.015.489-.338.728.209.418-.698.641-.852.972-.153.331-.505.57-.398.86.612-.279 1.098-1.501 1.646-.604-.948-.037-.847 1.135-1.667.996-.078.688-.155 1.375-.889 1.919-.108.754-1.051.879-1.673.832-.366-.249-.81.188-1.089-.424l-.133-.062c-.779.121-1.446-.349-2.291-.259-.291.107-.622-.046-.83-.464-.193.071-.306-.383-.529-.245-.479.341-.806.351-1.142.034.122.779-.59-.113-.978.029l-.102-.128c-1.905.644-3.651.077-5.649.919.137.225.335.316.467.378.811-.188 1.528-.176 2.4-.495.225-.139.123-.266.347-.403.143.388.489-.014.631.373l-.352.239c-1.011 1.139-2.924.414-3.939 1.39-.401-.347-.922-.267-1.492.273-.412-.673-.937-.756-1.522-.705-.98 2.116-2.869 1.162-4.225 1.659.035.097.203.254.142.387-.352.239-.546.31-.81.188-.107-.29.373-.631.199-.952-.463-.215-.028-.978-.752-1.152.407.51-.108.754.069 1.238-.729.707-2.115 1.27-2.55 2.033l.766-.609c.07.193.295.057.336.316l.264.122.576-.376c.86.398 1.589.735 2.188 1.174-.158.168-.718-.011-.576.377 1.222.485 2.076-1.53 3.342-.622-1.038.162-1.377 1.934-2.262.721-.572 1.583-2.886 1.717-4.16 2.733.018 1.697-2.16.848-2.896 1.392-.025.229.179.484-.047.621l-.859-.398c.158-.168-.275-.449-.05-.586l.576-.375c.137.224.248.677.666.469.281-.432-.591-.112-.376-.576 1.452-.532 2.387-2.028 3.935-1.553-.31-.545.367-.794.41-1.578-.336-.316-.668-.47-1.06-.49-.418.208-.184.397-.505.569.233.189.469.378.314.709-.285.27-1.157.589-.978.028-.168-.158-.274-.449-.402-.347-.25.366.271.285-.112.591-.638.508-1.813-.599-2.863.28.086.684-.582 1.258-1.305 1.084.641.698-.425 1.09-1.063 1.599-.805.35-.684 1.129-1.529 1.22-.224.137.433.281.279.611-1.015.977-1.799.935-2.555 1.87 0 0 .005.164-.062.133-.325.01-.631-.373-.982-.134-.098.036-.062.133.005.163.815-.024-.242 1.736-.904 1.43.138.225.3.22.469.378l.137.224c.098-.035.266.122.336.317.536-.637.867-.482 1.539-.895 1.611-.7 2.612-2.167 3.916-2.205l.646.861c-.748.056-.469.667-1.178.982-.138-.225-.331-.153-.468-.378-.348.402-.745.218-.766.61.279.61-.26.039-.514.243.4.347-.607.443-.553 1.191-.656-.144-.771.447-1.299.202.08.52 1.134.846 1.145 1.172-.428-.117-.907.225-1.243-.093.016-.556-.324-1.035-.839-.791.343.225.53.622.487 1.029-.444.438-1.382.728-1.499 1.154.325-.009.652-.02.926.429.54-.473.871-.319 1.355-.497.04.261.539.571.249.679-.51.406-1.428.303-1.668.995.459.053.214.581.708.729l-.792.84c-.214.463.753 1.152-.082 1.568.167.158.355-.076.55-.147.371.414.35.807.395 1.229-.52.081-.406-.51-.931-.592-.321.173-.185.397-.474.503.3.22.258 1.004-.354 1.284l.393.021c.515-.244 1.237-.069 1.152-.753.459.053.214.582.707.729-.643.347-.785-.041-.826.743-.193.07-.361-.088-.586.051l.133.061c-.612.278-.576.376-1.152.752.019.652.399 1.392-.237 1.899.169.158.336.316.595.276.098-.035.225-.138.229.026.378-.469-.142-.388-.224-.907.429.117.256-.204.348-.403.383-.305.499.313.847-.09.127-.102.122-.265.347-.401-.372-.413-.642-.699-.264-1.167.024.814.804.693.405 1.554.876-.156 1.249-.787 1.764-1.031.305.383.479.703.487 1.029-.325.01-1.096.457-.693.804.49-1.059 1.369-.008 2.149-.129-.202-.255-.499-.312-.737-.663.188-.234.708-.315.571-.539-.331-.153-.447-.77-.972-.852.812-1.232 1.948-1.429 2.91-.902-.78.12-.848 1.134-1.892 1.133.172.32-.099 1.079.695 1.447-.026.229.178.484-.077.687-.138-.224-.479.342-.622-.045-.046.62-.652 1.063-.439 1.644.233.188.575-.375.753.108.05.585-.984.91-1 1.466-.753-.108-.727-1.382-1.659-.931 1.14 1.01-.582 1.258-1.062 1.599.116.616.809.857 1.348 1.428-.271.417-.261.225-.66.453.056.102.102.205.154.308.106-.172.255-.355.4-.174zm4.397 1.957c-.515.245-.671-.632-.416-.835.555.015.794.369.416.835zm.449 6.318c-.26.041-.432-.281-.753-.108-.076-.356.663-.737.77-.447l.066.031.03-.065c.204.253.209.417-.113.589zm47.074-2.547c.401.348-.606.443-.302.825l.066.032c-.291.105-.429-.119-.6-.44.219-.3.438-.601.836-.417zM751.225 8.869c-.3-.221-.188-.811.047-.622l.255-.204-.067-.031c-.045-.423.692.241.539.572-.422.046-.316.335-.774.285zm1.254-.625c-.01-.326-.102-.128-.341-.479.225-.138.22-.301.215-.464.26-.04.534.409.586-.05.193-.071-.052.458.151.713a.784.784 0 0 0-.611.28zm1.385-2.816c-.02-.651.999-.422.754.108-.256.204-.499-.31-.754-.108zm1.77 22.2c-.361-.086-.819-.138-1.217-.322-.312.499-.944 1.171-1.545.731-.298-1.263 1.77-.868 1.965-1.983-.27-.285-.656-.143-.926-.429.367-.794.95-2.052 1.998-1.888.057-.295-.799-.53-1.191-.552l.031-.065c-.417.208-.728-.338-1.034.324.056-.296.103-.916.505-.57.479-.34 1.097-.456 1.138-1.24.581-.214 1.172-.101 1.605-.863.051.585.539.57.62 1.091-.414.37-.893.712-1.076 1.109 1.134.846-.237 1.899-.813 2.274l.883 1.213c-.575.375-.301.825-.943 1.17zm-2.315-7.664c.081-.524-.458-1.096.062-1.177l.616-.117c.148-.461.447-.859.848-1.134.488-.014.966.688.752 1.152-.505.57-1.437-.022-1.938.71l-.065-.03c.071.196-.02.393-.275.596zm-.431-2.368c.046.423-.595-.275-.724-.174-.274-.449.73-.708 1.061-.555l-.035-.097c.215-.462.623-.997 1.275-1.017.269.286.08.52.218.745-.576.375-1.03.487-1.52.501-.189.233-.321.173-.516.244-.156.169.048.422.241.353zm.218-2.553c.45-1.318 1.259-.461.962.526-.453.112-.689-.076-.962-.526zm3.112.398c-.006-.162.815-1.067.968-.355.571-.538.733-.543.979-1.072.296.056.702.566.58.831-.383.305-.739.381-.978.029-.189.234-.734.543-.562.865-.325.009-.596-.275-.854-.236l-.241.692c-.396-.184-.82-.138-1.191-.552.504-.57.84-.253 1.299-.202zm.105-1.961c-.011-.325.546-1.354.958-.681-.52.08-.413.37-.958.681zm6.351-3.65c-.286.271-.393-.02-.643.347-.245-.515-.661-.307-.952-.2-.255.203.331.153.178.484-.286.27-.896-.496-.907.223-.393-.021-.184-.647-.224-.907.423-.046.603-.604.95-1.007.354-.076.079.52-.013.718.204.256.647-.183.53.245.184-.396.536-.636 1.152-.752.108.291-.539.473-.071.849zm9.557-1.198c-.26.042-.137-.224-.239-.351-.101-.128-.229-.025-.355.075-.371-.412.438-.601.505-.569.334.317-.084.525.089.845zm.262-1.084c.321-.172.677-.248.973-.191.009.326-.888.875-.973.191zm-1.669 2.04c.367.25.702.566 1.125.521-.042.784.313 1.752 1.174 2.151.182.647.003 1.206.119 1.823.199.093.224-.138.285-.27.198.093.076.356.569.504-.677.25-.082.526.153.715-.18.56-1.127.522-1.08-.099l-.576.376c.62 1.091 1.63-.048 2.271.65-.108.754-1.096.457-1.271 1.18-.717-.01-2.107.39-2.374 1.312.569.504-.043.784.003 1.206-1.075.064-2.198 1.796-3.236.913.296.057.735-.544 1.066-.391.347-.402-.192-.974.46-.992-.429-.119-.708-.729-1.196-.716.571-.539 1.514-.664 1.291-1.571-.331-.153-.719-.011-.992-.46.347-.402.79-.84 1.319-.595.221-.3.012-.718-.13-1.104-.688-.078-1.528.176-2.068-.395l.215-.465c1.528-.176 2.421-.888 3.72-1.09-.248-.677-.095-1.008-.757-1.314l-.79.84c-.429-.118-.188-.811-.702-.567.184-.397.679-1.292 1.274-1.017.21-.626-.279-.612-.742-.826-.193.071-.093.199-.021.393-.458-.052-.86-.399-1.19-.552-.25.365-.98 1.073-1.382.726-.449.275-.144.657-.296.987-1.291.528-1.236-2.018-.233-1.231.417-.209-.015-.49.438-.602-.173-.32-.432-.28-.692-.24.22-.3-.187-.81-.064-1.074.8-.514 1.112-1.013 1.937-.711.92-1.984 1.945.66 2.801.896.205.419-.34.728-.428 1.089zm6.975-5.687c-.113.59-.814.024-1.202.165.057-.295.342-.563.76-.772.168.158.388-.142.529.245-.325.008-.408.534-.087.362zm.458 1.093c.146.551.049.587.513.801-1.115-.195-2.049 1.301-3.021.449.475-.504.774-.284 1.232-.233l1.276-1.017zm1.91-2.732c-.384.306-.592-.112-.917-.103-.016-.488.738-.381.917.103zm.81 6.403c-.378.469-1.107 1.176-1.555.406.025-.229.281-.433.602-.605-.564-.342-1.146-.13-1.583-.573-.439.601-.928.615-1.448.696l.05.585c-.58.213-1.186-.389-1.65.441l-.03.065c-.198-.092-.469-.377-.729-.337.689-.967 2.89-1.555 4.058-1.817.158-.168-.341-.479-.381-.738 1.314-.757 1.371 2.243 2.666 1.877zm-.215-7.171c.087-.361.806-.35 1.085.263-.423.044-.754-.109-1.085-.263zm.432 4.621-.066-.031c.015-.008.019-.02.03-.028-.194-.327-.372-.144-.534-.445.284-.271.554.015.84-.255-.088.19-.031.521-.306.7.011.019.024.035.036.059zm2.18 7.44c.544.734.145 1.595-.599 1.813-.341-.479.417-.209.144-.657-1.614-.507-2.6 1.447-4.337 1.207.939-1.335 3.802-1.616 4.792-2.363zm.621-6.544c.208.418-.348.402-.638.508-.341-.48.417-.208.638-.508zm-2.066 11.74c.82.141 1.526-1.382 2.268-.557.255-.203-.244-.515-.152-.712 1.269-.137 2.1-.716 3.323-1.274-.098 1.08-1.82 1.327-2.342 2.451-.106-.29-.269-.285-.371-.413-.688.968-1.457.37-2.11 1.434l-.499-.311-.031.065c-.674.411-.729.707-1.314.757.464-.828.989-.746 1.228-1.44zm3.878-4.552c.392.021.76.271 1.207-.004-.505.57-.781 1.166-1.087 1.828-.617.115-1.028-.557-1.558-.802.215-.464 1.061-.555 1.453-.533.091-.198-.168-.157-.015-.489zm4.044 6.537c-.585.051-.987-.297-1.553.405-.494-.148.052-.459-.478-.703.396.184 1.003-.259 1.218-.722.27.285.651-.021.927.43-.291.106-.316.335-.114.59zm6.831-7.284c-.076.688-1.467.043-.63-.373.167.159.37.412.63.373zm.919-.941-.638.508c-.371-.413.425-1.09.638-.508zm-1.992 4.301c-1.382.727-1.577 1.842-2.881 1.88-.294-1.101 2.157-2.054 2.881-1.88zm-1.269 3.43-.031.066c.021-.392-.045-.423-.33-.153l-.474-.54c.475-.504 1.412.252.835.627zm-8.401 8.246c-.356.076-.631-.373-1.044-.001-.245-.515.806-.351.592-.932.347-.402 1.11.032 1.162-.428.285-.269.401.349.656.145-.025.229-.28.432-.729.707l-.238-.352c-.418.207.05.586-.399.861zm2.204-5.972.031-.067c-.215.464-.302.826-.856.809-.082-.518.407-.535.825-.742zm-.344 1.609c.418-.208.723.174 1.142-.034-.021.393-.404.696-.623.997l-.03.066c-.53-.245-.607-.601-.489-1.029zm-.384 2.392c.447-.273.754.109 1.059.491-.247.53-1.233.232-1.059-.491zm3.184-4.793c.209-.626 1.041-1.205 1.55-.567-.342.564-.974.192-1.55.567zm3.285-6.916c.255-.203.556.017.855.235-.351.238-.621-.047-.855-.235zm-1.524 4.679c-.692-.241-1.555.405-2.268.557.129-1.145 1.632-1.092 2.168-1.729-.048.621.152.713.1 1.172zm-10.58 8.438c-.3-1.264 1.33-1.312 2.237-1.534.076.357.086.683-.23 1.019-.208-.418-.494-.148-.729-.338l-.065-.03c-.052.458-.796.674-1.213.883zm-2.32 1.016c-.265-.122.047-.621-.341-.479.271-.759 1.63-.049 1.667-.997.142.388.488-.014.601.44l-.245.528c-.388.143-.709.315-.947-.037l.03-.066c-.215.464-.542.475-.765.611zm-.759.772c-.644.347-.535-.407-.969-.688.199.093.491-.014.662.307-.509.407.199.092.307.381zm.46-2.036-1.054-.326c1.068.816-1.122.687-1.29 1.572-.479.34-.82-.139-1.243-.094-.086-.683 1.111-1.013 1.452-.533.348-.401-.045-.423-.249-.677.714-.152 1.852-1.395 2.722-.669.184-.396-.407-.511-.479-.704.098-.035.587-.05.479-.34.655.143.886.168 1.874-.413-.02-.011-.042-.021-.06-.033l.065.03-.006.003c.26.15.733.224.874.444-.02-.736.882-1.896 1.226-.281-1.141 1.079-2.954.479-4.311 2.021zm-8.854.722c.556.017.983.134 1.564-.08.223-.137.315-.335.082-.523 1.238-.07 1.367-1.216 2.421-.888.353-1.284 1.508-.829 2.599-1.448.549.897-1.678 1.714-2.359 1.8-.108.754-.95 1.007-1.79 1.261l-.591-.113c-.193.071-.444 1.481-1.407.956l.092-.199c.184-.399-.468-.38-.611-.766zm-4.085.839c-.244-.515-.531-.245-.855-.235-.02-.652.75-1.1 1.189-1.7-.052.459.463.215.845-.09l.611.765c-.637.507-1.32.594-1.79 1.26zm.258 1.003c-.325.011-.683.086-.922-.266.322-.172.617-.114.922.266zm1.555-3.7c-.292.107-.393-.02-.367-.25-.343.564-1.315.757-1.824.12l2.021-2.279c-.468-.378-1.044-.001-1.568-.084.343-.564 2.472-1.346 2.53-2.685.669-.576 1.432-.142 2.123.099-.144.657-.953.845-1.683 1.551-.321.174.147.551-.174.724.729.337 1.528-.176 2.374-.266.167.157.239.351.015.488.84-.255 2.469-2.553 3.913-1.161-.453.111-.347.402-.638.509-.295-.056-.142-.387-.661-.307-.506.57-1.041 1.206-1.805.771-.387.142-.052.459-.307.662-.52.08-.591-.113-1.096.457-.834-.628-2.659.536-2.853 1.651zm-2.309.298c-.313.498-.398-.185-.714.151-.366-.25.638-.509.714-.151zm6.153-8.08c.388-.142.708-.315.917.104-.055.294-.672.412-.917-.104zm.035 2.184c-.291.107-.647.184-.944.127.123-.265.515-.244.699-.642.235.189.172.322.245.515zm5.888-11.496c.376-.468.655.144 1.1-.294.27.286-.087.362.115.616-.421.046-.936.29-1.215-.322zm-.332.889c-.133-.061-.326.011-.484.179-.27-.286.271-.76.5-.733.005.163-.153.332-.016.554zm-1.081 4.242c.29-.106.612-.279.754.108-.256.203-.551.147-.754-.108zm-.512 1.451c-1.014-.067-.221-1.95.491-1.059.208.419-.011.72-.491 1.059zm2.672 2.041c.611-.278 1.075-.063 1.655-.276.158-.169-.102-.128-.238-.353.52-.081 1.146-.915 1.553-.405.143.387-1.289.526-.628.834-.836.416-2.318 1.016-3.078 1.788-.646-.861.99-.747.736-1.588zm3.312 2.741c.647-.184.045.422.381.738l.066.031c-.326.01-.591-.114-.907.223-.244-.516.937-.289.46-.992zm6.872-4.774c-.192.072-.233-.188-.203-.254-.132-.062-.29.106-.397-.184.225-.139.397.184.714-.152.433.28-.383.304-.114.59zm-2.021 3.323c-.516.244-.506.57-.954.845-.203-.255-.341-.479-.279-.611.55-.148.725-.872 1.233-.234zm-.379 1.512c.233.189-.012.718.468.378.169.158.01.326.177.484-.061.132-.132-.061-.264-.122-.524-.083-1.101.293-1.682.506l-.146-.55c.727.338.571-.537 1.447-.696zm-1.34-.056c-.062.132-.769-.597-1.069-.816.45-.275.699.401 1.069.816zm-.521 1.124c-.021.392-.012.718.223.906-.343.565-2.313.135-2.441 1.279-.616.117-1.26.463-1.845.514.654-1.065 2.487-1.901 4.063-2.699zm-4.468 3.396c-.393-.021-.605.441-1.029.488l-.376-.576c.056-.297.484-.179.831-.58.174.321.398.184.574.668zm-1.947-1.868-.239-.352c.947.038 1.618-1.582 2.421-.888-.439.602-1.214.886-2.182 1.24zm.506 1.684-.097.034c-.004-.006-.01-.008-.012-.015-.548.107-.647.811-1.124.213l.123-.265c.315-.171.759-.278 1.001.052.037-.007.069-.018.109-.019zm.236-4.153c-.229-.025-.397-.184-.57-.505.286-.27.423-.046.678-.249-.122.265.147.551-.173.724l.065.03zm-1.141 3.331c-.192.07-.4-.348-.585.05-.401-.348.016-.556-.157-.877.449-.274.274.448.742.827zm1.744-3.936c.021-.393.642-.345.836-.417.269.287.472.541.416.837-.454.111-.799-.532-1.252-.42zm-1.765 1.032c-.408.534-1.355.498-1.525 1.384-.238-.353-.697-.404-.646-.862.805-.35 1.51-.829 2.171-.522zm-4.226 2.703c.291-.106.464.215.745-.218.34.479.437.443.939.917-.061.134-.122.266-.021.393l-.066-.03c-.693.805-1.507-.216-1.597-1.062zm.298 1.264-.066-.031c-.377.469-.678.25-.999.421-.203-.255-.146-.55.139-.819.214.58.652-.02.926.429zm-1.589.308c.336.316.086.684.029.979-.765.61-1.258-.582-2.145.292l-.605-.603c.769-.447 1.565-1.122 2.721-.668zm.003 4.504c-.284.27-.646.182-.916-.104.351-.238.616-.116.916.104zm.982 1.178c.101 1.171-2.188 1.076-2.805 2.236l-.274-.448c1.28-.855 2.212-1.306 3.079-1.788zm.272-1.803c.567-.371 1.052-.394 1.831-.883-.012-.017-.016-.036-.031-.053l.066.031-.035.021c.29.417-.21 1.067.202 1.182-.087.361-.943.126-.791.839l-.876.157c-.173-.321.148-.494.377-.469-.203-.253-.856-.235-.743-.825zm.619 2.135c-.203-.255.184-.397-.05-.586l.876-.156c.174.32-.531.797-.826.742zm.202 1.299c.152.713-.588 1.095-1.204 1.211.214-.464.694-.806 1.204-1.211zm-2.065.812c.411.672 1.323.613 1.215 1.366-.163.005-.3-.219-.488.015-.214-.581-.279-.611-.835-.627-.335-.317.149-.495.108-.754zm2.551 1.261c.397-.098.134.3.13.487.017 0 .03-.004.047-.004l-.03.066a.096.096 0 0 1-.017-.063c-.756-.029-1.266.21-1.889.707-.06-.909 1.575-.795 1.759-1.193zm.354-4.578c.179-.561 1.004-.258 1.216.322-.638.509-.885-.169-1.216-.322zm1.503-.992c.353-.238.493.148.814-.024.203.256-.244.53-.5.733-.269-.286-.34-.479-.314-.709zm8.546-3.353.03-.066c.015.489-.611.279-.837.416-.043-.423.578-.377.807-.35zm-1.404-1.133c.099-1.079 1.672-.832 2.427-1.769.224.33.578.373.579.755.01.004.02.005.031.01l-.032.066c.004-.03.001-.051.001-.076-.981-.411-1.932 1.272-3.006 1.014zm3.288-5.71c-.137-.225-.01-.325-.146-.551 1.315-.756 1.917-1.36 3.018-1.654.336.315.243.515.447.769-1.076.063-2.192.912-3.319 1.436zm3.423-6.694c-.215.463-1.086-.262-.739.381l.066.03-.815.024c-.228-1.069 1.407-.956 1.937-.71-.216.464-.759-.271-.449.275zm-8.193-4.519c-.138-.225-.011-.325-.178-.484.383-.305.616-.116.906-.223.04.259-.404.698-.728.707zm1.22-2.809-.377-.576c.321-.173.524.081.855.234-.086.363-.127.103-.478.342zm-1.384 2.814.03-.065c-.047.622-1.152.751-.978.029.347-.404.621.046.948.036zm-5.938 2.233c.256-.203.397.185.616-.116.041.259-.147.493-.565.702-.365-.252.346-.401-.051-.586zm-.367.793-.031.066c-.006-.018-.017-.021-.024-.036-.302.161-.605.317-.913.325-.04-.259.148-.493.5-.732.101.272.301.182.413.407l.055-.03zm-.986-1.342c-.448.275-1.355.498-1.345-.221.479-.338 1.3-.201 1.345.221zm-.455-2.14c-.469-.377.362-.956.576-.375l-.576.375zm-9.684 17.78c-.682.086-1.963.938-2.185.032.677.02 1.366-.313 1.97-.662a.18.18 0 0 1 .063-.084c.023.002.051.001.076.002.331-.196.634-.391.889-.521-.103-.127-.26.041-.387.143.045-.621.737-.381.982.134-.55.202-1.043.281-1.483.244l-.139.082c-.073.198.295.455.214.63zm-1.615-2.758c.418-.208.371.413.478.704-.254.203-.423.044-.714.15-.173-.32.245-.529.236-.854zm2.683-3.018c-.04-.26.77-.447.107-.755.418-.208.637.536.968.69-.087.361-.148.493-.571.539.376.576.987.296 1.369 1.035-.766.61-1.132.36-1.796 1.099-.247-.679.272-.759.69-.967-.157-.876-.814-1.019-.767-1.641zm1.761-2.238c-.322.173-.616.116-.969.354-.446-.769.786-1.001.969-.354zm-.055-.748c.32-.173.651-.02.946.037.041.259-.112.59-.53.798-.336-.315-.081-.52-.416-.835zm1.106-4.472c-.336-.316-.544-.735.037-.947.168.158.284.774.539.571.178.485-.315.337-.576.376zm-2.849.771c.296.057.315.709.835.628.08.52-.377.468-.704.478-.468-.378-.706-.731-.131-1.106zm-1.331 1.311c-.137-.225.479-.341.638-.509.199.093.401.348.662.308-.113.592-.887-.168-1.3.201zm-.311.5c-.6-.439-1.641.767-1.998.842-.366-.249-.203-.254-.478-.703.501-.732 1.479-.762 2.131-.781.233.189.274.448.345.642zm-5.767 4.641c-1.009.096-1.07.228-1.548-.476.057-.296.343-.565.694-.805.569.506 1.422-.466 1.838.371.933-.452.598-.77 1.244-.952-.057.296.366.25.544.734a4.232 4.232 0 0 1-2.787.639l.015.489zm.682-3.379.448-.276c.234.189.429.118.631.374-.315.336-.631.671-.826.741-.265-.122-.586.05-.855-.234.521-.081.072-.851.602-.605zm2.611-5.464c.036.098.194-.071.29-.105l.341.479c-.209.626-.836.417-1.192.492-.214-.58.576-.376.561-.866zm-1.516 5.006c.316-.336.521-.081.836-.417.203.256.275.449.249.679-.454.111-.779.12-1.085-.262zm1.745 1.611c-.142-.387-.418.209-.53-.245.229.026.515-.243.753.108a.51.51 0 0 1-.606.442c-.038-.26.195-.07.383-.305zm4.276-12.003c-.233-.188-.076-.355-.146-.551.259-.039.432.281.723.175.142.388-.455.112-.577.376zm-.629 1.877c.071.194.04.26-.021.393-.379.468-.56-.179-.841.254-.234-.188-.34-.479-.279-.611.444-.437.816-.025 1.141-.036zm-3.744 6.867c-.291.106-.524-.081-.877.157-.079-.52-.244-.515-.354-.969l.8-.513c.31.545.478.705.431 1.325zm-1.703-2.397c.418-.209-.113.591.306.383l-.092.199-.194.07c-.133-.062-.202-.254-.396-.184-.208-.418.645-.182.376-.468zm-1.01 1.14c-.29.107-.524-.081-.794-.367.347-.402.515-.244.77-.447.107.288-.016.554.024.814zm.242-1.736c-.049-.586-.626-.21-.386-.902l.49-.016c.172.322.411.674-.104.918zm-3.233 6.458c.163-.005.597-.768.907-.223l-.031.066c.316-.335.688.078.771-.447l-.103-.127.225-.138c-.102-.128-.26.041-.388.143-.07-.193.088-.362.245-.53 1.37 1.037-.572 1.583-1.408 2-.367-.251.205-.789-.218-.744zm.694 2.492c.129-.102.067.03.067.03.106.291-.225.139-.286.27-.453.112-.688-.076-.931-.592.35-.239 1.319-.594 1.15.292zm.564 7.977 1.161-1.169c-.523-.89.056-1.813.056-2.849-.182-.646-.85-.072-.803-.694.215-.462 1.004-.258 1.432-.14.226-.035-.079-.498-.244-.444-.02.022-.043.037-.062.063a.113.113 0 0 1 .062-.063c.614-.689 1.771-.549 2.496-.603 1.336-1.148 2.289-.948 3.325-2.317-.337-.316-.775.283-1.192.492-.535-.407-1.518-.542-1.489.436-.386-.902-1.808.609-2.476.14-.515.243-.113.591-.628.834-.232-.188-.563-.341-.803-.693.796-.676 1.491-.272 1.631-1.093.392.021.6.439.992.46.321-.173-.177-.484-.019-.652 1.762.013 3.533-2.943 5.212-1.362-.386.142-1.081.945-.969.354-.962.519.427 1.163.803 1.738-.673.412-1.074.064-1.63.049-.123.266.117.615.355.968-.418.209-.806.351-1.207.003-.353.239-.083.525-.205.79-.699.641-1.055-.327-1.696.018-.026.229-.006.882.35.806.107.291-.55.146-.625-.21-.699.642-1.229.396-1.81.608.009.326.641.699-.175.724.274.448.632.372.87.725.25-.367.303-.825.888-.875-.239.692-1.139 2.285-2.087 2.248.646.862 2.292.258 3.012-.774 1.34 1.103-.925 1.822-1.712 1.617-.286.27-.276.596-.368.794-.256.203-.484.178-.754-.108-.234.853-1.213.883-1.691.179zm5.064-4.165c-.408.534-.591-.112-.947-.037.021-.392.743-.216.947.037zm-7.473 10.927c-.137-.226-.423.044-.596-.275.586-.051.225-.139.215-.465.189-.232.387-.142.581-.212.106.29.085.682-.2.952zm.689-.968c-.232-.188-.009-.325-.141-.387.413-.371.923-.777 1.319-.594.128-.103-.106-.29-.142-.388.708-.315 2.955-.479 2.824-1.584-1.124-.521-2.396.658-3.566.759-.681-.959 1.887-1.297 1.205-2.255.423-.046.483.865 1.191.553.469-.668.861-.647 1.692-1.227.637.535 1.637-.93 2.242-.328-.54.474-.394 1.023-.935 1.496-.605-.602-.857.809-1.682.507-.012.719 1.022.394 1.481.446.029.978-1.239 1.113-1.892 1.134.412.672-.933.451-.194 1.114l-.03.066c-1.099.294-2.098-.328-3.372.688zm.042 2.512c-.37-.413-.226-1.069.262-1.084.274.448.187.809-.262 1.084zm.777-1.328c.285-.271.698-.642.876-.157.057-.295.77-.447.465-.829.748-.055 1.522-.339 2.292-.786.275.449-.402.697.004 1.207-.728-.337-1.795 1.098-2.396.658-.223.138-.152.331.116.617l-.065-.031c-.519.081-.916-.103-1.292-.679zm.69 2.328.03-.066c-.474-.54.963-.518.812-1.231.688.078 1.141-.033 1.646-.604.132.062.269.285.463.216-.261 1.081-1.862 1.066-2.951 1.685zm.41 1.717c-.081-.52 1.269-1.18 1.671-.832-.642.343-1.121.685-1.671.832zm3.852-5.368c-.167-.157-.041-.259-.111-.453.224-.137.326-.01.552-.146.004.161-.119.427-.441.599zm2.05-4.596c.382-.305.83-.58 1.219-.721.019.651.369 1.457-.335 1.935h.001l-.479.341c-.138-.225-.331-.154-.402-.347l.153-.331c-.403-.348.178-.562-.157-.877zm-.723 3.12c1.391-.399 2.676-1.09 3.688-1.022.039.243-.202.497-.226.796l.021-.007-.03.066c-.001-.021.008-.038.01-.06-1.096.298-2.434 1.108-3.679.691.226-.138.154-.33.216-.464zm-3.188 10.178c.113-.59.591.113.969-.354.009.324-.823.904-.969.354zm1.66-.116c-.331-.153-.305-.382-.707-.729.536-.636.994.461.707.729zm7.655-10.276c-.316.335.239.351.015.488-1.365.172-2.282 1.112-3.171 1.987-.142-.387-.428-.117-.539-.57l-.03.065c-.612.279-1.233.232-1.881.415-.091-.846 1.778-.543 2.244-1.372.232.188.427.118.631.372.076-.688 1.146-.914 1.666-.995.77-.447 1.591-1.353 2.259-.884-.383.306-.796.679-1.194.494zm-1.916 7.953-.245-.516c.384-.305.704-.477 1.035-.323-.055.295-.341.565-.79.839zm1.007-2.345-.098.034c-.255.204-.366-.25-.59-.113.613-1.323 2.351-2.126 3.94-2.434-.053.458-.861.646-.587 1.095-.813.023-2.307.296-2.665 1.418zm2.087 1.044c-.291.106-.447-.77-.859-.398-.143-.387.544-.31.637-.509.402.349.213.582.319.872l-.097.035zm.68-1.293c.311-.498 1.477-.762 2.06-.975.231 1.233-1.484.6-2.06.975zm.76 2.524c.025-.229-.147-.55-.35-.805l2.482-1.021.376.576c-1.432.141-1.153.753-2.508 1.25zm3.475-1.605c-.255.203-.52.081-.713.152-.306-.383.113-.591.134-.983.718.012 1.632-1.093 2.145-.292-.779.12-1.289.529-1.566 1.123zm.278 1.656c-.208-.418 1.306-1.083 1.667-.996-.409.535-1.025.651-1.667.996zm1.6-3.279c.087-.361.892-.711 1.1-.294l.066.031c-.148.495-.888.876-1.166.263zm2.772-1.127c-.278-.611.861-.645.718.012-.286.271-.401-.348-.718-.012zm3.059-5.735c-.139.82-1.835.838-1.429 1.348-.423.046-2.898.185-2.636 1.353-.942.125-2.373.266-2.604 1.284-.387.143-.956-.363-.967-.689 1.039-.161 2.345-1.244 4.277-2.118.484-.177.866-.481 1.249-.786 1.061-.555 2.251-.003 2.182-1.24.621.046 1.365-.171 2.069-.649.269.286-.021.393.346.643-.511.407-.877.157-1.32.594-.388.143.523.082.075.356l-.152.331c-.362-.089-.724-.176-1.09-.427zm.267 2.374-.376-.576c.377-.468.824.303.376.576zm1.116-.849-.274-.448c.073-.851 1.259-.462 1.565-1.124.336.316.336.316.479.703l-.031.067c-.617.117-1.238.069-1.739.802zm.493 1.192c.122-.264.622.048.479-.34l.065.031c.098-.036.504.474.386.902-.421.045-.656-.143-.93-.593zm3.692-3.111c-.383.306-.683.085-.861-.398.413-.371.653-.019.861.398zm1.729-2.172c.296.056.586-.05.825.302l.066.03c-.271.76-1.442.859-2.182 1.24-.234-.188.087-.361-.05-.586.32-.172.713-.151 1.105-.13.256-.205.083-.525.236-.856zm-2.304 4.798-.066-.03c-.38-.739-1.061.553-1.487.436-.184-.647.076-.688.521-1.124l.239.352c.382-.306.143-.656.561-.865.667.469 1.703-.899 2.507-1.249.637.534.842-.255 1.296-.366.004.164-.22.301-.053.458-1.275 1.017-2.552.827-3.518 2.388zm4.405-5.514c.273.054.524.156.845.11.001-.015.006-.021.005-.037l.065.03c-.024.005-.047.003-.07.007-.017.587-.747.189-1.087.582-.111-.453.246-.528.242-.692zm-2.968 8.834c-.08-.52.619-1.16.994-.584l.036.097c-.392-.021-.368.794-1.03.487zm1.35-.66c.025-.229-.244-.516.108-.754.132.062.33.153.468.378l-.576.376zm.634-.673c-.051-.585.646-.183.876-.156-.016.555-.678.249-.876.156zm-3.547 6.959c-.142-.387.359-1.12.638-.509l-.638.509zm4.442-2.123c-1.508-.216-2.311 2.385-3.46 1.049a6.629 6.629 0 0 0 2.757-1.616c.234.189.495.149.769.598l-.066-.031zm-.137 6.366c.215-.463.601-.606 1.091-.62.009.326-.836.417-1.091.62zm4.19-6.097c-.081-.52.315-.336.729-.706.178.485-.331.891-.729.706zm3.271-4.11c-.316.337-.595-.275-.978.03-.208-.419.337-.729.49-1.06.199.092.432.28.688.078.173.321.116.616-.2.952zm2.861-5.827c-.021.392-.042.784-.491 1.059l.03-.066c-.137-.224-.305-.381-.528-.245-.245-.516.724-.871.989-.748zm1.969-6.159c.331.152-.307.661.239.351l.066.03c-.643.347-.578 1.421-1.337 1.15-.202-.256.083-.525-.156-.877.475-.505.608-.443 1.188-.654zm-6.268 9.712c.382-.306.498.312.784.042.127-.103-.076-.356-.143-.388.541-.473.943-.126 1.708-.736-.032 1.111-1.434 1.186-2.616 2.004-.106-.291.047-.622.267-.922zm-.725.871c.107.29-.046.621-.398.859l.03-.065-.33-.153c-.27-.287.5-.734.698-.641zm-1.629 2.3c.393.02.255-.204.576-.377.239.353.807-.351.993.46-.734.544-1.264.299-2.258.883-.402-.347 1.104-.544 1.277-.224.129-.102-.485-.616-.588-.742zm7.616-18.172c.177.484.386.901-.093 1.243-.447-.771-.523-1.126.093-1.243zm-8.643 17.616c-.672.411-2.216.098-2.151 1.173-.575.376-1.074.064-1.48-.444 1.114.194 1.896-.971 3.036-1.005.128-.102-.101-.128-.265-.122.239-.694.743-.22.86.398zm3.348-12.434c.975-.192 1.046-1.043 1.796-1.098.6.439-1.251 1.831-1.796 1.098zm4.094-9.356c.809.857.67 1.677 1.056 2.579-.791.839-1.235-.975-1.985-.919l.031-.066c-.05-.587-.004-1.208.898-1.594zm-7.603 16.41c.423-.045-.378.469.085.684-.436-.444-1.116.848-1.558.242.933-.453.965-.52 1.473-.926zm-1.883 2.504c-.232-.188-.428-.118-.6-.439-1.029.488-1.01 1.14-1.779 1.587l-.031.066c-.198-.092-.371-.413-.591-.113-.452-.933 1.111-1.012 1.684-1.551.509-.407.815-1.069 1.666-.996.081.518-.067 1.012-.349 1.446zm3.729-13.946c.606-.442.814-.024.991.46-.605.442-.748.055-.991-.46zm-1.758 3.445c.123-.264.562-.864.826-.742l.031-.065c.412.672-.567.701-.857.807zm1.713-.573c-1.064-.653 1.015-.976 0 0zm-3.525 7.61c-.071-.194-.265-.123-.402-.348.225-.137.459.053.678-.248.203.256.045.423-.276.596zm6.501-11.777c-.179.56-1.112 1.012-1.79 1.261-.457-1.096.857-.809 1.026-1.695.235.188.586-.051.764.434zm1.261-5.846c.402.348-.438.601-.57.539-.241-.351.336-.729.57-.539zm-1.314 3.009c.111.453-.479.34.248.677-.387.144.015.489-.372.632-.234-.188-.657-.145-.504-.475-.352.238-.57.539-.43.927-.229-.026-1.365.171-.826.742-.418.208-.085-.683-.401-.348.856-.808 1.388-1.606 2.285-2.155zm-3.751 8.791c-1.103 1.339-2.336 1.571-3.57 2.848-.468.171-.907.276-1.248-.3l-1.151.795c-.336-.316-.081-.52-.152-.713 1.767.175 4.222-2.869 6.121-2.63zm.915-16.373a4.879 4.879 0 0 1 3.622 2.241l-.029.065c-1.335.105-2.305-1.791-3.813-.963.188-.234-.117-.616-.157-.876.224-.137.285-.27.377-.467zm-2.673 5.593c.494.147 1.069-.229 1.568.083.071.193-.086.361.016.489-1.912.48-2.871 2.206-4.676 2.978.433.28.957.364 1.568.083.398.185.214.582.729.338-.027.23-.282.434-.439.601-.641-.699-2.104-.491-2.779-1.288.047-.62 1.783-.379 1.52-1.545.959-.682 1.6.018 2.559-.664-.86-.398-.315-.708-.926-1.474.321-.172 1.371-.009.86.399zm-1.084-.262c-.229-.025-.397-.185-.503-.474.347-.402.611-.28.851.071-.226.139-.124.266-.348.403zm3.115-8.283c-.564-.342.123-.265.661.307-.428-.118-.916-.104-1.384-.48-.011-.327.498.311.723.173zm-2.515 2.131c.23.025.398.184.57.505-.325.01-.713.151-.952-.2l.382-.305zm-1.076 1.109c-.01-.325-.116-.617.006-.882.169.159.494.148.834.628-.514.243-2.146 1.337-2.696 1.483.139-.819 1.067-1.433 1.856-1.229zm-3.709 4.711c.208.418.808.857.293 1.101-.243-.515-.719-.011-.997-.623-.276.596-.724.87-1.387.564l-.03.066c-.215.464-.257 1.248-.949 1.007-.438-.444.668-.574.099-1.08.941-.125 1.992-1.006 2.971-1.035zm.592-4.227c-1.825 1.164-3.593.988-5.382 2.249l-.271-.285c.868-.483 1.179-.981 1.938-.711.153-.33.107-.753.459-.992.169.158.423-.046.632.373.188-.234.113-.592.465-.83.561.179 1.264-.299 1.916-.318.166.158.007.327.243.514zm.124-1.308c-.964.518-1.921.154-2.798.312-.233-.189-.04-.26-.111-.454 1.147-.916 2.513-1.087 2.909.142zm-6.302-3.402c-.184.397.459.053.539.571-.83.58-1.554.406-2.123-.1.178-.56.901-.387 1.293-.364-.208-.419-.407-.511-.676-.796a16.283 16.283 0 0 0 3.169-.942c.444-.438 1.069-.229 1.085.261l-.194.071.066.03c-.738.381-.495.896-.546 1.354.625.209 1.354-.497 1.951-.221l.354.968c-1.855 1.23-3.247-.621-4.918-.832zm5.834-1.315c-.285.27-.463-.215-.907.223-.274-.45.796-.676.907-.223zm-.025-.815c-.387.142-.656-.144-.983-.135-.009-.326.74-.38.983.135zm-3.879-.994c.599-.31 1.33-.17 1.772.339 1.15.292-2.369.43-1.936-.334.036.098.133.061.164-.005zm-.342.565c.046.423-.606.441-.8.514-.412-.674-.983-.135-1.446-.349-.422.045-1.599-.019-1.231-.812.755.107 1.6.018 2.322.191.102.127-.092.198-.153.331.4.348.911-.06 1.308.125zm3.536-11.624c.802-.514 1.061-.554 1.693-1.225l.066.031c.192.973-1.061.554-.903 1.43-.317.335-.556-.016-.856-.236zm-3.813 8.924.274.448c-.175.724-.778.122-1.223.559-.111-.453.659-.9.949-1.007zm-5.725.563c1.686-.345 3.029.921 4.721.739.137.225-.413.372-.668.575a7.07 7.07 0 0 0-3.677-.738l.03-.066c-.356.075-.651.019-.968.354-.208-.417-.561-.179-.805-.693l1.367-.171zm-2.383-.061c-.984-.134-2.131.782-2.905.021 1.251-.787 1.982-.286 2.905-.021zm-3.001 3.352c.387-.142.076.356.341.479-.734.545-.693-.239-1.155-.454-.111-.453 1.273.027.428.118.132.061.757.272.386-.143zm-1.065.443c-.002-.019.005-.033 0-.052l.067.03c-.025.01-.044.013-.067.022.036.329-.228.587-.562.813l-.341-.479c.331-.223.557-.22.903-.334zm-1.457.318c.473.54.809.857.762 1.479.234.188.468.377.825.302.312-.499-.733-.5-.478-.703 2.414-.007 5.321-3.161 7.628-2.414-.418.208-.576.376-.566.701-.877.158-1.592 1.354-2.681.93-.443.437.539.571.294 1.1-1.615.538-3.026.285-4.657 1.379-.331-.152-.647.183-.855-.235-.562.865-1.82 1.327-2.697 1.483.111.453.06.911-.612 1.323-.015-.488.28-.432-.223-.906.112-.591 1.01-1.141 1.057-1.762.55-.146.869.725 1.41.252.254-.203-.275-.448-.315-.709-.529-.245-1.167.264-1.723.248-.64-.699-.253-.842-.99-1.505 1.258-.462 2.531-.434 3.821-.963zm-.727-1.644c.02-.01.034-.021.058-.032l-.031.066c-.009-.014-.018-.019-.027-.034-.337.193-.207.346-.448.537l-.478-.704c.37-.296.658-.244.926.167zm-1.762.25c.27.286.652-.02.86.398l-.066-.03c-.378.469-.643.346-.999.421-.172-.322-.116-.616.205-.789zM767 1.71c-.356.075-.876.155-1.217-.323.51-.406.907-.223 1.217.323zm-2.05-1.996c-.361-.087.678-.249.815-.024.05.587-.551.147-.815.024zm-10.533 10.07c.001-1.043 1.173-1.144 1.643-1.811 1.548.476 3.644-1.446 5.289-1.007.189-1.277 1.432-1.184 2.02-2.278-.056.295.279.612.254.841-.444.438-.806.351-1.285.69-.108.754 1.119 1.403 1.587 1.78-1.046 1.043-1.89.089-2.385.984-.386-.902.729-.706 1.178-.981.188-.233-.962-.525-.979.029-.361-.086-.045-.422-.248-.677-.132-.062-.57.539-.968.354-.007.881-1.051.88-1.637.93-.148.495.503.475.024.814-.551.147-.718-.011-.896-.494-.643.346-.5.732-.685 1.13.234.188.561.179.737.663-.927.614-1.167 1.308-2.466 1.509-.098.035-.23-.026-.292.107.138.224.307.382.53.245.142.387-.585.05-.275.595l.127-.101c.229.025.402.347.539.57-.189.234-.051.459-.373.632-.138-.225-.269-.286-.469-.379-.023.23-.184.397-.474.504-.361-.087-.219.301-.703.478-.071-.192-.126-.942.337-.728l.225-.137c-.208-.417-.596-.276-.861-.398.083-.524.175-.724-.395-1.229l1.105-.131c.439-.601 1.208-1.048 1.779-1.587.291-.105.841-.253.862-.645-.306-.384-.692-.241-.876.156-.143-.388.505-.57-.157-.877-.265-.123-1.117.85-1.65.441-.353.238.049.585-.566.702-.164.005-.47-.378-.641-.699.353-.235.741-.376 1.045.005zm-1.993 1.005c.292-.105.463.215.724.175.143.387-.325.01-.447.274l-.277-.449zm-3.896 3.903c.337-.729.968-.355 1.452-.533l.077-.687c1.467-.044 1.728-1.129 2.92-.576-.444.437-.628.834-1.214.884l-.102-.128-.036-.096c-.59-.114-.245.528-.235.854-.546.311-.882-.008-1.336.104.022.654-1.237 1.115-1.526.178zm.465 5.76c.33.153-.394 1.023-1.014.977l-.068-.031-.03.065c-.102-.127-.107-.289-.239-.351l.479-.341c-.111-.454.301.219.402.347.284-.27.276-.596-.03-.979.265.122.631.373 1.019.231l-.03.066c-.098.034-.093.197-.026.229-.229-.024-.107-.288-.463-.213zm1.914-2.569c-.215.464-.444.438-.929.615-.347.402-.611.279-.876.157-.158.167.011.325.111.453-.387.142-.185.397-.571.539-.393-.021-.798-.531-1.323-.613.295.056 1.021-.814 1.417-.63.092-.198.144-.656.29-.105.387-.143-.208-.419.276-.596-.229-.026-.469-.378-.708-.73.292-.106.124-.265-.015-.488.688.077 1.091-.62 1.735-.966-.084.525.079.52.446.771-.229-.026-.668.574-.876.156-.48.341-.501.732-.589 1.094.071.193.775-.283.378-.468.356-.076.085.683.591.112.005.164.01.326.137.226.163-.005.295.056.454-.112 1.159-.59 1.101.751.052.585zm3.056 2.943c-.826.742-.949 1.008-1.907 1.689a3.54 3.54 0 0 1-.869-.725c-.388.143-.184.396-.572.539.469.377.256-.204.577-.377.396.184-.21.626.243.515-.116.429-.815.024-1.17.102-.215-.581.886-.875.903-1.431l.596-.768c-.406-.51-.835.416-1.313-.287.387-.142-.045-.423.373-.631.428.117.177.484.539.57.062-.132-.076-.356-.111-.453.454-.111.901-.386 1.33-.268.045.423-.531.799-.716 1.195.576.669 1.31.125 2.063.232l.097-.035c-.05-.586.489-.015.644-.346.024-.229.314-.336.553.017-.354.075-.535.636-.214.463-.053.459-.785-.043-1.046-.001zm-1.161 3.721c.418-.208.18-.559.694-.803.069.192.238.352.27.285.075.356-.145.656-.231 1.02-.255.202-.463-.216-.733-.502z"/><path d="M781.314 25.46c.017.013.04.022.06.033l.006-.003-.066-.03zm.933.477a.723.723 0 0 0 .034.212.245.245 0 0 0-.034-.212zm8.043-.418c.01.02.022.033.033.053l.031-.022-.064-.031zM745.879 21.1c.098-.035-.8.514-1.069.229l-.225.138c.239.351.494.147.846-.092.106.291.238.353.464.216.423-.048.332-.893-.016-.491zm-1.998.844c.178.483.922.266.846-.091-.132-.062-.291.105-.392-.021-.127.101-.228-.027-.454.112zm.508 1.68c-.062.133.133.062.202.256.043-.036.085-.069.128-.103.194-.07.326-.01.464.215.611-.279-.122-.779.327-1.054-.427-.117-.434.764-1.121.686zM760.861-.654c.581-.266 1.428.596 1.773.113.006-.229.216-.417.3-.598a2.7 2.7 0 0 1-1.477-.283c-.051.459-.571.539-.596.768zm-5.717-8.998c-.009.005-.021.004-.031.007v.059l.031-.066zm8.508 8.525c.355-.077.524.081.877-.157l.031-.066.381-.305c-.493-.148-1.11-.032-1.813.445.08.519.418-.209.524.083zm-.963.517c-.016.033-.037.045-.055.069 0 .021-.009.042-.007.063l.062-.132zm11.533 31.142c.184-.397.892-.712.812-1.23-.128.101-.325.01-.397-.185-.387.142-.25.367-.57.539.528.246.176.485.155.876zm30.471 5.358a5.328 5.328 0 0 0 4.442.129c2.275.813 4.945-.441 7.258.468 1.579-.634 2.999-.055 4.554-.461.469-.667 1.161-.427 1.869-.741 1.849.695 4.019.174 6.011.213-.07-.194-.009-.326.052-.459-.429-.117-.999.422-1.345-.222.387-.142.779-.121 1.105-.129-.533-.409-1.304.037-1.96-.105l-.062.132c-.383.305-.709.315-1.029.488-.071-.194.021-.393-.239-.352-.052.458-.876.155-1.183-.227-.232-.188-.717-.011-1.078-.098-.129.101-.255.203-.388.142-.993.585-1.767-.176-2.669.21.137.225.521-.08.661.307-.576.376-.891-.333-1.553.405l-.037-.097c-.55.147-1.064.391-1.405-.089.423-.045.938-.289 1.3-.201.295.056.642-.346.906-.224-.203-.255-.524-.082-.692-.239-4.723.303-9.393.148-14.15.355-.28.433-.678.249-.368.795zm11.771-.254a7.948 7.948 0 0 1-2.739.017c.632-.672 1.945-.385 2.739-.017zm-4.899-.181c-.47.668-1.651.441-2.283.068.805-.349 1.529-.175 2.283-.068z"/><path d="m748.986-17.006.132.061a35.59 35.59 0 0 1 7.034 10.493c.642.699.758 1.316 1.235 2.02-.057.295.381.738.619 1.091.066.03.203.254.265.122-.102-.127-.01-.326-.213-.581.423-.045.971.852 1.017 1.275-.128.101-.229-.026-.326.009-.096.036-.158.169-.025.23l.139.224a.659.659 0 0 1 .396.184c.448-.273.794.368 1.299-.201.016-.555-1.14-1.01-1.093-1.632a14.386 14.386 0 0 1-1.773-2.589c-.271-.286-.474-.541-.447-.77-.769-.597-.467-1.421-.68-2.003-1.451-3.807-5.042-7.158-7.646-10.212l-.462-.214c-.688-.078-.175.723-.328 1.053-.018.554.965.687.857 1.44zm7.655 10.54c.224-.137.422-.044.731.5-.386.142-.723-.175-.997-.624-.039-.257.196-.07.266.124zm-1.528-3.178c.011-.003.022-.002.031-.007l-.031.066v-.059c-.239.087-.758-.387-.61-.706.52-.295.621.308.61.706zm-2.932-5.237c-.062.132-.596-.276-.388.141-.193.072-.264-.122-.366-.25.215-.462.806-.35.754.109zm-9.892 29.333c-.656-.143-1.273-.026-1.936-.334-1.101.295-1.492.273-2.323.853 1.151.292 2.291.258 3.417.779.127-.102.229.025.289-.106-.085-.684-.859-.398-1.384-.481.021-.392.453-.111.275-.595.612-.279.994.459 1.662-.116zm-2.624.635-.276-.45c.251-.365.922.266.276.45zm4.469 1.105c.133.062.265.123.326-.01.347-.401.678-.248.968-.355.603-.604.695-1.848-.249-.677l-.131-.062c-.347.401-.612.278-.943.125-.188.234-.291.107-.484.179-.219.302.468.377.513.8zm59.646-4.355A492.575 492.575 0 0 1 823.153.558L822.984.4c-.52.081-1.121.686-1.621.374-.32.173-.646.183-.977.029-.99.747-1.683.507-2.371 1.474l.097-.035c.901-.386 2.464-1.672 2.905-1.065-1.127.523-2.31 1.341-3.282 1.533.062-.132-.04-.26.185-.396-2.713.994-5.715 3.14-8.382 4.557.203.254-.479.341-.57.539.106.29.453-.111.591.112.5-.732 1.326-1.475 2.273-1.438.734-.544 2.219-2.188 3.344-1.666-2.003.68-4.485 2.744-6.773 3.693-.139-.225-.011-.326-.016-.489-.22.3-.846.091-.734.544.198.092.366.25.651-.02-.117.428-1.106 1.175-1.381.727.062-.133.255-.203.153-.331-.52.081-1.219.722-1.794 1.098.101.127.354-.076.488-.014.08.519-.409.533-.826.742-.138-.226.316-.337.112-.591-.638.508-.908 1.267-1.692 1.225-.193.071-.092.198-.315.336l.202.255c.194-.073.362.086.529.244zm13.597-9.052-.03.066c.34.479-.669.574-.826.742-.243-.514.791-.839.856-.808zm-10.551 6.122c.106.291-.607.442-.729.707-.439-.443.504-.569.729-.707z"/></g><path opacity=".21" fill="#50C2C8" d="M317.178 37.622c4.514-1.684 9.473-2.613 14.678-2.613 10.069 0 19.21 3.486 25.987 9.162 6.854-8.523 18.101-14.09 30.826-14.09 15.78 0 27.929 5.948 33.597 18.101l8.43-.001c.379 0 1.026-.026 1.398 0 4.102-14.557 18.701-24.449 36.424-24.449 15.213 0 28.32 7.953 34.321 19.412a10.244 10.244 0 0 1 3.495-.609c1.099 0 2.148.178 3.127.491 2.493-2.663 6.257-4.358 10.472-4.358 6.031 0 11.138 3.477 12.919 8.287 6.652-5.156 15.387-10.696 24.927-10.696 12.725 0 24.396 3.399 31.25 11.924 6.776-5.677 13.438-7.026 23.5-7.341 8-.25 12.667 2.917 16.708 5.367 1.618-17.16 17.86-30.645 37.674-30.645 16.648 0 30.771 9.523 35.822 22.743a14.975 14.975 0 0 1 6.164-1.316c3.122 0 5.989.94 8.285 2.505 2.19-10.8 12.841-19.003 25.678-19.003 13.934 0 26.771 7.282 27.524 19.443 5.154-2.329 10.874-3.449 17.061-3.449 7.789 0 13.657 4.267 19.675 7.838 1.671-2.095 4.423-3.468 7.541-3.468 1.234 0 2.408.219 3.486.607 3.447-8.801 12.716-15.193 23.743-15.527v22.244H0V23.069c6.903-6.558 16.741-10.661 27.668-10.661.49 0 .978.01 1.464.025.023.029.049.057.071.086.046-.027.092-.051.137-.078 15.917.613 29.271 9.932 34.152 22.708a14.98 14.98 0 0 1 6.166-1.315c3.121 0 5.989.939 8.284 2.506 2.188-10.803 12.838-19.004 25.677-19.004 11.425 0 21.11 6.501 24.652 15.543a10.223 10.223 0 0 1 3.483-.607c3.12 0 5.87 1.373 7.542 3.469 6.017-3.573 13.255-5.658 21.046-5.658 6.188 0 12.021 1.322 17.177 3.654.751-12.164 12.103-21.825 26.041-21.828 15.13-.004 24.384 10.305 25.676 19.003 2.295-1.565 5.164-2.506 8.286-2.506 2.222 0 4.312.48 6.163 1.317 5.049-13.221 19.173-22.742 35.822-22.742 2.332 0 4.612.193 6.828.551 6.521 1.193 12.43 3.872 17.254 7.628.048-.133.109-.259.162-.39 7.526 5.573 12.564 13.686 13.427 22.852z"/></svg>