<svg xmlns="http://www.w3.org/2000/svg" width="841.89" height="58.591" viewBox="0 -10.409 841.89 58.591" xml:space="preserve"><path fill="#52BCC4" d="M841.89 48.182V14.706c-2.269-1.94-4.047-2.035-7.024-1.813-2.396.153-4.638 1.099-6.454 2.517l.007.1h.002c-2.9-5.524-9.732-7.653-15.257-4.753a11.295 11.295 0 0 0-4.512 4.316 11.398 11.398 0 0 0-6.715-1.574c-1.896.121-3.565.629-5.112 1.528-.583-5.974-5.778-10.451-11.967-10.055-3.592.23-6.677 2.131-8.607 4.86a31.399 31.399 0 0 0-29.253-15.563 31.305 31.305 0 0 0-28.399 22.861 11.401 11.401 0 0 0-5.072-.978c-2.692.172-4.933 1.218-6.838 2.743-2.624-10.03-12.03-16.76-22.368-16.003-9.481.606-17.081 7.106-19.443 15.574a7.796 7.796 0 0 0-3.033-.407 7.69 7.69 0 0 0-5.981 3.59c-5.201-2.974-11.311-4.487-17.798-4.071a31.807 31.807 0 0 0-13.96 4.201c-1.307-11.039-11.259-19.321-22.833-18.58-10.393.522-18.918 8.412-20.244 18.732a11.398 11.398 0 0 0-7.133-1.849c-1.797.114-3.462.722-4.907 1.617a31.3 31.3 0 0 0-31.08-19.053c-16.141.863-28.908 13.98-29.337 30.137a31.764 31.764 0 0 0-12.328-1.617c-8.38.538-15.762 4.216-21.019 9.764-6.188-7.42-15.8-12.016-26.379-11.338-12.605.763-22.604 6.68-26.798 18.593-1.818-.93-8.224 0-8.224 0-4.505-13.487-17.124-21.084-31.314-20.158a31.399 31.399 0 0 0-27.292 19.784l486.672.371z"/></svg>