<svg xmlns="http://www.w3.org/2000/svg" width="841.89" height="48.182" xml:space="preserve"><path fill="#96D2CA" d="M7.945 29.122A11.353 11.353 0 0 0 0 32.335v15.849h841.89V13.853a31.886 31.886 0 0 0-7.779-.975c-13.816 0-25.539 8.75-29.732 20.895a11.415 11.415 0 0 0-5.117-1.209c-2.59 0-4.971.865-6.875 2.304-1.818-9.925-10.66-17.464-21.313-17.464-9.482 0-17.521 5.975-20.461 14.283a7.795 7.795 0 0 0-2.895-.557 7.697 7.697 0 0 0-6.26 3.186c-4.992-3.28-11.002-5.198-17.467-5.198a31.775 31.775 0 0 0-14.256 3.356c-.623-11.176-10.047-20.059-21.611-20.059-10.654 0-19.494 7.538-21.313 17.463a11.356 11.356 0 0 0-6.875-2.303c-1.844 0-3.578.44-5.115 1.21-4.191-12.147-15.914-20.897-29.73-20.897-16.447 0-29.928 12.389-31.27 28.158a31.837 31.837 0 0 0-12.182-2.402c-8.355 0-15.941 3.205-21.566 8.42-5.689-7.832-15.023-12.945-25.586-12.945-7.916 0-15.143 2.877-20.664 7.613-1.479-4.42-5.717-7.613-10.723-7.613-3.498 0-6.621 1.56-8.691 4.005a7.801 7.801 0 0 0-2.596-.45 7.785 7.785 0 0 0-2.898.56c-4.98-10.529-15.859-17.839-28.486-17.839-14.709 0-27.049 9.912-30.451 23.288a12.117 12.117 0 0 0-.936-.046c-2.15 0-4.154.6-5.865 1.622-4.704-11.167-15.922-19.028-29.02-19.028-10.563 0-19.897 5.115-25.586 12.947-5.625-5.215-13.211-8.42-21.566-8.42-4.323 0-8.438.854-12.184 2.401C333.479 12.391 319.998 0 303.555 0c-13.818 0-25.541 8.749-29.73 20.896a11.394 11.394 0 0 0-5.115-1.21c-2.592 0-4.973.865-6.877 2.304-1.817-9.927-10.657-17.464-21.311-17.464-11.568 0-20.99 8.882-21.613 20.061a31.75 31.75 0 0 0-14.256-3.357c-6.467 0-12.475 1.916-17.469 5.199a7.696 7.696 0 0 0-6.26-3.188 7.733 7.733 0 0 0-2.891.56c-2.944-8.308-10.983-14.283-20.465-14.283-10.657 0-19.495 7.537-21.311 17.463a11.372 11.372 0 0 0-6.877-2.303c-1.844 0-3.58.44-5.117 1.209C120.075 13.74 108.348 4.99 94.534 4.99c-12.432 0-23.166 7.076-28.25 17.34a11.342 11.342 0 0 0-8.896-4.268c-6.144 0-11.13 4.812-11.275 10.795a11.433 11.433 0 0 0-5.26-1.276c-2.437 0-4.687.765-6.533 2.052a11.33 11.33 0 0 0-9.408-4.953c-4.605 0-8.56 2.706-10.314 6.581a11.38 11.38 0 0 0-6.653-2.139z"/></svg>