<svg xmlns="http://www.w3.org/2000/svg" xmlns:xlink="http://www.w3.org/1999/xlink" width="841.89" height="595.281" xml:space="preserve"><path fill="#52BCC4" d="M827.292 59.911c-1.754-3.875-5.709-6.581-10.314-6.581a11.33 11.33 0 0 0-9.408 4.953 11.384 11.384 0 0 0-6.533-2.051c-1.902 0-3.689.465-5.26 1.277-.145-5.984-5.131-10.795-11.275-10.795-3.617 0-6.83 1.674-8.896 4.267-5.084-10.263-15.818-17.34-28.25-17.34-13.814 0-25.541 8.749-29.729 20.897a11.415 11.415 0 0 0-5.117-1.209c-2.592 0-4.971.864-6.877 2.303-1.816-9.926-10.654-17.463-21.311-17.463-9.482 0-17.521 5.975-20.465 14.283a7.752 7.752 0 0 0-2.891-.559 7.693 7.693 0 0 0-6.26 3.188c-4.994-3.283-11.002-5.199-17.469-5.199a31.762 31.762 0 0 0-14.256 3.357c-.623-11.178-10.045-20.059-21.613-20.059-10.654 0-19.494 7.537-21.311 17.463a11.374 11.374 0 0 0-6.877-2.303c-1.844 0-3.578.441-5.115 1.21-4.189-12.148-15.912-20.897-29.73-20.897-16.443 0-29.924 12.39-31.266 28.158a31.847 31.847 0 0 0-12.184-2.402c-8.355 0-15.941 3.205-21.566 8.42-5.689-7.832-15.023-12.947-25.586-12.947-13.098 0-24.316 7.861-29.021 19.028a11.4 11.4 0 0 0-5.865-1.622c-.314 0-.625.021-.935.046-3.403-13.376-15.743-23.288-30.451-23.288-12.627 0-23.506 7.309-28.487 17.839a7.79 7.79 0 0 0-2.899-.56c-.912 0-1.783.164-2.596.451a11.353 11.353 0 0 0-8.691-4.005c-5.006 0-9.244 3.194-10.723 7.614-5.521-4.737-12.748-7.614-20.664-7.614-10.562 0-19.896 5.114-25.586 12.947-5.625-5.216-13.211-8.42-21.566-8.42-4.32 0-8.437.855-12.182 2.401-1.342-15.768-14.823-28.158-31.268-28.158-13.817 0-25.54 8.75-29.731 20.898a11.415 11.415 0 0 0-5.116-1.21c-2.591 0-4.971.864-6.876 2.302-1.817-9.924-10.658-17.462-21.312-17.462-11.564 0-20.987 8.882-21.611 20.058a31.775 31.775 0 0 0-14.256-3.357c-6.465 0-12.474 1.918-17.467 5.2a7.693 7.693 0 0 0-6.259-3.187c-1.024 0-2 .2-2.893.557-2.94-8.308-10.979-14.283-20.461-14.283-10.654 0-19.494 7.539-21.312 17.463a11.42 11.42 0 0 0-11.993-1.093C33.321 50.281 21.598 41.531 7.781 41.531c-2.689 0-5.291.351-7.781.975v538.749h841.89V60.986a11.35 11.35 0 0 0-7.945-3.213c-2.49 0-4.785.799-6.653 2.138z"/><path fill="#6FC3C6" d="M809.025 100.27a12.386 12.386 0 0 0-5.121-1.098c-2.594 0-4.973.785-6.879 2.09-1.818-9.009-10.66-15.85-21.322-15.85-9.484 0-17.525 5.423-20.469 12.964a8.458 8.458 0 0 0-2.893-.507c-2.592 0-4.875 1.145-6.262 2.893-4.996-2.98-11.008-4.719-17.479-4.719-5.137 0-9.979 1.104-14.264 3.047-.623-10.145-10.051-18.206-21.621-18.206-10.658 0-19.502 6.842-21.316 15.85-1.904-1.305-4.285-2.09-6.881-2.09-1.844 0-3.58.401-5.119 1.098-4.193-11.026-15.92-18.967-29.74-18.967-16.453 0-29.939 11.244-31.283 25.558-3.748-1.404-7.865-2.181-12.186-2.181-8.359 0-15.949 2.909-21.576 7.643-5.691-7.109-15.031-11.752-25.602-11.752-7.918 0-15.146 2.611-20.67 6.91-1.479-4.011-5.721-6.91-10.729-6.91-3.498 0-6.625 1.415-8.697 3.634a8.493 8.493 0 0 0-5.496.099c-4.98-9.558-15.867-16.19-28.498-16.19-14.719 0-27.063 8.996-30.465 21.137a12.598 12.598 0 0 0-.938-.042c-2.15 0-4.154.545-5.869 1.473-4.703-10.135-15.928-17.272-29.031-17.272-10.566 0-19.906 4.643-25.598 11.752-5.626-4.734-13.216-7.643-21.576-7.643-4.322 0-8.439.777-12.187 2.18-1.343-14.312-14.828-25.558-31.281-25.558-13.823 0-25.55 7.942-29.743 18.968a12.387 12.387 0 0 0-5.119-1.099c-2.592 0-4.972.786-6.879 2.09-1.819-9.007-10.663-15.85-21.32-15.85-11.572 0-20.997 8.063-21.621 18.206-4.281-1.943-9.126-3.047-14.263-3.047-6.47 0-12.479 1.741-17.476 4.72-1.386-1.748-3.672-2.892-6.262-2.892-1.025 0-2 .182-2.894.505-2.94-7.542-10.982-12.964-20.469-12.964-10.66 0-19.503 6.843-21.32 15.85-1.906-1.305-4.288-2.09-6.88-2.09-1.846 0-3.581.401-5.119 1.099-4.193-11.026-15.921-18.968-29.745-18.968-12.434 0-23.178 6.422-28.264 15.738-2.066-2.354-5.279-3.872-8.899-3.872-6.147 0-11.136 4.366-11.28 9.797a12.366 12.366 0 0 0-5.262-1.16c-2.439 0-4.69.694-6.536 1.861-2.021-2.707-5.481-4.496-9.413-4.496-4.608 0-8.565 2.457-10.32 5.974-1.867-1.214-4.164-1.941-6.656-1.941-4.976 0-9.192 2.865-10.695 6.838-.199-.01-.396-.027-.597-.027-.323 0-.64.019-.955.042v492.386h841.89V81.44a35.67 35.67 0 0 0-3.121-.139c-13.814 0-25.541 7.942-29.734 18.969z"/><path fill="#98D1CA" d="M827.292 124.396c-1.756-3.5-5.709-5.944-10.314-5.944-3.932 0-7.387 1.778-9.408 4.474-1.846-1.163-4.096-1.853-6.533-1.853-1.902 0-3.689.42-5.26 1.154-.145-5.405-5.131-9.75-11.275-9.75-3.617 0-6.83 1.512-8.896 3.854-5.084-9.269-15.818-15.662-28.25-15.662-13.814 0-25.541 7.902-29.729 18.875a12.435 12.435 0 0 0-5.117-1.092c-2.592 0-4.973.78-6.877 2.08-1.816-8.965-10.654-15.772-21.311-15.772-9.482 0-17.521 5.396-20.465 12.9a8.47 8.47 0 0 0-2.891-.504c-2.59 0-4.873 1.14-6.26 2.879-4.994-2.965-11.002-4.696-17.469-4.696-5.135 0-9.977 1.097-14.256 3.032-.623-10.096-10.045-18.117-21.613-18.117-10.654 0-19.494 6.808-21.311 15.772-1.904-1.299-4.285-2.08-6.877-2.08a12.41 12.41 0 0 0-5.115 1.093c-4.189-10.973-15.912-18.875-29.73-18.875-16.443 0-29.924 11.19-31.266 25.433-3.746-1.397-7.861-2.169-12.184-2.169-8.355 0-15.941 2.895-21.566 7.604-5.689-7.074-15.023-11.694-25.586-11.694-13.098 0-24.316 7.101-29.021 17.187a12.336 12.336 0 0 0-5.865-1.465c-.314 0-.625.019-.935.041-3.403-12.081-15.743-21.034-30.452-21.034-12.627 0-23.506 6.601-28.487 16.112a8.51 8.51 0 0 0-5.495-.098c-2.07-2.209-5.194-3.617-8.692-3.617-5.006 0-9.244 2.885-10.723 6.877-5.521-4.279-12.747-6.877-20.664-6.877-10.561 0-19.896 4.619-25.585 11.694-5.625-4.711-13.211-7.605-21.567-7.605-4.32 0-8.436.772-12.181 2.169-1.342-14.242-14.823-25.433-31.268-25.433-13.817 0-25.54 7.903-29.731 18.876a12.434 12.434 0 0 0-5.116-1.093c-2.591 0-4.971.78-6.876 2.079-1.817-8.963-10.658-15.771-21.312-15.771-11.564 0-20.987 8.022-21.611 18.116-4.279-1.934-9.121-3.033-14.256-3.033-6.465 0-12.474 1.732-17.467 4.697-1.387-1.739-3.671-2.878-6.259-2.878-1.024 0-2 .181-2.893.503-2.94-7.503-10.979-12.901-20.461-12.901-10.654 0-19.494 6.81-21.312 15.772-1.905-1.298-4.285-2.08-6.876-2.08-1.844 0-3.579.399-5.117 1.093-4.192-10.972-15.915-18.875-29.731-18.875-2.69 0-5.291.317-7.781.88V595.28h841.89V125.368c-2.037-1.793-4.844-2.902-7.945-2.902-2.489 0-4.784.722-6.652 1.93z"/><defs><path id="a" d="M2.632 108.32a34.872 34.872 0 0 1 6.011-.524c13.816 0 25.539 7.902 29.731 18.875a12.407 12.407 0 0 1 5.117-1.094c2.591 0 4.971.782 6.876 2.08 1.818-8.961 10.658-15.771 21.312-15.771 9.482 0 17.521 5.398 20.461 12.9a8.546 8.546 0 0 1 2.893-.502c2.588 0 4.872 1.139 6.259 2.877 4.993-2.965 11.002-4.696 17.467-4.696 5.135 0 9.977 1.098 14.256 3.032.624-10.094 10.047-18.115 21.611-18.115 10.654 0 19.495 6.808 21.312 15.771 1.905-1.301 4.285-2.08 6.876-2.08 1.844 0 3.578.4 5.116 1.094 4.191-10.974 15.914-18.877 29.731-18.877 16.445 0 29.926 11.191 31.268 25.434 3.745-1.396 7.861-2.169 12.181-2.169 8.356 0 15.942 2.894 21.567 7.604 5.689-7.074 15.024-11.693 25.585-11.693 7.917 0 15.143 2.598 20.664 6.877 1.479-3.992 5.717-6.877 10.723-6.877 3.498 0 6.623 1.408 8.692 3.617a8.51 8.51 0 0 1 5.495.098c4.98-9.51 15.859-16.111 28.486-16.111 14.709 0 27.049 8.952 30.453 21.033.31-.021.622-.041.935-.041 2.151 0 4.153.542 5.864 1.465 4.705-10.086 15.923-17.187 29.021-17.187 10.563 0 19.896 4.62 25.586 11.694 5.625-4.708 13.211-7.604 21.566-7.604 4.322 0 8.438.773 12.184 2.169.678-7.185 4.444-13.593 10.126-18.179l.515-1.825c-1.851-3.29-5.67-5.554-10.092-5.554-3.498 0-6.625 1.416-8.697 3.635a8.493 8.493 0 0 0-2.594-.41 8.48 8.48 0 0 0-2.902.511c-4.98-9.559-15.867-16.19-28.498-16.19-14.719 0-27.063 8.995-30.465 21.137-.311-.021-.619-.042-.938-.042-2.15 0-4.154.545-5.869 1.474-4.703-10.135-15.927-17.271-29.031-17.271-10.567 0-19.907 4.644-25.598 11.752-5.626-4.734-13.217-7.643-21.576-7.643-4.323 0-8.44.776-12.188 2.18-1.342-14.313-14.828-25.559-31.28-25.559-13.823 0-25.55 7.942-29.743 18.969a12.373 12.373 0 0 0-5.119-1.101c-2.592 0-4.972.786-6.879 2.091-1.819-9.006-10.663-15.851-21.32-15.851-11.572 0-20.997 8.063-21.621 18.206-4.281-1.942-9.126-3.047-14.263-3.047-6.47 0-12.479 1.741-17.476 4.72-1.386-1.748-3.672-2.893-6.262-2.893-1.025 0-2 .183-2.894.506-2.94-7.542-10.982-12.965-20.469-12.965-10.66 0-19.503 6.844-21.32 15.851-1.906-1.305-4.288-2.09-6.88-2.09a12.38 12.38 0 0 0-5.119 1.099c-4.193-11.025-15.921-18.968-29.745-18.968-12.434 0-23.178 6.423-28.264 15.738-2.066-2.354-5.279-3.872-8.899-3.872-6.147 0-11.136 4.365-11.28 9.797a12.366 12.366 0 0 0-5.262-1.16c-2.439 0-4.69.694-6.536 1.861-2.021-2.707-5.481-4.496-9.413-4.496-4.608 0-8.565 2.457-10.32 5.975-1.867-1.214-4.164-1.94-6.656-1.94-4.976 0-9.192 2.865-10.695 6.838l.223 5.437z"/></defs><clipPath id="b"><use xlink:href="#a" overflow="visible"/></clipPath><path clip-path="url(#b)" fill="none" stroke="#113653" stroke-width="1.726" stroke-linecap="round" stroke-linejoin="round" stroke-miterlimit="10" d="M-.903 89.019c1.235-3.536 3.905-6.004 5.787-7.973 5.413-5.661 10.935-9.579 16.039-16.833 4.775-6.787 9.04-15.342 13.724-22.506 2.23-3.412 4.832-5.633 6.926-9.462-4.638 18.828-13.551 31.24-20.654 44.542-7.152 13.397-13.972 30.643-22.438 39.435 1.168-6.429 7.523-10.745 10.078-13.454 6.414-6.803 12.871-12.947 18.385-23.347 3.622-6.831 8.18-14.998 11.176-23.056-10.592 26.988-24.535 44.037-35.839 69.21 6.422-16.187 18.191-20.457 26.066-32.169 4.405-6.551 7.971-15.295 12.102-22.585-3.062 13.956-11.165 28.08-16.45 38.305-5.193 10.046-10.719 22.194-16.441 30.537 11.275-29.52 31.262-29.181 42.167-59.167-2.501 4.909-4.588 11.11-6.886 16.549-5.686 13.454-12.229 24.379-18.921 35.006-6.734 10.694-13.69 21.393-19.593 34.524 2.717-8.994 4.513-17.591 8.21-25.364 7.815-16.433 18.066-24.283 26.222-39.432 3.744-6.953 6.72-14.946 8.923-24.759.7-3.115 1.09-5.884 2.146-8.4-3.259 16.896-9.024 33.196-14.55 46.432-3.103 7.433-7.366 13.864-10.081 21.886-1.632-25.531 18.03-45.894 25.229-55.157 9.393-12.088 17.963-26.864 27.21-39.321-.603 7.602-3.023 13.844-5.061 19.749-4.83 14.003-10.073 27.746-15.564 40.394-6.916 15.93-15.535 28.743-23.53 41.513.637-22.646 13.189-38.274 20.094-49.862C60.571 82.509 68.779 68.998 72.1 49.783c-6.8 21.786-14.517 40.354-22.731 59.577-5.144 12.038-13.009 24.719-16.213 40.468 1.333-7.466 4.361-13.169 7.029-18.054 8.526-15.61 18.423-26.952 27.104-42.229 5.267-9.27 8.58-18.968 11.882-31.884-5.984 41.24-23.862 63.786-33.023 99.614 1.37-10.931 4.751-19.659 8.073-27.717 7.114-17.256 15.357-32.617 23.562-47.025 3.968-6.968 8.546-13.371 11.253-23.348.891-3.284 1.267-7.555 2.406-10.327-1.02 21.252-10.09 43.328-15.863 58.75-4.081 10.904-8.196 21.755-12.452 32.273-.602-7.145 1.212-11.483 3.137-16.444 4.229-10.898 8.551-21.352 13.011-31.754 3.995-9.316 8.116-18.345 11.731-28.47 1.179-3.301 2.275-7.672 3.701-10.343.778 6.549-2.665 17.213-4.027 22.568-3.612 14.195-9.379 25.379-14.438 36.795-7.529 16.994-15.882 31.992-23.333 49.059 4.136-25.496 16.607-45.377 24.58-64.467C82.427 85 85.367 71.794 89.54 58.866c.734 5.071-.138 12.486-1.166 17.511-2.491 12.183-6.183 23.863-9.139 35.517-2.556 10.076-7.488 20.947-9.131 31.556 6.559-20.067 15.304-32.883 22.965-50.353 4.482-10.223 10.33-22.777 12.542-36.892-2.006 4.476-3.26 12.657-4.613 18.258-4.251 17.593-8.326 35.006-13.789 50.797-4.092 11.831-8.343 26.533-13.351 36.222-1.602-30.096 13.827-53.597 21.793-71.939 3.788-8.723 7.673-17.441 11.188-26.766.939-2.492 2.154-7.552 3.523-8.512-.723 22.201-9.194 39.365-14.543 56.552-2.512 8.071-5.062 15.855-7.783 23.556-1.489 4.215-3.218 11.483-5.022 14.16.152-9.315 2.812-19.419 5.258-26.456 5.319-15.293 12.402-28.718 18.874-41.317 3.974-7.738 8.27-16.321 11.506-25.728-7.448 34.273-19.769 64.712-30.734 93.206.314-8.154 3.54-15.388 5.705-21.127 6.585-17.459 14.685-30.769 21.968-46.55 4.914-10.646 9.573-21.706 13.867-33.584.329 6.903-1.532 16.302-2.659 22.338-4.065 21.764-10.922 41.8-17.123 60.518-3.972 11.991-7.682 24.233-11.293 36.671-3.436-19.248 14.426-45.929 19.259-55.553 5.429-10.811 11.809-22.635 15.883-36.413 1.493-5.05 2.33-10.948 3.992-15.719-3.71 20.645-10.507 37.362-15.949 55.571-2.925 9.787-6.717 25.29-11.26 31.551-1.521-6.594 3.131-18.147 4.5-22.326 5.896-18.001 12.87-34.662 19.76-50.633 6.636-15.381 12.816-30.524 18.712-47.205-.006 8.371-2.757 18.829-4.29 26.019-3.591 16.84-8.175 31.185-12.815 46.415a202.433 202.433 0 0 0-6.418 28.009c1.991-16.948 5.813-29.686 9.793-44.518 2.841-10.586 5.551-21.531 7.957-32.679.875-4.058 1.594-9.71 3.12-12.821.63 20.673-5.449 46.88-9.023 65.083-2.314 11.788-5.304 23.04-8.692 33.293-.135-32.073 17.459-51.714 23.112-78.444-1.08 3.552-1.363 7.261-1.982 11.441-1.882 12.722-4.667 24.813-7.135 36.979-3.829 18.874-10.442 35.913-13.202 55.776.645-21.859 10.428-38.371 16.587-52.552 6.015-13.848 10.731-28.616 15.921-43.854.719 14.892-4.071 35.563-6.909 48.67-3.303 15.255-5.668 32.311-9.117 47.126.797-25.636 9.498-46.973 16.163-65.918 3.644-10.358 5.932-22.655 9.565-32.839-1.316 17.494-6.147 36.425-9.2 52.555-2.024 10.694-3.654 24.69-6.597 34.182-1.381-23.116 11.435-49.979 17.268-65.311 4.206-11.053 7.984-23.294 11.178-35.396-.209 6.797-1.926 14.372-2.824 20.785-1.942 13.88-4.131 28.054-7.286 40.762-2.722 10.96-5.916 21.611-8.772 32.342-1.427-38.295 16.13-62.01 22.211-93.698-.632 19.896-6.487 42.688-10.482 59.974-2.971 12.855-9.487 28.417-9.002 43.932 5.413-42.27 18.637-71.476 28.583-107.663-1.828 28.848-8.744 55.087-13.37 81.84-2.442 14.122-5.266 27.724-7.498 42.033-1.133-26.61 10.014-55.395 16.814-73.914 5.324-14.499 11.193-27.75 14.82-45.026-4.136 21.415-6.876 43.981-11.055 65.449-2.961 15.213-7.471 31.002-8.706 47.713-.53-30.954 7.908-55.752 15.822-78.928 3.635-10.645 9.364-24.709 11.108-37.977 1.37 36.64-7.453 67.789-12.412 100.822-.182-6.349 1.9-13.692 3.264-19.033 3.793-14.856 8.711-27.763 12.791-42.101 2.308-8.111 5.376-18.707 5.965-28.479-2.061 15.31-3.842 30.012-6.639 44.79-2.679 14.152-5.838 27.495-6.428 43.091-.283-33.95 15.156-52.65 19.312-82.588-.408 6.877-2.669 12.905-4.131 18.845-3.056 12.408-5.048 26.004-7.946 38.552-2.169 9.391-3.386 19.336-5.177 29.171"/><path clip-path="url(#b)" fill="none" stroke="#113653" stroke-width="1.726" stroke-linecap="round" stroke-linejoin="round" stroke-miterlimit="10" d="M93.245 89.019c1.235-3.536 3.905-6.004 5.787-7.973 5.413-5.661 10.935-9.579 16.039-16.833 4.775-6.787 9.04-15.342 13.724-22.506 2.23-3.412 4.832-5.633 6.926-9.462-4.638 18.828-13.551 31.24-20.654 44.542-7.153 13.396-13.973 30.643-22.438 39.435 1.168-6.429 7.523-10.745 10.078-13.454 6.414-6.803 12.871-12.947 18.385-23.347 3.622-6.831 8.18-14.998 11.176-23.056-10.592 26.988-24.535 44.037-35.839 69.21 6.422-16.187 18.191-20.457 26.066-32.169 4.405-6.551 7.971-15.295 12.102-22.585-3.062 13.956-11.165 28.08-16.45 38.305-5.193 10.046-10.719 22.194-16.441 30.537 11.275-29.52 31.262-29.181 42.167-59.167-2.501 4.909-4.588 11.11-6.886 16.549-5.686 13.454-12.229 24.379-18.921 35.006-6.734 10.694-13.69 21.393-19.593 34.524 2.717-8.994 4.513-17.591 8.21-25.364 7.815-16.433 18.066-24.283 26.222-39.432 3.744-6.953 6.72-14.946 8.923-24.759.7-3.115 1.09-5.884 2.146-8.4-3.259 16.896-9.024 33.196-14.55 46.432-3.103 7.433-7.366 13.864-10.081 21.886-1.632-25.531 18.03-45.894 25.229-55.157 9.393-12.088 17.963-26.864 27.21-39.321-.603 7.602-3.023 13.844-5.061 19.749-4.831 14.004-10.073 27.746-15.564 40.395-6.916 15.93-15.535 28.743-23.53 41.513.637-22.646 13.189-38.274 20.094-49.862 6.998-11.744 15.206-25.256 18.527-44.471-6.8 21.786-14.517 40.354-22.731 59.577-5.144 12.038-13.009 24.719-16.213 40.468 1.333-7.466 4.361-13.169 7.029-18.054 8.526-15.61 18.423-26.952 27.104-42.229 5.267-9.27 8.58-18.968 11.882-31.884-5.984 41.24-23.862 63.786-33.023 99.614 1.37-10.931 4.751-19.659 8.073-27.717 7.114-17.256 15.357-32.617 23.562-47.025 3.968-6.968 8.546-13.371 11.253-23.348.891-3.284 1.267-7.555 2.406-10.327-1.02 21.252-10.09 43.328-15.863 58.75-4.081 10.904-8.196 21.755-12.452 32.273-.602-7.145 1.212-11.483 3.137-16.444 4.229-10.898 8.551-21.352 13.011-31.754 3.995-9.316 8.116-18.345 11.731-28.47 1.179-3.301 2.275-7.672 3.701-10.343.778 6.549-2.665 17.213-4.027 22.568-3.612 14.195-9.379 25.379-14.438 36.795-7.529 16.994-15.882 31.992-23.333 49.059 4.136-25.496 16.607-45.377 24.58-64.467 4.938-11.825 7.878-25.031 12.051-37.959.734 5.071-.138 12.486-1.166 17.511-2.491 12.183-6.183 23.863-9.139 35.517-2.556 10.076-7.488 20.947-9.131 31.556 6.559-20.067 15.304-32.883 22.965-50.353 4.482-10.223 10.33-22.777 12.542-36.892-2.006 4.476-3.26 12.657-4.613 18.258-4.251 17.593-8.326 35.006-13.789 50.797-4.092 11.831-8.343 26.533-13.351 36.222-1.602-30.096 13.827-53.597 21.793-71.939 3.788-8.723 7.673-17.441 11.188-26.766.939-2.492 2.154-7.552 3.523-8.512-.723 22.201-9.194 39.365-14.543 56.552-2.512 8.071-5.062 15.855-7.783 23.556-1.489 4.215-3.218 11.483-5.022 14.16.152-9.315 2.812-19.419 5.258-26.456 5.319-15.293 12.402-28.718 18.874-41.317 3.974-7.738 8.27-16.321 11.506-25.728-7.448 34.273-19.769 64.712-30.734 93.206.314-8.154 3.54-15.388 5.705-21.127 6.585-17.459 14.685-30.769 21.968-46.55 4.914-10.646 9.573-21.706 13.867-33.584.329 6.903-1.532 16.302-2.659 22.338-4.065 21.764-10.922 41.8-17.123 60.518-3.972 11.991-7.682 24.233-11.293 36.671-3.436-19.248 14.426-45.929 19.259-55.553 5.429-10.811 11.809-22.635 15.883-36.413 1.493-5.05 2.33-10.948 3.992-15.719-3.71 20.645-10.507 37.362-15.949 55.571-2.925 9.787-6.717 25.29-11.26 31.551-1.521-6.594 3.131-18.147 4.5-22.326 5.896-18.001 12.87-34.662 19.76-50.633 6.636-15.381 12.816-30.524 18.712-47.205-.006 8.371-2.757 18.829-4.29 26.019-3.591 16.84-8.175 31.185-12.815 46.415a202.433 202.433 0 0 0-6.418 28.009c1.991-16.948 5.813-29.686 9.793-44.518 2.841-10.586 5.551-21.531 7.957-32.679.875-4.058 1.594-9.71 3.12-12.821.63 20.673-5.449 46.88-9.023 65.083-2.314 11.788-5.304 23.04-8.692 33.293-.135-32.073 17.459-51.714 23.112-78.444-1.08 3.552-1.363 7.261-1.982 11.441-1.882 12.722-4.667 24.813-7.135 36.979-3.829 18.874-10.442 35.913-13.202 55.776.645-21.859 10.428-38.371 16.587-52.552 6.015-13.848 10.731-28.616 15.921-43.854.719 14.892-4.071 35.563-6.909 48.67-3.303 15.255-5.668 32.311-9.117 47.126.797-25.636 9.498-46.973 16.163-65.918 3.644-10.358 5.932-22.655 9.565-32.839-1.316 17.494-6.147 36.425-9.2 52.555-2.024 10.694-3.654 24.69-6.597 34.182-1.381-23.116 11.435-49.979 17.268-65.311 4.206-11.053 7.984-23.294 11.178-35.396-.209 6.797-1.926 14.372-2.824 20.785-1.942 13.88-4.131 28.054-7.286 40.762-2.722 10.96-5.916 21.611-8.772 32.342-1.427-38.295 16.13-62.01 22.211-93.698-.632 19.896-6.487 42.688-10.482 59.974-2.971 12.855-9.487 28.417-9.002 43.932 5.413-42.27 18.637-71.476 28.583-107.663-1.828 28.848-8.744 55.087-13.37 81.84-2.442 14.122-5.266 27.724-7.498 42.033-1.133-26.61 10.014-55.395 16.814-73.914 5.324-14.499 11.193-27.75 14.82-45.026-4.136 21.415-6.876 43.981-11.055 65.449-2.961 15.213-7.471 31.002-8.706 47.713-.53-30.954 7.908-55.752 15.822-78.928 3.635-10.645 9.364-24.709 11.108-37.977 1.37 36.64-7.453 67.789-12.412 100.822-.182-6.349 1.9-13.692 3.264-19.033 3.793-14.856 8.711-27.763 12.791-42.101 2.308-8.111 5.376-18.707 5.965-28.479-2.061 15.31-3.842 30.012-6.639 44.79-2.679 14.152-5.838 27.495-6.428 43.091-.283-33.95 15.156-52.65 19.312-82.588-.408 6.877-2.669 12.905-4.131 18.845-3.056 12.408-5.048 26.004-7.946 38.552-2.169 9.391-3.386 19.336-5.177 29.171"/><path clip-path="url(#b)" fill="none" stroke="#113653" stroke-width="1.726" stroke-linecap="round" stroke-linejoin="round" stroke-miterlimit="10" d="M219.418 94.366c1.235-3.536 3.905-6.004 5.787-7.973 5.413-5.661 10.935-9.579 16.039-16.833 4.775-6.787 9.04-15.342 13.724-22.506 2.23-3.412 4.832-5.633 6.926-9.462-4.638 18.828-13.551 31.24-20.654 44.542-7.153 13.396-13.973 30.643-22.438 39.435 1.168-6.429 7.523-10.745 10.078-13.454 6.414-6.803 12.871-12.947 18.385-23.347 3.622-6.831 8.18-14.998 11.176-23.056-10.592 26.988-24.535 44.037-35.839 69.21 6.422-16.187 18.191-20.457 26.066-32.169 4.405-6.551 7.971-15.295 12.102-22.585-3.062 13.956-11.165 28.08-16.45 38.305-5.193 10.046-10.719 22.194-16.441 30.537 11.275-29.52 31.262-29.181 42.167-59.167-2.501 4.909-4.588 11.11-6.886 16.549-5.686 13.454-12.229 24.379-18.921 35.006-6.734 10.694-13.69 21.393-19.593 34.524 2.717-8.994 4.513-17.591 8.21-25.364 7.815-16.433 18.066-24.283 26.222-39.432 3.744-6.953 6.72-14.946 8.923-24.759.7-3.115 1.09-5.884 2.146-8.4-3.259 16.896-9.024 33.196-14.55 46.432-3.103 7.433-7.366 13.864-10.081 21.886-1.632-25.531 18.03-45.894 25.229-55.157 9.393-12.088 17.963-26.864 27.21-39.321-.603 7.602-3.023 13.844-5.061 19.749-4.831 14.004-10.073 27.746-15.564 40.395-6.916 15.93-15.535 28.743-23.53 41.513.637-22.646 13.189-38.274 20.094-49.862 6.998-11.744 15.206-25.256 18.527-44.471-6.8 21.786-14.517 40.354-22.731 59.577-5.144 12.038-13.009 24.719-16.213 40.468 1.333-7.466 4.361-13.169 7.029-18.054 8.526-15.61 18.423-26.952 27.104-42.229 5.267-9.27 8.58-18.968 11.882-31.884-5.984 41.24-23.862 63.786-33.023 99.614 1.37-10.931 4.751-19.659 8.073-27.717 7.114-17.256 15.357-32.617 23.562-47.025 3.968-6.968 8.546-13.371 11.253-23.348.891-3.284 1.267-7.555 2.406-10.327-1.02 21.252-10.09 43.328-15.863 58.75-4.081 10.904-8.196 21.755-12.452 32.273-.602-7.145 1.212-11.483 3.137-16.444 4.229-10.898 8.551-21.352 13.011-31.754 3.995-9.316 8.116-18.345 11.731-28.47 1.179-3.301 2.275-7.672 3.701-10.343.778 6.549-2.665 17.213-4.027 22.568-3.612 14.195-9.379 25.379-14.438 36.795-7.529 16.994-15.882 31.992-23.333 49.059 4.136-25.496 16.607-45.377 24.58-64.467 4.938-11.825 7.878-25.031 12.051-37.959.734 5.071-.138 12.486-1.166 17.511-2.491 12.183-6.183 23.863-9.139 35.517-2.556 10.076-7.488 20.947-9.131 31.556 6.559-20.067 15.304-32.883 22.965-50.353 4.482-10.223 10.33-22.777 12.542-36.892-2.006 4.476-3.26 12.657-4.613 18.258-4.251 17.593-8.326 35.006-13.789 50.797-4.092 11.831-8.343 26.533-13.351 36.222-1.602-30.096 13.827-53.597 21.793-71.939 3.788-8.723 7.673-17.441 11.188-26.766.939-2.492 2.154-7.552 3.523-8.512-.723 22.201-9.194 39.365-14.543 56.552-2.512 8.071-5.062 15.855-7.783 23.556-1.489 4.215-3.218 11.483-5.022 14.16.152-9.315 2.812-19.419 5.258-26.456 5.319-15.293 12.402-28.718 18.874-41.317 3.974-7.738 8.27-16.321 11.506-25.728-7.448 34.273-19.769 64.712-30.734 93.206.314-8.154 3.54-15.388 5.705-21.127 6.585-17.459 14.685-30.769 21.968-46.55 4.914-10.646 9.573-21.706 13.867-33.584.329 6.903-1.532 16.302-2.659 22.338-4.065 21.764-10.922 41.8-17.123 60.518-3.972 11.991-7.682 24.233-11.293 36.671-3.436-19.248 14.426-45.929 19.259-55.553 5.429-10.811 11.809-22.635 15.883-36.413 1.493-5.05 2.33-10.948 3.992-15.719-3.71 20.645-10.507 37.362-15.949 55.571-2.925 9.787-6.717 25.29-11.26 31.551-1.521-6.594 3.131-18.147 4.5-22.326 5.896-18.001 12.87-34.662 19.76-50.633 6.636-15.381 12.816-30.524 18.712-47.205-.006 8.371-2.757 18.829-4.29 26.019-3.591 16.84-8.175 31.185-12.815 46.415a202.433 202.433 0 0 0-6.418 28.009c1.991-16.948 5.813-29.686 9.793-44.518 2.841-10.586 5.551-21.531 7.957-32.679.875-4.058 1.594-9.71 3.12-12.821.63 20.673-5.449 46.88-9.023 65.083-2.314 11.788-5.304 23.04-8.692 33.293-.135-32.073 17.459-51.714 23.112-78.444-1.08 3.552-1.363 7.261-1.982 11.441-1.882 12.722-4.667 24.813-7.135 36.979-3.829 18.874-10.442 35.913-13.202 55.776.645-21.859 10.428-38.371 16.587-52.552 6.015-13.848 10.731-28.616 15.921-43.854.719 14.892-4.071 35.563-6.909 48.67-3.303 15.255-5.668 32.311-9.117 47.126.797-25.636 9.498-46.973 16.163-65.918 3.644-10.358 5.932-22.655 9.565-32.839-1.316 17.494-6.147 36.425-9.2 52.555-2.024 10.694-3.654 24.69-6.597 34.182-1.381-23.116 11.435-49.979 17.268-65.311 4.206-11.053 7.984-23.294 11.178-35.396-.209 6.797-1.926 14.372-2.824 20.785-1.942 13.88-4.131 28.054-7.286 40.762-2.722 10.96-5.916 21.611-8.772 32.342-1.427-38.295 16.13-62.01 22.211-93.698-.632 19.896-6.487 42.688-10.482 59.974-2.971 12.855-9.487 28.417-9.002 43.932 5.413-42.27 18.637-71.476 28.583-107.663-1.828 28.848-8.744 55.087-13.37 81.84-2.442 14.122-5.266 27.724-7.498 42.033-1.133-26.61 10.014-55.395 16.814-73.914 5.324-14.499 11.193-27.75 14.82-45.026-4.137 21.415-6.877 43.981-11.055 65.449-2.961 15.213-7.471 31.002-8.706 47.713-.53-30.954 7.908-55.752 15.822-78.928 3.635-10.645 9.364-24.709 11.108-37.977 1.369 36.64-7.453 67.789-12.412 100.822-.182-6.349 1.9-13.692 3.264-19.033 3.793-14.856 8.711-27.763 12.791-42.101 2.308-8.111 5.377-18.707 5.965-28.479-2.061 15.31-3.842 30.012-6.639 44.79-2.679 14.152-5.838 27.495-6.428 43.091-.283-33.95 15.155-52.65 19.312-82.588-.407 6.877-2.669 12.905-4.132 18.845-3.055 12.408-5.047 26.004-7.945 38.552-2.169 9.391-3.386 19.336-5.177 29.171"/><path clip-path="url(#b)" fill="none" stroke="#113653" stroke-width="1.726" stroke-linecap="round" stroke-linejoin="round" stroke-miterlimit="10" d="M282.888 103.001c1.235-3.536 3.905-6.004 5.787-7.973 5.413-5.661 10.935-9.579 16.039-16.833 4.775-6.787 9.04-15.342 13.724-22.506 2.23-3.412 4.832-5.633 6.926-9.462-4.638 18.828-13.551 31.24-20.654 44.542-7.153 13.396-13.973 30.643-22.438 39.435 1.168-6.429 7.523-10.745 10.078-13.454 6.414-6.803 12.871-12.947 18.385-23.347 3.622-6.831 8.18-14.998 11.176-23.056-10.592 26.988-24.535 44.037-35.839 69.21 6.422-16.187 18.191-20.457 26.066-32.169 4.405-6.551 7.971-15.295 12.102-22.585-3.062 13.956-11.165 28.08-16.45 38.305-5.193 10.046-10.719 22.194-16.441 30.537 11.275-29.52 31.262-29.181 42.167-59.167-2.501 4.909-4.588 11.11-6.886 16.549-5.686 13.454-12.229 24.379-18.921 35.006-6.734 10.694-13.69 21.393-19.593 34.524 2.717-8.994 4.513-17.591 8.21-25.364 7.815-16.433 18.066-24.283 26.222-39.432 3.744-6.953 6.72-14.946 8.923-24.759.7-3.115 1.09-5.884 2.146-8.4-3.259 16.896-9.024 33.196-14.55 46.432-3.103 7.433-7.366 13.864-10.081 21.886-1.632-25.531 18.03-45.894 25.229-55.157 9.393-12.088 17.963-26.864 27.21-39.321-.603 7.602-3.023 13.844-5.061 19.749-4.831 14.004-10.073 27.746-15.564 40.395-6.916 15.93-15.535 28.743-23.53 41.513.637-22.646 13.189-38.274 20.094-49.862 6.998-11.744 15.206-25.256 18.527-44.471-6.8 21.786-14.517 40.354-22.731 59.577-5.144 12.038-13.009 24.719-16.213 40.468 1.333-7.466 4.361-13.169 7.029-18.054 8.526-15.61 18.423-26.952 27.104-42.229 5.267-9.27 8.58-18.968 11.882-31.884-5.984 41.24-23.862 63.786-33.023 99.614 1.37-10.931 4.751-19.659 8.073-27.717 7.114-17.256 15.357-32.617 23.562-47.025 3.968-6.968 8.546-13.371 11.253-23.348.891-3.284 1.267-7.555 2.406-10.327-1.02 21.252-10.09 43.328-15.863 58.75-4.081 10.904-8.196 21.755-12.452 32.273-.602-7.145 1.212-11.483 3.137-16.444 4.229-10.898 8.551-21.352 13.011-31.754 3.995-9.316 8.116-18.345 11.731-28.47 1.179-3.301 2.275-7.672 3.701-10.343.778 6.549-2.665 17.213-4.027 22.568-3.612 14.195-9.379 25.379-14.438 36.795-7.529 16.994-15.882 31.992-23.333 49.059 4.136-25.496 16.607-45.377 24.58-64.467 4.938-11.825 7.878-25.031 12.051-37.959.734 5.071-.138 12.486-1.166 17.511-2.491 12.183-6.183 23.863-9.139 35.517-2.556 10.076-7.488 20.947-9.131 31.556 6.559-20.067 15.304-32.883 22.965-50.353 4.482-10.223 10.33-22.777 12.542-36.892-2.006 4.476-3.26 12.657-4.613 18.258-4.251 17.593-8.326 35.006-13.789 50.797-4.092 11.831-8.343 26.533-13.351 36.222-1.602-30.096 13.827-53.597 21.793-71.939 3.788-8.723 7.673-17.441 11.188-26.766.939-2.492 2.154-7.552 3.523-8.512-.723 22.201-9.194 39.365-14.543 56.552-2.512 8.071-5.062 15.855-7.783 23.556-1.489 4.215-3.218 11.483-5.022 14.16.152-9.315 2.812-19.419 5.258-26.456 5.319-15.293 12.402-28.718 18.874-41.317 3.974-7.738 8.27-16.321 11.506-25.728-7.448 34.273-19.769 64.712-30.734 93.206.314-8.154 3.54-15.388 5.705-21.127 6.585-17.459 14.685-30.769 21.968-46.55 4.914-10.646 9.573-21.706 13.867-33.584.329 6.903-1.532 16.302-2.659 22.338-4.065 21.764-10.922 41.8-17.123 60.518-3.972 11.991-7.682 24.233-11.293 36.671-3.436-19.248 14.426-45.929 19.259-55.553 5.429-10.811 11.809-22.635 15.883-36.413 1.493-5.05 2.33-10.948 3.992-15.719-3.71 20.645-10.507 37.362-15.949 55.571-2.925 9.787-6.717 25.29-11.26 31.551-1.521-6.594 3.131-18.147 4.5-22.326 5.896-18.001 12.87-34.662 19.76-50.633 6.637-15.381 12.816-30.524 18.712-47.205-.007 8.371-2.757 18.829-4.29 26.019-3.59 16.84-8.175 31.185-12.814 46.415a202.433 202.433 0 0 0-6.418 28.009c1.991-16.948 5.813-29.686 9.793-44.518 2.841-10.586 5.551-21.531 7.957-32.679.875-4.058 1.594-9.71 3.119-12.821.631 20.673-5.448 46.88-9.023 65.083-2.314 11.788-5.303 23.04-8.692 33.293-.135-32.073 17.459-51.714 23.112-78.444-1.08 3.552-1.363 7.261-1.981 11.441-1.882 12.722-4.667 24.813-7.135 36.979-3.829 18.874-10.442 35.913-13.202 55.776.645-21.859 10.428-38.371 16.588-52.552 6.015-13.848 10.73-28.616 15.92-43.854.72 14.892-4.07 35.563-6.908 48.67-3.303 15.255-5.668 32.311-9.117 47.126.797-25.636 9.498-46.973 16.163-65.918 3.644-10.358 5.933-22.655 9.565-32.839-1.316 17.494-6.147 36.425-9.2 52.555-2.024 10.694-3.654 24.69-6.597 34.182-1.382-23.116 11.434-49.979 17.268-65.311 4.205-11.053 7.984-23.294 11.178-35.396-.209 6.797-1.926 14.372-2.824 20.785-1.941 13.88-4.131 28.054-7.285 40.762-2.722 10.96-5.916 21.611-8.771 32.342-1.428-38.295 16.129-62.01 22.211-93.698-.633 19.896-6.488 42.688-10.482 59.974-2.971 12.855-9.488 28.417-9.003 43.932 5.413-42.27 18.638-71.476 28.583-107.663-1.828 28.848-8.744 55.087-13.37 81.84-2.442 14.122-5.266 27.724-7.498 42.033-1.134-26.61 10.015-55.395 16.814-73.914 5.323-14.499 11.193-27.75 14.819-45.026-4.135 21.415-6.875 43.981-11.055 65.449-2.961 15.213-7.471 31.002-8.705 47.713-.529-30.954 7.908-55.752 15.822-78.928 3.635-10.645 9.364-24.709 11.107-37.977 1.371 36.64-7.453 67.789-12.411 100.822-.182-6.349 1.899-13.692 3.264-19.033 3.793-14.856 8.712-27.763 12.791-42.101 2.308-8.111 5.376-18.707 5.966-28.479-2.061 15.31-3.842 30.012-6.64 44.79-2.679 14.152-5.839 27.495-6.429 43.091-.282-33.95 15.156-52.65 19.313-82.588-.408 6.877-2.669 12.905-4.131 18.845-3.057 12.408-5.049 26.004-7.946 38.552-2.169 9.391-3.386 19.336-5.177 29.171"/><g><defs><path id="c" d="M840.822 81.729a35.225 35.225 0 0 0-2.463-.087c-13.816 0-25.545 7.943-29.736 18.969a12.386 12.386 0 0 0-5.121-1.098c-2.596 0-4.975.784-6.879 2.09-1.818-9.009-10.66-15.851-21.322-15.851-9.486 0-17.527 5.424-20.469 12.965a8.479 8.479 0 0 0-2.895-.508c-2.566 0-4.826 1.125-6.217 2.845l1.229-.04c12.432 0 23.166 6.392 28.25 15.662 2.066-2.341 5.279-3.854 8.896-3.854 6.145 0 11.131 4.346 11.275 9.75a12.433 12.433 0 0 1 5.26-1.152c2.438 0 4.688.689 6.533 1.853 2.021-2.697 5.477-4.474 9.408-4.474 4.605 0 8.559 2.442 10.314 5.942 1.867-1.209 4.162-1.93 6.652-1.93 2.744 0 5.258.868 7.211 2.312l.074-43.394z"/></defs><clipPath id="d"><use xlink:href="#c" overflow="visible"/></clipPath><path clip-path="url(#d)" fill="none" stroke="#113653" stroke-width="1.726" stroke-linecap="round" stroke-linejoin="round" stroke-miterlimit="10" d="M697.873 81.754c1.235-3.536 3.906-6.004 5.787-7.973 5.413-5.661 10.936-9.579 16.039-16.833 4.775-6.787 9.041-15.342 13.725-22.506 2.23-3.412 4.832-5.633 6.926-9.462-4.638 18.828-13.551 31.24-20.654 44.542-7.152 13.396-13.973 30.643-22.438 39.435 1.168-6.429 7.522-10.745 10.078-13.454 6.413-6.803 12.87-12.947 18.385-23.347 3.622-6.831 8.18-14.998 11.176-23.056-10.592 26.988-24.535 44.037-35.839 69.21 6.422-16.187 18.191-20.457 26.065-32.169 4.405-6.551 7.972-15.295 12.102-22.585-3.061 13.956-11.164 28.08-16.449 38.305-5.193 10.046-10.72 22.194-16.441 30.537 11.274-29.52 31.262-29.181 42.167-59.167-2.501 4.909-4.588 11.11-6.886 16.549-5.686 13.454-12.229 24.379-18.922 35.006-6.734 10.694-13.69 21.393-19.593 34.524 2.718-8.994 4.513-17.591 8.21-25.364 7.815-16.433 18.066-24.283 26.223-39.432 3.744-6.953 6.721-14.946 8.924-24.759.699-3.115 1.09-5.884 2.146-8.4-3.26 16.896-9.024 33.196-14.551 46.432-3.104 7.433-7.366 13.864-10.081 21.886-1.632-25.531 18.03-45.894 25.229-55.157 9.394-12.088 17.963-26.864 27.21-39.321-.603 7.602-3.023 13.844-5.061 19.749-4.83 14.004-10.072 27.746-15.564 40.395-6.916 15.93-15.535 28.743-23.529 41.513.637-22.646 13.189-38.274 20.094-49.862 6.998-11.744 15.205-25.256 18.527-44.471-6.801 21.786-14.518 40.354-22.731 59.577-5.144 12.038-13.009 24.719-16.213 40.468 1.333-7.466 4.36-13.169 7.028-18.054 8.526-15.61 18.424-26.952 27.105-42.229 5.267-9.27 8.579-18.968 11.882-31.884-5.984 41.24-23.862 63.786-33.023 99.614 1.37-10.931 4.751-19.659 8.073-27.717 7.113-17.256 15.356-32.617 23.561-47.025 3.969-6.968 8.547-13.371 11.254-23.348.891-3.284 1.267-7.555 2.405-10.327-1.021 21.252-10.091 43.328-15.863 58.75-4.081 10.904-8.196 21.755-12.452 32.273-.602-7.145 1.212-11.483 3.137-16.444 4.229-10.898 8.551-21.352 13.011-31.754 3.995-9.316 8.116-18.345 11.731-28.47 1.179-3.301 2.275-7.672 3.701-10.343.778 6.549-2.664 17.213-4.027 22.568-3.611 14.195-9.379 25.379-14.438 36.795-7.529 16.994-15.882 31.992-23.334 49.059 4.137-25.496 16.607-45.377 24.58-64.467 4.938-11.825 7.879-25.031 12.051-37.959.734 5.071-.137 12.486-1.165 17.511-2.491 12.183-6.183 23.863-9.139 35.517-2.556 10.076-7.487 20.947-9.132 31.556 6.559-20.067 15.305-32.883 22.965-50.353 4.482-10.223 10.33-22.777 12.543-36.892-2.006 4.476-3.26 12.657-4.613 18.258-4.251 17.593-8.326 35.006-13.789 50.797-4.092 11.831-8.342 26.533-13.35 36.222-1.603-30.096 13.826-53.597 21.793-71.939 3.788-8.723 7.673-17.441 11.188-26.766.939-2.492 2.154-7.552 3.523-8.512-.723 22.201-9.194 39.365-14.543 56.552-2.513 8.071-5.063 15.855-7.783 23.556-1.489 4.215-3.218 11.483-5.022 14.16.152-9.315 2.812-19.419 5.259-26.456 5.318-15.293 12.401-28.718 18.873-41.317 3.975-7.738 8.27-16.321 11.506-25.728-7.447 34.273-19.769 64.712-30.733 93.206.313-8.154 3.54-15.388 5.704-21.127 6.586-17.459 14.686-30.769 21.969-46.55 4.914-10.646 9.572-21.706 13.867-33.584.328 6.903-1.532 16.302-2.66 22.338-4.064 21.764-10.922 41.8-17.122 60.518-3.972 11.991-7.683 24.233-11.294 36.671-3.436-19.248 14.427-45.929 19.26-55.553 5.429-10.811 11.809-22.635 15.883-36.413 1.493-5.05 2.33-10.948 3.992-15.719-3.711 20.645-10.508 37.362-15.949 55.571-2.925 9.787-6.717 25.29-11.26 31.551-1.521-6.594 3.131-18.147 4.5-22.326 5.896-18.001 12.869-34.662 19.76-50.633 6.637-15.381 12.816-30.524 18.713-47.205-.007 8.371-2.758 18.829-4.29 26.019-3.591 16.84-8.175 31.185-12.815 46.415a202.722 202.722 0 0 0-6.418 28.009c1.991-16.948 5.813-29.686 9.793-44.518 2.842-10.586 5.552-21.531 7.957-32.679.876-4.058 1.595-9.71 3.12-12.821.63 20.673-5.448 46.88-9.023 65.083-2.314 11.788-5.304 23.04-8.692 33.293-.135-32.073 17.459-51.714 23.112-78.444-1.08 3.552-1.363 7.261-1.981 11.441-1.883 12.722-4.667 24.813-7.135 36.979-3.83 18.874-10.442 35.913-13.203 55.776.646-21.859 10.429-38.371 16.588-52.552 6.016-13.848 10.731-28.616 15.921-43.854.72 14.892-4.071 35.563-6.909 48.67-3.303 15.255-5.668 32.311-9.116 47.126.797-25.636 9.497-46.973 16.163-65.918 3.643-10.358 5.932-22.655 9.564-32.839-1.315 17.494-6.146 36.425-9.199 52.555-2.024 10.694-3.654 24.69-6.598 34.182-1.381-23.116 11.435-49.979 17.268-65.311 4.206-11.053 7.984-23.294 11.179-35.396-.209 6.797-1.927 14.372-2.824 20.785-1.942 13.88-4.131 28.054-7.286 40.762-2.721 10.96-5.915 21.611-8.771 32.342-1.428-38.295 16.13-62.01 22.211-93.698-.633 19.896-6.487 42.688-10.482 59.974-2.971 12.855-9.487 28.417-9.002 43.932 5.412-42.27 18.637-71.476 28.582-107.663-1.828 28.848-8.744 55.087-13.369 81.84-2.442 14.122-5.266 27.724-7.498 42.033-1.134-26.61 10.014-55.395 16.814-73.914 5.323-14.499 11.193-27.75 14.819-45.026-4.136 21.415-6.876 43.981-11.055 65.449-2.962 15.213-7.472 31.002-8.706 47.713-.529-30.954 7.908-55.752 15.822-78.928 3.635-10.645 9.365-24.709 11.108-37.977 1.37 36.64-7.453 67.789-12.411 100.822-.182-6.349 1.899-13.692 3.264-19.033 3.793-14.856 8.711-27.763 12.791-42.101 2.307-8.111 5.376-18.707 5.965-28.479-2.061 15.31-3.842 30.012-6.639 44.79-2.68 14.152-5.839 27.495-6.429 43.091-.282-33.95 15.155-52.65 19.312-82.588-.407 6.877-2.668 12.905-4.131 18.845-3.056 12.408-5.048 26.004-7.945 38.552-2.17 9.391-3.387 19.336-5.178 29.171"/><path clip-path="url(#d)" fill="none" stroke="#113653" stroke-width="1.726" stroke-linecap="round" stroke-linejoin="round" stroke-miterlimit="10" d="M707.252 92.698c1.235-3.536 3.905-6.004 5.787-7.973 5.413-5.661 10.935-9.579 16.039-16.833 4.774-6.787 9.04-15.342 13.724-22.506 2.23-3.412 4.832-5.633 6.926-9.462-4.637 18.828-13.551 31.24-20.653 44.542-7.153 13.396-13.973 30.643-22.438 39.435 1.168-6.429 7.523-10.745 10.078-13.454C723.129 99.644 729.586 93.5 735.1 83.1c3.623-6.831 8.181-14.998 11.177-23.056-10.593 26.988-24.535 44.037-35.839 69.21 6.422-16.187 18.191-20.457 26.065-32.169 4.405-6.551 7.972-15.295 12.102-22.585-3.062 13.956-11.165 28.08-16.45 38.305-5.193 10.046-10.719 22.194-16.441 30.537 11.275-29.52 31.262-29.181 42.168-59.167-2.502 4.909-4.588 11.11-6.887 16.549-5.686 13.454-12.229 24.379-18.922 35.006-6.734 10.694-13.689 21.393-19.592 34.524 2.717-8.994 4.513-17.591 8.21-25.364 7.815-16.433 18.065-24.283 26.222-39.432 3.744-6.953 6.721-14.946 8.924-24.759.699-3.115 1.09-5.884 2.146-8.4-3.26 16.896-9.023 33.196-14.551 46.432-3.103 7.433-7.365 13.864-10.08 21.886-1.633-25.531 18.029-45.894 25.229-55.157 9.393-12.088 17.963-26.864 27.21-39.321-.603 7.602-3.023 13.844-5.062 19.749-4.83 14.004-10.072 27.746-15.564 40.395-6.916 15.93-15.534 28.743-23.529 41.513.637-22.646 13.189-38.274 20.094-49.862 6.998-11.744 15.206-25.256 18.527-44.471-6.8 21.786-14.517 40.354-22.73 59.577-5.145 12.038-13.01 24.719-16.213 40.468 1.332-7.466 4.36-13.169 7.028-18.054 8.526-15.61 18.423-26.952 27.104-42.229 5.268-9.27 8.58-18.968 11.883-31.884-5.984 41.24-23.862 63.786-33.023 99.614 1.369-10.931 4.75-19.659 8.072-27.717 7.113-17.256 15.357-32.617 23.562-47.025 3.968-6.968 8.546-13.371 11.253-23.348.891-3.284 1.268-7.555 2.406-10.327-1.021 21.252-10.091 43.328-15.863 58.75-4.082 10.904-8.197 21.755-12.453 32.273-.602-7.145 1.213-11.483 3.137-16.444 4.23-10.898 8.551-21.352 13.012-31.754 3.994-9.316 8.115-18.345 11.73-28.47 1.18-3.301 2.275-7.672 3.701-10.343.779 6.549-2.664 17.213-4.027 22.568-3.611 14.195-9.379 25.379-14.438 36.795-7.528 16.994-15.881 31.992-23.333 49.059 4.136-25.496 16.606-45.377 24.579-64.467 4.939-11.825 7.879-25.031 12.052-37.959.734 5.071-.138 12.486-1.165 17.511-2.492 12.183-6.184 23.863-9.139 35.517-2.557 10.076-7.488 20.947-9.132 31.556 6.559-20.067 15.304-32.883 22.965-50.353 4.482-10.223 10.329-22.777 12.542-36.892-2.006 4.476-3.26 12.657-4.613 18.258-4.25 17.593-8.326 35.006-13.788 50.797-4.093 11.831-8.343 26.533-13.351 36.222-1.602-30.096 13.827-53.597 21.793-71.939 3.789-8.723 7.674-17.441 11.188-26.766.939-2.492 2.154-7.552 3.523-8.512-.723 22.201-9.193 39.365-14.543 56.552-2.512 8.071-5.063 15.855-7.783 23.556-1.488 4.215-3.217 11.483-5.021 14.16.152-9.315 2.811-19.419 5.258-26.456 5.318-15.293 12.402-28.718 18.873-41.317 3.975-7.738 8.271-16.321 11.507-25.728-7.448 34.273-19.769 64.712-30.733 93.206.313-8.154 3.539-15.388 5.704-21.127 6.585-17.459 14.685-30.769 21.968-46.55 4.914-10.646 9.573-21.706 13.867-33.584.328 6.903-1.531 16.302-2.659 22.338-4.065 21.764-10.923 41.8-17.122 60.518-3.973 11.991-7.683 24.233-11.294 36.671-3.436-19.248 14.427-45.929 19.259-55.553 5.43-10.811 11.809-22.635 15.883-36.413 1.494-5.05 2.33-10.948 3.992-15.719-3.71 20.645-10.507 37.362-15.948 55.571-2.925 9.787-6.718 25.29-11.261 31.551-1.521-6.594 3.131-18.147 4.5-22.326 5.896-18.001 12.87-34.662 19.761-50.633 6.636-15.381 12.815-30.524 18.712-47.205-.006 8.371-2.757 18.829-4.289 26.019-3.592 16.84-8.176 31.185-12.815 46.415a202.721 202.721 0 0 0-6.419 28.009c1.992-16.948 5.813-29.686 9.794-44.518 2.841-10.586 5.552-21.531 7.957-32.679.876-4.058 1.595-9.71 3.12-12.821.629 20.673-5.449 46.88-9.023 65.083-2.314 11.788-5.305 23.04-8.693 33.293-.135-32.073 17.46-51.714 23.113-78.444-1.08 3.552-1.363 7.261-1.982 11.441-1.883 12.722-4.666 24.813-7.135 36.979-3.829 18.874-10.441 35.913-13.202 55.776.646-21.859 10.429-38.371 16.587-52.552 6.016-13.848 10.732-28.616 15.922-43.854.719 14.892-4.072 35.563-6.909 48.67-3.304 15.255-5.669 32.311-9.116 47.126.797-25.636 9.497-46.973 16.162-65.918 3.644-10.358 5.932-22.655 9.565-32.839-1.315 17.494-6.147 36.425-9.2 52.555-2.023 10.694-3.654 24.69-6.598 34.182-1.381-23.116 11.436-49.979 17.269-65.311 4.206-11.053 7.984-23.294 11.179-35.396-.209 6.797-1.927 14.372-2.824 20.785-1.942 13.88-4.131 28.054-7.286 40.762-2.722 10.96-5.915 21.611-8.772 32.342-1.427-38.295 16.131-62.01 22.211-93.698-.632 19.896-6.486 42.688-10.482 59.974-2.971 12.855-9.486 28.417-9.002 43.932 5.412-42.27 18.637-71.476 28.582-107.663-1.827 28.848-8.744 55.087-13.369 81.84-2.441 14.122-5.266 27.724-7.498 42.033-1.133-26.61 10.014-55.395 16.814-73.914 5.324-14.499 11.193-27.75 14.82-45.026-4.137 21.415-6.877 43.981-11.055 65.449-2.962 15.213-7.472 31.002-8.706 47.713-.53-30.954 7.907-55.752 15.822-78.928 3.635-10.645 9.364-24.709 11.108-37.977 1.369 36.64-7.453 67.789-12.412 100.822-.182-6.349 1.9-13.692 3.264-19.033 3.793-14.856 8.711-27.763 12.791-42.101 2.308-8.111 5.377-18.707 5.965-28.479-2.061 15.31-3.842 30.012-6.639 44.79-2.679 14.152-5.838 27.495-6.428 43.091-.283-33.95 15.155-52.65 19.312-82.588-.407 6.877-2.669 12.905-4.132 18.845-3.055 12.408-5.047 26.004-7.945 38.552-2.169 9.391-3.386 19.336-5.177 29.171"/></g></svg>