<svg xmlns="http://www.w3.org/2000/svg" width="80" height="75" viewBox="0 193.091 800 413.807" xml:space="preserve"><path fill="#103754" d="M729.761 328.384c-54.228-42.776-108.455-85.552-162.696-128.328-.026-.026-.079-.026-.105-.04-.355-.33-.843-.659-1.541-.936-87.925-35.871-37.637 100.957-59.486 104.212-80.201 11.979-160.377 23.932-240.592 35.91-76.617 11.438-153.234 22.864-229.838 34.315C12.334 376.972 0 387.422 0 410.51c0 21.006 38.875 20.254 52.778 22.311 88.938 13.243 177.89 26.475 266.829 39.731 30.823 4.586 188.789 6.352 188.789 48.192 0 17.355-11.215 80.359 16.617 85.17 22.548 3.913 36.424-4.218 53.556-17.751 68.565-54.07 137.157-108.166 205.723-162.235 4.797-3.782 8.078-7.551 10.608-11.307.211-.224.329-.475.514-.712.593-.909 1.291-1.845 1.753-2.741.896-1.699 1.621-3.531 2.029-5.416 8.026-30.6-46.136-58.984-69.435-77.368zm-699.056 65.06a569.793 569.793 0 0 0-2.504 6.088 55.766 55.766 0 0 0-1.832 5.113c-.25-.356-.672-.606-.896-.976-4.375-7.143-.132-12.334 8.025-16.195a73.259 73.259 0 0 0-2.793 5.97zm664.74-63.861c1.37 1.081 2.728 2.161 4.111 3.242-23.904 49.786-48.891 99.06-75.392 147.555-3.505 6.364-4.322 6.022-1.753-.805 10.082-26.633 20.953-52.936 31.944-79.12 2.819-6.708 8.157-17.185 11.913-23.404a12448.546 12448.546 0 0 1 29.177-47.468zm-112.316-88.609c5.179 4.099 10.357 8.17 15.537 12.269-2.583 3.782-5.192 7.551-7.775 11.333-4.111 6.009-11.504 11.768-16.301 13.586-3.928 1.502-7.13 3.176-8.184 4.296-1.872 1.99-3.624 4.059-5.377 6.127-2.912 3.439-2.609.962.698-5.521 7.13-14.021 14.259-28.056 21.402-42.09zm-41.906-30.139c-.303.435-.725.844-.988 1.305-.976 1.568-1.938 3.137-2.926 4.691.988-3.004 2.266-5.086 3.914-5.996zm-4.494 51.342c7.986-12.967 16.012-25.908 23.998-38.862.816.646 1.66 1.318 2.477 1.95a26188.559 26188.559 0 0 1-27.396 53.753 99.137 99.137 0 0 0-1.45 2.925c-.013-4.573-.145-10.292-.263-16.525.829-.671 1.712-1.725 2.634-3.241zM90.085 383.573a2812.067 2812.067 0 0 0-16.459 31.206c-1.265 2.451-1.344 4.73-.87 6.839-6.457-.737-13.099-1.713-19.53-3.123 1.845-1.766 3.519-3.809 4.625-6.26a1905.457 1905.457 0 0 1 11.57-25.183c1.647-3.492 1.397-6.299-.171-8.078 12.849-1.635 24.143-2.28 27.345-2.688-2.701 2.175-5.113 4.652-6.51 7.287zm45.017 46.466c-13.402-1.977-26.791-3.992-40.193-5.982 1.951-1.555 3.703-3.308 4.784-5.416a2752.035 2752.035 0 0 1 20.755-39.601c1.397-2.622 1.476-4.73.883-6.431 18.779-2.794 37.544-5.601 56.31-8.407-2.649 2.056-5.047 4.322-6.549 6.733a3441.762 3441.762 0 0 1-34.29 53.767c-1.2 1.871-1.635 3.651-1.7 5.337zm55.65 2.372c-1.146 2.003-1.423 3.928-1.331 5.732l-32.128-4.783c1.963-1.37 3.729-2.979 4.955-4.837 13.455-20.544 26.633-41.273 39.653-62.134 1.502-2.438 1.74-4.375 1.357-5.983 11.333-1.687 22.692-3.387 34.039-5.086-2.675 2.121-5.074 4.533-6.51 7.063a61578.234 61578.234 0 0 1-40.035 70.028zm110.788 16.473c-1.146 2.017-1.41 3.94-1.318 5.746-22.706-3.374-45.385-6.761-68.091-10.134 1.963-1.477 3.729-3.177 4.876-5.219 15.985-28.372 31.957-56.771 48.074-85.025 1.436-2.529 1.594-4.612 1.081-6.259 26.804-4.007 53.608-7.986 80.425-12.006-2.688 2.188-5.073 4.665-6.47 7.288-19.096 35.41-38.704 70.581-58.577 105.609zm55.585 14.193a32740.08 32740.08 0 0 0-32.444-4.811c1.977-1.41 3.782-3.018 5.008-4.902 25.697-39.89 51.974-79.411 79.081-118.352 1.371-1.95 1.779-3.571 1.806-5.008 9.08-.725 19.952-1.318 31.522-2.228-.91 1.015-1.925 2.017-2.557 3.07-26.818 42.354-54.254 84.327-80.795 126.773-1.225 1.913-1.608 3.732-1.621 5.458zm28.135 4.177c-.29-.039-.646-.079-.896-.118-1.357-.225-2.715-.396-4.072-.606.185-.237.488-.369.633-.619 1.318-2.214 2.623-4.415 3.979-6.615 27.424-44.688 56.112-88.623 84.182-132.888.382-.606.422-1.081.698-1.647.487-.079.976-.132 1.45-.211-.501.633-1.146 1.239-1.529 1.885-27.674 45.082-55.281 90.19-82.89 135.313-1.199 1.935-1.555 3.767-1.555 5.506zm50.288 3.861c-9.58-.856-18.581-1.476-26.475-2.003 1.187-1.107 2.319-2.267 3.097-3.571 29.269-47.889 58.497-95.778 87.845-143.602 1.028-1.646 1.489-3.109 1.621-4.414 10.727-3.717 19.688-8.816 25.815-15.695-.053.079-.079.185-.132.276-2.569 3.914-8.935 10.819-12.269 17.29-25.815 50.09-52 99.969-78.817 149.466-.409.764-.462 1.502-.685 2.253zm63.413-12.374c-3.559 6.035-7.156 12.031-10.754 18.041-.303.54-.329 1.041-.566 1.568-3.506-.752-7.076-1.41-10.727-2.069.237-.277.566-.527.79-.817a28603.946 28603.946 0 0 1 38.85-58.893c4.032-6.062 4.941-5.574 1.977 1.081-6.234 13.864-12.731 27.555-19.57 41.089zm65.942 102.327c-3.044 8.605-6.102 17.237-9.146 25.829-3.689 2.425-6.879 3.506-9.515 3.321a17281.288 17281.288 0 0 1 16.604-30.072c3.534-6.365 4.456-5.957 2.057.922zm-28.464-11.108c-1.345 2.332-2.544 5.126-3.598 7.959-1.002-19.411 1.015-41.88 1.015-50.656 0-9.58-8.843-16.657-22.231-21.941 1.594-1.37 2.978-2.899 3.927-4.665a1025.645 1025.645 0 0 0 14.509-27.7c34.079-57.772 67.485-115.98 101.366-173.897 11.57 9.119 23.153 18.265 34.724 27.397-6.114 16.524-12.492 32.984-19.2 49.338-11.386 22.021-23.114 43.883-34.909 65.692-25.553 42.631-50.684 85.473-75.603 128.473zm84.577-14.127c35.726-60.672 68.658-123.07 99.415-186.549 1.714 1.344 3.413 2.701 5.14 4.046-28.729 54.952-56.494 110.445-83.799 166.162a7131.439 7131.439 0 0 0-20.756 16.341zm134.521-106.07c-22.666 17.869-45.332 35.766-68.012 53.621 19.068-38.506 38.388-76.854 58.128-114.991 10.161 7.445 21.349 16.446 26.462 26.119-5.509 11.781-11.043 23.509-16.578 35.251z"/></svg>