<svg xmlns="http://www.w3.org/2000/svg" xml:space="preserve" width="800" height="800"><path fill="#F8F9F6" d="M529.331 281.281c-5.335-53.333-17.335-101.333-38.667-144a384.355 384.355 0 0 0-6.241-12.776c-24.506 14.453-53.978 22.11-84.425 22.11-30.445 0-59.919-7.657-84.425-22.11a390.31 390.31 0 0 0-6.241 12.776c-20 42.667-33.334 92-38.667 144-2.667 29.334-4 61.334-3.997 91.998 0 12.206.439 30.528 1.78 51.179.886 1.183.887 2.495.887 4.821 5.334 68 17.334 117.335 34.667 134.667l1.333 1.333 1.333 1.333c1.392 1.393 2.413 3.154 3.078 5.086 6.673 5.838 19.42 14.365 39.587 20.247a754.767 754.767 0 0 1-1.13-12.308 354.685 354.685 0 0 1-1.537-33.025c0-64 17.333-133.333 53.333-133.333s53.332 69.333 53.332 133.333c0 9.781-.407 19.686-1.222 29.448-.433 5.883-.938 11.648-1.445 17.219 23.964-6.989 37.458-18.464 42.726-23.787.387-.547.803-1.073 1.274-1.546l1.333-1.332 1.333-1.333c30.667-32 36-149.333 36-192 .001-32-1.332-62.667-3.999-92zM399.998 386.615c-58.667 0-106.667-48-106.667-106.667s48-106.667 106.667-106.667 106.667 48 106.667 106.667-48 106.667-106.667 106.667z"/><path fill="#CBD265" d="M399.333 253.333c-14.667 0-26.667 12-26.667 26.667s12 26.667 26.667 26.667C414 306.667 426 294.667 426 280s-12-26.667-26.667-26.667z"/><path fill="#9786BD" d="M399.333 440.002c-7.236 2.268-26 39.4-26 106.557 0 38.779 6.256 67.537 12.938 85.362 6.455 16.583 12.782 21.305 13.729 21.305.799 0 5.432-3.362 10.737-14.093 3.256-7.087 6.609-16.795 9.4-29.037-.08-.76-.137-1.506-.137-2.205 4-18.665 5.332-40 5.332-61.332 0-67.157-18.764-104.291-25.999-106.557zM200 573.227v53.333l74.814-52.5c-18.414-27.995-27.09-78.334-31.175-121.797C225.007 471.063 200 509.635 200 573.227zm400 54.666-76-53.333c16-24 26.666-64 32-121.333 18.666 18.666 44 57.333 44 121.333v53.333z"/><path fill="#F79927" d="M403.507 679.852c-.08.009-.156.024-.236.034-.417.052-.839.084-1.259.115-.13.01-.258.026-.388.034a27.333 27.333 0 0 1-3.299 0c-.132-.008-.26-.024-.391-.034a23.696 23.696 0 0 1-1.253-.114c-.088-.011-.174-.027-.262-.039-13.386-1.742-24.99-13.406-33.507-34.328-1.578-3.766-3.041-7.764-4.388-11.956-14.553 17.336-15.842 43.908-1.215 63.854l44 65.333 44-65.333c13.334-20 12-46.666-1.335-63.999-11.175 28.559-24.665 44.392-40.467 46.433z"/><path fill="#50C2C8" d="M471.576 101.479c-15.266-24.964-30.445-42.016-43.181-53.489-11.158-9.982-20.417-15.805-26.128-18.892l-.166-.09a103.636 103.636 0 0 0-2.102-1.092 76.216 76.216 0 0 0-2.101 1.092l-.166.09c-5.711 3.086-14.97 8.909-26.128 18.892-12.736 11.474-27.916 28.526-43.181 53.489 21.228 11.852 45.084 18.438 71.577 18.438s50.349-6.586 71.576-18.438z"/><path fill="#F79927" d="m719.952 741.509-21.332-21.332 21.334-21.334 21.332 21.332zM66.666 80.167c-4-5.333-8-9.333-13.333-13.333 5.333-4 9.333-8 13.333-13.333 4 5.333 8 9.333 13.333 13.333-5.333 3.999-9.333 7.999-13.333 13.333z"/><g fill="#103653"><path d="M693.333 466.667c8 0 13.333-5.333 13.333-13.333s-5.333-13.332-13.333-13.332S680 445.334 680 453.334s5.333 13.333 13.333 13.333zm66.667-320c8 0 13.333-5.333 13.333-13.333S768 120.001 760 120.001s-13.333 5.333-13.333 13.333c0 7.999 5.333 13.333 13.333 13.333zM40 640c-8 0-13.333 5.333-13.333 13.333S32 666.666 40 666.666s13.333-5.333 13.333-13.333S48 640 40 640zm80-333.333c-8 0-13.333 5.333-13.333 13.333S112 333.333 120 333.333 133.333 328 133.333 320 128 306.667 120 306.667zm0-253.334c-22.667 0-40-17.333-40-40C80 5.333 74.667 0 66.667 0S53.334 5.333 53.334 13.333c0 22.667-17.333 40-40 40C5.333 53.333 0 58.667 0 66.667S5.333 80 13.333 80c22.667 0 40 17.333 40 40 0 8 5.333 13.333 13.333 13.333S80 128 80 120c0-22.667 17.333-40 40-40 8 0 13.333-5.333 13.333-13.333S128 53.333 120 53.333zM66.667 80c-4-5.333-8-9.333-13.333-13.333 5.333-4 9.333-8 13.333-13.333 4 5.333 8 9.333 13.333 13.333-5.333 4-9.333 8-13.333 13.333zm720 626.667h-21.333l-32-32v-21.333c0-8-5.332-13.332-13.332-13.332s-13.333 5.332-13.333 13.332v21.333l-32 32h-21.333c-8 0-13.333 5.333-13.333 13.333s5.333 13.333 13.333 13.333h21.333l32 32v21.333c0 8 5.333 13.332 13.333 13.332s13.332-5.332 13.332-13.332v-21.333l32-32h21.333c8 0 13.333-5.333 13.333-13.333s-5.333-13.333-13.333-13.333zM720 741.333 698.667 720 720 698.667 741.333 720 720 741.333zM557.433 417.815c1.231-23 1.234-40.498 1.234-45.815 0-32-1.333-64-4-94.667-5.333-56-18.667-108-40-153.333-20.641-44.148-43.497-73-63.063-91.664a171.107 171.107 0 0 0-1.158-1.101C427.192 9.22 408.883 1.997 404.764.325A15.335 15.335 0 0 1 404 0h-8c-2.667 1.333-62.667 21.333-112 125.333-21.333 45.333-34.667 97.333-40 153.333-2.667 30.667-4 62.667-4 94.667 0 5.06.001 23.321 1.308 47.354-17.104 12.326-67.975 59.18-67.975 153.979v53.332c0 10.668 5.333 18.668 14.667 24 4 1.333 8 2.668 12 2.668 5.333 0 10.667-2.668 17.333-6.668l76.333-53.201c8.922 7.225 22.719 16.044 42.185 22.666-20.372 27.675-21.876 65.496-2.517 94.535l56 82.668C392 797.333 396 800 400 800s8-2.667 12-5.333L466.667 712c19.729-30.825 17.775-69.62-3.714-96.373 18.752-6.582 32.102-15.171 40.795-22.226L584 649.334c5.333 4 10.667 5.333 16 5.333 4 0 8-1.333 12-4 9.333-5.333 14.667-13.333 14.667-24v-53.333c0-99.37-55.891-146.055-69.234-155.519zM401.139 28.583a103.636 103.636 0 0 1 1.129.598c5.711 3.087 14.97 8.91 26.128 18.892 12.735 11.474 27.915 28.525 43.181 53.489C450.349 113.414 426.492 120 400 120s-50.349-6.586-71.577-18.438c15.266-24.962 30.445-42.016 43.181-53.489 11.158-9.982 20.417-15.806 26.128-18.892l.166-.089c.333-.18.655-.35.962-.509a71.85 71.85 0 0 1 1.139-.583c.357.178.745.376 1.14.583zm-130.472 252.75c5.333-52 18.667-101.333 38.667-144a388.359 388.359 0 0 1 6.241-12.777c24.506 14.453 53.979 22.111 84.425 22.111 30.447 0 59.919-7.658 84.425-22.111a386.359 386.359 0 0 1 6.241 12.777c21.332 42.667 33.332 90.667 38.667 144 2.667 29.333 4 60 4 92 0 42.667-5.333 160-36 192L496 566.666l-1.333 1.332c-.472.473-.888.999-1.274 1.546-5.268 5.323-18.762 16.798-42.726 23.787.507-5.57 1.013-11.336 1.445-17.219a355.856 355.856 0 0 0 1.222-29.448c0-64-17.332-133.333-53.333-133.333-36 0-53.333 69.333-53.333 133.333 0 10.977.511 22.111 1.537 33.025a744.78 744.78 0 0 0 1.13 12.308c-20.167-5.882-32.914-14.409-39.587-20.247-.666-1.932-1.686-3.693-3.078-5.086l-1.333-1.333-1.333-1.333c-17.333-17.332-29.333-66.667-34.667-134.667 0-2.326-.001-3.639-.887-4.821-1.341-20.65-1.78-38.973-1.78-51.179-.003-30.664 1.33-62.664 3.997-91.998zm129.333 372c-.947 0-7.275-4.722-13.729-21.305-6.682-17.825-12.938-46.583-12.938-85.362 0-67.156 18.764-104.289 26-106.557 7.235 2.266 26 39.4 26 106.557 0 21.332-1.333 42.667-5.333 61.332 0 .699.057 1.445.138 2.205-2.791 12.242-6.146 21.95-9.4 29.037-5.306 10.731-9.938 14.093-10.738 14.093zm-200-26.666v-53.333c0-63.592 25.008-102.164 43.639-120.964 4.084 43.463 12.761 93.802 31.175 121.797L200 626.667zm245.333 70.666-44 65.333-44-65.333c-14.627-19.945-13.338-46.518 1.215-63.854 1.347 4.192 2.81 8.19 4.388 11.956 8.517 20.922 20.122 32.586 33.508 34.328.087.012.173.028.261.039.416.051.834.085 1.253.114.131.01.259.026.391.034.547.033 1.097.051 1.65.051s1.103-.018 1.65-.051c.13-.008.258-.024.388-.034.42-.031.842-.063 1.259-.115.08-.01.156-.025.236-.034 15.802-2.041 29.292-17.874 40.467-46.434 13.334 17.334 14.668 44 1.334 64zM600 628l-76-53.333c16-24 26.667-64 32-121.333 18.667 18.666 44 57.333 44 121.333V628z"/><path d="M400 386.667c58.667 0 106.667-48 106.667-106.667s-48-106.667-106.667-106.667-106.667 48-106.667 106.667 48 106.667 106.667 106.667zM400 200c44 0 80 36 80 80s-36 80-80 80-80-36-80-80 36-80 80-80z"/><path d="M400 333.333c29.333 0 53.333-24 53.333-53.333s-24-53.333-53.333-53.333-53.333 24-53.333 53.333 24 53.333 53.333 53.333zm0-80c14.667 0 26.667 12 26.667 26.667s-12 26.667-26.667 26.667-26.667-12-26.667-26.667 12-26.667 26.667-26.667z"/></g><path fill="#103653" d="M-584 816.334c-44 0-80 36-80 80s36 80 80 80 80-36 80-80-36-80-80-80zm0 133.333c-29.333 0-53.333-24-53.333-53.333s24-53.333 53.333-53.333 53.333 24 53.333 53.333-24 53.333-53.333 53.333z"/></svg>