<?xml version="1.0" encoding="utf-8"?>
<!-- Generator: Adobe Illustrator 15.0.0, SVG Export Plug-In . SVG Version: 6.00 Build 0)  -->
<!DOCTYPE svg PUBLIC "-//W3C//DTD SVG 1.1//EN" "http://www.w3.org/Graphics/SVG/1.1/DTD/svg11.dtd">
<svg version="1.1" id="Layer_1" xmlns="http://www.w3.org/2000/svg" xmlns:xlink="http://www.w3.org/1999/xlink" x="0px" y="0px"
	 width="522.963px" height="718.448px" viewBox="132.293 40.775 522.963 718.448"
	 enable-background="new 132.293 40.775 522.963 718.448" xml:space="preserve">
<path fill="#F2972E" d="M354.061,196.342c-64.659,6.599-119.991,77.73-119.991,138.646c0,79.4,24.457,114.042,47.987,156.88
	c7.124,12.971,27.149,44.133,30.88,89.576c31.234-11.07,90.824-10.654,118.061,0.435c8.703-10.856,11.902-15.547,12.396-36.82
	c1.375-58.965,41.064-106.279,55.688-138.053c21.535-46.788,10.6-112.616-10.635-141.411
	C449.784,213.179,402.146,191.431,354.061,196.342z"/>
<g>
	<path fill="#113653" d="M404.11,743.026c-6.802,0-12.387-5.449-12.52-12.282c-0.229-11.497-7.456-28.879-17.071-37.571
		c-10.732,0.589-20.629-0.373-27.577-3.161c-4.581-1.848-7.656-6.202-7.848-11.139c-0.194-4.934,2.525-9.521,6.948-11.711
		c11.534-5.719,23.908-5.59,35.144,0.286c10.006-1.363,20.813-4.274,28.887-8.874c2.631-1.492,4.771-3.081,6.324-4.648
		c-25.101,6.007-51.768,7.339-61.191-1.681c-4.508-4.325-5.915-10.563-3.83-16.361c1.805-7.461,7.219-13.015,14.397-16.868
		c-19.094,0.733-34.886-1.517-39.198-8.953c-1.945-3.34-2.575-7.903-0.746-12.16c-9.621-1.926-18.537-5.271-23.994-10.936
		c-0.953-0.991-1.736-2.128-2.317-3.375c-4.294-9.15-3.315-18.869,2.687-26.649c3.258-4.226,7.998-7.785,13.796-10.745
		c-4.624-33.762-18.58-58.299-25.95-71.254c-0.947-1.663-1.797-3.155-2.514-4.465c-2.342-4.263-4.697-8.445-7.033-12.599
		c-21.854-38.88-42.501-75.604-42.501-150.31c0-63.688,57.333-143.568,131.245-151.109c54.439-5.581,106.293,20.804,145.736,74.281
		c24.127,32.721,34.967,104.047,11.932,154.083c-4.066,8.844-9.852,18.642-15.975,29.012
		c-16.764,28.396-37.627,63.736-38.568,104.097c-0.379,16.305-2.508,24.984-6.875,32.69c3.873,3.376,6.447,7.241,7.775,11.614
		c1.906,6.294,2.695,16.226-5.578,26.08c2.053,0.935,3.926,1.913,5.607,2.954c2.844,1.761,4.867,4.587,5.621,7.846
		c2.055,8.931,1.682,26.074-23.873,40.581c-3.168,1.798-6.781,3.554-10.721,5.217c0.189,2.6,0.074,5.303-0.361,8.105
		c-1.168,7.54-5.84,18.408-21.496,27.326c-5.67,3.229-12.459,5.932-19.689,8.019c8.57,13.254,13.609,29.326,13.859,41.883
		c0.135,6.917-5.365,12.636-12.281,12.77C404.282,743.019,404.194,743.026,404.11,743.026z M410.813,613.285
		c8.875,1.682,16.25,4.972,21.809,9.492c6.938-2.808,13.053-6.122,17.42-9.939c1.516-1.321,2.551-2.482,3.248-3.474
		c-3.891-1.443-8.508-2.673-13.609-3.683C431.981,608.367,421.853,611.041,410.813,613.285z M340.998,574.771
		c7.038,0.624,15.692,0.771,25.785,0.049c22.385-1.591,42.641-6.874,55.505-14.03c-14.71-2.275-34.307-3.364-56.227-1.321
		c-9.504,0.881-17.303,2.227-23.555,3.749c0.051,1.805,0.075,3.615,0.075,5.456C342.582,570.887,342.006,572.967,340.998,574.771z
		 M388.391,533.511c15.896,0,30.899,1.297,42.13,3.352c4.463,0.82,8.574,1.763,12.34,2.819c3.348-5.302,4.186-10.012,4.471-22.33
		c1.09-46.892,24.76-86.983,42.037-116.249c6.037-10.232,11.254-19.067,14.795-26.752c20.379-44.28,8.293-104.827-9.34-128.741
		c-34.463-46.718-77.025-68.947-123.031-64.226c-60.236,6.144-108.738,74.054-108.738,126.186
		c0,68.145,18.207,100.534,39.291,138.028c2.371,4.232,4.764,8.483,7.149,12.819c0.666,1.217,1.448,2.594,2.33,4.135
		c7.896,13.884,22.542,39.633,28.323,75.546C355.106,534.857,372.208,533.511,388.391,533.511z"/>
	<path fill="#113653" d="M403.769,572.289c-6.056,0-11.377-4.398-12.355-10.569c-1.805-11.412-3.48-78.959,4.807-136.359
		c-5.535,1.285-11.045,2-16.385,2.013l-1.957,0.012c-1.449,0.013-3.059,0.013-4.766,0.013c4.588,27.822,8.625,64.427,12.575,111.803
		c0.753,9.04,1.304,15.755,1.712,19.009c0.863,6.862-4.006,13.126-10.867,13.981c-6.937,0.868-13.125-4.006-13.988-10.875
		c-0.428-3.425-1.026-10.494-1.822-20.03c-4.581-54.892-9.272-92.028-13.639-117.074c-7.332-2.171-14.391-5.792-19.866-11.832
		c-1.878-2.07-18.231-20.709-16.636-39.054c0.654-7.477,4.13-13.865,10.043-18.471c6.624-5.157,14.452-6.355,21.492-3.27
		c10.912,4.777,19.217,19.875,26.172,50.641c3.492,0.15,6.781,0.135,9.418,0.11l2.055-0.012c6.82-0.019,14.244-1.819,21.523-4.704
		c5.718-25.033,14.123-45.154,26.287-53.011c5.371-3.461,16.402-7.929,30.055,1.038c0.459,0.302,0.898,0.636,1.314,0.997
		c7.865,6.807,10.074,16.92,6.055,27.743c-5.076,13.694-21.65,29.584-41.496,40.363c-1.824,10.092-3.525,22.098-4.969,36.312
		c-4.586,45.327-4.471,93.497-2.371,106.744c1.082,6.839-3.584,13.248-10.417,14.33
		C405.081,572.239,404.422,572.289,403.769,572.289z M441.468,365.462c-1.455,0.422-4.209,3.391-7.432,10.728
		c4.857-5.031,6.867-8.752,7.553-10.709C441.509,365.465,441.468,365.462,441.468,365.462z"/>
	<path fill="#113653" d="M286.196,304.184c-0.568,0.003-1.143-0.037-1.717-0.116c-6.857-0.939-11.652-7.257-10.711-14.113
		c3.304-24.074,24.104-61.941,48.666-77.786c11.971-7.721,24.386-9.99,35.877-6.571c6.637,1.969,10.41,8.941,8.44,15.574
		c-1.97,6.628-8.954,10.419-15.571,8.438c-1.621-0.48-6.557-1.933-15.168,3.615c-18.568,11.976-35.24,44.232-37.425,60.137
		C297.726,299.637,292.355,304.184,286.196,304.184z"/>
	<path fill="#113653" d="M201.146,298.701c-2.33,0.003-4.685-0.645-6.783-2.003c-6.818-4.401-16.305-4.08-27.266-3.695
		c-3.302,0.116-6.666,0.187-9.871,0.214c-6.917-0.024-12.507-5.651-12.482-12.568c0.023-6.903,5.627-12.483,12.525-12.483
		c0.141-0.022,0.294-0.003,0.441,0c2.818,0,5.668-0.101,8.52-0.199c13.277-0.453,28.305-0.979,41.723,7.684
		c5.811,3.755,7.48,11.508,3.726,17.318C209.286,296.679,205.256,298.701,201.146,298.701z"/>
	<path fill="#113653" d="M234.063,208.192c-2.71,0-5.438-0.871-7.73-2.673c-6.228-4.89-11.206-10.981-16.013-16.875
		c-6.136-7.507-11.933-14.599-18.495-16.715c-6.582-2.123-10.195-9.181-8.074-15.765c2.123-6.581,9.182-10.208,15.768-8.076
		c13.597,4.386,22.416,15.184,30.202,24.709c4.128,5.058,8.036,9.837,12.085,13.015c5.438,4.272,6.386,12.147,2.116,17.587
		C241.451,206.547,237.774,208.192,234.063,208.192z"/>
	<path fill="#113653" d="M319.095,139.62c-6.917,0-12.524-5.608-12.524-12.526V69.499c0-6.917,5.607-12.526,12.524-12.526
		c6.918,0,12.527,5.608,12.527,12.526v57.595C331.622,134.012,326.013,139.62,319.095,139.62z"/>
	<path fill="#113653" d="M425.351,140.673c-1.277,0-2.586-0.199-3.871-0.618c-6.582-2.137-10.176-9.205-8.043-15.783
		c1.768-5.428,3.418-11.284,5.09-17.21c3.828-13.554,7.791-27.569,13.539-38.826c3.145-6.153,10.68-8.605,16.857-5.452
		c6.158,3.146,8.598,10.691,5.455,16.853c-4.625,9.053-8.244,21.854-11.742,34.238c-1.768,6.248-3.51,12.418-5.371,18.141
		C435.54,137.308,430.636,140.673,425.351,140.673z"/>
	<path fill="#113653" d="M519.294,175.278c-2.592,0-5.215-0.804-7.461-2.474c-5.549-4.126-6.703-11.972-2.582-17.522
		c5.033-6.774,8.686-13.279,12.215-19.573c6.178-11.015,12.568-22.403,25.34-33.097c5.309-4.446,13.197-3.749,17.645,1.565
		c4.439,5.306,3.742,13.205-1.559,17.646c-9.256,7.742-13.811,15.865-19.578,26.143c-3.73,6.655-7.965,14.199-13.951,22.257
		C526.903,173.531,523.124,175.278,519.294,175.278z"/>
	<path fill="#113653" d="M568.657,241.106c-6.055,0-11.381-4.404-12.354-10.578c-1.076-6.835,3.59-13.248,10.422-14.324
		c6.018-0.948,11.926-3.357,18.189-5.908c7.559-3.08,16.121-6.572,26.041-7.854c6.826-0.893,13.145,3.948,14.031,10.816
		c0.887,6.859-3.957,13.141-10.814,14.027c-6.697,0.866-13.063,3.462-19.803,6.208c-7.309,2.979-14.861,6.055-23.742,7.456
		C569.968,241.054,569.308,241.106,568.657,241.106z"/>
	<path fill="#113653" d="M642.731,350.814h-54.85c-6.918,0-12.527-5.608-12.527-12.526s5.609-12.525,12.527-12.525h54.85
		c6.916,0,12.525,5.608,12.525,12.525S649.647,350.814,642.731,350.814z"/>
</g>
</svg>
