<?xml version="1.0" encoding="utf-8"?>
<!-- Generator: Adobe Illustrator 15.0.0, SVG Export Plug-In . SVG Version: 6.00 Build 0)  -->
<!DOCTYPE svg PUBLIC "-//W3C//DTD SVG 1.1//EN" "http://www.w3.org/Graphics/SVG/1.1/DTD/svg11.dtd">
<svg version="1.1" id="Capa_1" xmlns="http://www.w3.org/2000/svg" xmlns:xlink="http://www.w3.org/1999/xlink" x="0px" y="0px"
	 width="733.5px" height="809.5px" viewBox="66.5 -9.5 733.5 809.5" enable-background="new 66.5 -9.5 733.5 809.5"
	 xml:space="preserve">
<circle opacity="0.4" fill="#F2972E" cx="618.379" cy="595.641" r="118.001"/>
<path fill="#113653" d="M779.054,800c-5.349,0-10.694-2.039-14.773-6.119l-73.337-73.333
	c-27.104,20.718-60.174,31.938-95.048,31.938c-41.959,0-81.313-16.242-110.804-45.734c-61.098-61.098-61.098-160.51-0.003-221.604
	h0.003c29.491-29.491,68.842-45.731,110.804-45.731c41.963,0,81.313,16.242,110.802,45.733c29.488,29.489,45.73,68.84,45.73,110.802
	c0,34.877-11.217,67.943-31.938,95.05l73.339,73.337c8.159,8.159,8.159,21.387,0,29.546C789.746,797.961,784.4,800,779.054,800z
	 M514.638,514.693c-44.801,44.804-44.801,117.704,0,162.508c21.602,21.599,50.456,33.495,81.256,33.495
	c30.799,0,59.656-11.896,81.25-33.495c21.599-21.599,33.492-50.455,33.492-81.255s-11.896-59.657-33.492-81.253
	c-21.597-21.599-50.451-33.492-81.25-33.492C565.094,481.201,536.236,493.096,514.638,514.693L514.638,514.693z M486.951,255.51
	H249.702c-11.539,0-20.894-9.355-20.894-20.894c0-11.539,9.355-20.894,20.894-20.894h237.249c11.539,0,20.894,9.354,20.894,20.894
	C507.845,246.155,498.49,255.51,486.951,255.51z M411.468,169.34h-86.282c-11.539,0-20.894-9.354-20.894-20.894
	c0-11.538,9.354-20.894,20.894-20.894h86.282c11.539,0,20.894,9.355,20.894,20.894C432.361,159.985,423.007,169.34,411.468,169.34z"
	/>
<polygon fill="#113653" points="160.604,1627.856 160.603,1627.856 160.603,1627.856 "/>
<path fill="#113653" d="M97.395,695.64l198.34,0.003l83.125-0.003c17.035,0,30.894-13.858,30.894-30.894
	s-13.858-30.894-30.894-30.894H128.287V52.287H602.63v326.11c0,17.035,13.858,30.894,30.894,30.894s30.894-13.858,30.894-30.894
	V21.393c0-17.035-13.858-30.894-30.894-30.894H97.395C80.359-9.5,66.5,4.358,66.5,21.393v643.354
	C66.5,681.782,80.359,695.64,97.395,695.64z"/>
</svg>
