<?xml version="1.0" encoding="utf-8"?>
<!-- Generator: Adobe Illustrator 15.0.0, SVG Export Plug-In . SVG Version: 6.00 Build 0)  -->
<!DOCTYPE svg PUBLIC "-//W3C//DTD SVG 1.1//EN" "http://www.w3.org/Graphics/SVG/1.1/DTD/svg11.dtd">
<svg version="1.1" id="Calque_1" xmlns="http://www.w3.org/2000/svg" xmlns:xlink="http://www.w3.org/1999/xlink" x="0px" y="0px"
	 width="769.461px" height="800px" viewBox="18.61 0 769.461 800" enable-background="new 18.61 0 769.461 800"
	 xml:space="preserve">
<path fill="#F79927" d="M344.313,172.003c68.109-8.647,138.931-1.382,202.916-24.117c15.417-5.478,28.688-9.519,44.048-15.679
	c17.739-7.114,45.738-19.51,60.038-13.849c25.261,10,46.795,59.609,47.826,83.045c3.039,69.168,14.329,192.329,3.053,272.714
	c-11.785,84.017-55.754,138.237-138.092,169.214c-65.142,24.506-118.766,19.237-188.554,19.237
	c-37.562,0-94.544-13.851-127.199-30.726c-29.518-15.253-56.06-25.425-81.009-46.556c-27.33-23.146-32.27-51.874-39.459-85.05
	c-6.799-31.373-12.515-61.699-12.515-94.375c0-60.375,1.526-118.593,1.526-179.252c0-28.933,4.665-53.287,16.706-79.037
	c11.57-24.743,26.149-30.503,53.504-28.992c25.027,1.382,48.783,13.257,73.307,20.182c13.972,3.945,19.879,10.142,32.713,16.848
	c10.002,5.226,26.42,11.999,37.453,16.391H344.313z"/>
<g>
	<g>
		<path fill="#103653" d="M370.563,517.382c0,15.344,20.152,22.21,40.125,22.21c19.97,0,40.12-6.866,40.12-22.21
			c0-15.342-20.15-22.211-40.12-22.211C390.716,495.171,370.563,502.04,370.563,517.382z"/>
		<path fill="#103653" d="M490.926,430.127c0,21.984,12.485,39.207,28.423,39.207c15.94,0,28.427-17.223,28.427-39.207
			c0-21.987-12.486-39.21-28.427-39.21C503.411,390.916,490.926,408.139,490.926,430.127z"/>
		<path fill="#103653" d="M47.373,519.88c4.043,0,8.136-1.127,11.786-3.485c5.608-3.622,19.219-9.597,35.306-15.655
			c2.378,21.58,8.658,40.842,17.824,57.983c-5.196,3.252-9.904,6.327-13.956,8.977c-1.557,1.018-2.997,1.958-4.303,2.803
			c-10.093,6.52-12.989,19.987-6.468,30.082c4.163,6.442,11.156,9.951,18.295,9.951c4.045,0,8.137-1.125,11.787-3.484
			c1.364-0.881,2.868-1.863,4.493-2.925c3.996-2.612,9.408-6.146,15.576-9.934c21.989,23.81,50.073,41.959,79.315,55.41
			c64.577,29.706,141.055,40.026,192.95,40.026c51.892,0,128.371-10.32,192.949-40.026c29.241-13.451,57.326-31.601,79.314-55.409
			c6.173,3.791,11.587,7.326,15.586,9.939c1.621,1.06,3.119,2.039,4.479,2.917c3.652,2.36,7.742,3.485,11.789,3.485
			c7.138,0,14.132-3.51,18.295-9.95c6.521-10.094,3.626-23.563-6.466-30.082c-1.304-0.843-2.738-1.781-4.292-2.796
			c-4.054-2.649-8.766-5.729-13.965-8.982c9.167-17.144,15.446-36.407,17.826-57.99c16.092,6.061,29.709,12.037,35.318,15.66
			c3.649,2.358,7.741,3.485,11.786,3.485c7.139,0,14.134-3.512,18.296-9.955c6.52-10.093,3.623-23.562-6.47-30.082
			c-18.707-12.084-99.045-43.146-134.632-43.146c-12.017,0-21.758,9.742-21.758,21.758c0,12.017,9.741,21.758,21.758,21.758
			c5.377,0,13.222,1.352,22.313,3.553c-0.397,18.668-4.957,35.32-13.007,50.152c-11.041-3.979-22.205-6.564-32.713-6.564
			c-12.017,0-21.758,9.741-21.758,21.758s9.741,21.758,21.758,21.758c0.509,0,1.033,0.026,1.56,0.053
			c-13.479,11.209-29.592,20.911-47.752,29.266c-55.514,25.536-123.721,35.047-170.216,35.047
			c-46.496,0-114.704-9.511-170.219-35.047c-18.16-8.354-34.271-18.056-47.751-29.266c0.527-0.026,1.052-0.053,1.562-0.053
			c12.017,0,21.757-9.741,21.757-21.758s-9.74-21.758-21.757-21.758c-10.508,0-21.671,2.585-32.712,6.564
			c-8.049-14.832-12.609-31.483-13.004-50.148c9.096-2.204,16.946-3.557,22.325-3.557c12.017,0,21.757-9.741,21.757-21.758
			c0-12.016-9.74-21.758-21.757-21.758c-6.438,0-14.344,1.02-23.079,2.758c-0.129-11.96,0.083-23.556,1.386-35.488
			c2.557-23.403,9.184-44.178,24.815-62.651c5.59-6.607,12.545-13.177,21.274-19.589c12.106-8.888,14.715-25.909,5.826-38.018
			c-8.89-12.107-25.911-14.715-38.02-5.825c-4.32,3.172-8.397,6.437-12.252,9.783c-1.602-8.304-2.311-16.992-2.331-21.964v-67.885
			c0-22.676,7.485-34.55,15.151-41.156c8.42-7.254,20.407-10.973,32.889-10.973c2.552,0,8.932,1.398,20.091,6.44
			c10.417,4.707,22.053,11.185,34.341,18.261c11.77,6.777,24.605,14.389,35.66,20.085c5.605,2.887,11.448,5.654,17.095,7.746
			c5.212,1.93,12.422,4.127,20.141,4.127c15.974,0,26.283-1.716,37.009-3.034c10.47-1.286,24.123-2.627,49.803-2.627
			c25.685,0,39.334,1.341,49.803,2.627c10.727,1.318,21.039,3.034,37.01,3.034c7.72,0,14.93-2.197,20.14-4.127
			c5.646-2.092,11.488-4.857,17.095-7.745c11.058-5.695,23.894-13.307,35.66-20.084c12.29-7.076,23.927-13.553,34.341-18.259
			c11.157-5.042,17.54-6.44,20.095-6.44c12.479,0,24.465,3.719,32.886,10.973c7.668,6.606,15.153,18.48,15.153,41.154v67.882
			c-0.021,4.973-0.73,13.661-2.333,21.964c-3.855-3.346-7.932-6.61-12.251-9.783c-12.108-8.89-29.131-6.282-38.018,5.825
			c-8.894,12.108-6.281,29.129,5.823,38.018c8.728,6.412,15.683,12.982,21.273,19.589l3.069,3.626l4.119,2.373
			c6.553,3.774,14.585,6.491,23.603,6.037c9.204-0.467,16.873-4.108,22.68-8.764c10.399-8.344,15.658-20.536,18.494-28.854
			c6.08-17.828,7.89-39.157,7.934-49.816v-0.106v-67.989c0-36.25-12.776-64.04-34.043-82.365
			c-20.519-17.676-46.151-24.156-68.39-24.156c-14.815,0-30.136,5.684-42.489,11.265c-13.096,5.916-26.781,13.603-39.089,20.691
			c-12.828,7.387-23.864,13.939-33.43,18.868c-4.703,2.424-8.356,4.084-11.075,5.091c-1.138,0.422-1.864,0.634-2.241,0.734
			c-11.164-0.061-17.42-1.15-29.383-2.62c-12.569-1.544-28.438-3.034-56.436-3.034c-27.998,0-43.863,1.49-56.436,3.034
			c-11.958,1.47-18.218,2.559-29.381,2.62c-0.378-0.1-1.103-0.312-2.242-0.734c-2.719-1.007-6.372-2.668-11.074-5.092
			c-9.565-4.927-20.602-11.481-33.43-18.869c-12.309-7.088-25.993-14.776-39.088-20.693c-12.354-5.582-27.677-11.265-42.489-11.265
			c-22.242,0-47.875,6.48-68.393,24.156c-21.269,18.325-34.042,46.114-34.042,82.366v67.992h0l0,0.106
			c0.042,10.66,1.852,31.989,7.933,49.816c1.989,5.832,5.176,13.566,10.483,20.545c-10.299,20.417-15.188,41.472-17.407,61.782
			c-2.07,18.955-1.856,38.953-1.466,56.931c-25.465,8.978-48.465,19.079-57.401,24.852c-10.094,6.521-12.99,19.99-6.47,30.082
			C33.24,516.369,40.231,519.88,47.373,519.88z"/>
		<path fill="#103653" d="M301.775,390.916c-15.94,0-28.426,17.223-28.426,39.21c0,21.984,12.486,39.207,28.426,39.207
			c15.939,0,28.425-17.223,28.425-39.207C330.201,408.139,317.714,390.916,301.775,390.916z"/>
	</g>
</g>
</svg>
