<?xml version="1.0" encoding="utf-8"?>
<!-- Generator: Adobe Illustrator 15.0.0, SVG Export Plug-In . SVG Version: 6.00 Build 0)  -->
<!DOCTYPE svg PUBLIC "-//W3C//DTD SVG 1.1//EN" "http://www.w3.org/Graphics/SVG/1.1/DTD/svg11.dtd">
<svg version="1.1" id="Calque_1" xmlns="http://www.w3.org/2000/svg" xmlns:xlink="http://www.w3.org/1999/xlink" x="0px" y="0px"
	 width="800px" height="800px" viewBox="0 0 800 800" enable-background="new 0 0 800 800" xml:space="preserve">
<g>
	<path fill="#103653" d="M87.333,121.756v555.927c0,65.794,53.335,119.127,119.127,119.127h397.09
		c65.794,0,119.127-53.333,119.127-119.127V280.592c0-65.792-53.333-119.127-119.127-119.127H127.042
		C105.112,161.465,87.333,143.686,87.333,121.756z M216.387,399.719c0-16.447,13.334-29.782,29.782-29.782h317.672
		c16.447,0,29.782,13.335,29.782,29.782c0,16.447-13.335,29.782-29.782,29.782H246.169
		C229.722,429.501,216.387,416.166,216.387,399.719z M216.387,538.701c0-16.448,13.334-29.782,29.782-29.782h218.4
		c16.446,0,29.781,13.334,29.781,29.782c0,16.447-13.335,29.781-29.781,29.781h-218.4
		C229.722,568.482,216.387,555.148,216.387,538.701z"/>
	<path fill="#103653" d="M103.566,85.506c13.838,6.205,23.477,20.101,23.477,36.25h476.508c13.711,0,27.018,1.737,39.708,5.004
		v-32.56c0-48.33-42.807-85.455-90.647-78.62L123.85,76.831C116.207,77.924,109.281,81.004,103.566,85.506z"/>
</g>
</svg>
