<?xml version="1.0" encoding="utf-8"?>
<!-- Generator: Adobe Illustrator 15.0.0, SVG Export Plug-In . SVG Version: 6.00 Build 0)  -->
<!DOCTYPE svg PUBLIC "-//W3C//DTD SVG 1.1//EN" "http://www.w3.org/Graphics/SVG/1.1/DTD/svg11.dtd">
<svg version="1.1" id="Calque_1" xmlns="http://www.w3.org/2000/svg" xmlns:xlink="http://www.w3.org/1999/xlink" x="0px" y="0px"
	 width="583.333px" height="583.333px" viewBox="108.333 108.334 583.333 583.333"
	 enable-background="new 108.333 108.334 583.333 583.333" xml:space="preserve">
<path fill="#113653" d="M600,691.667H200c-24.312,0-47.627-9.656-64.818-26.85c-17.191-17.19-26.849-40.507-26.849-64.817V200
	c0-24.312,9.658-47.627,26.849-64.817c17.19-17.191,40.506-26.849,64.818-26.849h295.333c6.63,0,12.99,2.634,17.677,7.322
	c4.69,4.688,7.323,11.047,7.323,17.678c0,6.63-2.633,12.989-7.323,17.678c-4.687,4.688-11.047,7.322-17.677,7.322H200
	c-11.051,0-21.648,4.39-29.463,12.203c-7.814,7.814-12.204,18.412-12.204,29.463v400c0,11.051,4.39,21.65,12.204,29.464
	c7.814,7.813,18.412,12.203,29.463,12.203h400c11.05,0,21.65-4.39,29.463-12.203c7.813-7.813,12.204-18.413,12.204-29.464V343
	c0-6.63,2.633-12.989,7.323-17.678c4.687-4.688,11.046-7.322,17.677-7.322c6.63,0,12.989,2.635,17.677,7.322
	c4.689,4.688,7.323,11.048,7.323,17.678v257c0,24.311-9.657,47.627-26.851,64.817C647.627,682.01,624.31,691.667,600,691.667z"/>
<path fill="#113653" d="M350,508.334c-6.43-0.493-12.413-3.483-16.667-8.334l-100-100c-2.228-4.666-2.955-9.906-2.081-15.003
	c0.875-5.094,3.307-9.794,6.962-13.45c3.656-3.653,8.354-6.087,13.45-6.96c5.095-0.877,10.336-0.15,15.001,2.08L349,449
	l284.333-282.334c4.667-2.228,9.907-2.955,15.004-2.08c5.093,0.874,9.793,3.307,13.449,6.962c3.654,3.655,6.087,8.354,6.961,13.45
	c0.876,5.095,0.149,10.337-2.08,15.002l-300,300C362.413,504.85,356.434,507.841,350,508.334z"/>
</svg>
