<?xml version="1.0" encoding="utf-8"?>
<!-- Generator: Adobe Illustrator 15.0.0, SVG Export Plug-In . SVG Version: 6.00 Build 0)  -->
<!DOCTYPE svg PUBLIC "-//W3C//DTD SVG 1.1//EN" "http://www.w3.org/Graphics/SVG/1.1/DTD/svg11.dtd">
<svg version="1.1" id="Layer_1" xmlns="http://www.w3.org/2000/svg" xmlns:xlink="http://www.w3.org/1999/xlink" x="0px" y="0px"
	 width="800px" height="718.447px" viewBox="0 0 800 718.447" enable-background="new 0 0 800 718.447" xml:space="preserve">
<rect x="527.5" y="166.949" fill="#F2972E" width="247" height="247"/>
<g>
	<g>
		<path fill="#113653" d="M773.68,142.181h-11.053V112.04C762.627,50.263,712.365,0,650.584,0
			c-61.777,0-112.04,50.262-112.04,112.04v30.142H527.49c-14.535,0-26.32,11.784-26.32,26.319v25.683H80.866
			C36.276,194.183,0,230.461,0,275.052v362.531c0,44.59,36.276,80.865,80.866,80.865h570.967c44.591,0,80.865-36.277,80.865-80.865
			V441.007h40.98c14.536,0,26.32-11.783,26.32-26.318V168.501C800,153.966,788.216,142.181,773.68,142.181z M591.186,112.04
			c0-32.753,26.647-59.398,59.402-59.398c32.753,0,59.399,26.646,59.399,59.398v30.142H591.187L591.186,112.04L591.186,112.04z
			 M52.641,275.051c0-15.564,12.663-28.228,28.227-28.228h420.305v55.3H52.641V275.051z M680.06,637.581
			c0,15.566-12.662,28.229-28.227,28.229H80.866c-15.564,0-28.227-12.662-28.227-28.227v-282.82h448.535v59.921
			c0,14.535,11.784,26.318,26.32,26.318h152.563v196.576h0.003V637.581z M747.359,388.366H553.814V194.821h193.545V388.366z"/>
	</g>
</g>
<g>
	<g>
		<path fill="#113653" d="M687.81,291.594l23.239-23.239c10.279-10.279,10.279-26.943,0-37.223
			c-10.276-10.277-26.944-10.277-37.223,0l-23.238,23.239l-23.239-23.239c-10.275-10.277-26.943-10.277-37.222,0
			c-10.28,10.278-10.28,26.943,0,37.223l23.238,23.239l-23.238,23.238c-10.28,10.279-10.28,26.943,0,37.223
			c5.139,5.139,11.875,7.709,18.609,7.709c6.733,0,13.472-2.569,18.608-7.709l23.238-23.239l23.239,23.239
			c5.14,5.139,11.875,7.709,18.61,7.709s13.476-2.571,18.614-7.709c10.279-10.278,10.279-26.944,0-37.223L687.81,291.594z"/>
	</g>
</g>
</svg>
