<?xml version="1.0" encoding="utf-8"?>
<!-- Generator: Adobe Illustrator 15.0.0, SVG Export Plug-In . SVG Version: 6.00 Build 0)  -->
<!DOCTYPE svg PUBLIC "-//W3C//DTD SVG 1.1//EN" "http://www.w3.org/Graphics/SVG/1.1/DTD/svg11.dtd">
<svg version="1.1" id="Calque_1" xmlns="http://www.w3.org/2000/svg" xmlns:xlink="http://www.w3.org/1999/xlink" x="0px" y="0px"
	 width="705px" height="555px" viewBox="61.5 122.5 705 555" enable-background="new 61.5 122.5 705 555" xml:space="preserve">
<title>ionicons-v5-j</title>
<path fill="#113653" d="M676.5,677.5h-325c-49.626,0-90-40.374-90-90V525c0-15.188,12.312-27.5,27.5-27.5s27.5,12.313,27.5,27.5
	v62.5c0,19.299,15.701,35,35,35h325c19.299,0,35-15.701,35-35v-375c0-19.299-15.701-35-35-35h-325c-19.299,0-35,15.701-35,35V275
	c0,15.188-12.312,27.5-27.5,27.5s-27.5-12.312-27.5-27.5v-62.5c0-49.626,40.374-90,90-90h325c49.626,0,90,40.374,90,90v375
	C766.5,637.126,726.126,677.5,676.5,677.5z"/>
<path fill="#113653" d="M583.445,380.554l-125-125c-10.739-10.739-28.151-10.739-38.891,0c-10.74,10.739-10.74,28.151,0,38.891
	l78.055,78.055H89c-15.188,0-27.5,12.312-27.5,27.5c0,15.188,12.312,27.5,27.5,27.5h408.609l-78.055,78.055
	c-10.74,10.739-10.74,28.151,0,38.891c5.369,5.37,12.407,8.055,19.445,8.055s14.076-2.685,19.445-8.055l125-125
	C594.185,408.706,594.185,391.294,583.445,380.554z"/>
</svg>
