<?xml version="1.0" encoding="utf-8"?>
<!-- Generator: Adobe Illustrator 15.0.0, SVG Export Plug-In . SVG Version: 6.00 Build 0)  -->
<!DOCTYPE svg PUBLIC "-//W3C//DTD SVG 1.1//EN" "http://www.w3.org/Graphics/SVG/1.1/DTD/svg11.dtd">
<svg version="1.1" id="_x32_" xmlns="http://www.w3.org/2000/svg" xmlns:xlink="http://www.w3.org/1999/xlink" x="0px" y="0px"
	 width="800px" height="800px" viewBox="0 0 800 800" enable-background="new 0 0 800 800" xml:space="preserve">
<g>
	<path fill="#103653" d="M122.878,185.833c35.749,0,64.711-28.986,64.711-64.709c0-35.763-28.962-64.724-64.711-64.724
		c-35.761,0-64.722,28.961-64.722,64.724C58.155,156.848,87.117,185.833,122.878,185.833z"/>
	<path fill="#103653" d="M399.541,357.392v0.097c0.157,0,0.301-0.049,0.459-0.049s0.303,0.049,0.459,0.049v-0.097
		c24.317-0.495,43.879-20.275,43.879-44.689c0-24.45-19.563-44.217-43.879-44.714v-0.097c-0.156,0-0.301,0.048-0.459,0.048
		s-0.302-0.048-0.459-0.048v0.097c-24.317,0.497-43.879,20.264-43.879,44.714C355.662,337.116,375.224,356.895,399.541,357.392z"/>
	<path fill="#103653" d="M677.122,185.833c35.761,0,64.724-28.986,64.724-64.709c0-35.763-28.963-64.724-64.724-64.724
		c-35.749,0-64.71,28.961-64.71,64.724C612.412,156.848,641.375,185.833,677.122,185.833z"/>
	<path fill="#103653" d="M800,499.492V281.973c0-31.369-34.115-65.484-65.474-65.484h-9.061l-45.028,45.028l-44.084-44.085
		c-27.874,4.077-52.444,21.352-65.497,46.903l-52.335,153.073c-1.803,3.508-5.152,6.001-9.05,6.689
		c-3.896,0.69-7.888-0.484-10.803-3.182l-32.555-28.188c-9.737-9.014-22.515-14.021-35.784-14.021H400h-30.328
		c-13.271,0-26.047,5.01-35.786,14.021l-32.555,28.188c-2.915,2.697-6.909,3.872-10.803,3.182c-3.897-0.69-7.247-3.182-9.05-6.689
		l-52.334-153.073c-15-29.36-45.197-47.847-78.175-47.847h-28.756H65.474C34.116,216.489,0,250.604,0,281.973v217.518
		c0,15.68,12.703,28.394,28.383,28.394c7.717,0,0,0,19.815,0l10.791,185.507c0,16.683,13.537,30.207,30.22,30.207
		c7.041,0,20.022,0,33.003,0c12.98,0,25.961,0,33.001,0c16.683,0,30.221-13.524,30.221-30.207l10.791-185.507l-0.134-132.445
		c0-2.093,1.428-3.896,3.472-4.403c2.045-0.484,4.138,0.483,5.094,2.347l41.521,102.189c5.008,9.775,14.3,16.646,25.115,18.572
		c10.814,1.922,21.908-1.319,29.979-8.772l39.728-29.264c1.332-1.222,3.255-1.536,4.9-0.847c1.658,0.737,2.722,2.371,2.722,4.16
		l0.147,114.856l7.464,128.417c0,11.543,9.375,20.905,20.93,20.905c4.862,0,13.852,0,22.841,0c8.988,0,17.978,0,22.84,0
		c11.554,0,20.929-9.362,20.929-20.905l7.464-128.417l0.146-114.856c0-1.79,1.063-3.425,2.722-4.16
		c1.646-0.691,3.568-0.375,4.9,0.847l39.728,29.264c8.069,7.453,19.163,10.694,29.979,8.772
		c10.814-1.924,20.106-8.796,25.114-18.572l41.519-102.189c0.957-1.862,3.049-2.831,5.094-2.347
		c2.044,0.508,3.473,2.311,3.473,4.403l-0.049,50.519l-43.564,135.388c-1.029,3.205-0.472,6.713,1.512,9.436
		c1.984,2.723,5.152,4.332,8.517,4.332h37.359l6.883,118.279c0,16.683,13.538,30.208,30.221,30.208c7.04,0,20.021,0,33.001,0
		c12.981,0,25.961,0,33.004,0c16.683,0,30.219-13.525,30.219-30.208l6.884-118.279h41.278c3.362,0,6.533-1.609,8.518-4.332
		s2.54-6.23,1.512-9.436l-17.795-55.298C792.245,522.043,800,511.711,800,499.492z M133.475,248.573v116.551h-34.43V248.573H133.475
		z"/>
</g>
</svg>
