<?xml version="1.0" encoding="utf-8"?>
<!-- Generator: Adobe Illustrator 15.0.0, SVG Export Plug-In . SVG Version: 6.00 Build 0)  -->
<!DOCTYPE svg PUBLIC "-//W3C//DTD SVG 1.1//EN" "http://www.w3.org/Graphics/SVG/1.1/DTD/svg11.dtd">
<svg version="1.1" id="Calque_1" xmlns="http://www.w3.org/2000/svg" xmlns:xlink="http://www.w3.org/1999/xlink" x="0px" y="0px"
	 width="800px" height="761.905px" viewBox="0 18.549 800 761.905" enable-background="new 0 18.549 800 761.905"
	 xml:space="preserve">
<title>important_message [#1448]</title>
<desc>Created with Sketch.</desc>
<g id="Page-1">
	<g id="Dribbble-Light-Preview" transform="translate(-139.000000, -520.000000)">
		<g id="icons" transform="translate(56.000000, 160.000000)">
			<path id="important_x5F_message-_x5B__x23_1448_x5D_" fill="#113653" d="M523,569.291v266.667c0,21.029-17.921,38.096-40,38.096
				c-22.08,0-40-17.066-40-38.096V569.291c0-21.028,17.92-38.095,40-38.095C505.079,531.196,523,548.262,523,569.291L523,569.291z
				 M523,950.244c0,21.028-17.921,38.095-40,38.095c-22.08,0-40-17.066-40-38.095s17.92-38.096,40-38.096
				C505.079,912.148,523,929.216,523,950.244L523,950.244z M803,1026.168c0,21.029-17.92,38.096-40,38.096H203
				c-22.081,0-40-17.066-40-38.096V492.835c0-21.029,17.92-38.096,40-38.096h560c22.08,0,40,17.066,40,38.096V1026.168z
				 M803,378.549H163c-44.2,0-80,34.247-80,76.305v0.152v609.523c0,42.096,35.8,75.925,80,75.925h640c44.199,0,80-33.981,80-76.076
				V455.006C883,412.911,843,378.549,803,378.549L803,378.549z"/>
		</g>
	</g>
</g>
</svg>
