<?xml version="1.0" encoding="utf-8"?>
<!-- Generator: Adobe Illustrator 15.0.0, SVG Export Plug-In . SVG Version: 6.00 Build 0)  -->
<!DOCTYPE svg PUBLIC "-//W3C//DTD SVG 1.1//EN" "http://www.w3.org/Graphics/SVG/1.1/DTD/svg11.dtd">
<svg version="1.1" id="Capa_1" xmlns="http://www.w3.org/2000/svg" xmlns:xlink="http://www.w3.org/1999/xlink" x="0px" y="0px"
	 width="691.266px" height="800px" viewBox="54.367 0 691.266 800" enable-background="new 54.367 0 691.266 800"
	 xml:space="preserve">
<g>
	<g>
		<g>
			<path fill="#113653" d="M562.286,181.715c33.959-40.816,54.367-93.388,54.367-147.756C616.653,15.347,601.306,0,582.694,0
				H217.469c-18.612,0-33.959,15.348-33.959,33.959c0,54.368,18.612,106.939,54.367,147.756
				C125.714,248,54.367,380.408,54.367,526.531c0,244.571,197.062,273.47,344.816,273.47S744,771.102,745.633,526.531
				C745.633,382.204,674.286,249.633,562.286,181.715z M399.184,732.082c-197.061,0-278.531-59.429-278.531-205.551
				c0-129.144,66.286-246.204,169.796-297.307c13.551-6.857,23.837-20.408,25.469-35.592c1.633-15.347-3.428-32.326-15.347-42.449
				c-23.836-22.04-40.816-50.938-47.51-83.265h292.082c-6.856,32.326-23.837,61.225-47.51,83.265
				c-11.919,10.123-16.979,27.103-15.347,42.449c1.632,15.347,11.918,28.898,25.469,35.592
				c103.674,50.938,169.796,168.163,169.796,297.307C677.714,672.653,596.245,732.082,399.184,732.082z"/>
		</g>
		<path fill="#113653" d="M485.551,521.633c0-47.184-38.367-85.551-85.551-85.551c-18.612,0-33.796-15.184-33.796-33.796
			S381.388,368.49,400,368.49c9.47,0,18.122,3.755,24.653,10.612c9.796,10.449,26.285,10.938,36.571,1.143
			c10.449-9.796,10.938-26.286,1.143-36.571c-9.959-10.612-22.693-18.449-36.408-22.857v-15.021
			c0-14.367-11.592-25.959-25.959-25.959s-25.959,11.592-25.959,25.959v15.021c-34.612,10.939-59.592,43.429-59.592,81.633
			c0,47.184,38.367,85.552,85.551,85.552c18.612,0,33.796,15.184,33.796,33.796S418.612,555.593,400,555.593
			c-9.47,0-18.122-3.756-24.653-10.612c-9.796-10.449-26.285-10.939-36.571-1.144c-10.449,9.796-10.938,26.286-1.143,36.572
			c9.959,10.611,22.693,18.448,36.408,22.856v15.021c0,14.367,11.592,25.959,25.959,25.959s25.959-11.592,25.959-25.959v-15.021
			C460.408,592.164,485.551,559.674,485.551,521.633z"/>
	</g>
</g>
</svg>
