<?xml version="1.0" encoding="utf-8"?>
<!-- Generator: Adobe Illustrator 15.0.0, SVG Export Plug-In . SVG Version: 6.00 Build 0)  -->
<!DOCTYPE svg PUBLIC "-//W3C//DTD SVG 1.1//EN" "http://www.w3.org/Graphics/SVG/1.1/DTD/svg11.dtd">
<svg version="1.1" id="Calque_1" xmlns="http://www.w3.org/2000/svg" xmlns:xlink="http://www.w3.org/1999/xlink" x="0px" y="0px"
	 width="780px" height="192.34px" viewBox="0 0 780 192.34" enable-background="new 0 0 780 192.34" xml:space="preserve">
<rect x="-5" y="-16.66" fill="#F8F9F6" width="797.5" height="218"/>
<path fill="#103653" d="M36.915,46.099C41.951,57.798,53.304,65.97,66.526,65.97c10.806,0.041,20.932-5.562,27.01-14.955
	c5.501,4.039,12.047,6.203,18.756,6.192c5.462,0,10.592-1.403,15.101-3.838c0.416,18.051,14.732,32.596,32.371,32.596
	c10.382,0,19.609-5.069,25.539-12.897c14.596,31.006,45.413,52.356,81.107,52.356c39.66,0,73.327-26.418,85.354-63.094
	c4.563,2.401,9.586,3.653,14.689,3.649c7.438,0,14.27-2.604,19.742-6.953c5.219,29.972,30.589,52.729,61.186,52.729
	c27.225,0,50.305-18.058,58.756-43.129c2.565,1.078,5.352,1.688,8.307,1.688c7.109,0.035,13.802-3.562,17.969-9.625
	c14.34,9.914,31.584,15.699,50.154,15.699c14.742,0,28.642-3.685,40.932-10.14c1.786,33.757,28.838,60.582,62.054,60.582
	c30.583,0,55.967-22.759,61.18-52.746c5.686,4.522,12.62,6.979,19.744,6.972c5.297,0,10.273-1.334,14.69-3.654
	c12.023,36.675,45.683,63.095,85.35,63.095c47.209,0,85.928-37.412,89.775-85.022c11.087,4.821,22.982,7.274,34.979,7.252
	c23.989,0,45.768-9.678,61.918-25.424c16.325,23.647,43.125,39.094,73.459,39.094c37.604,0,69.805-23.735,83.316-57.456
	c5.088,3.208,10.905,4.896,16.838,4.896c0.906,0,1.798-0.063,2.691-0.14c9.764,40.392,45.196,70.318,87.425,70.318
	c36.25,0,67.486-22.082,81.785-53.863c2.571,1.066,5.375,1.688,8.32,1.688c2.6,0,5.099-0.494,7.456-1.357
	c6.212,7.701,15.347,12.138,24.94,12.093c14.386,0,26.538-9.627,30.796-22.974c15.848,14.285,36.604,22.974,59.329,22.974
	c30.326,0,57.119-15.425,73.458-39.073c16.148,15.745,37.931,25.425,61.908,25.425c12.398,0,24.226-2.584,34.992-7.257
	c3.85,47.623,42.534,85.022,89.771,85.022c39.673,0,73.323-26.418,85.362-63.096c4.411,2.326,9.385,3.653,14.664,3.653
	c7.124,0.022,14.059-2.433,19.738-6.957c5.223,29.97,30.6,52.729,61.192,52.729c33.202,0,60.26-26.819,62.051-60.565
	c12.703,6.687,26.721,10.155,40.93,10.127c18.563,0,35.813-5.791,50.146-15.683c4.165,6.063,10.858,9.632,17.969,9.619
	c2.942,0,5.744-0.603,8.32-1.682c8.436,25.088,31.518,43.125,58.74,43.125c30.58,0,55.968-22.761,61.189-52.744
	c5.688,4.522,12.623,6.979,19.736,6.971c5.313,0,10.279-1.332,14.696-3.649c12.032,36.672,45.695,63.093,85.362,63.093
	c7.714,0,15.188-1.058,22.329-2.943V-4.999H-5v47.854c6.105,6.246,14.294,9.726,22.813,9.703
	C24.964,52.558,31.552,50.14,36.915,46.099z"/>
</svg>
