<?xml version="1.0" encoding="utf-8"?>
<!-- Generator: Adobe Illustrator 15.0.0, SVG Export Plug-In . SVG Version: 6.00 Build 0)  -->
<!DOCTYPE svg PUBLIC "-//W3C//DTD SVG 1.1//EN" "http://www.w3.org/Graphics/SVG/1.1/DTD/svg11.dtd">
<svg version="1.1" id="Calque_1" xmlns="http://www.w3.org/2000/svg" xmlns:xlink="http://www.w3.org/1999/xlink" x="0px" y="0px"
	 width="800px" height="800px" viewBox="0 0 800 800" enable-background="new 0 0 800 800" xml:space="preserve">
<title>stop</title>
<path fill="#113653" d="M539.05,50H250.275L43.75,255.975V544l206.525,206l288.775-1.824L743.75,544V255.975L539.05,50z
	 M718.75,533.725l-190.1,189.575l-268.125,1.7L68.75,533.725V266.25L260.525,75h268.15l190.101,191.25v267.476H718.75z
	 M604.775,399.425c4.8-1.274,8.824-3.524,12-6.75c2.85-2.899,4.949-6.05,6.25-9.475c1.324-3.45,1.975-7.425,1.975-12
	c0-4.975-0.85-9.3-2.6-13c-1.726-3.65-4.351-6.675-7.851-9c-3.075-2-6.625-3.425-10.7-4.25c-4.074-0.825-9.125-1.274-15.175-1.274
	H572.65v57.625h13.175C593.65,401.301,599.975,400.676,604.775,399.425L604.775,399.425z M500.075,355.625
	c-3.825-5.024-8.476-8.8-13.925-11.3c-5.45-2.5-11.551-3.75-18.325-3.75c-7.025,0-13.175,1.225-18.425,3.65
	c-5.25,2.475-9.9,6.25-13.95,11.399c-3.825,4.95-6.775,11.175-8.851,18.65c-2.074,7.475-3.074,15.975-3.074,25.425
	c0,19.101,4,33.726,12,43.851c8.024,10.125,18.774,15.175,32.274,15.175s24.226-5.05,32.2-15.175s11.975-24.75,11.975-43.851
	c0-9.649-1.05-18.175-3.125-25.6C506.775,366.65,503.85,360.5,500.075,355.625L500.075,355.625z M265.65,87.5L81.25,271.4v257.15
	l184.4,183.925l257.825-1.625l182.775-182.3V271.4L523.475,87.5H265.65L265.65,87.5z M262.55,447.876
	c-2.325,5.524-5.575,10.199-9.725,14.05c-4.7,4.225-10,7.5-15.9,9.774c-5.9,2.275-13.275,3.426-22.15,3.426
	c-10.575,0-19.525-1.101-26.925-3.275S173.5,467,167,463.801v-24.226h1.375c6.4,5.95,13.625,10.575,21.7,13.851
	c8.075,3.274,15.875,4.899,23.375,4.899c10.7,0,18.775-2.225,24.25-6.675c5.475-4.45,8.225-10.325,8.225-17.625
	c0-5.75-1.45-10.5-4.325-14.125s-7.45-6.325-13.725-8.075c-4.525-1.325-8.625-2.4-12.325-3.225c-3.7-0.825-8.4-2-14-3.45
	c-5.025-1.3-9.55-2.95-13.5-4.976c-3.975-2-7.525-4.649-10.575-7.899c-3-3.2-5.35-6.95-7-11.275s-2.5-9.325-2.5-15.024
	c0-11.801,4.6-21.65,13.8-29.65c9.2-8,20.95-11.975,35.225-11.975c8.15,0,15.875,0.824,23.15,2.449s14.025,3.926,20.225,6.9v23.075
	H258.9c-4.65-4.175-10.575-7.8-17.825-10.95s-14.875-4.7-22.825-4.7c-9,0-16.275,2.101-21.825,6.3c-5.55,4.2-8.325,9.7-8.325,16.525
	c0,6.175,1.625,11.075,4.9,14.725c3.275,3.65,8,6.325,14.2,8c4.1,1.101,9.125,2.375,15.075,3.75c5.95,1.375,10.875,2.676,14.8,3.851
	c10.025,3.075,17.375,7.7,22,13.899c4.65,6.176,6.95,13.801,6.95,22.851C266.025,436.725,264.875,442.325,262.55,447.876
	L262.55,447.876z M397.175,347.2H349.9v125.2h-24.025V347.2h-45.7v-21.875h117V347.2L397.175,347.2z M553.325,326.875h36.524
	c8.601,0,15.926,0.726,21.976,2.15s11.399,3.75,16.024,6.925c5.4,3.7,9.65,8.425,12.7,14.1c3.05,5.726,4.601,12.601,4.601,20.65
	c0,6.325-1.125,12.3-3.375,17.925c-2.25,5.65-5.351,10.45-9.325,14.4c-5,4.95-10.925,8.7-17.675,11.225
	c-6.775,2.55-15.325,3.8-25.676,3.8H572.7v54.301h-19.325V326.875H553.325z M532.125,399.675c0,11.825-1.5,22.476-4.5,32.001
	c-3,9.524-7.325,17.5-13.025,23.975c-5.925,6.775-12.85,11.8-20.75,15.025c-7.925,3.225-16.625,4.824-26.149,4.824
	c-9.851,0-18.7-1.649-26.575-4.975s-14.65-8.274-20.325-14.875c-5.6-6.475-9.899-14.425-12.899-23.875c-3-9.475-4.5-20.175-4.5-32.1
	c0-12.25,1.524-23.025,4.55-32.275c3.024-9.25,7.35-17.226,12.95-23.875c5.625-6.476,12.375-11.375,20.3-14.725
	c7.899-3.375,16.774-5.051,26.55-5.051c9.9,0,18.825,1.726,26.775,5.2c7.925,3.45,14.649,8.3,20.125,14.575
	c5.55,6.4,9.85,14.3,12.925,23.775C530.6,376.75,532.125,387.551,532.125,399.675L532.125,399.675z"/>
</svg>
