<?xml version="1.0" encoding="utf-8"?>
<!-- Generator: Adobe Illustrator 15.0.0, SVG Export Plug-In . SVG Version: 6.00 Build 0)  -->
<!DOCTYPE svg PUBLIC "-//W3C//DTD SVG 1.1//EN" "http://www.w3.org/Graphics/SVG/1.1/DTD/svg11.dtd">
<svg version="1.1" id="Calque_1" xmlns="http://www.w3.org/2000/svg" xmlns:xlink="http://www.w3.org/1999/xlink" x="0px" y="0px"
	 width="841.89px" height="145.591px" viewBox="0 -97.409 841.89 145.591" enable-background="new 0 -97.409 841.89 145.591"
	 xml:space="preserve">
<g>
	<g>
		
			<linearGradient id="SVGID_1_" gradientUnits="userSpaceOnUse" x1="420.9443" y1="48.1858" x2="420.9443" y2="-97.4084" gradientTransform="matrix(-1 0 0 -1 841.8896 -49.2241)">
			<stop  offset="0" style="stop-color:#96D2CA"/>
			<stop  offset="0.0841" style="stop-color:#ABDAD3"/>
			<stop  offset="0.2231" style="stop-color:#C7E5E0"/>
			<stop  offset="0.3732" style="stop-color:#DDEEEA"/>
			<stop  offset="0.5377" style="stop-color:#ECF4F1"/>
			<stop  offset="0.7274" style="stop-color:#F5F8F5"/>
			<stop  offset="1" style="stop-color:#F8F9F6"/>
		</linearGradient>
		<path fill="url(#SVGID_1_)" d="M827.292-66.147c-1.754-3.875-5.709-6.581-10.314-6.581c-3.932,0-7.387,1.969-9.408,4.953
			c-1.846-1.287-4.096-2.052-6.533-2.052c-1.901,0-3.688,0.466-5.26,1.275c-0.145-5.982-5.131-10.795-11.275-10.795
			c-3.616,0-6.829,1.674-8.896,4.269c-5.084-10.265-15.817-17.34-28.25-17.34c-13.813,0-25.541,8.749-29.729,20.896
			c-1.536-0.769-3.272-1.209-5.116-1.209c-2.593,0-4.972,0.863-6.877,2.303c-1.816-9.926-10.654-17.463-21.312-17.463
			c-9.481,0-17.521,5.977-20.465,14.283c-0.893-0.357-1.863-0.56-2.891-0.56c-2.59,0-4.873,1.263-6.26,3.188
			c-4.994-3.283-11.002-5.199-17.469-5.199c-5.136,0-9.978,1.215-14.257,3.357c-0.623-11.179-10.045-20.062-21.612-20.062
			c-10.654,0-19.494,7.537-21.312,17.465c-1.903-1.438-4.285-2.305-6.877-2.305c-1.845,0-3.578,0.441-5.115,1.21
			c-4.188-12.146-15.911-20.896-29.729-20.896c-16.443,0-29.924,12.391-31.266,28.158c-3.746-1.549-7.861-2.401-12.185-2.401
			c-8.354,0-15.94,3.205-21.565,8.42c-5.689-7.832-15.023-12.947-25.587-12.947c-13.098,0-24.315,7.861-29.02,19.028
			c-1.711-1.022-3.715-1.622-5.865-1.622c-0.314,0-0.625,0.021-0.936,0.046c-3.402-13.376-15.742-23.288-30.451-23.288
			c-12.627,0-23.506,7.311-28.486,17.839c-0.895-0.356-1.873-0.56-2.896-0.56c-0.912,0-1.783,0.164-2.598,0.45
			c-2.068-2.445-5.191-4.005-8.689-4.005c-5.008,0-9.244,3.192-10.725,7.612c-5.52-4.735-12.748-7.612-20.664-7.612
			c-10.563,0-19.895,5.112-25.586,12.944c-5.625-5.215-13.211-8.42-21.564-8.42c-4.32,0-8.439,0.855-12.184,2.402
			c-1.342-15.771-14.82-28.158-31.27-28.158c-13.816,0-25.539,8.75-29.73,20.897c-1.537-0.771-3.27-1.21-5.113-1.21
			c-2.594,0-4.973,0.861-6.875,2.303c-1.818-9.925-10.658-17.463-21.314-17.463c-11.563,0-20.988,8.883-21.611,20.059
			c-4.277-2.142-9.119-3.355-14.256-3.355c-6.465,0-12.475,1.918-17.467,5.197c-1.389-1.926-3.672-3.186-6.26-3.186
			c-1.023,0-2,0.199-2.895,0.557c-2.939-8.309-10.979-14.283-20.461-14.283c-10.652,0-19.494,7.539-21.313,17.465
			c-1.904-1.438-4.285-2.305-6.875-2.305c-1.844,0-3.58,0.441-5.117,1.209C33.318-75.782,21.596-84.532,7.779-84.532
			c-2.688,0-5.291,0.35-7.779,0.975V48.185h841.89V-65.073c-2.037-1.984-4.844-3.213-7.945-3.213
			C831.455-68.286,829.16-67.486,827.292-66.147z"/>
	</g>
</g>
</svg>
