<?xml version="1.0" encoding="utf-8"?>
<!-- Generator: Adobe Illustrator 15.0.0, SVG Export Plug-In . SVG Version: 6.00 Build 0)  -->
<!DOCTYPE svg PUBLIC "-//W3C//DTD SVG 1.1//EN" "http://www.w3.org/Graphics/SVG/1.1/DTD/svg11.dtd">
<svg version="1.1" id="Calque_1" xmlns="http://www.w3.org/2000/svg" xmlns:xlink="http://www.w3.org/1999/xlink" x="0px" y="0px"
	 width="641.783px" height="641.782px" viewBox="-24 98.803 641.783 641.782" enable-background="new -24 98.803 641.783 641.782"
	 xml:space="preserve">
<path fill="#F79927" d="M72.268,98.803h449.248c53.165,0,96.268,43.1,96.268,96.268v449.248c0,53.167-43.103,96.267-96.268,96.267
	H72.268c-53.167,0-96.268-43.1-96.268-96.267V195.071C-24,141.903,19.101,98.803,72.268,98.803z"/>
<circle fill="#F8F9F6" cx="157.755" cy="558.831" r="43.872"/>
<path fill="#F8F9F6" d="M490.933,603.957h-64.688c0-172.93-140.688-313.618-313.616-313.618v-64.687
	c50.927,0,100.408,10.037,147.067,29.832c45.014,19.097,85.466,46.408,120.232,81.173s62.076,75.218,81.173,120.231
	C480.896,503.549,490.933,553.029,490.933,603.957z M348.037,603.957H283.35c0-94.136-76.585-170.721-170.72-170.721v-64.688
	c62.595,0,121.632,24.565,166.237,69.171C323.471,482.324,348.037,541.362,348.037,603.957z"/>
</svg>
