<svg xmlns="http://www.w3.org/2000/svg" width="800" height="800" xml:space="preserve"><path opacity=".1" fill="#F79927" d="M-370.771 300.561c-32.731-13.968-64.777 18.032-96.065 18.032h-8.336c-31.288 0-63.334-32-96.065-18.032-30.721 13.107-48.273 67.8-48.273 99.649 0 35.177 16.391 81.772 52.339 93.05 24.82 7.786 64.479-14.667 92-14.667h8.336c27.521 0 67.18 22.453 92 14.667 35.948-11.276 52.339-57.873 52.339-93.05-.001-31.849-17.554-86.54-48.275-99.649zm-204.967 99.853c-6.867 0-12.434-5.565-12.434-12.434 0-6.866 5.566-12.434 12.434-12.434 6.866 0 12.434 5.566 12.434 12.434-.001 6.867-5.568 12.434-12.434 12.434zm104.734 66.951c-37.371 0-67.667-30.295-67.667-67.667s30.296-67.667 67.667-67.667 67.667 30.295 67.667 67.667-30.296 67.667-67.667 67.667zm104.734-66.441c-6.866 0-12.434-5.566-12.434-12.435 0-6.866 5.567-12.433 12.434-12.433s12.434 5.565 12.434 12.433c0 6.868-5.566 12.435-12.434 12.435z"/><path fill="none" stroke="#103653" stroke-width="8" stroke-miterlimit="10" d="M-475.172 478.594c-27.521 0-67.18 22.453-92 14.667-35.948-11.276-52.339-57.873-52.339-93.05 0-31.851 17.553-86.542 48.273-99.649 32.731-13.968 64.777 18.032 96.065 18.032"/><circle fill="none" stroke="#103653" stroke-width="8" stroke-miterlimit="10" cx="-471.004" cy="399.698" r="67.667"/><circle fill="none" stroke="#103653" stroke-width="7.278" stroke-miterlimit="10" cx="-575.738" cy="387.98" r="12.434"/><path fill="none" stroke="#103653" stroke-width="7.278" stroke-miterlimit="10" d="M-474.865 504.802c-28.773 0-55.981-23.541-72.615-46.954-8.784-12.363-22.294-35.477-14.092-51.363 3.63-7.033 10.58-11.067 19.066-11.067"/><path fill="none" stroke="#103653" stroke-width="10" stroke-miterlimit="10" d="M-466.836 478.594c27.521 0 67.18 22.453 92 14.667 35.948-11.276 52.339-57.873 52.339-93.05 0-31.851-17.553-86.542-48.273-99.649-32.731-13.968-64.777 18.032-96.065 18.032h-8.336c-31.288 0-63.334-32-96.065-18.032-30.721 13.107-48.273 67.8-48.273 99.649 0 35.177 16.391 81.772 52.339 93.05 24.82 7.786 64.479-14.667 92-14.667h8.334z"/><circle fill="none" stroke="#103653" stroke-width="7.278" stroke-miterlimit="10" cx="-575.738" cy="387.98" r="12.434"/><circle fill="none" stroke="#103653" stroke-width="7.278" stroke-miterlimit="10" cx="-366.27" cy="388.489" r="12.434"/><g fill="#103653"><path d="M-520.429 400.282a9.51 9.51 0 0 0-2.313-.516 80.243 80.243 0 0 0-2.342-.259c.723.115 1.466.221 2.228.315.8.096 1.552.306 2.256.63a1.79 1.79 0 0 1-.229.2.374.374 0 0 1-.229.086c-.267 0-.524-.033-.771-.1a3.096 3.096 0 0 0-.8-.102v-.343a2.171 2.171 0 0 1-.4.028c-.476 0-.942-.066-1.399-.2a4.987 4.987 0 0 0-1.399-.201 2.94 2.94 0 0 0-.714.086v.115c.609.038 1.232.1 1.871.186.638.086 1.29.196 1.957.329a43.388 43.388 0 0 0-1.957-.257 18.065 18.065 0 0 0-1.957-.115 15.376 15.376 0 0 0-1.343.058c0 .4.01.869.029 1.403s.057 1.056.114 1.562.124.949.2 1.332c.076.381.171.629.286.744l.257.516c.229.706.99 1.06 2.285 1.06a5.62 5.62 0 0 0 1.028-.113c.399-.076.804-.168 1.213-.272.409-.104.8-.196 1.171-.271.371-.076.689-.114.957-.114.267 0 .418.038.457.114a.713.713 0 0 1 .057.314c-.8.097-1.571.239-2.313.43-.647.172-1.276.307-1.885.401a36.083 36.083 0 0 0 1.856-.344 22.081 22.081 0 0 1 2.256-.401.926.926 0 0 0-.057.229c0 .113.047.21.143.285l.4-.058c.114-.019.229-.033.343-.043a1.11 1.11 0 0 0 .314-.071c.343.097.585.2.729.315.143.113.214.238.214.371 0 .249-.119.421-.357.516a2.012 2.012 0 0 0-.671.459h-.114c-.553 0-1.085.043-1.6.13-.515.086-1.023.176-1.528.271-.505.096-1.019.188-1.542.272-.524.085-1.062.128-1.613.128H-525.912a12.399 12.399 0 0 0 2.671-.027c.466-.059.918-.125 1.356-.201s.861-.143 1.271-.2a8.835 8.835 0 0 1 1.242-.086 8.155 8.155 0 0 1-1.114.444c-.438.143-.924.268-1.457.371-.533.104-1.085.19-1.656.258-.571.067-1.133.101-1.685.101-.381 0-.752-.019-1.114-.058-.362-.038-.752-.162-1.171-.371l-.028-.315c-.267-.096-.548-.271-.843-.529s-.566-.529-.814-.816c-.248-.286-.457-.553-.628-.801s-.257-.411-.257-.487l-.085-.258a6.18 6.18 0 0 1-.415-1.203 12.713 12.713 0 0 1-.243-1.331 33.365 33.365 0 0 1-.229-2.562 65.115 65.115 0 0 1-.114-3.837c0-.649.004-1.304.015-1.962.009-.659.014-1.322.014-1.99h-.086a18.442 18.442 0 0 0-.157 2.09c-.01.669-.015 1.337-.015 2.005v1.117c0 1.337.072 2.731.214 4.181a14.205 14.205 0 0 0 1.1 4.239c-.438-.745-.714-1.484-.828-2.221-.114-.734-.219-1.417-.314-2.047a31.736 31.736 0 0 1-.243-2.377 37.487 37.487 0 0 1-.071-2.35v-.601c0-1.107.028-2.234.085-3.379.057-1.146.229-2.358.514-3.638-.114 0-.171-.057-.171-.172 0-.113.062-.275.186-.486.124-.21.28-.415.471-.616.19-.2.404-.372.643-.516.238-.144.471-.215.7-.215h6.797c.704.135 1.395.243 2.07.329a28.82 28.82 0 0 0 2.128.187l-.029.658a.308.308 0 0 1-.157.272c-.105.067-.338.1-.7.1-.114 0-.253-.004-.415-.014a12.14 12.14 0 0 1-.528-.043v.257c.781.172 1.395.382 1.842.63.447.248.671.487.671.717 0 .268-.253.43-.757.486-.505.058-1.176.086-2.014.086-1.066 0-2.204-.004-3.413-.014s-2.375-.063-3.499-.158h-.485c-.096.727-.162 1.47-.2 2.234a86.133 86.133 0 0 0-.085 2.348c.304 0 .604-.014.899-.043.295-.028.604-.043.928-.043.267 0 .576.024.928.072a19.017 19.017 0 0 1 2.285.458c.39.104.747.215 1.071.33a.637.637 0 0 0 .2.027h.486c.247 0 .414.039.5.115.086.077.129.229.129.458a6.94 6.94 0 0 1-.914-.057 85.336 85.336 0 0 1-.828-.114c.266.096.542.167.828.214.286.048.59.091.914.129a1.083 1.083 0 0 0-.072.258c-.01.077-.014.144-.014.201.19.039.319.129.386.272.066.143.1.301.1.473 0 .248-.052.444-.157.587-.103.143-.156.253-.156.329zm-10.053 3.236c.076.458.167.95.271 1.476.104.524.266 1.04.485 1.546.219.506.519.979.9 1.417.304.363.704.669 1.199.917a3.864 3.864 0 0 1-1.399-1.261 8.333 8.333 0 0 1-.985-2.176 16.098 16.098 0 0 1-.528-2.549 74.073 74.073 0 0 1-.229-2.578c.019.515.047 1.041.086 1.576.038.535.105 1.079.2 1.632zm2.314 5.9a3.2 3.2 0 0 1-.657-.399 6.285 6.285 0 0 1-.372-.345c.114.114.248.22.4.314.21.153.419.297.629.43zm4.683-11.742c.324.059.667.105 1.028.145a8.574 8.574 0 0 0-.971-.215 9.564 9.564 0 0 1-.914-.188c.248.115.533.201.857.258zM-515.203 407.757c0-.095.029-.21.086-.343.057-.135.085-.276.085-.43.057-.459.095-.788.114-.988a5.72 5.72 0 0 0 .029-.53c0-.802-.024-1.665-.071-2.592-.048-.926-.1-1.817-.157-2.677 0-.268-.005-.583-.014-.945a6.004 6.004 0 0 0-.072-.858c.057-.668.104-1.327.143-1.977.038-.648.057-1.308.057-1.976v-.716c0-.248-.01-.496-.029-.744.057.057.114.086.171.086a.446.446 0 0 0 .243-.086.426.426 0 0 1 .243-.086c.133 0 .243.143.328.429.086.287.129.917.129 1.89h.257c.095-1.068.243-1.918.443-2.549.2-.63.404-.945.614-.945.095 0 .247.206.457.616.209.411.314 1.056.314 1.934l.314-.517c.209-.248.442-.505.7-.772.257-.269.547-.506.871-.716.323-.209.686-.387 1.085-.53s.856-.215 1.371-.215c.99 0 1.852.225 2.585.673.732.449 1.347 1.031 1.842 1.747s.9 1.527 1.214 2.435.557 1.823.729 2.749c.171.926.286 1.819.343 2.678.057.859.085 1.595.085 2.205 0 .555-.034.884-.1.988-.067.104-.186.166-.357.187a60.777 60.777 0 0 0-.286-4.496 16.312 16.312 0 0 0-1.085-4.439 19.76 19.76 0 0 1 .985 4.453c.143 1.461.214 2.926.214 4.396a.713.713 0 0 0-.314-.086.275.275 0 0 0-.2.086c0 .152.01.314.029.486a8.076 8.076 0 0 1 .057.889c-.114.439-.229.755-.343.945-.114.19-.219.285-.314.285a.342.342 0 0 1-.286-.157 1.916 1.916 0 0 1-.214-.386c-.067-.153-.133-.32-.2-.502s-.157-.357-.271-.529c.038-.324.066-.588.085-.788.019-.199.029-.366.029-.501a72.7 72.7 0 0 0-.029-1.86 27.899 27.899 0 0 0-.157-2.277c-.086-.792-.219-1.584-.4-2.376s-.429-1.499-.743-2.119c-.314-.62-.709-1.126-1.185-1.518-.477-.392-1.047-.587-1.714-.587-.457 0-.862.152-1.214.458a4.096 4.096 0 0 0-.914 1.174 10.13 10.13 0 0 0-.671 1.561c-.19.563-.343 1.104-.457 1.618.171-.534.347-1.078.528-1.632.181-.553.4-1.061.657-1.519s.557-.835.9-1.131a1.78 1.78 0 0 1 1.2-.443c.59 0 1.099.163 1.528.486.428.325.79.745 1.085 1.261.295.515.533 1.103.714 1.761.181.659.318 1.327.414 2.004.095.678.157 1.337.186 1.977a37.07 37.07 0 0 1 .029 2.734c-.01.363-.024.735-.043 1.117a18.76 18.76 0 0 1-.386-2.277c-.085-.791-.176-1.574-.271-2.348-.096-.773-.214-1.519-.357-2.234s-.348-1.379-.614-1.99l.2-.286c-.19-.439-.405-.778-.643-1.018-.238-.239-.471-.416-.7-.53s-.438-.181-.628-.2a4.307 4.307 0 0 0-.371-.028c-.476 0-.899.172-1.271.515-.371.345-.695.808-.971 1.39a12.331 12.331 0 0 0-.728 2.019c-.21.764-.391 1.565-.542 2.406-.153.84-.286 1.686-.4 2.534-.114.85-.21 1.646-.286 2.392h.257c.095-.647.195-1.365.3-2.147.104-.782.219-1.579.343-2.392.124-.812.271-1.599.443-2.363s.375-1.45.614-2.062c.238-.611.519-1.107.843-1.489.304-.361.676-.573 1.114-.63-.419.096-.771.363-1.057.802-.305.458-.571 1.021-.8 1.689s-.433 1.398-.614 2.19-.348 1.552-.5 2.277l-.571 4.181a7.688 7.688 0 0 0-.171.718l-.114.602c-.038.19-.076.396-.114.615-.038.22-.085.473-.143.759l-.086.344h-.171l-2.884-.974a.519.519 0 0 1-.214-.086 3.932 3.932 0 0 1-.159-.149zm4.97-14.691a4.155 4.155 0 0 0-.9 1.045c-.219.373-.424.75-.614 1.131v.029a8.337 8.337 0 0 1 1.114-1.69c.457-.534 1.066-.935 1.828-1.203-.248.077-.486.153-.714.229a1.919 1.919 0 0 0-.714.459zm4.198 2.319a1.868 1.868 0 0 0-.528-.272 13.12 13.12 0 0 1-.728-.272l-.029-.057c.324.02.609.091.857.214.247.125.485.339.714.646l-.286-.259zm-.771-3.265a2.163 2.163 0 0 0-.4-.029c.609.153 1.18.32 1.713.501.533.183 1.038.54 1.514 1.074-.324-.438-.748-.783-1.271-1.03s-1.042-.42-1.556-.516zm2.885 1.604c.267.324.514.696.743 1.116.229.421.429.792.6 1.117-.191-.438-.372-.84-.543-1.203-.172-.361-.439-.705-.8-1.03zM-494.467 409.619a140.49 140.49 0 0 0-1.371-4.998c-.476-1.613-.971-3.24-1.485-4.883a27.262 27.262 0 0 1-.628-2.248 12.856 12.856 0 0 0-.743-2.219.638.638 0 0 0 .328-.215.406.406 0 0 1 .329-.158c.095 0 .186.057.271.172s.162.244.229.387c.066.144.128.291.186.444s.095.258.114.314l.343-.086a10.24 10.24 0 0 1-.186-.901 5.638 5.638 0 0 1-.072-.902c0-.114.015-.291.043-.53.029-.237.138-.357.329-.357.286 0 .6.263.942.788.343.524.681 1.197 1.014 2.019s.662 1.724.985 2.706c.324.984.619 1.934.886 2.851.266.915.5 1.735.7 2.463.2.725.337 1.239.414 1.546.495-.63.933-1.288 1.313-1.977.38-.688.757-1.379 1.128-2.076.371-.696.761-1.384 1.171-2.063a12.61 12.61 0 0 1 1.442-1.933c.133-.152.337-.401.614-.745.276-.344.571-.691.885-1.045s.624-.664.928-.932c.305-.267.552-.4.743-.4.095 0 .181.066.257.2a488.82 488.82 0 0 0-2.156 2.177 12.329 12.329 0 0 0-1.871 2.463 13.788 13.788 0 0 1 1.899-2.392 45.227 45.227 0 0 1 2.213-2.075l.257.344c.114-.172.324-.363.628-.573.304-.21.562-.314.771-.314.152 0 .266.048.342.144.076.096.114.22.114.372 0 .134-.019.306-.057.516-.038.21-.095.363-.171.458a1.455 1.455 0 0 1-.342.345 96.595 96.595 0 0 1-1.785 1.589 9.744 9.744 0 0 0-1.585 1.79l.2-.201a17.008 17.008 0 0 1 1.557-1.632 14.258 14.258 0 0 1 1.785-1.375 6.863 6.863 0 0 1-1.243 1.561c-.467.43-.938.912-1.414 1.446a4.476 4.476 0 0 0-.585.874 3.401 3.401 0 0 1-.614.845l-.257-.086c-.362.783-.738 1.58-1.128 2.391-.39.813-.814 1.604-1.271 2.378a17.697 17.697 0 0 1-1.528 2.19 10.293 10.293 0 0 1-1.899 1.805c-.057.113-.176.215-.357.301s-.319.156-.414.215l-1.799-.802a77.657 77.657 0 0 0-.913-2.806l-.143.029.771 2.776a.3.3 0 0 0 .1.058c.047.02.143.063.286.129.143.067.361.162.657.287.295.124.7.291 1.214.501a10.05 10.05 0 0 0 1.942-1.489 12.437 12.437 0 0 0 1.485-1.832c-.209.362-.428.696-.657 1.002-.229.324-.476.63-.743.916a7.666 7.666 0 0 1-1.999 1.545l-2.399-1.092zm5.312-6.932a85.999 85.999 0 0 1 1.771-3.207 37.622 37.622 0 0 0-1.828 3.149 37.783 37.783 0 0 1-1.799 3.064 25.429 25.429 0 0 0 1.856-3.006zm-1.314 5.815c.914-1.03 1.7-2.119 2.356-3.266a33.765 33.765 0 0 0 1.756-3.521v-.058a59.16 59.16 0 0 0-.957 1.761 72.224 72.224 0 0 1-.957 1.775 31.832 31.832 0 0 1-1.028 1.719 15.046 15.046 0 0 1-1.17 1.59zm1.885-1.375zm.057-.086c.304-.496.59-1.002.856-1.518l.057-.059c-.019.021-.028.038-.028.059a17.618 17.618 0 0 1-.885 1.518zm1.028-1.833zm.486-.916-.229.458.229-.458zm1.799-4.439a15.06 15.06 0 0 0-.528.788c-.162.258-.319.511-.472.759.171-.248.372-.491.6-.73.229-.24.362-.512.4-.817zM-474.047 392.349c.019.096.124.144.314.144h.057c.114 0 .19.01.229.028.99.306 1.975.75 2.956 1.332.98.583 1.866 1.278 2.656 2.091.79.812 1.428 1.732 1.913 2.764a7.695 7.695 0 0 1 .729 3.322 7.64 7.64 0 0 1-.6 2.979 7.698 7.698 0 0 1-1.657 2.49c.724-.63 1.3-1.417 1.728-2.361a7.309 7.309 0 0 0 .643-3.051 7.737 7.737 0 0 0-.771-3.422 11.21 11.21 0 0 0-1.971-2.85 13.18 13.18 0 0 0-2.67-2.162 14.863 14.863 0 0 0-2.871-1.389c.724 0 1.461.163 2.214.486.752.325 1.471.75 2.156 1.274a12.61 12.61 0 0 1 1.899 1.804c.581.678 1.071 1.37 1.471 2.076l-.2.287a6.93 6.93 0 0 1 .871 1.861c.2.668.3 1.355.3 2.062 0 1.355-.291 2.545-.871 3.565a8.375 8.375 0 0 1-2.199 2.549 9.682 9.682 0 0 1-2.913 1.532c-1.057.344-2.052.516-2.984.516a7.84 7.84 0 0 1-1.614-.172 7.305 7.305 0 0 1-1.642-.572v.172a5.451 5.451 0 0 0 1.642.629 8.317 8.317 0 0 0 1.671.172c1.371 0 2.718-.301 4.042-.901a9.397 9.397 0 0 0 3.355-2.533 9.112 9.112 0 0 1-3.27 2.635 9.261 9.261 0 0 1-4.07.944c-1.447 0-2.618-.282-3.513-.845-.896-.563-1.595-1.257-2.099-2.076a7.588 7.588 0 0 1-1.014-2.606c-.171-.916-.257-1.736-.257-2.462 0-.975.128-1.929.385-2.865a8.553 8.553 0 0 1 1.186-2.576 7.552 7.552 0 0 1 2.056-2.02c.837-.563 1.847-.959 3.027-1.188l-.828-.201c-.4-.095-.686-.209-.857-.343s-.257-.248-.257-.345c0-.152.167-.318.5-.501a2.313 2.313 0 0 1 1.128-.273zm-1.285 3.609c.514-.189 1.009-.286 1.485-.286s.843.071 1.1.216c.257.143.386.291.386.443 0 .097-.11.2-.329.315a15.07 15.07 0 0 0-.828.473c-.333.2-.695.454-1.085.759-.391.307-.752.692-1.085 1.16s-.609 1.036-.828 1.704c-.219.669-.328 1.451-.328 2.349 0 1.317.295 2.312.885 2.979.59.669 1.409 1.003 2.456 1.003a6.5 6.5 0 0 0 2.042-.344 6.551 6.551 0 0 0 1.885-.976 5.105 5.105 0 0 0 1.371-1.546c.352-.609.528-1.298.528-2.062 0-.573-.1-1.146-.3-1.719a7.227 7.227 0 0 0-.828-1.647 8.678 8.678 0 0 0-1.257-1.475 8.198 8.198 0 0 0-1.585-1.175 21.767 21.767 0 0 0-1.356-.701c-.353-.162-.605-.319-.757-.474a7.215 7.215 0 0 1-.643.272c-.276.104-.643.263-1.1.472l.171.26zm1.913-1.804-.257-.114a.468.468 0 0 1-.085.114c-.039.039-.057.077-.057.115 0 .039.023.091.071.156.047.067.09.12.128.158l.2-.429zm0 .458a9.224 9.224 0 0 1 2.514 1.289 14.712 14.712 0 0 1 1.885 1.688 13.176 13.176 0 0 0-1.799-1.747 8.74 8.74 0 0 0-2.485-1.432l-.115.202zm5.541 9.766a5.26 5.26 0 0 1-1.2 1.632c.343-.229.633-.506.871-.829a6.07 6.07 0 0 0 .928-1.863c.057-.248.104-.449.143-.603a45.4 45.4 0 0 1-.742 1.663zm-.971-6.587a1.99 1.99 0 0 0-.171-.201c.057.077.114.144.171.201zm2.885 9.05a.474.474 0 0 1-.086.114c-.019.021-.038.029-.057.029s.029-.102.143-.301c.114-.201.252-.439.414-.718.162-.275.318-.566.471-.872.133-.229.229-.431.286-.603a9.08 9.08 0 0 1-1.171 2.351zm1.171-2.349zm.428-2.291c0 .306-.019.606-.057.902s-.105.567-.2.815c.133-.478.2-1.012.2-1.604 0-.439-.038-.869-.114-1.289a9.376 9.376 0 0 0-.229-1.061c.095.345.181.688.257 1.031.095.386.143.786.143 1.206zm-.371 2.119c-.019.02-.029.039-.029.058 0-.019.01-.038.029-.058zM-462.395 417.293c.152.153.414.272.785.358.372.086.729.129 1.071.129.628 0 1.228-.206 1.799-.616.571-.41 1.118-.969 1.642-1.675a18.194 18.194 0 0 0 1.5-2.435c.476-.916.933-1.882 1.371-2.894h-.028c-.381.84-.791 1.705-1.229 2.592-.438.89-.914 1.699-1.428 2.436-.514.735-1.071 1.337-1.671 1.804-.6.469-1.242.702-1.928.702-.552 0-1.095-.163-1.628-.487.286-.096.552-.143.8-.143.076 0 .209.019.4.057a9.2 9.2 0 0 0 .771-.028c.209-.019.409-.062.6-.128.19-.067.372-.172.543-.315s.361-.328.571-.559l.343.086a22.453 22.453 0 0 0 1.557-2.349c.486-.84.966-1.688 1.442-2.549l.514-1.146-.257-.058-.428 1.031a59.846 59.846 0 0 1-1.371 2.535 13.624 13.624 0 0 1-1.628 2.275 18.032 18.032 0 0 0 1.828-2.749 34.729 34.729 0 0 0 1.514-3.149l-.171-.287a6.49 6.49 0 0 0-.428-1.288 15.954 15.954 0 0 0-.457-1.003c.343.822.581 1.614.714 2.377a.861.861 0 0 1-.471-.357 3.687 3.687 0 0 1-.343-.645 9.28 9.28 0 0 1-.286-.773 5.615 5.615 0 0 0-.329-.801l.143-.258a19.806 19.806 0 0 1-.985-1.776c-.353-.706-.724-1.432-1.114-2.177-.391-.744-.786-1.469-1.186-2.176s-.79-1.298-1.171-1.776l-.085.086 3.57 6.444a107.088 107.088 0 0 0-2.313-3.723 26.96 26.96 0 0 1-2.199-4.183c0-.133-.02-.31-.057-.53a42.858 42.858 0 0 0-.129-.688c-.047-.238-.1-.477-.157-.716a12.898 12.898 0 0 0-.171-.646l.742-.229c.095 0 .181.043.257.129.076.086.143.263.2.53.095 0 .181-.076.257-.229.076-.153.157-.324.243-.516.085-.19.181-.362.286-.516a.482.482 0 0 1 .414-.229c.247 0 .471.167.671.501.2.334.39.74.571 1.217.181.479.376.979.585 1.504.209.525.457.979.743 1.36.304.516.614 1.021.928 1.518s.604 1.021.871 1.575a14.63 14.63 0 0 0 1.114 2.306c.457.774.818 1.58 1.085 2.421.457-1.527.823-2.89 1.1-4.082a36.64 36.64 0 0 0 .643-3.565c.209-.611.39-1.298.542-2.063.152-.763.229-1.508.229-2.232l.628.028c.095 0 .181.043.257.129.076.086.114.292.114.615 0 .097-.005.196-.014.302-.01.104-.024.233-.043.387h.257c.171-.63.371-1.136.6-1.518s.447-.573.657-.573c.152 0 .3.163.443.486.143.325.214.869.214 1.634 0 1.278-.153 2.663-.457 4.151a265.395 265.395 0 0 1-.942 4.41c-.534 1.947-1.162 3.818-1.885 5.613s-1.638 3.617-2.742 5.47a30.505 30.505 0 0 1-1.157 1.618 9.032 9.032 0 0 1-1.485 1.532c-.562.458-1.2.835-1.914 1.131-.714.296-1.528.444-2.442.444-.667 0-1.119-.086-1.357-.259-.238-.172-.357-.306-.357-.4 0-.059.019-.124.057-.2.571.19 1.181.286 1.828.286.457 0 .985-.081 1.585-.243s1.138-.406 1.614-.73a9.107 9.107 0 0 1-1.471.603c-.542.172-1.033.258-1.471.258a7.745 7.745 0 0 1-1.999-.258.547.547 0 0 0-.157-.373 2.982 2.982 0 0 0-.357-.328 2.913 2.913 0 0 1-.357-.33.572.572 0 0 1-.157-.399c0-.153.047-.269.143-.345a.993.993 0 0 1 .329-.172 4.35 4.35 0 0 1 .386-.101c.132-.025.246-.058.341-.097zm5.741-11.34a14.088 14.088 0 0 0-.728-1.475c-.276-.487-.576-.97-.9-1.447.286.555.581 1.107.886 1.662.304.515.59 1.04.856 1.574l-.114-.314zm3.856 6.271c-.553.991-1.124 1.989-1.714 2.991a14.36 14.36 0 0 1-2.228 2.851 12.968 12.968 0 0 0 2.271-2.792 45.581 45.581 0 0 0 1.671-3.05zm-3.171-9.537c.019.287.062.524.128.717.066.192.143.357.229.501.086.144.171.276.257.401.085.124.167.271.243.442l-.057-.086-.8-1.975zm1.029 2.35.942 2.348.171-.172-1.113-2.176zm1.17 2.291-.2.229c.038.057.076.108.114.156.038.049.067.11.086.188l.143-.229-.143-.344zm.343-.344c.076-.229.143-.459.2-.688l.171-.688-.171-.086-.314 1.117c.038.154.076.269.114.345zM-435.091 410.105c-.724.248-1.276.387-1.656.415-.381.027-.714.052-1 .07-1.067 0-2.028-.199-2.885-.602a6.665 6.665 0 0 1-2.199-1.632 7.362 7.362 0 0 1-1.414-2.42 8.689 8.689 0 0 1-.5-2.964c0-.611.057-1.246.171-1.904.114-.659.286-1.308.514-1.948a8.524 8.524 0 0 1 .885-1.79 7.117 7.117 0 0 1 1.228-1.488c-.495.4-.914.878-1.256 1.432a9.51 9.51 0 0 0-.914 1.79c-.248.64-.428 1.298-.542 1.976a11.842 11.842 0 0 0-.171 1.962c0 .803.128 1.657.385 2.563a7.784 7.784 0 0 0 1.243 2.52c.572.774 1.309 1.418 2.213 1.935.904.516 2.003.772 3.299.772.609 0 1.247-.086 1.914-.258a4.309 4.309 0 0 1-2.428.716 6.218 6.218 0 0 1-2.042-.329 6.786 6.786 0 0 1-1.771-.917 7.812 7.812 0 0 1-1.471-1.389 9.021 9.021 0 0 1-1.114-1.718l.257-.229a8.39 8.39 0 0 1-.7-1.947 9.153 9.153 0 0 1-.214-1.977c0-.974.138-1.909.415-2.806.275-.897.643-1.747 1.1-2.549l.685-.945c.114-.209.281-.419.5-.63.219-.21.461-.415.728-.616s.547-.382.843-.544a26.847 26.847 0 0 1 2.899-1.375c.686-.276 1.485-.482 2.399-.616l-.114-.086c-1.752.172-3.237.597-4.456 1.274-1.218.678-2.208 1.504-2.97 2.478a9.567 9.567 0 0 0-1.656 3.193 11.89 11.89 0 0 0-.514 3.394c0 .593.052 1.188.157 1.79.104.603.261 1.198.471 1.79a9.383 9.383 0 0 1-.714-3.638c0-1.26.209-2.51.628-3.751s1.076-2.386 1.971-3.438a12.794 12.794 0 0 1 3.742-2.42c1.352-.563 2.656-.845 3.913-.845.4 0 .809.067 1.228.2.418.134.8.339 1.143.616.343.276.623.635.842 1.073.219.439.329.975.329 1.604 0 .516-.124 1.146-.372 1.89s-.614 1.465-1.099 2.162a6.827 6.827 0 0 1-1.814 1.775c-.724.485-1.562.729-2.513.729h-.942a17.046 17.046 0 0 1-1.928-.528 15.37 15.37 0 0 0-1.643-.474 4.206 4.206 0 0 0-.128.873c-.01.277-.014.549-.014.816 0 .554.062 1.093.186 1.617s.319 1.008.585 1.446c.266.439.604.808 1.014 1.103.409.297.909.481 1.5.559.361.077.675.12.942.129.266.01.49.021.671.029.181.01.314.038.4.086.086.048.128.139.128.271-.19.059-.385.097-.585.115-.2.021-.405.028-.614.028-.667 0-1.267-.11-1.799-.329a6.202 6.202 0 0 1-1.371-.76c.438.438.961.75 1.571.932a5.988 5.988 0 0 0 2.799.185 1.218 1.218 0 0 0-.057.2c0 .114.047.19.143.229.076-.02.209-.071.4-.157.19-.086.385-.172.585-.258s.395-.162.585-.229c.19-.065.323-.1.4-.1.095 0 .181.014.257.043.076.028.114.139.114.329 0 .189-.067.42-.2.687a3.107 3.107 0 0 1-.602.81zm-6.055-2.72a94.385 94.385 0 0 1-.4-.46 2.726 2.726 0 0 1-.286-.399c.172.324.4.61.686.859zm.8-6.501a.28.28 0 0 0 .071-.172 1.62 1.62 0 0 0 .014-.172l-1.342-.486-.143.4 1.4.43zm1.314-2.12.628.114c.209.038.4.058.571.058.19 0 .414-.063.671-.187s.514-.301.771-.529c.257-.229.485-.517.686-.859.2-.344.347-.735.442-1.174l.057-.171c-.267 0-.667.066-1.199.199a15.02 15.02 0 0 0-1.657.53c-.571.22-1.104.479-1.599.773-.496.296-.838.616-1.028.959a34.04 34.04 0 0 0 1.657.287zM-429.407 405.953c0-.438.052-.803.157-1.088.104-.287.252-.535.443-.745a3.664 3.664 0 0 0-.386.772 2.754 2.754 0 0 0-.157.944v2.692l.885.172c.266.058.533.096.8.114.266.02.523.029.771.029.266 0 .504-.006.714-.016.209-.009.418-.015.628-.015l2.199.028-2.171.028h-.314c-.171 0-.357.005-.557.016-.2.01-.414.014-.643.014a9.52 9.52 0 0 1-.685-.028 5.964 5.964 0 0 1-.771-.114l-.914-.172.001-2.631zm16.422-6.501a9.15 9.15 0 0 1-1.371 1.002 19.396 19.396 0 0 1-3.342 1.618c-.552.201-1.047.357-1.485.473-.438.135-.838.264-1.199.388-.362.124-.705.263-1.028.415-.324.152-.647.324-.971.516-.324.191-.657.42-1 .687-.248.191-.452.345-.614.46-.162.113-.295.211-.4.285-.105.077-.19.135-.257.173-.067.037-.128.076-.186.113l1.028.086c.8.077 1.571.158 2.313.244a262.719 262.719 0 0 1 2.827.342c.057.01.114.015.171.015 1.561.096 2.656.168 3.285.215.628.048.942.187.942.416 0 .076-.01.124-.029.143a23.7 23.7 0 0 1-2.271-.215 25.939 25.939 0 0 0-2.584-.215 25.384 25.384 0 0 0-1.328-.157 36.43 36.43 0 0 0-1.571-.114 88.215 88.215 0 0 0-1.628-.071 41.398 41.398 0 0 0-2.699-.013 5.957 5.957 0 0 0-.829.071c.514 0 1.124.01 1.828.028.704.02 1.428.043 2.17.072.743.027 1.471.065 2.185.113s1.328.11 1.842.188l1 .143c.666.097 1.29.153 1.871.172.581.021 1.214.067 1.899.144-.096.096-.143.19-.143.287 0 .172.119.248.357.229.238-.018.576 0 1.014.059.38.152.652.292.814.415.161.125.243.243.243.357s-.076.226-.229.329a1.732 1.732 0 0 1-.571.244l-.714.199a21.432 21.432 0 0 0-2.242-.271c-.714-.047-1.5-.119-2.356-.215l-.743-.086a65.067 65.067 0 0 0-1.799-.2c-.59-.058-1.2-.114-1.828-.172l-3.028-.229c-.209-.02-.438-.033-.685-.044a21.25 21.25 0 0 0-.771-.014h-.514c-.171 0-.353.01-.543.028l-.514.028v-2.205c0-.593.143-1.056.429-1.39.286-.334.6-.587.942-.759.171-.095.343-.172.514-.229a.262.262 0 0 0-.114.028 3.702 3.702 0 0 0-.843.415 2.522 2.522 0 0 0-.714.729c-.2.307-.3.707-.3 1.203l-.029 2.263h2.771l1.742.086c.895.058 1.766.134 2.613.229.847.097 1.689.2 2.527.314l.914.144c.724.076 1.399.153 2.028.229s1.275.162 1.942.258c-.267.058-.557.109-.871.156a6.931 6.931 0 0 1-1.042.072c-.362 0-.686-.021-.971-.058a30.966 30.966 0 0 0-1-.115l-.914-.114a54.839 54.839 0 0 0-1.914-.242 965.99 965.99 0 0 0-1.971-.215l-.171-.315h-2.313c-.095 0-.2.005-.314.016-.114.01-.248.014-.4.014h-.714c-.248 0-.496-.004-.743-.014a8.777 8.777 0 0 1-.8-.072l-.799-.114v-2.491c0-.631.138-1.141.414-1.531.276-.393.595-.702.957-.932.361-.229.724-.41 1.085-.545.361-.133.638-.258.828-.371l.657-.516a17.695 17.695 0 0 1 2.399-1.52 13.044 13.044 0 0 1 2.627-1.03l.428-.115a9.38 9.38 0 0 1 1.342-.544 7.708 7.708 0 0 0 1.342-.573l-.085-.143c-.476.21-.957.392-1.442.544s-.899.314-1.242.486l-.429.115c-.952.269-1.861.63-2.728 1.088-.867.458-1.652.964-2.356 1.52l-.571.485h-.114a.697.697 0 0 0-.229.058l.286-.144c1.028-.878 2.032-1.561 3.013-2.047.98-.487 1.957-.874 2.927-1.16a37.895 37.895 0 0 1 1.771-.615 7.711 7.711 0 0 0 1.285-.53 18.31 18.31 0 0 0-1.971-.358 14.006 14.006 0 0 0-2.314-.086c-.229.01-.457.024-.686.043a2.831 2.831 0 0 0-.4-.028h-.371c-.667 0-1.309.066-1.928.2-.619.135-1.205.315-1.756.544a.411.411 0 0 0-.157-.329.405.405 0 0 1-.157-.329c0-.114.129-.259.386-.43.257-.172.738-.334 1.442-.486l-.057-.287c-.647.096-1.209.182-1.685.258a7.713 7.713 0 0 1-1.2.114c-.209 0-.367-.01-.471-.028-.105-.019-.176-.086-.214-.201 0-.038.01-.076.029-.114a.246.246 0 0 0 .028-.114 5.916 5.916 0 0 1 1.399-1.018 9.824 9.824 0 0 1 1.842-.745 14.63 14.63 0 0 1 2.156-.458 17.283 17.283 0 0 1 2.342-.157c.59 0 1.252.048 1.985.143.732.096 1.546.22 2.442.373l.514.157c.152.048.314.101.486.158.172.057.361.125.571.199.209.077.466.172.771.287-.019-.019.109.029.386.144.275.114.557.324.842.63l-.221 3.434zm-13.538 3.122-.6.4c-.229.151-.5.306-.814.458s-.604.382-.871.688c.361-.534.8-.931 1.314-1.188.514-.259.914-.426 1.199-.502l-.228.144zm.257.772c.323-.114.533-.259.628-.431l.171-.113c.343-.269.7-.55 1.071-.846s.757-.566 1.157-.815a6.752 6.752 0 0 0-1.457.986 10.49 10.49 0 0 1-1.485 1.104c-.095.057-.2.114-.314.172.077-.018.153-.037.229-.057zm1.085 1.632c-.267 0-.5.102-.7.301-.2.201-.357.34-.471.416l.057.028c.095-.059.276-.162.543-.315l.856-.486.885-.501c.286-.162.504-.291.657-.387-.096.058-.233.129-.414.215a30.946 30.946 0 0 0-1.085.543 5.753 5.753 0 0 0-.328.186z"/></g><path fill="#F8F9F6" d="M-400.978 409.586c26.479 0-21.27 81.962-67.025 81.023l-7.431.008c-45.343-.762-93.294-81.031-65.669-81.031l-.25-14.173c-8.486 0-16.589 4.034-20.219 11.067-8.202 15.887 5.308 39 14.092 51.363 16.634 23.413 43.842 46.953 72.615 46.953h7.723c28.773 0 55.981-23.54 72.615-46.953 8.784-12.363 22.294-35.478 14.092-51.363-3.63-7.034-11.931-11.067-20.417-11.067l-.126 14.173z"/><path fill="none" stroke="#103653" stroke-width="7.278" stroke-miterlimit="10" d="M-541.353 395.416c-8.486 0-16.589 4.034-20.219 11.067-8.202 15.888 5.308 39 14.092 51.363 16.634 23.413 43.842 46.954 72.615 46.954h7.723c28.773 0 55.981-23.541 72.615-46.954 8.784-12.363 22.294-35.477 14.092-51.363-3.63-7.033-11.931-11.067-20.417-11.067"/><path fill="none" stroke="#103653" stroke-width="7.278" stroke-miterlimit="10" d="M-541.103 409.59c-27.625 0 20.326 80.271 65.669 81.03l7.431-.008c45.756.938 93.504-81.022 67.025-81.022"/><circle fill="none" stroke="#103653" stroke-width="8" stroke-miterlimit="10" cx="-471.004" cy="399.698" r="67.667"/><path opacity=".5" fill="#96D2CA" d="M661.639 101.552c-85.014-36.278-168.243 46.833-249.51 46.833h-21.65c-81.26 0-164.495-83.112-249.503-46.833-79.791 34.045-125.38 176.093-125.38 258.818 0 91.361 42.57 212.387 135.935 241.671 64.465 20.226 167.473-38.093 238.949-38.093h21.649c71.481 0 174.484 58.317 238.948 38.093 93.372-29.284 135.937-150.31 135.937-241.671 0-82.725-45.583-224.773-125.375-258.818zM129.282 360.895c-17.835 0-32.293-14.458-32.293-32.294 0-17.833 14.458-32.291 32.293-32.291s32.293 14.458 32.293 32.291c0 17.836-14.457 32.294-32.293 32.294zm272.023 173.891c-139.05 0-214.32-88.378-214.32-185.441s117.257-166.057 214.32-166.057 212.72 71.784 212.72 168.849c-.001 97.063-115.659 182.649-212.72 182.649zm272.023-172.568c-17.833 0-32.295-14.458-32.295-32.295 0-17.833 14.462-32.291 32.295-32.291 17.836 0 32.294 14.457 32.294 32.291 0 17.837-14.458 32.295-32.294 32.295z"/><path fill="none" stroke="#103653" stroke-width="20.778" stroke-miterlimit="10" d="M390.479 563.948c-71.476 0-174.483 58.317-238.948 38.093C58.167 572.757 15.596 451.731 15.596 360.37c0-82.725 45.589-224.771 125.379-258.816 85.009-36.278 168.244 46.833 249.504 46.833"/><path fill="#103653" d="M129.282 370.347c-23.018 0-41.744-18.729-41.744-41.747s18.726-41.743 41.744-41.743c23.017 0 41.744 18.726 41.744 41.743 0 23.019-18.727 41.747-41.744 41.747zm0-64.586c-12.596 0-22.843 10.245-22.843 22.839 0 12.596 10.247 22.843 22.843 22.843s22.843-10.247 22.843-22.843c0-12.593-10.247-22.839-22.843-22.839z"/><path fill="#103653" d="M620.205 619.288h-.003c-33.825 0-72.362-11.185-109.632-22.001-34.477-10.005-70.125-20.352-98.441-20.352H390.48c-28.316 0-63.963 10.347-98.438 20.352-37.27 10.816-75.807 22.001-109.636 22.001-12.974 0-24.344-1.588-34.761-4.854C52.427 584.565 2.61 464.013 2.61 360.37c0-87.423 47.458-234.147 133.269-270.762 16.096-6.87 32.651-10.209 50.612-10.209 37.518 0 73.78 14.932 108.851 29.373 33.257 13.693 64.671 26.628 95.137 26.628h21.65c30.473 0 61.887-12.936 95.14-26.628 35.068-14.441 71.332-29.373 108.854-29.373 17.959 0 34.517 3.339 50.615 10.209C752.545 126.221 800 272.947 800 360.37c0 103.646-49.819 224.195-145.037 254.063-10.417 3.267-21.787 4.855-34.758 4.855zm-229.726-68.323h21.649c32.011 0 69.462 10.869 105.681 21.381 35.526 10.311 72.262 20.972 102.394 20.972 10.295 0 19.125-1.198 26.987-3.663 49.342-15.477 79.013-57.979 95.22-90.903 20.093-40.832 31.618-91.269 31.618-138.38 0-42.055-12.154-96.684-31.727-142.569-22.766-53.377-53.223-90.42-85.759-104.305-12.813-5.468-26.032-8.124-40.421-8.124-32.383 0-66.231 13.938-98.962 27.416-34.128 14.052-69.42 28.585-105.031 28.585h-21.65c-35.604 0-70.896-14.533-105.025-28.585-32.735-13.479-66.583-27.416-98.962-27.416-14.387 0-27.609 2.656-40.417 8.124-32.54 13.884-62.999 50.928-85.763 104.305-19.572 45.883-31.728 100.512-31.728 142.567 0 47.111 11.525 97.549 31.621 138.38 16.205 32.926 45.878 75.428 95.214 90.901 7.756 2.431 16.836 3.665 26.989 3.665 30.135 0 66.87-10.661 102.395-20.972 36.218-10.513 73.668-21.379 105.677-21.379z"/><path fill="#103653" d="M667.268 370.347c-23.019 0-41.744-18.728-41.744-41.747 0-23.017 18.727-41.743 41.744-41.743 23.021 0 41.741 18.727 41.741 41.743 0 23.02-18.722 41.747-41.741 41.747zm0-64.586c-12.596 0-22.843 10.246-22.843 22.839 0 12.596 10.247 22.843 22.843 22.843 12.595 0 22.842-10.247 22.842-22.843-.002-12.592-10.249-22.839-22.842-22.839z"/><g fill="#103653" stroke="#103653" stroke-width="5" stroke-miterlimit="10"><path d="M-586.68 644.324a30.627 30.627 0 0 0-7.49-1.67 257.89 257.89 0 0 0-7.586-.833c2.344.372 4.748.71 7.216 1.019 2.59.312 5.025.992 7.308 2.042a6.992 6.992 0 0 1-.741.648c-.249.184-.492.277-.741.277a9.333 9.333 0 0 1-2.496-.325 10.023 10.023 0 0 0-2.592-.324v-1.111c-.31.064-.738.094-1.293.094-1.542 0-3.052-.216-4.531-.648a16.072 16.072 0 0 0-4.534-.652c-.802 0-1.57.095-2.309.279v.373c1.971.123 3.987.322 6.057.601 2.065.279 4.175.635 6.333 1.066a140.179 140.179 0 0 0-6.333-.833 58.327 58.327 0 0 0-6.336-.372c-.802 0-1.558.017-2.268.045-.71.033-1.4.08-2.08.141 0 1.298.031 2.813.094 4.542.058 1.73.185 3.42.368 5.058.185 1.637.401 3.075.647 4.312.246 1.234.555 2.039.926 2.41l.832 1.668c.74 2.292 3.206 3.436 7.401 3.436.923 0 2.034-.125 3.328-.372a66.078 66.078 0 0 0 3.931-.882 80.602 80.602 0 0 1 3.792-.882c1.2-.248 2.235-.37 3.097-.37.865 0 1.357.122 1.481.37.122.248.185.591.185 1.021-2.589.31-5.087.773-7.492 1.39-2.098.557-4.131.99-6.105 1.299 1.974-.309 3.977-.68 6.014-1.112a72.09 72.09 0 0 1 7.308-1.299c-.125.368-.188.619-.188.741 0 .37.155.682.464.927l1.294-.185c.37-.062.74-.107 1.113-.14.37-.029.705-.108 1.014-.232 1.111.312 1.895.649 2.359 1.022.461.37.692.771.692 1.205 0 .802-.385 1.36-1.156 1.669-.772.308-1.494.802-2.174 1.481h-.365c-1.793 0-3.52.142-5.184.417-1.664.278-3.313.572-4.945.882-1.634.312-3.3.604-4.998.882a32.333 32.333 0 0 1-5.225.417h-1.846a35.8 35.8 0 0 0 3.789.186c1.727 0 3.343-.093 4.854-.279a90.615 90.615 0 0 0 4.396-.648c1.417-.246 2.788-.465 4.117-.649a28.727 28.727 0 0 1 4.022-.279c-.989.495-2.191.976-3.606 1.438-1.42.463-2.993.867-4.718 1.208a70.28 70.28 0 0 1-5.361.83 46.698 46.698 0 0 1-5.458.326 34.02 34.02 0 0 1-3.61-.188c-1.169-.124-2.437-.524-3.789-1.205l-.094-1.021c-.867-.307-1.776-.878-2.729-1.717a26.293 26.293 0 0 1-2.638-2.64 31.795 31.795 0 0 1-2.034-2.597c-.553-.803-.83-1.331-.83-1.576l-.276-.834a20.01 20.01 0 0 1-1.345-3.896 42.137 42.137 0 0 1-.786-4.313c-.183-1.453-.34-2.887-.461-4.311-.122-1.423-.213-2.75-.279-3.989a200.223 200.223 0 0 1-.273-6.167 208.964 208.964 0 0 1-.097-6.258c0-2.103.016-4.22.051-6.353.03-2.133.045-4.281.045-6.447h-.28a58.393 58.393 0 0 0-.507 6.769 413.941 413.941 0 0 0-.048 6.494v3.617c0 4.329.231 8.841.692 13.54.467 4.701 1.652 9.271 3.563 13.726-1.418-2.41-2.313-4.807-2.681-7.188-.37-2.381-.709-4.59-1.02-6.628-.37-2.657-.633-5.225-.786-7.698-.154-2.473-.23-5.008-.23-7.604v-1.947c0-3.585.09-7.234.276-10.943.185-3.71.74-7.636 1.664-11.778-.371 0-.555-.185-.555-.557 0-.37.2-.896.606-1.576.4-.681.905-1.345 1.524-1.994.614-.649 1.309-1.206 2.08-1.67s1.525-.693 2.266-.693h22.013c2.281.433 4.515.786 6.704 1.065 2.187.279 4.485.481 6.892.602l-.094 2.134c0 .372-.17.665-.507.882-.34.217-1.096.324-2.263.324-.37 0-.821-.015-1.343-.045s-1.097-.078-1.71-.141v.834c2.525.557 4.515 1.238 5.963 2.04 1.448.807 2.174 1.577 2.174 2.32 0 .864-.819 1.39-2.451 1.575-1.633.185-3.809.275-6.521.275-3.452 0-7.134-.012-11.053-.042-3.914-.032-7.69-.203-11.328-.513h-1.573a88.452 88.452 0 0 0-.647 7.234 274.254 274.254 0 0 0-.276 7.605c.984 0 1.955-.047 2.91-.142a31.768 31.768 0 0 1 3.008-.139c.862 0 1.864.08 3.003.233a64.04 64.04 0 0 1 3.612.601c1.258.25 2.526.546 3.792.883 1.261.341 2.417.695 3.467 1.066.183.063.401.093.647.093h1.57c.801 0 1.344.124 1.618.372.28.247.418.742.418 1.482-1.047 0-2.036-.059-2.959-.185-.926-.123-1.819-.246-2.681-.37.862.31 1.755.542 2.681.692a61.83 61.83 0 0 0 2.959.42c-.124.31-.2.586-.23.834a4.898 4.898 0 0 0-.045.65c.613.125 1.03.417 1.248.879.216.466.325.975.325 1.533 0 .801-.172 1.436-.51 1.899-.343.462-.513.82-.513 1.067zm-32.555 10.478c.247 1.484.541 3.075.88 4.777.337 1.7.862 3.369 1.572 5.006a17.74 17.74 0 0 0 2.912 4.592c.986 1.173 2.28 2.165 3.883 2.966a12.518 12.518 0 0 1-4.533-4.078c-1.355-2.104-2.42-4.452-3.188-7.048-.771-2.598-1.342-5.35-1.712-8.255-.31-2.906-.553-5.688-.74-8.347.061 1.67.155 3.371.278 5.103.123 1.73.341 3.492.648 5.284zm7.493 19.106a10.216 10.216 0 0 1-2.128-1.3 21.95 21.95 0 0 1-1.202-1.11c.37.37.801.708 1.293 1.02.68.492 1.358.958 2.037 1.39zm15.167-38.024a45.67 45.67 0 0 0 3.331.466 27.886 27.886 0 0 0-3.145-.695 32.784 32.784 0 0 1-2.958-.604c.797.371 1.722.648 2.772.833zM-569.757 668.527c0-.31.097-.678.279-1.111.186-.433.279-.896.279-1.391.184-1.483.305-2.55.37-3.198.062-.65.092-1.221.092-1.719 0-2.596-.079-5.393-.23-8.394a587.794 587.794 0 0 0-.51-8.669c0-.867-.015-1.887-.045-3.062-.031-1.173-.109-2.101-.233-2.781.188-2.165.34-4.297.464-6.397.124-2.104.185-4.236.185-6.399v-2.319c0-.801-.031-1.607-.092-2.41.184.185.37.278.553.278.249 0 .509-.095.786-.278.279-.187.538-.276.787-.276.431 0 .786.46 1.064 1.389.279.928.416 2.968.416 6.121h.832c.31-3.46.786-6.213 1.433-8.256.647-2.039 1.312-3.06 1.986-3.06.31 0 .802.666 1.482 1.994.679 1.33 1.019 3.417 1.019 6.261l1.015-1.67a53.968 53.968 0 0 1 2.268-2.502 15.753 15.753 0 0 1 2.82-2.318c1.045-.68 2.222-1.251 3.516-1.717 1.293-.464 2.775-.695 4.438-.695 3.206 0 5.996.728 8.37 2.181a19.652 19.652 0 0 1 5.966 5.655c1.602 2.32 2.911 4.946 3.931 7.884a61.604 61.604 0 0 1 2.358 8.9 75.6 75.6 0 0 1 1.109 8.672c.184 2.785.274 5.163.274 7.141 0 1.797-.106 2.862-.322 3.201-.218.339-.601.539-1.156.603a200.802 200.802 0 0 0-.925-14.56 52.78 52.78 0 0 0-3.513-14.375c1.661 4.887 2.727 9.69 3.188 14.42.467 4.729.695 9.476.695 14.236-.37-.185-.71-.278-1.015-.278a.885.885 0 0 0-.649.278c0 .496.031 1.019.091 1.578.062.493.106.988.143 1.479.027.498.046.961.046 1.395-.37 1.423-.741 2.44-1.111 3.061-.371.618-.71.929-1.017.929-.37 0-.684-.169-.927-.515a6.57 6.57 0 0 1-.694-1.249 30.263 30.263 0 0 1-.647-1.625 8.23 8.23 0 0 0-.877-1.715c.124-1.048.213-1.899.276-2.55.061-.65.094-1.19.094-1.624 0-1.669-.033-3.677-.094-6.025a91.609 91.609 0 0 0-.507-7.375 67.69 67.69 0 0 0-1.293-7.698c-.588-2.563-1.391-4.851-2.407-6.861-1.017-2.007-2.298-3.646-3.837-4.916-1.542-1.267-3.392-1.9-5.55-1.9-1.481 0-2.791.495-3.931 1.484-1.142.989-2.125 2.256-2.958 3.803a32.774 32.774 0 0 0-2.176 5.054 51.163 51.163 0 0 0-1.479 5.238c.556-1.729 1.124-3.49 1.712-5.284.583-1.793 1.293-3.433 2.125-4.914.835-1.484 1.803-2.706 2.915-3.665 1.108-.959 2.407-1.437 3.883-1.437 1.913 0 3.562.524 4.951 1.577 1.385 1.052 2.556 2.412 3.516 4.08.953 1.67 1.722 3.572 2.308 5.706a51.699 51.699 0 0 1 1.343 6.489 67.55 67.55 0 0 1 .601 6.399c.094 2.073.14 3.847.14 5.332a137.707 137.707 0 0 1-.186 7.141 60.524 60.524 0 0 1-1.248-7.373 518.352 518.352 0 0 0-.878-7.604 97.887 97.887 0 0 0-1.159-7.234c-.462-2.321-1.126-4.468-1.986-6.447l.646-.925c-.616-1.421-1.311-2.521-2.082-3.295-.771-.77-1.527-1.342-2.265-1.713-.74-.373-1.418-.587-2.035-.65-.618-.062-1.017-.094-1.202-.094-1.542 0-2.911.558-4.116 1.669-1.203 1.112-2.253 2.614-3.146 4.497-.892 1.887-1.679 4.066-2.358 6.539a89.495 89.495 0 0 0-1.755 7.789c-.494 2.723-.923 5.458-1.293 8.209s-.682 5.33-.928 7.742h.832c.31-2.102.634-4.419.974-6.955a399.71 399.71 0 0 1 1.108-7.744c.398-2.625.88-5.178 1.436-7.65.555-2.472 1.215-4.697 1.985-6.677.771-1.977 1.68-3.584 2.73-4.821.983-1.175 2.188-1.854 3.606-2.04-1.357.31-2.496 1.175-3.421 2.596-.987 1.485-1.849 3.309-2.59 5.472a69.436 69.436 0 0 0-1.988 7.093 428.687 428.687 0 0 0-1.619 7.375l-1.852 13.539a24.99 24.99 0 0 0-.553 2.319l-.371 1.948a69.303 69.303 0 0 0-.37 1.993c-.122.71-.28 1.528-.462 2.458l-.279 1.111h-.556l-9.339-3.152c-.31-.061-.541-.154-.695-.277a7.326 7.326 0 0 1-.509-.469zm16.095-47.572c-1.235 1.05-2.207 2.179-2.914 3.384a59.263 59.263 0 0 0-1.988 3.665v.092c.862-1.792 2.064-3.618 3.606-5.473 1.482-1.729 3.452-3.027 5.92-3.894-.804.249-1.572.496-2.311.739a6.21 6.21 0 0 0-2.313 1.487zm13.596 7.511a6.073 6.073 0 0 0-1.712-.882 42.76 42.76 0 0 1-2.356-.878l-.094-.187c1.048.062 1.973.295 2.772.694.802.401 1.573 1.1 2.313 2.085l-.923-.832zm-2.496-10.573c-.312-.059-.741-.094-1.299-.094a72.207 72.207 0 0 1 5.549 1.623c1.728.588 3.361 1.748 4.903 3.479-1.049-1.423-2.417-2.535-4.114-3.338-1.696-.803-3.375-1.361-5.039-1.67zm9.339 5.194a23.277 23.277 0 0 1 2.405 3.619c.74 1.358 1.387 2.564 1.941 3.614a121.932 121.932 0 0 0-1.76-3.895c-.552-1.172-1.415-2.285-2.586-3.338zM-502.609 674.556a465.358 465.358 0 0 0-4.439-16.184 1012.091 1012.091 0 0 0-4.809-15.811 88.516 88.516 0 0 1-2.036-7.281c-.554-2.379-1.357-4.775-2.405-7.187a2.051 2.051 0 0 0 1.063-.696c.277-.34.634-.511 1.064-.511.308 0 .602.188.878.558.276.372.524.789.74 1.253.216.462.417.939.601 1.436.187.495.309.834.369 1.02l1.111-.276a34.4 34.4 0 0 1-.599-2.922 18.037 18.037 0 0 1-.233-2.922c0-.371.046-.942.137-1.715.097-.772.447-1.159 1.065-1.159.923 0 1.943.851 3.054 2.55 1.109 1.701 2.202 3.88 3.282 6.538a140.83 140.83 0 0 1 3.191 8.763 285.076 285.076 0 0 1 2.868 9.229c.86 2.967 1.616 5.625 2.266 7.976a277.723 277.723 0 0 1 1.339 5.007 47.808 47.808 0 0 0 4.256-6.396 489.575 489.575 0 0 0 3.653-6.725 140.003 140.003 0 0 1 3.792-6.678 40.781 40.781 0 0 1 4.669-6.259 98.436 98.436 0 0 0 1.991-2.412 90.46 90.46 0 0 1 2.862-3.384 35.541 35.541 0 0 1 3.006-3.017c.986-.864 1.791-1.296 2.407-1.296.308 0 .585.218.831.65a1708.01 1708.01 0 0 0-6.981 7.046 39.981 39.981 0 0 0-6.061 7.976 44.278 44.278 0 0 1 6.156-7.743 148.87 148.87 0 0 1 7.163-6.724l.832 1.112c.37-.556 1.047-1.174 2.032-1.854.988-.682 1.825-1.023 2.5-1.023.493 0 .862.156 1.112.466.244.312.365.713.365 1.205 0 .435-.063.991-.184 1.671-.123.679-.308 1.174-.554 1.482-.31.434-.68.804-1.107 1.114a336.467 336.467 0 0 1-5.78 5.146c-1.821 1.577-3.53 3.51-5.134 5.797l.646-.65c1.667-1.979 3.344-3.738 5.042-5.285 1.693-1.545 3.618-3.029 5.778-4.45-1.175 1.979-2.517 3.663-4.024 5.051a67.254 67.254 0 0 0-4.577 4.686 14.676 14.676 0 0 0-1.893 2.829 10.734 10.734 0 0 1-1.996 2.734l-.822-.279a614.41 614.41 0 0 1-3.658 7.747 105.108 105.108 0 0 1-4.114 7.698 57.331 57.331 0 0 1-4.949 7.094 33.55 33.55 0 0 1-6.15 5.842c-.184.368-.571.694-1.156.973-.586.28-1.032.51-1.339.697l-5.829-2.599a218.377 218.377 0 0 0-1.434-4.542 265.9 265.9 0 0 0-1.523-4.544l-.464.092 2.498 8.994a.927.927 0 0 0 .323.186c.153.063.463.202.925.418.461.217 1.169.524 2.125.928.958.401 2.267.941 3.931 1.622 2.465-1.483 4.56-3.092 6.29-4.823 1.664-1.668 3.268-3.645 4.806-5.933a32.488 32.488 0 0 1-2.125 3.244 28.603 28.603 0 0 1-2.401 2.968 26.59 26.59 0 0 1-2.869 2.644 25.175 25.175 0 0 1-3.609 2.363l-7.765-3.525zm17.204-22.444a278.7 278.7 0 0 1 5.729-10.386 122.078 122.078 0 0 0-5.919 10.204 123.33 123.33 0 0 1-5.824 9.925 83.53 83.53 0 0 0 6.014-9.743zm-4.259 18.827c2.96-3.337 5.504-6.861 7.633-10.571a109.79 109.79 0 0 0 5.688-11.408v-.185a197.184 197.184 0 0 0-3.099 5.704 247.529 247.529 0 0 1-3.101 5.749 100.838 100.838 0 0 1-3.327 5.563 48.656 48.656 0 0 1-3.794 5.148zm6.106-4.451zm.188-.277a81.88 81.88 0 0 0 2.771-4.915c.063-.063.125-.123.183-.188-.058.064-.088.124-.088.188a59.849 59.849 0 0 1-2.866 4.915zm3.33-5.936zm1.569-2.967zm5.829-14.375a49.115 49.115 0 0 0-1.714 2.549c-.523.837-1.03 1.655-1.524 2.459a19.507 19.507 0 0 1 1.939-2.366c.741-.771 1.173-1.651 1.299-2.642zM-436.483 618.635c.061.31.404.466 1.018.466h.186c.373 0 .617.031.737.091 3.208.991 6.4 2.429 9.579 4.312a42.103 42.103 0 0 1 8.603 6.771 32.664 32.664 0 0 1 6.188 8.952c1.577 3.337 2.361 6.924 2.361 10.756 0 3.339-.646 6.554-1.944 9.645-1.291 3.092-3.082 5.78-5.362 8.066 2.345-2.039 4.211-4.591 5.596-7.65 1.388-3.058 2.082-6.352 2.082-9.876 0-3.956-.834-7.648-2.498-11.081a36.22 36.22 0 0 0-6.379-9.228 42.757 42.757 0 0 0-8.646-7.001c-3.179-1.95-6.274-3.448-9.296-4.499 2.345 0 4.728.525 7.167 1.576 2.434 1.052 4.762 2.428 6.982 4.127a40.927 40.927 0 0 1 6.15 5.842c1.875 2.195 3.463 4.437 4.761 6.723l-.649.929a22.41 22.41 0 0 1 2.824 6.027c.646 2.164.968 4.391.968 6.676 0 4.393-.938 8.24-2.819 11.546-1.883 3.311-4.251 6.063-7.122 8.255a31.412 31.412 0 0 1-9.434 4.964c-3.418 1.111-6.644 1.668-9.666 1.668-1.722 0-3.468-.188-5.223-.558-1.761-.373-3.536-.99-5.315-1.854v.557c1.72.989 3.497 1.668 5.315 2.039 1.817.371 3.622.556 5.413.556 4.441 0 8.799-.973 13.085-2.921 4.281-1.945 7.906-4.682 10.868-8.206-2.838 3.646-6.368 6.49-10.588 8.532-4.228 2.039-8.622 3.061-13.186 3.061-4.685 0-8.476-.911-11.374-2.735s-5.167-4.067-6.795-6.724c-1.635-2.658-2.733-5.475-3.283-8.441-.554-2.964-.835-5.624-.835-7.972 0-3.155.416-6.244 1.248-9.275.835-3.029 2.111-5.811 3.841-8.347 1.726-2.535 3.946-4.713 6.655-6.538 2.716-1.823 5.983-3.107 9.806-3.848l-2.679-.65c-1.296-.309-2.221-.677-2.78-1.111-.552-.433-.825-.804-.825-1.112 0-.495.537-1.036 1.615-1.626 1.076-.59 2.293-.884 3.65-.884zm-4.165 11.684c1.665-.617 3.271-.925 4.814-.925 1.536 0 2.727.229 3.561.694.83.463 1.246.942 1.246 1.438 0 .31-.354.647-1.063 1.021-.711.369-1.604.88-2.682 1.529s-2.249 1.469-3.515 2.458c-1.265.989-2.436 2.242-3.517 3.755-1.078 1.518-1.973 3.354-2.683 5.517-.706 2.165-1.062 4.701-1.062 7.604 0 4.268.954 7.483 2.868 9.647 1.911 2.166 4.563 3.245 7.95 3.245 2.158 0 4.366-.372 6.617-1.111a21.328 21.328 0 0 0 6.103-3.154 16.468 16.468 0 0 0 4.439-5.006c1.141-1.98 1.709-4.206 1.709-6.679a16.73 16.73 0 0 0-.969-5.565 23.515 23.515 0 0 0-2.685-5.333 28.036 28.036 0 0 0-4.066-4.773 26.56 26.56 0 0 0-5.136-3.803c-1.785-.991-3.252-1.745-4.393-2.272-1.14-.525-1.958-1.036-2.451-1.529-.497.247-1.188.54-2.082.88-.896.34-2.079.852-3.559 1.529l.556.833zm6.199-5.842-.832-.369a1.459 1.459 0 0 1-.277.369c-.124.125-.182.249-.182.372 0 .124.072.295.228.511.151.216.293.384.414.51l.649-1.393zm0 1.485c2.836.927 5.546 2.318 8.143 4.173a47.298 47.298 0 0 1 6.103 5.472 42.335 42.335 0 0 0-5.826-5.656 28.21 28.21 0 0 0-8.049-4.637l-.371.648zm17.943 31.624c-.926 1.98-2.217 3.741-3.887 5.286a11.146 11.146 0 0 0 2.824-2.688c.769-1.052 1.404-2.103 1.893-3.152.491-1.054.866-2.01 1.115-2.877.181-.805.335-1.45.461-1.948a155.955 155.955 0 0 1-2.406 5.379zm-3.145-21.331a6.48 6.48 0 0 0-.554-.649c.185.249.369.465.554.649zm9.341 29.308a1.35 1.35 0 0 1-.279.368c-.061.063-.118.094-.18.094-.063 0 .089-.323.459-.976.37-.647.819-1.421 1.341-2.318a49.363 49.363 0 0 0 1.527-2.827c.432-.741.741-1.392.924-1.948a29.174 29.174 0 0 1-3.792 7.607zm3.792-7.607zm1.388-7.418c0 .989-.063 1.965-.186 2.921a11.373 11.373 0 0 1-.646 2.644c.431-1.546.646-3.277.646-5.192 0-1.423-.121-2.814-.371-4.175a30.961 30.961 0 0 0-.74-3.433c.309 1.113.587 2.228.833 3.34a15.96 15.96 0 0 1 .464 3.895zm-1.206 6.861c-.055.063-.091.125-.091.187 0-.062.036-.123.091-.187zM-398.75 699.41c.492.495 1.34.88 2.545 1.159a15.37 15.37 0 0 0 3.473.418c2.026 0 3.972-.666 5.821-1.994 1.852-1.329 3.621-3.139 5.32-5.426 1.697-2.289 3.313-4.913 4.854-7.882 1.538-2.97 3.02-6.091 4.438-9.366h-.089a305.795 305.795 0 0 1-3.979 8.392c-1.421 2.873-2.962 5.503-4.623 7.881-1.666 2.382-3.467 4.33-5.415 5.846-1.94 1.514-4.021 2.271-6.24 2.271-1.79 0-3.548-.526-5.27-1.576.92-.309 1.784-.464 2.588-.464.244 0 .675.063 1.292.188.986 0 1.818-.031 2.501-.094a8.343 8.343 0 0 0 1.942-.415 5.832 5.832 0 0 0 1.756-1.021c.555-.465 1.172-1.068 1.85-1.808l1.107.276a72.466 72.466 0 0 0 5.046-7.605 570.396 570.396 0 0 0 4.667-8.254l1.664-3.71-.83-.185-1.391 3.338a188.093 188.093 0 0 1-4.438 8.206 44.16 44.16 0 0 1-5.271 7.375c2.155-2.661 4.129-5.628 5.921-8.902a112.102 112.102 0 0 0 4.9-10.201l-.557-.929a20.847 20.847 0 0 0-1.386-4.175 54.53 54.53 0 0 0-1.48-3.245c1.107 2.661 1.882 5.228 2.311 7.698-.616-.184-1.124-.574-1.522-1.16a11.807 11.807 0 0 1-1.112-2.086 30.389 30.389 0 0 1-.925-2.501 18.12 18.12 0 0 0-1.063-2.598l.465-.835c-.985-1.545-2.053-3.463-3.188-5.75a483.718 483.718 0 0 0-3.608-7.047 259.526 259.526 0 0 0-3.84-7.047c-1.298-2.292-2.559-4.204-3.793-5.753l-.275.278 11.561 20.867a350.459 350.459 0 0 0-7.491-12.056c-2.65-4.082-5.027-8.594-7.119-13.542 0-.432-.063-1.002-.188-1.714a79.168 79.168 0 0 0-.414-2.229 57.536 57.536 0 0 0-.51-2.315 36.828 36.828 0 0 0-.554-2.088l2.404-.741c.305 0 .584.139.83.416.248.278.458.853.648 1.716.307 0 .584-.246.833-.741.247-.494.507-1.051.786-1.669.274-.616.585-1.173.926-1.667.335-.494.782-.744 1.341-.744.797 0 1.521.542 2.169 1.623.649 1.083 1.269 2.396 1.855 3.942.581 1.547 1.212 3.17 1.891 4.869.683 1.698 1.48 3.168 2.407 4.403.986 1.67 1.987 3.31 3.006 4.915a49.967 49.967 0 0 1 2.819 5.104c.924 2.472 2.125 4.962 3.604 7.463a38.317 38.317 0 0 1 3.519 7.837c1.479-4.947 2.665-9.353 3.56-13.217a117.697 117.697 0 0 0 2.081-11.543c.678-1.979 1.266-4.205 1.759-6.68.493-2.472.74-4.883.74-7.23l2.034.091c.307 0 .585.138.828.416.252.28.37.943.37 1.995 0 .309-.012.634-.045.974-.031.341-.073.758-.14 1.251h.835c.557-2.04 1.201-3.678 1.941-4.917.741-1.233 1.448-1.854 2.128-1.854.491 0 .973.526 1.434 1.576.46 1.054.696 2.813.696 5.287 0 4.144-.501 8.623-1.48 13.446a822.529 822.529 0 0 1-3.056 14.281 164.759 164.759 0 0 1-6.104 18.177c-2.346 5.813-5.304 11.715-8.88 17.713a97.034 97.034 0 0 1-3.744 5.241 29.278 29.278 0 0 1-4.809 4.961c-1.821 1.483-3.886 2.704-6.198 3.662-2.315.959-4.946 1.439-7.906 1.439-2.157 0-3.625-.279-4.396-.837-.77-.558-1.157-.987-1.157-1.298 0-.185.063-.402.188-.647 1.849.616 3.821.926 5.919.926 1.479 0 3.19-.264 5.131-.786 1.942-.528 3.686-1.314 5.226-2.367-1.418.743-3.005 1.393-4.763 1.947-1.755.558-3.344.837-4.761.837-2.222 0-4.379-.279-6.475-.837 0-.432-.17-.834-.511-1.204a9.34 9.34 0 0 0-1.155-1.064 9.764 9.764 0 0 1-1.153-1.067 1.877 1.877 0 0 1-.511-1.3c0-.497.151-.866.459-1.112a3.175 3.175 0 0 1 1.063-.555c.402-.126.816-.233 1.253-.328a6.723 6.723 0 0 0 1.11-.323zm18.59-36.723a46.052 46.052 0 0 0-2.359-4.777 70.089 70.089 0 0 0-2.911-4.682 226.193 226.193 0 0 0 2.866 5.377 84.957 84.957 0 0 1 2.776 5.1l-.372-1.018zm12.487 20.311a479.211 479.211 0 0 1-5.551 9.688c-1.908 3.247-4.313 6.319-7.212 9.229 2.959-2.784 5.412-5.797 7.352-9.046a146.96 146.96 0 0 0 5.411-9.871zm-10.268-30.886c.063.931.203 1.702.416 2.317.212.62.464 1.162.743 1.625.273.463.553.897.832 1.3.276.401.541.879.783 1.436l-.184-.277-2.59-6.401zm3.332 7.608 3.05 7.604.556-.559-3.606-7.045zm3.79 7.417-.647.741c.123.188.247.356.369.511.126.151.218.355.278.604l.462-.743-.462-1.113zm1.111-1.112c.243-.74.463-1.483.645-2.227l.562-2.226-.563-.277-1.015 3.617c.129.494.245.867.371 1.113zM-310.333 676.134c-2.342.803-4.132 1.249-5.36 1.344-1.238.092-2.314.168-3.233.233-3.458 0-6.566-.649-9.346-1.95-2.773-1.298-5.148-3.058-7.119-5.284-1.976-2.227-3.503-4.835-4.581-7.835-1.08-2.999-1.618-6.196-1.618-9.598 0-1.98.187-4.036.558-6.17a37.463 37.463 0 0 1 1.665-6.307c.738-2.068 1.69-4 2.86-5.796a23.306 23.306 0 0 1 3.979-4.821 18.343 18.343 0 0 0-4.066 4.638 30.967 30.967 0 0 0-2.96 5.797 32.607 32.607 0 0 0-1.754 6.398c-.371 2.195-.561 4.311-.561 6.353 0 2.599.42 5.364 1.253 8.301.827 2.936 2.17 5.655 4.021 8.16s4.238 4.592 7.165 6.261c2.931 1.667 6.491 2.503 10.688 2.503 1.971 0 4.032-.279 6.193-.836-2.342 1.545-4.961 2.32-7.861 2.32-2.343 0-4.541-.355-6.613-1.066a22.004 22.004 0 0 1-5.731-2.969 25.463 25.463 0 0 1-4.762-4.496 29.15 29.15 0 0 1-3.611-5.567l.834-.739c-1.045-2.101-1.801-4.203-2.268-6.308a29.905 29.905 0 0 1-.691-6.4c0-3.151.448-6.178 1.338-9.085a40.948 40.948 0 0 1 3.566-8.254l2.22-3.061c.365-.679.905-1.358 1.621-2.039a25.334 25.334 0 0 1 2.352-1.995 22.648 22.648 0 0 1 2.729-1.761 78.69 78.69 0 0 1 2.729-1.438 91.559 91.559 0 0 1 6.657-3.016c2.223-.894 4.813-1.561 7.774-1.994l-.37-.278c-5.675.559-10.486 1.936-14.429 4.127-3.946 2.198-7.154 4.871-9.622 8.024-2.463 3.154-4.251 6.601-5.359 10.34-1.11 3.743-1.664 7.405-1.664 10.989 0 1.917.17 3.85.504 5.798a36.07 36.07 0 0 0 1.53 5.795c-1.542-3.709-2.313-7.636-2.313-11.78 0-4.08.677-8.126 2.031-12.146 1.359-4.02 3.484-7.73 6.387-11.129 3.695-3.4 7.734-6.013 12.11-7.837 4.375-1.822 8.604-2.735 12.673-2.735 1.293 0 2.621.216 3.975.647a11.362 11.362 0 0 1 3.701 1.994c1.113.898 2.016 2.058 2.729 3.479.707 1.419 1.064 3.152 1.064 5.191 0 1.671-.403 3.71-1.198 6.12-.802 2.412-1.994 4.747-3.563 7.002a22.074 22.074 0 0 1-5.879 5.75c-2.341 1.575-5.055 2.365-8.137 2.365h-3.049c-2.285-.496-4.363-1.065-6.245-1.718-1.882-.647-3.651-1.158-5.318-1.529a13.703 13.703 0 0 0-.413 2.829 67.453 67.453 0 0 0-.043 2.644c0 1.793.191 3.539.596 5.24a15.98 15.98 0 0 0 1.896 4.682 11.996 11.996 0 0 0 3.284 3.569c1.322.961 2.942 1.563 4.854 1.81 1.171.249 2.189.388 3.056.417.86.033 1.587.061 2.171.093.585.033 1.018.123 1.295.277.28.157.414.449.414.881a9.655 9.655 0 0 1-1.896.371c-.645.063-1.312.093-1.984.093-2.161 0-4.103-.354-5.826-1.067-1.724-.709-3.206-1.528-4.44-2.458 1.417 1.424 3.114 2.428 5.088 3.014 1.971.589 3.913.883 5.825.883a19.48 19.48 0 0 0 3.233-.278c-.121.373-.181.591-.181.648 0 .371.152.618.463.743.246-.06.674-.229 1.294-.51a86.458 86.458 0 0 1 1.896-.833c.647-.279 1.28-.524 1.894-.742.617-.217 1.054-.326 1.299-.326.305 0 .585.049.832.14.246.093.367.449.367 1.067s-.211 1.358-.644 2.223c-.447.867-1.092 1.729-1.955 2.598zm-19.604-8.809c-.438-.496-.865-.989-1.296-1.486a8.706 8.706 0 0 1-.929-1.297 9.614 9.614 0 0 0 2.225 2.783zm2.588-21.054c.124-.122.197-.308.23-.559a5.68 5.68 0 0 0 .047-.556l-4.348-1.575-.464 1.299 4.535 1.391zm4.258-6.862 2.03.37c.68.123 1.295.186 1.854.186.611 0 1.339-.199 2.169-.603.831-.399 1.669-.972 2.499-1.715.837-.744 1.573-1.671 2.22-2.785.646-1.111 1.128-2.379 1.435-3.799l.184-.558c-.865 0-2.155.219-3.885.647a46.559 46.559 0 0 0-5.36 1.717 33.07 33.07 0 0 0-5.181 2.504c-1.605.957-2.715 1.995-3.328 3.108.925.184 1.832.354 2.726.508.889.158 1.769.294 2.637.42zM-291.925 662.687c0-1.424.165-2.599.505-3.523a7.21 7.21 0 0 1 1.438-2.412c-.498.741-.909 1.575-1.254 2.503-.331.929-.504 1.947-.504 3.063v8.716l2.864.557c.861.185 1.726.31 2.596.371.858.063 1.691.093 2.49.093.867 0 1.637-.014 2.313-.046a45.93 45.93 0 0 1 2.04-.047l7.119.093-7.033.092h-1.013c-.556 0-1.157.019-1.809.046-.646.032-1.343.047-2.077.047a28.77 28.77 0 0 1-2.22-.093 18.408 18.408 0 0 1-2.501-.371l-2.956-.557v-8.532h.002zm53.176-21.052c-1.233 1.113-2.712 2.196-4.438 3.247a63.54 63.54 0 0 1-5.362 2.92 57.429 57.429 0 0 1-5.46 2.319c-1.791.649-3.39 1.157-4.813 1.531-1.418.433-2.71.852-3.883 1.251a32.78 32.78 0 0 0-3.327 1.345 38.771 38.771 0 0 0-3.146 1.67 30.053 30.053 0 0 0-3.235 2.225 76.382 76.382 0 0 1-1.988 1.485c-.523.369-.956.682-1.294.926-.342.25-.62.435-.837.557-.213.124-.414.249-.6.374l3.333.274c2.584.249 5.085.513 7.487.79 2.404.28 4.84.573 7.31.882 1.046.125 1.659.2 1.85.229.184.035.368.048.552.048 5.061.313 8.604.542 10.638.697 2.037.152 3.054.604 3.054 1.343 0 .25-.031.404-.095.466a79.371 79.371 0 0 1-7.354-.694c-2.377-.342-5.163-.573-8.371-.699a81.797 81.797 0 0 0-4.298-.508 129.72 129.72 0 0 0-5.087-.373 346.247 346.247 0 0 0-5.271-.231 143.245 143.245 0 0 0-8.738-.049c-1.111.035-2.007.112-2.685.235 1.666 0 3.64.031 5.917.091 2.28.063 4.625.14 7.033.233 2.398.093 4.76.218 7.074.369 2.31.157 4.297.357 5.96.605l3.239.462c2.157.309 4.175.496 6.057.557 1.883.063 3.935.218 6.156.463-.314.31-.468.619-.468.929 0 .557.385.804 1.157.743.77-.063 1.864 0 3.285.182 1.229.497 2.106.944 2.636 1.346.521.404.784.787.784 1.159s-.245.727-.74 1.067c-.494.341-1.109.604-1.852.786l-2.313.649a71.351 71.351 0 0 0-7.259-.878 173.004 173.004 0 0 1-7.63-.697l-2.404-.276a210.19 210.19 0 0 0-5.821-.65c-1.916-.184-3.887-.373-5.922-.557l-9.806-.74c-.68-.063-1.42-.108-2.219-.14a62.849 62.849 0 0 0-2.498-.046h-1.665c-.556 0-1.14.032-1.757.092l-1.662.094v-7.143c0-1.913.46-3.416 1.382-4.497.93-1.085 1.946-1.9 3.057-2.457a9.641 9.641 0 0 1 1.664-.742.862.862 0 0 0-.371.091c-.924.309-1.838.758-2.729 1.345-.893.589-1.664 1.375-2.313 2.364-.646.99-.971 2.289-.971 3.896l-.099 7.327h8.979l5.643.278c2.896.183 5.715.431 8.463.74 2.742.31 5.471.649 8.185 1.021l2.958.464c2.342.248 4.527.494 6.564.743 2.036.248 4.134.525 6.288.834-.863.187-1.803.356-2.822.508-1.014.155-2.14.233-3.373.233-1.171 0-2.219-.062-3.145-.186-.923-.121-2.001-.246-3.233-.37l-2.957-.372a190.53 190.53 0 0 0-6.2-.788c-1.978-.216-4.104-.449-6.384-.695l-.558-1.021h-7.487c-.308 0-.646.015-1.018.046a15.43 15.43 0 0 1-1.3.045h-2.306a64.16 64.16 0 0 1-2.406-.045 27.818 27.818 0 0 1-2.59-.233l-2.588-.373v-8.065c0-2.041.441-3.695 1.343-4.96.891-1.27 1.919-2.274 3.092-3.017a18.724 18.724 0 0 1 3.519-1.762c1.168-.431 2.067-.837 2.679-1.206l2.129-1.669a57.101 57.101 0 0 1 7.771-4.917 42.102 42.102 0 0 1 8.507-3.337l1.388-.372a29.91 29.91 0 0 1 4.348-1.76 25.32 25.32 0 0 0 4.348-1.855l-.276-.463a45.394 45.394 0 0 1-4.67 1.759c-1.57.498-2.915 1.021-4.021 1.578l-1.39.372a44.486 44.486 0 0 0-8.831 3.522c-2.812 1.484-5.354 3.122-7.634 4.917l-1.849 1.573h-.368c-.189 0-.437.063-.74.186l.927-.462c3.325-2.844 6.579-5.055 9.755-6.629 3.175-1.578 6.336-2.828 9.479-3.759 2.345-.864 4.251-1.528 5.732-1.993a24.531 24.531 0 0 0 4.161-1.717c-2.401-.555-4.529-.94-6.381-1.156a44.127 44.127 0 0 0-5.182-.325c-.803 0-1.572.016-2.312.045-.737.03-1.479.079-2.216.14a9.216 9.216 0 0 0-1.298-.094h-1.196c-2.166 0-4.244.218-6.247.648a32.924 32.924 0 0 0-5.688 1.763 1.31 1.31 0 0 0-.511-1.063 1.322 1.322 0 0 1-.507-1.069c0-.369.415-.835 1.248-1.39.831-.557 2.392-1.082 4.669-1.578l-.186-.925c-2.093.309-3.913.586-5.455.834-1.54.246-2.837.369-3.887.369-.675 0-1.187-.031-1.521-.09-.344-.063-.57-.278-.701-.651a.81.81 0 0 1 .098-.368.83.83 0 0 0 .091-.373c1.234-1.236 2.748-2.333 4.533-3.292 1.79-.957 3.773-1.762 5.962-2.411a46.68 46.68 0 0 1 6.983-1.483 55.364 55.364 0 0 1 7.586-.511c1.912 0 4.053.153 6.43.462 2.371.31 5.006.712 7.909 1.207.612.185 1.166.355 1.662.509a70.674 70.674 0 0 1 3.42 1.161c.68.247 1.511.555 2.501.928-.063-.063.353.092 1.247.462.892.372 1.802 1.052 2.729 2.041l-.736 11.13zm-43.835 10.108-1.943 1.3c-.74.494-1.621.987-2.633 1.482-1.021.496-1.96 1.237-2.821 2.227 1.169-1.729 2.588-3.014 4.253-3.85 1.666-.833 2.957-1.375 3.886-1.625l-.742.466zm.831 2.504c1.048-.37 1.728-.836 2.034-1.392l.555-.37a347.308 347.308 0 0 0 3.472-2.736 38.591 38.591 0 0 1 3.743-2.643 21.396 21.396 0 0 0-4.715 3.2 34.702 34.702 0 0 1-4.813 3.569c-.31.187-.644.37-1.015.554.243-.057.491-.118.739-.182zm3.514 5.287c-.867 0-1.62.324-2.271.972-.642.65-1.151 1.101-1.522 1.35l.188.089c.305-.187.896-.525 1.757-1.021.862-.494 1.786-1.019 2.775-1.576.981-.557 1.938-1.098 2.863-1.62a57.317 57.317 0 0 0 2.131-1.256 17.3 17.3 0 0 1-1.342.697 86.218 86.218 0 0 0-3.514 1.762c-.527.278-.876.478-1.065.603z"/></g><path fill="#F8F9F6" d="M185.292 378.367c-102.591-5.975 5.195 284.248 207.601 283.744h9.695c202.406.504 310.191-289.719 207.602-283.744l-2.142-36.75c27.747-1.617 51.539 10.016 65.313 31.912 27.296 43.387 18.424 140.642-9.575 191.187-43.411 78.368-143 174.014-260.676 174.014h-10.739c-117.676 0-217.262-95.646-260.675-174.016-27.997-50.545-36.869-147.8-9.572-191.187 13.772-21.896 37.561-33.528 65.309-31.912l-2.141 36.752z"/><path fill="#103653" d="M400.696 749.121h-10.74c-117.075 0-221.905-92.98-269.762-179.369-28.885-52.151-39.465-153.772-9.278-201.754 15.85-25.198 43.044-38.608 74.708-36.751l-1.21 20.743c-23.807-1.384-44.215 8.479-55.911 27.071-25.378 40.338-15.622 134.606 9.867 180.622 44.999 81.232 142.923 168.66 251.586 168.66h10.74c108.667 0 206.589-87.428 251.586-168.66 25.49-46.016 35.246-140.283 9.869-180.622-11.696-18.594-32.107-28.46-55.911-27.071l-1.209-20.743c31.628-1.839 58.854 11.553 74.707 36.751 30.187 47.982 19.605 149.604-9.281 201.754-47.853 86.387-152.682 179.369-269.761 179.369z"/><path fill="#103653" d="M389.931 672.503c-106.168.002-186.452-76.595-226.213-148.371-30.588-55.221-39.084-108.813-21.645-136.531 6.096-9.688 18.252-20.952 41.409-19.604l-1.208 20.743c-10.616-.607-18.021 2.629-22.614 9.926-13.053 20.748-3.91 68.203 22.234 115.399 36.889 66.593 110.896 137.661 208.064 137.661h10.709c97.204 0 171.203-71.063 208.095-137.663 26.145-47.195 35.286-94.649 22.231-115.397-4.59-7.297-11.97-10.537-22.613-9.926l-1.208-20.743c23.168-1.347 35.314 9.917 41.41 19.604 17.438 27.719 8.943 81.311-21.646 136.531-39.759 71.771-120.054 148.362-226.24 148.37h-10.218l-.547.001z"/><path fill="#103653" d="M398.448 546.29c-125.211 0-227.075-84-227.075-187.253 0-103.252 101.864-187.255 227.075-187.255 125.214 0 227.08 84.003 227.08 187.255 0 103.253-101.866 187.253-227.08 187.253zm0-351.495c-112.521 0-204.065 73.679-204.065 164.242 0 90.564 91.544 164.244 204.065 164.244 112.524 0 204.068-73.68 204.068-164.244.002-90.564-91.542-164.242-204.068-164.242z"/><g fill="#103653" stroke="#103653" stroke-width="4.469" stroke-linecap="round" stroke-linejoin="round" stroke-miterlimit="10"><path d="M251.408 361.353c0 .269-.322 1.261-.965 2.976a562.93 562.93 0 0 1-2.293 5.993c-.885 2.28-1.81 4.625-2.775 7.039a514.974 514.974 0 0 1-2.494 5.873l2.252-6.436a139.178 139.178 0 0 1-6.274 13.112v.241c-1.126 0-2.212-.014-3.258-.04a28.391 28.391 0 0 1-3.258-.282 60.303 60.303 0 0 0-1.166-2.855 309.138 309.138 0 0 1-1.368-3.178 201.715 201.715 0 0 0-1.368-3.137 340.757 340.757 0 0 1-1.247-2.815l-.322.482a148.784 148.784 0 0 0-3.66-6.999 1005.041 1005.041 0 0 0-3.821-6.797c-1.234-2.172-2.36-4.155-3.378-5.953-1.02-1.796-1.77-3.258-2.252-4.384a69.304 69.304 0 0 1-3.298-8.607 587.238 587.238 0 0 0-2.815-8.849c.375-.214.71-.402 1.005-.563.294-.161.576-.242.845-.242.322 0 .63.242.925.724a16.38 16.38 0 0 1 1.529 3.379c.187.59.308.965.362 1.126l.724-.482a31.091 31.091 0 0 1-.644-3.057 20.058 20.058 0 0 1-.241-3.137v-.644c0-.375.04-.736.121-1.086a3.2 3.2 0 0 1 .362-.925c.161-.268.375-.402.644-.402.375 0 1.046.804 2.011 2.413s2.051 3.647 3.258 6.114a369.882 369.882 0 0 1 3.861 8.165 3850.52 3850.52 0 0 1 3.942 8.607c1.259 2.763 2.373 5.216 3.338 7.36.965 2.146 1.662 3.62 2.091 4.424a180.347 180.347 0 0 1 1.891 3.901 48.575 48.575 0 0 0 2.051 3.902 106.568 106.568 0 0 0 5.792-16.089l4.504-16.571c.161-.535.402-1.662.724-3.378.322-1.716.696-3.5 1.126-5.35.428-1.85.885-3.499 1.367-4.947.483-1.448.965-2.172 1.448-2.172l.241.081a477.03 477.03 0 0 0-2.413 10.98 279.784 279.784 0 0 1-2.494 10.9 183.416 183.416 0 0 0 2.735-10.699 183.62 183.62 0 0 1 2.735-10.699l.724.483c.107-.375.282-.897.523-1.569.241-.67.523-1.34.845-2.011a8.3 8.3 0 0 1 1.086-1.729c.402-.482.817-.724 1.247-.724.322 0 .604.188.845.563.241.376.415.804.523 1.287.107.482.188.965.241 1.448.053.483.081.832.081 1.046 0 .108-.068.335-.201.684-.134.35-.229.604-.281.764a230.366 230.366 0 0 0-3.741 13.917 1183.11 1183.11 0 0 1-3.379 13.957 224.338 224.338 0 0 1-3.901 13.796 113.148 113.148 0 0 1-5.068 13.192c1.983-4.236 3.7-8.58 5.148-13.032a273.257 273.257 0 0 0 4.143-13.796 632.127 632.127 0 0 0 3.62-13.957 220.838 220.838 0 0 1 3.901-13.836c0 2.091-.161 4.156-.482 6.194a81.89 81.89 0 0 1-1.207 6.114 119.745 119.745 0 0 1-1.609 6.073 132.27 132.27 0 0 0-1.609 5.993h-.724a163.776 163.776 0 0 1-4.585 16.893c.483-1.287.992-2.574 1.529-3.861a79.032 79.032 0 0 1 1.689-3.781l.562-1.125zM230.17 387.98c-.43-.965-.913-2.185-1.448-3.66a279.965 279.965 0 0 1-1.448-4.063 28.92 28.92 0 0 1 1.851 3.741 15.374 15.374 0 0 1 1.045 3.982zm.885 2.413a17.498 17.498 0 0 1-.362-1.005 15.002 15.002 0 0 0-.523-1.327c.214.322.563.71 1.046 1.167.482.455.857.897 1.126 1.327l-1.287-.162zm8.849.161a15.814 15.814 0 0 0-2.252-.161H235.4c.535-.054 1.046-.08 1.528-.08h2.735l1.931-4.022h.322l-2.012 4.263zm6.114-40.785a322.587 322.587 0 0 1-3.459 12.308 110.959 110.959 0 0 1-3.137 8.929 98.373 98.373 0 0 0 3.298-8.929 134.394 134.394 0 0 0 3.298-12.308zm-4.103 36.441h-.322c.107-.214.268-.576.483-1.086a56.74 56.74 0 0 1 .804-1.81l-.965 2.896zM277.712 339.553c.053.269.348.402.885.402h.161c.322 0 .535.027.644.081 2.788.858 5.563 2.105 8.326 3.74a36.253 36.253 0 0 1 7.481 5.873 28.41 28.41 0 0 1 5.39 7.763c1.368 2.896 2.052 6.007 2.052 9.332 0 2.896-.563 5.685-1.689 8.366-1.126 2.683-2.682 5.015-4.666 6.999 2.038-1.77 3.66-3.982 4.867-6.636 1.207-2.655 1.81-5.51 1.81-8.567 0-3.431-.724-6.636-2.172-9.613a31.428 31.428 0 0 0-5.55-8.004 37.193 37.193 0 0 0-7.521-6.073c-2.763-1.689-5.458-2.989-8.084-3.901 2.038 0 4.115.456 6.234 1.368a28.643 28.643 0 0 1 6.073 3.58 35.437 35.437 0 0 1 5.35 5.068c1.635 1.904 3.017 3.849 4.143 5.832l-.563.805a19.447 19.447 0 0 1 2.454 5.229c.563 1.878.845 3.809.845 5.792 0 3.809-.818 7.147-2.454 10.015-1.637 2.87-3.7 5.256-6.194 7.159a27.31 27.31 0 0 1-8.205 4.304c-2.977.965-5.779 1.448-8.406 1.448-1.502 0-3.017-.161-4.545-.483s-3.071-.858-4.625-1.608v.482c1.5.857 3.043 1.448 4.625 1.77 1.581.322 3.15.483 4.706.483 3.861 0 7.654-.845 11.382-2.534 3.727-1.689 6.878-4.062 9.452-7.119-2.467 3.165-5.538 5.631-9.21 7.401-3.674 1.77-7.495 2.655-11.463 2.655-4.076 0-7.375-.792-9.895-2.373-2.521-1.582-4.492-3.526-5.913-5.833-1.421-2.305-2.373-4.746-2.855-7.32-.483-2.574-.724-4.879-.724-6.918 0-2.735.362-5.416 1.086-8.044a24.097 24.097 0 0 1 3.338-7.24c1.501-2.198 3.432-4.089 5.792-5.671 2.359-1.581 5.201-2.695 8.527-3.338l-2.333-.563c-1.126-.268-1.931-.589-2.413-.965-.483-.375-.724-.696-.724-.965 0-.429.469-.897 1.408-1.408.934-.516 1.993-.771 3.173-.771zm-3.62 10.136c1.448-.535 2.842-.804 4.183-.804 1.34 0 2.373.201 3.097.603.724.402 1.086.818 1.086 1.247 0 .269-.309.563-.925.885a46.06 46.06 0 0 0-2.333 1.328c-.939.563-1.958 1.274-3.057 2.131-1.1.858-2.119 1.945-3.057 3.258-.939 1.314-1.717 2.91-2.333 4.786-.617 1.878-.925 4.076-.925 6.596 0 3.701.831 6.49 2.494 8.366 1.662 1.878 3.968 2.815 6.918 2.815 1.876 0 3.793-.322 5.751-.965a18.478 18.478 0 0 0 5.31-2.735 14.278 14.278 0 0 0 3.861-4.344c.992-1.715 1.488-3.646 1.488-5.792 0-1.609-.281-3.218-.844-4.827a20.254 20.254 0 0 0-2.333-4.625c-.993-1.475-2.172-2.856-3.54-4.143s-2.855-2.385-4.464-3.298c-1.556-.857-2.83-1.515-3.821-1.971-.993-.455-1.703-.897-2.132-1.327-.43.215-1.033.47-1.81.764-.778.295-1.81.738-3.097 1.328l.483.724zm5.39-5.068-.724-.322a1.263 1.263 0 0 1-.242.322c-.108.108-.161.215-.161.322 0 .108.066.255.201.442.133.188.254.336.362.442l.564-1.206zm0 1.287c2.466.805 4.827 2.011 7.079 3.62a40.865 40.865 0 0 1 5.309 4.746 36.53 36.53 0 0 0-5.068-4.907 24.51 24.51 0 0 0-6.999-4.022l-.321.563zm15.606 27.431c-.804 1.717-1.931 3.245-3.378 4.585a9.704 9.704 0 0 0 2.454-2.333 16.525 16.525 0 0 0 1.649-2.735c.429-.911.75-1.742.965-2.494a98.8 98.8 0 0 1 .402-1.689 135.027 135.027 0 0 1-2.092 4.666zm-2.735-18.502a5.313 5.313 0 0 0-.483-.563c.161.215.322.403.483.563zm8.125 25.42a1.257 1.257 0 0 1-.241.322c-.054.054-.108.081-.161.081-.054 0 .08-.282.402-.845s.71-1.233 1.167-2.011c.455-.776.897-1.595 1.328-2.453.375-.644.643-1.207.804-1.689-.753 2.306-1.851 4.504-3.299 6.595zm3.298-6.596a.72.72 0 0 0 0 0zm1.206-6.436c0 .858-.054 1.703-.161 2.534a9.912 9.912 0 0 1-.563 2.292c.375-1.34.563-2.842.563-4.505 0-1.233-.108-2.439-.322-3.62a26.728 26.728 0 0 0-.644-2.977c.268.965.509 1.931.724 2.896.269 1.075.403 2.202.403 3.38zm-1.045 5.953c-.054.054-.08.108-.08.161-.001-.053.026-.107.08-.161zM314.313 383.797c.213-1.5.415-3.258.603-5.269s.362-4.035.523-6.073c.161-2.038.322-4.035.483-5.993.161-1.957.322-3.66.482-5.108a72.765 72.765 0 0 0-.724 4.987c-.215 1.878-.43 3.809-.644 5.792-.215 1.984-.43 3.956-.644 5.913a857.667 857.667 0 0 0-.563 5.269c-.804-.536-1.207-1.26-1.207-2.172 0-1.072.026-1.971.081-2.695a67.48 67.48 0 0 1 .241-2.534l.885-.805a3.691 3.691 0 0 1-.08-.724v-.805c0-1.233.133-2.641.402-4.223.268-1.581.576-3.19.925-4.827.348-1.635.656-3.218.925-4.746.268-1.528.402-2.855.402-3.982l-.965-.241a97.39 97.39 0 0 1-.482 4.384 692.807 692.807 0 0 1-.684 5.068c-.241 1.743-.47 3.473-.684 5.188-.108.913-.215 1.77-.322 2.574.107-1.501.241-3.11.402-4.827.268-2.466.549-4.919.845-7.36.294-2.44.576-4.839.845-7.2.268-2.359.535-4.531.804-6.516 0-.804.201-1.675.604-2.614.402-.938.684-1.917.844-2.936.322.108.59.161.805.161h.563c.536 0 .885.121 1.046.362.161.242.241.577.241 1.006v.402l.724.242c.429-.805.938-1.448 1.528-1.931.589-.483 1.179-.724 1.77-.724 1.287 0 1.931 1.368 1.931 4.103 0 1.448-.148 2.99-.442 4.625a26.953 26.953 0 0 0-.442 4.787v1.045c0 1.717-.188 3.58-.563 5.591-.376 2.011-.792 4.05-1.247 6.114a241.055 241.055 0 0 0-1.247 5.993c-.376 1.931-.563 3.7-.563 5.309 0 .376.026.778.08 1.207.053.43.081.832.081 1.207 0 .805-.148 1.301-.442 1.488-.295.188-.657.282-1.086.282 0-.696-.028-1.555-.081-2.574a52.21 52.21 0 0 1-.081-2.735c-.108.59-.161 1.395-.161 2.413 0 1.02-.054 1.985-.161 2.896h-1.207v.965c-.482.858-1.126 1.287-1.931 1.287-.375 0-.804-.107-1.287-.322-.481-.214-.857-.455-1.125-.724zm-1.207-9.09c.053-.59.106-1.179.161-1.77-.054.643-.108 1.234-.161 1.77zm17.778-52.691a10.134 10.134 0 0 0-2.494 2.092 52.421 52.421 0 0 1-2.333 2.494c.482-.322.911-.67 1.287-1.046.375-.375.764-.75 1.167-1.126.402-.375.831-.75 1.287-1.126a9.963 9.963 0 0 1 1.568-1.046c.161.215.308.402.442.563.133.161.201.322.201.482l-1.85 1.85c0-.107-.094-.213-.282-.322-.188-.107-.335-.161-.442-.161-.161.537-.43.965-.804 1.287-.376.322-.752.617-1.126.885a16.41 16.41 0 0 0-1.126.885c-.376.322-.644.752-.805 1.287v.161c0 .054.081.08.242.08l4.022-3.781-1.528 1.528a98.297 98.297 0 0 1-2.373 2.293 45.435 45.435 0 0 1-2.333 2.051c-.724.591-1.167.885-1.327.885l-.081-.081c-.376-.107-.764-.161-1.167-.161s-.818-.026-1.247-.081c0-.429-.068-.885-.201-1.368-.135-.482-.201-.857-.201-1.126 0-.268.133-.402.402-.402 0-.161-.094-.415-.282-.764-.188-.348-.39-.75-.604-1.207a17.454 17.454 0 0 1-.603-1.448 4.493 4.493 0 0 1-.282-1.568c0-.536.228-1.059.684-1.569a7.103 7.103 0 0 1 1.608-1.327 17.153 17.153 0 0 1 1.81-.965c.59-.268 1.018-.455 1.287-.563.214 0 .294-.121.242-.362-.054-.241.026-.362.241-.362l1.448.482c-.108.269-.442.711-1.005 1.328-.563.617-.979 1.06-1.247 1.327.375-.268.817-.67 1.328-1.207a70.93 70.93 0 0 1 1.166-1.207c.268.108.509.215.724.322.214.108.375.161.483.161l.241-.241c.375 0 .791.081 1.247.241.455.161.871.35 1.247.563.375.215.696.457.965.724.27.272.404.486.404.646zM352.362 388.865a9.064 9.064 0 0 1-1.77.161h-2.333c-1.396 0-2.373.161-2.937.482-.563.322-.898.483-1.005.483l-.322-1.448v-1.448l-.402-7.562c-.108-1.448-.402-3.003-.885-4.666a40.545 40.545 0 0 1-1.126-5.068 86.63 86.63 0 0 1-.402-3.218l-.322-3.137a193.51 193.51 0 0 0-.362-3.298 42.424 42.424 0 0 0-.603-3.62c0-.322.013-.644.04-.965.026-.322.041-.644.041-.965 0-1.662-.135-3.298-.402-4.907a36.175 36.175 0 0 0-1.126-4.746c.375-.161.724-.308 1.046-.442.322-.133.616-.201.885-.201.268 0 .563.309.885.925.322.617.67 1.89 1.045 3.821.107 0 .268-.04.483-.121.213-.081.375-.121.482-.121a20.852 20.852 0 0 0-.402-2.936c-.215-1.046-.43-2.051-.644-3.017a165 165 0 0 0-.603-2.615c-.188-.776-.282-1.408-.282-1.89 0-.107.013-.241.041-.402.026-.161.147-.241.362-.241.268 0 .616.295 1.046.885.429.591.885 1.341 1.367 2.252.483.913.952 1.891 1.408 2.936.455 1.046.871 2.025 1.247 2.937 1.448-2.735 3.097-4.813 4.947-6.234 1.85-1.42 4.276-2.132 7.28-2.132 2.198 0 3.994.255 5.39.764 1.394.51 2.48 1.073 3.258 1.689.777.617 1.3 1.194 1.569 1.729l.482.804c0 .322-.161.537-.482.644a14.461 14.461 0 0 0-4.746-3.057 14.827 14.827 0 0 0-5.47-1.046c-1.824 0-3.191.241-4.103.724-.859.43-1.77.965-2.735 1.609 1.018-.644 1.957-1.153 2.815-1.528.912-.375 2.225-.563 3.942-.563 1.876 0 3.673.362 5.39 1.086 1.716.724 3.19 1.649 4.424 2.775a3.302 3.302 0 0 0-.684.362c-.188.134-.282.335-.282.603.268 0 .563.175.885.523.322.35.616.764.885 1.247.268.482.495.979.684 1.488.188.511.282.925.282 1.247 0 .913-.35 1.368-1.046 1.368-.537 0-1.18-.188-1.931-.563-.161-.053-.497-.348-1.005-.885a15.329 15.329 0 0 0-1.891-1.649 16.87 16.87 0 0 0-2.574-1.569c-.965-.482-2.039-.724-3.218-.724-.965 0-1.81.201-2.534.603a7.433 7.433 0 0 0-1.971 1.609 13.456 13.456 0 0 0-1.609 2.292l-1.045 1.931a26.61 26.61 0 0 1 2.654-3.941c1.072-1.394 2.414-2.092 4.022-2.092 1.394 0 2.681.31 3.861.925 1.179.617 2.144 1.381 2.896 2.292a36.846 36.846 0 0 0-3.218-1.126c-1.234-.375-2.414-.563-3.54-.563-.591 0-1.1.134-1.528.402a3.88 3.88 0 0 0-1.086 1.006 9.115 9.115 0 0 0-.804 1.327c-.241.482-.497.939-.764 1.368l-1.046.161c-.913 1.556-1.649 3.366-2.212 5.43a24.509 24.509 0 0 0-.845 6.476c0 1.341.066 2.548.201 3.62.133 1.074.334 2.172.603 3.298l.965 2.494-.161-2.333a310.137 310.137 0 0 0-.322-4.867 62.47 62.47 0 0 1-.161-4.706c.107-1.555.322-3.029.644-4.424.268-1.179.67-2.279 1.207-3.298-.644 1.287-1.073 2.763-1.287 4.424a39.708 39.708 0 0 0-.402 5.792c0 1.609.08 3.137.241 4.585.161 1.448.362 2.896.604 4.344.241 1.448.495 2.936.764 4.464a59.98 59.98 0 0 1 .644 5.028l.241 1.528.482 4.585-2.01.806zM410.118 411.307c.106-3.004.188-5.966.241-8.889.053-2.923.081-6.02.081-9.291 0-1.396-.028-2.775-.081-4.143a93.488 93.488 0 0 0-.241-3.982v8.849c0 2.949-.04 5.884-.12 8.808a101.828 101.828 0 0 1-.604 8.647c-.27-.482-.511-.979-.725-1.488a7.789 7.789 0 0 1-.482-1.648c.106-1.448.174-2.775.201-3.982.026-1.206.04-2.533.04-3.981l.966-.482a35.479 35.479 0 0 1-.322-3.419 73.111 73.111 0 0 1-.08-3.419c0-1.234.013-2.427.04-3.58.026-1.154.04-2.345.04-3.58 0-1.5-.04-2.989-.12-4.464a37.128 37.128 0 0 0-.523-4.465h-.241c.106 2.252.201 4.479.281 6.677.081 2.2.121 4.398.121 6.596 0 .965-.027 1.931-.08 2.896l-.081 2.092a452.267 452.267 0 0 0-.563-15.124 290.43 290.43 0 0 0-1.127-16.169l.322-6.677a20.706 20.706 0 0 0-1.851-.081h-1.85l-.241-1.85c0-.268.187-.509.563-.724.375-.213 1.126-.322 2.253-.322h.804v-.965c-1.77-.213-3.15-.589-4.143-1.126-.993-.536-1.488-1.099-1.488-1.689 0-.535.482-1.005 1.448-1.408.965-.402 2.212-.724 3.74-.965s3.204-.415 5.028-.523a90.622 90.622 0 0 1 5.309-.161c1.877 0 3.901.054 6.074.161 2.172.108 4.356.376 6.556.805a31.61 31.61 0 0 1 6.396 1.971 18.851 18.851 0 0 1 5.591 3.7c1.661 1.583 3.043 3.567 4.143 5.953 1.099 2.387 1.81 5.296 2.132 8.728 0 2.896-.631 5.269-1.891 7.119-1.261 1.85-2.775 3.338-4.545 4.465-1.77 1.126-3.607 1.93-5.511 2.413-1.904.482-3.473.804-4.706.965-1.233.269-2.654.577-4.263.925-1.609.35-2.977.523-4.103.523-1.234 0-1.959-.133-2.172-.402-.216-.268-.322-.616-.322-1.046a93.49 93.49 0 0 0 7.24-.604 41.024 41.024 0 0 0 7.239-1.568 61.856 61.856 0 0 1-7.239 1.327 93.987 93.987 0 0 1-7.24.604c0-.322-.027-.656-.08-1.006-.055-.348-.215-.523-.483-.523-.536 0-.952.859-1.246 2.574-.296 1.717-.511 3.767-.644 6.154a159.402 159.402 0 0 0-.241 7.36 579.817 579.817 0 0 0-.041 6.274c0 .751.041 1.541.121 2.373.08.831.12 1.541.12 2.132 0 .535-.08.992-.241 1.367-.16.375-.617.563-1.367.563v-10.135a107.375 107.375 0 0 0-.201 5.067c-.027 1.662-.04 3.352-.04 5.068h-1.448v.644c0 .482.08.831.241 1.046-.591 1.018-1.261 1.528-2.011 1.528-.591 0-1.033-.161-1.327-.482a44.882 44.882 0 0 0-1.247-1.287l.241-.724zm-.321-45.851c.106-.107.213-.563.321-1.368.106-.804.201-1.675.281-2.614.081-.938.161-1.823.241-2.655.081-.831.174-1.327.282-1.488l-1.046-.081-.079 8.206zm8.124 12.307h1.127c1.876 0 4.034-.107 6.476-.322 2.439-.214 4.732-.616 6.878-1.207 2.144-.589 3.954-1.42 5.43-2.494 1.475-1.072 2.212-2.466 2.212-4.183v-.644c0-.536-.04-1.126-.12-1.77a4.464 4.464 0 0 0-.685-1.85c.053.269.188.805.402 1.609.214.805.322 1.476.322 2.011 0 1.663-.577 3.017-1.729 4.063-1.154 1.045-2.603 1.877-4.345 2.494-1.743.617-3.647 1.045-5.711 1.287a51.08 51.08 0 0 1-5.913.362h-1.608c-.537 0-1.073-.026-1.608-.081.75-.589 1.729-1.005 2.936-1.247a50.402 50.402 0 0 1 3.821-.604c1.34-.161 2.654-.322 3.941-.482 1.287-.161 2.386-.429 3.299-.805l.482.965c1.876-.911 3.204-1.81 3.981-2.695s1.167-2.104 1.167-3.66c0-2.466-.684-4.638-2.052-6.516-1.367-1.877-3.205-3.138-5.51-3.781l-.242.483c1.984.751 3.701 1.985 5.148 3.7 1.448 1.717 2.172 3.781 2.172 6.194 0 1.287-.295 2.306-.885 3.057-.536.644-1.395 1.234-2.574 1.77.966-.429 1.689-.965 2.173-1.609a6.358 6.358 0 0 0 1.206-2.494c0-2.252-.536-4.156-1.608-5.711-1.074-1.555-2.574-2.802-4.505-3.741-1.931-.938-4.251-1.609-6.959-2.011s-5.698-.604-8.969-.604c.429 2.307.684 4.814.764 7.521.081 2.709.254 5.35.523 7.924l.563 5.071zM455.568 370.363c0-.375.013-.857.04-1.448.026-.589.066-1.179.12-1.77l.161-1.85c.053-.644.107-1.207.161-1.689-.054.804-.095 1.81-.121 3.017-.027 1.207-.04 2.105-.04 2.695v3.217c0 .43.013.885.04 1.368.026.483.067.939.121 1.368a13.996 13.996 0 0 1-.402-2.534 37.394 37.394 0 0 1-.08-2.374zm.483-6.838v-.241c.053-.053.08-.107.08-.161 0 .215-.027.349-.08.402zm20.835 17.617c-.322 0-.644.161-.966.483a29.1 29.1 0 0 1-3.499 1.086 15.692 15.692 0 0 1-3.74.442c-3.648 0-6.383-1.058-8.206-3.177-1.823-2.118-2.734-5.189-2.734-9.211 0-1.931.08-3.861.241-5.792.161-1.876.268-3.62.321-5.229-.16 1.663-.349 3.326-.563 4.987-.27 1.77-.402 3.62-.402 5.551 0 .965.093 2.199.281 3.7.188 1.502.656 2.964 1.408 4.384.75 1.421 1.902 2.654 3.459 3.7 1.555 1.046 3.7 1.569 6.436 1.569 1.287 0 2.533-.147 3.74-.442a29.1 29.1 0 0 0 3.499-1.086c-.751.913-1.757 1.637-3.017 2.172-1.261.537-2.749.804-4.464.804-2.2 0-4.332-.455-6.396-1.368-2.065-.911-3.634-2.439-4.706-4.585l.482-.885c-.965-1.716-1.502-3.258-1.608-4.625l-.322-4.063 1.368-14.078c.268-2.413.455-4.827.563-7.24l-.241-.161c-.43 2.521-.778 4.935-1.046 7.24a147.906 147.906 0 0 0-.644 6.677v-2.092c.322-2.466.616-4.893.885-7.28.269-2.386.616-4.813 1.046-7.28.429-2.466.979-5.041 1.649-7.723.67-2.681 1.568-5.55 2.694-8.607 1.501-2.038 2.386-4.048 2.655-6.033.161 0 .321.028.482.081.161.054.482.081.966.081.321 0 .603.068.844.201.242.135.362.417.362.845 0 .483-.161 1.207-.482 2.172.106 0 .268.041.482.121.214.08.375.121.482.121a59.315 59.315 0 0 1 2.052-3.298c.616-.911 1.219-1.368 1.81-1.368.375 0 .71.229 1.006.684.294.456.442 1.194.442 2.212-.108 1.931-.416 3.754-.925 5.47a84.945 84.945 0 0 1-1.649 4.987 206.52 206.52 0 0 0-1.729 4.907 29.78 29.78 0 0 0-1.247 5.229c-.321 2.091-.644 4.223-.965 6.395a286.47 286.47 0 0 0-.885 6.476c-.27 2.146-.523 4.211-.765 6.194a94.727 94.727 0 0 0-.522 5.55c0 1.556.241 3.165.724 4.827.268.43.509.738.724.925.214.188.59.281 1.127.281.644 0 1.354-.08 2.132-.241.776-.161 1.46-.241 2.051-.241.375 0 .644.054.805.161.161.108.294.295.402.563a9.45 9.45 0 0 1-2.414.965 9.95 9.95 0 0 1-2.413.322H466.267c.59.108 1.34.161 2.253.161 1.394 0 2.815-.322 4.264-.965 0 .483.16.885.482 1.207.161-.053.535-.241 1.126-.563.59-.322 1.099-.482 1.528-.482 1.287 0 1.931.537 1.931 1.609 0 .161-.054.402-.161.724s-.376.938-.804 1.849zm-13.435-11.101c0-1.233.081-2.439.241-3.62.161-1.179.295-2.386.402-3.62a36.19 36.19 0 0 0-.604 3.62c-.134 1.18-.255 2.387-.361 3.62v1.126c0 .375.026.778.08 1.207v-.563c0-.268.026-.563.081-.885.054-.322.107-.616.161-.885zM526.679 338.99l-.241 1.448c-.269 2.628-.43 5.444-.482 8.447a84.499 84.499 0 0 1-.644 8.929c.429-2.949.776-5.845 1.046-8.688.268-2.949.535-5.845.805-8.688.268.858.495 1.77.684 2.735.188.965.281 1.984.281 3.057-.269 2.682-.51 5.256-.724 7.723a150.716 150.716 0 0 1-.885 7.723l-1.046.241c-.27 2.467-.832 5.148-1.689 8.044a29.776 29.776 0 0 1-3.74 8.044c-1.637 2.467-3.741 4.519-6.315 6.154-2.574 1.637-5.658 2.454-9.251 2.454-1.18 0-2.427-.093-3.74-.281a22.655 22.655 0 0 1-3.821-.885 18.961 18.961 0 0 1-3.539-1.568 10.517 10.517 0 0 1-2.896-2.414l.081.161v.081l-.081.08-.241-.08c.322.482.67.913 1.046 1.287a17.685 17.685 0 0 1-2.654-2.977c-1.342-1.823-2.414-3.995-3.218-6.516a33.637 33.637 0 0 1-1.127-4.585 45.353 45.353 0 0 1-.563-4.947 115.92 115.92 0 0 1-.201-5.671c-.027-2.038-.04-4.29-.04-6.757a55.803 55.803 0 0 0 1.126-5.792c.268-1.931.455-3.861.563-5.792.16 0 .348-.026.563-.081.214-.053.429-.081.644-.081.375 0 .71.215 1.006.644.294.43.442 1.341.442 2.735v.724c0 .215-.027.457-.081.724h.966c.429-2.252.938-3.968 1.528-5.148.59-1.179 1.179-1.77 1.77-1.77.429 0 .817.603 1.167 1.81.348 1.207.522 3.097.522 5.671 0 1.878-.054 3.781-.161 5.711-.107 1.931-.16 3.916-.16 5.953 0 3.165.146 6.033.442 8.607.294 2.574.871 4.773 1.729 6.596.857 1.824 2.077 3.231 3.66 4.223 1.581.993 3.632 1.488 6.153 1.488 2.092 0 3.834-.644 5.229-1.931 1.394-1.287 2.574-3.003 3.539-5.148.966-2.144 1.782-4.625 2.453-7.441.67-2.815 1.3-5.751 1.891-8.809a41.304 41.304 0 0 0 .322-5.228v-2.494c0-1.555.08-2.869.241-3.942.161-1.072.616-1.689 1.367-1.85 0 2.735-.08 5.444-.241 8.125a93.515 93.515 0 0 1-.644 7.723c.375-2.52.67-5.04.885-7.562.214-2.627.375-5.31.482-8.044.322.215.59.322.805.322.214 0 .429-.107.644-.322v-2.896c.268-.965.535-1.649.805-2.051.268-.402.563-.604.885-.604.322 0 .644.161.966.483.321.322.644.724.965 1.207l.722 1.689zm-33.544 45.45a15.578 15.578 0 0 1 0 0zm.321.161a20.454 20.454 0 0 0 3.982 1.649c1.367.402 2.654.684 3.86.845 1.207.161 2.185.241 2.937.241 3.753 0 6.944-.831 9.573-2.494 2.627-1.662 4.786-3.741 6.476-6.234s2.988-5.161 3.901-8.004c.857-2.681 1.501-5.148 1.931-7.401-.376 2.252-.966 4.746-1.77 7.481a31.567 31.567 0 0 1-3.902 8.125c-1.688 2.521-3.82 4.639-6.395 6.355-2.574 1.717-5.686 2.574-9.332 2.574-2.038 0-4.05-.268-6.033-.805a19.1 19.1 0 0 1-5.55-2.494c.107.055.214.109.322.162zm30.81-19.789c.161-.912.294-1.796.402-2.655.106-.75.214-1.5.322-2.252-.322 2.36-.859 4.854-1.609 7.481a35.714 35.714 0 0 1-3.138 7.763 25.33 25.33 0 0 1-5.067 6.476c-1.931 1.77-4.184 2.977-6.757 3.62 2.252-.483 4.263-1.42 6.033-2.816 1.822-1.448 3.378-3.137 4.665-5.068s2.346-3.994 3.178-6.194a51.739 51.739 0 0 0 1.971-6.355zm-7.964 5.631a30.057 30.057 0 0 1-1.971 3.378 17.02 17.02 0 0 1-2.453 2.896 13.351 13.351 0 0 0 2.533-2.815 21.314 21.314 0 0 0 1.891-3.459zm8.768-10.94a1.31 1.31 0 0 0 0 0zM542.849 375.029c.856.269 1.89.751 3.097 1.448a75.754 75.754 0 0 0 4.063 2.172 36.181 36.181 0 0 0 4.947 2.011c1.796.591 3.713.885 5.752.885h.885a4.7 4.7 0 0 0 1.126-.161l.885.644c2.092-.644 3.808-1.863 5.148-3.66 1.34-1.796 2.011-4.224 2.011-7.28 0-2.198-.522-3.713-1.568-4.545-1.046-.831-2.964-1.247-5.752-1.247-1.717 0-3.499.121-5.349.362a45.182 45.182 0 0 1-5.833.362c-.912 0-1.85-.04-2.815-.121a17.318 17.318 0 0 1-2.976-.523v.482c2.144.537 4.263.805 6.354.805 2.037 0 3.982-.121 5.832-.362a41.267 41.267 0 0 1 5.35-.362c1.448 0 2.587.148 3.419.442.831.295 1.46.684 1.891 1.167.429.483.71 1.06.845 1.729.133.671.201 1.408.201 2.212 0 2.521-.672 4.666-2.012 6.436-1.287 1.663-2.815 2.708-4.585 3.137 1.983-.696 3.539-1.903 4.666-3.62 1.179-1.822 1.77-3.861 1.77-6.114 0-1.609-.416-2.842-1.247-3.7-.832-.857-2.267-1.287-4.304-1.287-1.663 0-3.539.108-5.631.322a65.416 65.416 0 0 1-6.677.322c-1.448 0-3.125-.188-5.028-.563a16.994 16.994 0 0 1-5.43-2.092c-1.717-1.018-3.165-2.426-4.344-4.223-1.181-1.796-1.77-4.143-1.77-7.039 0-2.305.469-4.437 1.407-6.396a17.38 17.38 0 0 1 3.741-5.148 17.934 17.934 0 0 1 5.35-3.499 16.868 16.868 0 0 1 6.234-1.368c2.037 0 3.981.282 5.832.845a29.441 29.441 0 0 1 5.269 2.172 42.73 42.73 0 0 1 4.746 2.936 72.384 72.384 0 0 1 4.184 3.218l-1.609 1.609c-.376 0-.938-.228-1.689-.684-.751-.455-1.904-1.247-3.459-2.373l-.482.724c1.931 1.556 3.338 3.004 4.224 4.344.885 1.341 1.327 2.387 1.327 3.137-.108.43-.376.644-.805.644-.43 0-1.287-.348-2.574-1.046a418.211 418.211 0 0 0-4.384-2.333 48.863 48.863 0 0 0-5.188-2.333c-1.824-.696-3.487-1.046-4.988-1.046-.858 0-1.717.161-2.574.483a8.34 8.34 0 0 0-2.332 1.327 7.095 7.095 0 0 0-1.729 2.051 5.281 5.281 0 0 0-.685 2.655c0 1.556.725 2.602 2.172 3.137 1.448.537 3.352.805 5.712.805.482 0 1.006-.013 1.568-.041a9.123 9.123 0 0 0 1.569-.201c1.232 0 2.051-.04 2.453-.121s.791-.121 1.166-.121c2.306 0 4.612.161 6.919.483 2.305.321 4.37 1.019 6.193 2.091 1.823 1.073 3.299 2.602 4.425 4.585 1.126 1.984 1.689 4.639 1.689 7.964 0 2.306-.39 4.599-1.167 6.877a18.237 18.237 0 0 1-3.499 6.114c-1.556 1.797-3.486 3.246-5.792 4.344-2.307 1.098-5.015 1.649-8.125 1.649-1.878 0-4.09-.362-6.636-1.086a57.278 57.278 0 0 1-7.24-2.574c-2.28-.992-4.211-2.024-5.792-3.097-1.582-1.072-2.373-1.983-2.373-2.735 0-.214.133-.375.402-.483 3.271 2.414 6.597 4.398 9.975 5.953 3.325 1.448 6.729 2.252 10.217 2.413a24.654 24.654 0 0 1-5.148-.885 44.732 44.732 0 0 1-5.27-1.971 39.923 39.923 0 0 1-4.987-2.654 102.685 102.685 0 0 1-4.545-3.017l1.207-1.046c-.161-.053-.457-.241-.885-.563a7.404 7.404 0 0 1-1.247-1.207 12.067 12.067 0 0 1-1.086-1.529c-.322-.535-.483-1.045-.483-1.528 0-.535.107-.885.322-1.046.214-.161.455-.241.724-.241.268 0 .831.188 1.689.563.855.379 1.901.781 3.136 1.21zm17.777 8.205c-1.878 0-3.955-.389-6.234-1.167a33.01 33.01 0 0 1-6.476-3.017c1.662 1.126 3.512 2.132 5.551 3.017 2.037.885 4.396 1.327 7.079 1.327 3.592 0 6.448-1.098 8.567-3.298 2.117-2.198 3.177-5.148 3.177-8.849v-.805c-.269-1.716-.844-3.124-1.729-4.223-.885-1.099-2.239-1.702-4.062-1.81 1.126.215 2.051.563 2.774 1.046.725.482 1.287 1.06 1.689 1.729.402.671.684 1.408.845 2.212.161.805.241 1.637.241 2.494-.215 3.539-1.341 6.314-3.378 8.326-2.038 2.012-4.719 3.018-8.044 3.018zm3.057-2.092h-.16.16zm7.16 5.229c1.34-.857 2.413-1.903 3.218-3.137.804-1.233 1.5-2.52 2.091-3.861-1.126 2.252-2.668 4.237-4.625 5.953-1.958 1.717-4.277 2.788-6.958 3.218a31.221 31.221 0 0 0 3.177-.684 9.44 9.44 0 0 0 3.097-1.489zm7.641-15.123c0-.59-.107-1.153-.321-1.689a9.976 9.976 0 0 1-.402-1.368l.08 1.046c.053.43.081 1.02.081 1.77 0 1.448-.161 2.843-.483 4.183a33.401 33.401 0 0 1-1.206 3.942 73.718 73.718 0 0 0 1.407-3.741c.455-1.314.737-2.695.844-4.143zm-.723-3.299v.241-.241z"/></g><text transform="translate(-459.514 60.408)" font-family="'FingerPaint-Regular'" font-size="127.707">Voir +</text><path opacity=".35" fill="#96D2CA" d="M579.45-346.291c-5.858 129.202-93.856 225.592-213.996 234.405-26.752 1.967-53.53-.348-79.114-6.821-64.28-16.259-131.146-16.398-192.999-.361-27.292 7.08-39.755 9.164-66.786 7.184-124.198-9.109-222.105-109.886-227.745-234.41v-3.551c5.641-124.523 103.548-225.3 227.745-234.41 27.031-1.979 39.494.104 66.786 7.186 61.854 16.034 128.719 15.896 192.999-.363 25.584-6.473 52.362-8.787 79.114-6.821 120.14 8.813 208.138 105.204 213.996 234.406v3.556z"/></svg>