<svg xmlns="http://www.w3.org/2000/svg" width="800" height="800" xml:space="preserve"><path fill="#103653" d="M653.017 106.665H186.333C112.697 106.665 53 166.667 53 239.998v266.667c0 73.332 59.697 133.333 133.333 133.333h5.21V800l196.874-160.002h264.6c73.634 0 133.333-60.001 133.333-133.333V239.998c0-73.331-59.7-133.333-133.333-133.333zM221.75 439.998c-36.82 0-66.667-30.001-66.667-66.666 0-36.666 29.847-66.667 66.667-66.667s66.667 30.001 66.667 66.667c0 36.665-29.847 66.666-66.667 66.666zm200 0c-36.833 0-66.667-30.001-66.667-66.666 0-36.666 29.834-66.667 66.667-66.667s66.667 30.001 66.667 66.667c0 36.665-29.834 66.666-66.667 66.666zm200 0c-36.833 0-66.667-30.001-66.667-66.666 0-36.666 29.834-66.667 66.667-66.667s66.667 30.001 66.667 66.667c0 36.665-29.834 66.666-66.667 66.666z"/><path fill="#F07861" d="M615.017 72.665H148.333C74.697 72.665 15 132.667 15 205.998v266.667c0 73.332 59.697 133.333 133.333 133.333h5.21V766l196.874-160.002h264.6c73.634 0 133.333-60.001 133.333-133.333V205.998c0-73.331-59.7-133.333-133.333-133.333zM183.75 405.998c-36.82 0-66.667-30.001-66.667-66.666 0-36.666 29.847-66.667 66.667-66.667s66.667 30.001 66.667 66.667c0 36.665-29.847 66.666-66.667 66.666zm200 0c-36.833 0-66.667-30.001-66.667-66.666 0-36.666 29.834-66.667 66.667-66.667s66.667 30.001 66.667 66.667c0 36.665-29.834 66.666-66.667 66.666zm200 0c-36.833 0-66.667-30.001-66.667-66.666 0-36.666 29.834-66.667 66.667-66.667s66.667 30.001 66.667 66.667c0 36.665-29.834 66.666-66.667 66.666z"/></svg>