<svg xmlns="http://www.w3.org/2000/svg" width="800" height="494" viewBox="0 138.5 800 494" xml:space="preserve"><path fill="#F79927" d="M75.045 510.552h37.576c10.155-29.715 38.339-51.148 71.451-51.148 33.11 0 61.293 21.434 71.45 51.148h209.5c10.156-29.715 38.34-51.148 71.451-51.148s61.293 21.434 71.451 51.148h42.627a23.393 23.393 0 0 0 1.207-6.465c.133-2.93.248-6.121.33-9.527.367-15.545.006-35.545-2.709-55.254-9.172-66.579-49.852-129.557-101.229-156.718-49.736-26.29-105.695-29.332-143.876-27.258-35.578 1.934-100.645 11.21-136.676 51.565-9.216 10.322-16.316 22.187-23.836 34.746a936.657 936.657 0 0 1-5.118 8.492c-.323.531-.948 1.695-1.787 3.234-12.254 22.5-17.4 29.504-25.723 29.504h-45.73c-50.559 0-91.688 45.055-91.688 100.434v19.365c.001 2.683.45 5.347 1.329 7.882zm481.276-91.126c0-4.959 4.059-9.021 9.021-9.021h27.066c4.963 0 9.021 4.063 9.021 9.021 0 4.961-4.059 9.021-9.021 9.021h-27.066c-4.96 0-9.021-4.061-9.021-9.021zm-142.806-45.11v-89.853a10.548 10.548 0 0 1 9.635-10.508c70.467-6.114 115.449 20.258 140.775 43.458 27.537 25.222 38.229 51.923 38.668 53.048a10.544 10.544 0 0 1-9.815 14.401H424.06c-5.826 0-10.547-4.721-10.547-10.547h.002zm-64.337 45.11c0-4.959 4.06-9.021 9.022-9.021h27.063c4.961 0 9.022 4.063 9.022 9.021 0 4.961-4.059 9.021-9.022 9.021H358.2c-4.961 0-9.022-4.061-9.022-9.021zm-99.964-39.356a10.541 10.541 0 0 1-.806-10.021c24.907-56.285 61.63-79.303 88.052-88.701 28.989-10.313 52.146-6.927 53.115-6.779a10.549 10.549 0 0 1 8.943 10.427v89.319c0 5.828-4.721 10.547-10.546 10.547H258.053a10.544 10.544 0 0 1-8.839-4.792z"/><g fill="#103653"><path d="M798.591 510.91c2.438-7.789 1.695-16.063-2.086-23.295-5.713-10.922-17.016-17.053-28.736-16.375-3.352-4.535-8.037-7.883-13.516-9.6-6.834-2.141-14.092-1.486-20.436 1.828-6.344 3.32-11.018 8.91-13.154 15.742-1.621 5.176-1.641 10.592-.115 15.67-7.615 8.521-9.59 21.219-3.99 31.928 5.039 9.625 14.883 15.141 25.061 15.141 4.543 0 9.018-1.104 13.041-3.215a28.163 28.163 0 0 0 8.654-7.029 30.551 30.551 0 0 0 20.279-2.854c7.232-3.779 12.558-10.152 14.998-17.941zm-20.779-13.518a9.413 9.413 0 0 1 .65 7.213 9.416 9.416 0 0 1-4.646 5.557 9.507 9.507 0 0 1-9.533-.443 10.478 10.478 0 0 0-2.803-1.271c-5.602-1.607-11.443 1.631-13.051 7.23a7.072 7.072 0 0 1-3.549 4.365c-3.482 1.828-7.807.471-9.631-3.014-1.822-3.488-.471-7.811 2.961-9.604l.313-.152a10.552 10.552 0 0 0 5.699-7.328 10.55 10.55 0 0 0-2.305-8.996 5.827 5.827 0 0 1-.734-1.078 5.673 5.673 0 0 1-.391-4.355 5.66 5.66 0 0 1 2.805-3.354 5.722 5.722 0 0 1 2.639-.654 5.786 5.786 0 0 1 1.713.266 5.668 5.668 0 0 1 3.354 2.799c.205.391.363.813.479 1.254.115.445.258.885.43 1.313 2.172 5.402 8.313 8.021 13.715 5.85a9.424 9.424 0 0 1 11.885 4.402zM670.028 346.723c-5.584 1.656-8.766 7.527-7.109 13.112.898 3.03 1.717 6.086 2.449 9.161 1.156 4.842 5.482 8.1 10.25 8.1.83-.001 1.654-.1 2.461-.292 5.664-1.354 9.16-7.046 7.807-12.71a195.546 195.546 0 0 0-2.746-10.262c-1.659-5.582-7.526-8.77-13.112-7.109zm-77.539-76.871c16.709 11.172 31.068 24.255 42.678 38.881a166.71 166.71 0 0 1 10.023 14.065 166.04 166.04 0 0 1 5.047 8.479 10.537 10.537 0 0 0 14.338 4.099c5.096-2.829 6.932-9.25 4.102-14.342a183.606 183.606 0 0 0-5.697-9.568 186.821 186.821 0 0 0-11.295-15.848c-12.971-16.343-28.941-30.909-47.471-43.302-4.84-3.239-11.393-1.935-14.629 2.902-3.238 4.844-1.938 11.397 2.904 14.634zm-389.754 40.916.011.007c5.049 2.897 11.49 1.153 14.388-3.896 2.845-4.95 3.954-6.438 8.091-11.971l.33-.439c10.54-14.107 23.415-26.582 38.273-37.076 4.758-3.358 5.89-9.939 2.528-14.7-3.362-4.753-9.942-5.888-14.699-2.527-16.667 11.772-31.135 25.796-43.003 41.682l-.33.44c-4.245 5.682-6 8.034-9.478 14.08-2.902 5.048-1.161 11.497 3.889 14.4zm-21.649 23.25c-.704 1.734-3.798 10.594 4.335 14.852a10.391 10.391 0 0 0 4.834 1.186c3.609 0 7.137-1.849 9.128-5.106.572-.935.995-1.952 1.253-3.017.377-.925 1.231-2.951 3.133-7.255 2.355-5.329-.053-11.556-5.379-13.912-5.334-2.351-11.559.053-13.913 5.38-1.855 4.192-2.857 6.554-3.391 7.872zm217.127-48.541c0-5.206-3.799-9.635-8.946-10.425-.967-.148-24.125-3.535-53.112 6.779-26.422 9.397-63.146 32.416-88.054 88.7a10.561 10.561 0 0 0-.902 4.271c.003 5.824 4.726 10.543 10.55 10.541h129.918c5.826 0 10.546-4.72 10.546-10.547v-89.319zM274.671 364.25c33.553-61.603 82.443-68.704 102.449-68.829v68.829H274.671zm327.617 6.693c-.439-1.125-11.133-27.825-38.668-53.048-25.326-23.2-70.311-49.571-140.777-43.458a10.552 10.552 0 0 0-9.635 10.508v89.854c0 5.826 4.721 10.547 10.547 10.547h168.719c1.322 0 2.633-.248 3.863-.732 5.418-2.131 8.082-8.252 5.951-13.671zm-167.984-76.126c45.795-1.996 84.24 10.75 114.373 37.997 12.303 11.123 20.842 22.699 26.287 31.436h-140.66v-69.433zm-49.342 116.071h-27.065c-4.962 0-9.021 4.061-9.021 9.021 0 4.959 4.06 9.02 9.021 9.02h27.065c4.96 0 9.021-4.059 9.021-9.02s-4.061-9.023-9.021-9.021zm207.144 0H565.04c-4.963 0-9.021 4.061-9.021 9.021 0 4.959 4.061 9.02 9.021 9.02h27.066c4.961 0 9.021-4.059 9.021-9.02s-4.06-9.023-9.021-9.021z"/><path d="M423.007 234.997c-44.001.098-85.15 9.75-85.148 9.751-30.906 8.246-63.319 22.848-86.3 48.586-10.55 11.815-18.506 25.106-26.198 37.961-1.664 2.777-3.328 5.558-5.021 8.326-.413.674-1.231 2.163-2.313 4.146-5.05 9.27-8.723 15.466-10.966 18.498h-41.963c-48.285 0-89.565 32.876-105.617 78.94-6.878-.283-17.806.666-26.854 7.859-5.851 4.656-12.922 13.725-13.368 30.502-.366 13.783 3.619 24.398 11.852 31.553 3.672 3.188 7.72 5.246 11.67 6.553a15.31 15.31 0 0 0-2.813 8.846v2.867c0 8.516 6.966 15.482 15.48 15.482h28.278c2.849.684 5.798 1.074 8.837 1.074h16.445c3.552 25.299 19.688 46.615 41.851 57.396H98.151c-5.823 0-10.547 4.721-10.547 10.547s4.724 10.547 10.547 10.547h581.777c5.824 0 10.547-4.721 10.547-10.547s-4.723-10.547-10.547-10.547H569.069c22.166-10.781 38.299-32.098 41.854-57.396h21.611c3.006-.004 6-.363 8.922-1.074h28.418c8.514 0 15.48-6.967 15.48-15.482v-.967h6.236c5.826 0 10.547-4.721 10.547-10.547v-33.373c0-5.826-4.721-10.547-10.547-10.547h-3.617c2.531-1.535 4.996-3.426 7.234-5.813 5.109-5.455 10.789-15.455 8.791-32.117-1.643-13.691-7.131-23.613-16.314-29.494-8.854-5.672-18.689-5.85-25.283-5.039-17.314-59.685-56.115-111.38-104.701-137.063-16.518-8.735-33.604-15.102-50.529-19.682 0 0-40.164-9.844-84.164-9.746zM51.2 498.119c-2.2-.486-4.459-1.369-6.255-2.926-3.243-2.818-4.79-7.889-4.6-15.068.185-6.906 1.985-11.783 5.349-14.5 2.032-1.643 4.626-2.533 7.178-2.98L51.2 498.119zm156.925 37.273a24.233 24.233 0 0 1-2.427 10.549c-3.935 8.164-12.263 13.813-21.933 13.813s-18-5.65-21.934-13.813a24.23 24.23 0 0 1-2.426-10.549c0-13.451 10.903-24.357 24.358-24.357 13.456 0 24.362 10.902 24.362 24.357zm8.543 67.946c22.166-10.781 38.3-32.098 41.852-57.395h202.896c3.551 25.297 19.686 46.613 41.85 57.395H216.668zm343.86-67.946a24.22 24.22 0 0 1-2.428 10.549c-3.934 8.164-12.264 13.813-21.932 13.813-9.67 0-18-5.65-21.934-13.813a24.231 24.231 0 0 1-2.428-10.549c0-13.451 10.906-24.357 24.359-24.357 13.457 0 24.363 10.902 24.363 24.357zm88.547-95.603c2.715 19.709 3.076 39.709 2.707 55.254a435.365 435.365 0 0 1-.33 9.527 23.464 23.464 0 0 1-1.205 6.465H607.62c-10.158-29.715-38.342-51.148-71.451-51.148-33.111 0-61.295 21.434-71.451 51.148H255.217c-10.159-29.715-38.341-51.148-71.452-51.148-33.11 0-61.295 21.434-71.451 51.148H74.74a24.02 24.02 0 0 1-1.328-7.881v-19.365c0-55.379 41.129-100.434 91.688-100.434h45.73c8.323 0 13.469-7.005 25.724-29.504.837-1.539 1.462-2.704 1.786-3.234 1.724-2.82 3.422-5.655 5.119-8.491 7.518-12.561 14.619-24.425 23.836-34.746 36.031-40.356 101.096-49.631 136.676-51.566 38.181-2.073 94.138.969 143.876 27.258 51.377 27.16 92.056 90.14 101.228 156.717zm23.285 67.537c.049-.6.139-1.189.164-1.795.146-3.211.271-6.727.355-10.486h8.166v12.281h-8.685zm7.512-53.672c-1.771 1.918-4.207 3.18-6.666 3.992l-3.506-35.34c2.318.172 4.711.746 6.686 2.033 3.578 2.33 5.82 7.104 6.67 14.189.822 6.86-.248 11.948-3.184 15.126zm93.002 149.684h-48.988c-5.826 0-10.547 4.721-10.547 10.547s4.721 10.547 10.547 10.547h48.988c5.824 0 10.547-4.721 10.547-10.547s-4.725-10.547-10.547-10.547zm-719.564 0H15.094c-5.827 0-10.547 4.721-10.547 10.547s4.72 10.547 10.547 10.547H53.31c5.826 0 10.547-4.721 10.547-10.547s-4.721-10.547-10.547-10.547z"/></g><g fill="#103653" stroke="#103653" stroke-width="2.257" stroke-linecap="round" stroke-linejoin="round" stroke-miterlimit="10"><path d="M288.104 231.591c-.387-.056-.769-.406-1.146-1.052-.378-.648-.784-1.463-1.221-2.447l-.604-1.362-.511.227c.062.244.213.811.449 1.702.237.891.456 1.845.661 2.864.202 1.02.322 1.95.357 2.795.034.844-.118 1.342-.458 1.493-.303.135-.724-.153-1.267-.864-.542-.71-1.081-1.569-1.617-2.575a63.096 63.096 0 0 1-1.526-3.058c-.48-1.031-.829-1.793-1.048-2.286a286.503 286.503 0 0 1-3.322-7.793 281.72 281.72 0 0 0-3.296-7.737 52.298 52.298 0 0 0-4.034-7.411 51.35 51.35 0 0 1-3.984-7.296c.228-.915.418-1.836.573-2.766.153-.928.29-1.871.408-2.829 1.21-.945 2.486-1.895 3.827-2.853a23.76 23.76 0 0 1 4.167-2.391c3.971-1.762 7.638-2.652 11.001-2.674 3.362-.02 6.432.701 9.208 2.162 2.775 1.462 5.271 3.568 7.487 6.319s4.156 5.999 5.816 9.743c2.685 6.053 3.012 11.282.985 15.688-2.029 4.407-6.031 7.938-12.006 10.587-.227.101-.599.232-1.116.395-.517.161-.92.17-1.209.027.99-.621 2.131-1.342 3.42-2.162a74.018 74.018 0 0 0 3.83-2.616 31.62 31.62 0 0 0 3.483-2.937c1.057-1.035 1.842-2.096 2.356-3.184a18.015 18.015 0 0 1-2.697 3.334 24.518 24.518 0 0 1-3.19 2.604 44.14 44.14 0 0 1-3.546 2.184 147.956 147.956 0 0 0-3.682 2.108l-.106-.699-.371-.379c-.668.433-1.271.835-1.806 1.209-.536.374-1.126.703-1.769.988a8.38 8.38 0 0 1-1.972.603l.673 1.671-1.197.668zm1.889-6.61a118.809 118.809 0 0 0 7.19-3.461c2.183-1.148 3.922-2.509 5.217-4.08 1.295-1.569 2.043-3.428 2.244-5.578.201-2.148-.394-4.791-1.787-7.932a44.825 44.825 0 0 0-2.489-4.769 28.146 28.146 0 0 0-3.375-4.546 19.303 19.303 0 0 0-4.242-3.516 12.057 12.057 0 0 0-4.699-1.717c1.671.301 3.208.908 4.611 1.825 1.566.98 2.966 2.17 4.198 3.569a30.735 30.735 0 0 1 3.306 4.542 45.01 45.01 0 0 1 2.489 4.769c.923 2.081 1.5 3.896 1.735 5.443.234 1.548.2 2.899-.103 4.051a7.415 7.415 0 0 1-1.657 3.078c-.801.898-1.77 1.725-2.906 2.478a43.055 43.055 0 0 1-3.855 2.253c-1.432.75-2.957 1.549-4.57 2.401 1.072-1.155 2.332-2.166 3.779-3.035a56.222 56.222 0 0 0 4.098-2.701c1.285-.931 2.331-2.019 3.138-3.259.808-1.241 1.118-2.838.93-4.792l.58-.529a16.845 16.845 0 0 0-.61-2.139c-.222-.603-.5-1.282-.836-2.039a48.958 48.958 0 0 0-3.701-6.812c-1.427-2.195-3.075-4.022-4.943-5.479-1.868-1.456-3.974-2.379-6.318-2.765s-4.934.05-7.771 1.309a27.054 27.054 0 0 0-3.06 1.596 37.397 37.397 0 0 0-2.853 1.91c.092.005.155.045.188.12.051.113.057.179.019.195 1.82-1.304 3.656-2.369 5.51-3.191 2.307-1.022 4.492-1.505 6.554-1.447 2.063.058 3.966.548 5.711 1.472 1.745.923 3.312 2.209 4.698 3.856 1.387 1.649 2.579 3.541 3.573 5.68-1.277-2.058-2.595-3.908-3.954-5.544-1.361-1.637-2.853-2.911-4.478-3.82-1.625-.908-3.424-1.388-5.394-1.443-1.97-.053-4.203.473-6.7 1.58-.945.42-1.883.858-2.811 1.315a11.017 11.017 0 0 0-2.554 1.744 500.29 500.29 0 0 1 3.606 6.751 117.58 117.58 0 0 1 3.324 6.877 123.373 123.373 0 0 1 3.695 9.326 489.58 489.58 0 0 0 3.388 9.394c.209-.544.506-1.05.889-1.514.382-.462.715-.938.996-1.426zm17.025-22.693a47.672 47.672 0 0 0-2.861-5.453 38.573 38.573 0 0 0-3.604-4.987 40.136 40.136 0 0 1 3.673 5.296 59.413 59.413 0 0 1 2.904 5.705c.437.985.825 2.011 1.164 3.083.012.13.044.252.094.365a23.65 23.65 0 0 0-1.37-4.009zm-5.862 1.786a3.515 3.515 0 0 0-.334-.599c.137.211.25.41.334.599zm.459.883c.251.567.457 1.133.616 1.696a4.75 4.75 0 0 0-.245-.706l-.831-1.872.049.113c.14.21.276.467.411.769zm7.363 4.202a4.984 4.984 0 0 0 0 0zM340.997 211.103c-1.368.944-2.441 1.558-3.221 1.841-.781.283-1.463.53-2.049.737-2.231.627-4.36.774-6.387.442-2.028-.333-3.881-1.036-5.558-2.112-1.679-1.075-3.137-2.479-4.378-4.216-1.24-1.735-2.168-3.699-2.784-5.89a24.163 24.163 0 0 1-.76-4.074 25.518 25.518 0 0 1-.067-4.365 18.44 18.44 0 0 1 .802-4.255 15.426 15.426 0 0 1 1.695-3.829 12.3 12.3 0 0 0-1.789 3.727 20.663 20.663 0 0 0-.861 4.272c-.144 1.48-.134 2.96.024 4.441.159 1.481.423 2.879.792 4.193.471 1.673 1.242 3.38 2.311 5.121a16.857 16.857 0 0 0 4.078 4.526c1.649 1.277 3.57 2.187 5.765 2.73 2.194.543 4.646.435 7.354-.328 1.274-.358 2.559-.913 3.852-1.664-1.235 1.421-2.786 2.396-4.658 2.922-1.515.426-3.002.596-4.465.515a14.772 14.772 0 0 1-4.242-.871 16.925 16.925 0 0 1-3.892-2.031 19.751 19.751 0 0 1-3.338-2.93l.403-.629a18.111 18.111 0 0 1-2.606-3.65 19.797 19.797 0 0 1-1.608-3.997 20.486 20.486 0 0 1-.78-6.099c.049-2.034.318-4.022.804-5.964l.88-2.375c.116-.505.34-1.041.675-1.608a17.18 17.18 0 0 1 1.163-1.713c.439-.575.921-1.119 1.443-1.631a54.052 54.052 0 0 1 1.502-1.421 60.354 60.354 0 0 1 3.756-3.152c1.271-.98 2.823-1.879 4.657-2.696l-.29-.111c-3.564 1.389-6.421 3.15-8.573 5.279-2.151 2.131-3.739 4.437-4.759 6.917-1.022 2.479-1.553 5.024-1.591 7.636-.039 2.611.266 5.072.916 7.382a22.593 22.593 0 0 0 1.378 3.641 23.78 23.78 0 0 0 2.036 3.457c-1.667-2.11-2.877-4.499-3.627-7.168-.74-2.627-1.036-5.359-.887-8.195.148-2.834.849-5.611 2.106-8.329 1.773-2.862 3.909-5.279 6.406-7.25 2.497-1.97 5.061-3.325 7.689-4.064a8.828 8.828 0 0 1 2.687-.305 7.603 7.603 0 0 1 2.751.613c.88.376 1.677.957 2.393 1.743.715.789 1.258 1.839 1.628 3.153.302 1.075.413 2.462.332 4.161-.082 1.7-.424 3.42-1.031 5.159a14.84 14.84 0 0 1-2.752 4.771c-1.229 1.44-2.837 2.441-4.829 3.002l-1.971.554a37.106 37.106 0 0 1-4.344.03 32.792 32.792 0 0 0-3.712-.02c.019.683.101 1.315.243 1.898s.292 1.154.45 1.711c.324 1.155.77 2.244 1.337 3.267s1.257 1.914 2.073 2.672a8.064 8.064 0 0 0 2.768 1.703c1.029.378 2.185.472 3.465.283.801-.053 1.483-.148 2.046-.286a95.605 95.605 0 0 1 1.421-.335c.383-.086.68-.104.886-.056.208.049.351.213.43.492a6.644 6.644 0 0 1-1.158.583c-.407.158-.83.299-1.268.421-1.395.393-2.714.517-3.958.372-1.244-.143-2.349-.402-3.313-.776a7.921 7.921 0 0 0 3.832 1.018 13.638 13.638 0 0 0 3.924-.492c.677-.19 1.358-.446 2.041-.767-.013.261-.013.413-.002.452.067.239.211.37.433.394.148-.084.396-.272.744-.563.348-.291.706-.585 1.074-.882.368-.298.731-.571 1.09-.823.358-.251.618-.4.778-.445.199-.055.386-.077.563-.061.176.015.321.222.432.619.112.399.107.917-.015 1.551-.123.638-.385 1.312-.785 2.027zm-16.405-16.146c.058-.102.074-.235.049-.4s-.048-.287-.071-.367l-3.093-.226-.063.92 3.178.073zm1.505-5.193 1.381-.132c.461-.043.87-.116 1.229-.216.398-.112.831-.373 1.295-.784.465-.41.898-.929 1.302-1.559.403-.629.714-1.361.93-2.196.217-.834.295-1.737.237-2.71l.019-.392c-.558.157-1.354.532-2.391 1.124a31.483 31.483 0 0 0-3.155 2.081 22.466 22.466 0 0 0-2.892 2.554c-.861.909-1.391 1.777-1.588 2.606a63.946 63.946 0 0 0 3.633-.376zm.638 19.226c-.369-.24-.737-.479-1.105-.721a5.596 5.596 0 0 1-.833-.668 6.442 6.442 0 0 0 1.938 1.389zM378.132 200.144a31.697 31.697 0 0 0-.758-4.098 31.417 31.417 0 0 1-.751-4.036l-.194-1.665c-.393-1.58-.858-3.431-1.396-5.555a64.692 64.692 0 0 0-1.824-6.005c-.677-1.878-1.423-3.458-2.238-4.737-.816-1.28-1.716-1.863-2.702-1.749-1.439.168-2.841 1.009-4.206 2.521-1.366 1.513-2.414 3.602-3.144 6.27a21.678 21.678 0 0 0-.486 4.68c.001 1.625.043 3.329.125 5.109.083 1.782.181 3.614.296 5.496a67.92 67.92 0 0 1 .092 5.894 4.692 4.692 0 0 0-.13.765 42.88 42.88 0 0 0-.067.758l-7.583.882-.581-4.994a51.885 51.885 0 0 1-.296-1.465 53.45 53.45 0 0 0-.359-1.739 53.877 53.877 0 0 1-.358-1.739 68.412 68.412 0 0 0-.295-1.465 126.173 126.173 0 0 0-1.563-9.94 181.538 181.538 0 0 1-1.708-10.111l1.381-.473c.125-.014.27.083.441.293.17.209.342.616.517 1.221.174.605.379 1.466.613 2.584.234 1.119.497 2.577.791 4.375.04-.005.1-.033.178-.083.154-.102.272-.157.356-.167a12.614 12.614 0 0 0-.132-.858 11.892 11.892 0 0 1-.13-.86c-.411-3.534-.492-6.284-.242-8.25.25-1.966.539-2.969.869-3.007.247-.029.556.478.926 1.517.372 1.041.833 2.694 1.39 4.962a25.302 25.302 0 0 1 2.03-3.485 15.766 15.766 0 0 1 6.197-5.282c1.262-.605 2.673-.999 4.236-1.181 1.356-.157 2.582-.008 3.676.447 1.095.457 2.096 1.1 3.005 1.931s1.709 1.801 2.4 2.908a37.324 37.324 0 0 1 3.269 6.618 89.422 89.422 0 0 0 1.029 2.661.756.756 0 0 0 .093.27c.053.098.104.186.156.262.34-1.371.781-2.953 1.322-4.746a25.379 25.379 0 0 1 2.211-5.162 16.74 16.74 0 0 1 3.466-4.309c1.378-1.222 3.054-1.948 5.026-2.177 1.932-.225 3.636.097 5.111.967s2.769 2.052 3.88 3.547 2.057 3.188 2.84 5.074a47.955 47.955 0 0 1 1.93 5.586 52.065 52.065 0 0 1 1.154 5.083c.264 1.553.443 2.74.539 3.562.152 1.315.215 2.287.184 2.915s-.273.969-.725 1.021a384.64 384.64 0 0 1-.797-4.968 71.205 71.205 0 0 0-.963-5.043 57.88 57.88 0 0 0-1.354-4.934 39.005 39.005 0 0 0-1.848-4.597c1.404 3.127 2.379 6.306 2.922 9.533a408.566 408.566 0 0 1 1.625 9.683c-.32-.253-.564-.372-.727-.353-.125.014-.197.107-.219.275l.215 1.85c.063.535.137 1.088.225 1.661.088.574.195 1.061.328 1.462.113 1.695.18 2.906.203 3.631.021.726-.078 1.206-.301 1.44-.332.039-.639-.113-.93-.455-.289-.34-.58-.785-.873-1.335a22.286 22.286 0 0 1-.869-1.835 134.1 134.1 0 0 0-.854-1.962l-.193-1.665a564.902 564.902 0 0 0-.691-5.668 89.289 89.289 0 0 0-.916-5.735 52.615 52.615 0 0 0-1.299-5.254c-.505-1.649-1.089-3.092-1.753-4.326-.666-1.235-1.44-2.176-2.328-2.823-.887-.646-1.906-.902-3.057-.768a4.782 4.782 0 0 0-2.504 1.041c-.418.34-.827.763-1.227 1.267a8.546 8.546 0 0 1 1.295-1.212 4.692 4.692 0 0 1 2.441-1.034l.247-.029c1.027-.119 1.948.18 2.761.897.812.718 1.531 1.707 2.156 2.967.625 1.261 1.16 2.718 1.603 4.375a82.38 82.38 0 0 1 1.196 5.171c.354 1.792.656 3.58.904 5.362.248 1.783.48 3.412.693 4.887-.379-1.121-.754-2.463-1.123-4.024-.369-1.56-.748-3.194-1.133-4.898a102.73 102.73 0 0 0-1.273-5.038c-.464-1.654-.979-3.125-1.545-4.413-.566-1.287-1.205-2.306-1.918-3.057-.711-.75-1.521-1.072-2.424-.968-.37.044-.695.113-.976.208-.281.095-.626.354-1.034.776l-.652-.236c-1.254 1.395-2.234 3.175-2.941 5.341a44.507 44.507 0 0 0-1.633 6.906 82.888 82.888 0 0 0-.821 7.437c-.166 2.519-.332 4.85-.498 6.994l.272 2.342c.279-3.323.514-6.589.703-9.797a55.386 55.386 0 0 1 1.37-9.438 55.635 55.635 0 0 0-.993 8.112c-.137 2.766-.328 5.6-.573 8.502.034.288.017.686-.047 1.193a71.613 71.613 0 0 1-.359 2.291l-6.859.112-.515-.692zm.319-3.16a87.74 87.74 0 0 1-.834-4.215 221.29 221.29 0 0 0-1.039-5.439 98.985 98.985 0 0 0-1.36-5.777c-.517-1.939-1.125-3.67-1.822-5.193-.698-1.522-1.485-2.733-2.359-3.631-.876-.897-1.888-1.28-3.039-1.146-.37.044-.751.172-1.143.384-.392.212-.761.442-1.106.691.118-.055.218-.088.301-.098l.062-.008c.005.042-.047.131-.156.269 1.067-.5 1.908-.784 2.524-.856.813.197 1.586.753 2.318 1.667.731.915 1.393 2.035 1.984 3.361a41.053 41.053 0 0 1 1.63 4.34 61.277 61.277 0 0 1 1.243 4.51c.333 1.441.608 2.732.826 3.872.215 1.142.352 1.958.409 2.452.267 1.218.521 2.418.763 3.597.241 1.181.432 2.367.57 3.558l.228-2.338zm-1.039-8.939c.158.647.283 1.279.376 1.893.092.614.189 1.186.293 1.715l.529 2.938.026-.315a23.542 23.542 0 0 1-.255-1.658l-.18-1.541-.789-3.032zm4.288-8.247c.005.042.066.222.188.54.115.279.198.458.249.534.076-.425.265-1.125.568-2.097.303-.973.641-2.011 1.013-3.117a130.94 130.94 0 0 1 1.077-3.093c.12-.389.227-.735.316-1.037a6.132 6.132 0 0 1-.4.859c-.357.875-.75 1.785-1.182 2.73a74.045 74.045 0 0 0-1.182 2.73c-.356.875-.572 1.525-.647 1.951zm4.784-1.307a61.46 61.46 0 0 0-1.387 6.878 119.679 119.679 0 0 0-.829 7.375l.238.972c.189-3.021.459-6.072.809-9.154a46.92 46.92 0 0 1 1.66-7.753 2.765 2.765 0 0 1-.087.322c-.159.437-.293.89-.404 1.36zm-1.13-7.554a.791.791 0 0 0-.142.391 1.47 1.47 0 0 0 .142-.391zm2.335 8.788c.139-.599.259-1.174.362-1.728.143-.558.264-.947.364-1.167.01.083-.012.251-.066.507-.049.298-.163.749-.343 1.352l-.317 1.036zm7.481-15.178a7.887 7.887 0 0 0-2.131-.064l-.68.079c-.287.033-.428.072-.424.112l.063-.007a7.681 7.681 0 0 0 1.877.032l1.295-.152zm4.556 2.094a4.722 4.722 0 0 0-.888-.646 19.043 19.043 0 0 0-.729-.353c.532.272 1.071.604 1.617.999zM416.601 197.325c.178-1.157.348-2.51.51-4.061.162-1.549.314-3.109.455-4.681.143-1.57.283-3.109.424-4.619.141-1.508.279-2.821.416-3.937a55.958 55.958 0 0 0-.602 3.842 677.818 677.818 0 0 0-.545 4.463c-.184 1.529-.365 3.048-.547 4.555a613.541 613.541 0 0 0-.48 4.06c-.615-.419-.92-.982-.91-1.685.008-.828.035-1.521.084-2.079.047-.558.115-1.208.207-1.953l.689-.613a3.034 3.034 0 0 1-.057-.559l.008-.621c.01-.952.125-2.036.346-3.255.221-1.218.473-2.456.756-3.716.283-1.259.533-2.476.754-3.654.219-1.176.334-2.2.344-3.068l-.742-.195c-.094.992-.23 2.119-.41 3.378-.18 1.261-.369 2.562-.57 3.905s-.393 2.675-.572 3.996c-.09.704-.182 1.364-.27 1.984.096-1.157.213-2.397.352-3.721.227-1.9.467-3.79.715-5.67s.484-3.729.713-5.548c.227-1.816.451-3.49.676-5.019.006-.622.17-1.291.488-2.012a9.574 9.574 0 0 0 .678-2.258c.246.086.451.13.617.131l.436.004c.414.004.682.101.803.288.123.188.182.447.178.778l-.004.311.557.192c.338-.618.736-1.109 1.195-1.477s.916-.549 1.373-.543c.992.011 1.477 1.071 1.453 3.182a20.262 20.262 0 0 1-.381 3.564 20.825 20.825 0 0 0-.381 3.689l-.01.807c-.014 1.325-.176 2.761-.482 4.309s-.645 3.117-1.014 4.705c-.369 1.59-.709 3.127-1.014 4.613-.305 1.486-.465 2.85-.479 4.091-.004.29.014.6.051.932.037.332.055.643.053.931-.006.621-.125 1.003-.355 1.146-.229.142-.51.211-.84.207.006-.537-.006-1.2-.039-1.987a39.014 39.014 0 0 1-.039-2.11c-.088.454-.137 1.074-.145 1.86a19.282 19.282 0 0 1-.148 2.232l-.932-.01-.008.745c-.381.658-.881.983-1.502.976-.289-.002-.617-.088-.988-.258-.373-.168-.662-.358-.865-.567zm-.854-7.023c.045-.454.094-.908.139-1.364-.047.496-.094.951-.139 1.364zm14.164-40.497a7.885 7.885 0 0 0-1.941 1.591 40.947 40.947 0 0 1-1.82 1.905 6.52 6.52 0 0 0 1.002-.796c.291-.285.596-.573.908-.859a21.91 21.91 0 0 1 1.004-.857c.354-.284.76-.55 1.219-.793.123.167.234.313.338.438.1.125.152.25.148.374l-1.441 1.411c0-.083-.07-.166-.215-.25s-.256-.127-.34-.128c-.129.413-.34.741-.631.986-.295.246-.586.47-.877.673-.293.204-.584.429-.877.674-.293.245-.502.574-.633.985l-.002.124c0 .042.063.063.188.064l3.135-2.882-1.191 1.167a73.45 73.45 0 0 1-1.852 1.748 34.315 34.315 0 0 1-1.816 1.563c-.564.449-.908.672-1.031.671l-.063-.063a3.28 3.28 0 0 0-.898-.134 7.532 7.532 0 0 1-.961-.073 3.915 3.915 0 0 0-.143-1.057c-.1-.373-.148-.663-.146-.87.002-.207.107-.309.314-.307.002-.125-.07-.321-.211-.592-.143-.27-.293-.582-.455-.936a13.174 13.174 0 0 1-.453-1.122 3.473 3.473 0 0 1-.203-1.213c.004-.413.184-.814.541-1.204a5.413 5.413 0 0 1 1.252-1.01c.477-.284.947-.527 1.404-.73.457-.201.789-.341.998-.423.164.002.229-.09.189-.277-.039-.187.023-.278.189-.277l1.113.385c-.086.207-.348.546-.787 1.016-.439.472-.766.809-.975 1.014.291-.204.637-.51 1.035-.92.396-.409.699-.716.91-.921.205.085.391.17.555.254.166.085.287.127.371.129l.188-.185c.291.003.611.069.961.197.35.127.67.276.957.444.287.169.533.358.74.568.204.207.305.374.303.498zM443.042 185.593c.332.024.662.039.992.041.332.004.664.017.994.041.99.072 1.967.183 2.932.336.963.153 1.936.326 2.92.521a46.286 46.286 0 0 0-4.137-.485 89.793 89.793 0 0 0-4.092-.203 94.1 94.1 0 0 1-4.215-.21l-.744-.055c-.316-.23-.604-.386-.867-.467a4.62 4.62 0 0 1-.695-.268.865.865 0 0 1-.436-.467c-.088-.213-.111-.588-.072-1.125.014-.206.066-.379.16-.517.092-.138.242-.2.449-.186l.416-.592a2.435 2.435 0 0 1-.947-1.095 2.844 2.844 0 0 1-.242-1.355c.049-.702.373-1.156.969-1.361s1.242-.284 1.943-.233c.455.034.887.086 1.299.157.408.072.838.123 1.293.156.66.048 1.305.042 1.932-.016a11.331 11.331 0 0 1 1.869-.021c.371.027.885.085 1.541.174.656.09 1.375.214 2.152.373a44.75 44.75 0 0 1 2.293.54c.752.201 1.412.424 1.975.673.287.02.59.021.902.002.311-.018.592-.02.84-.001.412.03.652.162.717.395.066.233.092.473.072.721l-.012.186a110.138 110.138 0 0 1-3.711-.33 26.53 26.53 0 0 1-3.125-.662 15.5 15.5 0 0 0 3.125.662c1.273.175 2.5.409 3.684.702-.105.325-.166.57-.18.733-.002.042.006.084.023.126s.027.085.023.126l.549.164c.301.395.434.862.395 1.398-.045.66-.299 1.285-.758 1.874l-.238-.142c-1.008-.404-2.211-.719-3.602-.945-1.395-.225-2.547-.371-3.455-.436-.33-.024-.66-.037-.992-.04a15.603 15.603 0 0 1-.992-.041c1.516.275 3.043.511 4.586.705 1.539.195 3.012.633 4.416 1.314-.404.428-.773.629-1.104.604-.486-.117-.906-.21-1.254-.277-.35-.066-.748-.137-1.199-.211l-.385-.712a6.88 6.88 0 0 1-1.306.029 12.82 12.82 0 0 1-2.369-.389 12.469 12.469 0 0 0-2.305-.385c-.619-.045-1.309.009-2.064.162a.266.266 0 0 1 .047.19l-.01.122zm5.062-5.481c.08.047.182.096.303.146a2.163 2.163 0 0 0-.303-.146zM487.007 175.592c-.369-.057-.881-.074-1.535-.05a33.392 33.392 0 0 0-3.758.36c-.539.083-.873.157-1.008.22 1.086.002 2.098-.04 3.035-.125.932-.086 1.93-.045 2.994.12-.262.335-.57.581-.93.735s-.742.252-1.145.293c-.406.042-.838.058-1.297.05-.459-.009-.943.011-1.451.057l-.346-.62c-.82.167-1.441.248-1.857.246a8.715 8.715 0 0 1-1.303-.108c-.492-.076-.99-.164-1.498-.263a44.621 44.621 0 0 0-1.682-.292c-.033.205-.08.364-.137.48.938.146 1.738.26 2.395.341.656.081 1.467.133 2.426.156-.926.024-1.73.024-2.42.001-.686-.021-1.5-.107-2.439-.252a76.51 76.51 0 0 0-.859 2.692 19.819 19.819 0 0 0-.592 2.609 28.111 28.111 0 0 0-.205 1.727 62.878 62.878 0 0 0-.154 2.017 86.466 86.466 0 0 1-.143 1.925c-.053.6-.1 1.044-.145 1.329l-.57 3.679c.078.851.576 1.556 1.492 2.116.92.561 2.297.985 4.139 1.27l1.963.304c.695.107 1.162.254 1.406.438s.348.399.309.645c-.031.204-.213.291-.543.261-.332-.029-.66-.07-.986-.122a30.287 30.287 0 0 1-3.703-.826 94.386 94.386 0 0 1-3.533-1.113c1.143.471 2.346.93 3.619 1.378 1.318.415 2.609.719 3.879.915l.549.086c.164.025.35.034.561.024-.029.205-.049.39-.053.557-.008.167.016.359.066.576l.512-.047c.129-.021.275-.03.443-.025.164.005.297-.026.391-.096 1.289.326 1.873.877 1.752 1.654-.068.45-.248.799-.537 1.047a2.635 2.635 0 0 1-1.025.532 4.547 4.547 0 0 1-1.279.146 9.658 9.658 0 0 1-1.303-.108 31.972 31.972 0 0 1-4.158-.928c-1.342-.396-2.65-.798-3.926-1.205 1.082.587 2.48 1.139 4.201 1.656 1.721.518 3.479.917 5.281 1.196a5.779 5.779 0 0 1-1.701.427 7.384 7.384 0 0 1-1.939-.049l-4.33-1.237a12.1 12.1 0 0 1-1.281-.45 10.509 10.509 0 0 1-.844-.415l-.898-.485c-.33-.176-.787-.393-1.377-.652l.105-.675c-1.02-.45-1.803-1.074-2.35-1.871a8.42 8.42 0 0 1-1.18-2.507 9.494 9.494 0 0 1-.35-2.598c.006-.856.061-1.612.164-2.268.107-.693.217-1.336.33-1.927.111-.589.217-1.191.311-1.804.07-.45.148-1.023.234-1.722.09-.699.172-1.439.25-2.223.082-.782.176-1.584.281-2.406.105-.821.215-1.599.33-2.335.07-.449.146-.877.232-1.284.08-.405.17-.768.262-1.089l-.613-.096c-.086.28-.156.604-.213.973l-.172 1.104a97.218 97.218 0 0 0-.484 3.536c-.143 1.172-.277 2.25-.408 3.235s-.234 1.838-.303 2.559a32.08 32.08 0 0 1-.184 1.573l-.377 2.454-.078.49c.049-1.123.17-2.716.363-4.778.246-2.391.59-5.017 1.035-7.879l.17-1.104c.072-.45.148-.877.232-1.284.082-.404.182-.703.295-.896l-2.064-.446a7.146 7.146 0 0 0-1.246-.884c-.424-.233-.82-.378-1.189-.435l.193-1.227c.035-.246.1-.456.189-.63.09-.175.299-.237.625-.186.082.012.281.085.594.217l.117-.735a3.067 3.067 0 0 1-.947-1.184c-.221-.474-.295-.935-.225-1.385.166-1.063 1-1.478 2.516-1.243.57.089 1.156.222 1.758.398.604.178 1.225.337 1.873.479.305-.874.572-1.659.807-2.355.23-.696.463-1.373.689-2.028a36.68 36.68 0 0 1 .744-1.958c.268-.649.582-1.322.941-2.02.496-.761.92-1.605 1.273-2.535.352-.929.645-1.856.873-2.786l1.277.261c.203.032.367.12.492.265.125.145.15.442.082.892-.059.368-.195.85-.414 1.443l.709.298c.498-1.053 1.035-1.89 1.613-2.513.578-.622 1.092-.898 1.543-.828.695.108.984 1.054.877 2.836l-.172 1.104a19.126 19.126 0 0 1-.676 2.941c-.285.897-.6 1.781-.943 2.648-.344.867-.691 1.757-1.043 2.665-.35.91-.691 1.902-1.025 2.981.877.261 1.75.459 2.607.593.408.063.818.116 1.232.16.41.043.822.096 1.23.159.408.064.865-.033 1.363-.291.502-.257.938-.357 1.305-.3.326.05.557.191.688.42.129.23.18.468.143.713-.77.091-1.529.193-2.279.306-.75.114-1.469.223-2.154.325.666.02 1.385-.025 2.156-.136.771-.11 1.58-.204 2.43-.282a4.474 4.474 0 0 0-.053.557c-.008.167.016.358.064.575.082.013.189.008.318-.014.258-.043.408-.063.449-.055.377.268.604.563.678.89.074.326.084.672.027 1.04a2.35 2.35 0 0 1-.242.748 1.787 1.787 0 0 0-.208.567zM467.241 195.7c-.4-1.191-.539-2.323-.416-3.393.125-1.069.219-2.08.281-3.033l.895-9.408-.354 1.076c-.424 2.739-.719 5.238-.879 7.494-.164 2.257-.154 4.027.023 5.311a5.83 5.83 0 0 1-.145.731c-.043.12-.066.221-.08.303-.012.082.025.191.107.33.084.138.271.335.568.589zm4.01-2.768a4.344 4.344 0 0 1 .037-1.062l.469-3.005c-.105.403-.207.795-.309 1.177-.102.383-.184.778-.246 1.187-.164 1.063-.23 1.89-.197 2.481.047.511.23.958.545 1.341a2.185 2.185 0 0 1-.303-.863c.01-.334.01-.754.004-1.256zm.414 2.199c-.037-.046-.074-.074-.115-.081.041.007.078.035.115.081zM509.663 174.315c-.012.21.182.369.582.476l.119.033c.24.064.393.127.463.188 1.906 1.197 3.725 2.681 5.457 4.452a27.98 27.98 0 0 1 4.4 5.872 21.893 21.893 0 0 1 2.463 6.861c.441 2.432.328 4.887-.336 7.364-.58 2.158-1.557 4.124-2.932 5.896s-3.002 3.2-4.875 4.282c1.871-.912 3.521-2.235 4.953-3.973 1.428-1.736 2.449-3.744 3.063-6.021.684-2.557.787-5.09.303-7.598a24.24 24.24 0 0 0-2.537-7.073 28.65 28.65 0 0 0-4.389-6.029c-1.723-1.812-3.471-3.319-5.244-4.524 1.518.408 2.975 1.163 4.373 2.266a22.187 22.187 0 0 1 3.809 3.882 27.438 27.438 0 0 1 2.973 4.846 28.658 28.658 0 0 1 1.922 5.174l-.584.487c.479 1.414.74 2.876.783 4.387a15.527 15.527 0 0 1-.525 4.485c-.762 2.837-2.041 5.162-3.834 6.972-1.793 1.812-3.805 3.177-6.045 4.097s-4.564 1.441-6.975 1.566c-2.412.125-4.598-.077-6.555-.601a17.033 17.033 0 0 1-3.289-1.269 15.59 15.59 0 0 1-3.125-2.124l-.096.36a11.941 11.941 0 0 0 3.092 2.243c1.113.556 2.252.99 3.41 1.301 2.877.772 5.873.901 8.988.388 3.113-.514 5.939-1.652 8.467-3.416-2.473 1.865-5.252 3.089-8.342 3.674-3.094.583-6.117.479-9.074-.314-3.037-.815-5.338-2.065-6.898-3.748-1.563-1.682-2.643-3.525-3.238-5.528-.6-2.001-.82-4.011-.666-6.025.156-2.014.438-3.781.844-5.3a23.386 23.386 0 0 1 2.418-5.777 18.68 18.68 0 0 1 3.936-4.728c1.559-1.337 3.375-2.36 5.451-3.067 2.074-.707 4.412-.969 7.02-.784l-1.625-.886c-.785-.425-1.32-.825-1.605-1.202-.285-.375-.4-.663-.348-.863.086-.32.531-.576 1.332-.768.799-.192 1.639-.171 2.516.066zm-4.723 6.829c1.186-.109 2.279-.031 3.279.237.998.268 1.727.625 2.186 1.069.459.445.646.827.561 1.146-.053.2-.342.357-.865.475a34.73 34.73 0 0 0-2.002.522c-.814.232-1.717.558-2.705.977-.99.42-1.971 1.025-2.93 1.817-.963.792-1.861 1.825-2.697 3.1-.836 1.275-1.504 2.852-2.008 4.73-.74 2.757-.68 5.002.186 6.733.863 1.731 2.395 2.891 4.594 3.48 1.398.375 2.891.52 4.479.431a14.193 14.193 0 0 0 4.502-.976 11.018 11.018 0 0 0 3.746-2.466c1.082-1.08 1.838-2.418 2.268-4.018a11.25 11.25 0 0 0 .336-3.765 15.72 15.72 0 0 0-.814-3.914 18.706 18.706 0 0 0-1.811-3.794 17.745 17.745 0 0 0-2.666-3.351 47.161 47.161 0 0 0-2.453-2.232c-.648-.539-1.09-1.01-1.322-1.416-.365.075-.863.144-1.502.208-.639.065-1.496.188-2.572.37l.21.637zm5.032-2.699-.477-.384c-.059.07-.145.133-.244.192s-.162.128-.184.208c-.021.08-.002.203.063.37.061.168.121.301.182.402l.66-.788zm-.258.959c1.676 1.092 3.193 2.463 4.553 4.113a31.83 31.83 0 0 1 3.006 4.598 28.25 28.25 0 0 0-2.797-4.669 18.862 18.862 0 0 0-4.41-4.397l-.352.355zm6.144 23.562a11.359 11.359 0 0 1-3.436 2.741 7.492 7.492 0 0 0 2.295-1.248c.68-.545 1.273-1.114 1.775-1.708s.91-1.148 1.219-1.666c.258-.486.473-.879.637-1.178a99.746 99.746 0 0 1-2.49 3.059zm1.659-14.335a4.008 4.008 0 0 0-.244-.516c.074.192.158.364.244.516zm.972 20.567a.99.99 0 0 1-.242.192c-.053.029-.096.037-.137.027-.039-.012.117-.194.471-.549.352-.355.773-.777 1.27-1.266.494-.488.988-1.008 1.479-1.562.408-.405.721-.771.938-1.099a19.555 19.555 0 0 1-3.779 4.257zm3.778-4.256a.545.545 0 0 0 0 0zm.216-.328c-.049.03-.082.064-.092.104.01-.04.044-.074.092-.104zm1.971-4.226a15.813 15.813 0 0 1-.629 1.856 7.587 7.587 0 0 1-.877 1.595c.549-.923.99-2.004 1.32-3.244.246-.919.406-1.839.484-2.762.082-.791.121-1.574.115-2.347.006.773-.006 1.541-.041 2.303-.013.854-.138 1.72-.372 2.599zM569.759 195.548l-.609.952a77.223 77.223 0 0 0-2.91 5.843 65.62 65.62 0 0 1-3.172 6.136 138.291 138.291 0 0 0 3.383-5.842c1.086-2.01 2.156-3.981 3.213-5.917-.072.69-.189 1.406-.35 2.147s-.404 1.493-.729 2.253a445.182 445.182 0 0 0-2.861 5.256 116.393 116.393 0 0 1-2.975 5.207l-.816-.148c-.941 1.668-2.156 3.398-3.643 5.191a22.967 22.967 0 0 1-5.1 4.566c-1.91 1.252-4.023 2.067-6.35 2.444-2.32.377-4.756.019-7.303-1.073a20.773 20.773 0 0 1-2.568-1.337 17.27 17.27 0 0 1-2.439-1.789c-.754-.662-1.43-1.39-2.033-2.189s-1.043-1.664-1.32-2.592l.01.138-.025.058-.082.032-.146-.13c.082.441.199.851.348 1.23-.422-.9-.746-1.874-.975-2.917-.396-1.699-.496-3.565-.299-5.598.113-1.211.313-2.41.594-3.594.283-1.184.65-2.41 1.105-3.679a86.86 86.86 0 0 1 1.584-4.083 393.282 393.282 0 0 1 2.023-4.804 42.59 42.59 0 0 0 2.559-3.764 54.275 54.275 0 0 0 2.162-3.936c.113.049.254.087.422.114.168.027.33.073.482.139.268.113.438.368.518.762.078.394-.094 1.085-.518 2.074l-.221.514a2.798 2.798 0 0 1-.277.488l.686.294c.99-1.467 1.871-2.529 2.648-3.185.775-.658 1.375-.897 1.793-.718.305.131.396.677.277 1.639-.119.961-.572 2.354-1.355 4.18a79.164 79.164 0 0 1-1.85 4.001 77.693 77.693 0 0 0-1.922 4.172c-.965 2.244-1.732 4.322-2.307 6.237-.574 1.914-.834 3.65-.779 5.203.055 1.554.49 2.923 1.313 4.107.818 1.185 2.123 2.161 3.91 2.927 1.482.635 2.914.709 4.293.221 1.383-.488 2.74-1.347 4.078-2.574 1.334-1.227 2.668-2.737 4.004-4.53a169.84 169.84 0 0 0 4.018-5.671 34.09 34.09 0 0 0 .953-1.751c.299-.592.584-1.211.863-1.858l.758-1.768c.475-1.103.932-2.01 1.371-2.722.439-.711.947-1.01 1.531-.896a102.94 102.94 0 0 1-2.641 5.687 72.775 72.775 0 0 1-2.805 5.281 93.985 93.985 0 0 0 2.926-5.093 147.57 147.57 0 0 0 2.789-5.557c.164.25.32.408.473.472.152.066.336.055.553-.031l.881-2.053c.486-.604.881-1.007 1.195-1.211.313-.204.582-.256.809-.158.23.098.408.31.539.636.131.326.238.709.318 1.149l-.002 1.418zm-37.604 22.027a12.421 12.421 0 0 1 0 0zm.18.212a15.752 15.752 0 0 0 2.32 2.38c.848.7 1.676 1.292 2.482 1.773s1.475.835 2.008 1.064c2.66 1.141 5.176 1.521 7.547 1.142 2.367-.38 4.531-1.198 6.486-2.452a24.085 24.085 0 0 0 5.201-4.489c1.422-1.64 2.627-3.194 3.617-4.66-.951 1.483-2.127 3.072-3.527 4.767a24.313 24.313 0 0 1-5.238 4.574 17.666 17.666 0 0 1-6.465 2.562c-2.35.436-4.816.097-7.402-1.011a17.75 17.75 0 0 1-4.031-2.405 14.755 14.755 0 0 1-3.178-3.456c.059.07.117.142.18.211zm27.863-4.664c.389-.597.754-1.184 1.092-1.76.303-.5.607-.999.912-1.499-.945 1.576-2.084 3.181-3.416 4.815-1.361 1.711-2.891 3.228-4.584 4.551s-3.545 2.339-5.561 3.05c-1.91.668-3.873.839-5.893.512 1.744.343 3.453.289 5.131-.162a17.03 17.03 0 0 0 4.85-2.175 23.634 23.634 0 0 0 4.137-3.426 39.461 39.461 0 0 0 3.332-3.906zm-7.361 1.572a22.886 22.886 0 0 1-2.424 1.796c-.838.54-1.713.977-2.619 1.308a10.39 10.39 0 0 0 2.652-1.226 16.527 16.527 0 0 0 2.391-1.878zm9.547-5.092a.988.988 0 0 0 0 0zM568.7 239.43a6.98 6.98 0 0 1-1.229-.607l-1.533-.941c-.918-.563-1.629-.852-2.125-.867-.502-.016-.787-.045-.859-.089l.375-1.081.582-.953 2.785-5.136c.514-.997.947-2.137 1.301-3.425.354-1.287.787-2.55 1.303-3.787.35-.806.693-1.566 1.033-2.28l1.055-2.192c.359-.749.727-1.521 1.092-2.316.365-.793.721-1.668 1.064-2.623.131-.212.268-.419.416-.619.145-.202.285-.406.414-.619a23.287 23.287 0 0 0 1.717-3.389 28.473 28.473 0 0 0 1.174-3.576c.311.045.598.089.865.13.264.042.486.116.664.225.176.107.244.43.207.965-.035.536-.322 1.514-.854 2.935.072.044.193.082.365.116.176.033.295.072.365.115.334-.621.641-1.319.92-2.093a140.863 140.863 0 0 0 1.453-4.206c.188-.587.383-1.04.576-1.356.045-.071.107-.154.188-.249.086-.095.195-.1.336-.013.178.108.287.443.332 1.003.045.562.041 1.24-.01 2.033a34.076 34.076 0 0 1-.258 2.499c-.123.872-.244 1.684-.363 2.434 2.055-1.215 3.977-1.916 5.768-2.105 1.789-.188 3.672.323 5.648 1.535 1.445.887 2.523 1.779 3.236 2.676.711.897 1.199 1.706 1.461 2.425.264.719.375 1.31.336 1.77l-.008.724c-.131.211-.322.288-.58.228a11.064 11.064 0 0 0-1.887-3.925 11.405 11.405 0 0 0-3.176-2.894c-1.199-.736-2.197-1.129-2.99-1.178a19.965 19.965 0 0 0-2.449-.046c.932-.013 1.752.032 2.471.131.75.121 1.688.527 2.818 1.22a10.56 10.56 0 0 1 3.105 2.888c.838 1.168 1.436 2.372 1.791 3.61a2.613 2.613 0 0 0-.594-.039c-.18.013-.32.107-.428.284.174.109.299.342.371.701.068.36.096.75.078 1.177-.02.425-.07.844-.152 1.255-.082.411-.188.722-.316.933-.367.6-.783.758-1.24.478-.352-.216-.699-.599-1.041-1.148-.086-.1-.186-.43-.307-.988a11.423 11.423 0 0 0-.578-1.847 12.758 12.758 0 0 0-1.061-2.071c-.439-.707-1.047-1.298-1.822-1.774-.635-.389-1.271-.597-1.91-.625a5.72 5.72 0 0 0-1.945.263c-.66.203-1.318.49-1.982.86l-1.469.847a20.51 20.51 0 0 1 3.34-1.522c1.264-.483 2.43-.402 3.486.247a6.373 6.373 0 0 1 2.168 2.166c.525.882.854 1.773.979 2.676a28.692 28.692 0 0 0-1.66-2.039c-.662-.744-1.361-1.344-2.102-1.797-.391-.239-.779-.355-1.168-.352a2.974 2.974 0 0 0-1.119.223 6.985 6.985 0 0 0-1.064.549c-.355.22-.705.417-1.057.592l-.752-.316c-1.229.655-2.443 1.548-3.645 2.679a18.903 18.903 0 0 0-3.168 3.917 22.176 22.176 0 0 0-1.326 2.463 22.735 22.735 0 0 0-.934 2.412l-.371 2.029.834-1.599a285.465 285.465 0 0 0 1.752-3.331c.502-.978 1.1-2.03 1.793-3.161a21.871 21.871 0 0 1 2.205-2.649 10.419 10.419 0 0 1 2.125-1.683c-.941.587-1.82 1.384-2.633 2.391a31.387 31.387 0 0 0-2.6 3.647 31.77 31.77 0 0 0-1.689 3.113 62.697 62.697 0 0 0-1.355 3.1 520.85 520.85 0 0 0-1.299 3.245 45.212 45.212 0 0 1-1.605 3.566l-.457 1.103-1.529 3.21-1.648-.282z"/></g></svg>