<svg xmlns="http://www.w3.org/2000/svg" width="800" height="472.477" viewBox="0 168.602 800 472.477" xml:space="preserve"><path fill="#F79927" d="M729.502 520.032a24.049 24.049 0 0 0 1.328-7.881v-19.365c0-55.379-41.13-100.434-91.688-100.434h-45.73c-8.322 0-13.469-7.004-25.723-29.504-.839-1.539-1.464-2.703-1.787-3.234a936.657 936.657 0 0 1-5.118-8.492c-7.52-12.56-14.62-24.424-23.836-34.746-36.031-40.355-101.098-49.632-136.676-51.565-38.181-2.074-94.139.968-143.875 27.258-51.377 27.161-92.057 90.14-101.229 156.718-2.714 19.709-3.075 39.709-2.708 55.254.082 3.406.197 6.599.33 9.527a23.348 23.348 0 0 0 1.206 6.465h42.627c10.159-29.715 38.341-51.147 71.451-51.147 33.111 0 61.296 21.434 71.452 51.147h209.499c10.157-29.715 38.34-51.147 71.45-51.147 33.112 0 61.296 21.434 71.451 51.147h37.576v-.001zm-490.298-82.105h-27.067c-4.962 0-9.021-4.062-9.021-9.021s4.06-9.021 9.021-9.021h27.067c4.963 0 9.021 4.062 9.021 9.021s-4.06 9.021-9.021 9.021zm151.83-54.131c0 5.826-4.721 10.547-10.547 10.547H211.769a10.55 10.55 0 0 1-8.714-4.606 10.538 10.538 0 0 1-1.1-9.795c.438-1.125 11.131-27.826 38.667-53.048 25.326-23.2 70.31-49.572 140.776-43.458a10.55 10.55 0 0 1 9.635 10.508l.001 89.852zm55.313 54.131h-27.063c-4.963 0-9.022-4.062-9.022-9.021s4.061-9.021 9.022-9.021h27.063c4.963 0 9.022 4.062 9.022 9.021s-4.061 9.021-9.022 9.021zm108.986-48.377a10.54 10.54 0 0 1-8.839 4.791H416.575c-5.826 0-10.547-4.719-10.547-10.547v-89.319a10.55 10.55 0 0 1 8.944-10.427c.968-.147 24.125-3.534 53.114 6.779 26.422 9.398 63.145 32.416 88.052 88.701a10.54 10.54 0 0 1-.805 10.022z"/><g fill="#103653"><path d="M5.956 520.389c2.439 7.789 7.766 14.162 14.999 17.942a30.545 30.545 0 0 0 20.279 2.853 28.18 28.18 0 0 0 8.654 7.03 28.063 28.063 0 0 0 13.041 3.214c10.178 0 20.021-5.515 25.061-15.14 5.599-10.71 3.625-23.407-3.99-31.929 1.525-5.078 1.506-10.493-.115-15.669-2.138-6.832-6.812-12.423-13.156-15.742-6.343-3.315-13.601-3.969-20.434-1.828-5.48 1.717-10.164 5.064-13.516 9.6-11.722-.679-23.024 5.453-28.737 16.375-3.782 7.233-4.524 15.505-2.086 23.294zm20.78-13.516a9.427 9.427 0 0 1 11.887-4.405c5.402 2.172 11.542-.447 13.713-5.849.172-.428.316-.867.431-1.313.115-.441.274-.863.479-1.254a5.666 5.666 0 0 1 3.352-2.798 5.793 5.793 0 0 1 1.714-.266 5.73 5.73 0 0 1 2.638.653 5.662 5.662 0 0 1 2.806 3.354 5.677 5.677 0 0 1-.391 4.355c-.204.386-.45.747-.734 1.078a10.551 10.551 0 0 0-2.306 8.996 10.55 10.55 0 0 0 5.7 7.328l.313.152c3.43 1.794 4.783 6.116 2.96 9.604-1.825 3.484-6.148 4.841-9.63 3.013a7.069 7.069 0 0 1-3.55-4.364c-1.607-5.601-7.45-8.838-13.05-7.231-.992.284-1.937.713-2.804 1.271a9.502 9.502 0 0 1-9.533.444 9.418 9.418 0 0 1-4.645-5.557 9.404 9.404 0 0 1 .65-7.211zm107.783-150.67c-5.587-1.661-11.454 1.527-13.112 7.109-.995 3.35-1.92 6.803-2.745 10.262-1.354 5.664 2.142 11.356 7.806 12.71.806.192 1.632.291 2.46.292 4.769 0 9.094-3.258 10.251-8.1.733-3.075 1.55-6.131 2.449-9.161 1.656-5.585-1.526-11.456-7.109-13.112zm80.444-91.504c-3.238-4.837-9.789-6.142-14.63-2.902-18.53 12.393-34.499 26.959-47.471 43.302a187.272 187.272 0 0 0-11.295 15.848 184.024 184.024 0 0 0-5.697 9.568c-2.829 5.092-.993 11.513 4.101 14.342a10.492 10.492 0 0 0 5.11 1.328c3.708 0 7.304-1.956 9.229-5.427a164.168 164.168 0 0 1 5.047-8.479 166.775 166.775 0 0 1 10.023-14.065c11.609-14.626 25.969-27.709 42.677-38.881 4.843-3.239 6.143-9.791 2.906-14.634zM605.7 305.847c-3.478-6.046-5.232-8.398-9.478-14.08l-.33-.44c-11.868-15.886-26.336-29.909-43.003-41.682-4.757-3.36-11.337-2.226-14.699 2.527-3.361 4.761-2.229 11.342 2.528 14.7 14.858 10.494 27.733 22.969 38.273 37.076l.33.439c4.137 5.532 5.246 7.021 8.091 11.971 2.897 5.049 9.339 6.793 14.388 3.896l.011-.007c5.051-2.903 6.792-9.351 3.889-14.4zm17.761 37.651c-.534-1.317-1.536-3.68-3.391-7.873-2.354-5.327-8.579-7.73-13.913-5.38-5.326 2.356-7.734 8.583-5.379 13.912 1.901 4.304 2.756 6.33 3.133 7.255a10.543 10.543 0 0 0 1.253 3.017c1.991 3.258 5.519 5.106 9.128 5.106a10.367 10.367 0 0 0 4.834-1.186c8.133-4.257 5.039-13.117 4.335-14.851zm-217.128-48.541v89.32c0 5.827 4.721 10.547 10.547 10.547h129.918c5.824.002 10.547-4.717 10.55-10.541a10.57 10.57 0 0 0-.902-4.271c-24.908-56.284-61.632-79.303-88.054-88.7-28.987-10.314-52.146-6.928-53.112-6.779a10.546 10.546 0 0 0-8.947 10.424zm21.094 78.773v-68.829c20.006.125 68.896 7.227 102.449 68.829H427.427zm-225.167 6.693c-2.131 5.419.533 11.54 5.951 13.671 1.23.484 2.541.732 3.863.732h168.718c5.826 0 10.547-4.721 10.547-10.547v-89.854a10.55 10.55 0 0 0-9.635-10.508c-70.467-6.113-115.45 20.258-140.776 43.458-27.537 25.222-38.23 51.923-38.668 53.048zm167.984-6.694H229.583c5.445-8.736 13.985-20.313 26.287-31.436 30.133-27.247 68.578-39.993 114.374-37.997v69.433zm40.319 55.66c0 4.961 4.061 9.021 9.021 9.021h27.065c4.961 0 9.021-4.061 9.021-9.021s-4.059-9.021-9.021-9.021h-27.065c-4.96-.001-9.021 4.06-9.021 9.021zm-207.144 0c0 4.961 4.06 9.021 9.021 9.021h27.067c4.961 0 9.021-4.061 9.021-9.021s-4.058-9.021-9.021-9.021H212.44c-4.961-.001-9.021 4.06-9.021 9.021z"/><path d="M381.541 244.477c-44-.099-84.164 9.746-84.164 9.746-16.927 4.58-34.012 10.946-50.531 19.682-48.585 25.683-87.385 77.378-104.7 137.063-6.593-.812-16.429-.634-25.284 5.038-9.184 5.881-14.672 15.803-16.314 29.495-1.997 16.661 3.682 26.661 8.792 32.117 2.237 2.387 4.702 4.276 7.234 5.813h-3.618c-5.825 0-10.547 4.72-10.547 10.547v33.373c0 5.826 4.722 10.547 10.547 10.547h6.237v.967c0 8.516 6.967 15.481 15.481 15.481h28.418a37.935 37.935 0 0 0 8.921 1.075h21.612c3.553 25.299 19.686 46.614 41.852 57.396H124.619c-5.825 0-10.547 4.721-10.547 10.547 0 5.827 4.722 10.547 10.547 10.547h581.776c5.823 0 10.547-4.72 10.547-10.547 0-5.826-4.724-10.547-10.547-10.547h-52.707c22.163-10.781 38.299-32.098 41.851-57.396h16.445c3.039 0 5.988-.392 8.837-1.075H749.1c8.515 0 15.48-6.967 15.48-15.481v-2.868c0-3.285-1.045-6.336-2.813-8.846 3.95-1.306 7.998-3.364 11.67-6.553 8.232-7.153 12.218-17.769 11.852-31.552-.446-16.778-7.518-25.847-13.368-30.502-9.049-7.193-19.977-8.143-26.854-7.86-16.052-46.063-57.332-78.939-105.617-78.939h-41.963c-2.243-3.032-5.916-9.229-10.966-18.498-1.081-1.982-1.899-3.472-2.313-4.146-1.692-2.769-3.356-5.549-5.021-8.326-7.692-12.854-15.648-26.146-26.198-37.961-22.98-25.738-55.394-40.34-86.3-48.586.001-.001-41.148-9.653-85.148-9.751zm370.134 227.648c2.552.446 5.146 1.338 7.178 2.979 3.363 2.717 5.164 7.595 5.349 14.5.19 7.181-1.356 12.251-4.6 15.068-1.796 1.558-4.055 2.439-6.255 2.927l-1.672-35.474zm-155.253 72.748c0-13.455 10.906-24.358 24.36-24.358 13.455 0 24.358 10.906 24.358 24.358 0 3.784-.887 7.353-2.426 10.548-3.934 8.163-12.264 13.813-21.934 13.813s-17.998-5.647-21.933-13.813a24.252 24.252 0 0 1-2.425-10.548zm-295.139 67.945c22.164-10.781 38.298-32.099 41.85-57.396h202.895c3.552 25.298 19.686 46.614 41.852 57.396H301.283zm-57.264-67.945c0-13.455 10.906-24.358 24.361-24.358 13.454 0 24.36 10.906 24.36 24.358a24.23 24.23 0 0 1-2.428 10.548c-3.933 8.163-12.264 13.813-21.933 13.813s-17.999-5.647-21.933-13.813a24.226 24.226 0 0 1-2.427-10.548zm-88.547-95.604c9.172-66.577 49.852-129.558 101.229-156.719 49.737-26.289 105.694-29.331 143.875-27.258 35.58 1.936 100.645 11.21 136.676 51.566 9.217 10.321 16.318 22.186 23.836 34.746 1.697 2.836 3.396 5.671 5.119 8.491.324.53.949 1.695 1.786 3.234 12.255 22.499 17.4 29.504 25.724 29.504h45.73c50.559 0 91.688 45.056 91.688 100.434v19.365c0 2.78-.479 5.435-1.328 7.882h-37.573c-10.156-29.715-38.341-51.148-71.451-51.148-33.111 0-61.293 21.434-71.452 51.148h-209.5c-10.156-29.715-38.34-51.148-71.452-51.148-33.11 0-61.292 21.434-71.451 51.148H154.3a23.51 23.51 0 0 1-1.206-6.465 448.725 448.725 0 0 1-.33-9.527c-.368-15.544-.006-35.544 2.708-55.253zm-31.97 67.536v-12.28h8.165c.085 3.76.21 7.275.356 10.486.026.605.114 1.194.164 1.794h-8.685zm-2.01-68.795c.849-7.086 3.092-11.86 6.67-14.19 1.974-1.287 4.366-1.86 6.685-2.033l-3.506 35.341c-2.458-.813-4.894-2.074-6.666-3.992-2.935-3.18-4.006-8.268-3.183-15.126zM21.127 623.365c0 5.826 4.722 10.547 10.547 10.547h48.988c5.825 0 10.547-4.721 10.547-10.547s-4.722-10.547-10.547-10.547H31.674c-5.824 0-10.547 4.721-10.547 10.547zm719.563 0c0 5.826 4.721 10.547 10.547 10.547h38.216c5.827 0 10.547-4.721 10.547-10.547s-4.72-10.547-10.547-10.547h-38.216c-5.826 0-10.547 4.721-10.547 10.547z"/></g><g fill="#103653" stroke="#103653" stroke-width="2.391" stroke-linecap="round" stroke-linejoin="round" stroke-miterlimit="10"><path d="m283.983 225.693-.479-.067a33.686 33.686 0 0 0-6.395 1.087 50.577 50.577 0 0 1-6.85 1.315 79.088 79.088 0 0 0 6.771-1.099 33.132 33.132 0 0 1 6.681-.689 3.923 3.923 0 0 1-1.841 1.302c-.896.2-1.794.351-2.697.451-.903.102-1.847.268-2.833.497-.092-.273-.092-.5-.002-.683a20.02 20.02 0 0 1-4.062.91c-1.389.163-2.754.28-4.098.352-1.343.072-2.644.156-3.904.25-1.26.095-2.391.31-3.391.646.046.136.045.212 0 .228 1.259-.169 2.48-.227 3.666-.169 1.184.058 2.474-.021 3.87-.238a30.067 30.067 0 0 0 3.949-.568 49.632 49.632 0 0 1 3.767-.659 71.185 71.185 0 0 1-6.11 1.143 120.17 120.17 0 0 1-6.248.733l-3.483.26a478.314 478.314 0 0 1-.566 9.724c-.22 3.188-.393 6.399-.521 9.632a.563.563 0 0 0-.547-.158c-.212.045-.421.104-.625.172s-.418.077-.638.024c-.221-.053-.392-.261-.514-.625-.123-.365-.204-.907-.243-1.627-.041-.72.006-1.711.14-2.972-.123-.06-.289-.067-.501-.021a4.604 4.604 0 0 0-.455.115c-.268 2.217-.65 3.979-1.147 5.286-.498 1.307-.997 2.044-1.497 2.212-.546.184-.995-.249-1.347-1.294-.291-.865-.503-2.022-.635-3.471a71.79 71.79 0 0 1-.263-4.735c-.042-1.707-.047-3.49-.014-5.351.033-1.859.055-3.677.065-5.453a5.593 5.593 0 0 0-1.833-.144c-.616.055-1.278.152-1.992.29.076-.227.067-.479-.025-.751s-.161-.553-.207-.842a1.62 1.62 0 0 1 .043-.774c.076-.228.294-.403.659-.525.09-.031.379-.077.865-.139l-.207-.614c-.851-.119-1.554-.363-2.108-.734-.555-.37-.917-.805-1.085-1.306-.367-1.092.495-1.99 2.588-2.694a17.394 17.394 0 0 1 1.843-.505 63.818 63.818 0 0 1 1.957-.393l.73-8.221c.163-1.775.366-3.617.612-5.523a39.786 39.786 0 0 1 1.203-5.798 36.847 36.847 0 0 1 2.193-5.789c.905-1.9 2.077-3.724 3.515-5.474l.886-.754c1.38-.109 2.503-.196 3.369-.259a30.244 30.244 0 0 0 2.094-.21c.515.03.918.021 1.207-.026l-.068.023.137.182c.015.046.007.1-.022.16l1.301 1.158a106.086 106.086 0 0 1 12.693 12.899 191.969 191.969 0 0 1 10.533 13.93 55.051 55.051 0 0 0 2.559 3.204 548.685 548.685 0 0 0 2.74 3.18c.868 1 1.618 1.913 2.25 2.738.631.826 1.017 1.443 1.155 1.853.107.319.104.535-.01.649-.114.114-.284.21-.512.286a319.564 319.564 0 0 1-6.281-7.611 473.833 473.833 0 0 1-5.939-7.498 280.652 280.652 0 0 0 5.735 7.567c2.01 2.515 4.035 5.075 6.077 7.68l-.478.161c-.273.092-.409.29-.408.593.122.062.316.262.583.602.266.34.54.704.822 1.091.282.386.544.792.789 1.216.244.424.404.75.481.978.336 1 .208 1.601-.382 1.8-.319.107-.592.123-.82.047a6.19 6.19 0 0 1-.798-.339l-.912-.453a7.158 7.158 0 0 0-1.299-.475l-12.885-16.633c1.95 2.637 3.888 5.276 5.815 7.92a315.893 315.893 0 0 0 5.837 7.76c-1.019-.62-2.042-1.44-3.069-2.462a45.747 45.747 0 0 1-3.014-3.316 79.07 79.07 0 0 1-2.878-3.704c-.937-1.28-1.848-2.48-2.73-3.602a.772.772 0 0 0 .115.228.81.81 0 0 1 .114.228c.245.728.2 1.351-.132 1.867l-.409.818zm-2.796-6.96c.091-.03.216-.11.375-.24.159-.129.284-.209.375-.24a770.373 770.373 0 0 0-8.165-9.484 117.99 117.99 0 0 0-8.321-8.596l-.272.547 1.643 1.499a95.938 95.938 0 0 1 7.329 7.563 193.198 193.198 0 0 1 6.83 8.338 233.905 233.905 0 0 0-7.833-9.178c-2.71-3.013-5.411-5.663-8.104-7.948l-.227.229c-1.012 2.113-1.814 4.51-2.406 7.189-.593 2.681-1.09 5.38-1.493 8.098l-.329 4.896 1.252-.117a55.55 55.55 0 0 1 2.208-.097c.728-.017 1.381.004 1.958.063 1.168.165 2.619.107 4.348-.171 1.73-.278 3.422-.555 5.075-.833 1.654-.277 3.111-.463 4.37-.558 1.26-.094 1.981.131 2.165.677l-8.647 1.844c.531-.076 1.18-.181 1.946-.313.766-.13 1.548-.254 2.344-.37a90.91 90.91 0 0 0 2.344-.371c.766-.13 1.414-.234 1.946-.313.046.137.077.266.092.387.015.122.039.228.069.319.031.092.106.129.228.113.121-.015.265-.038.433-.07.167-.03.334-.023.501.021.152 0 .334.091.547.272l-2.581-3.156zm-19.72-9.625c.09-.031.144.016.16.136.015.122.045.174.091.159.091-.03.257-.44.498-1.23.24-.79.519-1.694.835-2.712.315-1.018.625-1.982.926-2.894.301-.911.526-1.518.678-1.823l-.502-.363c-.649 1.232-1.177 2.599-1.583 4.103s-.774 3.045-1.103 4.624zm.745-10.885 1.028 1.25-.55-1.41a.886.886 0 0 1-.33.035.924.924 0 0 0-.33.035l.182.09zm2.44 1.382-.363.502.593.408.271-.547-.501-.363zm.91-.458.068-.023-.502-.363.023.068.411.318zm.224-1.366c.637-.062 1.092-.063 1.366-.003.273.06.455.075.546.044v-.228c.045-.015-.053-.007-.296.023-.243.032-.44.047-.592.047l.044-.319-.911.002-.157.434zm.095 1.639a86.944 86.944 0 0 1 6.619 6.358 209.144 209.144 0 0 1 6.006 6.792 75.461 75.461 0 0 0-5.801-6.861 88.055 88.055 0 0 0-6.756-6.312l-.068.023zm13.884 6.726a553.215 553.215 0 0 1 7.903 9.724 299.678 299.678 0 0 0-7.698-9.565 133.584 133.584 0 0 0-8.175-9.177 139.538 139.538 0 0 1 7.97 9.018zM310.846 231.139a353.794 353.794 0 0 0-5.613-11.76 792.103 792.103 0 0 0-5.846-11.425 68.74 68.74 0 0 1-2.554-5.285 32.439 32.439 0 0 0-2.825-5.164c.313-.153.554-.379.72-.677.166-.297.414-.477.745-.536.236-.042.486.06.75.305.263.246.508.531.738.855.229.325.448.664.657 1.016.209.354.35.596.423.729l.813-.365a26.97 26.97 0 0 1-.86-2.15 14.202 14.202 0 0 1-.576-2.201c-.051-.283-.093-.726-.128-1.33-.035-.603.184-.947.657-1.032.709-.126 1.605.384 2.688 1.531 1.083 1.148 2.219 2.664 3.41 4.547a108.821 108.821 0 0 1 3.643 6.26c1.238 2.291 2.39 4.51 3.458 6.66a449.655 449.655 0 0 1 2.826 5.785 192.124 192.124 0 0 1 1.712 3.644 37.235 37.235 0 0 0 2.386-5.473c.641-1.87 1.268-3.749 1.881-5.639a110.173 110.173 0 0 1 1.994-5.623 31.535 31.535 0 0 1 2.724-5.424 66.91 66.91 0 0 0 1.194-2.115 67.288 67.288 0 0 1 1.735-2.979 26.705 26.705 0 0 1 1.892-2.715c.637-.796 1.192-1.237 1.665-1.322.236-.042.479.086.727.382a1214.745 1214.745 0 0 0-4.388 6.343 31.015 31.015 0 0 0-3.553 6.925 34.472 34.472 0 0 1 3.655-6.761 115.186 115.186 0 0 1 4.574-6.121l.79.737c.208-.476.643-1.041 1.306-1.697.662-.654 1.254-1.028 1.774-1.122.377-.067.682 0 .914.202.23.204.381.493.448.871.059.331.088.765.086 1.301-.002.538-.077.94-.223 1.21a3.723 3.723 0 0 1-.698 1.003 247.543 247.543 0 0 1-3.727 4.726c-1.179 1.454-2.226 3.166-3.142 5.133l.407-.584a43.099 43.099 0 0 1 3.141-4.731 36.371 36.371 0 0 1 3.821-4.194c-.627 1.673-1.425 3.144-2.392 4.414a51.511 51.511 0 0 0-2.869 4.207 11.3 11.3 0 0 0-1.066 2.421 8.48 8.48 0 0 1-1.15 2.363l-.676-.099a439.694 439.694 0 0 1-1.742 6.419 79.619 79.619 0 0 1-2.102 6.446 44.281 44.281 0 0 1-2.823 6.1 25.993 25.993 0 0 1-3.915 5.308c-.091.309-.342.609-.752.902-.412.293-.722.531-.933.715l-4.82-1.186a195.92 195.92 0 0 0-3.51-6.541l-.342.134 3.143 6.533a.793.793 0 0 0 .273.098c.126.025.382.089.766.192.384.102.969.241 1.757.417.787.176 1.865.409 3.234.702 1.687-1.472 3.074-2.988 4.161-4.547 1.048-1.503 2.005-3.235 2.875-5.195-.36.991-.754 1.916-1.187 2.772a21.597 21.597 0 0 1-1.438 2.598 20.48 20.48 0 0 1-1.836 2.413 19.632 19.632 0 0 1-2.441 2.302l-6.436-1.628zm10.116-19.509a216.437 216.437 0 0 1 2.975-8.724 94.228 94.228 0 0 0-3.142 8.607 95.576 95.576 0 0 1-3.109 8.382 63.974 63.974 0 0 0 3.276-8.265zm-.688 14.971c1.812-2.957 3.28-5.999 4.403-9.125s2.057-6.292 2.8-9.497l-.025-.142a148.853 148.853 0 0 0-1.595 4.783 195.704 195.704 0 0 1-1.588 4.819 79.317 79.317 0 0 1-1.792 4.709 38.244 38.244 0 0 1-2.203 4.453zm4.07-4.238a1.127 1.127 0 0 0 0 0zm.104-.239a60.022 60.022 0 0 0 1.455-4.137l.117-.167c-.039.056-.054.108-.045.155a44.683 44.683 0 0 1-1.527 4.149zm1.74-4.992a1.822 1.822 0 0 1 0 0zm.8-2.483c-.122.413-.244.824-.364 1.235.12-.411.242-.823.364-1.235zm2.501-11.784a40.942 40.942 0 0 0-.963 2.184c-.288.709-.565 1.406-.833 2.087.315-.69.704-1.381 1.166-2.074.46-.692.67-1.424.63-2.197zM369.193 205.186c-1.294.061-2.267.083-2.916.064a24.882 24.882 0 0 0-1.766.01c-1.438.067-2.706.199-3.802.394-1.097.196-2.018.527-2.764.995a4.08 4.08 0 0 0-1.639 1.951c-.346.833-.487 1.921-.424 3.263.092 1.967.387 3.406.887 4.319.499.914 1.178 1.555 2.036 1.923.857.369 1.889.573 3.092.612 1.202.041 2.555.193 4.058.459.868.056 1.733.075 2.598.059a93.268 93.268 0 0 0 2.591-.085l5.178-.242a144.766 144.766 0 0 0-7.168.083c-2.375.087-4.518-.017-6.43-.312-1.913-.295-3.478-.894-4.697-1.799-1.22-.903-1.875-2.338-1.967-4.305-.074-1.582.073-2.802.441-3.661.368-.857.89-1.507 1.566-1.947.676-.439 1.492-.718 2.448-.835a41.084 41.084 0 0 1 3.088-.252 39.75 39.75 0 0 1 4.109.024 23.141 23.141 0 0 1-3.309.912c-1.119.222-2.154.438-3.105.65-.952.213-1.769.468-2.451.763-.683.297-1.133.691-1.35 1.181l.151 3.236-.562.314c.247 1.19.469 2.081.666 2.672.196.592.685 1.026 1.466 1.301.781.276 2.028.47 3.739.582 1.71.113 4.207.308 7.488.587l5.178-.242c.91-.042 1.448-.104 1.613-.184.164-.08.271-.121.319-.123l-.829-3.854a31.183 31.183 0 0 0-.481-2.572 30.08 30.08 0 0 0-.689-2.418c-.042.146-.182.225-.421.236.277.805.521 1.658.732 2.561.21.903.394 1.76.552 2.569.158.81.287 1.5.385 2.072.099.572.198.904.299.995l-.425.164c-.094.053-.237.083-.428.092l-.432.021a7.033 7.033 0 0 1-1.156-.054c-.435-.052-.988-.062-1.659-.03l-2.374.111c-1.87.087-3.601.073-5.192-.045-1.496-.122-2.801-.302-3.917-.538 1.114.189 2.466.317 4.055.387 1.687.114 3.25.137 4.688.069a55.931 55.931 0 0 0 1.976-.128 66.732 66.732 0 0 1 2.264-.142l2.374-.111a.692.692 0 0 0-.514-.192l-.144.007c-.347-3.299-.927-6.444-1.739-9.433-.813-2.989-2.016-5.587-3.608-7.796-1.593-2.208-3.62-3.939-6.081-5.194-2.462-1.254-5.49-1.797-9.086-1.629-1.007.047-2.011.166-3.011.357s-2.023.431-3.066.72c.091-.1.135-.198.13-.294-.011-.239-.118-.463-.319-.669-.202-.207-.309-.429-.32-.67-.013-.288.272-.577.86-.869.587-.291 1.857-.603 3.813-.935-.101-.091-.167-.232-.2-.423a3.643 3.643 0 0 1-.056-.43c-2.589.121-4.605.156-6.05.103-1.444-.052-2.179-.366-2.206-.942-.011-.239.272-.589.852-1.049.579-.459 1.41-.918 2.495-1.378 1.083-.458 2.397-.88 3.941-1.266 1.543-.384 3.274-.622 5.192-.711 3.692-.172 6.883.244 9.573 1.246 2.689 1.004 4.977 2.387 6.861 4.148a23.608 23.608 0 0 1 4.682 6.088 46.907 46.907 0 0 1 3.064 6.957 52.37 52.37 0 0 1 1.869 6.832c.439 2.214.842 4.13 1.206 5.746.013.288.038.575.076.861.037.287.065.622.083 1.005.065 1.391-.13 2.613-.585 3.667a7.33 7.33 0 0 1-1.964 2.687c-.855.736-1.861 1.313-3.019 1.727-1.159.415-2.409.653-3.751.716a157.2 157.2 0 0 1-4.103.12 38.617 38.617 0 0 1-4.839-.206 25.112 25.112 0 0 0-3.333-.385 29.346 29.346 0 0 1-3.696-.439 19.542 19.542 0 0 1-3.689-1.053c-1.2-.472-2.292-1.227-3.277-2.262-.985-1.035-1.795-2.402-2.426-4.103-.632-1.7-1.01-3.869-1.133-6.506-.116-2.493.365-4.522 1.445-6.086s2.403-2.803 3.971-3.717c1.567-.914 3.183-1.542 4.849-1.885 1.666-.341 3.026-.538 4.081-.587 1.342-.063 2.234-.008 2.675.163.44.172.665.354.674.545a.804.804 0 0 1-.055.363 93.645 93.645 0 0 0-4.596.359c-1.866.185-3.662.58-5.387 1.189-1.726.61-3.187 1.483-4.382 2.62-1.197 1.137-1.748 2.689-1.656 4.655.349-1.793 1.013-3.23 1.997-4.31a9.896 9.896 0 0 1 3.453-2.468 15.452 15.452 0 0 1 4.092-1.128 45.994 45.994 0 0 1 3.839-.359l2.445-.115c-.183.201-.27.398-.261.589.009.192.112.355.311.49l2.805-.131c.773.108 1.336.334 1.689.678.352.344.536.66.549.948.02.431-.178.826-.593 1.181-.416.35-1.119.719-2.111 1.101zm-11.268 17.97c1.367.465 2.764.808 4.193 1.029 1.427.222 2.838.347 4.234.378a37.9 37.9 0 0 0 3.894.034 20.197 20.197 0 0 1-2.9-.369 228.054 228.054 0 0 1-2.691-.522 17.53 17.53 0 0 0-2.428-.283 31.015 31.015 0 0 1-2.46-.209 14.837 14.837 0 0 1-2.585-.564c-.877-.271-1.762-.698-2.655-1.281.947.774 2.081 1.369 3.398 1.787zm.366-7.585c-.051-.045.1.092.452.411.301.274.694.472 1.181.594-.245-.084-.61-.188-1.096-.309-.537-.167-.813-.442-.831-.826l.294.13zm1.848.995-.216.01.216-.01zM393.313 218.956c.02-.239.114-.521.285-.844.17-.323.271-.676.303-1.059.236-1.137.398-1.954.488-2.453.087-.499.148-.938.179-1.322.163-2.01.278-4.179.347-6.509.068-2.33.118-4.578.149-6.742.054-.669.105-1.46.156-2.371.049-.91.048-1.633-.005-2.167.279-1.663.532-3.303.76-4.922.227-1.619.409-3.265.545-4.94l.146-1.794c.05-.621.076-1.246.08-1.872.132.155.27.238.413.25.191.016.4-.04.627-.166.227-.126.436-.181.627-.166.334.027.581.408.738 1.143.157.735.137 2.323-.061 4.763l.646.052c.456-2.659 1-4.759 1.63-6.297s1.208-2.286 1.734-2.243c.239.019.58.565 1.023 1.636.443 1.072.575 2.708.396 4.908l.895-1.228a40.797 40.797 0 0 1 1.916-1.795 12.355 12.355 0 0 1 2.334-1.617c.855-.46 1.801-.829 2.834-1.106 1.034-.277 2.197-.364 3.488-.259 2.487.201 4.607.94 6.358 2.213a15.313 15.313 0 0 1 4.274 4.753c1.098 1.895 1.949 4.011 2.555 6.347a47.371 47.371 0 0 1 1.271 7.038c.242 2.356.349 4.615.317 6.78-.03 2.165-.108 4.013-.232 5.543-.112 1.388-.264 2.207-.452 2.456-.189.25-.5.381-.936.394.203-3.691.269-7.466.196-11.325a40.891 40.891 0 0 0-1.825-11.345c.985 3.885 1.51 7.671 1.571 11.36s-.056 7.376-.354 11.06c-.275-.167-.533-.26-.772-.279a.69.69 0 0 0-.52.174c-.031.384-.04.792-.027 1.226a18.204 18.204 0 0 1-.036 2.237c-.377 1.078-.729 1.844-1.054 2.298-.325.456-.608.673-.848.654-.287-.023-.517-.174-.686-.453a5.13 5.13 0 0 1-.46-1.012c-.137-.396-.27-.828-.4-1.297a6.401 6.401 0 0 0-.574-1.383c.161-.805.287-1.458.375-1.956s.146-.915.174-1.25c.105-1.292.206-2.848.307-4.67.1-1.822.122-3.734.068-5.737a52.055 52.055 0 0 0-.522-6.038c-.294-2.021-.772-3.843-1.435-5.462-.664-1.618-1.555-2.967-2.67-4.045-1.117-1.077-2.514-1.685-4.188-1.82-1.148-.093-2.196.208-3.143.901-.948.694-1.793 1.613-2.535 2.756a25.36 25.36 0 0 0-2.004 3.774 39.034 39.034 0 0 0-1.477 3.961 839.474 839.474 0 0 1 1.659-3.983 21.182 21.182 0 0 1 1.959-3.669c.739-1.096 1.569-1.979 2.49-2.651a4.495 4.495 0 0 1 3.104-.868c1.482.12 2.73.631 3.74 1.531 1.011.901 1.834 2.027 2.471 3.379.637 1.352 1.115 2.871 1.438 4.559.32 1.688.53 3.391.633 5.108.102 1.718.123 3.381.064 4.99a92.753 92.753 0 0 1-.227 4.135 107.657 107.657 0 0 1-.592 5.514 46.812 46.812 0 0 1-.506-5.784c-.055-2.002-.123-3.983-.205-5.94s-.229-3.847-.443-5.67a24.348 24.348 0 0 0-1.139-5.113l.561-.677c-.389-1.139-.858-2.032-1.408-2.679-.55-.646-1.1-1.137-1.65-1.47s-1.064-.543-1.537-.63a12.323 12.323 0 0 0-.928-.147c-1.197-.097-2.295.248-3.299 1.033-1.002.786-1.91 1.88-2.722 3.283-.813 1.403-1.56 3.041-2.24 4.911a69.52 69.52 0 0 0-1.853 5.918 140.987 140.987 0 0 0-1.52 6.27 191.315 191.315 0 0 0-1.203 5.934l.646.053c.37-1.607.767-3.38 1.189-5.321.422-1.94.87-3.914 1.347-5.923a86.913 86.913 0 0 1 1.593-5.83c.586-1.878 1.238-3.559 1.961-5.042.723-1.482 1.528-2.668 2.42-3.56.838-.847 1.814-1.298 2.928-1.352-1.073.154-2.012.752-2.818 1.794-.859 1.086-1.644 2.444-2.354 4.071a54.808 54.808 0 0 0-1.988 5.365 338.805 338.805 0 0 0-1.718 5.604l-2.284 10.361a18.96 18.96 0 0 0-.576 1.759l-.41 1.484c-.135.471-.271.978-.412 1.52a79.337 79.337 0 0 1-.513 1.873l-.285.844-.431-.035-7.05-3.028c-.236-.066-.41-.153-.521-.259a8.54 8.54 0 0 1-.36-.395zm15.472-35.803c-1.023.736-1.848 1.548-2.473 2.436a45.935 45.935 0 0 0-1.773 2.71l-.006.072c.782-1.333 1.83-2.669 3.143-4.007 1.257-1.246 2.869-2.126 4.838-2.642a79.41 79.41 0 0 0-1.842.429 4.815 4.815 0 0 0-1.887 1.002zm10.078 6.668a4.679 4.679 0 0 0-1.272-.79 34.066 34.066 0 0 1-1.774-.83l-.061-.149c.809.114 1.512.352 2.109.713.596.362 1.151.949 1.663 1.76l-.665-.704zm-1.274-8.338a5.56 5.56 0 0 0-.999-.153c1.5.508 2.9 1.042 4.204 1.605 1.302.564 2.497 1.563 3.585 3-.725-1.166-1.719-2.113-2.983-2.842-1.267-.729-2.535-1.266-3.807-1.61zm6.923 4.606c.604.868 1.15 1.852 1.639 2.95.488 1.099.916 2.073 1.279 2.921a102.938 102.938 0 0 0-1.119-3.125c-.357-.943-.957-1.858-1.799-2.746zM469.323 230.563a38.557 38.557 0 0 1-6.789.657 32.257 32.257 0 0 1-6.809-.671 26.612 26.612 0 0 1-5.919-1.957 18.253 18.253 0 0 1-4.963-3.378c-1.434-1.373-2.6-3.023-3.5-4.95-.901-1.925-1.438-4.131-1.611-6.619-.285 2.099-.088 3.989.594 5.673s1.653 3.208 2.916 4.572a21.08 21.08 0 0 0 4.369 3.585 54.475 54.475 0 0 0 4.813 2.685c.225.096.549.187.973.274 2.773.572 5.336.857 7.689.853a594.12 594.12 0 0 0 7.217-.054c-.879.456-1.893.798-3.043 1.026a23.235 23.235 0 0 1-3.688.415 33.794 33.794 0 0 1-4.059-.103 34.906 34.906 0 0 1-4.141-.598l-.776-.16a3.778 3.778 0 0 1-.69-.216l-.305-1.019c-1.653-.537-3.328-1.324-5.025-2.361a18.26 18.26 0 0 1-4.467-3.826 15.62 15.62 0 0 1-2.898-5.193c-.652-1.947-.739-4.073-.264-6.377.398-1.927 1.045-3.754 1.94-5.481s1.946-3.372 3.151-4.937c-.057.038-.133.046-.227.027-.141-.029-.191-.137-.152-.326a38.8 38.8 0 0 0-3.236 4.809c-.961 1.688-1.66 3.59-2.097 5.706-.466 2.256-.362 4.362.313 6.314.675 1.953 1.605 3.677 2.793 5.171 1.186 1.495 2.453 2.774 3.803 3.836 1.227.94 2.258 1.643 3.093 2.109-1.37-.724-2.725-1.64-4.063-2.75a18.382 18.382 0 0 1-3.674-4.104 17.217 17.217 0 0 1-2.277-5.175c-.491-1.89-.523-3.869-.097-5.938.611-2.961 1.724-5.623 3.34-7.986 1.614-2.361 3.512-4.311 5.692-5.846a20.808 20.808 0 0 1 7.102-3.239c2.555-.624 5.076-.679 7.568-.165.443-.006.984.044 1.623.151.641.108 1.172.205 1.594.292a58.05 58.05 0 0 1 4.301 2.138 23.73 23.73 0 0 1 4.141 2.913.798.798 0 0 0-.468.308c-.104.15-.202.326-.292.527-.092.202-.211.361-.357.478s-.36.146-.643.088c-.235-.049-.574-.192-1.014-.43a73.369 73.369 0 0 1-1.844-1.042c-.17.112-.284.309-.342.591 1.012.797 1.653 1.604 1.926 2.419.273.817.342 1.554.205 2.211-.068.329-.479.539-1.232.627-.611-.126-1.539-.439-2.783-.942-1.244-.502-2.666-.918-4.264-1.248a28.472 28.472 0 0 0-2.348-.375 16.244 16.244 0 0 0-2.627-.101c-.889.037-1.752.178-2.586.422a5.33 5.33 0 0 0-2.161 1.208 16.821 16.821 0 0 0-2.075 2.218 34.696 34.696 0 0 0-1.859 2.593 21.21 21.21 0 0 0-1.456 2.604c-.396.85-.667 1.627-.813 2.332-.136.659.017 1.462.458 2.41.44.949 1.068 1.887 1.882 2.815.813.928 1.788 1.779 2.929 2.553a9.972 9.972 0 0 0 3.611 1.555c.611.126 1.371.185 2.279.176a45.402 45.402 0 0 0 2.818-.116c.97-.069 1.92-.105 2.854-.109.931-.003 1.703.058 2.314.184.564.117.915.251 1.057.402.14.152.176.393.107.721-1.159.153-2.365.296-3.617.429-.801.081-1.578.165-2.331.254l2.302-.113a93.692 93.692 0 0 0 3.604-.359c-.049.236-.082.45-.096.642-.016.193.069.432.257.715l.763-.136a8.944 8.944 0 0 0 1.315-.317c.94.194 1.567.422 1.881.683.313.261.433.58.354.955a1.563 1.563 0 0 1-.229.578 2.692 2.692 0 0 1-.384.436 14.49 14.49 0 0 1-.582.504c-.237.199-.493.488-.768.873zm-23.848-13.747c.201.923.598 1.851 1.189 2.782.592.931 1.309 1.79 2.152 2.577a16.2 16.2 0 0 0 2.769 2.079c.956.59 1.946 1.016 2.972 1.275-.922-.288-1.86-.727-2.816-1.317a16.148 16.148 0 0 1-2.769-2.079 15.093 15.093 0 0 1-2.194-2.548c-.621-.912-1.055-1.836-1.303-2.769zm3.122 13.363a.634.634 0 0 1 0 0zm11.872-4.091a1.39 1.39 0 0 1 0 0zM498.397 245.497c-1.929-.002-3.358-.125-4.288-.368-.933-.244-1.746-.46-2.443-.648-2.543-.873-4.671-2.136-6.387-3.791-1.716-1.654-3.02-3.548-3.912-5.681-.893-2.133-1.357-4.437-1.396-6.912-.039-2.474.371-4.96 1.228-7.458a27.974 27.974 0 0 1 1.963-4.388 29.5 29.5 0 0 1 2.815-4.21 21.259 21.259 0 0 1 3.571-3.532 17.884 17.884 0 0 1 4.144-2.537 14.237 14.237 0 0 0-4.165 2.377 24.08 24.08 0 0 0-3.64 3.508 25.328 25.328 0 0 0-2.906 4.255 29.57 29.57 0 0 0-2.01 4.524c-.654 1.907-1.045 4.044-1.172 6.411-.128 2.367.174 4.704.905 7.01s1.964 4.442 3.7 6.408c1.735 1.966 4.146 3.479 7.234 4.538 1.453.499 3.044.816 4.773.953-2.115.542-4.239.448-6.373-.284-1.726-.592-3.258-1.411-4.6-2.454a17.121 17.121 0 0 1-3.475-3.628 19.544 19.544 0 0 1-2.374-4.507 22.967 22.967 0 0 1-1.254-4.998l.8-.334c-.242-1.808-.269-3.542-.079-5.203.188-1.66.556-3.285 1.102-4.875a23.821 23.821 0 0 1 3.278-6.335 31.642 31.642 0 0 1 4.701-5.161l2.406-1.687c.443-.406 1.012-.769 1.705-1.089.693-.32 1.439-.61 2.24-.868.799-.259 1.615-.46 2.453-.604a62.049 62.049 0 0 1 2.371-.366 70.82 70.82 0 0 1 5.662-.531c1.86-.097 3.935.069 6.223.499l-.201-.298c-4.318-1.025-8.207-1.229-11.664-.615-3.459.615-6.494 1.768-9.104 3.46-2.61 1.692-4.796 3.771-6.556 6.238-1.76 2.467-3.092 5.017-3.995 7.649a26.124 26.124 0 0 0-1.086 4.385 27.515 27.515 0 0 0-.337 4.642c-.201-3.114.221-6.191 1.266-9.233 1.027-2.997 2.547-5.798 4.56-8.407 2.011-2.608 4.512-4.794 7.503-6.56 3.581-1.562 7.213-2.46 10.896-2.693 3.683-.233 7.023.164 10.02 1.192.953.327 1.874.822 2.765 1.482a8.852 8.852 0 0 1 2.222 2.399c.591.939.969 2.02 1.133 3.243.162 1.224-.012 2.584-.525 4.083-.422 1.226-1.231 2.623-2.428 4.191-1.199 1.568-2.66 2.982-4.387 4.242a17.218 17.218 0 0 1-5.773 2.738c-2.123.565-4.319.459-6.59-.32l-2.246-.771a42.317 42.317 0 0 1-4.165-2.837 38.515 38.515 0 0 0-3.53-2.468 10.574 10.574 0 0 0-1.02 1.972c-.249.65-.482 1.294-.699 1.929a17.551 17.551 0 0 0-.879 4 12.405 12.405 0 0 0 .217 3.918 9.356 9.356 0 0 0 1.518 3.451c.734 1.04 1.773 1.891 3.119 2.555.8.478 1.514.837 2.143 1.078.627.241 1.152.447 1.577.617.423.171.718.349.884.532.164.184.193.435.084.752a7.615 7.615 0 0 1-1.49-.207 15.946 15.946 0 0 1-1.486-.435c-1.59-.545-2.932-1.297-4.022-2.255-1.093-.958-1.976-1.934-2.649-2.927a9.204 9.204 0 0 0 2.986 3.499c1.304.93 2.66 1.636 4.068 2.119.771.265 1.59.469 2.453.614-.185.241-.284.385-.299.43-.094.272-.044.493.152.662.197.018.559.001 1.082-.047a97.527 97.527 0 0 1 1.607-.134 22.951 22.951 0 0 1 1.582-.065c.508-.003.854.026 1.035.089.227.078.42.182.578.313.158.13.16.423.004.876-.156.455-.502.944-1.037 1.471-.538.528-1.232.999-2.086 1.417zm-12.217-11.424c-.193-.472-.387-.944-.579-1.417a6.535 6.535 0 0 1-.354-1.187c.144.913.454 1.781.933 2.604zm7.213-14.805c.121-.06.225-.176.311-.35a3.9 3.9 0 0 0 .174-.397l-2.804-2.256-.668.836 2.987 2.167zm4.861-3.965 1.404.787c.469.263.907.463 1.316.604.453.155 1.037.192 1.752.106.714-.084 1.471-.294 2.271-.629.799-.334 1.578-.829 2.335-1.482.757-.653 1.427-1.463 2.014-2.43l.276-.362c-.637-.219-1.645-.386-3.023-.505a36.52 36.52 0 0 0-4.383-.096 26.073 26.073 0 0 0-4.444.53c-1.423.299-2.501.779-3.235 1.44.635.37 1.262.725 1.881 1.064.619.341 1.23.665 1.836.973z"/></g></svg>