<svg xmlns="http://www.w3.org/2000/svg" width="800" height="800" xml:space="preserve"><path opacity=".5" fill="#F8F9F6" d="M718.92 301.671c-4.476-6.049-12.526-12.313-28.571-24.791L424.633 70.211c-9.453-7.352-16.916-13.158-19.957-13.98a15.642 15.642 0 0 0-8.189-.001c-3.046.824-10.51 6.629-19.96 13.981l-265.718 206.67c-16.046 12.481-24.096 18.741-28.573 24.794a54.677 54.677 0 0 0-8.722 17.833c-2.03 7.253-2.03 17.456-2.03 37.778v283.45c0 38.806 0 60.183 5.977 71.916 5.294 10.388 13.582 18.676 23.968 23.966 11.735 5.979 33.112 5.979 71.917 5.979H627.81c38.808 0 60.184 0 71.914-5.978 10.392-5.294 18.677-13.58 23.969-23.966 5.98-11.735 5.98-33.112 5.98-71.918v-283.45c0-20.325 0-30.527-2.03-37.78a54.721 54.721 0 0 0-8.723-17.834z"/><path fill="#103653" d="M627.811 789.605H173.346c-47.584 0-71.468 0-93.258-11.103-19.289-9.826-34.683-25.218-44.515-44.514-11.102-21.791-11.102-45.676-11.102-93.26V357.281c0-23.846 0-36.981 3.77-50.451a101.5 101.5 0 0 1 16.197-33.116c8.315-11.243 18.682-19.306 37.5-33.942L347.663 33.095c15.2-11.823 24.374-18.959 36.539-22.25a62.96 62.96 0 0 1 32.761.001c12.157 3.29 21.332 10.426 36.532 22.25l265.718 206.669c18.823 14.639 29.192 22.703 37.51 33.95a101.583 101.583 0 0 1 16.195 33.112c3.77 13.473 3.77 26.608 3.77 50.453v283.449c0 47.585 0 71.47-11.103 93.26-9.829 19.292-25.223 34.686-44.518 44.515-21.786 11.101-45.671 11.101-93.256 11.101zM400.579 55.68c-1.383 0-2.759.183-4.092.544-3.046.824-10.51 6.63-19.96 13.981l-265.718 206.67c-16.046 12.481-24.096 18.741-28.573 24.795a54.652 54.652 0 0 0-8.722 17.832c-2.03 7.254-2.03 17.455-2.03 37.779V640.73c0 38.808 0 60.184 5.977 71.916 5.294 10.389 13.582 18.676 23.968 23.966 11.735 5.98 33.112 5.98 71.917 5.98H627.81c38.808 0 60.184 0 71.914-5.978 10.392-5.294 18.677-13.58 23.969-23.968 5.98-11.734 5.98-33.11 5.98-71.917V357.281c0-20.325 0-30.527-2.03-37.78a54.714 54.714 0 0 0-8.724-17.834c-4.476-6.051-12.526-12.313-28.571-24.791L424.633 70.206c-9.453-7.351-16.916-13.158-19.957-13.98a15.643 15.643 0 0 0-4.097-.546z"/><path fill="#F8DCB8" d="M449.355 222.552c-140.357 0-254.167 113.786-254.167 254.155s113.798 254.156 254.167 254.156c140.379 0 254.168-113.787 254.168-254.156S589.734 222.552 449.355 222.552zm0 75.996c46.444 0 84.078 37.645 84.078 84.068 0 46.432-37.634 84.065-84.078 84.065-46.422 0-84.056-37.634-84.056-84.065 0-46.423 37.635-84.068 84.056-84.068zm-.055 365.867c-46.321 0-88.746-16.87-121.468-44.791a35.832 35.832 0 0 1-12.572-27.231c0-47.079 38.104-84.76 85.195-84.76h97.822c47.103 0 85.061 37.681 85.061 84.76a35.737 35.737 0 0 1-12.56 27.22c-32.711 27.932-75.147 44.802-121.478 44.802z"/><path fill="#103653" d="M400.579 193.169c-140.357 0-254.167 113.787-254.167 254.155 0 140.369 113.798 254.156 254.167 254.156 140.38 0 254.167-113.787 254.167-254.156S540.959 193.169 400.579 193.169zm0 75.995c46.443 0 84.078 37.645 84.078 84.068 0 46.432-37.635 84.066-84.078 84.066-46.421 0-84.056-37.635-84.056-84.066 0-46.423 37.635-84.068 84.056-84.068zm-.057 365.866c-46.319 0-88.745-16.87-121.467-44.791a35.823 35.823 0 0 1-12.572-27.229c0-47.08 38.105-84.761 85.195-84.761H449.5c47.103 0 85.061 37.681 85.061 84.761a35.733 35.733 0 0 1-12.56 27.218c-32.711 27.932-75.147 44.802-121.479 44.802z"/></svg>