<svg xmlns="http://www.w3.org/2000/svg" width="600" height="600" viewBox="100 100 600 600" xml:space="preserve"><path fill="none" d="M799.999 0v800H0V0h799.999zM419.782 775.261l-.385.056-2.369 1.185-.633.123-.506-.123-2.368-1.185c-.328-.104-.62-.017-.784.18l-.137.364-.569 14.243.165.68.367.406 3.452 2.467.495.13.393-.13 3.452-2.467.421-.534.111-.552-.569-14.243c-.066-.338-.285-.551-.536-.6zm8.83-3.751-.461.067-6.157 3.078-.332.342-.09.374.597 14.317.162.426.281.236 6.698 3.091c.403.122.764-.008.95-.267l.133-.469-1.138-20.488c-.079-.397-.342-.65-.643-.707zm-23.844.067a.762.762 0 0 0-.913.177l-.191.464-1.138 20.488a.763.763 0 0 0 .563.78l.521-.045 6.698-3.091.314-.269.129-.394.597-14.317-.105-.42-.316-.296-6.159-3.077z"/><path fill="#103653" d="M600 100c55.229 0 100 44.771 100 100v400c0 55.23-44.771 100-100 100H200c-55.228 0-100-44.77-100-100V200c0-55.229 44.772-100 100-100h400zM266.666 333.334c-18.409 0-33.333 14.923-33.333 33.333v166.667c0 18.41 14.924 33.333 33.333 33.333 18.41 0 33.334-14.923 33.334-33.333V366.667c0-18.41-14.924-33.333-33.334-33.333zm100-33.334c-18.41 0-33.333 14.924-33.333 33.334v200c0 18.41 14.923 33.333 33.333 33.333S400 551.744 400 533.334V411.327c10.163-11.477 27.356-24.924 46.443-33.087 11.093-4.747 27.783-6.644 39.393-2.993 5.077 1.597 7.974 3.84 9.764 6.257 1.736 2.353 4.4 7.52 4.4 18.496v133.334c0 18.406 14.923 33.333 33.333 33.333s33.333-14.927 33.333-33.333V400c0-22.359-5.673-42.193-17.474-58.146-11.753-15.885-27.606-25.25-43.363-30.204-30.057-9.451-63.366-4.218-85.606 5.297-7.057 3.018-14.013 6.532-20.753 10.43C396.659 311.809 383.043 300 366.666 300zm-100-66.666c-18.409 0-33.333 14.924-33.333 33.333S248.257 300 266.666 300c18.41 0 33.334-14.924 33.334-33.333s-14.924-33.333-33.334-33.333z"/></svg>