<svg xmlns="http://www.w3.org/2000/svg" width="557.85" height="233.802" xml:space="preserve"><path fill="#FFF" d="M246.311 46.827c-20.656-9.729-49.543-22.594-75.56-17.908-25.48 4.589-29.463 25.801-30.55 47.486-21.694 1.283-56.189-21.441-75.438-4.629-13.271 11.591-23.237 48.406-23.395 65.436-11.333-1.07-23.042-4.17-31.728 4.531-8.92 8.937-12.271 36.721-7.405 47.965 6.279 14.512 36.497 21.367 49.72 23.933 17.17 3.331 41.438 5.168 58.077-1.602 10.895-4.433 8.453-17.683 18.397-17.974 7.049-.206 24.744 14.544 31.194 17.345 24.092 10.461 55.294 17.413 81.552 19.793 28.237 2.56 81.494 9.855 96.556-21.314 6.602-13.661 3.078-26.721-.821-40.258 6.334.399 11.265 4.656 16.825 8.12 10.373 6.462 20.571 9.773 32.423 13.157 27.213 7.768 56.604 16.358 83.898 3.267 21.992-10.548 51.479-46.603 23.072-67.432 14.962 9.868 43.222 17.407 57.423 3.417 17.075-16.821-.318-44.403-6.649-63.065-11.806-34.799-25.384-62.371-66.8-65.584-14.89-1.155-25.503 4.848-39.123 9.922-8.355 3.113-19.749 3.326-26.146 9.414-14.261-9.88-37.199-13.824-54.164-17.173-17.42-3.439-38.413-6.774-54.536 1.487-10.699 5.483-18.952 13.301-29.707 18.724-7.596 3.83-21.868 9.926-24.735 18.184l-2.38 4.758z"/></svg>