<svg xmlns="http://www.w3.org/2000/svg" width="780" height="48.186" xml:space="preserve"><path fill="#F8F9F6" stroke="#000" stroke-miterlimit="10" d="M-2.057-6.407H786.5v58.595H-2.057z"/><path fill="#96D2CA" d="M5.498 33.126c-2.821-.008-5.533 1.145-7.555 3.213v15.849h800.503V17.846a28.89 28.89 0 0 0-7.396-.975c-13.138 0-24.286 8.75-28.271 20.895a10.415 10.415 0 0 0-4.867-1.209c-2.356-.002-4.653.812-6.537 2.309-1.729-9.93-10.138-17.468-20.265-17.468-9.018 0-16.661 5.975-19.454 14.282a7.116 7.116 0 0 0-2.755-.557c-2.355-.004-4.572 1.178-5.952 3.186-4.747-3.274-10.46-5.193-16.607-5.193a28.962 28.962 0 0 0-13.555 3.354c-.594-11.176-9.554-20.059-20.55-20.059-10.134 0-18.537 7.537-20.268 17.463-1.881-1.499-4.178-2.313-6.537-2.305a10.35 10.35 0 0 0-4.855 1.21c-3.987-12.146-15.132-20.896-28.271-20.896-15.645 0-28.456 12.387-29.73 28.158a29.036 29.036 0 0 0-11.589-2.402c-7.941 0-15.154 3.205-20.503 8.42-5.411-7.832-14.284-12.939-24.328-12.939-7.526 0-14.4 2.877-19.648 7.607-1.41-4.42-5.435-7.607-10.199-7.607-3.178-.016-6.203 1.453-8.261 4.005a7.146 7.146 0 0 0-2.469-.45 7.16 7.16 0 0 0-2.756.56c-4.735-10.524-15.08-17.839-27.086-17.839-13.985 0-25.721 9.912-28.953 23.288a11.479 11.479 0 0 0-.893-.046c-1.965 0-3.892.56-5.575 1.622-4.477-11.167-15.141-19.028-27.595-19.028-10.046 0-18.921 5.115-24.328 12.947-5.349-5.215-12.561-8.42-20.506-8.42a28.898 28.898 0 0 0-11.585 2.401C315.03 16.391 302.208 4 286.573 4c-13.138 0-24.284 8.75-28.267 20.896a10.407 10.407 0 0 0-4.864-1.21c-2.36-.003-4.657.812-6.539 2.31-1.727-9.933-10.133-17.47-20.263-17.47-10.999 0-19.958 8.886-20.55 20.063a29.05 29.05 0 0 0-13.556-3.357c-6.15 0-11.861 1.916-16.61 5.199-1.38-2.009-3.596-3.199-5.952-3.188-.978 0-1.9.201-2.749.56-2.799-8.304-10.443-14.283-19.459-14.283-10.133 0-18.536 7.537-20.264 17.463-1.812-1.438-4.074-2.303-6.538-2.303a10.407 10.407 0 0 0-4.865 1.209c-3.983-12.146-15.133-20.896-28.268-20.896-11.821 0-22.027 7.07-26.861 17.34-1.964-2.594-5.02-4.271-8.458-4.271-5.842 0-10.583 4.816-10.721 10.795a10.49 10.49 0 0 0-5.001-1.271 10.461 10.461 0 0 0-6.212 2.052c-2.013-3.111-5.366-4.967-8.945-4.953-4.379 0-8.139 2.706-9.807 6.581-1.776-1.34-3.958-2.14-6.326-2.14z"/></svg>