<svg xmlns="http://www.w3.org/2000/svg" width="780" height="106.594" xml:space="preserve"><path fill="#F8F9F6" d="M-28.5-19.203h825v142h-825z"/><path fill="#96D2CA" d="M5.952 70.982c-6.157-.018-12.075 2.498-16.488 7.011v34.588h1746.982V37.635c-5.16-1.364-10.563-2.128-16.139-2.128-28.671 0-53 19.096-61.694 45.6-3.192-1.675-6.785-2.638-10.622-2.638-5.145-.006-10.155 1.769-14.268 5.037-3.773-21.67-22.124-38.12-44.225-38.12-19.678 0-36.359 13.036-42.456 31.169a15.503 15.503 0 0 0-6.012-1.216c-5.141-.008-9.978 2.57-12.99 6.952-10.358-7.147-22.827-11.333-36.243-11.333-10.271-.021-20.399 2.487-29.581 7.318-1.296-24.39-20.85-43.775-44.848-43.775-22.113 0-40.454 16.45-44.229 38.11-4.104-3.271-9.116-5.045-14.266-5.028a22.62 22.62 0 0 0-10.6 2.642c-8.701-26.509-33.022-45.604-61.695-45.604-34.143 0-62.101 27.032-64.886 61.451a63.365 63.365 0 0 0-25.289-5.243c-17.332 0-33.073 6.995-44.746 18.375-11.809-17.092-31.173-28.24-53.094-28.24-16.425 0-31.424 6.278-42.878 16.604-3.077-9.646-11.859-16.604-22.26-16.604-6.936-.031-13.536 3.175-18.026 8.74a15.595 15.595 0 0 0-5.388-.981c-2.131 0-4.156.449-6.016 1.221-10.334-22.97-32.91-38.931-59.111-38.931-30.521 0-56.13 21.631-63.186 50.822-.646-.054-1.293-.1-1.945-.1a22.782 22.782 0 0 0-12.169 3.539c-9.769-24.371-33.041-41.526-60.221-41.526-21.924 0-41.292 11.163-53.093 28.255-11.673-11.38-27.411-18.375-44.75-18.375a63.04 63.04 0 0 0-25.283 5.241c-2.78-34.411-30.764-61.452-64.884-61.452-28.673 0-52.997 19.096-61.689 45.603-3.191-1.678-6.79-2.642-10.615-2.642-5.15-.006-10.161 1.77-14.271 5.038-3.771-21.674-22.113-38.123-44.221-38.123-24.003 0-43.557 19.39-44.849 43.785-8.882-4.665-18.928-7.327-29.583-7.327-13.423 0-25.887 4.183-36.25 11.348-3.012-4.385-7.848-6.982-12.988-6.956-2.135 0-4.147.44-5.999 1.221-6.108-18.122-22.791-31.171-42.468-31.171-22.114 0-40.452 16.449-44.223 38.11-3.955-3.143-8.892-5.025-14.269-5.025a22.704 22.704 0 0 0-10.617 2.639c-8.693-26.508-33.026-45.602-61.69-45.602-25.799 0-48.071 15.432-58.621 37.842-4.286-5.659-10.954-9.322-18.459-9.322-12.748 0-23.095 10.512-23.396 23.559a22.894 22.894 0 0 0-10.914-2.775c-4.85-.006-9.581 1.558-13.557 4.479-4.386-6.791-11.704-10.84-19.514-10.81-9.557 0-17.761 5.905-21.401 14.361-3.878-2.921-8.639-4.667-13.807-4.667z"/></svg>