<svg xmlns="http://www.w3.org/2000/svg" width="780" height="125.68" xml:space="preserve"><path fill="#F8F9F6" d="M-5-16.66h797.5V140.5H-5z"/><path fill="#103653" d="M36.915 46.099C41.951 57.798 53.304 65.97 66.526 65.97c10.806.041 20.932-5.562 27.01-14.955 5.501 4.039 12.047 6.203 18.756 6.192 5.462 0 10.592-1.403 15.101-3.838.416 18.051 14.732 32.596 32.371 32.596 10.382 0 19.609-5.069 25.539-12.897 14.596 31.006 45.413 52.356 81.107 52.356 39.66 0 73.327-26.418 85.354-63.094 4.563 2.402 9.586 3.654 14.689 3.65 7.439 0 14.27-2.605 19.742-6.953 5.219 29.971 30.589 52.729 61.186 52.729 27.224 0 50.305-18.057 58.756-43.129a21.324 21.324 0 0 0 8.306 1.689c7.11.035 13.802-3.562 17.969-9.625 14.34 9.914 31.584 15.699 50.154 15.699 14.743 0 28.642-3.685 40.932-10.14 1.786 33.757 28.838 60.582 62.054 60.582 30.583 0 55.967-22.758 61.179-52.746 5.686 4.523 12.621 6.98 19.745 6.972 5.296 0 10.273-1.334 14.69-3.654 12.023 36.674 45.683 63.094 85.35 63.094 47.209 0 85.927-37.412 89.775-85.022a87.26 87.26 0 0 0 34.979 7.252c23.99 0 45.768-9.678 61.918-25.424 16.326 23.647 43.125 39.094 73.459 39.094 37.604 0 69.805-23.736 83.317-57.456 5.088 3.208 10.905 4.896 16.838 4.896.906 0 1.798-.063 2.691-.139 9.764 40.391 45.196 70.318 87.425 70.318 36.25 0 67.486-22.082 81.785-53.863 2.571 1.066 5.375 1.688 8.32 1.688 2.6 0 5.099-.494 7.456-1.357 6.212 7.701 15.347 12.137 24.941 12.092 14.386 0 26.538-9.627 30.796-22.973 15.847 14.285 36.603 22.973 59.329 22.973 30.326 0 57.119-15.424 73.458-39.073 16.148 15.745 37.93 25.425 61.908 25.425a87.657 87.657 0 0 0 34.992-7.257c3.85 47.623 42.534 85.023 89.772 85.023 39.673 0 73.323-26.418 85.362-63.096 4.411 2.326 9.385 3.653 14.664 3.653 7.124.023 14.059-2.432 19.738-6.957 5.223 29.97 30.6 52.729 61.193 52.729 33.202 0 60.26-26.82 62.051-60.566 12.703 6.687 26.72 10.156 40.929 10.127 18.563 0 35.813-5.791 50.147-15.682 4.165 6.063 10.858 9.631 17.969 9.619a21.46 21.46 0 0 0 8.32-1.682c8.435 25.088 31.517 43.125 58.74 43.125 30.58 0 55.968-22.761 61.189-52.744 5.688 4.522 12.623 6.979 19.737 6.971 5.313 0 10.279-1.332 14.696-3.65 12.032 36.672 45.695 63.093 85.362 63.093 7.714 0 15.188-1.058 22.329-2.943V-4.999H-5v47.854c6.105 6.246 14.294 9.725 22.813 9.703 7.151 0 13.739-2.418 19.102-6.459z"/></svg>