<svg xmlns="http://www.w3.org/2000/svg" width="780" height="48.186" xml:space="preserve"><path fill="#F8F9F6" d="M-5.5-6.407h804.946v60H-5.5z"/><path fill="#103653" d="M12.824 15.923c1.668 3.875 5.428 6.581 9.807 6.581 3.579.014 6.932-1.842 8.945-4.953a10.461 10.461 0 0 0 6.212 2.052c1.809 0 3.508-.466 5.001-1.271.138 5.979 4.879 10.795 10.721 10.795 3.438 0 6.494-1.679 8.458-4.271 4.834 10.269 15.04 17.34 26.861 17.34 13.135 0 24.285-8.749 28.268-20.896 1.51.796 3.175 1.21 4.865 1.209 2.464 0 4.726-.863 6.538-2.303 1.728 9.926 10.131 17.463 20.264 17.463 9.016 0 16.66-5.979 19.459-14.283.849.357 1.771.56 2.749.56 2.356.012 4.572-1.179 5.952-3.188 4.749 3.283 10.46 5.199 16.61 5.199 4.883 0 9.486-1.22 13.556-3.357.592 11.179 9.551 20.063 20.55 20.063 10.13 0 18.536-7.537 20.263-17.469 1.882 1.498 4.179 2.312 6.539 2.309 1.753 0 3.402-.441 4.864-1.21 3.983 12.146 15.129 20.896 28.267 20.896 15.635 0 28.457-12.391 29.731-28.158a28.88 28.88 0 0 0 11.585 2.401c7.945 0 15.157-3.205 20.506-8.42 5.407 7.832 14.282 12.947 24.328 12.947 12.454 0 23.118-7.861 27.594-19.028a10.435 10.435 0 0 0 5.576 1.622c.3 0 .596-.021.892-.046 3.233 13.376 14.968 23.288 28.953 23.288 12.006 0 22.351-7.313 27.086-17.839.852.354 1.78.56 2.756.56a7.16 7.16 0 0 0 2.469-.45c2.058 2.551 5.083 4.02 8.261 4.005 4.765 0 8.789-3.188 10.199-7.608 5.248 4.731 12.122 7.608 19.648 7.608 10.044 0 18.917-5.108 24.328-12.94 5.349 5.215 12.562 8.42 20.503 8.42 4.106 0 8.023-.855 11.589-2.402 1.275 15.771 14.087 28.158 29.731 28.158 13.139 0 24.283-8.75 28.271-20.896a10.36 10.36 0 0 0 4.856 1.21c2.359.008 4.656-.805 6.537-2.304 1.729 9.925 10.134 17.463 20.267 17.463 10.996 0 19.956-8.883 20.55-20.059a28.962 28.962 0 0 0 13.555 3.354c6.147 0 11.86-1.918 16.607-5.193 1.38 2.008 3.597 3.189 5.952 3.186.974 0 1.902-.199 2.755-.557 2.793 8.309 10.438 14.282 19.454 14.282 10.127 0 18.535-7.538 20.265-17.468 1.884 1.498 4.181 2.311 6.537 2.309 1.759 0 3.404-.441 4.867-1.209 3.984 12.145 15.133 20.895 28.271 20.895 2.555 0 5.03-.35 7.395-.975V-1H-1.057v15.849c2.022 2.068 4.734 3.221 7.555 3.213 2.368 0 4.55-.8 6.326-2.139z"/></svg>