<svg xmlns="http://www.w3.org/2000/svg" width="800" height="800" xml:space="preserve"><path fill="#103653" d="M400.082 32.672c-202.804 0-367.245 164.441-367.245 367.246 0 150.342 90.5 279.532 219.855 336.424-.984-25.576-.164-56.398 6.394-84.27 7.05-29.839 47.217-200.182 47.217-200.182s-11.805-23.444-11.805-58.039c0-54.431 31.479-95.09 70.826-95.09 33.445 0 49.513 25.084 49.513 55.087 0 33.609-21.478 83.779-32.462 130.34-9.181 39.02 19.51 70.662 58.038 70.662 69.514 0 116.403-89.353 116.403-195.264 0-80.499-54.267-140.668-152.801-140.668-111.321 0-180.835 83.122-180.835 175.917 0 31.971 9.509 54.596 24.264 71.974 6.722 8.034 7.706 11.313 5.247 20.494-1.804 6.722-5.738 22.953-7.542 29.511-2.459 9.345-10.001 12.624-18.362 9.181-51.316-20.985-75.253-77.056-75.253-140.341 0-104.271 88.041-229.364 262.482-229.364 140.177 0 232.479 101.484 232.479 210.346 0 144.112-80.171 251.663-198.214 251.663-39.676 0-76.892-21.478-89.68-45.742 0 0-21.313 84.598-25.904 100.993-7.706 28.362-22.953 56.562-36.888 78.695a369.13 369.13 0 0 0 104.107 15.083c202.805 0 367.246-164.44 367.246-367.247.002-202.804-164.275-367.409-367.08-367.409z"/></svg>