<svg xmlns="http://www.w3.org/2000/svg" width="653.067" height="678.52" xml:space="preserve"><path fill="#103653" d="M651.061 381.814c-1.998-69.498-5.244-138.995-10.07-208.574C620.6 12.525 507.657-3.206 369.829 10.195c-50.188 2.413-101.039-2.83-151.644 1.748-44.028 2.247-90.886 4.327-129.587 28.048-41.947 24.553-63.837 69.746-72.327 116.104-7.657 38.868-14.149 77.653-14.565 117.437-3.329 51.853-1.498 103.789 2.996 155.64 3.662 45.193 7.991 90.72 24.802 133.25 17.894 43.279 53.433 69.996 94.632 86.31 34.374 13.647 72.659 19.975 108.115 22.639 9.238 3.662 6.327-8.074 7.075-13.565 3.495-58.429 6.491-116.771 8.572-175.281h-1.166c-2.163-13.066 5.161-58.262-4.993-63.338-19.226-.582-57.595 8.489-59.092-19.56 3.163-25.885-14.066-100.125 25.135-100.042 8.074-1.831 34.624 1.832 37.121-5.41 3.329-33.457 5.909-67.415 21.557-97.877 18.145-41.864 64.418-58.926 107.365-59.592 22.973 2.163 90.389-6.409 87.143 28.88-4.41 22.223 4.078 86.642-24.969 89.555-28.633 3.246-71.41 8.24-56.682 47.94 1.832 11.818 55.434 3.995 68.332 7.407 32.709 1.914 15.396 42.447 14.98 63.17-4.244 13.982-2.414 38.453-20.891 41.283-12.318 2.746-70.578-.666-72.742 8.572-2.248 81.563-3.912 163.129-5.66 244.692.584 7.74 15.73.832 21.309 1.914 7.74-.666 15.396.666 23.303-1.332 31.547-2.828 64.422-3.578 95.633-8.322 46.689-7.155 89.555-23.387 117.852-69.496 37.284-62.338 32.708-139.242 29.628-209.155z"/></svg>