<svg xmlns="http://www.w3.org/2000/svg" width="653.067" height="678.52" xml:space="preserve"><g fill="#103653"><path d="M426.534 659.26H226.533c-58.764 0-114.011-22.886-155.563-64.438C29.417 553.269 6.533 498.023 6.533 439.26V239.259c0-58.764 22.884-114.011 64.437-155.563 41.552-41.553 96.799-64.438 155.563-64.438h200.001c58.764 0 114.01 22.885 155.563 64.438s64.438 96.8 64.438 155.563V439.26c0 58.764-22.885 114.01-64.438 155.563s-96.8 64.437-155.563 64.437zM226.533 59.259c-99.252 0-180 80.748-180 180V439.26c0 99.252 80.748 180 180 180h200.001c99.252 0 180-80.748 180-180V239.259c0-99.252-80.748-180-180-180H226.533z"/><path d="M326.534 492.594c-84.548 0-153.334-68.785-153.334-153.335 0-84.548 68.786-153.333 153.334-153.333 84.547 0 153.332 68.785 153.332 153.333 0 84.55-68.785 153.335-153.332 153.335zm0-266.668c-62.493 0-113.334 50.842-113.334 113.333 0 62.493 50.841 113.335 113.334 113.335 62.492 0 113.332-50.843 113.332-113.335 0-62.492-50.842-113.333-113.332-113.333zM493.2 222.259c-29.408 0-53.334-23.925-53.334-53.333 0-29.407 23.926-53.333 53.334-53.333 29.406 0 53.334 23.926 53.334 53.333 0 29.408-23.926 53.333-53.334 53.333zm0-66.666c-7.354 0-13.334 5.981-13.334 13.333 0 7.353 5.98 13.333 13.334 13.333 7.352 0 13.334-5.98 13.334-13.333 0-7.352-5.983-13.333-13.334-13.333z"/></g></svg>