<?xml version="1.0" encoding="utf-8"?>
<!-- Generator: Adobe Illustrator 15.0.0, SVG Export Plug-In . SVG Version: 6.00 Build 0)  -->
<!DOCTYPE svg PUBLIC "-//W3C//DTD SVG 1.1//EN" "http://www.w3.org/Graphics/SVG/1.1/DTD/svg11.dtd">
<svg version="1.1" id="Calque_1" xmlns="http://www.w3.org/2000/svg" xmlns:xlink="http://www.w3.org/1999/xlink" x="0px" y="0px"
	 width="800px" height="800px" viewBox="0 0 800 800" enable-background="new 0 0 800 800" xml:space="preserve">
<path fill="#F79927" d="M159.943,63.673h32v96h-32V63.673z"/>
<path fill="#F8F9F6" d="M64,719.913c0,8.838,7.164,16,16,16h640c8.837,0,16-7.162,16-16v-432H64V719.913z"/>
<path fill="#50C2C8" d="M720,128.172h-48v32c0,17.673-14.327,32-32,32h-32c-17.673,0-32-14.327-32-32v-32H448v32
	c0,17.673-14.327,32-32,32h-32c-17.674,0-32-14.327-32-32v-32H224v32c0,17.673-14.327,32-32,32h-32c-17.673,0-32-14.327-32-32v-32
	H80c-8.836,0-16,7.164-16,16v112h672v-112C736,135.336,728.837,128.172,720,128.172z"/>
<path fill="#103653" d="M720,96h-48V64c0-17.673-14.327-32-32-32h-32c-17.673,0-32,14.327-32,32v32H448V64c0-17.673-14.327-32-32-32
	h-32c-17.673,0-32,14.327-32,32v32H224V64c0-17.673-14.327-32-32-32h-32c-17.673,0-32,14.327-32,32v32H80c-26.51,0-48,21.49-48,48
	v576c0,26.51,21.49,48,48,48h640c26.51,0,48-21.49,48-48V144C768,117.49,746.51,96,720,96z M608,64h32v96h-32V64z M384,64h32v46.08
	c0,0,0,0,0,1.92s0,0,0,2.24V160h-32V64z M160,64h32v96h-32V64z M80,128h48v32c0,17.673,14.327,32,32,32h32c17.673,0,32-14.327,32-32
	v-32h128v32c0,17.673,14.327,32,32,32h32c17.673,0,32-14.327,32-32v-32h128v32c0,17.673,14.327,32,32,32h32
	c17.673,0,32-14.327,32-32v-32h48c8.837,0,16,7.164,16,16v112H64V144C64,135.164,71.164,128,80,128z M720,736H80
	c-8.836,0-16-7.163-16-16V288h672v432C736,728.837,728.837,736,720,736z"/>
<path fill="#F79927" d="M416,113.913c0-2.24,0-0.32,0-2.24s0-1.92,0-1.92v-46.08h-32v96h32V113.913z"/>
<rect x="607.943" y="63.673" fill="#F79927" width="32" height="96"/>
<g>
	
		<path fill="#103653" stroke="#103653" stroke-width="12.3488" stroke-linecap="round" stroke-linejoin="round" stroke-miterlimit="10" d="
		M201.666,591.828c0,1.32-0.552,2.531-1.65,3.63c-1.104,1.099-2.367,2.089-3.795,2.97c-1.434,0.877-3.027,1.65-4.785,2.311
		l-3.96,1.65c-1.98-0.883-4.29-1.6-6.93-2.146c-2.64-0.552-5.445-0.938-8.415-1.155c-2.97-0.222-5.889-0.387-8.745-0.495
		c-2.862-0.113-5.394-0.165-7.59-0.165c-10.344,0-20.625,0.273-30.855,0.825c-10.23,0.547-20.517,1.042-30.855,1.485
		c2.418,0.217,4.728,0.33,6.93,0.33h7.26c6.378,0,12.756-0.113,19.14-0.33c6.378-0.223,12.756-0.33,19.14-0.33
		c5.718,0,11.385,0.217,16.995,0.66c5.61,0.438,11.271,1.206,16.995,2.31c-3.3,1.099-8.415,1.923-15.345,2.476
		c-6.93,0.546-14.19,0.989-21.78,1.319c-7.59,0.33-14.907,0.547-21.945,0.66c-7.043,0.108-12.54,0.165-16.5,0.165l-2.64-3.63
		c-0.443,0-0.825,0.052-1.155,0.165c-0.33,0.107-0.717,0.165-1.155,0.165c-0.882,0-1.764-0.058-2.64-0.165
		c-0.882-0.113-1.872-0.165-2.97-0.165h-2.31c-0.66,0-1.32,0.216-1.98,0.659c-1.98,0-3.909-0.113-5.775-0.329
		c-1.872-0.222-3.795-0.33-5.775-0.33l-6.6-32.67l7.59-3.96c8.58-5.719,16.995-11.602,25.245-17.655
		c8.25-6.048,15.949-12.648,23.1-19.8c7.146-7.146,13.638-14.85,19.47-23.1c5.827-8.25,10.611-17.434,14.355-27.556l-0.99-1.979
		c2.64-5.28,4.507-10.174,5.61-14.686c1.098-4.506,1.65-9.074,1.65-13.695c0-7.697-1.764-12.869-5.28-15.51
		c-3.521-2.64-8.033-3.96-13.53-3.96c-7.482,0-13.974,2.036-19.47,6.104c-5.501,4.074-10.122,8.859-13.86,14.355
		c-1.104-1.758-2.697-2.913-4.785-3.465c-2.093-0.547-3.135-1.701-3.135-3.465c0-2.418,1.263-4.837,3.795-7.26
		c2.527-2.418,4.563-4.291,6.105-5.61l-1.98-2.97c-0.882,0.66-2.64,1.814-5.28,3.465c-2.64,1.65-5.394,3.413-8.25,5.279
		c-2.862,1.872-5.559,3.522-8.085,4.951c-2.532,1.433-4.239,2.145-5.115,2.145c-2.64,0-3.96-1.428-3.96-4.29
		c0-5.94,2.088-11.716,6.27-17.325c4.177-5.609,9.292-10.561,15.345-14.85c6.048-4.291,12.591-7.755,19.635-10.396
		c7.038-2.64,13.53-3.96,19.47-3.96c8.796,0,16.995,0.99,24.585,2.97c7.59,1.98,14.241,5.172,19.965,9.57
		c5.718,4.403,10.23,10.065,13.53,16.995c3.3,6.93,4.95,15.236,4.95,24.915c0,12.102-2.367,24.204-7.095,36.3
		c-4.733,12.102-10.946,23.543-18.645,34.32c-7.703,10.781-16.448,20.738-26.235,29.865c-9.792,9.131-19.749,16.778-29.865,22.935
		c2.196-0.216,4.893-0.438,8.085-0.66c3.187-0.216,6.543-0.438,10.065-0.659c3.517-0.217,6.873-0.383,10.065-0.496
		c3.187-0.107,5.883-0.164,8.085-0.164c3.078,0,6.378,0.387,9.9,1.154c3.517,0.773,6.487,2.146,8.91,4.125l-0.66,1.98
		c-6.383-0.66-12.653-0.99-18.81-0.99c-2.861,0-6.218,0.057-10.065,0.165c-3.852,0.113-7.755,0.278-11.715,0.495
		c-3.96,0.222-7.869,0.443-11.715,0.66c-3.852,0.222-7.208,0.443-10.065,0.66v0.33c2.196,0,5.001-0.053,8.415-0.166
		c3.409-0.107,6.93-0.216,10.56-0.33c3.63-0.107,7.095-0.216,10.395-0.33c3.3-0.107,6.157-0.164,8.58-0.164
		c3.96,0,7.863,0.164,11.715,0.494c3.847,0.33,7.755,0.717,11.715,1.156c-0.66,1.103-0.99,1.979-0.99,2.639
		c0,1.764,1.155,2.862,3.465,3.301c2.31,0.443,4.836,0.938,7.59,1.484c2.748,0.553,5.28,1.27,7.59,2.146
		C200.51,588.09,201.666,589.631,201.666,591.828z M75.605,576.648l7.92-3.961l-0.33-0.989c-1.32,1.103-2.753,1.872-4.29,2.31
		c-1.542,0.443-2.97,0.99-4.29,1.65v0.99H75.605z M78.575,606.348c0.438,0,1.65,0.052,3.63,0.166c1.98,0.107,4.068,0.272,6.27,0.494
		c2.197,0.217,4.233,0.495,6.105,0.825c1.867,0.33,3.022,0.604,3.465,0.825l-19.14-1.32L78.575,606.348z M81.215,564.438
		c5.718-3.516,12.153-8.301,19.305-14.354c7.146-6.048,14.298-12.757,21.45-20.13c7.146-7.368,13.912-15.231,20.295-23.596
		c6.378-8.357,11.767-16.716,16.17-25.08c-3.3,7.261-7.868,15.072-13.695,23.431c-5.832,8.363-12.323,16.448-19.47,24.255
		c-7.152,7.813-14.577,14.906-22.275,21.285C95.292,556.631,88.032,561.359,81.215,564.438z M135.995,528.139
		c-7.703,7.703-15.623,15.071-23.76,22.109c-8.142,7.043-16.83,13.529-26.07,19.47l1.65,0.33c9.24-5.718,17.763-12.21,25.575-19.47
		C121.197,543.318,128.735,535.842,135.995,528.139z M124.445,566.088c4.177-1.98,8.358-5.389,12.54-10.23l-19.47,13.531
		C119.273,568.512,121.583,567.408,124.445,566.088z"/>
	
		<path fill="#103653" stroke="#103653" stroke-width="12.3488" stroke-linecap="round" stroke-linejoin="round" stroke-miterlimit="10" d="
		M268.981,386.568c14.52,0,28.488,1.269,41.91,3.795c13.417,2.532,25.245,7.043,35.475,13.53
		c10.23,6.492,18.367,15.237,24.42,26.235c6.048,11.003,9.075,24.972,9.075,41.91c0,16.283-1.764,32.562-5.28,48.84
		c-3.3,15.181-8.58,29.483-15.84,42.899c7.26-12.756,12.648-26.069,16.17-39.93c3.96-15.18,5.94-30.689,5.94-46.529
		c0-13.639-1.32-25.354-3.96-35.146c-2.64-9.786-6.878-18.149-12.705-25.08c-5.832-6.93-13.313-12.647-22.44-17.16
		c-9.131-4.507-20.187-8.302-33.165-11.385c-5.063-1.098-10.065-2.196-15.015-3.3c-4.95-1.098-10.179-1.65-15.675-1.65
		c5.28-1.537,10.999-2.31,17.16-2.31c8.58,0,17.325,1.104,26.235,3.3c8.91,2.202,17.269,5.445,25.08,9.735
		c7.807,4.29,14.793,9.683,20.955,16.17c6.157,6.491,10.668,14.024,13.53,22.604l-3.96,0.99c3.079,6.383,5.28,12.983,6.6,19.801
		c1.32,6.82,1.98,13.751,1.98,20.789c0,8.58-0.717,17.985-2.145,28.215c-1.433,10.23-3.687,20.518-6.765,30.855
		c-3.083,10.344-7.043,20.352-11.88,30.029c-4.842,9.684-10.617,18.207-17.325,25.576c-6.713,7.367-14.412,13.308-23.1,17.819
		c-8.693,4.507-18.429,6.765-29.205,6.765c-1.104,0-2.31-0.057-3.63-0.164c-1.32-0.113-2.532-0.279-3.63-0.496l0.99,1.98
		c1.32,0.217,2.691,0.382,4.125,0.495c1.428,0.108,2.805,0.165,4.125,0.165c10.776,0,20.512-2.258,29.205-6.766
		c8.688-4.512,16.387-10.508,23.1-17.984c6.708-7.477,12.483-16.005,17.325-25.575c4.837-9.569,8.797-19.578,11.88-30.03
		c3.078-10.446,5.389-20.841,6.93-31.185c1.537-10.339,2.311-19.908,2.311-28.71c0-10.998-1.32-21.779-3.961-32.34
		c1.537,5.723,2.806,11.498,3.795,17.324c0.99,5.832,1.485,11.607,1.485,17.326c0,9.461-0.773,19.47-2.31,30.029
		c-1.542,10.561-3.909,20.955-7.095,31.186c-3.192,10.229-7.317,20.078-12.375,29.535c-5.063,9.461-11.112,17.768-18.15,24.914
		c-7.043,7.146-15.18,12.871-24.42,17.16c-9.24,4.29-19.583,6.436-31.02,6.436c-8.802,0-16.392-1.98-22.77-5.94
		c-6.384-3.96-11.715-9.188-16.005-15.675c-4.29-6.486-7.755-13.859-10.395-22.109c-2.64-8.25-4.62-16.717-5.94-25.41
		c-1.32-8.689-2.202-17.16-2.64-25.41c-0.443-8.25-0.66-15.563-0.66-21.945c0-14.52,2.032-28.597,6.105-42.24
		c4.068-13.639,10.282-26.4,18.645-38.279c0.217,1.319,0.768,2.145,1.65,2.475c0.876,0.33,1.702,0.608,2.475,0.824
		c0.768,0.223,1.485,0.496,2.145,0.826s0.99,1.047,0.99,2.145c0,0.66-0.443,2.037-1.32,4.125c-0.882,2.094-1.872,4.403-2.97,6.93
		c-1.104,2.531-2.145,4.898-3.135,7.096c-0.99,2.201-1.599,3.629-1.815,4.289l2.97,0.99c0.876-1.536,2.031-3.408,3.465-5.609
		c1.428-2.197,3.078-4.291,4.95-6.271c1.867-1.979,3.847-3.63,5.94-4.95c2.088-1.32,4.125-1.979,6.105-1.979
		c2.856,0,4.62,0.552,5.28,1.649c0.66,1.104,0.99,2.862,0.99,5.28c0,2.64-0.609,6.435-1.815,11.386
		c-1.211,4.949-2.588,10.56-4.125,16.83c-1.542,6.27-2.918,12.818-4.125,19.635c-1.211,6.821-1.815,13.313-1.815,19.47
		c0,1.979,0.108,5.229,0.33,9.735c0.217,4.512,0.604,9.518,1.155,15.015c0.546,5.501,1.32,11.169,2.31,16.995
		c0.99,5.832,2.253,11.168,3.795,16.005c1.537,4.842,3.465,8.802,5.775,11.88c2.31,3.084,5.001,4.62,8.085,4.62
		c5.94,0,11.328-1.923,16.17-5.775c4.836-3.847,9.24-8.796,13.2-14.85c3.96-6.048,7.368-12.922,10.23-20.625
		c2.856-7.698,5.28-15.345,7.26-22.935c1.98-7.591,3.465-14.794,4.455-21.615c0.99-6.816,1.485-12.427,1.485-16.83
		c0-8.137-0.443-15.346-1.32-21.615c-0.882-6.27-2.697-11.715-5.445-16.335c-2.753-4.62-6.765-8.415-12.045-11.386
		c-5.28-2.969-12.21-5.114-20.79-6.435c-0.882-0.216-2.918-0.546-6.105-0.989c-3.191-0.439-6.492-1.042-9.9-1.815
		c-3.413-0.769-6.492-1.649-9.24-2.64c-2.753-0.99-4.125-2.032-4.125-3.135c0-0.66,0.216-1.43,0.66-2.311
		c3.3,0,7.147,0.222,11.55,0.66c4.398,0.443,8.961,1.154,13.695,2.145c4.729,0.99,9.292,2.145,13.695,3.465
		c2.856,0.882,5.61,1.872,8.25,2.971c-2.424-1.099-4.95-2.089-7.59-2.971c-4.403-1.536-8.91-2.856-13.53-3.959
		c-4.62-1.1-9.075-1.924-13.365-2.476c-4.29-0.547-8.198-0.825-11.715-0.825l-1.32-5.939h-1.65c-3.743,0-7.373,0.66-10.89,1.979
		c-3.522,1.319-7.152,1.979-10.89,1.979c-0.882,0-1.764-0.273-2.64-0.824c-0.882-0.547-1.32-1.371-1.32-2.475
		c0-1.537,0.546-3.244,1.65-5.116c1.098-1.866,2.362-3.573,3.795-5.115c1.428-1.537,3.021-2.97,4.785-4.29
		C266.119,388.218,267.661,387.228,268.981,386.568z M354.121,505.038c2.418-9.679,4.068-19.14,4.95-28.38
		c0.217-1.099,0.381-2.254,0.495-3.465c0.108-1.207,0.165-2.361,0.165-3.465c0-5.719-0.99-11.221-2.97-16.5
		c-1.98-5.281-4.182-10.339-6.6-15.181c4.62,11.663,6.93,23.874,6.93,36.63c0,9.9-1.104,19.801-3.3,29.7
		c-2.202,9.684-4.95,19.032-8.25,28.05C349.057,523.41,351.919,514.277,354.121,505.038z"/>
	
		<path fill="#103653" stroke="#103653" stroke-width="12.3488" stroke-linecap="round" stroke-linejoin="round" stroke-miterlimit="10" d="
		M538.59,591.828c0,1.32-0.553,2.531-1.65,3.63c-1.104,1.099-2.367,2.089-3.795,2.97c-1.434,0.877-3.027,1.65-4.785,2.311
		l-3.961,1.65c-1.979-0.883-4.289-1.6-6.93-2.146c-2.64-0.552-5.445-0.938-8.414-1.155c-2.971-0.222-5.889-0.387-8.746-0.495
		c-2.861-0.113-5.393-0.165-7.59-0.165c-10.344,0-20.625,0.273-30.854,0.825c-10.229,0.547-20.517,1.042-30.854,1.485
		c2.418,0.217,4.728,0.33,6.93,0.33h7.26c6.379,0,12.756-0.113,19.141-0.33c6.377-0.223,12.756-0.33,19.139-0.33
		c5.719,0,11.386,0.217,16.996,0.66c5.609,0.438,11.271,1.206,16.994,2.31c-3.3,1.099-8.414,1.923-15.345,2.476
		c-6.93,0.546-14.19,0.989-21.78,1.319s-14.906,0.547-21.945,0.66c-7.043,0.108-12.539,0.165-16.5,0.165l-2.639-3.63
		c-0.443,0-0.826,0.052-1.156,0.165c-0.33,0.107-0.717,0.165-1.154,0.165c-0.882,0-1.764-0.058-2.641-0.165
		c-0.881-0.113-1.871-0.165-2.969-0.165h-2.311c-0.66,0-1.32,0.216-1.98,0.659c-1.979,0-3.908-0.113-5.775-0.329
		c-1.871-0.222-3.795-0.33-5.774-0.33l-6.601-32.67l7.591-3.96c8.58-5.719,16.995-11.602,25.245-17.655
		c8.25-6.048,15.948-12.648,23.1-19.8c7.146-7.146,13.639-14.85,19.471-23.1c5.826-8.25,10.611-17.434,14.354-27.556l-0.99-1.979
		c2.64-5.28,4.507-10.174,5.61-14.686c1.098-4.506,1.65-9.074,1.65-13.695c0-7.697-1.764-12.869-5.281-15.51
		c-3.521-2.64-8.033-3.96-13.529-3.96c-7.482,0-13.974,2.036-19.471,6.104c-5.501,4.074-10.121,8.859-13.859,14.355
		c-1.104-1.758-2.697-2.913-4.785-3.465c-2.094-0.547-3.135-1.701-3.135-3.465c0-2.418,1.264-4.837,3.795-7.26
		c2.527-2.418,4.563-4.291,6.105-5.61l-1.98-2.97c-0.882,0.66-2.641,1.814-5.279,3.465c-2.641,1.65-5.395,3.413-8.25,5.279
		c-2.862,1.872-5.559,3.522-8.086,4.951c-2.531,1.433-4.238,2.145-5.115,2.145c-2.64,0-3.959-1.428-3.959-4.29
		c0-5.94,2.088-11.716,6.27-17.325c4.177-5.609,9.291-10.561,15.346-14.85c6.047-4.291,12.591-7.755,19.635-10.396
		c7.037-2.64,13.529-3.96,19.47-3.96c8.796,0,16.995,0.99,24.585,2.97s14.241,5.172,19.965,9.57
		c5.719,4.403,10.23,10.065,13.529,16.995c3.301,6.93,4.951,15.236,4.951,24.915c0,12.102-2.367,24.204-7.096,36.3
		c-4.733,12.102-10.946,23.543-18.645,34.32c-7.703,10.781-16.449,20.738-26.235,29.865c-9.792,9.131-19.749,16.778-29.864,22.935
		c2.195-0.216,4.893-0.438,8.084-0.66c3.188-0.216,6.543-0.438,10.065-0.659c3.517-0.217,6.873-0.383,10.065-0.496
		c3.186-0.107,5.883-0.164,8.084-0.164c3.078,0,6.379,0.387,9.9,1.154c3.517,0.773,6.486,2.146,8.91,4.125l-0.66,1.98
		c-6.383-0.66-12.653-0.99-18.811-0.99c-2.861,0-6.218,0.057-10.064,0.165c-3.852,0.113-7.755,0.278-11.715,0.495
		c-3.96,0.222-7.869,0.443-11.715,0.66c-3.852,0.222-7.209,0.443-10.064,0.66v0.33c2.195,0,5.001-0.053,8.414-0.166
		c3.408-0.107,6.93-0.216,10.561-0.33c3.63-0.107,7.095-0.216,10.395-0.33c3.301-0.107,6.156-0.164,8.58-0.164
		c3.96,0,7.863,0.164,11.715,0.494c3.847,0.33,7.756,0.717,11.715,1.156c-0.66,1.103-0.99,1.979-0.99,2.639
		c0,1.764,1.156,2.862,3.466,3.301c2.31,0.443,4.837,0.938,7.59,1.484c2.748,0.553,5.28,1.27,7.59,2.146
		C537.434,588.09,538.59,589.631,538.59,591.828z M412.529,576.648l7.92-3.961l-0.33-0.989c-1.32,1.103-2.754,1.872-4.29,2.31
		c-1.542,0.443-2.97,0.99-4.29,1.65v0.99H412.529z M415.499,606.348c0.438,0,1.649,0.052,3.63,0.166
		c1.98,0.107,4.068,0.272,6.27,0.494c2.197,0.217,4.234,0.495,6.105,0.825c1.867,0.33,3.021,0.604,3.465,0.825l-19.14-1.32
		L415.499,606.348z M418.139,564.438c5.719-3.516,12.154-8.301,19.306-14.354c7.146-6.048,14.298-12.757,21.45-20.13
		c7.146-7.368,13.911-15.231,20.295-23.596c6.378-8.357,11.766-16.716,16.17-25.08c-3.301,7.261-7.869,15.072-13.695,23.431
		c-5.832,8.363-12.323,16.448-19.47,24.255c-7.151,7.813-14.577,14.906-22.275,21.285
		C432.216,556.631,424.955,561.359,418.139,564.438z M472.919,528.139c-7.703,7.703-15.623,15.071-23.76,22.109
		c-8.142,7.043-16.83,13.529-26.069,19.47l1.649,0.33c9.239-5.718,17.763-12.21,25.575-19.47
		C458.121,543.318,465.659,535.842,472.919,528.139z M461.369,566.088c4.177-1.98,8.358-5.389,12.54-10.23l-19.47,13.531
		C456.197,568.512,458.508,567.408,461.369,566.088z"/>
	
		<path fill="#103653" stroke="#103653" stroke-width="12.3488" stroke-linecap="round" stroke-linejoin="round" stroke-miterlimit="10" d="
		M605.904,386.568c14.521,0,28.488,1.269,41.91,3.795c13.416,2.532,25.245,7.043,35.475,13.53
		c10.23,6.492,18.367,15.237,24.42,26.235c6.049,11.003,9.076,24.972,9.076,41.91c0,16.283-1.764,32.562-5.281,48.84
		c-3.299,15.181-8.579,29.483-15.84,42.899c7.261-12.756,12.648-26.069,16.17-39.93c3.961-15.18,5.94-30.689,5.94-46.529
		c0-13.639-1.319-25.354-3.96-35.146c-2.64-9.786-6.879-18.149-12.705-25.08c-5.832-6.93-13.313-12.647-22.439-17.16
		c-9.132-4.507-20.188-8.302-33.166-11.385c-5.063-1.098-10.064-2.196-15.014-3.3c-4.951-1.098-10.18-1.65-15.676-1.65
		c5.28-1.537,10.998-2.31,17.16-2.31c8.58,0,17.325,1.104,26.234,3.3c8.91,2.202,17.27,5.445,25.08,9.735
		c7.807,4.29,14.794,9.683,20.955,16.17c6.157,6.491,10.669,14.024,13.53,22.604l-3.96,0.99c3.078,6.383,5.28,12.983,6.6,19.801
		c1.32,6.82,1.98,13.751,1.98,20.789c0,8.58-0.717,17.985-2.145,28.215c-1.434,10.23-3.688,20.518-6.766,30.855
		c-3.083,10.344-7.043,20.352-11.88,30.029c-4.842,9.684-10.616,18.207-17.325,25.576c-6.713,7.367-14.412,13.308-23.1,17.819
		c-8.693,4.507-18.429,6.765-29.205,6.765c-1.104,0-2.311-0.057-3.63-0.164c-1.32-0.113-2.532-0.279-3.63-0.496l0.99,1.98
		c1.319,0.217,2.691,0.382,4.125,0.495c1.428,0.108,2.805,0.165,4.125,0.165c10.775,0,20.512-2.258,29.205-6.766
		c8.688-4.512,16.387-10.508,23.1-17.984c6.708-7.477,12.482-16.005,17.324-25.575c4.838-9.569,8.797-19.578,11.881-30.03
		c3.078-10.446,5.389-20.841,6.93-31.185c1.537-10.339,2.311-19.908,2.311-28.71c0-10.998-1.32-21.779-3.961-32.34
		c1.537,5.723,2.806,11.498,3.795,17.324c0.99,5.832,1.485,11.607,1.485,17.326c0,9.461-0.773,19.47-2.31,30.029
		c-1.542,10.561-3.908,20.955-7.096,31.186c-3.191,10.229-7.316,20.078-12.375,29.535c-5.063,9.461-11.111,17.768-18.149,24.914
		c-7.044,7.146-15.181,12.871-24.42,17.16c-9.24,4.29-19.583,6.436-31.021,6.436c-8.801,0-16.392-1.98-22.77-5.94
		c-6.384-3.96-11.715-9.188-16.006-15.675c-4.289-6.486-7.754-13.859-10.395-22.109c-2.64-8.25-4.619-16.717-5.939-25.41
		c-1.32-8.689-2.202-17.16-2.641-25.41c-0.443-8.25-0.66-15.563-0.66-21.945c0-14.52,2.032-28.597,6.105-42.24
		c4.068-13.639,10.281-26.4,18.645-38.279c0.217,1.319,0.769,2.145,1.65,2.475c0.877,0.33,1.701,0.608,2.475,0.824
		c0.769,0.223,1.485,0.496,2.146,0.826s0.989,1.047,0.989,2.145c0,0.66-0.443,2.037-1.319,4.125c-0.882,2.094-1.872,4.403-2.97,6.93
		c-1.104,2.531-2.145,4.898-3.135,7.096c-0.99,2.201-1.6,3.629-1.815,4.289l2.97,0.99c0.877-1.536,2.031-3.408,3.465-5.609
		c1.429-2.197,3.078-4.291,4.95-6.271c1.866-1.979,3.847-3.63,5.94-4.95c2.088-1.32,4.125-1.979,6.105-1.979
		c2.855,0,4.619,0.552,5.279,1.649c0.66,1.104,0.99,2.862,0.99,5.28c0,2.64-0.609,6.435-1.815,11.386
		c-1.212,4.949-2.589,10.56-4.125,16.83c-1.542,6.27-2.919,12.818-4.125,19.635c-1.212,6.821-1.815,13.313-1.815,19.47
		c0,1.979,0.109,5.229,0.33,9.735c0.217,4.512,0.604,9.518,1.156,15.015c0.546,5.501,1.319,11.169,2.309,16.995
		c0.99,5.832,2.254,11.168,3.796,16.005c1.536,4.842,3.465,8.802,5.774,11.88c2.311,3.084,5.002,4.62,8.086,4.62
		c5.939,0,11.328-1.923,16.17-5.775c4.836-3.847,9.24-8.796,13.199-14.85c3.961-6.048,7.369-12.922,10.23-20.625
		c2.856-7.698,5.279-15.345,7.26-22.935c1.98-7.591,3.465-14.794,4.455-21.615c0.99-6.816,1.484-12.427,1.484-16.83
		c0-8.137-0.443-15.346-1.319-21.615c-0.882-6.27-2.696-11.715-5.444-16.335c-2.754-4.62-6.766-8.415-12.046-11.386
		c-5.28-2.969-12.21-5.114-20.79-6.435c-0.881-0.216-2.918-0.546-6.105-0.989c-3.191-0.439-6.491-1.042-9.899-1.815
		c-3.413-0.769-6.491-1.649-9.239-2.64c-2.754-0.99-4.125-2.032-4.125-3.135c0-0.66,0.216-1.43,0.659-2.311
		c3.3,0,7.147,0.222,11.55,0.66c4.398,0.443,8.962,1.154,13.695,2.145c4.729,0.99,9.291,2.145,13.695,3.465
		c2.856,0.882,5.609,1.872,8.25,2.971c-2.424-1.099-4.95-2.089-7.59-2.971c-4.404-1.536-8.91-2.856-13.53-3.959
		c-4.62-1.1-9.075-1.924-13.365-2.476c-4.29-0.547-8.198-0.825-11.715-0.825l-1.319-5.939h-1.65c-3.744,0-7.373,0.66-10.891,1.979
		c-3.521,1.319-7.151,1.979-10.89,1.979c-0.882,0-1.764-0.273-2.64-0.824c-0.883-0.547-1.32-1.371-1.32-2.475
		c0-1.537,0.547-3.244,1.65-5.116c1.098-1.866,2.361-3.573,3.795-5.115c1.428-1.537,3.021-2.97,4.785-4.29
		C603.043,388.218,604.584,387.228,605.904,386.568z M691.045,505.038c2.418-9.679,4.068-19.14,4.949-28.38
		c0.217-1.099,0.382-2.254,0.496-3.465c0.107-1.207,0.164-2.361,0.164-3.465c0-5.719-0.99-11.221-2.97-16.5
		c-1.979-5.281-4.182-10.339-6.601-15.181c4.621,11.663,6.931,23.874,6.931,36.63c0,9.9-1.104,19.801-3.3,29.7
		c-2.202,9.684-4.95,19.032-8.25,28.05C685.98,523.41,688.843,514.277,691.045,505.038z"/>
</g>
</svg>
