<?xml version="1.0" encoding="utf-8"?>
<!-- Generator: Adobe Illustrator 15.0.0, SVG Export Plug-In . SVG Version: 6.00 Build 0)  -->
<!DOCTYPE svg PUBLIC "-//W3C//DTD SVG 1.1//EN" "http://www.w3.org/Graphics/SVG/1.1/DTD/svg11.dtd">
<svg version="1.1" id="Calque_1" xmlns="http://www.w3.org/2000/svg" xmlns:xlink="http://www.w3.org/1999/xlink" x="0px" y="0px"
	 width="800px" height="800px" viewBox="0 0 800 800" enable-background="new 0 0 800 800" xml:space="preserve">
<path fill="#F79927" d="M159.943,63.673h32v96h-32V63.673z"/>
<path fill="#F8F9F6" d="M64,719.913c0,8.838,7.164,16,16,16h640c8.837,0,16-7.162,16-16v-432H64V719.913z"/>
<path fill="#50C2C8" d="M720,128.172h-48v32c0,17.673-14.327,32-32,32h-32c-17.673,0-32-14.327-32-32v-32H448v32
	c0,17.673-14.327,32-32,32h-32c-17.674,0-32-14.327-32-32v-32H224v32c0,17.673-14.327,32-32,32h-32c-17.673,0-32-14.327-32-32v-32
	H80c-8.836,0-16,7.164-16,16v112h672v-112C736,135.336,728.837,128.172,720,128.172z"/>
<path fill="#103653" d="M720,96h-48V64c0-17.673-14.327-32-32-32h-32c-17.673,0-32,14.327-32,32v32H448V64c0-17.673-14.327-32-32-32
	h-32c-17.673,0-32,14.327-32,32v32H224V64c0-17.673-14.327-32-32-32h-32c-17.673,0-32,14.327-32,32v32H80c-26.51,0-48,21.49-48,48
	v576c0,26.51,21.49,48,48,48h640c26.51,0,48-21.49,48-48V144C768,117.49,746.51,96,720,96z M608,64h32v96h-32V64z M384,64h32v46.08
	c0,0,0,0,0,1.92s0,0,0,2.24V160h-32V64z M160,64h32v96h-32V64z M80,128h48v32c0,17.673,14.327,32,32,32h32c17.673,0,32-14.327,32-32
	v-32h128v32c0,17.673,14.327,32,32,32h32c17.673,0,32-14.327,32-32v-32h128v32c0,17.673,14.327,32,32,32h32
	c17.673,0,32-14.327,32-32v-32h48c8.837,0,16,7.164,16,16v112H64V144C64,135.164,71.164,128,80,128z M720,736H80
	c-8.836,0-16-7.163-16-16V288h672v432C736,728.837,728.837,736,720,736z"/>
<g>
	
		<path fill="#103653" stroke="#103653" stroke-width="12.3488" stroke-linecap="round" stroke-linejoin="round" stroke-miterlimit="10" d="
		M215.99,591.828c0,1.32-0.552,2.531-1.65,3.63c-1.104,1.099-2.367,2.088-3.795,2.97c-1.434,0.877-3.027,1.65-4.785,2.311
		l-3.96,1.649c-1.98-0.882-4.29-1.598-6.93-2.145c-2.64-0.552-5.445-0.938-8.415-1.155c-2.97-0.222-5.889-0.387-8.745-0.495
		c-2.862-0.113-5.394-0.165-7.59-0.165c-10.344,0-20.625,0.273-30.855,0.825c-10.23,0.547-20.517,1.042-30.855,1.485
		c2.418,0.216,4.728,0.33,6.93,0.33h7.26c6.378,0,12.756-0.114,19.14-0.33c6.378-0.222,12.756-0.33,19.14-0.33
		c5.718,0,11.385,0.217,16.995,0.66c5.61,0.438,11.271,1.206,16.995,2.31c-3.3,1.099-8.415,1.924-15.345,2.475
		c-6.93,0.547-14.19,0.99-21.78,1.32c-7.59,0.33-14.907,0.547-21.945,0.66c-7.043,0.108-12.54,0.165-16.5,0.165l-2.64-3.63
		c-0.443,0-0.825,0.052-1.155,0.165c-0.33,0.108-0.717,0.165-1.155,0.165c-0.882,0-1.764-0.057-2.64-0.165
		c-0.882-0.113-1.872-0.165-2.97-0.165h-2.31c-0.66,0-1.32,0.217-1.98,0.66c-1.98,0-3.909-0.113-5.775-0.33
		c-1.872-0.222-3.795-0.33-5.775-0.33l-6.6-32.67l7.59-3.96c8.58-5.719,16.995-11.602,25.245-17.655
		c8.25-6.048,15.949-12.648,23.1-19.8c7.146-7.146,13.638-14.851,19.47-23.101c5.827-8.25,10.611-17.433,14.355-27.555l-0.99-1.979
		c2.64-5.28,4.507-10.174,5.61-14.686c1.098-4.507,1.65-9.075,1.65-13.695c0-7.698-1.764-12.869-5.28-15.51
		c-3.521-2.64-8.033-3.96-13.53-3.96c-7.482,0-13.974,2.037-19.47,6.105c-5.501,4.073-10.122,8.858-13.86,14.354
		c-1.104-1.758-2.697-2.913-4.785-3.465c-2.093-0.547-3.135-1.701-3.135-3.465c0-2.418,1.263-4.837,3.795-7.26
		c2.527-2.419,4.563-4.29,6.105-5.61l-1.98-2.97c-0.882,0.66-2.64,1.814-5.28,3.465c-2.64,1.649-5.394,3.413-8.25,5.28
		c-2.862,1.871-5.559,3.521-8.085,4.949c-2.532,1.434-4.239,2.146-5.115,2.146c-2.64,0-3.96-1.429-3.96-4.29
		c0-5.94,2.088-11.715,6.27-17.325c4.177-5.609,9.292-10.56,15.345-14.85c6.048-4.29,12.591-7.755,19.635-10.396
		c7.038-2.64,13.53-3.96,19.47-3.96c8.796,0,16.995,0.99,24.585,2.97c7.59,1.98,14.241,5.172,19.965,9.57
		c5.718,4.404,10.23,10.065,13.53,16.995c3.3,6.93,4.95,15.236,4.95,24.915c0,12.102-2.367,24.203-7.095,36.3
		c-4.733,12.102-10.946,23.544-18.645,34.32c-7.703,10.781-16.448,20.738-26.235,29.865c-9.792,9.132-19.749,16.778-29.865,22.935
		c2.196-0.217,4.893-0.438,8.085-0.66c3.187-0.217,6.543-0.438,10.065-0.66c3.517-0.216,6.873-0.381,10.065-0.494
		c3.187-0.108,5.883-0.165,8.085-0.165c3.078,0,6.378,0.387,9.9,1.154c3.517,0.773,6.487,2.146,8.91,4.125l-0.66,1.98
		c-6.383-0.66-12.653-0.99-18.81-0.99c-2.861,0-6.218,0.057-10.065,0.165c-3.852,0.113-7.755,0.278-11.715,0.495
		c-3.96,0.222-7.869,0.443-11.715,0.66c-3.852,0.222-7.208,0.443-10.065,0.66v0.329c2.196,0,5.001-0.051,8.415-0.164
		c3.409-0.108,6.93-0.217,10.56-0.33c3.63-0.108,7.095-0.217,10.395-0.33c3.3-0.108,6.157-0.165,8.58-0.165
		c3.96,0,7.863,0.165,11.715,0.495c3.847,0.33,7.755,0.717,11.715,1.154c-0.66,1.104-0.99,1.98-0.99,2.641
		c0,1.763,1.155,2.861,3.465,3.3c2.31,0.443,4.836,0.938,7.59,1.485c2.748,0.551,5.28,1.268,7.59,2.145
		C214.835,588.09,215.99,589.632,215.99,591.828z M89.93,576.648l7.92-3.96l-0.33-0.99c-1.32,1.104-2.753,1.871-4.29,2.31
		c-1.542,0.443-2.97,0.99-4.29,1.65v0.99H89.93z M92.9,606.348c0.438,0,1.65,0.052,3.63,0.165c1.98,0.108,4.068,0.273,6.27,0.495
		c2.197,0.217,4.233,0.495,6.105,0.825c1.867,0.33,3.022,0.604,3.465,0.825l-19.14-1.32L92.9,606.348z M95.54,564.438
		c5.718-3.517,12.153-8.302,19.305-14.355c7.146-6.048,14.298-12.757,21.45-20.13c7.146-7.368,13.912-15.231,20.295-23.595
		c6.378-8.358,11.767-16.717,16.17-25.08c-3.3,7.26-7.868,15.071-13.695,23.43c-5.832,8.363-12.323,16.448-19.47,24.255
		c-7.152,7.812-14.577,14.907-22.275,21.285C109.617,556.632,102.356,561.359,95.54,564.438z M150.32,528.138
		c-7.703,7.704-15.623,15.072-23.76,22.11c-8.142,7.043-16.83,13.53-26.07,19.47l1.65,0.33c9.24-5.718,17.763-12.21,25.575-19.47
		C135.521,543.318,143.06,535.842,150.32,528.138z M138.77,566.088c4.177-1.979,8.358-5.388,12.54-10.229l-19.47,13.529
		C133.598,568.512,135.908,567.408,138.77,566.088z"/>
	
		<path fill="#103653" stroke="#103653" stroke-width="12.3488" stroke-linecap="round" stroke-linejoin="round" stroke-miterlimit="10" d="
		M283.306,386.568c14.52,0,28.488,1.269,41.91,3.795c13.417,2.532,25.245,7.043,35.475,13.531
		c10.23,6.491,18.367,15.236,24.42,26.234c6.048,11.004,9.075,24.972,9.075,41.91c0,16.283-1.764,32.562-5.28,48.84
		c-3.3,15.18-8.58,29.483-15.84,42.9c7.26-12.757,12.648-26.07,16.17-39.931c3.96-15.18,5.94-30.689,5.94-46.529
		c0-13.639-1.32-25.354-3.96-35.146c-2.64-9.786-6.878-18.149-12.705-25.08c-5.832-6.93-13.313-12.647-22.44-17.16
		c-9.131-4.507-20.187-8.302-33.165-11.385c-5.063-1.098-10.065-2.196-15.015-3.3c-4.95-1.098-10.179-1.65-15.675-1.65
		c5.28-1.537,10.999-2.31,17.16-2.31c8.58,0,17.325,1.104,26.235,3.3c8.91,2.202,17.269,5.445,25.08,9.735
		c7.807,4.29,14.793,9.684,20.955,16.17c6.157,6.492,10.668,14.024,13.53,22.604l-3.96,0.99c3.079,6.384,5.28,12.983,6.6,19.8
		c1.32,6.822,1.98,13.752,1.98,20.79c0,8.58-0.717,17.985-2.145,28.215c-1.433,10.23-3.687,20.518-6.765,30.855
		c-3.083,10.344-7.043,20.352-11.88,30.03c-4.842,9.684-10.617,18.206-17.325,25.574c-6.713,7.369-14.412,13.309-23.1,17.82
		c-8.693,4.507-18.429,6.766-29.205,6.766c-1.104,0-2.31-0.058-3.63-0.165c-1.32-0.114-2.532-0.279-3.63-0.495l0.99,1.979
		c1.32,0.217,2.691,0.382,4.125,0.495c1.428,0.108,2.805,0.165,4.125,0.165c10.776,0,20.512-2.259,29.205-6.765
		c8.688-4.512,16.387-10.509,23.1-17.985c6.708-7.477,12.483-16.005,17.325-25.575c4.837-9.569,8.797-19.578,11.88-30.029
		c3.078-10.447,5.388-20.842,6.93-31.186c1.537-10.338,2.31-19.908,2.31-28.71c0-10.998-1.319-21.78-3.96-32.34
		c1.537,5.724,2.806,11.498,3.795,17.325c0.99,5.831,1.485,11.606,1.485,17.324c0,9.462-0.773,19.471-2.31,30.03
		c-1.542,10.561-3.909,20.955-7.096,31.186c-3.192,10.229-7.317,20.078-12.375,29.534c-5.063,9.462-11.112,17.769-18.15,24.915
		c-7.043,7.147-15.18,12.87-24.42,17.16c-9.24,4.29-19.583,6.436-31.02,6.436c-8.802,0-16.392-1.98-22.77-5.94
		c-6.384-3.96-11.715-9.188-16.005-15.675c-4.29-6.486-7.755-13.86-10.395-22.11c-2.64-8.25-4.62-16.716-5.94-25.41
		c-1.32-8.688-2.202-17.159-2.64-25.409c-0.443-8.25-0.66-15.562-0.66-21.945c0-14.521,2.032-28.597,6.105-42.24
		c4.068-13.638,10.282-26.399,18.645-38.279c0.217,1.319,0.768,2.145,1.65,2.475c0.876,0.33,1.702,0.608,2.475,0.825
		c0.768,0.222,1.485,0.495,2.145,0.824c0.66,0.33,0.99,1.047,0.99,2.146c0,0.66-0.443,2.037-1.32,4.125
		c-0.882,2.094-1.872,4.403-2.97,6.93c-1.104,2.532-2.145,4.898-3.135,7.096c-0.99,2.201-1.599,3.63-1.815,4.29l2.97,0.989
		c0.876-1.536,2.031-3.408,3.465-5.609c1.428-2.197,3.078-4.29,4.95-6.271c1.867-1.979,3.847-3.63,5.94-4.95
		c2.088-1.319,4.125-1.979,6.105-1.979c2.856,0,4.62,0.552,5.28,1.649c0.66,1.104,0.99,2.862,0.99,5.28
		c0,2.641-0.609,6.436-1.815,11.385c-1.211,4.95-2.588,10.561-4.125,16.83c-1.542,6.271-2.918,12.818-4.125,19.636
		c-1.211,6.821-1.815,13.313-1.815,19.47c0,1.979,0.108,5.229,0.33,9.734c0.217,4.512,0.604,9.519,1.155,15.016
		c0.546,5.502,1.32,11.168,2.31,16.995c0.99,5.831,2.253,11.168,3.795,16.005c1.537,4.842,3.465,8.802,5.775,11.88
		c2.31,3.083,5.001,4.62,8.085,4.62c5.94,0,11.328-1.924,16.17-5.775c4.836-3.847,9.24-8.796,13.2-14.85
		c3.96-6.049,7.368-12.922,10.23-20.625c2.856-7.698,5.28-15.345,7.26-22.936c1.98-7.59,3.465-14.793,4.455-21.614
		c0.99-6.817,1.485-12.427,1.485-16.83c0-8.137-0.443-15.346-1.32-21.615c-0.882-6.271-2.697-11.715-5.445-16.335
		c-2.753-4.62-6.765-8.415-12.045-11.385c-5.28-2.971-12.21-5.115-20.79-6.436c-0.882-0.216-2.918-0.546-6.105-0.989
		c-3.191-0.438-6.492-1.042-9.9-1.815c-3.413-0.769-6.492-1.649-9.24-2.64c-2.753-0.99-4.125-2.032-4.125-3.135
		c0-0.66,0.216-1.429,0.66-2.311c3.3,0,7.147,0.222,11.55,0.66c4.398,0.443,8.961,1.155,13.695,2.145
		c4.729,0.99,9.292,2.146,13.695,3.466c2.856,0.881,5.61,1.871,8.25,2.97c-2.424-1.099-4.95-2.089-7.59-2.97
		c-4.403-1.537-8.91-2.857-13.53-3.96c-4.62-1.099-9.075-1.924-13.365-2.476c-4.29-0.547-8.198-0.825-11.715-0.825l-1.32-5.939
		h-1.65c-3.743,0-7.373,0.66-10.89,1.979c-3.522,1.32-7.152,1.98-10.89,1.98c-0.882,0-1.764-0.273-2.64-0.825
		c-0.882-0.547-1.32-1.371-1.32-2.475c0-1.537,0.546-3.243,1.65-5.116c1.098-1.866,2.362-3.573,3.795-5.115
		c1.428-1.537,3.021-2.97,4.785-4.29C280.444,388.218,281.985,387.228,283.306,386.568z M368.445,505.038
		c2.418-9.679,4.068-19.14,4.95-28.38c0.217-1.099,0.381-2.254,0.495-3.465c0.108-1.207,0.165-2.362,0.165-3.466
		c0-5.718-0.99-11.22-2.97-16.5c-1.98-5.279-4.182-10.338-6.6-15.18c4.62,11.664,6.93,23.874,6.93,36.63c0,9.9-1.104,19.8-3.3,29.7
		c-2.202,9.684-4.95,19.032-8.25,28.05C363.382,523.41,366.244,514.278,368.445,505.038z"/>
	
		<path fill="#103653" stroke="#103653" stroke-width="12.3488" stroke-linecap="round" stroke-linejoin="round" stroke-miterlimit="10" d="
		M552.914,591.828c0,1.32-0.552,2.531-1.65,3.63c-1.104,1.099-2.366,2.088-3.795,2.97c-1.434,0.877-3.026,1.65-4.785,2.311
		l-3.96,1.649c-1.979-0.882-4.29-1.598-6.93-2.145c-2.64-0.552-5.445-0.938-8.415-1.155c-2.97-0.222-5.889-0.387-8.745-0.495
		c-2.861-0.113-5.394-0.165-7.59-0.165c-10.344,0-20.625,0.273-30.855,0.825c-10.229,0.547-20.517,1.042-30.854,1.485
		c2.418,0.216,4.729,0.33,6.93,0.33h7.26c6.379,0,12.757-0.114,19.141-0.33c6.378-0.222,12.756-0.33,19.14-0.33
		c5.719,0,11.385,0.217,16.995,0.66c5.61,0.438,11.271,1.206,16.995,2.31c-3.3,1.099-8.415,1.924-15.345,2.475
		c-6.931,0.547-14.19,0.99-21.78,1.32s-14.907,0.547-21.945,0.66c-7.043,0.108-12.54,0.165-16.5,0.165l-2.64-3.63
		c-0.443,0-0.825,0.052-1.155,0.165c-0.33,0.108-0.717,0.165-1.155,0.165c-0.881,0-1.763-0.057-2.64-0.165
		c-0.882-0.113-1.872-0.165-2.97-0.165h-2.311c-0.66,0-1.319,0.217-1.979,0.66c-1.98,0-3.908-0.113-5.775-0.33
		c-1.871-0.222-3.795-0.33-5.774-0.33l-6.601-32.67l7.59-3.96c8.58-5.719,16.995-11.602,25.245-17.655
		c8.25-6.048,15.948-12.648,23.101-19.8c7.146-7.146,13.638-14.851,19.47-23.101c5.826-8.25,10.611-17.433,14.354-27.555
		l-0.989-1.979c2.64-5.28,4.506-10.174,5.609-14.686c1.099-4.507,1.65-9.075,1.65-13.695c0-7.698-1.764-12.869-5.28-15.51
		c-3.521-2.64-8.033-3.96-13.53-3.96c-7.481,0-13.973,2.037-19.47,6.105c-5.502,4.073-10.121,8.858-13.859,14.354
		c-1.104-1.758-2.697-2.913-4.785-3.465c-2.094-0.547-3.136-1.701-3.136-3.465c0-2.418,1.264-4.837,3.796-7.26
		c2.526-2.419,4.563-4.29,6.104-5.61l-1.979-2.97c-0.882,0.66-2.641,1.814-5.28,3.465c-2.641,1.649-5.394,3.413-8.25,5.28
		c-2.862,1.871-5.559,3.521-8.085,4.949c-2.532,1.434-4.238,2.146-5.115,2.146c-2.64,0-3.96-1.429-3.96-4.29
		c0-5.94,2.088-11.715,6.27-17.325c4.177-5.609,9.292-10.56,15.346-14.85c6.048-4.29,12.592-7.755,19.635-10.396
		c7.038-2.64,13.53-3.96,19.47-3.96c8.797,0,16.995,0.99,24.585,2.97s14.242,5.172,19.965,9.57
		c5.719,4.404,10.23,10.065,13.53,16.995s4.95,15.236,4.95,24.915c0,12.102-2.367,24.203-7.095,36.3
		c-4.733,12.102-10.947,23.544-18.646,34.32c-7.703,10.781-16.448,20.738-26.234,29.865c-9.792,9.132-19.749,16.778-29.865,22.935
		c2.196-0.217,4.894-0.438,8.085-0.66c3.187-0.217,6.543-0.438,10.064-0.66c3.517-0.216,6.874-0.381,10.065-0.494
		c3.187-0.108,5.883-0.165,8.085-0.165c3.078,0,6.378,0.387,9.9,1.154c3.517,0.773,6.486,2.146,8.909,4.125l-0.659,1.98
		c-6.384-0.66-12.653-0.99-18.811-0.99c-2.861,0-6.218,0.057-10.064,0.165c-3.853,0.113-7.755,0.278-11.716,0.495
		c-3.96,0.222-7.868,0.443-11.715,0.66c-3.852,0.222-7.208,0.443-10.064,0.66v0.329c2.196,0,5.001-0.051,8.415-0.164
		c3.408-0.108,6.93-0.217,10.56-0.33c3.63-0.108,7.095-0.217,10.396-0.33c3.3-0.108,6.156-0.165,8.58-0.165
		c3.96,0,7.863,0.165,11.715,0.495c3.847,0.33,7.755,0.717,11.715,1.154c-0.66,1.104-0.99,1.98-0.99,2.641
		c0,1.763,1.155,2.861,3.465,3.3c2.311,0.443,4.837,0.938,7.59,1.485c2.749,0.551,5.28,1.268,7.591,2.145
		C551.759,588.09,552.914,589.632,552.914,591.828z M426.854,576.648l7.92-3.96l-0.33-0.99c-1.319,1.104-2.753,1.871-4.289,2.31
		c-1.542,0.443-2.971,0.99-4.29,1.65v0.99H426.854z M429.824,606.348c0.438,0,1.649,0.052,3.63,0.165
		c1.979,0.108,4.068,0.273,6.27,0.495c2.196,0.217,4.233,0.495,6.105,0.825c1.866,0.33,3.021,0.604,3.465,0.825l-19.14-1.32
		L429.824,606.348z M432.464,564.438c5.718-3.517,12.153-8.302,19.305-14.355c7.146-6.048,14.299-12.757,21.45-20.13
		c7.146-7.368,13.912-15.231,20.295-23.595c6.379-8.358,11.767-16.717,16.17-25.08c-3.3,7.26-7.868,15.071-13.694,23.43
		c-5.832,8.363-12.324,16.448-19.471,24.255c-7.151,7.812-14.576,14.907-22.274,21.285
		C446.54,556.632,439.28,561.359,432.464,564.438z M487.244,528.138c-7.704,7.704-15.624,15.072-23.761,22.11
		c-8.142,7.043-16.829,13.53-26.069,19.47l1.649,0.33c9.24-5.718,17.764-12.21,25.575-19.47
		C472.445,543.318,479.983,535.842,487.244,528.138z M475.693,566.088c4.177-1.979,8.358-5.388,12.54-10.229l-19.47,13.529
		C470.522,568.512,472.832,567.408,475.693,566.088z"/>
	
		<path fill="#103653" stroke="#103653" stroke-width="12.3488" stroke-linecap="round" stroke-linejoin="round" stroke-miterlimit="10" d="
		M703.06,591.828c0,1.32-0.552,2.531-1.65,3.63c-1.104,1.099-2.366,2.088-3.795,2.97c-1.434,0.877-3.026,1.65-4.785,2.311
		l-3.96,1.649c-1.979-0.882-4.29-1.598-6.93-2.145c-2.64-0.552-5.445-0.938-8.415-1.155c-2.97-0.222-5.889-0.387-8.745-0.495
		c-2.861-0.113-5.394-0.165-7.59-0.165c-10.344,0-20.625,0.273-30.855,0.825c-10.229,0.547-20.517,1.042-30.854,1.485
		c2.418,0.216,4.729,0.33,6.93,0.33h7.26c6.379,0,12.757-0.114,19.141-0.33c6.378-0.222,12.756-0.33,19.14-0.33
		c5.719,0,11.385,0.217,16.995,0.66c5.61,0.438,11.271,1.206,16.995,2.31c-3.3,1.099-8.415,1.924-15.345,2.475
		c-6.931,0.547-14.19,0.99-21.78,1.32s-14.907,0.547-21.945,0.66c-7.043,0.108-12.54,0.165-16.5,0.165l-2.64-3.63
		c-0.443,0-0.825,0.052-1.155,0.165c-0.33,0.108-0.717,0.165-1.155,0.165c-0.881,0-1.763-0.057-2.64-0.165
		c-0.882-0.113-1.872-0.165-2.97-0.165h-2.311c-0.66,0-1.319,0.217-1.979,0.66c-1.98,0-3.908-0.113-5.775-0.33
		c-1.871-0.222-3.795-0.33-5.774-0.33l-6.601-32.67l7.59-3.96c8.58-5.719,16.995-11.602,25.245-17.655
		c8.25-6.048,15.948-12.648,23.101-19.8c7.146-7.146,13.638-14.851,19.47-23.101c5.826-8.25,10.611-17.433,14.354-27.555
		l-0.989-1.979c2.64-5.28,4.506-10.174,5.609-14.686c1.099-4.507,1.65-9.075,1.65-13.695c0-7.698-1.764-12.869-5.28-15.51
		c-3.521-2.64-8.033-3.96-13.53-3.96c-7.481,0-13.973,2.037-19.47,6.105c-5.502,4.073-10.121,8.858-13.859,14.354
		c-1.104-1.758-2.697-2.913-4.785-3.465c-2.094-0.547-3.136-1.701-3.136-3.465c0-2.418,1.264-4.837,3.796-7.26
		c2.526-2.419,4.563-4.29,6.104-5.61l-1.979-2.97c-0.882,0.66-2.641,1.814-5.28,3.465c-2.641,1.649-5.394,3.413-8.25,5.28
		c-2.862,1.871-5.559,3.521-8.085,4.949c-2.532,1.434-4.238,2.146-5.115,2.146c-2.64,0-3.96-1.429-3.96-4.29
		c0-5.94,2.088-11.715,6.27-17.325c4.177-5.609,9.292-10.56,15.346-14.85c6.048-4.29,12.592-7.755,19.635-10.396
		c7.038-2.64,13.53-3.96,19.47-3.96c8.797,0,16.995,0.99,24.585,2.97s14.242,5.172,19.965,9.57
		c5.719,4.404,10.23,10.065,13.53,16.995s4.95,15.236,4.95,24.915c0,12.102-2.367,24.203-7.095,36.3
		c-4.733,12.102-10.947,23.544-18.646,34.32c-7.703,10.781-16.448,20.738-26.234,29.865c-9.792,9.132-19.749,16.778-29.865,22.935
		c2.196-0.217,4.894-0.438,8.085-0.66c3.187-0.217,6.543-0.438,10.064-0.66c3.517-0.216,6.874-0.381,10.065-0.494
		c3.187-0.108,5.883-0.165,8.085-0.165c3.078,0,6.378,0.387,9.9,1.154c3.517,0.773,6.486,2.146,8.909,4.125l-0.659,1.98
		c-6.384-0.66-12.653-0.99-18.811-0.99c-2.861,0-6.218,0.057-10.064,0.165c-3.853,0.113-7.755,0.278-11.716,0.495
		c-3.96,0.222-7.868,0.443-11.715,0.66c-3.852,0.222-7.208,0.443-10.064,0.66v0.329c2.196,0,5.001-0.051,8.415-0.164
		c3.408-0.108,6.93-0.217,10.56-0.33c3.63-0.108,7.095-0.217,10.396-0.33c3.3-0.108,6.156-0.165,8.58-0.165
		c3.96,0,7.863,0.165,11.715,0.495c3.847,0.33,7.755,0.717,11.715,1.154c-0.66,1.104-0.99,1.98-0.99,2.641
		c0,1.763,1.155,2.861,3.465,3.3c2.311,0.443,4.837,0.938,7.59,1.485c2.749,0.551,5.28,1.268,7.591,2.145
		C701.904,588.09,703.06,589.632,703.06,591.828z M576.999,576.648l7.92-3.96l-0.33-0.99c-1.319,1.104-2.753,1.871-4.289,2.31
		c-1.542,0.443-2.971,0.99-4.29,1.65v0.99H576.999z M579.97,606.348c0.438,0,1.649,0.052,3.63,0.165
		c1.979,0.108,4.068,0.273,6.27,0.495c2.196,0.217,4.233,0.495,6.105,0.825c1.866,0.33,3.021,0.604,3.465,0.825l-19.14-1.32
		L579.97,606.348z M582.609,564.438c5.718-3.517,12.153-8.302,19.305-14.355c7.146-6.048,14.299-12.757,21.45-20.13
		c7.146-7.368,13.912-15.231,20.295-23.595c6.379-8.358,11.767-16.717,16.17-25.08c-3.3,7.26-7.868,15.071-13.694,23.43
		c-5.832,8.363-12.324,16.448-19.471,24.255c-7.151,7.812-14.576,14.907-22.274,21.285
		C596.686,556.632,589.426,561.359,582.609,564.438z M637.39,528.138c-7.704,7.704-15.624,15.072-23.761,22.11
		c-8.142,7.043-16.829,13.53-26.069,19.47l1.649,0.33c9.24-5.718,17.764-12.21,25.575-19.47
		C622.591,543.318,630.129,535.842,637.39,528.138z M625.839,566.088c4.177-1.979,8.358-5.388,12.54-10.229l-19.47,13.529
		C620.668,568.512,622.978,567.408,625.839,566.088z"/>
</g>
<path fill="#F79927" d="M416,113.913c0-2.24,0-0.32,0-2.24s0-1.92,0-1.92v-46.08h-32v96h32V113.913z"/>
<rect x="607.943" y="63.673" fill="#F79927" width="32" height="96"/>
</svg>
