<?xml version="1.0" encoding="utf-8"?>
<!-- Generator: Adobe Illustrator 15.0.0, SVG Export Plug-In . SVG Version: 6.00 Build 0)  -->
<!DOCTYPE svg PUBLIC "-//W3C//DTD SVG 1.1//EN" "http://www.w3.org/Graphics/SVG/1.1/DTD/svg11.dtd">
<svg version="1.1" id="Calque_1" xmlns="http://www.w3.org/2000/svg" xmlns:xlink="http://www.w3.org/1999/xlink" x="0px" y="0px"
	 width="800px" height="800px" viewBox="0 0 800 800" enable-background="new 0 0 800 800" xml:space="preserve">
<path fill="#F79927" d="M159.943,63.673h32v96h-32V63.673z"/>
<path fill="#F8F9F6" d="M64,719.913c0,8.838,7.164,16,16,16h640c8.837,0,16-7.162,16-16v-432H64V719.913z"/>
<path fill="#50C2C8" d="M720,128.172h-48v32c0,17.673-14.327,32-32,32h-32c-17.673,0-32-14.327-32-32v-32H448v32
	c0,17.673-14.327,32-32,32h-32c-17.674,0-32-14.327-32-32v-32H224v32c0,17.673-14.327,32-32,32h-32c-17.673,0-32-14.327-32-32v-32
	H80c-8.836,0-16,7.164-16,16v112h672v-112C736,135.336,728.837,128.172,720,128.172z"/>
<path fill="#103653" d="M720,96h-48V64c0-17.673-14.327-32-32-32h-32c-17.673,0-32,14.327-32,32v32H448V64c0-17.673-14.327-32-32-32
	h-32c-17.673,0-32,14.327-32,32v32H224V64c0-17.673-14.327-32-32-32h-32c-17.673,0-32,14.327-32,32v32H80c-26.51,0-48,21.49-48,48
	v576c0,26.51,21.49,48,48,48h640c26.51,0,48-21.49,48-48V144C768,117.49,746.51,96,720,96z M608,64h32v96h-32V64z M384,64h32v46.08
	c0,0,0,0,0,1.92s0,0,0,2.24V160h-32V64z M160,64h32v96h-32V64z M80,128h48v32c0,17.673,14.327,32,32,32h32c17.673,0,32-14.327,32-32
	v-32h128v32c0,17.673,14.327,32,32,32h32c17.673,0,32-14.327,32-32v-32h128v32c0,17.673,14.327,32,32,32h32
	c17.673,0,32-14.327,32-32v-32h48c8.837,0,16,7.164,16,16v112H64V144C64,135.164,71.164,128,80,128z M720,736H80
	c-8.836,0-16-7.163-16-16V288h672v432C736,728.837,728.837,736,720,736z"/>
<path fill="#F79927" d="M416,113.913c0-2.24,0-0.32,0-2.24s0-1.92,0-1.92v-46.08h-32v96h32V113.913z"/>
<rect x="607.943" y="63.673" fill="#F79927" width="32" height="96"/>
<g>
	<path fill="#103653" stroke="#103653" stroke-width="8" stroke-miterlimit="10" d="M200.965,581.817c0,1.28-0.535,2.455-1.6,3.521
		c-1.07,1.064-2.295,2.024-3.68,2.879c-1.39,0.851-2.935,1.601-4.64,2.24l-3.84,1.601c-1.92-0.854-4.16-1.55-6.72-2.08
		c-2.56-0.535-5.28-0.91-8.16-1.12c-2.88-0.215-5.71-0.375-8.48-0.48c-2.775-0.109-5.23-0.16-7.36-0.16
		c-10.03,0-20,0.266-29.92,0.801c-9.92,0.529-19.895,1.01-29.92,1.439c2.345,0.211,4.585,0.32,6.72,0.32h7.04
		c6.185,0,12.37-0.109,18.56-0.32c6.185-0.215,12.37-0.32,18.56-0.32c5.545,0,11.04,0.211,16.48,0.641
		c5.44,0.426,10.93,1.17,16.48,2.24c-3.2,1.064-8.16,1.865-14.88,2.4c-6.72,0.529-13.76,0.959-21.12,1.279s-14.455,0.53-21.28,0.641
		c-6.83,0.104-12.16,0.16-16,0.16l-2.56-3.521c-0.43,0-0.8,0.05-1.12,0.159c-0.32,0.105-0.695,0.16-1.12,0.16
		c-0.855,0-1.71-0.055-2.56-0.16c-0.855-0.109-1.815-0.159-2.88-0.159h-2.24c-0.64,0-1.28,0.21-1.92,0.64
		c-1.92,0-3.79-0.109-5.6-0.32c-1.815-0.215-3.68-0.319-5.6-0.319l-6.4-31.681l7.36-3.84c8.32-5.545,16.48-11.25,24.48-17.119
		c8-5.865,15.465-12.266,22.4-19.201c6.93-6.93,13.225-14.399,18.88-22.399c5.65-8,10.29-16.905,13.92-26.72l-0.96-1.92
		c2.56-5.12,4.37-9.865,5.44-14.24c1.065-4.37,1.6-8.8,1.6-13.279c0-7.466-1.71-12.48-5.12-15.041c-3.415-2.56-7.79-3.84-13.12-3.84
		c-7.255,0-13.55,1.975-18.88,5.92c-5.335,3.95-9.815,8.59-13.44,13.92c-1.07-1.705-2.615-2.824-4.64-3.359
		c-2.03-0.53-3.04-1.65-3.04-3.36c0-2.345,1.225-4.69,3.68-7.04c2.45-2.345,4.425-4.16,5.92-5.439l-1.92-2.881
		c-0.855,0.641-2.56,1.76-5.12,3.36s-5.23,3.31-8,5.12c-2.775,1.814-5.39,3.415-7.84,4.8c-2.455,1.39-4.11,2.08-4.96,2.08
		c-2.56,0-3.84-1.385-3.84-4.16c0-5.76,2.025-11.36,6.08-16.8c4.05-5.439,9.01-10.24,14.88-14.4c5.865-4.16,12.21-7.52,19.04-10.08
		c6.825-2.56,13.12-3.84,18.88-3.84c8.53,0,16.48,0.96,23.84,2.88c7.36,1.92,13.81,5.015,19.36,9.28
		c5.545,4.27,9.92,9.76,13.12,16.48c3.2,6.72,4.8,14.775,4.8,24.16c0,11.734-2.295,23.47-6.88,35.199
		c-4.59,11.735-10.615,22.83-18.08,33.28c-7.47,10.455-15.95,20.11-25.44,28.96c-9.495,8.855-19.15,16.27-28.96,22.24
		c2.13-0.21,4.745-0.426,7.84-0.641c3.09-0.209,6.345-0.424,9.76-0.64c3.41-0.21,6.665-0.37,9.76-0.479
		c3.09-0.105,5.705-0.16,7.84-0.16c2.985,0,6.185,0.375,9.6,1.119c3.41,0.75,6.29,2.08,8.64,4l-0.64,1.92
		c-6.19-0.639-12.27-0.959-18.24-0.959c-2.775,0-6.03,0.055-9.76,0.16c-3.735,0.109-7.52,0.27-11.36,0.479
		c-3.84,0.215-7.63,0.431-11.36,0.64c-3.735,0.215-6.99,0.43-9.76,0.641v0.32c2.13,0,4.85-0.051,8.16-0.16
		c3.305-0.105,6.72-0.211,10.24-0.32c3.52-0.105,6.88-0.21,10.08-0.32c3.2-0.105,5.97-0.16,8.32-0.16c3.84,0,7.625,0.16,11.36,0.48
		c3.73,0.32,7.52,0.695,11.36,1.12c-0.64,1.069-0.96,1.92-0.96,2.56c0,1.711,1.12,2.775,3.36,3.2c2.24,0.431,4.69,0.91,7.36,1.44
		c2.665,0.535,5.12,1.229,7.36,2.08C199.845,578.192,200.965,579.688,200.965,581.817z M78.726,567.098l7.68-3.84l-0.32-0.961
		c-1.28,1.07-2.67,1.815-4.16,2.24c-1.495,0.43-2.88,0.961-4.16,1.6v0.961H78.726z M81.605,595.897c0.425,0,1.6,0.05,3.52,0.16
		c1.92,0.104,3.945,0.265,6.08,0.479c2.13,0.211,4.105,0.48,5.92,0.801c1.81,0.319,2.93,0.584,3.36,0.799l-18.56-1.279
		L81.605,595.897z M84.166,555.258c5.545-3.41,11.785-8.051,18.72-13.92c6.93-5.865,13.865-12.371,20.8-19.521
		c6.93-7.146,13.49-14.771,19.68-22.88c6.185-8.105,11.41-16.21,15.68-24.32c-3.2,7.04-7.63,14.615-13.28,22.721
		c-5.655,8.109-11.95,15.949-18.88,23.52c-6.935,7.575-14.135,14.455-21.6,20.641C97.815,547.688,90.775,552.272,84.166,555.258z
		 M137.285,520.058c-7.47,7.47-15.15,14.614-23.04,21.44c-7.895,6.83-16.32,13.119-25.28,18.879l1.6,0.32
		c8.96-5.545,17.225-11.84,24.8-18.88C122.936,534.777,130.246,527.527,137.285,520.058z M126.085,556.857
		c4.05-1.92,8.105-5.225,12.16-9.92l-18.88,13.12C121.07,559.207,123.311,558.137,126.085,556.857z"/>
	<path fill="#103653" stroke="#103653" stroke-width="8" stroke-miterlimit="10" d="M266.241,382.777
		c14.08,0,27.625,1.23,40.64,3.68c13.01,2.455,24.48,6.83,34.4,13.12c9.92,6.295,17.81,14.775,23.68,25.44
		c5.865,10.67,8.8,24.215,8.8,40.64c0,15.79-1.71,31.575-5.12,47.36c-3.2,14.72-8.32,28.59-15.36,41.6
		c7.04-12.369,12.265-25.279,15.68-38.72c3.84-14.72,5.76-29.761,5.76-45.12c0-13.225-1.28-24.585-3.84-34.08
		c-2.56-9.49-6.67-17.6-12.32-24.32c-5.655-6.72-12.91-12.265-21.76-16.64c-8.855-4.37-19.575-8.05-32.16-11.04
		c-4.91-1.065-9.76-2.13-14.56-3.2c-4.8-1.065-9.87-1.6-15.2-1.6c5.12-1.49,10.665-2.24,16.64-2.24c8.32,0,16.8,1.07,25.44,3.2
		c8.64,2.135,16.745,5.28,24.32,9.44c7.57,4.16,14.345,9.39,20.32,15.68c5.97,6.295,10.345,13.601,13.12,21.92l-3.84,0.96
		c2.985,6.189,5.12,12.59,6.4,19.2c1.28,6.614,1.92,13.335,1.92,20.159c0,8.32-0.695,17.44-2.08,27.361
		c-1.39,9.92-3.575,19.895-6.56,29.92c-2.99,10.029-6.83,19.734-11.52,29.119c-4.695,9.391-10.295,17.655-16.8,24.801
		c-6.51,7.145-13.975,12.904-22.4,17.279c-8.43,4.37-17.87,6.561-28.32,6.561c-1.07,0-2.24-0.055-3.52-0.16
		c-1.28-0.11-2.455-0.27-3.52-0.48l0.96,1.92c1.28,0.211,2.61,0.37,4,0.48c1.385,0.105,2.72,0.16,4,0.16
		c10.45,0,19.89-2.19,28.32-6.561c8.425-4.375,15.89-10.189,22.4-17.439c6.505-7.25,12.105-15.521,16.8-24.801
		c4.69-9.279,8.53-18.984,11.52-29.119c2.985-10.131,5.225-20.211,6.72-30.24c1.49-10.025,2.24-19.305,2.24-27.84
		c0-10.666-1.28-21.12-3.84-31.36c1.49,5.55,2.72,11.149,3.68,16.8c0.96,5.655,1.44,11.256,1.44,16.801
		c0,9.174-0.75,18.879-2.24,29.119c-1.495,10.24-3.79,20.32-6.88,30.24c-3.095,9.92-7.095,19.471-12,28.641
		c-4.91,9.174-10.775,17.229-17.6,24.16c-6.83,6.93-14.72,12.479-23.68,16.639c-8.96,4.16-18.99,6.24-30.08,6.24
		c-8.535,0-15.895-1.92-22.08-5.76c-6.19-3.84-11.36-8.91-15.52-15.199c-4.16-6.291-7.52-13.44-10.08-21.44s-4.48-16.21-5.76-24.64
		c-1.28-8.426-2.135-16.641-2.56-24.641c-0.43-8-0.64-15.09-0.64-21.279c0-14.08,1.97-27.73,5.92-40.961
		c3.945-13.225,9.97-25.6,18.08-37.119c0.21,1.279,0.745,2.08,1.6,2.399c0.85,0.319,1.65,0.59,2.4,0.8
		c0.745,0.215,1.44,0.48,2.08,0.801c0.64,0.319,0.96,1.015,0.96,2.08c0,0.639-0.43,1.975-1.28,4c-0.855,2.029-1.815,4.27-2.88,6.719
		c-1.07,2.455-2.08,4.75-3.04,6.881c-0.96,2.135-1.55,3.52-1.76,4.16l2.88,0.959c0.85-1.489,1.97-3.305,3.36-5.439
		c1.385-2.13,2.985-4.16,4.8-6.08c1.81-1.92,3.73-3.52,5.76-4.8c2.025-1.28,4-1.92,5.92-1.92c2.77,0,4.48,0.534,5.12,1.601
		c0.64,1.069,0.96,2.774,0.96,5.119c0,2.561-0.59,6.24-1.76,11.04c-1.175,4.8-2.51,10.24-4,16.32c-1.495,6.079-2.83,12.43-4,19.04
		c-1.175,6.615-1.76,12.91-1.76,18.88c0,1.92,0.105,5.069,0.32,9.44c0.21,4.375,0.585,9.229,1.12,14.56
		c0.53,5.335,1.28,10.83,2.24,16.479c0.96,5.655,2.185,10.83,3.68,15.521c1.49,4.694,3.36,8.534,5.6,11.521
		c2.24,2.989,4.85,4.479,7.84,4.479c5.76,0,10.985-1.865,15.68-5.601c4.69-3.729,8.96-8.529,12.8-14.399
		c3.84-5.865,7.145-12.53,9.92-20c2.77-7.466,5.12-14.88,7.04-22.24s3.36-14.345,4.32-20.96c0.96-6.609,1.44-12.05,1.44-16.32
		c0-7.89-0.43-14.879-1.28-20.959c-0.855-6.08-2.615-11.361-5.28-15.841c-2.67-4.479-6.56-8.159-11.68-11.04
		c-5.12-2.88-11.84-4.96-20.16-6.24c-0.855-0.209-2.83-0.529-5.92-0.959c-3.095-0.426-6.295-1.011-9.6-1.761
		c-3.31-0.745-6.295-1.6-8.96-2.56c-2.67-0.961-4-1.971-4-3.04c0-0.64,0.21-1.386,0.64-2.24c3.2,0,6.93,0.215,11.2,0.64
		c4.265,0.43,8.69,1.121,13.28,2.08c4.585,0.961,9.01,2.08,13.28,3.36c2.77,0.854,5.44,1.815,8,2.88
		c-2.35-1.064-4.8-2.025-7.36-2.88c-4.27-1.49-8.64-2.771-13.12-3.84c-4.48-1.065-8.8-1.865-12.96-2.4
		c-4.16-0.53-7.95-0.8-11.36-0.8l-1.28-5.76h-1.6c-3.63,0-7.15,0.64-10.56,1.92c-3.415,1.279-6.935,1.92-10.56,1.92
		c-0.855,0-1.71-0.266-2.56-0.801c-0.855-0.529-1.28-1.329-1.28-2.399c0-1.49,0.53-3.145,1.6-4.96c1.065-1.81,2.29-3.465,3.68-4.96
		c1.385-1.49,2.93-2.88,4.64-4.16C263.466,384.377,264.961,383.417,266.241,382.777z M348.801,497.657
		c2.345-9.385,3.945-18.56,4.8-27.521c0.21-1.064,0.37-2.184,0.48-3.359c0.105-1.17,0.16-2.29,0.16-3.359
		c0-5.545-0.96-10.881-2.88-16c-1.92-5.121-4.055-10.025-6.4-14.721c4.48,11.311,6.72,23.15,6.72,35.52
		c0,9.601-1.07,19.201-3.2,28.801c-2.135,9.39-4.8,18.455-8,27.199C343.891,515.473,346.666,506.617,348.801,497.657z"/>
	<path fill="#103653" stroke="#103653" stroke-width="8" stroke-miterlimit="10" d="M477.76,590.137
		c2.129-8.959,3.944-18.879,5.439-29.76c1.49-10.879,2.45-20.904,2.88-30.08c-0.43,3.84-0.854,8.215-1.28,13.121
		c-0.43,4.91-1.015,9.869-1.76,14.879c-0.75,5.016-1.6,9.871-2.561,14.561c-0.959,4.695-2.189,8.855-3.68,12.48
		c-1.07-2.346-1.654-4.851-1.76-7.521c-0.109-2.665-0.16-5.28-0.16-7.84c0-3.2,0.211-6.985,0.641-11.36
		c0.425-4.369,0.904-8.85,1.439-13.439c0.53-4.586,1.065-9.12,1.6-13.6c0.531-4.48,0.906-8.32,1.121-11.521l2.56-2.88
		c0-0.641-0.056-1.17-0.16-1.6c-0.11-0.426-0.159-0.851-0.159-1.281c0-0.64,0.049-1.33,0.159-2.08c0.104-0.744,0.16-1.76,0.16-3.039
		c0-6.61,0.37-13.49,1.12-20.641c0.744-7.145,1.6-14.289,2.561-21.439c0.959-7.145,1.809-14.24,2.559-21.28
		c0.746-7.04,1.121-13.97,1.121-20.8l-3.2,2.561c-1.07,10.239-2.136,20.909-3.2,32c-0.855,10.454-1.6,20.694-2.24,30.719
		l0.641-29.76c0.209-4.479,0.8-9.76,1.76-15.84s1.65-11.465,2.08-16.16c-1.711,1.07-4.11,2.561-7.2,4.48
		c-3.095,1.92-6.615,4.16-10.56,6.72c-3.951,2.56-8,5.175-12.16,7.841c-4.16,2.67-8,5.174-11.521,7.52
		c-3.521,2.35-6.56,4.48-9.12,6.4c-2.56,1.92-4.16,3.31-4.8,4.159c-0.854-1.704-2.295-2.825-4.319-3.36
		c-2.031-0.529-3.15-1.76-3.36-3.68c0.64-1.705,1.6-3.359,2.88-4.96c1.279-1.6,2.561-3.04,3.84-4.319l-1.92-1.92
		c-1.279,0.64-2.88,1.549-4.8,2.719c-1.921,1.176-3.896,2.24-5.921,3.201c-2.029,0.959-4.055,1.814-6.079,2.56
		c-2.03,0.75-3.79,1.12-5.28,1.12c-2.135-0.85-3.199-2.131-3.199-3.84c0-5.33,2.77-10.61,8.319-15.84
		c5.545-5.226,12.69-10.666,21.44-16.32c8.744-5.65,18.449-11.73,29.119-18.24c10.666-6.505,21.121-13.81,31.36-21.92l28.16,11.52
		c1.065,2.775,1.92,6.4,2.56,10.88c0.641,4.479,0.961,8.215,0.961,11.199v8c0,4.695-0.056,9.28-0.16,13.76
		c-0.11,4.48-0.695,9.07-1.76,13.761c-1.281,6.614-2.351,14.614-3.201,24c-0.854,9.39-1.6,19.255-2.24,29.601
		c-0.639,10.35-1.229,20.59-1.76,30.719c-0.535,10.136-1.229,19.256-2.08,27.36c-0.854,8.11-1.92,14.671-3.199,19.681
		c-1.28,5.01-2.881,7.52-4.801,7.52c-0.43,0-1.069-0.215-1.92-0.641c1.065-4.264,2.131-8.744,3.201-13.439
		c1.064-4.689,1.6-9.17,1.6-13.439v-7.681c-0.641,5.55-1.391,11.095-2.24,16.64c-0.855,5.761-2.03,11.416-3.52,16.961
		c-0.855-0.43-1.92-0.641-3.201-0.641c-1.709,0-2.83,0.745-3.359,2.24c-0.535,1.49-1.07,3.145-1.6,4.96
		c-0.535,1.81-1.23,3.465-2.08,4.96c-0.855,1.49-2.35,2.24-4.48,2.24c-2.775,0-4.75-1.28-5.92-3.84
		C479.944,594.617,478.824,592.268,477.76,590.137z M487.039,516.217c0.85-6.185,1.439-12.264,1.76-18.239
		c0.32-5.97,0.586-11.841,0.801-17.601c0.209-5.76,0.425-11.41,0.64-16.959c0-3.41,0.21-6.826,0.64-10.24
		c-1.279,9.39-2.135,18.775-2.56,28.16C487.889,492.857,487.465,504.487,487.039,516.217z M509.76,493.817
		c-0.431,10.03-0.855,20.375-1.281,31.04c1.066-10.665,1.921-21.225,2.561-31.68c0.641-10.24,1.6-20.48,2.881-30.721
		C511.569,473.338,510.184,483.793,509.76,493.817z"/>
	<path fill="#103653" stroke="#103653" stroke-width="8" stroke-miterlimit="10" d="M564.795,612.857
		c3.199-10.88,7.04-21.654,11.52-32.32c4.48-10.664,9.811-21.119,16-31.359c-6.189,9.6-11.895,19.574-17.119,29.92
		c-5.23,10.345-9.656,21.279-13.281,32.8c0-5.976,0.801-12.16,2.4-18.56c1.6-6.4,3.73-12.69,6.4-18.881
		c2.665-6.185,5.76-12.32,9.279-18.399c3.521-6.08,7.201-11.89,11.041-17.44l4.479-0.64c4.69-8.32,9.97-16.32,15.841-24
		c5.864-7.681,12-14.985,18.399-21.92c6.399-6.931,12.905-13.601,19.521-20c6.609-6.4,13.01-12.585,19.199-18.56
		c-0.64,0-1.279-0.051-1.92-0.16c-0.641-0.105-1.279-0.16-1.92-0.16l-20.16,21.439c-8.75,9.176-17.494,18.67-26.24,28.48
		c-7.254,7.895-14.189,16.32-20.8,25.279c9.386-13.01,19.2-25.279,29.44-36.799c11.945-13.011,23.89-25.811,35.84-38.4
		c-8.32-0.426-17.335-0.801-27.04-1.12c-9.71-0.32-22.136-0.479-37.28-0.479c-7.255-1.49-14.295-2.506-21.119-3.041
		c-6.83-0.529-13.871-0.8-21.121-0.8c0.426-0.425,0.641-1.065,0.641-1.92c0-1.065-0.16-2.024-0.48-2.88
		c-0.32-0.85-0.479-1.811-0.479-2.88c0-1.065,0.69-2.025,2.079-2.88c1.386-0.85,4.211-1.28,8.48-1.28c1.065,0,2.131,0.056,3.2,0.16
		c1.065,0.11,2.345,0.159,3.84,0.159v-2.879c-8.319-1.49-14.88-3.36-19.68-5.601c-4.8-2.239-7.2-4.53-7.2-6.88
		c0-1.92,1.439-3.465,4.32-4.641c2.88-1.17,6.609-2.08,11.199-2.719c4.586-0.641,9.865-1.121,15.84-1.44
		c5.971-0.32,12.051-0.479,18.24-0.479c6.4,0,13.01,0.109,19.84,0.319c6.826,0.215,14.4,0.479,22.721,0.8s17.65,0.695,28,1.12
		c10.345,0.431,22.13,0.854,35.359,1.28c2.131,2.99,4.211,6.35,6.24,10.08c2.025,3.734,3.891,7.359,5.6,10.88
		c1.705,3.521,3.091,6.614,4.16,9.28c1.065,2.67,1.811,4.43,2.24,5.279c-10.029,10.03-20.055,19.95-30.08,29.76
		c-10.029,9.815-19.84,19.791-29.439,29.92c-9.6,10.136-18.721,20.48-27.36,31.041c-8.64,10.56-16.479,21.6-23.521,33.119
		c-2.559,4.271-4.694,8.855-6.399,13.76c-1.71,4.906-3.2,9.545-4.479,13.92c-1.28,4.371-2.561,8-3.84,10.881
		c-1.281,2.88-2.775,4.32-4.48,4.32c-0.43,0-1.07-0.215-1.92-0.641c4.265-18.561,11.09-36.369,20.48-53.439
		c-4.91,8.109-9.281,16.535-13.121,25.279c-3.84,8.745-6.935,17.811-9.279,27.2l-3.84-0.96c-0.641,0-1.23,0.905-1.76,2.721
		c-0.535,1.81-1.176,3.84-1.92,6.08c-0.75,2.239-1.711,4.264-2.881,6.079c-1.175,1.81-2.72,2.72-4.64,2.72
		c-2.56,0-4.32-1.39-5.28-4.16c-0.96-2.774-2.189-6.295-3.68-10.56L564.795,612.857z M594.875,532.217
		c0.85-1.279,1.705-2.56,2.56-3.84C596.58,529.657,595.725,530.938,594.875,532.217z M661.115,466.617
		c-8.75,8.75-17.28,17.655-25.601,26.721c-8.319,9.069-16.319,18.615-24,28.64l0.32-0.32c7.465-8.96,15.569-18.239,24.319-27.84
		C644.9,484.217,653.22,475.152,661.115,466.617z M657.275,505.338c-5.121,3.84-9.601,7.68-13.44,11.52
		c-3.841,3.84-7.255,7.68-10.24,11.52c-2.989,3.84-5.87,7.735-8.64,11.681c-2.775,3.95-5.551,8.055-8.32,12.319
		C628.58,535.098,642.125,519.418,657.275,505.338z M696.955,426.297l-1.6-3.84l-3.521,1.92c1.065,3.416,1.97,6.936,2.72,10.561
		c0.745,3.63,1.439,7.255,2.08,10.88L696.955,426.297z"/>
</g>
</svg>
