<?xml version="1.0" encoding="utf-8"?>
<!-- Generator: Adobe Illustrator 15.0.0, SVG Export Plug-In . SVG Version: 6.00 Build 0)  -->
<!DOCTYPE svg PUBLIC "-//W3C//DTD SVG 1.1//EN" "http://www.w3.org/Graphics/SVG/1.1/DTD/svg11.dtd">
<svg version="1.1" id="Calque_1" xmlns="http://www.w3.org/2000/svg" xmlns:xlink="http://www.w3.org/1999/xlink" x="0px" y="0px"
	 width="800px" height="800px" viewBox="0 0 800 800" enable-background="new 0 0 800 800" xml:space="preserve">
<path fill="#F79927" d="M159.943,63.673h32v96h-32V63.673z"/>
<path fill="#F8F9F6" d="M64,719.913c0,8.838,7.164,16,16,16h640c8.837,0,16-7.162,16-16v-432H64V719.913z"/>
<path fill="#50C2C8" d="M720,128.172h-48v32c0,17.673-14.327,32-32,32h-32c-17.673,0-32-14.327-32-32v-32H448v32
	c0,17.673-14.327,32-32,32h-32c-17.674,0-32-14.327-32-32v-32H224v32c0,17.673-14.327,32-32,32h-32c-17.673,0-32-14.327-32-32v-32
	H80c-8.836,0-16,7.164-16,16v112h672v-112C736,135.336,728.837,128.172,720,128.172z"/>
<path fill="#103653" d="M720,96h-48V64c0-17.673-14.327-32-32-32h-32c-17.673,0-32,14.327-32,32v32H448V64c0-17.673-14.327-32-32-32
	h-32c-17.673,0-32,14.327-32,32v32H224V64c0-17.673-14.327-32-32-32h-32c-17.673,0-32,14.327-32,32v32H80c-26.51,0-48,21.49-48,48
	v576c0,26.51,21.49,48,48,48h640c26.51,0,48-21.49,48-48V144C768,117.49,746.51,96,720,96z M608,64h32v96h-32V64z M384,64h32v46.08
	c0,0,0,0,0,1.92s0,0,0,2.24V160h-32V64z M160,64h32v96h-32V64z M80,128h48v32c0,17.673,14.327,32,32,32h32c17.673,0,32-14.327,32-32
	v-32h128v32c0,17.673,14.327,32,32,32h32c17.673,0,32-14.327,32-32v-32h128v32c0,17.673,14.327,32,32,32h32
	c17.673,0,32-14.327,32-32v-32h48c8.837,0,16,7.164,16,16v112H64V144C64,135.164,71.164,128,80,128z M720,736H80
	c-8.836,0-16-7.163-16-16V288h672v432C736,728.837,728.837,736,720,736z"/>
<path fill="#F79927" d="M416,113.913c0-2.24,0-0.32,0-2.24s0-1.92,0-1.92v-46.08h-32v96h32V113.913z"/>
<rect x="607.943" y="63.673" fill="#F79927" width="32" height="96"/>
<g>
	<path fill="#103653" stroke="#103653" stroke-width="7.9077" stroke-miterlimit="10" d="M199.233,588.406
		c0,1.304-0.545,2.502-1.631,3.587c-1.091,1.086-2.339,2.064-3.751,2.937c-1.417,0.866-2.992,1.631-4.73,2.282l-3.914,1.632
		c-1.957-0.872-4.241-1.58-6.85-2.121c-2.61-0.545-5.383-0.927-8.318-1.141c-2.936-0.221-5.821-0.383-8.644-0.49
		c-2.829-0.112-5.331-0.162-7.502-0.162c-10.224,0-20.387,0.27-30.499,0.814c-10.111,0.54-20.28,1.03-30.499,1.468
		c2.39,0.215,4.673,0.326,6.85,0.326h7.176c6.305,0,12.609-0.111,18.919-0.326c6.304-0.219,12.609-0.324,18.918-0.324
		c5.652,0,11.254,0.212,16.799,0.65c5.545,0.434,11.142,1.192,16.799,2.283c-3.262,1.086-8.318,1.901-15.168,2.447
		c-6.85,0.539-14.026,0.978-21.529,1.304c-7.502,0.327-14.734,0.541-21.692,0.652c-6.962,0.108-12.395,0.165-16.31,0.165
		l-2.609-3.59c-0.438,0-0.816,0.052-1.142,0.164c-0.326,0.106-0.708,0.163-1.141,0.163c-0.872,0-1.744-0.057-2.61-0.163
		c-0.872-0.112-1.85-0.164-2.936-0.164h-2.283c-0.652,0-1.305,0.215-1.957,0.653c-1.958,0-3.864-0.112-5.709-0.326
		c-1.85-0.22-3.751-0.327-5.708-0.327l-6.524-32.293l7.503-3.913c8.481-5.652,16.798-11.469,24.953-17.452
		c8.155-5.978,15.765-12.502,22.833-19.57c7.064-7.065,13.481-14.68,19.246-22.834c5.759-8.155,10.489-17.232,14.189-27.237
		l-0.979-1.957c2.61-5.22,4.455-10.055,5.545-14.516c1.086-4.454,1.631-8.97,1.631-13.537c0-7.608-1.743-12.721-5.219-15.33
		c-3.481-2.61-7.94-3.916-13.374-3.916c-7.396,0-13.813,2.014-19.246,6.036c-5.438,4.026-10.004,8.756-13.7,14.189
		c-1.091-1.738-2.666-2.881-4.73-3.425c-2.069-0.54-3.099-1.683-3.099-3.425c0-2.392,1.249-4.782,3.751-7.178
		c2.498-2.39,4.511-4.24,6.035-5.545l-1.957-2.936c-0.872,0.652-2.61,1.794-5.219,3.426c-2.61,1.631-5.332,3.373-8.155,5.219
		c-2.829,1.85-5.495,3.48-7.992,4.893c-2.502,1.416-4.19,2.121-5.056,2.121c-2.61,0-3.914-1.412-3.914-4.241
		c0-5.872,2.064-11.58,6.197-17.124c4.128-5.547,9.185-10.439,15.168-14.68c5.979-4.241,12.446-7.666,19.408-10.275
		c6.957-2.609,13.374-3.914,19.246-3.914c8.695,0,16.798,0.979,24.301,2.936c7.502,1.957,14.077,5.112,19.734,9.458
		c5.652,4.354,10.112,9.95,13.374,16.8c3.262,6.85,4.893,15.062,4.893,24.627c0,11.962-2.339,23.925-7.013,35.881
		c-4.679,11.963-10.82,23.272-18.43,33.925c-7.614,10.657-16.258,20.499-25.932,29.521c-9.679,9.025-19.521,16.584-29.521,22.669
		c2.171-0.213,4.837-0.433,7.992-0.652c3.15-0.214,6.467-0.432,9.949-0.651c3.476-0.215,6.794-0.378,9.949-0.489
		c3.15-0.107,5.815-0.164,7.992-0.164c3.042,0,6.305,0.383,9.786,1.143c3.476,0.764,6.412,2.119,8.807,4.077l-0.652,1.958
		c-6.31-0.653-12.507-0.979-18.593-0.979c-2.829,0-6.147,0.057-9.949,0.163c-3.807,0.112-7.666,0.275-11.58,0.49
		c-3.915,0.218-7.778,0.438-11.58,0.651c-3.808,0.219-7.125,0.438-9.949,0.652v0.326c2.171,0,4.944-0.052,8.317-0.162
		c3.37-0.107,6.85-0.215,10.438-0.327c3.588-0.106,7.013-0.214,10.275-0.326c3.262-0.106,6.086-0.163,8.481-0.163
		c3.915,0,7.772,0.163,11.58,0.489c3.802,0.327,7.666,0.709,11.58,1.143c-0.652,1.09-0.979,1.956-0.979,2.608
		c0,1.744,1.143,2.828,3.426,3.263c2.283,0.438,4.78,0.927,7.502,1.467c2.716,0.546,5.219,1.255,7.502,2.121
		C198.091,584.711,199.233,586.234,199.233,588.406z M74.628,573.4l7.828-3.914l-0.326-0.979c-1.305,1.091-2.721,1.852-4.24,2.285
		c-1.524,0.438-2.936,0.978-4.241,1.631v0.978H74.628z M77.563,602.758c0.434,0,1.631,0.05,3.588,0.163
		c1.958,0.107,4.021,0.27,6.198,0.489c2.171,0.214,4.185,0.489,6.034,0.814c1.845,0.326,2.987,0.598,3.425,0.816l-18.919-1.305
		L77.563,602.758z M80.173,561.332c5.652-3.477,12.013-8.207,19.083-14.19c7.063-5.978,14.132-12.608,21.202-19.896
		c7.064-7.284,13.751-15.057,20.061-23.323c6.305-8.263,11.63-16.524,15.983-24.79c-3.262,7.175-7.777,14.897-13.537,23.158
		c-5.765,8.267-12.181,16.26-19.245,23.977c-7.07,7.721-14.409,14.733-22.019,21.039C94.087,553.614,86.91,558.288,80.173,561.332z
		 M134.32,525.451c-7.614,7.613-15.442,14.897-23.485,21.854c-8.047,6.962-16.636,13.373-25.769,19.244l1.631,0.326
		c9.133-5.651,17.558-12.067,25.279-19.244C119.693,540.455,127.144,533.064,134.32,525.451z M122.904,562.963
		c4.129-1.957,8.262-5.326,12.395-10.112l-19.245,13.374C117.792,565.357,120.075,564.269,122.904,562.963z"/>
	<path fill="#103653" stroke="#103653" stroke-width="7.9077" stroke-miterlimit="10" d="M265.771,385.515
		c14.353,0,28.16,1.253,41.426,3.751c13.261,2.502,24.954,6.962,35.065,13.374c10.112,6.417,18.155,15.061,24.138,25.932
		c5.979,10.876,8.971,24.685,8.971,41.426c0,16.096-1.744,32.187-5.219,48.276c-3.262,15.006-8.481,29.145-15.657,42.405
		c7.176-12.608,12.502-25.77,15.983-39.468c3.914-15.005,5.871-30.336,5.871-45.994c0-13.48-1.304-25.06-3.914-34.74
		c-2.609-9.673-6.799-17.939-12.558-24.79c-5.764-6.85-13.16-12.502-22.181-16.961c-9.026-4.455-19.954-8.206-32.782-11.254
		c-5.005-1.085-9.949-2.17-14.842-3.262c-4.893-1.085-10.061-1.631-15.494-1.631c5.219-1.519,10.872-2.283,16.962-2.283
		c8.481,0,17.125,1.091,25.932,3.262c8.808,2.176,17.069,5.382,24.791,9.623c7.717,4.24,14.623,9.572,20.714,15.983
		c6.085,6.418,10.545,13.863,13.373,22.344l-3.914,0.979c3.043,6.31,5.219,12.833,6.524,19.571
		c1.305,6.742,1.957,13.592,1.957,20.551c0,8.479-0.708,17.776-2.12,27.889c-1.417,10.112-3.644,20.28-6.687,30.499
		c-3.047,10.224-6.962,20.117-11.743,29.683c-4.786,9.572-10.494,17.997-17.125,25.28c-6.636,7.283-14.246,13.154-22.833,17.613
		c-8.593,4.456-18.216,6.688-28.868,6.688c-1.09,0-2.283-0.056-3.588-0.162c-1.305-0.112-2.502-0.275-3.588-0.489l0.979,1.956
		c1.304,0.215,2.66,0.378,4.077,0.489c1.412,0.108,2.773,0.164,4.078,0.164c10.652,0,20.275-2.232,28.868-6.688
		c8.588-4.46,16.198-10.386,22.834-17.777c6.63-7.39,12.338-15.82,17.124-25.281c4.782-9.458,8.696-19.352,11.744-29.682
		c3.042-10.327,5.326-20.602,6.85-30.826c1.519-10.218,2.284-19.678,2.284-28.378c0-10.87-1.305-21.528-3.915-31.966
		c1.519,5.656,2.773,11.365,3.751,17.124c0.979,5.765,1.468,11.474,1.468,17.126c0,9.353-0.765,19.244-2.283,29.683
		c-1.524,10.438-3.863,20.714-7.014,30.825c-3.155,10.111-7.232,19.848-12.231,29.194c-5.005,9.353-10.984,17.563-17.941,24.627
		c-6.962,7.064-15.004,12.722-24.138,16.963c-9.134,4.239-19.358,6.359-30.662,6.359c-8.7,0-16.203-1.957-22.507-5.871
		c-6.31-3.914-11.58-9.082-15.82-15.493c-4.24-6.412-7.666-13.701-10.275-21.854c-2.609-8.155-4.567-16.524-5.872-25.118
		c-1.305-8.588-2.177-16.961-2.609-25.116c-0.438-8.154-0.652-15.382-0.652-21.691c0-14.353,2.008-28.268,6.034-41.752
		c4.021-13.481,10.163-26.096,18.43-37.839c0.214,1.304,0.759,2.12,1.631,2.446c0.866,0.327,1.682,0.601,2.447,0.815
		c0.759,0.219,1.467,0.489,2.121,0.815c0.652,0.326,0.978,1.035,0.978,2.12c0,0.653-0.438,2.013-1.304,4.078
		c-0.872,2.068-1.85,4.351-2.935,6.85c-1.091,2.502-2.121,4.842-3.1,7.013c-0.978,2.177-1.58,3.588-1.794,4.24l2.936,0.979
		c0.866-1.52,2.008-3.369,3.425-5.546c1.412-2.171,3.042-4.24,4.893-6.198c1.845-1.957,3.802-3.587,5.872-4.893
		c2.064-1.305,4.078-1.957,6.035-1.957c2.823,0,4.566,0.546,5.219,1.631c0.653,1.092,0.979,2.829,0.979,5.219
		c0,2.61-0.602,6.361-1.795,11.255c-1.197,4.893-2.558,10.438-4.077,16.635c-1.523,6.198-2.885,12.671-4.077,19.409
		c-1.197,6.742-1.794,13.16-1.794,19.245c0,1.957,0.107,5.168,0.326,9.622c0.214,4.461,0.597,9.409,1.142,14.842
		c0.54,5.438,1.304,11.04,2.283,16.799c0.979,5.765,2.228,11.04,3.751,15.82c1.519,4.785,3.425,8.701,5.708,11.743
		c2.284,3.048,4.943,4.566,7.991,4.566c5.872,0,11.198-1.9,15.984-5.709c4.781-3.801,9.133-8.693,13.047-14.679
		c3.915-5.978,7.283-12.771,10.112-20.386c2.823-7.609,5.219-15.168,7.176-22.671s3.426-14.622,4.404-21.365
		c0.979-6.737,1.468-12.283,1.468-16.636c0-8.042-0.438-15.168-1.305-21.365c-0.872-6.197-2.666-11.579-5.382-16.146
		c-2.722-4.566-6.688-8.317-11.906-11.254c-5.219-2.936-12.069-5.056-20.55-6.361c-0.872-0.213-2.885-0.539-6.035-0.978
		c-3.154-0.434-6.417-1.03-9.786-1.794c-3.374-0.76-6.417-1.631-9.133-2.61c-2.721-0.978-4.077-2.009-4.077-3.098
		c0-0.653,0.214-1.412,0.652-2.283c3.262,0,7.065,0.218,11.417,0.651c4.348,0.438,8.858,1.143,13.537,2.121
		c4.674,0.979,9.185,2.119,13.538,3.424c2.823,0.871,5.545,1.85,8.155,2.937c-2.396-1.087-4.893-2.065-7.502-2.937
		c-4.353-1.519-8.807-2.824-13.374-3.913c-4.567-1.087-8.97-1.901-13.211-2.447c-4.241-0.541-8.104-0.814-11.58-0.814l-1.305-5.873
		h-1.631c-3.7,0-7.288,0.653-10.764,1.957c-3.481,1.305-7.069,1.958-10.764,1.958c-0.872,0-1.743-0.271-2.609-0.814
		c-0.872-0.541-1.305-1.356-1.305-2.447c0-1.519,0.541-3.206,1.631-5.057c1.085-1.844,2.334-3.532,3.751-5.055
		c1.412-1.519,2.986-2.936,4.73-4.241C262.942,387.145,264.466,386.167,265.771,385.515z M349.928,502.616
		c2.391-9.565,4.021-18.918,4.893-28.052c0.214-1.086,0.377-2.228,0.489-3.425c0.107-1.192,0.164-2.334,0.164-3.425
		c0-5.652-0.979-11.09-2.936-16.31s-4.133-10.22-6.524-15.006c4.567,11.529,6.85,23.599,6.85,36.209
		c0,9.786-1.091,19.571-3.262,29.355c-2.177,9.571-4.893,18.813-8.155,27.727C344.923,520.777,347.752,511.75,349.928,502.616z"/>
	<path fill="#103653" stroke="#103653" stroke-width="7.9077" stroke-miterlimit="10" d="M481.381,596.888
		c2.172-9.135,4.021-19.247,5.547-30.338c1.519-11.09,2.496-21.309,2.935-30.662c-0.438,3.916-0.87,8.375-1.304,13.375
		c-0.438,5.005-1.035,10.061-1.795,15.167c-0.765,5.112-1.631,10.062-2.609,14.842c-0.978,4.786-2.232,9.026-3.751,12.722
		c-1.091-2.391-1.687-4.943-1.794-7.664c-0.112-2.719-0.163-5.383-0.163-7.993c0-3.262,0.214-7.12,0.653-11.58
		c0.432-4.453,0.922-9.021,1.467-13.699c0.541-4.674,1.085-9.296,1.631-13.863c0.54-4.567,0.922-8.48,1.142-11.742l2.609-2.936
		c0-0.653-0.056-1.194-0.163-1.632c-0.112-0.434-0.162-0.867-0.162-1.305c0-0.652,0.05-1.355,0.162-2.12
		c0.107-0.76,0.163-1.795,0.163-3.099c0-6.737,0.377-13.751,1.142-21.04c0.76-7.283,1.631-14.566,2.61-21.854
		c0.979-7.283,1.845-14.516,2.609-21.691c0.76-7.177,1.142-14.24,1.142-21.203l-3.263,2.609c-1.09,10.439-2.176,21.315-3.261,32.619
		c-0.873,10.658-1.631,21.096-2.284,31.314l0.653-30.335c0.214-4.567,0.814-9.949,1.793-16.147
		c0.979-6.197,1.682-11.686,2.12-16.472c-1.742,1.091-4.189,2.609-7.339,4.565c-3.154,1.958-6.743,4.241-10.765,6.852
		c-4.025,2.608-8.155,5.274-12.394,7.991c-4.241,2.723-8.155,5.273-11.744,7.665c-3.589,2.395-6.687,4.566-9.296,6.524
		c-2.61,1.957-4.241,3.374-4.895,4.239c-0.87-1.737-2.339-2.879-4.403-3.425c-2.068-0.54-3.211-1.793-3.425-3.75
		c0.652-1.738,1.631-3.426,2.936-5.058c1.307-1.63,2.61-3.098,3.915-4.402l-1.957-1.957c-1.305,0.652-2.936,1.58-4.894,2.773
		c-1.956,1.196-3.97,2.281-6.033,3.261c-2.069,0.979-4.134,1.85-6.199,2.609c-2.068,0.765-3.863,1.142-5.382,1.142
		c-2.176-0.866-3.262-2.17-3.262-3.914c0-5.433,2.824-10.815,8.481-16.146c5.652-5.326,12.936-10.872,21.854-16.637
		c8.914-5.758,18.808-11.956,29.684-18.592c10.871-6.631,21.529-14.077,31.967-22.344l28.704,11.743
		c1.086,2.829,1.958,6.524,2.611,11.091c0.651,4.566,0.978,8.374,0.978,11.417v8.154c0,4.786-0.056,9.46-0.163,14.026
		c-0.112,4.566-0.709,9.246-1.794,14.025c-1.305,6.744-2.396,14.898-3.263,24.465c-0.87,9.572-1.631,19.628-2.282,30.173
		c-0.653,10.551-1.255,20.989-1.795,31.314c-0.544,10.331-1.253,19.629-2.12,27.89c-0.871,8.266-1.958,14.954-3.262,20.061
		c-1.305,5.106-2.936,7.666-4.894,7.666c-0.438,0-1.09-0.221-1.956-0.652c1.085-4.349,2.171-8.915,3.263-13.701
		c1.084-4.781,1.63-9.347,1.63-13.699V559.7c-0.651,5.657-1.417,11.31-2.283,16.962c-0.872,5.871-2.069,11.636-3.589,17.288
		c-0.87-0.438-1.957-0.652-3.261-0.652c-1.744,0-2.886,0.76-3.425,2.284c-0.547,1.518-1.092,3.205-1.631,5.057
		c-0.546,1.844-1.255,3.53-2.12,5.055c-0.873,1.519-2.396,2.283-4.568,2.283c-2.828,0-4.842-1.305-6.033-3.914
		C483.608,601.453,482.469,599.057,481.381,596.888z M490.841,521.536c0.867-6.306,1.469-12.502,1.795-18.593
		c0.326-6.085,0.596-12.068,0.815-17.941c0.215-5.87,0.433-11.63,0.652-17.287c0-3.477,0.214-6.957,0.652-10.438
		c-1.305,9.572-2.177,19.138-2.609,28.704C491.708,497.725,491.274,509.58,490.841,521.536z M514,498.703
		c-0.438,10.224-0.87,20.77-1.304,31.641c1.086-10.871,1.957-21.637,2.608-32.293c0.653-10.439,1.632-20.877,2.937-31.315
		C515.846,477.825,514.435,488.484,514,498.703z"/>
	<path fill="#103653" stroke="#103653" stroke-width="7.9077" stroke-miterlimit="10" d="M585.759,611.239
		c0-4.567,2.716-9.027,8.153-13.374c5.435-4.353,12.177-8.915,20.226-13.701c8.043-4.78,16.85-9.948,26.422-15.493
		c9.566-5.546,18.373-11.743,26.42-18.593c8.043-6.85,14.786-14.46,20.226-22.833c5.432-8.369,8.153-17.778,8.153-28.216
		c0-9.786-1.85-19.46-5.545-29.032c-3.7-9.565-8.481-18.153-14.353-25.77c5.652,8.049,10.163,16.856,13.537,26.423
		c3.369,9.571,5.056,19.246,5.056,29.031c0,7.614-1.631,14.679-4.893,21.202s-7.558,12.67-12.884,18.43
		c-5.332,5.765-11.417,11.091-18.268,15.983c-6.85,4.894-13.863,9.459-21.039,13.699c-7.176,4.241-14.189,8.212-21.04,11.906
		c-6.849,3.7-13.104,7.069-18.756,10.111c5.001-5.87,10.438-10.87,16.31-15.005c5.872-4.127,11.851-8.098,17.941-11.905
		c6.085-3.801,12.176-7.717,18.267-11.742c6.085-4.021,11.851-8.645,17.287-13.862l4.567,0.651
		c4.78-5.433,8.97-11.467,12.559-18.104c3.588-6.631,5.382-13.645,5.382-21.039c0-9.133-1.143-18.536-3.425-28.216
		c-2.283-9.673-5.82-18.43-10.602-26.259c-4.786-7.829-10.876-14.296-18.267-19.408c-7.395-5.106-16.097-7.666-26.095-7.666v1.957
		c9.348,1.305,17.558,4.354,24.627,9.134c7.063,4.785,12.936,10.714,17.615,17.778c4.674,7.068,8.205,15.006,10.601,23.812
		c2.39,8.808,3.588,17.889,3.588,27.237c0,6.523-1.417,12.721-4.241,18.593c-2.176,4.566-4.892,8.92-8.154,13.048
		c3.042-4.128,5.653-8.481,7.828-13.048c2.61-5.872,3.916-12.176,3.916-18.919c0-10.653-1.632-20.657-4.894-30.01
		c-3.262-9.348-7.886-17.502-13.862-24.464c-5.985-6.957-13.211-12.447-21.692-16.474c-8.481-4.021-17.941-6.034-28.379-6.034
		c-6.523,0-12.232,1.035-17.125,3.098c-4.893,2.07-7.34,4.843-7.34,8.319c0,6.09,1.957,11.473,5.872,16.146
		c3.914,4.68,9.077,8.645,15.493,11.905c6.412,3.263,13.752,5.709,22.019,7.341c8.263,1.631,16.636,2.445,25.117,2.445v1.958
		c0,1.091,0.05,1.958,0.162,2.609c0.107,0.652,0.164,1.305,0.164,1.957c0,2.178-1.198,3.481-3.589,3.915
		c-2.395,0.438-4.239,0.652-5.545,0.652c-1.957,0-3.914-0.108-5.871-0.327c-1.958-0.213-3.915-0.539-5.872-0.978l-0.978,3.914
		c1.304,0.438,3.802,1.034,7.502,1.794c3.695,0.765,7.553,1.744,11.58,2.936c4.021,1.197,7.608,2.56,10.764,4.077
		c3.15,1.524,4.729,3.048,4.729,4.567c0,1.305-1.035,2.502-3.099,3.588c-2.069,1.09-4.403,1.957-7.014,2.608
		c-2.608,0.653-5.168,1.143-7.664,1.469c-2.503,0.325-4.189,0.489-5.058,0.489c-10.438,0-21.421-1.468-32.944-4.403
		c-11.528-2.937-22.075-7.391-31.641-13.374c-9.572-5.979-17.45-13.48-23.649-22.508c-6.198-9.021-9.296-19.623-9.296-31.803
		c0-8.695,1.793-16.197,5.383-22.508c3.588-6.304,8.316-11.467,14.189-15.494c5.871-4.021,12.557-6.957,20.061-8.807
		c7.502-1.845,15.167-2.772,22.995-2.772c16.524,0,31.422,2.721,44.689,8.154c13.261,5.438,24.464,13.104,33.598,22.997
		c9.134,9.897,16.146,21.746,21.04,35.555c4.892,13.812,7.338,29.193,7.338,46.156c0,10.004-1.36,19.081-4.077,27.236
		c-2.722,8.154-6.473,15.657-11.254,22.507c-4.786,6.851-10.438,13.211-16.962,19.083c-6.523,5.871-13.594,11.416-21.202,16.636
		c-2.177,1.524-5.765,4.026-10.765,7.502c-5.004,3.477-10.33,7.013-15.983,10.602c-5.656,3.588-11.039,6.794-16.146,9.622
		c-5.111,2.824-8.756,4.349-10.927,4.567l-1.956-1.957c11.955-8.048,24.081-15.877,36.369-23.486
		c12.283-7.609,23.647-16.416,34.087-26.421c-10.657,9.786-22.131,18.379-34.412,25.77c-12.289,7.39-24.63,14.784-37.023,22.18
		l-1.958-4.893c-1.091,0.866-2.559,1.9-4.403,3.1c-1.85,1.192-3.807,2.282-5.871,3.261c-2.069,0.979-4.133,1.794-6.198,2.447
		c-2.068,0.652-3.751,0.978-5.055,0.978C587.278,615.479,585.759,614.063,585.759,611.239z M673.178,532.626
		c0.652-0.865,1.304-1.738,1.957-2.608C674.481,530.888,673.83,531.761,673.178,532.626z M695.686,552.197
		c-0.872,0.872-1.632,1.744-2.283,2.611L695.686,552.197z M710.69,530.344c4.779-9.133,7.176-20.005,7.176-32.619
		c0-6.738-0.765-13.808-2.284-21.203c0.435,3.048,0.866,6.09,1.305,9.134c0.434,3.7,0.653,7.396,0.653,11.091
		c0,11.742-2.396,22.727-7.177,32.944c-3.7,7.614-8.267,14.679-13.698,21.202C702.535,543.937,707.209,537.087,710.69,530.344z
		 M715.256,474.239c0,0.438,0,0.764,0,0.978C715.256,475.003,715.256,474.677,715.256,474.239z"/>
</g>
</svg>
