<?xml version="1.0" encoding="utf-8"?>
<!-- Generator: Adobe Illustrator 15.0.0, SVG Export Plug-In . SVG Version: 6.00 Build 0)  -->
<!DOCTYPE svg PUBLIC "-//W3C//DTD SVG 1.1//EN" "http://www.w3.org/Graphics/SVG/1.1/DTD/svg11.dtd">
<svg version="1.1" id="Calque_1" xmlns="http://www.w3.org/2000/svg" xmlns:xlink="http://www.w3.org/1999/xlink" x="0px" y="0px"
	 width="800px" height="800px" viewBox="0 0 800 800" enable-background="new 0 0 800 800" xml:space="preserve">
<path fill="#F79927" d="M159.943,63.673h32v96h-32V63.673z"/>
<path fill="#F8F9F6" d="M64,719.913c0,8.838,7.164,16,16,16h640c8.837,0,16-7.162,16-16v-432H64V719.913z"/>
<path fill="#50C2C8" d="M720,128.172h-48v32c0,17.673-14.327,32-32,32h-32c-17.673,0-32-14.327-32-32v-32H448v32
	c0,17.673-14.327,32-32,32h-32c-17.674,0-32-14.327-32-32v-32H224v32c0,17.673-14.327,32-32,32h-32c-17.673,0-32-14.327-32-32v-32
	H80c-8.836,0-16,7.164-16,16v112h672v-112C736,135.336,728.837,128.172,720,128.172z"/>
<path fill="#103653" d="M720,96h-48V64c0-17.673-14.327-32-32-32h-32c-17.673,0-32,14.327-32,32v32H448V64c0-17.673-14.327-32-32-32
	h-32c-17.673,0-32,14.327-32,32v32H224V64c0-17.673-14.327-32-32-32h-32c-17.673,0-32,14.327-32,32v32H80c-26.51,0-48,21.49-48,48
	v576c0,26.51,21.49,48,48,48h640c26.51,0,48-21.49,48-48V144C768,117.49,746.51,96,720,96z M608,64h32v96h-32V64z M384,64h32v46.08
	c0,0,0,0,0,1.92s0,0,0,2.24V160h-32V64z M160,64h32v96h-32V64z M80,128h48v32c0,17.673,14.327,32,32,32h32c17.673,0,32-14.327,32-32
	v-32h128v32c0,17.673,14.327,32,32,32h32c17.673,0,32-14.327,32-32v-32h128v32c0,17.673,14.327,32,32,32h32
	c17.673,0,32-14.327,32-32v-32h48c8.837,0,16,7.164,16,16v112H64V144C64,135.164,71.164,128,80,128z M720,736H80
	c-8.836,0-16-7.163-16-16V288h672v432C736,728.837,728.837,736,720,736z"/>
<path fill="#F79927" d="M416,113.913c0-2.24,0-0.32,0-2.24s0-1.92,0-1.92v-46.08h-32v96h32V113.913z"/>
<rect x="607.943" y="63.673" fill="#F79927" width="32" height="96"/>
<g>
	<path fill="#103653" stroke="#103653" stroke-width="8" stroke-miterlimit="10" d="M197.765,582.879c0,1.279-0.535,2.455-1.6,3.52
		c-1.07,1.064-2.295,2.025-3.68,2.879c-1.39,0.852-2.935,1.602-4.64,2.24l-3.84,1.602c-1.92-0.855-4.16-1.551-6.72-2.08
		c-2.56-0.535-5.28-0.91-8.16-1.121c-2.88-0.215-5.71-0.375-8.48-0.48c-2.775-0.109-5.23-0.16-7.36-0.16
		c-10.03,0-20,0.266-29.92,0.801c-9.92,0.529-19.895,1.01-29.92,1.439c2.345,0.211,4.585,0.32,6.72,0.32h7.04
		c6.185,0,12.37-0.109,18.56-0.32c6.185-0.215,12.37-0.32,18.56-0.32c5.545,0,11.04,0.211,16.48,0.641
		c5.44,0.426,10.93,1.17,16.48,2.24c-3.2,1.064-8.16,1.865-14.88,2.4c-6.72,0.529-13.76,0.959-21.12,1.279
		s-14.455,0.531-21.28,0.641c-6.83,0.105-12.16,0.16-16,0.16l-2.56-3.52c-0.43,0-0.8,0.049-1.12,0.158
		c-0.32,0.105-0.695,0.16-1.12,0.16c-0.855,0-1.71-0.055-2.56-0.16c-0.855-0.109-1.815-0.158-2.88-0.158h-2.24
		c-0.64,0-1.28,0.209-1.92,0.639c-1.92,0-3.79-0.109-5.6-0.32c-1.815-0.215-3.68-0.318-5.6-0.318l-6.4-31.682l7.36-3.84
		c8.32-5.545,16.48-11.25,24.48-17.119c8-5.865,15.465-12.266,22.4-19.201c6.93-6.93,13.225-14.398,18.88-22.398
		c5.65-8,10.29-16.905,13.92-26.721l-0.96-1.92c2.56-5.119,4.37-9.865,5.44-14.24c1.065-4.369,1.6-8.799,1.6-13.279
		c0-7.465-1.71-12.48-5.12-15.04c-3.415-2.56-7.79-3.841-13.12-3.841c-7.255,0-13.55,1.976-18.88,5.92
		c-5.335,3.951-9.815,8.591-13.44,13.921c-1.07-1.705-2.615-2.825-4.64-3.36c-2.03-0.529-3.04-1.65-3.04-3.359
		c0-2.346,1.225-4.69,3.68-7.041c2.45-2.344,4.425-4.16,5.92-5.439l-1.92-2.88c-0.855,0.64-2.56,1.76-5.12,3.36
		c-2.56,1.6-5.23,3.31-8,5.119c-2.775,1.815-5.39,3.416-7.84,4.801c-2.455,1.39-4.11,2.08-4.96,2.08c-2.56,0-3.84-1.385-3.84-4.16
		c0-5.76,2.025-11.36,6.08-16.801c4.05-5.439,9.01-10.24,14.88-14.399c5.865-4.16,12.21-7.52,19.04-10.08
		c6.825-2.56,13.12-3.84,18.88-3.84c8.53,0,16.48,0.96,23.84,2.88c7.36,1.92,13.81,5.015,19.36,9.279
		c5.545,4.271,9.92,9.761,13.12,16.48c3.2,6.721,4.8,14.775,4.8,24.16c0,11.734-2.295,23.471-6.88,35.2
		c-4.59,11.735-10.615,22.829-18.08,33.28c-7.47,10.455-15.95,20.109-25.44,28.959c-9.495,8.855-19.15,16.27-28.96,22.24
		c2.13-0.209,4.745-0.426,7.84-0.641c3.09-0.209,6.345-0.424,9.76-0.639c3.41-0.211,6.665-0.371,9.76-0.48
		c3.09-0.105,5.705-0.16,7.84-0.16c2.985,0,6.185,0.375,9.6,1.119c3.41,0.75,6.29,2.08,8.64,4l-0.64,1.92
		c-6.19-0.639-12.27-0.959-18.24-0.959c-2.775,0-6.03,0.055-9.76,0.16c-3.735,0.109-7.52,0.27-11.36,0.48
		c-3.84,0.215-7.63,0.43-11.36,0.639c-3.735,0.215-6.99,0.43-9.76,0.641v0.32c2.13,0,4.85-0.051,8.16-0.16
		c3.305-0.105,6.72-0.211,10.24-0.32c3.52-0.105,6.88-0.209,10.08-0.32c3.2-0.105,5.97-0.16,8.32-0.16c3.84,0,7.625,0.16,11.36,0.48
		c3.73,0.32,7.52,0.695,11.36,1.121c-0.64,1.068-0.96,1.92-0.96,2.559c0,1.711,1.12,2.775,3.36,3.201
		c2.24,0.43,4.69,0.91,7.36,1.439c2.665,0.535,5.12,1.23,7.36,2.08C196.645,579.254,197.765,580.748,197.765,582.879z
		 M75.525,568.158l7.68-3.84l-0.32-0.961c-1.28,1.07-2.67,1.816-4.16,2.24c-1.495,0.43-2.88,0.961-4.16,1.6v0.961H75.525z
		 M78.405,596.959c0.425,0,1.6,0.049,3.52,0.16c1.92,0.104,3.945,0.264,6.08,0.479c2.13,0.211,4.105,0.48,5.92,0.801
		c1.81,0.32,2.93,0.584,3.36,0.799l-18.56-1.279L78.405,596.959z M80.965,556.318c5.545-3.41,11.785-8.051,18.72-13.92
		c6.93-5.865,13.865-12.371,20.8-19.52c6.93-7.146,13.49-14.771,19.68-22.881c6.185-8.105,11.41-16.209,15.68-24.32
		c-3.2,7.041-7.63,14.615-13.28,22.721c-5.655,8.109-11.95,15.949-18.88,23.52c-6.935,7.576-14.135,14.455-21.6,20.641
		C94.615,548.748,87.575,553.334,80.965,556.318z M134.085,521.119c-7.47,7.469-15.15,14.613-23.04,21.439
		c-7.895,6.83-16.32,13.119-25.28,18.879l1.6,0.32c8.96-5.545,17.225-11.84,24.8-18.879
		C119.735,535.838,127.045,528.588,134.085,521.119z M122.885,557.918c4.05-1.92,8.105-5.225,12.16-9.92l-18.88,13.121
		C117.87,560.268,120.11,559.197,122.885,557.918z"/>
	<path fill="#103653" stroke="#103653" stroke-width="8" stroke-miterlimit="10" d="M263.041,383.838
		c14.08,0,27.625,1.23,40.64,3.68c13.01,2.455,24.48,6.83,34.4,13.12c9.92,6.295,17.81,14.775,23.68,25.439
		c5.865,10.67,8.8,24.215,8.8,40.641c0,15.789-1.71,31.574-5.12,47.359c-3.2,14.721-8.32,28.59-15.36,41.6
		c7.04-12.369,12.265-25.279,15.68-38.719c3.84-14.721,5.76-29.761,5.76-45.121c0-13.225-1.28-24.584-3.84-34.08
		c-2.56-9.489-6.67-17.6-12.32-24.319c-5.655-6.72-12.91-12.265-21.76-16.64c-8.855-4.37-19.575-8.05-32.16-11.04
		c-4.91-1.065-9.76-2.13-14.56-3.2c-4.8-1.065-9.87-1.6-15.2-1.6c5.12-1.49,10.665-2.24,16.64-2.24c8.32,0,16.8,1.07,25.44,3.2
		c8.64,2.135,16.745,5.28,24.32,9.44c7.57,4.16,14.345,9.39,20.32,15.681c5.97,6.295,10.345,13.6,13.12,21.92l-3.84,0.959
		c2.985,6.19,5.12,12.59,6.4,19.201c1.28,6.614,1.92,13.334,1.92,20.159c0,8.32-0.695,17.44-2.08,27.36
		c-1.39,9.92-3.575,19.895-6.56,29.92c-2.99,10.029-6.83,19.734-11.52,29.119c-4.695,9.391-10.295,17.656-16.8,24.801
		c-6.51,7.145-13.975,12.904-22.4,17.279c-8.43,4.371-17.87,6.561-28.32,6.561c-1.07,0-2.24-0.055-3.52-0.16
		c-1.28-0.109-2.455-0.27-3.52-0.48l0.96,1.92c1.28,0.211,2.61,0.371,4,0.48c1.385,0.105,2.72,0.16,4,0.16
		c10.45,0,19.89-2.189,28.32-6.561c8.425-4.375,15.89-10.189,22.4-17.439c6.505-7.25,12.105-15.52,16.8-24.801
		c4.69-9.279,8.53-18.984,11.52-29.119c2.985-10.131,5.225-20.211,6.72-30.24c1.49-10.025,2.24-19.305,2.24-27.84
		c0-10.665-1.28-21.119-3.84-31.359c1.49,5.549,2.72,11.149,3.68,16.799c0.96,5.656,1.44,11.256,1.44,16.801
		c0,9.175-0.75,18.879-2.24,29.119c-1.495,10.24-3.79,20.32-6.88,30.24c-3.095,9.92-7.095,19.471-12,28.641
		c-4.91,9.174-10.775,17.23-17.6,24.16c-6.83,6.93-14.72,12.48-23.68,16.639c-8.96,4.16-18.99,6.24-30.08,6.24
		c-8.535,0-15.895-1.92-22.08-5.76c-6.19-3.84-11.36-8.91-15.52-15.199c-4.16-6.291-7.52-13.439-10.08-21.439
		s-4.48-16.211-5.76-24.641c-1.28-8.426-2.135-16.641-2.56-24.641c-0.43-8-0.64-15.09-0.64-21.279c0-14.08,1.97-27.73,5.92-40.96
		c3.945-13.226,9.97-25.601,18.08-37.12c0.21,1.279,0.745,2.08,1.6,2.4c0.85,0.319,1.65,0.59,2.4,0.799
		c0.745,0.216,1.44,0.48,2.08,0.801s0.96,1.016,0.96,2.08c0,0.64-0.43,1.975-1.28,4c-0.855,2.029-1.815,4.27-2.88,6.72
		c-1.07,2.455-2.08,4.75-3.04,6.88c-0.96,2.135-1.55,3.52-1.76,4.16l2.88,0.96c0.85-1.489,1.97-3.305,3.36-5.44
		c1.385-2.129,2.985-4.16,4.8-6.08c1.81-1.92,3.73-3.52,5.76-4.799c2.025-1.281,4-1.92,5.92-1.92c2.77,0,4.48,0.534,5.12,1.6
		c0.64,1.07,0.96,2.775,0.96,5.119c0,2.561-0.59,6.24-1.76,11.041c-1.175,4.8-2.51,10.24-4,16.32c-1.495,6.079-2.83,12.43-4,19.039
		c-1.175,6.615-1.76,12.91-1.76,18.881c0,1.92,0.105,5.068,0.32,9.439c0.21,4.375,0.585,9.23,1.12,14.561
		c0.53,5.334,1.28,10.83,2.24,16.479c0.96,5.656,2.185,10.83,3.68,15.521c1.49,4.693,3.36,8.533,5.6,11.52
		c2.24,2.99,4.85,4.48,7.84,4.48c5.76,0,10.985-1.865,15.68-5.602c4.69-3.729,8.96-8.529,12.8-14.398
		c3.84-5.865,7.145-12.531,9.92-20c2.77-7.467,5.12-14.881,7.04-22.24c1.92-7.361,3.36-14.346,4.32-20.961
		c0.96-6.609,1.44-12.049,1.44-16.319c0-7.89-0.43-14.88-1.28-20.96c-0.855-6.08-2.615-11.36-5.28-15.84
		c-2.67-4.48-6.56-8.16-11.68-11.041c-5.12-2.879-11.84-4.959-20.16-6.239c-0.855-0.21-2.83-0.53-5.92-0.96
		c-3.095-0.426-6.295-1.01-9.6-1.76c-3.31-0.745-6.295-1.6-8.96-2.561c-2.67-0.96-4-1.97-4-3.039c0-0.641,0.21-1.386,0.64-2.24
		c3.2,0,6.93,0.215,11.2,0.64c4.265,0.43,8.69,1.12,13.28,2.08c4.585,0.96,9.01,2.079,13.28,3.36c2.77,0.854,5.44,1.814,8,2.879
		c-2.35-1.064-4.8-2.024-7.36-2.879c-4.27-1.49-8.64-2.771-13.12-3.84c-4.48-1.066-8.8-1.865-12.96-2.4
		c-4.16-0.53-7.95-0.801-11.36-0.801l-1.28-5.76h-1.6c-3.63,0-7.15,0.641-10.56,1.92c-3.415,1.28-6.935,1.92-10.56,1.92
		c-0.855,0-1.71-0.265-2.56-0.8c-0.855-0.53-1.28-1.329-1.28-2.399c0-1.49,0.53-3.146,1.6-4.96c1.065-1.81,2.29-3.465,3.68-4.96
		c1.385-1.49,2.93-2.88,4.64-4.16C260.266,385.438,261.761,384.479,263.041,383.838z M345.601,498.719
		c2.345-9.385,3.945-18.561,4.8-27.521c0.21-1.065,0.37-2.185,0.48-3.36c0.105-1.17,0.16-2.289,0.16-3.359
		c0-5.545-0.96-10.88-2.88-16c-1.92-5.12-4.055-10.025-6.4-14.721c4.48,11.311,6.72,23.15,6.72,35.521c0,9.601-1.07,19.2-3.2,28.8
		c-2.135,9.391-4.8,18.455-8,27.199C340.691,516.533,343.466,507.678,345.601,498.719z"/>
	<path fill="#103653" stroke="#103653" stroke-width="8" stroke-miterlimit="10" d="M474.559,591.197
		c2.131-8.959,3.945-18.879,5.44-29.76c1.49-10.879,2.45-20.904,2.88-30.08c-0.43,3.84-0.855,8.215-1.279,13.121
		c-0.431,4.91-1.016,9.869-1.761,14.879c-0.75,5.016-1.6,9.871-2.56,14.561c-0.961,4.695-2.19,8.855-3.68,12.48
		c-1.07-2.346-1.656-4.85-1.761-7.52c-0.11-2.666-0.159-5.281-0.159-7.84c0-3.201,0.209-6.986,0.639-11.361
		c0.426-4.369,0.906-8.85,1.441-13.439c0.529-4.586,1.064-9.119,1.6-13.6c0.529-4.48,0.904-8.32,1.119-11.52l2.561-2.881
		c0-0.641-0.055-1.17-0.16-1.6c-0.109-0.426-0.16-0.85-0.16-1.281c0-0.639,0.051-1.33,0.16-2.08c0.105-0.744,0.16-1.76,0.16-3.039
		c0-6.609,0.37-13.49,1.12-20.641c0.745-7.145,1.601-14.289,2.56-21.439c0.961-7.145,1.811-14.24,2.561-21.279
		c0.744-7.041,1.119-13.971,1.119-20.801l-3.199,2.561c-1.07,10.24-2.135,20.91-3.2,32c-0.854,10.455-1.601,20.695-2.239,30.719
		l0.639-29.759c0.211-4.479,0.801-9.761,1.761-15.841s1.649-11.465,2.08-16.159c-1.71,1.069-4.11,2.56-7.2,4.479
		c-3.096,1.92-6.615,4.16-10.561,6.721c-3.949,2.56-8,5.175-12.16,7.84c-4.159,2.67-8,5.175-11.52,7.52
		c-3.52,2.35-6.56,4.48-9.119,6.4c-2.561,1.92-4.16,3.311-4.801,4.16c-0.855-1.705-2.295-2.825-4.32-3.36
		c-2.029-0.53-3.149-1.76-3.359-3.681c0.64-1.704,1.6-3.359,2.88-4.959s2.56-3.041,3.84-4.32l-1.92-1.92
		c-1.28,0.641-2.88,1.55-4.8,2.72c-1.92,1.175-3.895,2.24-5.92,3.2c-2.03,0.96-4.055,1.814-6.08,2.561
		c-2.03,0.75-3.79,1.119-5.28,1.119c-2.135-0.85-3.2-2.13-3.2-3.84c0-5.33,2.77-10.609,8.32-15.84
		c5.545-5.225,12.689-10.665,21.439-16.32c8.746-5.65,18.451-11.729,29.121-18.24c10.664-6.504,21.119-13.81,31.359-21.919
		l28.16,11.52c1.064,2.775,1.92,6.4,2.561,10.88c0.639,4.48,0.959,8.215,0.959,11.2v8c0,4.694-0.055,9.28-0.16,13.76
		c-0.109,4.479-0.694,9.07-1.76,13.761c-1.279,6.614-2.35,14.614-3.199,24c-0.855,9.389-1.601,19.254-2.24,29.6
		c-0.641,10.35-1.23,20.59-1.76,30.719c-0.535,10.137-1.23,19.256-2.08,27.361c-0.855,8.109-1.92,14.67-3.2,19.68
		s-2.88,7.52-4.8,7.52c-0.43,0-1.07-0.215-1.92-0.641c1.064-4.264,2.129-8.744,3.199-13.439c1.065-4.689,1.6-9.17,1.6-13.439v-7.68
		c-0.639,5.549-1.389,11.094-2.239,16.639c-0.854,5.762-2.03,11.416-3.521,16.961c-0.854-0.43-1.92-0.641-3.199-0.641
		c-1.711,0-2.83,0.746-3.36,2.24c-0.535,1.49-1.069,3.145-1.601,4.961c-0.534,1.809-1.229,3.465-2.08,4.959
		c-0.854,1.49-2.35,2.24-4.479,2.24c-2.774,0-4.75-1.279-5.92-3.84C476.744,595.678,475.624,593.328,474.559,591.197z
		 M483.839,517.277c0.851-6.184,1.44-12.264,1.761-18.238c0.319-5.971,0.584-11.841,0.799-17.601
		c0.211-5.761,0.426-11.41,0.641-16.96c0-3.41,0.21-6.825,0.641-10.24c-1.281,9.391-2.136,18.775-2.561,28.16
		C484.689,493.918,484.264,505.549,483.839,517.277z M506.559,494.879c-0.43,10.029-0.854,20.375-1.279,31.039
		c1.064-10.664,1.92-21.225,2.56-31.68c0.64-10.24,1.601-20.48,2.88-30.72C508.369,474.398,506.984,484.854,506.559,494.879z"/>
	<path fill="#103653" stroke="#103653" stroke-width="8" stroke-miterlimit="10" d="M666.875,387.358
		c0.85-0.21,1.705-0.32,2.56-0.32h2.56c5.33,0,10.881,0.96,16.641,2.88s10.984,4.64,15.68,8.16c4.689,3.52,8.53,7.735,11.52,12.64
		c2.986,4.91,4.48,10.24,4.48,16c0,5.975-1.494,11.47-4.48,16.479c-2.989,5.015-6.719,9.601-11.199,13.761
		s-9.391,7.949-14.721,11.359c-5.334,3.415-10.35,6.4-15.039,8.96l0.64,0.64c4.905-2.77,10.13-5.81,15.681-9.119
		c5.545-3.305,10.609-7.041,15.199-11.2c4.585-4.16,8.426-8.745,11.52-13.761c3.09-5.01,4.641-10.719,4.641-17.119
		c0-5.12-1.016-9.76-3.04-13.92c-2.03-4.16-4.64-7.891-7.84-11.2c-3.2-3.305-6.88-6.185-11.04-8.64
		c-4.16-2.45-8.375-4.425-12.641-5.92c5.33,0.43,10.4,1.55,15.201,3.36c4.799,1.815,9.01,4.43,12.639,7.84
		c3.625,3.415,6.561,7.471,8.801,12.16c2.24,4.695,3.359,9.92,3.359,15.68c0,6.4-1.494,12.375-4.479,17.92
		c-2.99,5.551-6.72,10.67-11.2,15.36c-4.48,4.694-9.439,8.91-14.88,12.64c-5.44,3.735-10.72,7.096-15.84,10.08
		c5.33,4.055,10.665,8.43,16,13.119c5.33,4.695,10.13,9.816,14.399,15.361c4.266,5.549,7.73,11.574,10.4,18.08
		c2.665,6.51,4,13.389,4,20.639c0,7.471-1.6,14.352-4.8,20.641c-3.2,6.295-7.47,12.109-12.8,17.439
		c-5.336,5.33-11.416,10.08-18.24,14.24c-6.83,4.16-13.76,7.625-20.801,10.4c-7.039,2.77-13.975,4.904-20.799,6.4
		c-6.83,1.49-13.016,2.24-18.561,2.24c-9.6,0-19.52-1.441-29.76-4.32c-10.24-2.881-19.575-7.096-28-12.641
		c-8.43-5.549-15.415-12.375-20.96-20.48c-5.55-8.104-8.32-17.385-8.32-27.84c0-8.959,2.08-17.439,6.24-25.439
		c4.159-8,9.489-15.305,16-21.92c6.505-6.609,13.649-12.529,21.44-17.76c7.785-5.225,15.305-9.545,22.56-12.96
		c-5.761-6.185-11.095-13.226-16-21.12c-4.91-7.89-7.36-16.529-7.36-25.92c0-5.545,1.225-10.665,3.68-15.359
		c2.451-4.69,5.601-8.905,9.44-12.641c3.841-3.73,8.21-6.985,13.12-9.76c4.904-2.77,9.811-5.01,14.721-6.72
		c0.639,1.07,1.545,2.08,2.719,3.04c1.17,0.96,1.865,1.975,2.08,3.04c0,1.07-1.439,2.35-4.319,3.84
		c-2.88,1.495-5.976,3.415-9.28,5.76c-3.311,2.351-6.4,5.229-9.279,8.64c-2.881,3.416-4.32,7.68-4.32,12.801v1.92l2.88-0.32
		c0-3.2,1.12-6.24,3.36-9.12c2.239-2.88,4.904-5.489,8-7.84c3.09-2.345,6.239-4.21,9.439-5.601c3.2-1.385,5.76-2.08,7.68-2.08
		c2.561,0,5.225,0.535,8,1.6c2.771,1.069,5.01,2.56,6.721,4.479c-1.92,0.641-4.535,1.601-7.84,2.881
		c-3.311,1.279-6.511,2.774-9.601,4.479c-3.095,1.71-5.815,3.735-8.16,6.08c-2.35,2.351-3.521,4.91-3.521,7.681
		c0,1.92,1.121,4.59,3.361,8c2.239,3.414,4.85,6.935,7.84,10.56c2.984,3.63,6.08,6.989,9.279,10.079
		c3.2,3.096,5.65,5.281,7.36,6.561c2.345-1.064,5.81-2.88,10.399-5.439c4.586-2.561,9.17-5.545,13.76-8.961
		c4.586-3.41,8.586-6.93,12-10.56c3.41-3.625,5.121-7.04,5.121-10.239c0-1.49-0.43-2.721-1.28-3.681
		c-0.854-0.96-1.87-1.81-3.04-2.56c-1.176-0.746-2.295-1.601-3.359-2.561c-1.07-0.96-1.816-2.08-2.24-3.359l1.279-1.601
		c1.49,0.64,3.09,1.335,4.801,2.08c1.705,0.75,3.305,1.655,4.799,2.72c1.49,1.07,2.721,2.295,3.681,3.68
		c0.96,1.391,1.44,2.936,1.44,4.641c0,2.775-0.961,5.391-2.881,7.84c-1.92,2.455-3.629,4.535-5.119,6.24
		c1.92-1.705,3.944-3.84,6.08-6.4c2.129-2.56,3.199-5.33,3.199-8.32c0-1.92-0.59-3.68-1.76-5.279c-1.175-1.6-2.67-3.145-4.48-4.641
		c-1.814-1.489-3.734-2.77-5.76-3.84c-2.029-1.064-3.789-1.92-5.279-2.56l-1.28-3.2c-1.28-0.425-3.255-1.119-5.921-2.08
		c-2.67-0.96-5.279-2.08-7.84-3.359c-2.56-1.28-4.854-2.561-6.879-3.84c-2.031-1.28-3.041-2.56-3.041-3.84
		c0-2.13,1.44-3.57,4.32-4.32C663.195,388.053,665.379,387.573,666.875,387.358z M614.074,481.438
		c-7.47,3.63-14.72,7.47-21.76,11.521c-7.04,4.055-13.279,8.59-18.72,13.6c-5.44,5.014-9.87,10.719-13.28,17.119
		c-3.415,6.4-5.335,13.551-5.76,21.441c0.641-7.25,2.665-13.922,6.08-20c3.41-6.08,7.89-11.682,13.439-16.801
		c5.545-5.121,11.84-9.705,18.881-13.76c7.039-4.051,14.504-7.785,22.399-11.2L614.074,481.438z M633.274,495.518
		c-5.76,2.561-11.896,5.441-18.399,8.641c-6.51,3.199-12.48,6.936-17.92,11.199c-5.44,4.271-9.92,9.23-13.44,14.881
		c-3.521,5.654-5.28,12.215-5.28,19.68c0,5.975,1.28,11.631,3.84,16.961c2.131,4.27,4.905,8,8.32,11.199
		c-3.415-3.199-6.08-6.93-8-11.199c-2.35-5.545-3.52-11.201-3.52-16.961c0-7.25,1.81-13.65,5.439-19.199
		c3.625-5.545,8.16-10.4,13.6-14.561c5.44-4.16,11.36-7.891,17.761-11.199C622.074,501.652,627.939,498.508,633.274,495.518z
		 M687.354,546.719c0-6.186-1.92-11.73-5.76-16.641c-3.841-4.904-8.431-9.279-13.761-13.119c-5.334-3.84-10.67-7.307-16-10.4
		c-5.334-3.09-9.6-6.131-12.799-9.121c-5.121,2.775-10.881,5.816-17.281,9.121c-6.399,3.311-12.479,7.094-18.239,11.359
		c-5.761,4.27-10.56,9.121-14.399,14.561c-3.841,5.439-5.761,11.574-5.761,18.4c0,6.189,1.28,11.469,3.841,15.84
		c2.559,4.375,5.864,7.895,9.92,10.559c4.049,2.67,8.584,4.592,13.6,5.762c5.01,1.174,9.97,1.76,14.88,1.76
		c8.104,0,16.104-1.33,24-4c7.89-2.666,14.93-6.451,21.12-11.361l0.32-1.6c-6.4,4.48-13.44,7.951-21.121,10.4
		c-7.68,2.455-15.469,3.68-23.359,3.68c-4.695,0-9.439-0.529-14.24-1.6c-4.8-1.064-9.175-2.881-13.119-5.439
		c-3.951-2.561-7.15-5.865-9.601-9.92c-2.455-4.051-3.681-9.066-3.681-15.041c0-4.904,1.17-9.33,3.521-13.279
		c2.345-3.945,5.386-7.465,9.12-10.561c3.73-3.09,7.785-5.811,12.16-8.16c4.369-2.346,8.689-4.48,12.96-6.4
		c-4.271,2.135-8.535,4.375-12.8,6.721c-4.271,2.35-8.215,5.016-11.84,8c-3.631,2.99-6.561,6.35-8.801,10.08
		c-2.24,3.734-3.359,8.16-3.359,13.279c0,5.975,1.17,10.936,3.52,14.881c2.346,3.949,5.439,7.15,9.28,9.6
		c3.84,2.455,8.159,4.16,12.96,5.119c4.8,0.961,9.545,1.441,14.24,1.441c1.705,0,3.305-0.051,4.8-0.16
		c1.489-0.105,3.09-0.266,4.8-0.48c3.2-0.426,7.68-1.6,13.439-3.52c5.761-1.92,11.41-4.371,16.961-7.359
		c5.545-2.986,10.345-6.4,14.399-10.24C685.324,555.039,687.354,550.988,687.354,546.719z M593.274,579.998
		c-0.215-0.209-0.534-0.426-0.96-0.641C592.524,579.572,592.845,579.789,593.274,579.998z M655.675,466.719
		c2.985-1.705,6.185-3.68,9.6-5.92c3.41-2.24,6.29-4.426,8.64-6.561l-20.16,11.2L655.675,466.719z"/>
</g>
</svg>
