<svg xmlns="http://www.w3.org/2000/svg" width="457.695" height="8.498" xml:space="preserve"><path fill="#143854" d="M0 .005h457.697v8.493H0z"/><path fill="#143854" d="M-.001 4.249h457.698v4.249H-.001z"/><path fill="#F8F9F6" d="M152.128 8.499c-13.79 0-26.287-1.313-39.343-3.063l-6-.688c-4.65-.616-10.359-.366-15.814.346-3.279.429-6.668.87-9.889 1.031-8.731.438-18.245.649-29.084.649-7 0-16.663-.271-26.008-.53-9.346-.261-19.011-.53-25.99-.529v-4c7.035 0 16.728.271 26.101.532 9.318.26 18.953.529 25.897.529 10.771 0 20.219-.211 28.884-.646 3.062-.153 6.371-.585 9.572-1.002 5.712-.745 11.619-1.516 16.787-.832l4.45.594c20.939 2.809 44.219 5.484 64.826.954C186.658-.69 197.41-.059 207.809.553c4.656.273 9.471.557 14.193.557 13.137 0 27.203.522 40.807 1.027 26.133.97 53.155 1.973 77.463-.414 10.354-1.017 19.959-.63 30.125-.22 5.367.216 10.916.44 16.604.44 3.91 0 7.533.042 11.008.083 10.451.122 19.478.226 30.797-.884 5.787-.569 12.615 0 18.643.5 3.764.313 7.318.074 10.252.074v4c-3.1 0-6.734.232-10.584-.088-5.854-.486-12.492-1.037-17.918-.506-11.535 1.133-20.669 1.027-31.232.902-3.459-.039-7.067-.082-10.963-.082-5.771 0-11.356-.227-16.767-.442-10.022-.403-19.491-.786-29.571.204-24.576 2.415-51.735 1.406-78.004.431-14.196-.529-27.599-1.027-40.662-1.027-4.839 0-9.001.229-13.715-.047-10.564-.622-21.253-1.726-30.8.662-8.084 2.021-16.654 2.776-25.357 2.776z"/></svg>