<svg xmlns="http://www.w3.org/2000/svg" width="312.68" height="225.717" viewBox="340.494 300.5 312.68 225.717" xml:space="preserve"><path fill="#103653" d="M412.016 185.969z"/><path fill="#F8F9F6" d="M639.617 319.737c-20.964-19.965-66.883-8.984-92.838-7.986-60.896.998-121.789 4.991-182.682 9.982-5.989.999-8.984 5.989-8.984 10.98-.999.998-1.997 1.996-1.997 3.992-2.995 28.95-5.99 57.899-6.988 86.849-.999 23.958-9.982 56.9-2.995 79.858 4.991 16.971 11.979 17.969 27.951 19.965 52.907 6.987 113.802-.998 167.707-1.999 27.953 0 70.875 8.986 93.834-12.978 17.973-17.97 17.973-50.907 18.969-73.869.003-25.951 7.99-95.827-11.977-114.794zm-63.888 7.987c14.977 0 24.956-1.997 33.94 1.996-20.965 17.97-47.915 46.918-73.87 63.89 0-9.982-1.995-18.968-10.979-23.959-17.97-9.982-25.954 5.988-29.946 25.955 0-.998-1-.998-1-1.996-6.987-10.981-16.97-15.974-29.947-10.981-4.99 1.997-6.987 8.984-5.987 13.977 0 .997.997 2.993.997 3.992-30.946-14.974-64.887-43.923-89.844-59.896 68.877-6.989 137.757-10.984 206.636-12.978zm-217.62 123.781c1.997-33.939 3.993-67.881 3.993-100.823 29.948 21.962 60.894 42.926 90.841 63.889.998.998 1.996.998 2.995 1.997-33.94 23.958-65.885 50.911-96.832 77.863-6.986-13.976-1.995-28.949-.997-42.926zm152.733 53.906c-33.938.998-68.879.998-102.818 2-16.972 0-30.946 4.99-42.925-5.99 33.941-24.956 69.876-48.914 101.823-76.867.997.998 2.994 1.996 3.992 2.995 5.99 8.983 12.979 16.971 20.963 23.958v.998c3.993 9.982 18.967 9.982 21.963 0 6.987-8.983 11.979-18.967 15.972-29.947 20.964 25.955 45.918 53.905 73.868 73.871-26.951 13.972-61.892 7.984-92.838 8.982zm108.81-19.966c-12.979-9.982-25.955-19.965-38.932-29.947-15.974-12.979-30.947-27.951-45.921-41.927 1.996-1.996 2.994-2.994 4.99-3.992 27.951-22.961 55.903-44.923 83.853-67.882 11.98 13.976 9.984 30.945 10.98 48.914.004 29.95 5.993 71.874-14.97 94.834z"/></svg>