<svg xmlns="http://www.w3.org/2000/svg" xml:space="preserve" width="80" height="41.381" viewBox="0 16.809 80 41.381"><path fill="#F8F9F6" d="m72.977 30.338-16.27-12.832c-.004-.003-.008-.003-.012-.004a.48.48 0 0 0-.154-.094c-8.791-3.588-3.763 10.096-5.947 10.421l-24.06 3.591c-7.662 1.145-15.323 2.287-22.984 3.432-2.317.345-3.55 1.39-3.55 3.699 0 2.101 3.888 2.025 5.278 2.23 8.894 1.324 17.789 2.648 26.683 3.974 3.082.458 18.879.636 18.879 4.819 0 1.735-1.121 8.035 1.662 8.518 2.254.391 3.641-.422 5.355-1.775C64.713 50.909 71.572 45.5 78.43 40.093a4.93 4.93 0 0 0 1.061-1.131c.021-.022.033-.048.051-.071.059-.091.129-.185.176-.273.09-.17.162-.354.203-.542.802-3.06-4.614-5.899-6.944-7.738zM3.07 36.844l-.25.609a5.877 5.877 0 0 0-.184.512c-.025-.036-.067-.061-.089-.098-.438-.715-.013-1.234.802-1.62-.094.183-.189.38-.279.597zm66.475-6.386c.137.108.271.216.41.324a315.857 315.857 0 0 1-7.539 14.755c-.35.637-.432.604-.176-.08 1.01-2.663 2.096-5.293 3.195-7.912.281-.67.814-1.719 1.191-2.34.97-1.586 1.942-3.167 2.919-4.747zm-11.232-8.86 1.555 1.227-.779 1.133c-.41.602-1.15 1.178-1.629 1.359-.393.15-.713.317-.818.43-.188.198-.363.405-.537.612-.293.344-.262.097.068-.552.712-1.403 1.425-2.807 2.14-4.209zm-4.192-3.015c-.029.044-.072.085-.098.131-.098.157-.193.313-.293.469.1-.3.227-.509.391-.6zm-.449 5.134c.799-1.296 1.602-2.59 2.4-3.886.082.065.166.132.248.195a3019.72 3019.72 0 0 1-2.74 5.375c-.051.099-.097.194-.145.292-.001-.457-.014-1.028-.025-1.652.082-.066.17-.172.262-.324zM9.008 35.857a280.944 280.944 0 0 0-1.646 3.12.973.973 0 0 0-.087.685 19.584 19.584 0 0 1-1.953-.313c.185-.177.352-.381.462-.627.379-.843.766-1.681 1.157-2.518.165-.35.14-.63-.017-.809 1.285-.163 2.415-.228 2.735-.268-.27.219-.511.467-.651.73zm4.502 4.647c-1.34-.197-2.679-.399-4.02-.599.195-.155.371-.331.479-.542a265.85 265.85 0 0 1 2.076-3.959c.14-.263.147-.474.088-.644 1.878-.279 3.754-.56 5.631-.841-.265.205-.505.432-.655.674a347.147 347.147 0 0 1-3.429 5.376c-.12.188-.163.366-.17.535zm5.565.236a1.015 1.015 0 0 0-.133.574l-3.212-.479c.196-.137.373-.298.495-.484a328.352 328.352 0 0 0 3.965-6.213c.15-.244.174-.438.136-.598l3.404-.51c-.267.213-.507.453-.651.707-1.332 2.335-2.667 4.67-4.004 7.003zm11.079 1.649a1.022 1.022 0 0 0-.132.574l-6.809-1.014a1.75 1.75 0 0 0 .488-.521c1.599-2.838 3.196-5.678 4.808-8.503.144-.253.159-.461.108-.626l8.042-1.2c-.269.219-.507.466-.647.729a573.348 573.348 0 0 1-5.858 10.561zm5.558 1.419-3.244-.481c.198-.141.378-.302.5-.49a400.523 400.523 0 0 1 7.908-11.835.872.872 0 0 0 .181-.501c.908-.072 1.995-.132 3.152-.223-.091.102-.192.201-.256.307-2.682 4.236-5.425 8.434-8.08 12.678-.121.19-.159.372-.161.545zm2.814.417-.089-.012c-.136-.021-.271-.039-.407-.061.019-.023.049-.037.063-.062.132-.222.263-.441.398-.661 2.742-4.469 5.611-8.863 8.418-13.289.039-.061.043-.108.07-.164.049-.009.098-.014.145-.021-.05.063-.114.123-.152.188-2.768 4.509-5.528 9.02-8.289 13.532a.998.998 0 0 0-.157.55zm5.029.386c-.958-.086-1.857-.147-2.647-.2.118-.11.231-.228.31-.357 2.928-4.788 5.85-9.577 8.785-14.36.103-.164.148-.311.162-.441 1.072-.371 1.969-.881 2.581-1.569-.005.008-.008.019-.013.028-.258.391-.895 1.082-1.228 1.729a814.412 814.412 0 0 1-7.882 14.946c-.041.076-.046.149-.068.224zm6.341-1.237c-.356.604-.716 1.203-1.076 1.804-.029.055-.033.104-.057.157a31.38 31.38 0 0 0-1.072-.207c.023-.028.057-.053.079-.082 1.292-1.964 2.587-3.929 3.885-5.89.403-.605.494-.557.198.109a101.016 101.016 0 0 1-1.957 4.109zm6.594 10.232-.914 2.583c-.369.242-.689.351-.953.332.553-1.003 1.107-2.004 1.662-3.008.354-.635.445-.595.205.093zm-2.845-1.11a5.254 5.254 0 0 0-.36.795c-.101-1.94.102-4.188.102-5.064 0-.959-.884-1.666-2.224-2.195.16-.137.299-.289.393-.466.497-.915.982-1.839 1.451-2.771 3.408-5.777 6.748-11.598 10.137-17.389l3.473 2.739a153.724 153.724 0 0 1-1.92 4.934 404.174 404.174 0 0 1-3.492 6.569 968.2 968.2 0 0 0-7.56 12.848zm8.457-1.413c3.572-6.067 6.865-12.308 9.941-18.655.172.135.342.271.514.405-2.873 5.495-5.648 11.044-8.379 16.616-.696.544-1.387 1.09-2.076 1.634zm13.451-10.606c-2.266 1.787-4.533 3.576-6.801 5.361a719.289 719.289 0 0 1 5.813-11.499c1.018.745 2.135 1.645 2.646 2.612-.551 1.178-1.104 2.351-1.658 3.526z"/></svg>