<?xml version="1.0" encoding="utf-8"?>
<!-- Generator: Adobe Illustrator 15.0.0, SVG Export Plug-In . SVG Version: 6.00 Build 0)  -->
<!DOCTYPE svg PUBLIC "-//W3C//DTD SVG 1.1//EN" "http://www.w3.org/Graphics/SVG/1.1/DTD/svg11.dtd">
<svg version="1.1" id="Calque_1" xmlns="http://www.w3.org/2000/svg" xmlns:xlink="http://www.w3.org/1999/xlink" x="0px" y="0px"
	 width="202.619px" height="176.121px" viewBox="-28.197 0 202.619 176.121" enable-background="new -28.197 0 202.619 176.121"
	 xml:space="preserve">
<circle fill="#F9FAF7" cx="87.543" cy="88.835" r="84.295"/>
<g>
	<path fill="#133754" d="M140.024,78.321c-0.256,0.395-0.592,0.73-0.986,0.986c0.381,0.371,0.539-0.879,1.316-0.658
		c-0.902,0.742-1.66,1.631-2.467,2.467c-0.146-0.127-0.371-0.176-0.658-0.164c-0.545-1.346-0.621-2.986,1.314-3.289
		C138.059,78.509,139.463,77.528,140.024,78.321L140.024,78.321z M59.786,95.421c-0.924,0.049-1.582-0.172-2.137-0.492
		c1.164-5.119-0.324-12.586,0.82-17.266c0.645,0.234,0.129,1.625,0.658,1.975c0.357-0.797,0.031-2.273,0.494-2.961
		c1.449,1.4,0.578,5.121,0.822,7.729c4.957-4.021,8.43,4.271,7.232,9.865c-0.381-0.824-0.055-2.355-0.162-3.453
		c-0.336,1.969,0.061,4.664-1.48,5.426c-0.193-4.004,0.686-10.127-2.961-10.688c-1.537,0.764-2.246,2.904-2.465,5.262
		c-0.148,1.588,0.273,3.352-0.33,4.439C60.563,94.747,59.334,95.05,59.786,95.421L59.786,95.421z M62.252,85.392
		c-0.486,0.609-0.91,1.283-1.15,2.137c0.533-0.725,0.844-1.676,1.643-2.137c0.195-0.025,0.467,0.027,0.494-0.164
		C62.737,85.108,62.639,85.396,62.252,85.392z M128.68,89.173c-1.098,3.006,0.639,6.32,4.273,5.098
		c-1.262,1.156-3.848,0.236-4.439-0.822c-0.391-4.633-0.271-11.414,2.303-14.633c0.689-0.061,0.117,0.535,0.164,0.822
		c0.891,0.012,0.533-1.223,1.48-1.152c-0.209,4.316-2.576,8.678-1.975,13.813c0.396,0.314,1.322,0.105,1.975,0.164
		c-0.041,0.178-0.328,0.111-0.33,0.328c0.549,0.395,1.131-0.262,1.645,0.164c-0.797,2.189-4.563,1.674-5.096-0.492
		C128.422,91.421,128.862,90.558,128.68,89.173L128.68,89.173z M119.965,82.431c-0.357,0-1.992,0.793-1.973-0.656
		c0.732-0.254,1.275-0.697,1.973-0.986c-0.369-0.145-1.352,0.508-1.809,0.822c0-1.063,3.064-1.107,2.959-2.303
		c0.691-0.186,1.184-0.57,1.973-0.658c0.057,0.822,0.602,1.154,0.986,1.645c-1.143,1.434-3.094,2.059-4.932,2.795
		C119.108,82.562,119.729,82.69,119.965,82.431L119.965,82.431z M52.059,93.776c0.93,0.514,2.043-0.98,2.959-0.492
		c-0.361,1.775-2.123,2.152-4.275,2.137c1.174,0.459,2.752-0.096,3.453-0.656c-0.354,1.564-5.379,1.609-5.918-0.33
		c0.715,0.383,1.236,0.957,2.301,0.986c-2.023-0.66-3.434-1.938-4.273-3.781c0.285,1.262,1.188,2.039,1.479,2.469
		c0.408,0.6,0.227,0.322-0.328-0.164c-2.271-2.002-2.85-7.105-1.809-10.689c1.156-4.203,8.361-5.037,9.701-0.822
		c-0.732,0.072-0.871-0.443-1.316-0.656c0.061,0.713,0.986,1.229,0.494,1.973c-1.779-0.324-1.975-2.002-3.947-1.809
		c-4.791,0.469-4.465,14.166,2.631,11.346C52.928,93.55,52.612,93.782,52.059,93.776L52.059,93.776z M110.756,93.776
		c0.934,0.514,2.045-0.98,2.961-0.492c-0.361,1.775-2.121,2.152-4.273,2.137c1.174,0.459,2.75-0.096,3.453-0.656
		c-0.355,1.564-5.381,1.609-5.92-0.33c0.715,0.383,1.234,0.957,2.303,0.986c-2.025-0.66-3.436-1.938-4.275-3.781
		c0.285,1.262,1.189,2.039,1.479,2.469c0.408,0.6,0.227,0.322-0.328-0.164c-2.273-2.002-2.85-7.105-1.809-10.689
		c1.154-4.203,8.361-5.037,9.699-0.822c-0.729,0.072-0.869-0.443-1.314-0.656c0.061,0.713,0.986,1.229,0.494,1.973
		c-1.779-0.324-1.975-2.002-3.945-1.809c-4.793,0.469-4.467,14.166,2.629,11.346C111.627,93.55,111.309,93.782,110.756,93.776
		L110.756,93.776z M148.575,84.405c2.031,1.764,2.137,3.039,2.137,6.74c0,0.934-0.053,0.123-0.164-0.328
		c-0.463-1.881-0.182-6.246-2.467-6.248c-1.186-0.002-1.727,1.205-1.479,1.809c-0.438-0.555-0.158-0.09-0.494,0.328
		c-0.738,0.922-1.088,6.059-1.314,8.387c-0.982-0.111-1.65-0.541-2.467-0.82c0.502-3.486-0.418-7.508,0.328-10.854
		c0.85-0.084,0.207,1.328,0.658,1.646c0.311-0.732,0.295-1.789,0.656-2.469c0.619,0.148,0.682,0.855,0.658,1.645
		c4.408-5.271,9.422,2.135,8.059,8.059c-0.381-0.443-0.061-1.586-0.166-2.303c-0.277,1.367-0.248,3.041-0.822,4.111
		c-1.119-0.439-0.551-2.076-0.656-3.783C150.875,87.659,150.391,85.271,148.575,84.405L148.575,84.405z M146.602,85.063
		c0.17-0.547,1.664-0.629,1.645-0.824C147.254,83.905,146.383,85.263,146.602,85.063z M152.356,88.517
		c-0.021-0.215-0.158-0.574-0.328-0.988C151.995,89.192,152.573,90.556,152.356,88.517z M71.295,93.942
		c0.908,1.705,2.895,2.896,5.428,2.465c-3.105,1.123-6.318-1.189-5.92-4.109c-0.328,0.893-0.646-1.02-0.658-1.645
		c-0.061-3.514,3.154-6.977,6.414-7.234c0.252-0.088,0.01-0.172-0.166-0.164c5.926-0.787,3.676,7.625-1.48,7.068
		c-0.863-0.092-1.174-0.553-2.301-0.656c-0.768,3.014,0.885,5.033,3.781,4.932c-0.176,0.373-1.033,0.064-1.48,0.166
		c1.211,0.645,2.41-0.146,3.289,0C77.17,97.751,72.006,95.767,71.295,93.942L71.295,93.942z M73.434,87.528
		c2.02,0.637,3.867,0.172,4.109-1.809C75.745,85.894,74.307,86.429,73.434,87.528z M73.926,89.009
		c-0.365-0.127-0.641-0.346-1.15-0.328C72.723,89.128,73.731,89.351,73.926,89.009z M70.639,91.64
		c-0.072-0.539,0.166-2.24-0.166-1.973C70.545,90.204,70.307,91.905,70.639,91.64z M117.334,93.942
		c0.906,1.705,2.895,2.896,5.426,2.465c-3.104,1.123-6.316-1.189-5.92-4.109c-0.326,0.893-0.645-1.02-0.656-1.645
		c-0.061-3.514,3.154-6.977,6.412-7.234c0.254-0.088,0.012-0.172-0.164-0.164c5.926-0.787,3.676,7.625-1.479,7.068
		c-0.863-0.092-1.176-0.553-2.303-0.656c-0.768,3.014,0.885,5.033,3.781,4.932c-0.176,0.373-1.033,0.064-1.479,0.166
		c1.209,0.645,2.41-0.146,3.287,0C123.209,97.751,118.043,95.767,117.334,93.942L117.334,93.942z M119.471,87.528
		c2.02,0.637,3.867,0.172,4.111-1.809C121.782,85.894,120.344,86.429,119.471,87.528z M119.965,89.009
		c-0.365-0.127-0.641-0.346-1.15-0.328C118.762,89.128,119.77,89.351,119.965,89.009z M116.676,91.64
		c-0.07-0.539,0.166-2.24-0.162-1.973C116.584,90.204,116.346,91.905,116.676,91.64z M155.973,92.954
		c0.203,2.092,2.777,3.953,5.592,3.453c-3.059,1.172-6.293-1.469-5.756-3.945c-0.438,0.949-0.721-1.51-0.658-2.467
		c0.217-3.285,3.086-6.113,6.414-6.576c0.252-0.088,0.01-0.172-0.166-0.164c1.49-0.527,3.328,0.236,3.617,1.645
		c0.754,3.652-3.672,7.014-7.398,4.77c-0.799,2.389,0.469,5.264,3.617,4.768c0.064,0.666-1.023,0.182-1.479,0.33
		c1.158,0.426,2.328,0.283,3.287-0.166c0.182,0.729-0.275,0.818-0.328,1.316C159.573,96.972,156.594,95.468,155.973,92.954
		L155.973,92.954z M158.44,87.528c2.01,0.744,3.803,0.037,4.109-1.809C160.725,85.868,159.286,86.401,158.44,87.528z
		 M157.618,89.009c0.43-0.137,0.902,0.498,1.15,0C158.473,88.843,157.76,88.38,157.618,89.009z M136.243,89.503
		c-0.408,1.398-0.354,3.262-0.658,4.768c0.146-3.73,0.617-7.148,0.986-10.688c0.568-0.129,0.725,0.154,0.822,0.492
		c0.486-0.17,0.482-0.832,1.316-0.656c0.434,3.695-1.064,6.809-0.986,10.688c-0.596,0.156-0.23-0.648-0.33-0.986
		c-0.285,0.701-0.313,1.66-1.314,1.645C135.631,93.144,136.319,91.294,136.243,89.503z M82.641,91.146
		c0.863-0.039,2.018-0.992,2.959-1.479c-0.072,0.145-0.145,0.293-0.328,0.328c0.541-1.078,3.852-1.711,5.426-2.795
		c-1.721-1.039-5.342-0.209-6.906-0.164c0.039-0.674,0.686-0.74,1.314-0.822c-0.357-0.631-1.645,0.211-2.631,0
		c1.701-2.879,8.713-2.266,11.346-0.658c0.004,0.99,0.051,2.025-0.164,2.795c-2.307,1.914-6.404,2.037-8.385,4.275
		c2.279,0.459,4.961,0.52,7.398,0.822c-0.992,0.494-2.188-0.225-3.453,0c2.035,0.402,3.615,0.377,5.098,1.148
		c-0.893,1.453-3.693,0.117-5.426,0.33c1.025,0.344,2.373,0.367,3.617,0.492c-3.715,0.447-6.801-0.949-10.523-0.656
		C81.727,93.188,82.249,91.524,82.641,91.146L82.641,91.146z M84.122,92.79c0.131-0.369,1.381-0.469,0.986-0.822
		C84.862,92.224,83.723,92.437,84.122,92.79z M82.149,94.599h2.795c-0.553-0.379-1.807-0.057-2.631-0.164
		c-0.066-0.49,0.158-2.121-0.164-1.809V94.599z M84.614,93.12c0.262-0.014-0.996-0.125-1.15,0c0.773-0.621,4.232,0.922,5.428,0.164
		C87.487,93.21,85.598,93.067,84.614,93.12z"/>
</g>
<path fill="#97D0C9" d="M85.342,176.122c-1.516,0-2.945-0.041-4.254-0.123c-13.129-0.811-21.498-3.518-33.248-8.557
	c-4.674-2.004-8.191-4.627-11.594-7.164c-0.939-0.701-1.896-1.414-2.898-2.133c-0.617-0.441-1.262-0.895-1.926-1.359
	c-4.912-3.459-11.027-7.76-14.574-13.176c-6.367-9.725-9.717-15.828-12.736-26.295c-1.045-3.621-1.551-7.252-2.041-10.762
	c-0.236-1.697-0.482-3.451-0.783-5.152c-1.012-5.732-1.592-10.646-1.125-15.994c0.543-6.211,1.172-11.086,1.98-15.342
	c0.443-2.334,1.172-4.57,1.875-6.73c0.727-2.229,1.412-4.338,1.76-6.428l0.092-0.56l0.246-0.513c0,0,3.346-6.979,4.268-8.928
	c0.984-2.074,2.311-3.906,3.592-5.677c0.291-0.401,0.58-0.804,0.861-1.199c0.986-1.396,1.873-2.952,2.813-4.602
	c1.711-3.005,3.479-6.113,6.16-8.823c7.172-7.253,16.014-11.773,24.563-16.146c1.377-0.703,2.748-1.403,4.104-2.112
	c10.445-5.462,21.996-8.349,33.4-8.349c10.141,0,20.059,2.91,29.65,5.725c1.311,0.384,2.609,0.766,3.898,1.136
	c7.787,2.235,13.475,7.06,18.973,11.724c2.986,2.533,5.809,4.926,8.945,6.932l1.229,0.779c4.83,3.056,9.822,6.215,12.852,12.64
	c1.363,2.894,2.355,5.862,3.314,8.735c0.893,2.676,1.732,5.201,2.836,7.595c0.396,0.866,0.811,1.716,1.221,2.56
	c1.959,4.029,3.984,8.195,4.207,13.383c0.049,1.121,0.064,2.242,0.076,3.355c0.02,1.713,0.039,3.324,0.191,4.887
	c0.096,0.992,0.281,2.008,0.479,3.084c0.352,1.916,0.75,4.086,0.664,6.467c-0.088,2.479-0.104,4.719-0.115,6.885
	c-0.049,7.793-0.09,14.523-3.971,23.713c-3.48,8.248-7.555,17.203-11.371,21.098c-1.285,1.313-2.549,2.631-3.807,3.943
	c-9.434,9.84-19.186,20.016-37.502,26.625c-3.953,1.428-7.801,2.023-11.521,2.6c-1.764,0.273-3.43,0.531-5.107,0.873
	C96.809,175.591,90.803,176.122,85.342,176.122L85.342,176.122z M13.569,58.8c-0.461,2.463-1.213,4.771-1.941,7.01
	c-0.654,2.014-1.273,3.914-1.623,5.752c-0.758,3.984-1.354,8.604-1.871,14.541c-0.389,4.477,0.133,8.797,1.035,13.908
	c0.326,1.844,0.58,3.67,0.826,5.438c0.473,3.381,0.918,6.574,1.805,9.65c2.752,9.537,5.717,14.924,11.742,24.129
	c2.709,4.135,7.904,7.791,12.486,11.016c0.68,0.479,1.342,0.943,1.975,1.396c1.047,0.75,2.047,1.494,3.029,2.227
	c3.305,2.465,6.16,4.594,9.963,6.225c11.141,4.777,18.559,7.184,30.588,7.924c1.145,0.07,2.408,0.107,3.76,0.107l0,0
	c4.965,0,10.359-0.471,14.08-1.227c1.863-0.379,3.701-0.664,5.479-0.939c3.5-0.541,6.805-1.053,10.029-2.219
	c16.557-5.973,25.244-15.037,34.441-24.635c1.283-1.344,2.572-2.68,3.871-4.008c3.266-3.332,8.119-14.83,9.713-18.609
	c3.262-7.723,3.295-13.145,3.342-20.65c0.014-2.225,0.027-4.525,0.121-7.123c0.055-1.508-0.234-3.076-0.539-4.736
	c-0.219-1.188-0.443-2.422-0.574-3.752c-0.186-1.898-0.205-3.764-0.229-5.564c-0.012-1.031-0.023-2.068-0.068-3.105
	c-0.15-3.529-1.662-6.635-3.408-10.23c-0.436-0.895-0.873-1.795-1.295-2.713c-1.283-2.791-2.236-5.645-3.156-8.406
	c-0.926-2.772-1.799-5.394-2.961-7.854c-2.035-4.319-5.504-6.515-9.895-9.292l-1.256-0.797c-3.594-2.295-6.756-4.979-9.813-7.572
	c-5.078-4.307-9.873-8.375-16.006-10.135c-1.314-0.379-2.629-0.762-3.943-1.149c-9.049-2.655-18.406-5.399-27.398-5.399
	c-10.119,0-20.387,2.572-29.693,7.438c-1.379,0.721-2.771,1.432-4.168,2.146c-7.988,4.084-16.248,8.308-22.518,14.646
	c-1.938,1.96-3.375,4.484-4.896,7.157c-0.992,1.741-2.018,3.543-3.229,5.258c-0.299,0.422-0.605,0.849-0.916,1.274
	c-1.066,1.477-2.174,3.002-2.84,4.41C16.838,51.975,14.348,57.171,13.569,58.8L13.569,58.8z"/>
<g>
	<path fill="#FCCE8D" d="M40.303,83.922c1.193-0.796,2.425-1.63,3.35-2.417l0.651-0.552c2.369-2.031,5.054-4.339,6.32-6.049
		c1.174-1.603,1.46-2.99,0.839-4.138c-1.256-2.31-5.487-2.249-10.078-1.986c-0.452,0.027-0.844,0.05-1.179,0.059
		c-1.175,0.048-3.027,0.253-5.163,0.493c-3.569,0.407-10.986,1.238-12.118,0.531c-0.446-0.452-1.102-2.932-1.42-4.125
		c-0.17-0.67-0.363-1.343-0.57-2.002c-0.218-0.654-0.464-1.446-0.745-2.317c-1.993-6.376-4.689-14.967-9.17-15.025
		c-0.096-0.043-0.166-0.1-0.264-0.125c-0.259-0.054-0.526-0.035-0.773,0.057c-2.494-0.37-4.645,0.032-6.4,1.275
		c-4.364,3.121-5.34,10.566-6.194,17.139c-0.408,3.153-0.803,6.134-1.509,8.105c-2.339,0.654-4.828,0.55-7.445,0.403
		c-2.988-0.163-6.06-0.311-9.03,0.727l-2.721,1.148c-2.751,1.05-4.316,2.496-4.761,4.406c-0.907,3.962,3.486,8.282,7.749,12.463
		c2.491,2.447,5.062,4.963,5.488,6.525c0.318,1.175-0.482,3.592-1.188,5.724c-0.249,0.721-0.491,1.447-0.704,2.159
		c-0.555,1.862-1.107,3.479-1.636,5.009c-1.49,4.359-6.569,15.646-0.57,17.988c5.039,1.92,16.437-3.956,22.521-6.83
		c1.97-0.923,3.93-1.838,5.803-2.68c0.943-0.42,1.81-0.916,2.654-1.399c1.372-0.769,2.66-1.506,3.633-1.499
		c2.318-0.009,9.406,4.771,13.598,7.619c3.282,2.231,5.189,3.51,6.244,3.869c1.846,0.615,3.738-0.648,5.114-3.373
		c1.261-2.521,1.781-5.756,0.245-7.49c0.367-2.198,0.368-4.907-0.044-8.121c-0.21-1.743-1.066-5.121-2.051-9.03
		c-1.125-4.447-2.998-11.871-2.72-13.063C36.456,86.526,38.589,85.085,40.303,83.922L40.303,83.922z"/>
	<path fill="#133754" d="M36.98,79.217c1.021-0.834,2.068-1.696,2.843-2.498l0.547-0.561c1.987-2.056,4.239-4.393,5.246-6.062
		c0.935-1.559,1.076-2.849,0.41-3.837c-1.349-2.005-5.2-1.59-9.366-0.948c-0.41,0.06-0.765,0.119-1.066,0.151
		c-1.071,0.146-2.743,0.492-4.667,0.898c-3.223,0.675-9.918,2.073-11.016,1.518c-0.442-0.369-1.253-2.576-1.646-3.637
		c-0.255-0.693-0.497-1.335-0.692-1.782c-0.255-0.579-0.547-1.277-0.88-2.047c-2.365-5.647-5.569-13.258-9.658-12.925
		c-0.091-0.027-0.164-0.073-0.25-0.087c-0.242-0.027-0.483,0.014-0.702,0.119c-2.306-0.123-4.234,0.424-5.729,1.709
		c-3.714,3.222-3.965,10.104-4.179,16.17c-0.096,2.917-0.205,5.665-0.675,7.529c-2.083,0.797-4.361,0.921-6.759,1.003
		c-2.744,0.114-5.556,0.241-8.176,1.44l-2.384,1.281c-2.42,1.204-3.729,2.652-3.97,4.435c-0.488,3.687,3.896,7.255,8.14,10.7
		c2.484,2.02,5.046,4.1,5.57,5.488c0.392,1.041-0.132,3.318-0.592,5.318c-0.164,0.68-0.324,1.369-0.456,2.033
		c-0.347,1.75-0.711,3.273-1.058,4.719c-0.989,4.105-4.653,14.834,1.021,16.459c4.768,1.313,14.657-5.029,19.963-8.166
		c1.718-1.021,3.428-2.02,5.063-2.947c0.825-0.467,1.573-0.99,2.302-1.504c1.185-0.82,2.292-1.607,3.186-1.684
		c2.115-0.205,8.992,3.547,13.063,5.779c3.186,1.758,5.036,2.768,6.03,2.996c1.737,0.404,3.354-0.914,4.375-3.52
		c0.935-2.406,1.13-5.402-0.419-6.852c0.146-2.039-0.086-4.506-0.739-7.41c-0.341-1.566-1.408-4.58-2.647-8.061
		c-1.404-3.957-3.756-10.57-3.601-11.683C33.688,81.919,35.512,80.419,36.98,79.217L36.98,79.217z M1.927,51.045
		c0.825-0.716,1.85-1.094,3.108-1.167c-0.419,2.115-1.039,4.198-1.709,6.376c-1.235,4.015-2.506,8.177-2.247,12.661l-0.474,3.578
		c-0.807,0.465-1.759,0.611-2.667,0.405c0.424-2.046,0.542-4.648,0.638-7.415C-1.227,59.901-1.009,53.579,1.927,51.045L1.927,51.045
		z M-11.838,109.904c0.356-1.471,0.73-3.02,1.085-4.805c0.132-0.645,0.283-1.309,0.434-1.965c0.587-2.57,1.148-4.994,0.5-6.715
		c-0.747-2.004-3.327-4.086-6.307-6.508c-3.378-2.748-7.575-6.165-7.261-8.509c0.114-0.879,1.559-2.091,3.063-2.861l0.219,0.383
		c2.292,3.208,5.838,5.587,9.01,7.701C-8.283,88.5-5.63,90.27-4.86,92.023c0.465,1.063,0.15,2.789-0.123,4.311
		c-0.073,0.379-0.146,0.762-0.196,1.123c-0.301,1.922-0.711,3.699-1.149,5.578c-0.93,4.027-1.891,8.197-1.654,13.723
		c0,0-3.496,3.746-5.529,5.131C-13.483,116.789-12.758,113.699-11.838,109.904L-11.838,109.904z M38.785,114.24
		c-0.378,2.121-1.413,3.402-1.732,3.455c-0.684-0.158-3.167-1.529-5.365-2.734c-6.554-3.609-11.786-6.357-14.575-6.098
		c-1.591,0.143-2.99,1.117-4.466,2.152c-0.675,0.473-1.368,0.959-2.083,1.361c-1.655,0.93-3.382,1.951-5.114,2.969
		c-4.936,2.916-10.004,5.906-13.873,7.096l0.027-0.041c0.556-1.975,3.674-4.117,3.674-4.117c0.018-0.008,0.027,0,0.045-0.008
		c3.072-1.322,5.67-3.422,8.195-5.451c1.135-0.92,2.211-1.797,3.332-2.598c1.354-0.973,2.648-2.078,3.915-3.154
		c3.167-2.693,6.158-5.25,9.02-4.73c0.711,0.117,1.627,0.752,2.589,1.422c0.734,0.516,1.5,1.045,2.347,1.48
		c0.779,0.391,1.618,0.83,2.489,1.289c3.418,1.793,7.265,3.801,11.234,5.133c0.046,0.037,0.082,0.086,0.123,0.113
		C38.775,111.906,39.063,112.746,38.785,114.24L38.785,114.24z M34.87,95.193c1.158,3.275,2.251,6.369,2.57,7.801
		c0.511,2.254,0.757,4.27,0.748,5.928c-3.423-1.256-6.805-3.002-9.826-4.594c-0.879-0.461-1.723-0.906-2.516-1.309
		c-0.716-0.387-1.399-0.82-2.056-1.303c-1.199-0.824-2.325-1.613-3.578-1.836c-4.016-0.713-7.603,2.342-11.07,5.299
		c-1.217,1.041-2.484,2.115-3.742,3.027c-1.186,0.84-2.343,1.777-3.451,2.682c-2.192,1.762-4.457,3.545-6.941,4.762l0.009-0.082
		h-0.574c-0.068-4.674,0.784-8.391,1.614-11.982c0.423-1.842,0.87-3.742,1.18-5.752c0.054-0.34,0.114-0.703,0.187-1.066
		c0.342-1.869,0.72-3.988-0.045-5.734c-1.057-2.414-3.87-4.283-7.115-6.448c-2.967-1.969-6.275-4.193-8.326-7.006
		c0,0,0.438-1.508,6.877-1.527c2.511-0.003,5.096-0.205,7.534-1.152c0.766,0.342,1.591,0.538,2.429,0.542
		c4.827,0.036,4.945-6.24,4.945-6.24c0.004-0.082,0.032-0.155,0.023-0.241c-0.282-4.075,0.893-7.89,2.128-11.928
		c0.711-2.324,1.431-4.722,1.869-7.178c2.425,0.857,5.469,8.131,6.854,11.431c0.333,0.793,0.634,1.5,0.898,2.092
		c0.178,0.415,0.388,1.003,0.629,1.641c0.971,2.63,1.627,4.262,2.63,4.813c1.686,0.935,6.094,0.11,12.625-1.253
		c1.896-0.396,3.523-0.738,4.512-0.866c0.31-0.041,0.684-0.101,1.112-0.164c4.303-0.661,6.695-0.675,7.128-0.032
		c0.059,0.082,0.073,0.487-0.465,1.399c-0.875,1.455-3.131,3.787-4.936,5.66l-0.542,0.561c-0.679,0.707-1.682,1.519-2.644,2.315
		c-1.964,1.601-3.814,3.114-4.293,4.581C30.817,83.35,31.775,86.472,34.87,95.193L34.87,95.193z"/>
</g>
</svg>
