<svg xmlns="http://www.w3.org/2000/svg" xml:space="preserve" width="174.248" height="176.121" viewBox="-2.049 -3.06 174.248 176.121"><circle cx="85.33" cy="85.774" r="84.296" fill="#97D0C9"/><path fill="#FCCE8D" d="M35.936 78.616c.438-.356.889-.727 1.22-1.069l.234-.24c.853-.881 1.818-1.883 2.248-2.598.401-.668.461-1.221.176-1.647-.576-.858-2.227-.679-4.014-.407-.175.027-.328.051-.458.067-.457.062-1.174.211-2 .383-1.38.29-4.25.889-4.719.653-.191-.159-.538-1.105-.706-1.56-.11-.297-.213-.571-.297-.763-.11-.248-.235-.547-.377-.878-1.014-2.419-2.386-5.68-4.139-5.537-.039-.013-.069-.033-.107-.039a.565.565 0 0 0-.302.051c-.987-.053-1.813.183-2.454.733-1.593 1.381-1.7 4.33-1.792 6.93-.042 1.249-.088 2.427-.29 3.226-.892.342-1.868.392-2.897.431-1.174.046-2.381.101-3.504.617l-1.021.548c-1.037.513-1.597 1.135-1.7 1.9-.209 1.581 1.669 3.109 3.488 4.586 1.065.866 2.163 1.754 2.388 2.35.168.447-.057 1.422-.255 2.281-.069.291-.138.584-.195.871-.149.749-.305 1.4-.454 2.018-.423 1.76-1.993 6.36.439 7.056 2.041.564 6.28-2.155 8.555-3.501.735-.434 1.468-.865 2.169-1.262.354-.199.674-.424.987-.645.507-.352.983-.687 1.365-.721.906-.088 3.853 1.52 5.598 2.479 1.365.752 2.158 1.183 2.584 1.283.743.172 1.437-.391 1.875-1.508.4-1.031.484-2.316-.18-2.937.062-.874-.038-1.933-.316-3.175-.148-.673-.606-1.963-1.136-3.455-.603-1.696-1.609-4.531-1.544-5.007.121-.355.903-.998 1.531-1.514z"/><path fill="#133754" d="M34.687 80.222c.438-.356.888-.727 1.219-1.069l.234-.24c.853-.881 1.818-1.883 2.248-2.598.401-.669.462-1.222.176-1.647-.577-.858-2.227-.679-4.014-.407-.175.027-.328.051-.457.067-.458.062-1.174.211-2 .383-1.38.29-4.25.888-4.719.653-.191-.16-.538-1.105-.706-1.56-.11-.297-.213-.571-.297-.763-.11-.248-.235-.547-.377-.878-1.014-2.419-2.386-5.68-4.139-5.538-.039-.013-.069-.033-.107-.038a.55.55 0 0 0-.301.05c-.987-.053-1.814.183-2.454.734-1.592 1.38-1.699 4.329-1.791 6.93-.042 1.249-.088 2.427-.29 3.226-.892.342-1.868.392-2.897.431-1.174.046-2.381.101-3.504.617l-1.021.549c-1.037.513-1.597 1.135-1.7 1.899-.209 1.581 1.669 3.109 3.487 4.586 1.065.866 2.163 1.756 2.388 2.351.167.447-.058 1.421-.255 2.281-.069.291-.138.585-.195.87-.149.75-.305 1.402-.454 2.02-.423 1.76-1.993 6.359.439 7.055 2.042.564 6.28-2.156 8.555-3.5.736-.436 1.468-.865 2.169-1.264.354-.198.674-.422.987-.643.507-.352.982-.688 1.365-.721.906-.088 3.853 1.52 5.598 2.478 1.365.753 2.158 1.183 2.584 1.283.743.173 1.437-.391 1.875-1.508.4-1.031.484-2.315-.18-2.937.062-.875-.038-1.932-.316-3.175-.148-.673-.605-1.963-1.135-3.455-.603-1.696-1.609-4.531-1.544-5.006.119-.356.9-.999 1.529-1.516zM19.666 68.15c.352-.306.793-.469 1.331-.499-.179.906-.446 1.798-.732 2.732-.529 1.721-1.075 3.504-.963 5.425l-.203 1.534a1.578 1.578 0 0 1-1.143.173c.182-.877.232-1.992.273-3.178.084-2.392.18-5.1 1.437-6.187zm-5.899 25.223c.153-.629.313-1.293.465-2.058.057-.276.122-.561.187-.843.251-1.099.492-2.138.213-2.876-.319-.86-1.425-1.753-2.702-2.791-1.447-1.176-3.246-2.639-3.112-3.645.049-.377.668-.896 1.313-1.227l.093.163c.984 1.375 2.502 2.397 3.863 3.302 1.205.803 2.34 1.56 2.671 2.313.199.454.065 1.194-.053 1.847-.031.163-.062.326-.084.481-.129.823-.305 1.585-.491 2.39-.4 1.727-.812 3.514-.709 5.882 0 0-1.499 1.604-2.371 2.199.012-2.186.324-3.509.717-5.137zm21.694 1.859c-.164.908-.607 1.458-.744 1.48-.293-.068-1.356-.655-2.297-1.17-2.809-1.547-5.051-2.725-6.248-2.615-.681.061-1.28.479-1.913.922-.29.204-.587.412-.893.584-.709.4-1.448.836-2.191 1.274-2.115 1.249-4.288 2.531-5.945 3.04l.012-.018c.237-.846 1.574-1.763 1.574-1.763.007-.005.012 0 .02-.005 1.315-.565 2.428-1.467 3.51-2.336.487-.395.949-.77 1.429-1.113.579-.416 1.135-.891 1.677-1.351 1.357-1.155 2.638-2.251 3.865-2.028.305.052.698.322 1.109.609.316.221.644.447 1.006.635.335.168.694.355 1.068.553 1.463.768 3.113 1.629 4.813 2.2.02.015.035.037.054.048.09.054.212.415.094 1.054zm-1.677-8.162c.495 1.403.964 2.729 1.101 3.342.218.967.324 1.83.321 2.542-1.467-.54-2.917-1.288-4.211-1.97-.378-.197-.74-.389-1.079-.56a7.6 7.6 0 0 1-.88-.558c-.515-.355-.996-.692-1.533-.787-1.722-.305-3.259 1.005-4.745 2.27-.522.445-1.064.906-1.604 1.297-.508.36-1.003.762-1.479 1.148-.938.756-1.91 1.522-2.974 2.041l.004-.035h-.245c-.03-2.002.335-3.594.69-5.133.182-.79.374-1.605.507-2.464.022-.149.048-.302.079-.458.146-.8.309-1.709-.019-2.457-.454-1.037-1.658-1.836-3.049-2.764-1.272-.844-2.69-1.797-3.569-3.001 0 0 .188-.647 2.948-.654 1.076-.003 2.184-.089 3.228-.495.328.146.683.23 1.041.233 2.069.016 2.119-2.674 2.119-2.674.003-.035.015-.066.011-.104-.121-1.747.382-3.38.912-5.112.305-.996.613-2.023.8-3.076 1.04.368 2.344 3.485 2.938 4.899.142.339.271.644.384.897.077.176.167.428.271.703.416 1.127.697 1.825 1.127 2.063.721.399 2.611.046 5.409-.539.812-.17 1.51-.315 1.933-.37.134-.019.294-.042.477-.071 1.845-.283 2.87-.288 3.056-.014.024.035.031.21-.201.6-.374.623-1.341 1.623-2.115 2.427l-.232.24c-.29.302-.721.651-1.132.992-.842.686-1.636 1.334-1.841 1.963-.186.563.225 1.902 1.552 5.639zM137.811 75.26a3.337 3.337 0 0 1-.986.987c.381.37.539-.878 1.315-.658-.901.742-1.659 1.629-2.466 2.466-.146-.128-.371-.177-.658-.165-.545-1.345-.621-2.987 1.315-3.289-.485.847.919-.134 1.48.659zm-80.239 17.1c-.925.048-1.582-.173-2.138-.493 1.164-5.118-.323-12.586.822-17.265.643.234.128 1.625.658 1.973.356-.795.03-2.272.493-2.96 1.449 1.401.579 5.122.822 7.728 4.958-4.022 8.431 4.271 7.234 9.865-.381-.824-.056-2.355-.164-3.453-.334 1.969.061 4.665-1.48 5.426-.192-4.004.687-10.127-2.96-10.687-1.538.763-2.247 2.904-2.466 5.261-.147 1.588.274 3.353-.329 4.439.284-.508-.943-.206-.492.166zm2.467-10.03c-.487.609-.909 1.284-1.151 2.138.535-.726.845-1.676 1.644-2.138.194-.025.467.028.494-.165-.504-.118-.6.169-.987.165zm66.427 3.782c-1.097 3.006.639 6.319 4.274 5.097-1.262 1.156-3.848.237-4.439-.822-.391-4.633-.271-11.414 2.303-14.633.689-.061.117.536.164.822.891.013.533-1.221 1.48-1.151-.209 4.316-2.576 8.677-1.974 13.812.397.314 1.321.104 1.974.164-.041.179-.328.111-.33.329.549.394 1.13-.263 1.645.164-.798 2.188-4.563 1.673-5.097-.493-.257-1.042.182-1.904 0-3.289zm-8.714-6.742c-.359-.001-1.994.793-1.974-.657.733-.253 1.275-.697 1.974-.987-.37-.143-1.352.508-1.81.822.001-1.061 3.065-1.106 2.96-2.302.691-.186 1.183-.571 1.973-.658.056.821.6 1.154.986 1.645-1.143 1.433-3.094 2.058-4.932 2.795-.034-.528.587-.4.823-.658zM49.844 90.716c.931.514 2.044-.981 2.96-.493-.362 1.775-2.123 2.152-4.275 2.138 1.174.458 2.751-.097 3.453-.657-.354 1.563-5.38 1.609-5.919-.33.716.381 1.236.957 2.302.987-2.025-.661-3.434-1.938-4.275-3.782.286 1.26 1.189 2.039 1.48 2.467.407.6.226.324-.329-.164-2.272-2.001-2.85-7.104-1.809-10.688 1.157-4.202 8.363-5.037 9.701-.822-.731.073-.87-.445-1.315-.658.06.714.986 1.231.493 1.973-1.779-.324-1.973-2.001-3.946-1.809-4.792.469-4.466 14.167 2.631 11.345-.282.266-.599.498-1.152.493zm58.699 0c.932.514 2.045-.981 2.961-.493-.363 1.775-2.123 2.152-4.275 2.138 1.174.458 2.751-.097 3.453-.657-.354 1.563-5.381 1.609-5.92-.33.716.381 1.236.957 2.303.987-2.025-.661-3.435-1.938-4.275-3.782.285 1.26 1.189 2.039 1.479 2.467.407.6.226.324-.329-.164-2.272-2.001-2.85-7.104-1.809-10.688 1.156-4.202 8.363-5.037 9.701-.822-.73.073-.87-.445-1.315-.658.06.714.987 1.231.493 1.973-1.778-.324-1.973-2.001-3.945-1.809-4.793.469-4.467 14.167 2.63 11.345-.282.266-.599.498-1.152.493zm37.818-9.373c2.03 1.765 2.137 3.04 2.137 6.742 0 .933-.053.122-.164-.329-.464-1.881-.182-6.245-2.467-6.248-1.186-.001-1.727 1.205-1.479 1.809-.438-.554-.158-.09-.494.329-.739.922-1.089 6.059-1.315 8.386-.983-.112-1.651-.541-2.466-.822.501-3.485-.418-7.506.328-10.852.85-.083.206 1.329.658 1.645.311-.732.295-1.788.657-2.467.619.148.681.855.658 1.644 4.408-5.271 9.421 2.135 8.057 8.058-.379-.443-.059-1.586-.165-2.303-.277 1.367-.248 3.041-.822 4.111-1.119-.439-.551-2.075-.657-3.782-.165-2.666-.649-5.055-2.466-5.921zm-1.972.658c.17-.547 1.664-.629 1.644-.823-.993-.334-1.863 1.024-1.644.823zm5.754 3.454c-.022-.214-.159-.574-.328-.987-.034 1.663.543 3.026.328.987zm-81.061 5.426c.907 1.705 2.894 2.896 5.426 2.466-3.105 1.122-6.317-1.19-5.919-4.11-.328.892-.647-1.021-.658-1.645-.06-3.514 3.155-6.976 6.413-7.235.253-.087.01-.171-.165-.164 5.925-.786 3.675 7.625-1.48 7.07-.863-.093-1.175-.554-2.302-.657-.767 3.014.885 5.033 3.782 4.933-.175.373-1.034.063-1.48.165 1.21.644 2.41-.147 3.289 0-1.031 2.985-6.196 1.001-6.906-.823zm2.137-6.413c2.02.636 3.868.171 4.111-1.809-1.8.174-3.238.708-4.111 1.809zm.493 1.479c-.365-.127-.641-.346-1.15-.328-.052.447.955.671 1.15.328zm-3.288 2.631c-.072-.539.166-2.239-.165-1.973.072.539-.166 2.24.165 1.973zm46.697 2.303c.906 1.705 2.894 2.896 5.426 2.466-3.105 1.122-6.318-1.19-5.92-4.11-.328.892-.646-1.021-.658-1.645-.059-3.514 3.155-6.976 6.413-7.235.253-.087.011-.171-.164-.164 5.925-.786 3.675 7.625-1.479 7.07-.863-.093-1.176-.554-2.303-.657-.766 3.014.885 5.033 3.782 4.933-.175.373-1.034.063-1.479.165 1.209.644 2.41-.147 3.288 0-1.031 2.985-6.197 1.001-6.906-.823zm2.137-6.413c2.02.636 3.867.171 4.111-1.809-1.801.174-3.238.708-4.111 1.809zm.494 1.479c-.366-.127-.642-.346-1.152-.328-.051.447.956.671 1.152.328zm-3.289 2.631c-.072-.539.166-2.239-.164-1.973.071.539-.166 2.24.164 1.973zm39.297 1.316c.204 2.092 2.777 3.953 5.591 3.453-3.058 1.172-6.292-1.469-5.755-3.946-.437.949-.721-1.51-.658-2.467.216-3.285 3.086-6.113 6.413-6.577.253-.087.011-.171-.165-.164 1.489-.526 3.328.237 3.617 1.644.754 3.653-3.672 7.013-7.398 4.769-.8 2.389.468 5.264 3.617 4.768.064.667-1.024.182-1.479.33 1.159.427 2.328.284 3.288-.165.18.728-.277.817-.328 1.315-3.144 1.057-6.122-.448-6.743-2.96zm2.467-5.426c2.01.743 3.803.037 4.11-1.809-1.826.148-3.265.681-4.11 1.809zm-.823 1.479c.43-.137.902.498 1.15 0-.294-.166-1.008-.629-1.15 0zm-21.375.494c-.409 1.398-.355 3.262-.658 4.768.145-3.73.617-7.148.986-10.688.568-.129.724.154.822.493.486-.171.483-.832 1.316-.658.434 3.696-1.064 6.809-.987 10.688-.595.156-.229-.648-.329-.986-.285.701-.312 1.66-1.314 1.645-.448-1.621.24-3.471.164-5.262zm-53.602 1.644c.864-.04 2.017-.992 2.959-1.479-.073.146-.145.293-.329.328.541-1.078 3.853-1.71 5.426-2.795-1.72-1.039-5.341-.209-6.906-.164.04-.673.686-.739 1.315-.822-.358-.631-1.645.21-2.631 0 1.702-2.879 8.712-2.266 11.345-.658.005.991.052 2.024-.164 2.795-2.307 1.913-6.403 2.037-8.385 4.274 2.281.46 4.961.52 7.399.822-.992.495-2.188-.222-3.453 0 2.035.404 3.615.377 5.098 1.151-.892 1.452-3.693.116-5.426.329 1.025.344 2.373.367 3.617.493-3.715.446-6.801-.949-10.523-.657-.257-1.575.266-3.239.658-3.617zm1.48 1.644c.132-.37 1.381-.47.986-.822-.246.256-1.383.468-.986.822zm-1.973 1.809h2.795c-.552-.38-1.806-.058-2.631-.165-.066-.489.159-2.121-.164-1.809v1.974zm2.466-1.479c.261-.014-.996-.125-1.151 0 .774-.62 4.232.922 5.427.164-1.403-.075-3.291-.217-4.276-.164z"/><path fill="#F9FAF7" d="M83.129 173.061a69.35 69.35 0 0 1-4.254-.122c-13.13-.811-21.498-3.518-33.248-8.557-4.674-2.004-8.192-4.627-11.594-7.164-.94-.701-1.897-1.415-2.9-2.133a266.04 266.04 0 0 0-1.924-1.36c-4.913-3.458-11.028-7.76-14.575-13.176-6.367-9.724-9.717-15.827-12.736-26.294-1.045-3.622-1.552-7.252-2.042-10.763-.236-1.696-.481-3.45-.782-5.151-1.013-5.733-1.592-10.647-1.125-15.994.542-6.212 1.171-11.087 1.98-15.342.444-2.335 1.172-4.57 1.875-6.731.726-2.231 1.412-4.338 1.759-6.427l.093-.56.246-.512c0-.001 3.345-6.978 4.268-8.927.983-2.076 2.309-3.907 3.591-5.677.291-.402.58-.802.861-1.199.986-1.396 1.873-2.953 2.812-4.602 1.711-3.005 3.48-6.113 6.16-8.823 7.172-7.253 16.014-11.774 24.564-16.146 1.376-.704 2.747-1.404 4.103-2.113C60.707-.173 72.257-3.06 83.661-3.06c10.141 0 20.059 2.91 29.651 5.724 1.31.384 2.61.766 3.899 1.136 7.786 2.235 13.473 7.059 18.972 11.724 2.987 2.533 5.809 4.926 8.946 6.931l1.228.779c4.829 3.056 9.822 6.216 12.852 12.64 1.363 2.892 2.354 5.864 3.313 8.737.893 2.674 1.734 5.2 2.836 7.594.398.866.812 1.715 1.222 2.558 1.958 4.029 3.983 8.195 4.207 13.383.049 1.122.063 2.242.075 3.358.021 1.71.039 3.325.191 4.884.097.993.283 2.009.48 3.085.352 1.915.75 4.084.664 6.466-.089 2.479-.103 4.719-.116 6.885-.048 7.793-.09 14.523-3.97 23.713-3.48 8.248-7.555 17.204-11.371 21.099a515.72 515.72 0 0 0-3.808 3.943c-9.432 9.84-19.184 20.015-37.502 26.625-3.952 1.427-7.8 2.022-11.521 2.599-1.764.273-3.429.531-5.108.873-4.206.853-10.211 1.385-15.672 1.385zM11.354 55.739c-.461 2.462-1.212 4.771-1.941 7.01-.654 2.013-1.273 3.914-1.622 5.751-.758 3.984-1.353 8.604-1.87 14.541-.39 4.476.131 8.796 1.034 13.908.326 1.844.581 3.671.827 5.438.472 3.381.917 6.574 1.805 9.649 2.751 9.537 5.715 14.924 11.742 24.129 2.709 4.136 7.903 7.791 12.486 11.016.68.479 1.342.944 1.975 1.397 1.047.749 2.046 1.494 3.028 2.226 3.306 2.465 6.16 4.594 9.964 6.225 11.14 4.777 18.558 7.182 30.587 7.925 1.144.07 2.409.106 3.76.106h.001c4.964 0 10.358-.47 14.079-1.227 1.863-.379 3.701-.663 5.478-.938 3.5-.542 6.806-1.054 10.03-2.219 16.556-5.974 25.244-15.038 34.442-24.635a480.542 480.542 0 0 1 3.87-4.008c3.266-3.333 8.119-14.831 9.714-18.61 3.261-7.722 3.294-13.145 3.341-20.65.014-2.225.027-4.524.121-7.122.054-1.509-.234-3.077-.538-4.736-.219-1.191-.445-2.423-.575-3.752-.185-1.9-.206-3.764-.228-5.567-.012-1.032-.023-2.068-.068-3.106-.152-3.529-1.662-6.635-3.41-10.231a136.39 136.39 0 0 1-1.294-2.712c-1.284-2.792-2.236-5.646-3.157-8.406-.925-2.774-1.799-5.394-2.96-7.856-2.036-4.319-5.504-6.513-9.894-9.291l-1.256-.797c-3.594-2.295-6.756-4.978-9.814-7.572-5.077-4.307-9.873-8.375-16.004-10.135a692.15 692.15 0 0 1-3.944-1.149c-9.05-2.655-18.407-5.4-27.399-5.4-10.119 0-20.386 2.572-29.694 7.438-1.378.72-2.77 1.432-4.167 2.146-7.988 4.084-16.248 8.308-22.517 14.647-1.938 1.96-3.375 4.484-4.897 7.156-.992 1.743-2.018 3.544-3.229 5.259-.298.422-.605.847-.915 1.274-1.068 1.477-2.174 3.003-2.84 4.411-.78 1.641-3.27 6.838-4.051 8.467z"/></svg>