<?xml version="1.0" encoding="utf-8"?>
<!-- Generator: Adobe Illustrator 15.0.0, SVG Export Plug-In . SVG Version: 6.00 Build 0)  -->
<!DOCTYPE svg PUBLIC "-//W3C//DTD SVG 1.1//EN" "http://www.w3.org/Graphics/SVG/1.1/DTD/svg11.dtd">
<svg version="1.1" id="Calque_1" xmlns="http://www.w3.org/2000/svg" xmlns:xlink="http://www.w3.org/1999/xlink" x="0px" y="0px"
	 width="653.067px" height="678.519px" viewBox="61.404 54.284 653.067 678.519"
	 enable-background="new 61.404 54.284 653.067 678.519" xml:space="preserve">
<path fill="#F8F9F7" d="M712.466,442.554c-1.998-69.498-5.244-138.995-10.07-208.574C682.005,73.265,569.062,57.534,431.233,70.935
	c-50.187,2.413-101.04-2.83-151.644,1.748c-44.028,2.247-90.886,4.327-129.587,28.048c-41.947,24.553-63.837,69.746-72.327,116.105
	c-7.657,38.867-14.149,77.652-14.565,117.436c-3.329,51.853-1.498,103.789,2.996,155.64c3.662,45.193,7.991,90.719,24.802,133.25
	c17.894,43.279,53.433,69.996,94.632,86.309c34.374,13.648,72.659,19.975,108.115,22.639c9.238,3.662,6.326-8.074,7.075-13.566
	c3.495-58.428,6.491-116.771,8.572-175.281c-0.417,0-0.749,0-1.166,0c-2.163-13.066,5.161-58.262-4.993-63.338
	c-19.226-0.582-57.595,8.49-59.092-19.559c3.163-25.885-14.066-100.125,25.135-100.042c8.074-1.831,34.624,1.832,37.121-5.41
	c3.329-33.457,5.909-67.415,21.557-97.877c18.144-41.864,64.418-58.926,107.366-59.592c22.971,2.163,90.387-6.409,87.141,28.88
	c-4.41,22.223,4.078,86.642-24.969,89.555c-28.631,3.246-71.41,8.24-56.68,47.94c1.832,11.818,55.432,3.995,68.332,7.407
	c32.709,1.914,15.396,42.448,14.98,63.17c-4.244,13.982-2.414,38.453-20.891,41.283c-12.318,2.746-70.578-0.666-72.742,8.572
	c-2.248,81.564-3.912,163.129-5.66,244.693c0.584,7.74,15.73,0.832,21.309,1.914c7.74-0.666,15.396,0.666,23.303-1.332
	c31.545-2.828,64.42-3.578,95.631-8.322c46.691-7.156,89.555-23.387,117.852-69.496
	C720.122,589.371,715.546,512.467,712.466,442.554z"/>
</svg>
