<?xml version="1.0" encoding="utf-8"?>
<!-- Generator: Adobe Illustrator 15.0.0, SVG Export Plug-In . SVG Version: 6.00 Build 0)  -->
<!DOCTYPE svg PUBLIC "-//W3C//DTD SVG 1.1//EN" "http://www.w3.org/Graphics/SVG/1.1/DTD/svg11.dtd">
<svg version="1.1" id="Calque_1" xmlns="http://www.w3.org/2000/svg" xmlns:xlink="http://www.w3.org/1999/xlink" x="0px" y="0px"
	 width="653.067px" height="678.519px" viewBox="61.404 54.284 653.067 678.519"
	 enable-background="new 61.404 54.284 653.067 678.519" xml:space="preserve">
<g id="ic-social-instagram">
	<path fill="#F8F9F7" d="M487.404,713.545h-200c-58.764,0-114.011-22.885-155.563-64.438
		c-41.553-41.553-64.437-96.799-64.437-155.563v-200c0-58.764,22.884-114.011,64.437-155.563
		c41.552-41.553,96.799-64.437,155.563-64.437h200c58.764,0,114.01,22.884,155.563,64.437s64.438,96.8,64.438,155.563v200
		c0,58.764-22.885,114.01-64.438,155.563S546.168,713.545,487.404,713.545z M287.404,113.544c-99.252,0-180,80.748-180,180v200
		c0,99.252,80.748,180,180,180h200c99.252,0,180-80.748,180-180v-200c0-99.252-80.748-180-180-180H287.404z"/>
	<path fill="#F8F9F7" d="M387.404,546.879c-84.548,0-153.333-68.785-153.333-153.334c0-84.548,68.785-153.333,153.333-153.333
		c84.547,0,153.333,68.785,153.333,153.333C540.736,478.094,471.951,546.879,387.404,546.879z M387.404,280.211
		c-62.492,0-113.333,50.841-113.333,113.333c0,62.493,50.841,113.334,113.333,113.334c62.493,0,113.333-50.842,113.333-113.334
		C500.736,331.052,449.896,280.211,387.404,280.211z"/>
	<path fill="#F8F9F7" d="M554.07,276.544c-29.408,0-53.334-23.925-53.334-53.333s23.926-53.333,53.334-53.333
		s53.334,23.925,53.334,53.333S583.479,276.544,554.07,276.544z M554.07,209.878c-7.352,0-13.334,5.981-13.334,13.333
		s5.982,13.333,13.334,13.333s13.334-5.981,13.334-13.333S561.422,209.878,554.07,209.878z"/>
</g>
</svg>
