<svg xmlns="http://www.w3.org/2000/svg" width="800" height="800" xml:space="preserve"><g fill="#103653"><path d="M478.73 656.743c-39.495 0-71.627 32.132-71.627 71.63 0 39.494 32.132 71.627 71.627 71.627s71.628-32.133 71.628-71.627c0-39.498-32.132-71.63-71.628-71.63zm0 100.418c-15.876 0-28.793-12.915-28.793-28.791s12.915-28.791 28.793-28.791c15.874 0 28.791 12.915 28.791 28.791s-12.914 28.791-28.791 28.791zM738.019 19.309C698.645-11.548 641.537-4.679 610.6 34.596l-91.828 112.883-4.73 5.816c-.114.139-.228.277-.339.418L132.03 622.891c36.22 2.427 67.485 23.16 84.622 53.016h170.324c18.252-31.801 52.531-53.281 91.754-53.281 13.327 0 26.073 2.502 37.828 7.021 23.385-25.42 37.712-59.29 37.712-96.473V175.931l91.741-112.778c.086-.107.171-.214.255-.323 15.433-19.688 44.005-23.148 63.689-7.72 9.885 7.749 24.183 6.016 31.935-3.872 7.747-9.884 6.016-24.182-3.871-31.929zM124.895 656.743c-39.495 0-71.627 32.132-71.627 71.63C53.268 767.867 85.4 800 124.895 800c39.497 0 71.629-32.133 71.629-71.627 0-39.498-32.129-71.63-71.629-71.63zm.002 100.418c-15.876 0-28.793-12.915-28.793-28.791s12.915-28.791 28.793-28.791c15.874 0 28.791 12.915 28.791 28.791s-12.915 28.791-28.791 28.791z"/></g></svg>