<svg xmlns="http://www.w3.org/2000/svg" width="800" height="800" xml:space="preserve"><path fill="#CBD265" d="M25.665 720.244c48.647 53.063 109.899 79.785 174.699 79.77 58.522 0 119.931-21.803 177.532-65.633 193.404-147.268 359.218-390.259 361.2-393.197 78.777-125.357 43.936-256.24 32.495-299.254-.557-2.105-1.061-3.965-1.461-5.529 4.139-14.154-1.061-22.986-4.693-27.123-10.692-12.137-28.306-9.303-33.504-8.207a19.85 19.85 0 0 0-2.765.869c-2.295.939-4.643 1.982-6.955 2.957-18.533 6.311-36.268 15.873-52.263 24.654l-1.2.66C644.096 11.313 613.409.289 580.758.289c-79.891 0-144.897 64.99-144.897 144.898 0 .121.018.225.018.348-61.844 13.787-108.77 67.182-112.89 132.102-68.763 8.051-122.817 64.365-127.494 134.101-3.791-.295-7.581-.574-11.44-.574-79.891 0-144.898 64.99-144.898 144.898 0 24.549 6.433 47.848 17.525 68.502-1.321 1.844-2.712 3.738-3.964 5.479a3035.15 3035.15 0 0 0-4.329 6.051c-2 2.781-3.895 5.459-5.668 7.963a1534.742 1534.742 0 0 0-10.866 15.561c-.539.781-1.008 1.479-1.512 2.227a931.078 931.078 0 0 0-5.912 8.797c-.209.303-.412.609-.608.922-.018.018-.018.035-.018.053-2.59 3.965-4.572 7.059-5.963 9.336l-1.391 1.27c-5.216 4.764-7.006 12.24-4.555 18.865 1.825 4.918 5.806 10.464 13.769 19.156z"/><path fill="#103653" d="M771.591 41.936c-.557-2.104-1.061-3.964-1.461-5.529 4.139-14.153-1.061-22.985-4.693-27.123-10.692-12.136-28.306-9.302-33.504-8.206a19.85 19.85 0 0 0-2.765.869c-2.295.939-4.643 1.982-6.955 2.956-18.533 6.312-36.268 15.874-52.263 24.654l-1.2.661C644.096 11.319 613.409.295 580.758.295c-79.891 0-144.897 64.991-144.897 144.898 0 .122.018.226.018.348-61.844 13.788-108.77 67.182-112.89 132.103-68.763 8.05-122.817 64.364-127.494 134.101-3.791-.295-7.581-.573-11.44-.573-79.891 0-144.898 64.99-144.898 144.898 0 24.549 6.433 47.848 17.525 68.502-1.321 1.844-2.712 3.738-3.964 5.478-1.495 2.087-2.903 4.051-4.329 6.051-2 2.781-3.895 5.459-5.668 7.963a1534.875 1534.875 0 0 0-10.866 15.562c-.539.781-1.008 1.478-1.512 2.226a931.224 931.224 0 0 0-5.912 8.798c-.209.303-.412.609-.608.921-.018.019-.018.035-.018.053-2.59 3.965-4.572 7.06-5.963 9.337l-1.391 1.27c-5.216 4.764-7.006 12.24-4.555 18.864 1.826 4.92 5.807 10.467 13.77 19.159 48.647 53.063 109.899 79.785 174.699 79.77 58.522 0 119.931-21.803 177.532-65.634C571.3 587.121 737.113 344.129 739.096 341.19c78.777-125.356 43.935-256.24 32.495-299.254zM704.34 73.963a207.81 207.81 0 0 0-2.276-3.65c-1.738-2.677-3.6-5.269-5.513-7.824-.591-.782-1.095-1.634-1.704-2.417a681.034 681.034 0 0 1 18.708-9.215c-2.799 7.806-5.981 15.456-9.215 23.106zM580.758 35.068c29.053 0 55.984 11.579 75.979 30.722 1.27 1.217 2.434 2.521 3.65 3.809 2.398 2.539 4.711 5.164 6.867 7.928a108.105 108.105 0 0 1 3.425 4.606c2.053 2.922 3.931 5.964 5.687 9.094.835 1.495 1.737 2.938 2.521 4.468 2.364 4.694 4.521 9.545 6.207 14.639a647.302 647.302 0 0 1-29.399 50.595c-.054.069-1.113 1.703-2.766 4.189-.365.556-.607.921-1.061 1.601-.574.852-1.393 2.068-2.069 3.111-.765 1.165-1.495 2.227-2.417 3.6-.938 1.407-2.121 3.146-3.216 4.764-.974 1.443-1.896 2.799-2.991 4.416-1.182 1.721-2.556 3.721-3.859 5.633-1.285 1.86-2.537 3.687-3.945 5.72-1.461 2.104-3.112 4.451-4.694 6.729a1104.467 1104.467 0 0 1-4.538 6.468c-1.772 2.521-3.703 5.233-5.616 7.928-1.65 2.33-3.304 4.66-5.06 7.111-2.104 2.921-4.329 6.016-6.572 9.093-1.217 1.669-2.434 3.373-3.686 5.077-.365-.991-.922-1.896-1.321-2.869-.383-.956-.852-1.859-1.252-2.815-1.391-3.286-2.852-6.521-4.485-9.685-1.183-2.313-2.348-4.625-3.65-6.868-.069-.121-.122-.261-.191-.383-.068-.104-.174-.156-.226-.261-.104-.174-.228-.313-.313-.487-.068-.122-.139-.261-.208-.382-.122-.208-.156-.452-.277-.661-.365-.607-.835-1.13-1.218-1.738-1.025-1.635-2.139-3.199-3.233-4.781-2.14-3.129-4.242-6.242-6.606-9.181-.227-.277-.399-.626-.626-.903-.174-.208-.435-.295-.626-.504-.018-.018-.035-.053-.068-.069-.141-.191-.175-.417-.313-.591-.018-.087-.035-.069-.069-.087-.591-.713-1.32-1.305-1.93-2-1.131-1.305-2.313-2.573-3.495-3.842-2.572-2.747-5.146-5.46-7.928-7.998-1.426-1.305-2.974-2.47-4.451-3.722-.053-.052-.104-.087-.155-.139-1.758-1.479-3.461-3.025-5.286-4.416-2.086-1.6-4.173-3.147-6.347-4.625-.382-.278-.713-.626-1.111-.887-.054-.035-.087-.053-.141-.087-.156-.104-.33-.104-.485-.191-.278-.208-.487-.469-.782-.661-.452-.295-.991-.504-1.443-.8-1.791-1.147-3.669-2.121-5.512-3.182-3.025-1.738-6.033-3.461-9.197-4.973-.626-.296-1.165-.713-1.791-.991-.017 0-.034-.018-.052-.034-.296-.14-.608-.104-.904-.227-.226-.122-.382-.331-.626-.452-1.391-.626-2.693-1.095-4.051-1.669-1.025-.435-2.052-.87-3.112-1.287-1.442-.573-2.902-1.165-4.329-1.669-1.096-.383-2.208-.729-3.319-1.096-1.688-.556-3.408-1.2-5.077-1.669v.035h-.019c-.155-.035-.296 0-.451-.035a143.684 143.684 0 0 0-12.501-2.973c-1.253-.227-2.521-.349-3.79-.557a141.858 141.858 0 0 0-17.073-1.687c-.835-.035-1.635-.227-2.469-.244 1.675-59.267 50.392-106.958 110.062-106.958zM456.323 177.324c3.65-.365 7.354-.574 11.093-.574 12.483 0 24.428 2.382 35.677 6.294 2.018.713 4.068 1.408 6.139 2.277 4.188 1.739 8.224 3.756 12.135 5.981 1.305.729 2.678 1.408 3.93 2.173a112.613 112.613 0 0 1 13.563 9.979c.398.349.868.626 1.27.991a111.388 111.388 0 0 1 13.109 13.752c.261.33.485.73.747 1.062 3.441 4.398 6.52 9.075 9.268 13.979.973 1.756 1.773 3.599 2.659 5.407 1.757 3.563 3.355 7.198 4.729 10.954.817 2.26 1.53 4.538 2.208 6.85 1.01 3.479 1.757 7.042 2.417 10.658.33 1.809.904 3.53 1.147 5.39-.228.295-.452.608-.679.904-1.981 2.625-4.104 5.32-6.104 7.963-5.771 7.546-11.526 15.109-17.334 22.533-3.146 4.017-6.312 7.929-9.458 11.893-5.008 6.313-10.015 12.657-15.039 18.864-3.478 4.294-6.973 8.467-10.449 12.692-4.747 5.771-9.492 11.562-14.257 17.229-3.528 4.208-7.076 8.293-10.604 12.432-3.738 4.363-7.459 8.729-11.197 13.022-1.635-7.32-3.843-14.414-6.537-21.281-.035-.104-.069-.209-.122-.313a145.95 145.95 0 0 0-9.371-19.352c-.277-.47-.574-.922-.852-1.391a146.017 146.017 0 0 0-25.977-32.183 126.15 126.15 0 0 0-2.295-2.087c-5.06-4.521-10.361-8.763-16.029-12.535-.054-.034-.088-.053-.14-.087-5.528-3.669-11.371-6.868-17.387-9.771-1.025-.487-2.019-1.008-3.043-1.478-6.05-2.747-12.292-5.111-18.742-7.007-.904-.261-1.826-.451-2.729-.713a143.15 143.15 0 0 0-18.396-3.755c-.678-.087-1.304-.313-1.981-.399 4.362-52.767 46.107-95.068 98.631-100.353zm-226.51 241.34c1.495-59.443 50.316-107.326 110.09-107.326.104 0 .19.019.296.019h.017c6.346.018 12.536.661 18.604 1.722.921.156 1.859.243 2.765.417 2.347.47 4.625 1.112 6.919 1.721 1.13.297 2.295.539 3.408.87 2.226.679 4.364 1.495 6.52 2.313 1.113.418 2.261.783 3.373 1.234 2.14.888 4.226 1.912 6.294 2.922 1.043.504 2.104.974 3.112 1.512 2.069 1.096 4.069 2.313 6.068 3.547.938.574 1.896 1.113 2.816 1.722 2 1.321 3.931 2.747 5.843 4.19.816.626 1.669 1.199 2.469 1.843 1.93 1.547 3.791 3.182 5.615 4.851.695.627 1.408 1.234 2.069 1.879 1.859 1.791 3.633 3.668 5.372 5.58.539.592 1.095 1.183 1.634 1.791a111.832 111.832 0 0 1 5.111 6.397c.383.521.783 1.026 1.148 1.548a108.115 108.115 0 0 1 4.78 7.302c.243.384.486.767.712 1.165a117.432 117.432 0 0 1 4.383 8.26c.104.226.209.451.313.66a107.44 107.44 0 0 1 3.825 9.231c.018.035.035.087.053.122a110.294 110.294 0 0 1 6.294 31.121c0 .053.034.087.034.14.104 1.999.313 3.981.313 6.017 0 1.286-.035 2.556-.088 3.825-36.563 40.006-72.675 75.699-107.466 106.229-3.858.209-7.685-.034-11.526-.382-1.234-.122-2.47-.209-3.722-.365-.19-.018-.399-.087-.591-.104-.035-.209-.122-.4-.156-.608-1.13-6.225-2.591-12.31-4.503-18.238-.155-.505-.382-.974-.539-1.479-1.635-4.902-3.547-9.666-5.686-14.326a154.454 154.454 0 0 0-2.608-5.39 139.045 139.045 0 0 0-5.512-9.807c-1.13-1.859-2.173-3.756-3.373-5.547-2.782-4.138-5.807-8.102-8.989-11.927-1.773-2.121-3.686-4.12-5.581-6.138a166.6 166.6 0 0 0-6.033-6.12c-1.982-1.877-3.947-3.721-6.033-5.478-3.182-2.693-6.502-5.232-9.91-7.648-1.652-1.165-3.303-2.33-5.007-3.426a144.097 144.097 0 0 0-12.936-7.458c-1.269-.645-2.539-1.234-3.825-1.845-5.111-2.434-10.345-4.59-15.752-6.415-.136-.001-.274-.07-.414-.123zm-45.761 27.279c8.554 0 16.848 1.078 24.845 2.938.035 0 .069.034.104.034 11.127 2.573 21.455 6.867 30.913 12.413.974.574 1.947 1.165 2.921 1.773 4.051 2.557 7.945 5.32 11.597 8.346 1.043.869 1.982 1.826 2.99 2.713a107.507 107.507 0 0 1 7.754 7.686c1.078 1.165 2.191 2.313 3.199 3.528 2.903 3.461 5.563 7.111 8.032 10.901.783 1.199 1.496 2.435 2.226 3.668 2.469 4.173 4.799 8.45 6.711 12.953.018.053.052.104.07.156 2.104 4.989 3.79 10.206 5.146 15.525.139.539.278 1.078.417 1.636 1.304 5.459 2.26 11.058 2.729 16.795v.035c.244 2.989.452 5.997.452 9.058 0 5.338-.4 10.71-1.165 15.996-16.639 12.657-33.539 24.515-50.421 35.103-3.269 2.053-6.555 4.155-9.789 6.104-3.651 2.19-7.302 4.226-10.953 6.275-3.495 1.982-7.024 4.069-10.484 5.912-.07.034-.157.034-.226.069-3.564 1.896-7.128 3.651-10.693 5.407-3.842 1.912-7.685 3.824-11.458 5.563-.018.019-.052 0-.087.019h-.018v.018c-4.764 2.173-9.527 4.276-14.274 6.207-.07.034-.122.087-.209.121-2.677 1.096-5.285 2.017-7.928 3.008-4.468 1.687-8.919 3.354-13.37 4.816-2.33.765-4.625 1.372-6.937 2.052h-.035a259.303 259.303 0 0 1-9.563 2.677c-2.886-1.373-5.529-3.06-8.259-4.659-1.564-.922-3.216-1.687-4.729-2.678-1.808-1.199-3.425-2.643-5.146-3.929-2.26-1.688-4.59-3.27-6.711-5.129-7.511-6.607-14.17-14.274-19.786-22.863-.295-.436-.678-.782-1.008-1.183-10.901-17.229-17.004-37.521-17.004-58.889.022-60.763 49.417-110.175 110.147-110.175zM77.908 659.563c.383.4.817.748 1.2 1.147 2.33 2.469 4.712 4.902 7.198 7.181-3.269.418-8.867 1.009-15.335 1.426 2.208-3.113 4.347-6.138 6.937-9.754zm632.1-337.411c-1.616 2.398-164.354 240.784-353.169 384.535-106.439 81.073-222.042 78.117-302.732-7.163.817.017 1.652.069 2.469.069 15.509 0 30.026-1.669 33.904-2.156 14.935-.436 30.391-2.538 46.787-6.363a15.688 15.688 0 0 0 1.826-.313h.017c7.876-1.844 15.909-4.19 24.028-6.833.104-.035.226-.019.33-.054 2.556-.815 5.129-1.843 7.685-2.764 5.337-1.878 10.71-3.878 16.152-6.104.156-.053.313-.034.469-.087 3.095-1.27 6.172-2.678 9.267-4.033 4.764-2.086 9.563-4.329 14.396-6.659.139-.069.295-.034.452-.104 2.66-1.305 5.32-2.694 7.963-4.052 2.486-1.27 4.938-2.451 7.441-3.771.069-.035.156-.07.226-.122a.266.266 0 0 0 .069-.052c2.382-1.271 4.799-2.695 7.198-4.034.226-.121.487-.156.713-.278.052-.034.122-.069.174-.121 2.469-1.355 4.92-2.834 7.372-4.226 2.295-1.321 4.555-2.557 6.85-3.93.574-.348 1.165-.644 1.739-.99.122-.069.174-.209.295-.278 1.721-1.043 3.478-2.173 5.199-3.251.174-.104.382-.14.556-.243.834-.521 1.669-1.044 2.486-1.564 1.061-.66 2.069-1.373 3.129-2.053a637.943 637.943 0 0 0 16.169-10.569c5.146-3.426 10.223-6.938 15.283-10.484.4-.278.8-.573 1.2-.852 123.391-86.933 224.146-208.812 307.461-318.867 1.233-1.635 2.521-3.339 3.756-4.99.382-.504.765-.991 1.147-1.495.033-.035.033-.07.068-.104 1.513-2 3.043-4.051 4.572-6.067a.295.295 0 0 0 .053-.069c.208-.278.382-.521.573-.783 47.639-63.095 98.269-132.971 128.833-212.496 12.225 50.489 29.559 155.138-32.406 253.77z"/></svg>