<svg xmlns="http://www.w3.org/2000/svg" width="800" height="574.803" viewBox="0 112.599 800 574.803" xml:space="preserve"><circle fill="#F79927" cx="284.478" cy="397.864" r="209.306"/><path fill="#F8F9F6" d="M682.959 607.81c55.84 0 101.105-45.268 101.105-101.104 0-55.838-45.268-101.105-101.105-101.105-5.207 0-10.324.396-15.321 1.155-.038-48.022-38.979-86.94-87.01-86.94-20.212 0-38.798 6.91-53.57 18.473-22.086-28.392-56.571-46.659-95.329-46.659-64.644 0-117.419 50.814-120.563 114.679-3.87-.45-7.801-.708-11.792-.708-55.839 0-101.105 45.267-101.105 101.104s45.268 101.104 101.105 101.104h383.585v.001z"/><g fill="#103653"><path d="M285.202 161.44c8.801 0 15.936-7.134 15.936-15.936v-16.971c0-8.801-7.135-15.936-15.936-15.936-8.802 0-15.936 7.134-15.936 15.936v16.971c0 8.802 7.134 15.936 15.936 15.936zM173.93 170.808c2.542 6.138 8.475 9.842 14.729 9.842 2.031 0 4.099-.391 6.092-1.217 8.133-3.367 11.994-12.69 8.625-20.82l-6.494-15.678c-3.367-8.131-12.692-11.997-20.82-8.625-8.133 3.367-11.994 12.69-8.625 20.82l6.493 15.678zM95.251 230.386c3.113 3.113 7.191 4.667 11.269 4.667s8.158-1.556 11.269-4.667c6.224-6.223 6.224-16.314 0-22.537l-20.486-20.486c-6.224-6.223-16.314-6.223-22.538 0-6.224 6.224-6.224 16.314 0 22.538l20.486 20.485zM30.334 309.479l15.678 6.493a15.866 15.866 0 0 0 6.092 1.218c6.253 0 12.186-3.705 14.73-9.843 3.367-8.131-.494-17.453-8.625-20.82l-15.678-6.494c-8.13-3.366-17.453.494-20.82 8.625-3.37 8.13.494 17.451 8.623 20.821zM48.844 397.8c0-8.802-7.134-15.936-15.936-15.936H15.936C7.134 381.862 0 388.997 0 397.8c0 8.802 7.134 15.937 15.936 15.937h16.97c8.802-.001 15.938-7.135 15.938-15.937zM46.014 479.623l-15.678 6.494c-8.133 3.367-11.994 12.69-8.625 20.82 2.542 6.138 8.475 9.842 14.729 9.842 2.031 0 4.099-.391 6.092-1.217l15.678-6.494c8.133-3.367 11.992-12.69 8.625-20.82-3.366-8.129-12.691-11.995-20.821-8.625zM95.534 564.93l-12 12c-6.223 6.224-6.225 16.314 0 22.537 3.113 3.113 7.191 4.668 11.269 4.668s8.156-1.557 11.269-4.668l12-12c6.224-6.223 6.225-16.313 0-22.537-6.222-6.224-16.313-6.222-22.538 0zM194.567 616.607c-8.128-3.368-17.453.494-20.82 8.625l-11.991 28.949c-3.367 8.133.494 17.453 8.625 20.82a15.884 15.884 0 0 0 6.092 1.217c6.253 0 12.188-3.705 14.729-9.842l11.991-28.949c3.367-8.13-.495-17.45-8.626-20.82zM277.13 638.56c-8.802 0-15.936 7.134-15.936 15.936v16.971c0 8.802 7.134 15.936 15.936 15.936 8.801 0 15.936-7.134 15.936-15.936v-16.971c-.001-8.803-7.135-15.936-15.936-15.936zM464.557 234.381a15.89 15.89 0 0 0 11.269-4.667l15.239-15.242c6.223-6.223 6.223-16.314 0-22.537-6.226-6.224-16.316-6.224-22.539 0l-15.241 15.242c-6.224 6.223-6.224 16.314 0 22.537a15.9 15.9 0 0 0 11.272 4.667zM375.653 179.433a15.865 15.865 0 0 0 6.092 1.217c6.253 0 12.186-3.705 14.73-9.842l6.494-15.678c3.367-8.131-.494-17.453-8.625-20.82-8.13-3.369-17.453.494-20.82 8.625l-6.494 15.678c-3.371 8.128.491 17.451 8.623 20.82z"/><path d="M682.945 623.745h.014c64.538 0 117.041-52.505 117.041-117.04 0-64.536-52.503-117.041-117.041-117.041-.27 0-.543 0-.813.003-8.197-48.622-50.614-85.789-101.516-85.789-18.069 0-35.359 4.585-50.753 13.366-14.465-14.979-31.903-26.271-51.077-33.277-40.388-68.769-114.456-111.339-194.318-111.339-124.197 0-225.238 101.042-225.238 225.237 0 124.374 101.042 225.559 225.238 225.559l398.463.321zM91.114 397.867c0-106.624 86.744-193.366 193.365-193.366 58.572 0 113.527 26.67 149.922 71.256-.892-.017-1.778-.067-2.673-.067-67.569 0-123.985 48.925-134.785 113.997-63.42 1.297-114.613 53.291-114.613 117.018 0 24.972 7.93 48.115 21.374 67.118-66.396-30.706-112.59-98.023-112.59-175.956zm591.858 194.005-383.598-.319c-46.962 0-85.169-38.063-85.169-84.85 0-46.963 38.208-85.169 85.169-85.169a84.7 84.7 0 0 1 9.95.602 15.93 15.93 0 0 0 17.76-15.045c2.747-55.812 48.712-99.526 104.646-99.526 32.564 0 62.724 14.766 82.752 40.508a15.925 15.925 0 0 0 10.626 6.031 15.94 15.94 0 0 0 11.775-3.268c12.607-9.869 27.734-15.086 43.747-15.086 39.157 0 71.042 31.857 71.073 71.019a15.933 15.933 0 0 0 18.331 15.742 86.353 86.353 0 0 1 12.925-.974c46.963 0 85.169 38.208 85.169 85.169 0 46.956-38.203 85.161-85.156 85.166z"/><path d="M629.713 543.427H447.81c-8.8 0-15.937 7.134-15.937 15.936S439.01 575.3 447.81 575.3h181.904c8.8 0 15.937-7.135 15.937-15.937s-7.138-15.936-15.938-15.936zM689.859 543.427h-7.336c-8.8 0-15.936 7.134-15.936 15.936s7.136 15.937 15.936 15.937h7.336c8.8 0 15.936-7.135 15.936-15.937s-7.136-15.936-15.936-15.936z"/></g></svg>