<svg xmlns="http://www.w3.org/2000/svg" width="800" height="800" xml:space="preserve"><path fill="#CBD265" d="M214.932 111.334c9.653-8.961 14.389-18.558 12.994-26.326-3.206-17.852-38.197-32.179-80.239-24.629-20.775 3.733-51.191 23.56-83.441 54.027 40.832 17.34 76.249 25.344 97.027 21.61 21.331-3.832 40.89-12.827 53.659-24.682zM691.68 414.271c-23.529-8.285-55.365-4.992-83.081 8.598-21.68 10.629-45.211 14.482-67.053 14.383-.322.012-.644.039-.963.039-.701 0-1.399-.029-2.094-.084-27.435-.59-51.896-7.299-66.173-14.467-19.533-9.809-41.413-14.211-61.059-12.801a96.647 96.647 0 0 0-4.031.371 88.26 88.26 0 0 0-5.579.824c-.617.109-1.236.217-1.847.34a83.175 83.175 0 0 0-3.731.859c-.513.131-1.035.242-1.542.383-1.715.467-3.398.98-5.031 1.555a81.005 81.005 0 0 0-24.441 13.726 82.466 82.466 0 0 0-12.458 12.61c-4.358 5.49-8.086 11.596-11.089 18.229-9.785 21.621-10.714 46.195-2.613 69.201a918.203 918.203 0 0 0 1.644 4.627c.315.879.639 1.775.965 2.68l.582 1.605c15.948 43.871 45.711 115.609 84.125 162.523a26.686 26.686 0 0 1 1.906 2.688c24.883 29.637 51.146 45.453 76.648 37.258 1.271-.41 6.094-4.477 11.365-17.357a26.427 26.427 0 0 1 24.46-16.418 26.434 26.434 0 0 1 24.462 16.416c5.273 12.883 10.094 16.951 11.367 17.359 60.552 19.469 125.391-96.43 165.869-211.381 8.102-23.008 7.175-47.584-2.619-69.201-9.606-21.223-26.651-37.049-47.989-44.565z"/><path fill="#F79927" d="M289.033 545.596c-12.648-35.916-11.114-74.469 4.317-108.559 14.633-32.332 40.078-57.02 72.1-70.156 2.135-.875 4.299-1.7 6.491-2.472l.161-.057c-11.597-28.86-17.63-59.773-17.63-91.009 0-39.077-24.762-73.051-61.786-85.021-6.944-1.164-13.792-1.741-20.481-1.741l-.086.002a26.222 26.222 0 0 1-4.222.359c-.834 0-1.678-.055-2.523-.135-21.816 1.309-41.731 8.879-57.783 22.301-19.936 16.67-31.84 40.683-31.84 64.232 0 57.041-20.155 112.623-56.751 156.511-28.394 34.049-44.031 77.266-44.031 121.682 0 104.848 85.298 190.148 190.141 190.146a190.264 190.264 0 0 0 103.675-30.748 402.306 402.306 0 0 1-7.31-10.918c-32.857-50.902-57.529-112.07-72.442-154.417z"/><path fill="#103653" d="M787.198 437.044c-15.609-34.484-43.521-60.278-78.592-72.627-36.994-13.026-83.312-8.914-123.914 10.997-7.796 3.822-16.022 6.214-24.224 7.575-2.403-18.726 1.326-36.125 11.174-51.921 3.151-5.058 6.605-9.425 9.904-13.066 8.021-8.858 9.263-21.927 2.869-32.025-9.363-14.786-30.213-16.536-41.965-3.57a146.429 146.429 0 0 0-14.131 18.284c-11.795 18.086-23.198 44.83-21.245 79.031-5.093-1.42-9.122-2.938-11.674-4.22-22.079-11.085-46.04-17.316-69.38-18.494-12.662-26.039-19.32-54.67-19.32-83.658 0-31.087-9.854-60.622-28.501-85.41-18.011-23.947-43.647-41.928-72.189-50.633a26.172 26.172 0 0 0-3.031-.731c-.409-.074-.815-.134-1.223-.205 8.762-21.648 26.161-52.569 59.955-80.63 10.913-9.061 13.558-25.131 5.151-36.556-9.065-12.325-26.479-14.369-38.126-4.769-21.837 17.997-38.327 37.172-50.758 55.432-12.631-46.802-72.676-73.635-140.27-61.486-47.83 8.59-100.02 56.246-126.877 83.891A38.41 38.41 0 0 0 .6 125.733c2.178 12.128 10.122 22.531 21.244 27.828 30.136 14.353 83.314 36.167 128.097 36.166.856 0 1.7-.033 2.55-.05-19.247 24.248-30.234 54.003-30.234 83.673 0 44.692-15.8 88.251-44.489 122.658-36.301 43.533-56.293 98.771-56.293 155.537 0 133.994 109.012 243.008 243.006 243.008 49.242 0 97.177-14.996 137.445-42.62 46.491 46.172 88.599 47.393 118.385 37.82 7.125-2.29 13.685-6.017 19.648-11.154 5.969 5.138 12.524 8.864 19.651 11.154 8.956 2.88 19.021 4.783 29.992 4.783 36.016-.002 81.725-20.536 129.474-94.513 32.856-50.903 57.528-112.07 72.44-154.42 12.645-35.915 11.112-74.47-4.318-108.559zM63.611 114.416c32.25-30.467 62.666-50.293 83.441-54.026 42.042-7.55 77.033 6.776 80.239 24.628 1.396 7.769-3.34 17.366-12.994 26.327-12.769 11.854-32.328 20.85-53.659 24.683-20.779 3.731-56.196-4.272-97.027-21.612zM264.474 741.69c-104.842.002-190.141-85.298-190.141-190.146 0-44.417 15.637-87.633 44.031-121.683 36.597-43.888 56.751-99.47 56.751-156.511 0-23.55 11.905-47.563 31.84-64.233 16.052-13.422 35.967-20.992 57.783-22.3.845.08 1.689.134 2.523.134 1.433 0 2.84-.134 4.222-.359l.086-.001c6.689 0 13.538.577 20.481 1.741 37.023 11.97 61.786 45.943 61.786 85.02 0 31.236 6.033 62.149 17.63 91.009l-.161.057a136.91 136.91 0 0 0-6.491 2.472c-32.021 13.136-57.467 37.823-72.1 70.156-15.432 34.089-16.966 72.643-4.317 108.558 14.913 42.349 39.584 103.516 72.44 154.421a399.222 399.222 0 0 0 7.31 10.918 190.254 190.254 0 0 1-103.673 30.747zm477.179-213.643c-40.479 114.951-105.317 230.849-165.869 211.381-1.273-.409-6.094-4.477-11.367-17.359a26.432 26.432 0 0 0-48.922.002c-5.271 12.881-10.095 16.947-11.365 17.357-25.502 8.194-51.766-7.621-76.648-37.259-.58-.921-1.2-1.822-1.906-2.687-38.414-46.914-68.177-118.652-84.125-162.524l-.582-1.604a918.203 918.203 0 0 1-2.609-7.307c-8.102-23.006-7.172-47.581 2.613-69.201 3.003-6.633 6.731-12.738 11.089-18.229a82.533 82.533 0 0 1 12.458-12.61 81.01 81.01 0 0 1 24.441-13.726 73.124 73.124 0 0 1 5.031-1.556c.508-.14 1.03-.252 1.542-.382a79.233 79.233 0 0 1 3.731-.859c.611-.123 1.23-.231 1.847-.341a88.261 88.261 0 0 1 9.61-1.195c19.646-1.409 41.525 2.992 61.059 12.802 14.276 7.167 38.738 13.877 66.173 14.466.694.055 1.393.084 2.094.084.319 0 .641-.026.963-.039 21.842.101 45.373-3.753 67.053-14.383 27.716-13.589 59.552-16.883 83.081-8.598 21.338 7.516 38.383 23.342 47.989 44.565 9.794 21.618 10.721 46.194 2.619 69.202z"/></svg>