<svg xmlns="http://www.w3.org/2000/svg" width="800" height="564" viewBox="0 88.5 800 564" xml:space="preserve"><path fill="#CBD265" d="M316.518 171.085c6.62-6.144 9.866-12.725 8.909-18.05-2.198-12.24-26.19-22.064-55.017-16.888-14.246 2.56-35.101 16.154-57.213 37.046 27.997 11.89 52.282 17.376 66.529 14.817 14.625-2.628 28.037-8.796 36.792-16.925zM643.412 378.802c-16.135-5.681-37.963-3.424-56.967 5.896-14.865 7.286-31 9.931-45.979 9.861-.221.007-.439.026-.658.026-.48 0-.959-.019-1.436-.056-18.813-.406-35.584-5.005-45.375-9.92-13.393-6.725-28.395-9.744-41.863-8.778a66.335 66.335 0 0 0-4.053.417c-.855.117-1.703.254-2.537.405-.424.074-.85.148-1.268.233a55.17 55.17 0 0 0-2.559.588c-.352.09-.709.165-1.059.262-1.176.321-2.33.673-3.447 1.066a55.573 55.573 0 0 0-17.836 10.311 56.633 56.633 0 0 0-7.468 7.747 59.651 59.651 0 0 0-7.603 12.498c-6.708 14.827-7.347 31.676-1.791 47.451.372 1.056.748 2.114 1.127 3.171l.661 1.838c.134.368.267.733.399 1.102 10.936 30.08 31.342 79.27 57.682 111.438.486.592.91 1.21 1.309 1.842 17.061 20.321 35.07 31.168 52.557 25.546.869-.279 4.178-3.068 7.791-11.901a18.121 18.121 0 0 1 33.544 0c3.615 8.833 6.92 11.622 7.795 11.901 41.52 13.351 85.977-66.118 113.73-144.937 5.557-15.776 4.92-32.627-1.795-47.451-6.584-14.552-18.27-25.403-32.901-30.556z"/><path fill="#F79927" d="M367.327 468.849c-8.672-24.628-7.62-51.063 2.96-74.437 10.033-22.17 27.482-39.098 49.438-48.104a93.09 93.09 0 0 1 4.56-1.733 167.465 167.465 0 0 1-12.087-62.403c0-26.793-16.98-50.088-42.366-58.295a84.978 84.978 0 0 0-14.044-1.194l-.059.001a18.01 18.01 0 0 1-2.895.246c-.572 0-1.15-.037-1.73-.091-14.958.897-28.614 6.088-39.62 15.291-13.669 11.43-21.832 27.895-21.832 44.042 0 39.111-13.82 77.223-38.913 107.316-19.469 23.346-30.191 52.979-30.191 83.435 0 71.89 58.487 130.379 130.375 130.377 25.345 0 50.046-7.398 71.087-21.081a276.246 276.246 0 0 1-5.014-7.487c-22.527-34.908-39.443-76.848-49.669-105.883z"/><path fill="#103653" d="M708.906 394.416c-10.701-23.645-29.842-41.33-53.889-49.799-25.365-8.93-57.125-6.112-84.965 7.541-5.346 2.621-10.986 4.261-16.609 5.194-1.646-12.839.91-24.77 7.662-35.601a63.063 63.063 0 0 1 6.791-8.959c5.502-6.073 6.35-15.034 1.967-21.959-6.42-10.139-20.717-11.338-28.773-2.447a100.123 100.123 0 0 0-9.689 12.537c-8.088 12.401-15.906 30.739-14.566 54.19-3.492-.974-6.256-2.016-8.006-2.893-15.139-7.602-31.568-11.874-47.572-12.682-8.68-17.854-13.246-37.486-13.246-57.362 0-21.316-6.758-41.568-19.543-58.563-12.35-16.42-29.929-28.749-49.499-34.717a17.71 17.71 0 0 0-2.078-.501c-.281-.051-.56-.092-.838-.14 6.006-14.844 17.937-36.045 41.106-55.286 7.484-6.213 9.299-17.231 3.533-25.065-6.214-8.452-18.156-9.853-26.141-3.271-14.973 12.341-26.28 25.487-34.803 38.008-8.661-32.09-49.832-50.489-96.18-42.159-32.795 5.888-68.581 38.565-86.996 57.521a26.335 26.335 0 0 0-7.015 22.957 26.34 26.34 0 0 0 14.566 19.081c20.663 9.842 57.126 24.798 87.833 24.798.587 0 1.166-.022 1.749-.034-13.197 16.626-20.731 37.028-20.731 57.373 0 30.644-10.833 60.511-30.505 84.103-24.891 29.851-38.6 67.726-38.6 106.647 0 91.876 74.747 166.625 166.623 166.625a166.687 166.687 0 0 0 94.241-29.224c31.879 31.658 60.752 32.496 81.174 25.933 4.887-1.57 9.385-4.126 13.473-7.647 4.094 3.521 8.588 6.077 13.475 7.647 6.143 1.974 13.043 3.28 20.566 3.28 24.693-.002 56.037-14.082 88.773-64.807 22.531-34.902 39.449-76.843 49.674-105.882 8.669-24.628 7.616-51.062-2.962-74.437zM212.762 173.199c22.113-20.891 42.968-34.485 57.213-37.045 28.827-5.177 52.819 4.647 55.017 16.887.958 5.327-2.29 11.908-8.908 18.051-8.755 8.129-22.167 14.296-36.793 16.925-14.249 2.559-38.533-2.928-66.529-14.818zm137.724 430.107c-71.887 0-130.373-58.487-130.373-130.38 0-30.455 10.721-60.086 30.19-83.434 25.094-30.093 38.913-68.203 38.913-107.315 0-16.147 8.163-32.612 21.832-44.043 11.007-9.203 24.662-14.394 39.621-15.29.579.054 1.157.092 1.73.092.982 0 1.947-.092 2.895-.246l.059-.002c4.586 0 9.282.396 14.045 1.193 25.385 8.208 42.364 31.502 42.364 58.296a167.47 167.47 0 0 0 12.088 62.403l-.109.038a93.165 93.165 0 0 0-4.451 1.694c-21.957 9.007-39.404 25.936-49.438 48.104-10.581 23.374-11.632 49.809-2.959 74.436 10.225 29.037 27.142 70.978 49.67 105.881a279.414 279.414 0 0 0 5.012 7.487 130.448 130.448 0 0 1-71.089 21.086zm327.192-146.493C649.92 535.634 605.465 615.1 563.946 601.752c-.873-.279-4.18-3.07-7.795-11.902a18.122 18.122 0 0 0-33.544 0c-3.613 8.832-6.922 11.621-7.793 11.902-17.486 5.617-35.494-5.225-52.555-25.547a18.324 18.324 0 0 0-1.307-1.843c-26.34-32.167-46.747-81.356-57.684-111.438l-.398-1.1a527.4 527.4 0 0 0-.662-1.838c-.377-1.058-.756-2.116-1.127-3.174-5.555-15.772-4.918-32.624 1.791-47.448a59.663 59.663 0 0 1 7.604-12.5 56.609 56.609 0 0 1 8.542-8.644 55.473 55.473 0 0 1 16.758-9.413 50.042 50.042 0 0 1 3.451-1.068c.348-.094.705-.171 1.057-.261a56.808 56.808 0 0 1 2.559-.59c.42-.083.844-.157 1.268-.232.836-.15 1.682-.287 2.537-.401.428-.059.855-.115 1.287-.165.91-.104 1.834-.187 2.764-.254 13.473-.965 28.473 2.053 41.867 8.778 9.789 4.915 26.563 9.517 45.373 9.918.475.039.955.059 1.436.059.219 0 .439-.018.66-.027 14.975.068 31.111-2.572 45.977-9.862 19.004-9.316 40.834-11.574 56.965-5.895 14.633 5.154 26.32 16.006 32.906 30.558 6.715 14.823 7.347 31.675 1.795 47.448z"/><g><path fill="#96D2CA" d="M71.161 388.957v-33.213l115.279-51.693v34.229m-59.3 291.894L22.093 583.892V428.597l49.068-39.64 115.279-50.675 59.299 70.979"/><path fill="#96D2CA" d="M127.14 463.203v166.971l118.599-53.943V409.259L127.14 463.203z"/><path fill="#103653" d="M255.007 408.883c0-.534-.107-1.071-.215-1.605-.053-.161-.053-.376-.107-.536a7.025 7.025 0 0 0-.803-1.982c0-.054-.053-.054-.053-.105a11.248 11.248 0 0 0-.964-1.446l-57.104-68.3v-30.856a9.36 9.36 0 0 0-4.232-7.82c-2.679-1.716-6-1.982-8.892-.696l-115.28 51.745a9.28 9.28 0 0 0-5.518 8.516v28.768l-45.586 36.855a9.317 9.317 0 0 0-3.482 7.23v155.241c0 3.696 2.196 7.018 5.571 8.516l105.047 46.338c.268.107.535.16.803.269.215.054.429.161.643.213.75.216 1.554.323 2.304.323h.054c.803 0 1.553-.16 2.303-.323.214-.052.429-.159.696-.213.268-.107.536-.16.804-.269l118.601-53.944a9.3 9.3 0 0 0 5.464-8.463v-167.08c0-.108-.054-.215-.054-.376zm-124.921 42.695-44.409-58.872 98.137-43.07 46.98 56.194-100.708 45.748zm47.033-133.172v13.768l-96.637 42.48v-12.91l96.637-43.338zM31.413 433.043 69.5 402.242l48.319 64.013v149.616l-86.407-38.087V433.043h.001zm205.006 137.188-99.958 45.479V469.2l99.958-45.479v146.51z"/></g><g><path fill="#96D2CA" d="m744.678 555.471-10.486 6.99a29.68 29.68 0 0 1-33.018-.003l-10.482-6.987a9.126 9.126 0 0 0-8.004-1.072l-12.178 4.058 6.561 52.475c.572 4.59 4.492 8.05 9.119 8.05h62.988c4.625 0 8.545-3.46 9.121-8.05l6.559-52.475-12.178-4.058a9.122 9.122 0 0 0-8.002 1.072z"/><path fill="#103653" d="M749.178 639.551H686.19c-14.979 0-27.674-11.206-29.533-26.067l-7.58-60.653a8.909 8.909 0 0 1-.049-.4l-8.705-69.63a10.286 10.286 0 0 1-5.953-9.333c0-5.681 4.604-10.284 10.283-10.284h4.732c.098-.002.197-.002.297 0h136.004c.1-.002.195-.002.295 0h4.734c5.68 0 10.285 4.604 10.285 10.284a10.29 10.29 0 0 1-5.957 9.333l-8.703 69.63a8.997 8.997 0 0 1-.049.402l-7.582 60.651c-1.857 14.861-14.553 26.067-29.531 26.067zm-78.668-81.095 6.561 52.475c.572 4.59 4.492 8.05 9.119 8.05h62.988c4.625 0 8.545-3.46 9.121-8.05l6.559-52.475-12.178-4.058a9.125 9.125 0 0 0-8.002 1.072l-10.486 6.99a29.68 29.68 0 0 1-33.018-.003l-10.482-6.987a9.126 9.126 0 0 0-8.004-1.072l-12.178 4.058zm15.135-25.118c5.781 0 11.484 1.701 16.457 5.018l10.484 6.987a9.169 9.169 0 0 0 10.195.004l10.484-6.992c7.693-5.13 17.141-6.397 25.918-3.473l8.275 2.761 6.736-53.89H661.172l6.736 53.89 8.275-2.761a29.923 29.923 0 0 1 9.462-1.544z"/></g></svg>