<svg xmlns="http://www.w3.org/2000/svg" width="677.966" height="455.977" viewBox="51.601 185.099 677.966 455.977" xml:space="preserve"><path fill="#FFF" d="M411.947 400.591h298.707v201.266H411.947z"/><path fill="#F79927" d="M558.17 257.778 423.333 400h282.223z"/><path fill="#F79927" d="M525.556 295.889 454.444 372.5V267.958c0-10.348 8.388-15.736 18.735-15.736h33.641c10.348 0 18.735 5.388 18.735 15.736v27.931z"/><path fill="#9786BD" d="M477.777 466.667h66.667V600h-66.667z"/><path fill="#96D2CA" d="M600 466.667h66.667v55.556H600z"/><path fill="#CBD265" d="M455.621 335.881c0-36.803-38.274-66.694-85.485-66.694-3.943.032-7.883.278-11.802.736-19.995-38.393-63.406-65.06-113.888-65.06-69.42 0-125.691 50.318-125.691 112.382.013 4.102.274 8.2.782 12.27-31.03 10.002-52.87 33.821-52.87 61.637 0 36.803 38.273 66.694 85.484 66.694 17.946.154 35.618-4.469 51.264-13.411 20.197 16.406 52.516 27.095 89.06 27.095 61.228 0 110.862-29.861 110.862-66.695a40.88 40.88 0 0 0-.681-7.256c31.074-10.019 52.965-33.853 52.965-61.698z"/><g fill="#103653" stroke="#103653" stroke-width="10" stroke-miterlimit="10"><path d="M711.111 610H422.223c-5.522 0-10-4.478-10-10V461.646c0-5.522 4.478-10 10-10s10 4.478 10 10V590h268.889V394.498l-142.7-125.416-40.435 38.188c-4.017 3.793-10.344 3.611-14.137-.404-3.792-4.015-3.611-10.344.404-14.136l47.059-44.444a9.998 9.998 0 0 1 13.468-.241l152.941 134.418a9.999 9.999 0 0 1 3.398 7.511V600c.001 5.522-4.476 10-9.999 10z"/><path d="M544.444 610h-66.667c-5.522 0-10-4.478-10-10V466.667c0-5.522 4.478-10 10-10h66.667c5.522 0 10 4.478 10 10V600c0 5.522-4.477 10-10 10zm-56.667-20h46.667V476.667h-46.667V590zM666.667 532.223H600c-5.522 0-10-4.478-10-10v-55.556c0-5.522 4.478-10 10-10h66.667c5.522 0 10 4.478 10 10v55.556c0 5.522-4.478 10-10 10zm-56.667-20h46.667v-35.556H610v35.556zM516.667 298.889c-5.522 0-10-4.477-10-10v-23.333h-23.334c-5.522 0-10-4.477-10-10s4.478-10 10-10h33.334c5.522 0 10 4.477 10 10v33.333c0 5.523-4.478 10-10 10zM250 631c-5.523 0-10-4.478-10-10v-75.455l-52.501-50.684c-3.974-3.836-4.085-10.166-.249-14.14s10.167-4.086 14.14-.249l55.556 53.632a10 10 0 0 1 3.055 7.194V621c-.001 5.522-4.478 10-10.001 10z"/><path d="M256.007 550.184a9.968 9.968 0 0 1-6.926-2.788c-3.983-3.826-4.11-10.156-.284-14.14l31.603-32.898c3.826-3.982 10.156-4.109 14.14-.284 3.983 3.826 4.11 10.156.284 14.14l-31.603 32.898a9.977 9.977 0 0 1-7.214 3.072zM292.475 481.529c-34.831 0-67.181-9.146-90-25.27-15.365 7.6-32.327 11.59-49.454 11.59l-.956-.004c-52.564 0-95.398-34.405-95.398-76.694 0-29.27 20.25-55.448 52.24-68.41a112.244 112.244 0 0 1-.152-5.464c0-67.514 60.871-122.415 135.691-122.415 26.158 0 51.544 6.741 73.414 19.494 19.375 11.298 35.178 26.78 46.049 45.04 2.05-.123 4.103-.192 6.145-.209 52.732 0 95.567 34.404 95.567 76.694 0 29.275-20.267 55.466-52.288 68.452l.004.457c0 21.505-13.252 41.297-37.316 55.773-22.473 13.52-52.144 20.966-83.546 20.966zm-88.074-49.176 5.318 4.32c19.16 15.564 50.097 24.856 82.755 24.856 54.673 0 100.862-25.963 100.862-56.695a30.878 30.878 0 0 0-.514-5.438l-1.597-8.64 8.362-2.696c27.964-9.016 46.033-29.498 46.033-52.18 0-31.261-33.862-56.694-75.485-56.694a99.676 99.676 0 0 0-10.642.668l-6.846.8-3.184-6.113c-18.881-36.254-60.103-59.679-105.019-59.679-63.792 0-115.691 45.929-115.691 102.382a92.08 92.08 0 0 0 .705 11.032l1.025 8.216-7.88 2.54c-27.906 8.995-45.938 29.453-45.938 52.119 0 31.262 33.862 56.694 75.484 56.694l.87.004c15.876 0 31.586-4.184 45.432-12.097l5.95-3.399zM705.556 410H472.223c-5.522 0-10-4.478-10-10 0-5.523 4.478-10 10-10h233.333c5.522 0 10 4.477 10 10 0 5.522-4.478 10-10 10z"/></g></svg>