<svg xmlns="http://www.w3.org/2000/svg" width="36" height="36" xml:space="preserve"><path fill="#9786BD" d="M15.097 19.332H7.958l-.992-1.077H2.688l2.036 2.034h11.41zM5.188 21.875H17.07v11.881H5.188zM1.104 30.407l2.692 3.01V21.989l-2.692-3.082z"/><path fill="#F79927" d="m7.722 16.968.262.294V5.834L5.292 2.752v11.5l2.166 2.422zM20.322 4.278l-2.203-2.034H6.876l2.035 2.034zM19.383 18.045h1.89v-7.594h-.015V5.864H9.376v4.587h-.014v7.594h9.599z"/><path fill="#96D2CA" d="M22.516 21.875h11.881v11.881H22.516zM18.564 19.033l-.109-.126v11.5l.201.224 2.492 2.786V21.989l-2.322-2.657zM31.258 18.254h-8.414v1.078h-1.75l.957.957h11.408z"/><g fill="#103653"><path d="M.051 31.203a.774.774 0 0 0 .117.209l3.621 3.93h14.885v-2.649l2.441 2.649H36V20.588l-.054-.299h-.14c-.02-.022-.039-.043-.062-.063l-3.623-3.348-.044-.036a.867.867 0 0 0-.244-.131.442.442 0 0 0-.164-.031l-8.809-.006V4.578l-.053-.299h-.14a.921.921 0 0 0-.062-.063L18.982.868l-.045-.037a.872.872 0 0 0-.242-.13.472.472 0 0 0-.164-.031L4.188.658l.003 14.282a.762.762 0 0 0 .165.461l1.171 1.271L0 16.668l.002 14.283a.878.878 0 0 0 .049.252zM8.93 4.278 6.895 2.244h11.243l2.202 2.034H8.93zm13.603 29.478V21.875h11.881v11.881H22.533zM9.38 16.676v-6.225h.015V5.864h11.88v4.587h.016V18.044H9.38v-1.368zm12.688 3.613-.957-.957h1.75v-1.078h8.414l2.201 2.035H22.068zm-4.98 1.586v11.881H5.206V21.875h11.882zm-9.111-2.543h7.139l1.036.957H4.742l-2.035-2.034h4.277l.993 1.077zm10.497.95v-1.375l.108.126.262.299 2.322 2.657v11.428l-2.492-2.786-.2-.224V20.282zM5.31 2.752l2.693 3.082v11.427l-.263-.293-.263-.293-2.167-2.423v-11.5zM3.814 21.989v11.428l-2.692-3.01v-11.5l2.692 3.082z"/><path d="M11.028 16.271a.897.897 0 0 0 1.203-.405l.715-1.437h5.039l.715 1.437a.9.9 0 0 0 1.204.405.896.896 0 0 0 .402-1.203l-2.295-4.617L16.27 6.95l-.013-.021c-.016-.029-.034-.056-.052-.083-.015-.022-.028-.045-.046-.065-.019-.023-.041-.043-.063-.064a.718.718 0 0 0-.063-.06c-.021-.017-.044-.031-.067-.047a1.087 1.087 0 0 0-.08-.051c-.007-.003-.013-.009-.021-.013-.018-.009-.037-.013-.056-.021-.029-.012-.057-.024-.086-.033a1.195 1.195 0 0 0-.086-.02c-.028-.005-.056-.011-.084-.014-.029-.003-.059-.003-.087-.003-.03 0-.059 0-.088.003-.029.003-.057.008-.085.014s-.057.011-.085.02c-.03.009-.06.022-.089.034-.018.007-.036.011-.053.02l-.019.012a.63.63 0 0 0-.086.055c-.021.014-.042.027-.063.043-.024.02-.045.042-.067.064-.02.02-.04.039-.058.061-.018.021-.032.046-.048.068-.018.026-.036.052-.051.081-.003.007-.009.013-.013.021l-1.742 3.501-2.296 4.617a.897.897 0 0 0 .405 1.202zm4.438-6.906.54 1.087 1.086 2.184h-3.253l1.086-2.184.541-1.087zM9.63 32.787h2.062a3.27 3.27 0 0 0 3.265-3.265 3.267 3.267 0 0 0-1.647-2.833c.297-.434.473-.958.473-1.523a2.708 2.708 0 0 0-2.706-2.705H9.63c-.639 0-1.176.421-1.364.998a.904.904 0 0 0-.076.361v7.575c0 .071.01.138.025.204a1.44 1.44 0 0 0 1.415 1.188zm2.062-1.795H9.985v-2.939h1.707a1.47 1.47 0 0 1 0 2.939zm.295-5.826a.912.912 0 0 1-.911.911H9.985v-1.821h1.092a.91.91 0 0 1 .91.91zM31.447 29.911c-.585.55-1.35.854-2.153.854a3.145 3.145 0 0 1-3.141-3.142 3.144 3.144 0 0 1 5.224-2.351.897.897 0 1 0 1.194-1.342 4.936 4.936 0 1 0 .109 7.287.898.898 0 1 0-1.233-1.306z"/></g></svg>