<svg xmlns="http://www.w3.org/2000/svg" width="36" height="36" xml:space="preserve"><path fill="#96D2CA" d="m22.386 13.999.168-3.075a90.283 90.283 0 0 0-1.639-.188l.064 2.881c.484.108.957.233 1.407.382z"/><path fill="#F79927" d="M13.798 9.795c.218-.012.435-.012.646-.008.559.012 1.121.027 1.684.049h.019a76.95 76.95 0 0 1 2.254.125h.008c.011 0 .021.003.033.003a66.336 66.336 0 0 1 2.23.188 81.69 81.69 0 0 1 2.194.251c.011 0 .022.004.03.004.067.008.135.02.202.026.091.011.177.022.263.038.273-1.264-.273-2.097-1.297-3.072-.146-.139-.439-.33-.747-.528-.514-.33-1.042-.675-1.264-1.013-.296-.457-.188-1.008-.09-1.496.049-.248.098-.48.094-.686-.007-.582-.524-1.129-1.103-1.174s-1.174.42-1.271.99c-.037.221-.015.465.008.719.034.391.071.791-.098 1.186-.33.766-1.331 1.147-2.063 1.429-.052.019-.104.042-.157.06-1.271.496-2.093 1.594-2.25 2.989a4.52 4.52 0 0 1 .671-.079h.004z"/><path fill="#96D2CA" d="M22.94 14.205c.255.105.498.22.734.353.578-.184.635-.48.732-.994.021-.121.045-.244.078-.375.094-.391.259-1.354-.308-1.834-.267-.225-.642-.301-1.062-.356l-.174 3.206zm-4.901-1.05.079-2.655a56.487 56.487 0 0 0-1.691-.09l.131 2.7c.499-.007.99.007 1.481.045zm-5.385.521c.289-.101.6-.188.934-.262l-.053-3.045c-.477.053-.918.184-1.233.494-.341.338-.511.9-.454 1.508l.004.03c.064.691.15 1.129.802 1.275zm1.44-3.333.049 2.966c.263-.045.537-.078.825-.108.349-.034.69-.06 1.027-.075l-.135-2.744a74.869 74.869 0 0 0-1.421-.038l-.345-.001zm6.319 3.153c-.188-.037-.371-.07-.563-.108-.42-.079-.836-.139-1.249-.184l.079-2.667c.559.042 1.113.09 1.672.143l.061 2.816z"/><path fill="none" d="M19.15 12.772c.26.035.521.077.785.125l-.037-1.751a81.87 81.87 0 0 0-.697-.06l-.051 1.686zm-4.905-3.478.243.002c.563.011 1.128.027 1.694.049a75.67 75.67 0 0 1 4.533.313l.043.004v.001c.74.076 1.475.159 2.207.253h.002c.02-.71-.33-1.306-1.213-2.146-.119-.112-.453-.328-.674-.471-.637-.409-1.145-.754-1.41-1.158-.408-.633-.266-1.348-.162-1.869.049-.246.088-.438.084-.579-.004-.322-.32-.66-.641-.685h-.004c-.352 0-.684.274-.736.576-.026.153-.008.359.012.579.039.455.081.935-.135 1.439-.413.956-1.523 1.383-2.334 1.695l-.178.068a2.969 2.969 0 0 0-1.791 1.94l.02-.001c.148-.007.295-.01.44-.01zm7.712 4.051.107-1.972c-.201-.024-.4-.047-.602-.069l.043 1.924c.157.038.308.077.452.117zm1.994.135c.023-.126.049-.261.086-.404.115-.481.139-1.088-.146-1.33a.773.773 0 0 0-.271-.136l-.125 2.287c.084.039.168.08.248.122.12-.072.142-.185.208-.539zm-6.361-.846.049-1.657a70.958 70.958 0 0 0-.651-.036l.082 1.677c.174.004.347.008.52.016zm2.107 1.806c-1.51-.279-2.851-.347-4.581-.174-1.942.195-3.201.732-3.85 1.642-.089.125-.254.44-.459 1.23l1.412.05a.79.79 0 0 1 .752.805.784.784 0 0 1-.781.757l-1.712-.06c-.061.348-.118.714-.171 1.094l1.327.067a.769.769 0 0 1 .536.253.78.78 0 0 1-.576 1.308l-1.478-.074c-.042.411-.077.821-.107 1.223l1.419.038a.783.783 0 0 1-.022 1.563c-.504-.015-.994-.029-1.481-.041-.008.283-.011.551-.006.795l.006.6 1.204.055a.776.776 0 0 1 .544.254.783.783 0 0 1-.578 1.308l-1.098-.048c.103 1.062.325 1.819.688 2.358.706 1.05 1.968 1.793 3.556 2.094 1.479.282 2.97.359 4.6.232.271-.02.549-.035.818-.05 1.691-.09 3.102-.165 3.852-1.241.395-.564.771-1.855.959-3.289.096-.723.176-1.461.254-2.184l.033-.303c.096-.867.189-1.7.295-2.519.279-2.126.451-4.322-.729-5.766-.993-1.219-2.755-1.631-4.626-1.977zm-7.023-1.277c.143-.046.29-.09.442-.13l-.035-2.04c-.163.06-.293.138-.393.236-.231.229-.35.653-.308 1.106.059.621.124.764.294.828zm1.995-.419.283-.032c.188-.018.372-.034.555-.047l-.088-1.79a68.425 68.425 0 0 0-.781-.02l.031 1.889z"/><path fill="#103653" d="M25.529 15.43a5.306 5.306 0 0 0-.484-.512c.291-.375.377-.816.451-1.199l.055-.267c.303-1.234.064-2.29-.646-2.894a2.064 2.064 0 0 0-.395-.265 3.44 3.44 0 0 0-.25-1.791c-.264-.616-.689-1.176-1.426-1.871-.223-.21-.566-.433-.922-.663-.27-.176-.83-.542-.93-.692-.061-.091.016-.474.07-.746.055-.275.109-.56.105-.87-.02-1.133-.953-2.126-2.084-2.215-1.128-.088-2.211.764-2.403 1.866-.065.367-.032.72-.004 1.018.023.263.045.512-.017.656-.149.352-.97.666-1.524.877l-.102.041c-1.633.636-2.707 2.053-2.916 3.823-.191.11-.366.242-.521.394-.571.566-.85 1.426-.76 2.392.034.356.083.882.361 1.342-.485.317-.889.7-1.205 1.142-.348.488-.649 1.374-.931 2.756a31.792 31.792 0 0 0-.399 2.587l-.016.107a49.58 49.58 0 0 0-.247 2.857 33.2 33.2 0 0 0-.038 1.712c.012 1.698.026 3.812 1.03 5.302.941 1.396 2.561 2.376 4.562 2.758 1.116.213 2.234.316 3.417.316.522 0 1.053-.02 1.597-.063.236-.019.479-.032.719-.045l.117-.007c1.787-.096 3.811-.204 4.994-1.905.813-1.172 1.145-3.345 1.227-3.981.107-.84.203-1.69.293-2.519l.023-.219c.082-.749.166-1.516.264-2.268.324-2.463.508-5.031-1.065-6.954zm-1.91-3.821a.79.79 0 0 1 .271.136c.285.242.262.849.146 1.33a5.712 5.712 0 0 0-.086.404c-.066.354-.088.467-.209.538a5.713 5.713 0 0 0-.248-.122l.126-2.286zm-8.043-4.243.178-.068c.811-.312 1.921-.739 2.334-1.695.216-.504.174-.984.135-1.439-.02-.219-.038-.426-.012-.579.052-.302.384-.576.736-.576h.004c.32.025.637.362.641.685.004.14-.035.333-.084.579-.104.521-.246 1.236.162 1.869.266.403.773.749 1.41 1.158.221.143.555.358.674.471.883.841 1.232 1.436 1.213 2.146h-.002a87.529 87.529 0 0 0-2.207-.253v.001l-.043-.005a72.182 72.182 0 0 0-2.245-.188 72.425 72.425 0 0 0-2.288-.125 87.995 87.995 0 0 0-1.694-.049l-.243-.002c-.145 0-.292.003-.44.011l-.02.001a2.963 2.963 0 0 1 1.791-1.942zm6.488 4.007-.107 1.972c-.145-.04-.295-.079-.451-.118l-.043-1.924.601.07zm-2.128 1.524c-.264-.048-.525-.09-.785-.125l.051-1.686c.232.019.465.039.697.06l.037 1.751zm-2.296-1.919-.049 1.657a15.028 15.028 0 0 0-.521-.015l-.082-1.677c.218.009.434.021.652.035zm-2.133 1.687c-.183.014-.368.029-.555.047l-.283.032-.031-1.889c.26.005.521.012.781.02l.088 1.79zm-2.818-1.436c.099-.099.229-.177.393-.236l.035 2.04c-.152.041-.3.084-.442.13-.17-.064-.235-.208-.293-.828-.043-.453.076-.877.307-1.106zm12.364 10.954c-.105.818-.199 1.651-.295 2.519l-.033.303a90.132 90.132 0 0 1-.254 2.184c-.188 1.434-.564 2.725-.959 3.289-.75 1.076-2.16 1.151-3.852 1.241-.27.015-.547.03-.818.05-1.63.127-3.121.05-4.6-.232-1.587-.301-2.85-1.044-3.556-2.094-.363-.539-.585-1.297-.688-2.358l1.098.048a.783.783 0 0 0 .578-1.308.778.778 0 0 0-.544-.254l-1.204-.055-.006-.6c-.005-.244-.002-.512.006-.795.487.012.977.026 1.481.041a.783.783 0 0 0 .022-1.563l-1.419-.038c.03-.401.065-.812.107-1.223l1.478.074a.781.781 0 0 0 .04-1.561l-1.327-.067c.053-.38.11-.746.171-1.094l1.712.06c.417 0 .76-.327.781-.757a.79.79 0 0 0-.752-.805l-1.412-.05c.205-.791.37-1.106.459-1.23.648-.91 1.908-1.447 3.85-1.642 1.729-.172 3.07-.105 4.581.174 1.871.346 3.633.758 4.627 1.977 1.179 1.444 1.007 3.64.728 5.766z"/></svg>