<svg xmlns="http://www.w3.org/2000/svg" width="37.75" height="24.82" viewBox="-0.75 6.43 37.75 24.82" xml:space="preserve"><path fill="#96D2CA" d="M32.558 8.389a1.255 1.255 0 0 0-1.003-.219l-.818.167a1.272 1.272 0 0 0-1.014 1.243c0 5.722-4.655 10.377-10.377 10.377h-8.621a4.967 4.967 0 0 1-4.962-4.961c0-.383-.17-.74-.466-.982a1.261 1.261 0 0 0-1.057-.261c-.52.106-.922.531-1 1.057L1.059 29.535h3.253l.058-.275c.816-3.869 4.279-6.678 8.234-6.678h11.535c4.086 0 7.583 2.963 8.287 6.953h2.768L33.069 9.279a1.257 1.257 0 0 0-.511-.89z"/><path fill="#103653" d="M35.688 30.909H.563a.939.939 0 0 1-.926-1.076l2.255-15.226a2.65 2.65 0 0 1 2.084-2.201 2.662 2.662 0 0 1 2.2.543 2.63 2.63 0 0 1 .971 2.046 3.59 3.59 0 0 0 3.587 3.587h8.622c4.964 0 9.003-4.039 9.003-9.003 0-1.249.889-2.338 2.112-2.589l.818-.166a2.674 2.674 0 0 1 2.09.457 2.64 2.64 0 0 1 1.066 1.855l2.175 20.738a.936.936 0 0 1-.932 1.035zm-2.842-1.874h1.804L32.583 9.332a.751.751 0 0 0-.311-.54.76.76 0 0 0-.606-.132l-.819.166a.773.773 0 0 0-.614.754c0 5.998-4.879 10.877-10.877 10.877h-8.622a5.467 5.467 0 0 1-5.461-5.461.766.766 0 0 0-.922-.754.77.77 0 0 0-.606.641L1.649 29.035h2.269c.911-4.036 4.549-6.953 8.697-6.953H24.15a8.9 8.9 0 0 1 8.696 6.953zm-26.994 0h25.059a7.058 7.058 0 0 0-6.762-5.078H12.614c-3.133 0-5.897 2.106-6.762 5.078z"/></svg>