<svg xmlns="http://www.w3.org/2000/svg" width="30" height="30" xml:space="preserve"><path fill="#96D2CA" d="M8.907 19.999v7.499a1.882 1.882 0 0 0 1.875 1.874 1.874 1.874 0 0 0 1.875-1.874V19.999a1.88 1.88 0 0 0-1.875-1.874 1.88 1.88 0 0 0-1.875 1.874z"/><g fill="#F9EACD"><path d="M7.813 15.156a2.97 2.97 0 0 0 5.937 0c0-1.64-1.329-3.853-2.969-3.853-1.639 0-2.968 2.213-2.968 3.853zM16.25 15.156a2.969 2.969 0 1 0 5.938 0H16.25z"/></g><path fill="#96D2CA" d="M19.219 18.125a1.88 1.88 0 0 0-1.875 1.874V27.498a1.877 1.877 0 0 0 1.875 1.874 1.88 1.88 0 0 0 1.874-1.874v-7.499a1.88 1.88 0 0 0-1.874-1.874z"/><path fill="#F9EACD" d="M17.344 25.672a10.9 10.9 0 0 1-4.688 0v1.826c0 .4-.127.773-.345 1.08 1.774.35 3.603.35 5.377 0a1.865 1.865 0 0 1-.345-1.08v-1.826h.001z"/><path fill="#F8F9F6" d="M8.907 27.498V24.07a10.82 10.82 0 0 1-1.633-1.344c-3.942-3.941-4.228-10.209-.857-14.487l.025-.033c.256-.323.534-.634.832-.933 4.25-4.249 11.203-4.249 15.453 0 4.268 4.268 4.268 11.186 0 15.453-.453.453-.94.86-1.455 1.221-.059.042-.119.082-.179.123v3.361a13.805 13.805 0 0 0 3.694-2.645c4.221-4.221 5.145-10.489 2.774-15.607l1.467-2.027c.415-.572.5-1.318 0-1.818L24.666.972c-.5-.5-1.246-.415-1.818 0L20.82 2.438C15.701.068 9.434.993 5.213 5.213.993 9.434.068 15.702 2.438 20.82L.971 22.847c-.414.572-.5 1.318 0 1.818l4.363 4.362c.5.5 1.246.415 1.818 0l1.771-1.281a2.013 2.013 0 0 1-.016-.248z"/><path fill="#F79927" d="M19.219 18.125zm0 0a2.969 2.969 0 0 1-2.969-2.969h5.938a2.97 2.97 0 0 1-2.969 2.969zm-8.438 0a2.97 2.97 0 0 1-2.968-2.969c0-1.64 1.329-3.853 2.968-3.853 1.64 0 2.969 2.213 2.969 3.853a2.97 2.97 0 0 1-2.969 2.969zm1.875 1.874v5.673a10.9 10.9 0 0 0 4.688 0v-5.673c0-1.031.844-1.874 1.875-1.874s1.874.843 1.874 1.874v4.071l.179-.123c.515-.36 1.002-.768 1.455-1.221 4.249-4.25 4.249-11.203 0-15.453-4.25-4.25-11.204-4.25-15.453 0-.298.299-.576.61-.832.933l-.025.033c-3.37 4.278-3.084 10.546.857 14.488a10.894 10.894 0 0 0 1.634 1.344V20c0-1.031.843-1.874 1.875-1.874s1.873.842 1.873 1.873z"/><g fill="#103653"><path d="M29.471 4.893 25.107.53c-.682-.682-1.737-.708-2.627-.064l-1.734 1.255a14.426 14.426 0 0 0-8.17-.982 14.364 14.364 0 0 0-7.805 4.032 14.372 14.372 0 0 0-4.033 7.805 14.426 14.426 0 0 0 .982 8.17L.464 22.481c-.643.889-.617 1.944.064 2.626l4.363 4.363c.354.352.806.53 1.284.53.446 0 .915-.154 1.344-.465l1.096-.793a2.501 2.501 0 0 0 2.167 1.255c.692 0 1.32-.283 1.773-.739a14.495 14.495 0 0 0 4.891 0c.453.456 1.08.739 1.773.739a2.504 2.504 0 0 0 2.477-2.171 14.465 14.465 0 0 0 3.533-2.598 14.365 14.365 0 0 0 4.033-7.805 14.425 14.425 0 0 0-.982-8.17l1.256-1.735c.642-.888.616-1.943-.065-2.625zM10.781 17.5a2.347 2.347 0 0 1-2.344-2.344c0-1.379 1.159-3.228 2.344-3.228s2.344 1.848 2.344 3.228a2.347 2.347 0 0 1-2.344 2.344zm0 11.247c-.689 0-1.25-.561-1.25-1.249V19.999c0-.688.561-1.249 1.25-1.249s1.25.561 1.25 1.249v7.499c0 .257-.079.496-.213.695-.009.012-.018.023-.026.036a1.246 1.246 0 0 1-1.011.518zm2.427-.653c.047-.191.072-.391.072-.596v-1.076a11.276 11.276 0 0 0 3.438 0v1.076c0 .205.025.404.072.596-1.19.162-2.39.162-3.582 0zm8.27-12.313c-.274.989-1.183 1.719-2.259 1.719s-1.986-.729-2.26-1.719h4.519zm-2.259 12.966c-.416 0-.784-.204-1.012-.518-.008-.013-.017-.023-.025-.035a1.234 1.234 0 0 1-.213-.696v-7.499c0-.688.561-1.249 1.25-1.249.688 0 1.249.561 1.249 1.249v7.499a1.25 1.25 0 0 1-1.249 1.249zm9.302-21.961-1.467 2.027a.627.627 0 0 0-.061.629c2.32 5.009 1.256 10.997-2.649 14.902a13.207 13.207 0 0 1-2.627 2.039v-1.987a11.503 11.503 0 0 0 1.45-1.229 11.475 11.475 0 0 0 3.384-8.168c0-3.085-1.202-5.986-3.384-8.168a11.46 11.46 0 0 0-6.618-3.279 11.465 11.465 0 0 0-7.252 1.401.625.625 0 0 0 .617 1.087 10.328 10.328 0 0 1 12.369 1.675 10.233 10.233 0 0 1 3.018 7.284 10.231 10.231 0 0 1-3.584 7.809v-2.811c0-.673-.268-1.284-.702-1.733a3.598 3.598 0 0 0 1.797-3.11v-3.853a.625.625 0 0 0-1.25 0v3.228h-1.719v-3.228a.625.625 0 0 0-1.25 0v3.228h-1.719v-3.228a.625.625 0 0 0-1.25 0v3.853c0 1.327.723 2.487 1.795 3.11a2.488 2.488 0 0 0-.701 1.733v5.157a10.201 10.201 0 0 1-3.438.001v-5.158c0-.673-.268-1.284-.702-1.733a3.597 3.597 0 0 0 1.796-3.11c0-.947-.368-2.032-.984-2.902-.72-1.016-1.646-1.575-2.609-1.575s-1.889.56-2.609 1.575c-.617.87-.984 1.955-.984 2.902 0 1.327.723 2.487 1.795 3.11a2.488 2.488 0 0 0-.702 1.733v2.811a10.072 10.072 0 0 1-.566-.525c-3.211-3.21-3.934-8.236-1.757-12.221a.624.624 0 1 0-1.097-.598 11.471 11.471 0 0 0-1.295 7.181 11.462 11.462 0 0 0 3.266 6.523c.447.447.934.859 1.45 1.229v3.043l-1.496 1.082c-.288.209-.725.351-1.01.064l-4.363-4.361c-.285-.286-.144-.723.064-1.011l1.467-2.027a.624.624 0 0 0 .061-.629C.686 15.549 1.75 9.56 5.655 5.655c3.904-3.905 9.894-4.97 14.901-2.65a.624.624 0 0 0 .629-.061l2.027-1.467c.288-.208.726-.35 1.011-.064l4.362 4.363c.287.286.145.723-.064 1.01z"/><path d="M6.831 7.716a.626.626 0 0 0-.878.101l-.027.035a.624.624 0 1 0 .981.773l.024-.031a.625.625 0 0 0-.1-.878z"/></g></svg>