<svg xmlns="http://www.w3.org/2000/svg" width="38" height="37.833" viewBox="-1.167 -1 38 37.833" xml:space="preserve"><path fill="#F79927" d="M31.5 33.889c0 .621-.504 1.125-1.125 1.125h-9v-8.438a.563.563 0 0 0-.563-.563h-5.625a.563.563 0 0 0-.563.563v8.438h-9a1.125 1.125 0 0 1-1.125-1.125V17.808L18.004 4.303 31.5 17.798v16.091z"/><path fill="#9786BD" d="M7.875 3.076h2.25v3.713l-2.25 2.246zM34.313 18.754c-.155 0-.339-.021-.439-.122l-15.47-15.47a.565.565 0 0 0-.795 0L2.132 18.638c-.102.102-.29.116-.445.116a.563.563 0 0 1-.563-.563c0-.155.009-.35.111-.451L17.457 1.547s.21-.23.548-.23c.338 0 .553.224.553.224l16.203 16.203c.103.102.114.293.114.448 0 .31-.252.562-.562.562z"/><path fill="#96D2CA" d="M15.75 27.139h4.5v7.875h-4.5z"/><g fill="#96D2CA"><path d="M9 19.264h3.375v3.375H9zM23.625 19.264H27v3.375h-3.375z"/></g><path fill="#103653" d="M1.688 20.188c.439 0 .852-.103 1.188-.29V33.75a2.752 2.752 0 0 0 2.75 2.75h24.75a2.753 2.753 0 0 0 2.75-2.75V19.892c.338.191.75.296 1.188.296A2.191 2.191 0 0 0 36.502 18c0-.64-.215-1.222-.59-1.598L19.738.231c-.027-.03-.687-.731-1.734-.731a2.4 2.4 0 0 0-1.689.703L11.75 4.76V2.813c0-.586-.477-1.063-1.063-1.063H7.313c-.586 0-1.063.477-1.063 1.063v7.436L.086 16.4c-.373.372-.586.955-.586 1.6a2.19 2.19 0 0 0 2.188 2.188zM19.75 34.375h-3.5V27.5h3.5v6.875zM31 33.75a.626.626 0 0 1-.625.625h-8.5v-7.938c0-.586-.477-1.063-1.063-1.063h-5.625c-.586 0-1.063.477-1.063 1.063v7.938h-8.5A.624.624 0 0 1 5 33.75V17.876L18.004 4.871 31 17.866V33.75zM8.375 3.875h1.25v3.006l-1.25 1.247V3.875zm9.441-2.173c.002-.001.082-.077.188-.077.115 0 .199.077.199.077l16.16 16.14c.002.008.012.045-.051.221-.064 0-.105-.006-.109.002L18.756 2.617a1.055 1.055 0 0 0-.752-.312c-.283 0-.549.11-.75.312L1.84 18.051c-.008.002-.045.012-.215-.051 0-.082.008-.125-.012-.122L17.816 1.702z"/><path fill="#103653" d="M23.063 24.125h4.5c.586 0 1.063-.477 1.063-1.063v-4.5c0-.586-.477-1.063-1.063-1.063h-4.5A1.066 1.066 0 0 0 22 18.563v4.5c0 .585.477 1.062 1.063 1.062zm1.062-4.5H26.5V22h-2.375v-2.375zM12.938 17.5h-4.5c-.586 0-1.063.477-1.063 1.063v4.5c0 .586.477 1.063 1.063 1.063h4.5c.586 0 1.063-.477 1.063-1.063v-4.5a1.066 1.066 0 0 0-1.063-1.063zM11.875 22H9.5v-2.375h2.375V22z"/></svg>