<svg xmlns="http://www.w3.org/2000/svg" width="512" height="430" viewBox="0 39.5 512 430" xml:space="preserve"><path fill="#FFF" d="m160.537 336.621-54.468.103-18.726-18.621c-10.635-10.637-27.879-10.636-38.514 0-10.636 10.635-10.636 27.879 0 38.515l12.683 12.676 99.025 21.797v-54.47z"/><path fill="#FD7555" d="M267.297 208.079c-70.7 0-128.545 57.845-128.545 128.545v32.681l203.853 21.787V208.068l-75.308.011z"/><path fill="#FDFA7B" d="m342.604 208.068-32.681 183.024 156.987-21.798a127.416 127.416 0 0 0 4.237-32.682c.001-70.699-57.843-128.544-128.543-128.544z"/><path fill="#FEFDCA" d="M214.06 336.612c0 11.286 1.471 22.234 4.238 32.682 0 .011 124.307 21.798 124.307 21.798V208.068c-70.701 0-128.545 57.845-128.545 128.544z"/><path fill="#FE9F88" d="M342.604 240.749v150.343l90.123-21.798a95.384 95.384 0 0 0 5.74-32.682c.001-52.855-43.007-95.863-95.863-95.863z"/><path fill="#FEC8BB" d="M405.787 336.612c0 11.472-1.34 22.474-3.779 32.682l-59.403 21.791-90.123-21.78a95.469 95.469 0 0 1-5.741-32.692c0-52.855 43.008-95.863 95.864-95.863 34.836-.001 63.182 43.007 63.182 95.862z"/><path fill="#FFF" d="M342.604 303.932c-18.021 0-32.681 14.661-32.681 32.681 0 18.021 14.66 32.682 32.681 32.682s32.681-14.661 32.681-32.682-14.66-32.681-32.681-32.681z"/><path fill="#FDCE6E" d="m443.915 385.634-56.284 70.809h32.681c17.975 0 37.331-13.951 43.016-31.003l13.269-39.806h-32.682z"/><path fill="#FDFA7B" d="m35.404 385.634 13.269 39.806c5.684 17.052 25.041 31.003 43.016 31.003h295.943c17.975 0 37.331-13.951 43.016-31.003l13.268-39.806H35.404z"/><path fill="#FEFDCA" d="M487.489 369.294H24.511c-9.024 0-16.34 7.315-16.34 16.34s7.316 16.341 16.34 16.341H487.49c9.024 0 16.341-7.316 16.341-16.341s-7.317-16.34-16.342-16.34z"/><path fill="#103653" d="M487.489 361.123h-10.404a136.349 136.349 0 0 0 2.234-24.511c0-75.382-61.33-136.711-136.715-136.711h-75.312c-72.649 0-132.236 56.965-136.465 128.575l-21.399.066-16.308-16.217c-6.688-6.688-15.578-10.37-25.035-10.37-9.458 0-18.348 3.683-25.035 10.37-6.687 6.687-10.37 15.577-10.37 25.034 0 8.869 3.239 17.24 9.16 23.763H24.51C10.996 361.123 0 372.118 0 385.634s10.996 24.511 24.511 24.511h10.451l5.959 17.878c6.839 20.518 29.139 36.59 50.768 36.59h328.623c21.628 0 43.928-16.072 50.768-36.59l5.959-17.878h10.451c13.515 0 24.511-10.995 24.511-24.511s-10.997-24.511-24.512-24.511zm-24.51-24.511c0 8.259-.862 16.476-2.541 24.511h-16.74a103.815 103.815 0 0 0 2.941-24.511c0-57.364-46.67-104.034-104.034-104.034-21.589 0-42.313 6.584-59.932 19.04a8.169 8.169 0 0 0-1.954 11.388 8.167 8.167 0 0 0 11.389 1.954c14.844-10.495 32.305-16.042 50.496-16.042 48.354 0 87.693 39.339 87.693 87.693 0 8.361-1.19 16.578-3.506 24.511H258.416a87.348 87.348 0 0 1-3.505-24.511c0-18.192 5.546-35.653 16.042-50.497a8.172 8.172 0 0 0-13.344-9.434c-12.455 17.617-19.039 38.341-19.039 59.931 0 8.32 1.002 16.521 2.941 24.511h-16.74a119.868 119.868 0 0 1-2.542-24.511c0-66.372 54-120.371 120.375-120.371 66.375.002 120.375 54 120.375 120.372zm-195.686-120.37h10.547c-42.804 23.121-71.951 68.405-71.951 120.371 0 8.241.762 16.446 2.234 24.511h-61.205v-24.502c.001-66.379 54.002-120.38 120.375-120.38zM54.604 350.84a18.937 18.937 0 0 1-5.583-13.48c0-5.092 1.982-9.88 5.584-13.48 3.6-3.6 8.387-5.584 13.479-5.584s9.879 1.982 13.498 5.601l18.725 18.621c1.536 1.53 3.617 2.416 5.787 2.378l24.485-.077v16.306H64.895L54.604 350.84zm432.885 42.965H106.213a8.169 8.169 0 0 0-8.17 8.17 8.17 8.17 0 0 0 8.17 8.17h353.601l-4.237 12.711c-4.593 13.777-20.741 25.417-35.265 25.417H91.688c-14.523 0-30.672-11.64-35.265-25.417l-4.236-12.711h21.345a8.17 8.17 0 0 0 8.17-8.17 8.169 8.169 0 0 0-8.17-8.17H24.51c-4.506 0-8.17-3.665-8.17-8.171 0-4.505 3.665-8.17 8.17-8.17h462.979c4.506 0 8.17 3.665 8.17 8.17 0 4.506-3.664 8.171-8.17 8.171z"/><path fill="#103653" d="M309.924 344.783a8.17 8.17 0 0 0 8.17-8.171c0-13.516 10.996-24.51 24.511-24.51s24.511 10.994 24.511 24.51c0 4.513 3.656 8.171 8.17 8.171s8.17-3.658 8.17-8.171c0-22.525-18.325-40.851-40.851-40.851s-40.851 18.325-40.851 40.851a8.17 8.17 0 0 0 8.17 8.171z"/><path fill="#FEC8BB" d="M228.767 145.431c0-12.895 3.324-18.99 7.172-26.045 4.296-7.878 9.168-16.808 9.168-33.869 0-17.028-4.852-25.954-9.144-33.82a8.17 8.17 0 1 0-14.364 7.788c3.847 7.052 7.167 13.145 7.167 26.032 0 12.895-3.324 18.99-7.172 26.045-4.296 7.878-9.168 16.808-9.168 33.869 0 17.062 4.871 25.99 9.167 33.869a8.168 8.168 0 0 0 11.084 3.26 8.169 8.169 0 0 0 3.261-11.084c-3.847-7.058-7.171-13.15-7.171-26.045zM283.235 145.431c0-12.895 3.323-18.99 7.173-26.045 4.296-7.878 9.168-16.808 9.168-33.869 0-17.028-4.853-25.954-9.145-33.82a8.17 8.17 0 1 0-14.363 7.788c3.846 7.052 7.167 13.145 7.167 26.032 0 12.895-3.323 18.99-7.173 26.045-4.296 7.878-9.168 16.808-9.168 33.869 0 17.062 4.871 25.99 9.167 33.869a8.168 8.168 0 0 0 11.085 3.26 8.168 8.168 0 0 0 3.26-11.084c-3.847-7.058-7.171-13.15-7.171-26.045z"/></svg>