<svg xmlns="http://www.w3.org/2000/svg" width="729.073" height="578.584" viewBox="36.283 96.29 729.073 578.584" xml:space="preserve"><path fill="#F79927" d="M533.23 352.529c-42.963-72.84-36.77-161.065 8.631-226.179-28.969 3.021-57.768 12.159-84.494 27.924-99.568 58.728-132.674 187.053-73.947 286.618 58.729 99.568 187.052 132.674 286.619 73.946 26.727-15.765 48.657-36.548 65.316-60.438-78.951 8.232-159.161-29.029-202.125-101.871z"/><path fill="#103653" d="M563.899 558.896c-38.345 0-76.309-9.886-109.785-28.589-34.513-19.281-63.425-47.564-83.614-81.794-30.439-51.605-38.959-111.976-23.991-169.99 14.967-58.016 51.632-106.729 103.237-137.168 27.988-16.508 58.457-26.576 90.56-29.923a15 15 0 0 1 13.861 23.498c-43.396 62.239-46.543 144.661-8.016 209.979 34.787 58.979 98.992 95.616 167.559 95.616 6.689 0 13.449-.351 20.091-1.043a14.998 14.998 0 0 1 13.86 23.498c-18.462 26.478-42.013 48.272-69.999 64.779-34.538 20.37-73.875 31.137-113.763 31.137zM512.24 147.123c-16.451 4.519-32.261 11.229-47.252 20.071-44.705 26.368-76.465 68.566-89.431 118.822s-5.585 102.552 20.782 147.256c34.79 58.982 98.995 95.623 167.56 95.623 34.53 0 68.598-9.328 98.519-26.977 14.998-8.846 28.522-19.44 40.439-31.657-34.629-1.682-68.621-11.386-98.934-28.319-34.51-19.278-63.424-47.562-83.613-81.793-22.26-37.739-32.939-80.726-30.885-124.313 1.464-31.016 9.263-61.158 22.815-88.713z"/><path fill="#F8F9F6" d="m532.794 649.94-383.598-.318c-46.962 0-85.169-38.064-85.169-84.85 0-46.963 38.208-85.17 85.169-85.17 3.224 0 6.479.195 9.95.602a15.932 15.932 0 0 0 17.76-15.045c2.748-55.811 48.712-99.525 104.646-99.525 32.564 0 62.725 14.766 82.752 40.508a15.94 15.94 0 0 0 22.402 2.763c12.607-9.869 27.734-15.086 43.746-15.086 39.158 0 71.043 31.857 71.074 71.018a15.931 15.931 0 0 0 18.33 15.742 86.365 86.365 0 0 1 12.926-.973c46.963 0 85.168 38.207 85.168 85.168 0 46.957-38.203 85.163-85.156 85.166z"/><path fill="#103653" d="M532.795 664.94h-.014l-383.598-.318c-55.221 0-100.156-44.792-100.156-99.85 0-55.234 44.936-100.17 100.169-100.17 3.825 0 7.649.23 11.693.703a.981.981 0 0 0 .705-.216.935.935 0 0 0 .33-.665c3.141-63.81 55.688-113.791 119.628-113.791 37.223 0 71.7 16.875 94.591 46.297a.933.933 0 0 0 1.321.159c15.268-11.951 33.592-18.271 52.988-18.271 47.424 0 86.036 38.582 86.074 86.006 0 .275.12.533.327.712a.92.92 0 0 0 .74.214c5-.76 10.106-1.145 15.188-1.145 55.233 0 100.168 44.936 100.168 100.168.001 55.229-44.928 100.163-100.154 100.167zM149.196 494.603c-38.691 0-70.169 31.479-70.169 70.17 0 38.516 31.478 69.85 70.169 69.85l383.611.318c38.676-.007 70.144-31.481 70.144-70.166 0-38.69-31.478-70.168-70.168-70.168-3.578 0-7.169.27-10.673.803a30.933 30.933 0 0 1-24.804-7.116 30.905 30.905 0 0 1-10.778-23.449c-.024-30.89-25.18-56.024-56.074-56.024-12.628 0-24.558 4.114-34.5 11.897-6.411 5.015-14.763 7.341-22.843 6.345-8.239-1.018-15.565-5.177-20.647-11.713-17.163-22.061-43.009-34.715-70.91-34.715-47.925 0-87.311 37.452-89.664 85.263a31.038 31.038 0 0 1-10.899 22.082 30.965 30.965 0 0 1-23.581 7.124 69.896 69.896 0 0 0-8.214-.501z"/><path fill="#103653" d="M195.757 614.807H377.66c8.8 0 15.937-7.134 15.937-15.936s-7.137-15.937-15.937-15.937H195.756c-8.8 0-15.937 7.135-15.937 15.937s7.138 15.936 15.938 15.936zM135.61 614.807h7.336c8.8 0 15.936-7.134 15.936-15.936s-7.136-15.937-15.936-15.937h-7.336c-8.8 0-15.936 7.135-15.936 15.937s7.137 15.936 15.936 15.936z"/></svg>