<svg xmlns="http://www.w3.org/2000/svg" width="800" height="800" xml:space="preserve"><path fill="#F79927" d="M609.432 73.194c-26.719-12.519-56.773-19.6-90.162-19.625-6.135 0-12.369.237-18.691.747h-.037c-42.625 3.224-83.855 23.459-121.089 49.419-37.299 25.896-69.766 56.773-96.597 79.36l-2.203 1.841-2.527 1.344c-45.3 23.844-86.19 49.019-119.668 77.519-33.501 28.56-59.511 60.145-76.486 97.641-11.299 25.015-18.691 52.828-21.268 84.849a324.155 324.155 0 0 0-1.045 25.972c.012 43.979 9.234 82.522 25.188 116.06 15.979 33.539 38.805 62.138 66.58 85.546 55.455 46.854 131.095 72.615 207.494 72.565 79.113-.013 150.482-32.07 202.253-83.966l.758-.771.771-.66c35.678-30.514 70.313-75.391 98.947-124.97 28.711-49.542 51.559-103.852 65.012-152.797 8.973-32.581 13.701-62.835 13.678-86.986.014-48.548-12.742-95.153-35.504-134.104-22.803-38.992-55.406-70.216-95.404-88.984z"/><g fill="#103653"><path d="M719.208 90.697c-23.969-27.44-53.275-50.176-87.026-66.006C598.456 8.849 560.314-.025 519.271 0c-7.518 0-15.171.273-22.925.896h.039C439.661 5.4 390.28 30.986 348.862 59.734c-40.357 28.1-73.847 59.834-98.475 80.63-61.813 32.803-118.55 69.206-162.367 116.894-22.191 24.205-40.969 51.372-54.856 82.099-13.901 30.7-22.849 64.875-25.849 102.656a378.861 378.861 0 0 0-1.231 30.242c-.013 51.509 10.95 98.325 30.389 139.107 29.172 61.253 77.122 108.604 133.845 140.354C227.09 783.5 292.724 799.977 358.918 800c93.759.013 178.881-38.169 240.183-99.721 55.33-48.16 102.794-118.735 137.604-192.061 17.509-37.021 31.709-74.729 41.602-110.76 9.894-36.039 15.581-70.324 15.605-101.187-.023-77.155-26.805-150.655-74.704-205.574zm7.456 292.566c-13.453 48.945-36.302 103.255-65.013 152.797-28.634 49.579-63.269 94.456-98.946 124.97l-.772.66-.758.771c-51.771 51.896-123.141 83.953-202.253 83.966-76.398.05-152.039-25.711-207.494-72.565-27.775-23.408-50.6-52.007-66.58-85.546-15.953-33.537-25.175-72.081-25.188-116.06 0-8.462.334-17.125 1.045-25.972 2.577-32.021 9.969-59.834 21.268-84.849 16.975-37.496 42.984-69.081 76.486-97.64 33.478-28.5 74.369-53.675 119.668-77.519l2.527-1.344 2.203-1.84c26.831-22.587 59.298-53.464 96.597-79.361 37.235-25.959 78.464-46.195 121.089-49.419h.037a232.853 232.853 0 0 1 18.692-.747c33.389.025 63.443 7.106 90.162 19.625 39.997 18.768 72.602 49.991 95.402 88.981 22.761 38.952 35.517 85.556 35.504 134.104.024 24.153-4.704 54.407-13.676 86.988z"/><path d="M309.376 605.539c-18.642 0-33.762 15.107-33.762 33.75 0 18.667 15.12 33.775 33.762 33.775s33.763-15.109 33.763-33.775c0-18.643-15.118-33.75-33.763-33.75zM505.805 471.596c-18.643 0-33.763 15.12-33.763 33.762 0 18.668 15.12 33.775 33.763 33.775s33.764-15.107 33.764-33.775c-.001-18.642-15.122-33.762-33.764-33.762zM409.545 214.609c-18.629 0-33.75 15.12-33.75 33.763 0 18.668 15.12 33.775 33.75 33.775 18.656 0 33.775-15.108 33.775-33.775 0-18.643-15.12-33.763-33.775-33.763zM605.974 250.315c-18.643 0-33.75 15.133-33.75 33.763 0 18.666 15.107 33.775 33.75 33.775 18.656 0 33.774-15.109 33.774-33.775 0-18.631-15.118-33.763-33.774-33.763zM246.867 391.237c-18.642 0-33.763 15.122-33.763 33.765 0 18.652 15.121 33.762 33.763 33.762 18.656 0 33.775-15.109 33.775-33.762 0-18.643-15.12-33.765-33.775-33.765z"/></g></svg>