<svg xmlns="http://www.w3.org/2000/svg" width="800" height="800" xml:space="preserve"><g fill="#103653"><path d="M611.755 197.029c-31.768 27.586-37.696 75.897-33.479 116.476 2.269 21.787 36.612 22.008 34.315 0-1.568-15.147-1.204-43.603 4.438-63.348.746-2.612 2.53-3.071 2.53.314 0 52.674.013 298.922.013 298.922 0 2.75.545 5.368 1.51 7.772H497c.579-1.411.77-3.043.77-3.043s6.68-63.807-19.247-95.196c-14.641-17.729-35.703-26.716-62.614-26.716-27.264 0-49 8.996-64.607 26.744-31.196 35.473-24.202 92.957-23.888 95.387.125.979.35 1.916.632 2.827h-44.543c-1.059-90.793-2.766-211.504-2.766-261.36 0-3.481 1.935-4.5 4.006-.543 19.244 36.764 15.019 91.848 11.202 112.151-3.23 16.773 7.751 32.989 24.525 36.22 1.976.381 3.941.562 5.882.562 14.53 0 27.489-10.289 30.338-25.088.871-4.526 20.71-111.545-32.921-176.485-26.057-31.55-63.509-47.547-111.32-47.547-48.415 0-87.039 16.003-114.793 47.564-55.329 62.912-42.946 164.695-42.39 168.997 2.18 16.913 17.628 28.839 34.55 26.697 16.918-2.139 28.911-17.604 26.813-34.526-.082-.66-6.583-55.954 13.327-98.328.899-1.916 3.253-2.702 3.253.361 0 3.063-1.667 151.506-2.834 251.325H14.744c-8.142 0-14.743 6.601-14.743 14.741s6.601 14.743 14.743 14.743H130.04c-.56 50.609-.968 96.117-.968 125.095 0 49.296 66.517 43.259 66.517 0 0-34.834.483-82.737.991-125.095h21.496c.112 42.576.221 90.679.221 125.095 0 43.862 66.513 46.278 66.513 0 0-28.979-.408-74.488-.969-125.095h87.356c-.648 52.135-1.376 110.8-1.376 140.017 0 28.126 37.951 24.684 37.951 0 0-41.883 1.225-116.895 1.225-125.59 0-8.699 11.455-6.804 11.455-.258 0 6.544.277 83.966.277 125.848 0 25.026 37.947 26.404 37.947 0 0-29.217-.729-87.882-1.375-140.017h327.954c8.142 0 14.743-6.603 14.743-14.743s-6.602-14.741-14.743-14.741h-71.013a20.814 20.814 0 0 0 1.51-7.772l.017-300.873c0-10.053 1.483-9.851 4.003-14.164 13.373-22.9 55.974-95.742 60.949-103.042 5.913-8.674 8.855-23.292.705-31.444-8.148-8.15-27.534-5.514-32.988 7.174 0 0-40.423 70.867-44.067 76.622-3.648 5.755-2.484 6.823-9.172 4.106-5.191-2.11-51.677-18.333-83.444 9.254zM196.946 557.166c.428-33.402.791-59.283.791-65.545 0-15.243 20.073-11.923 20.073-.453 0 4.8.087 31.359.186 66h-21.049v-.002zm174.615 0-10.453.087s-.216-4.659-.523-7.147c-.048-.391-2.545-42.029 9.125-59.307 1.065-1.765 2.475-1.975 2.475 1.832s-.271 35.477-.624 64.535zm85.378 0c-.353-29.059-.62-53.201-.623-64.537 0-2.881 1.627-3.299 3.034-1.452 9.23 21 6.95 49.993 4.872 61.034-.321 1.677-.851 4.955-.851 4.955h-6.432zm202.86 0a20.884 20.884 0 0 0 1.506-7.772V402.073c0-6.932 12.719-8.779 12.719 0v147.321c0 2.752.543 5.368 1.504 7.772h-15.729z"/><circle cx="665.505" cy="123.203" r="49.291"/><path d="M206.94 181.966c35.371-.125 64.012-28.837 64.012-64.223 0-35.417-28.642-64.114-64.012-64.239-35.371.125-64.01 28.822-64.01 64.239 0 35.386 28.64 64.1 64.01 64.223zM415.922 424.402c20.178-.068 36.524-16.451 36.524-36.642 0-20.208-16.343-36.581-36.524-36.651-20.182.07-36.521 16.443-36.521 36.651.001 20.191 16.339 36.572 36.521 36.642z"/></g></svg>