<svg xmlns="http://www.w3.org/2000/svg" width="476" height="470" viewBox="179.445 64.14 476 470" xml:space="preserve"><path fill="#F79927" d="M365.236 353.291c-63.978-63.978-63.978-167.705 0-231.684a165.025 165.025 0 0 1 18.215-15.715C277.446 126.46 208.186 229.07 228.754 335.076c20.569 106.004 123.178 175.266 229.183 154.697 78.289-15.191 139.506-76.408 154.697-154.697a168.371 168.371 0 0 1-15.715 18.215c-63.978 63.978-167.705 63.978-231.683 0z"/><path fill="#103653" d="M420.945 522.894c-124.404.049-225.293-100.762-225.341-225.167-.048-124.404 100.763-225.293 225.167-225.341a225.254 225.254 0 0 1 38.867 3.363c8.096 1.419 13.508 9.132 12.09 17.228a14.886 14.886 0 0 1-12.27 12.12c-72.996 11.973-122.465 80.855-110.491 153.852 11.973 72.997 80.854 122.465 153.851 110.493a133.946 133.946 0 0 0 73.049-37.482 133.04 133.04 0 0 0 37.621-73.012 14.883 14.883 0 0 1 14.615-12.5 14.881 14.881 0 0 1 14.643 12.322c21.484 122.518-60.418 239.256-182.938 260.741a225.426 225.426 0 0 1-38.863 3.383zm-37.146-417.143C277.794 126.32 208.534 228.929 229.102 334.935c20.569 106.004 123.178 175.266 229.183 154.697 78.289-15.191 139.506-76.408 154.697-154.697a168.371 168.371 0 0 1-15.715 18.215c-63.979 63.979-167.705 63.979-231.683 0-63.978-63.978-63.978-167.706 0-231.683a165.034 165.034 0 0 1 18.215-15.716z"/><path fill="#103653" d="M495.355 312.523h-74.41c-8.219.014-14.894-6.637-14.909-14.856a14.879 14.879 0 0 1 4.372-10.563l49.021-48.991h-38.484c-8.219 0-14.882-6.663-14.882-14.882s6.663-14.882 14.882-14.882h74.41c8.219-.015 14.895 6.636 14.908 14.855a14.88 14.88 0 0 1-4.371 10.563l-49.021 48.992h38.484c8.219 0 14.883 6.663 14.883 14.882 0 8.218-6.664 14.882-14.883 14.882zM631.316 176.56h-74.408c-8.221-.001-14.881-6.666-14.879-14.885 0-3.938 1.561-7.715 4.342-10.503l49.021-49.021h-38.484c-8.221 0-14.883-6.663-14.883-14.882s6.662-14.882 14.883-14.882h74.408c8.221-.015 14.895 6.636 14.91 14.855a14.88 14.88 0 0 1-4.373 10.563l-49.021 48.991h38.484c8.221 0 14.883 6.663 14.883 14.882s-6.662 14.882-14.883 14.882z"/></svg>