<svg xmlns="http://www.w3.org/2000/svg" width="365" height="517" viewBox="220.5 135.5 365 517" xml:space="preserve"><path fill="#96D2CA" d="M311.484 280v-48.438l168.125-75.391v49.922m-86.484 425.704-153.203-67.5V337.813L311.484 280l168.125-73.906 86.484 103.516"/><path fill="#96D2CA" d="M393.125 388.281v243.516l172.969-78.672V309.609l-172.969 78.672z"/><path fill="#103653" d="M579.609 309.063c0-.781-.156-1.563-.313-2.344-.078-.234-.078-.547-.156-.781-.234-1.016-.625-1.953-1.172-2.891 0-.078-.078-.078-.078-.156a16.513 16.513 0 0 0-1.406-2.109l-83.281-99.609v-45c0-4.609-2.344-8.906-6.172-11.406-3.906-2.5-8.75-2.891-12.969-1.016L305.937 219.22c-4.922 2.188-8.047 7.031-8.047 12.422v41.953l-66.484 53.75c-3.203 2.578-5.078 6.484-5.078 10.547v226.406c0 5.391 3.203 10.234 8.125 12.422l153.203 67.578c.391.156.781.234 1.172.391.313.078.625.234.938.313 1.094.313 2.266.469 3.359.469h.078c1.172 0 2.266-.234 3.359-.469.313-.078.625-.234 1.016-.313.391-.156.781-.234 1.172-.391l172.969-78.672a13.564 13.564 0 0 0 7.969-12.344V309.609c0-.156-.079-.312-.079-.546zm-182.187 62.265-64.766-85.859 143.125-62.813 68.516 81.953-146.875 66.719zm68.594-194.219v20.078L325.078 259.14v-18.828l140.938-63.203zm-212.5 167.188 55.547-44.922 70.469 93.359v218.203L253.516 555.39V344.297zM552.5 544.375l-145.781 66.328V397.031L552.5 330.703v213.672z"/></svg>