<svg xmlns="http://www.w3.org/2000/svg" width="457.694" height="8.498" xml:space="preserve"><path fill="#FCCE8D" d="M258.117 8.705c-3.8 0-7.41-.179-11.095-.363-3.734-.186-7.595-.378-11.772-.378-14.053 0-29.059-.751-43.571-1.477-24.999-1.25-50.849-2.544-74.256-.246C100.328 7.92 85.338 8.703 70.25 8.703c-6.728 0-12.511-.604-18.103-1.189-7.543-.788-14.667-1.533-23.258-.691-5.787.568-12.616 0-18.639-.5C6.486 6.01 2.93 5.715 0 5.715v-4c3.096 0 6.731.302 10.581.622 5.855.486 12.491 1.038 17.917.506 8.993-.883 16.313-.117 24.064.693 5.491.574 11.168 1.167 17.688 1.167 14.955 0 29.82-.776 46.782-2.442 23.699-2.329 49.701-1.028 74.847.231 14.462.724 29.418 1.472 43.371 1.472 4.276 0 8.188.195 11.971.383 9.835.49 19.123.952 33.042-2.12 22.312-4.922 47.783-1.555 70.254 1.415l.461.061c4.647.615 10.29-.122 15.745-.833 3.279-.428 6.668-.87 9.889-1.031 3.739-.188 7.515-.515 11.167-.831C393.491.512 399.396 0 405.375 0c7.031 0 16.794.573 26.234 1.126 9.408.552 19.137 1.123 26.084 1.123v4c-7.064 0-16.853-.574-26.318-1.129-9.383-.55-19.086-1.12-26-1.12-5.806 0-11.623.504-17.25.992-3.688.32-7.501.65-11.312.841-3.062.153-6.371.585-9.572 1.002-5.712.744-11.618 1.514-16.787.832l-.461-.061c-22.145-2.927-47.245-6.244-68.868-1.474-9.179 2.026-16.382 2.573-23.008 2.573z"/><path fill="#98D1CA" d="M193.815 7.959c-5.845 0-11.667-.431-17.299-1.838-20.153-5.036-43.886-1.855-64.826.954l-4.45.594c-5.169.684-11.076-.087-16.787-.832-3.201-.417-6.51-.849-9.572-1.002-8.665-.435-18.112-.646-28.884-.646-6.956 0-16.594.134-25.916.263-9.36.13-19.04.264-26.062.264h-.02v-4h.02c6.994 0 16.659-.134 26.006-.264 9.335-.129 18.988-.263 25.971-.263 10.839 0 20.353.213 29.084.65 3.222.161 6.612.603 9.891 1.031 5.455.711 11.096 1.448 15.745.833l4.442-.593c21.296-2.855 45.433-6.091 66.327-.87 9.546 2.385 19.525 1.799 30.088 1.178 4.714-.277 9.588-.563 14.427-.563 13.063 0 26.467-.498 40.658-1.024 26.267-.975 53.428-1.984 78.004.431 10.079.99 19.548.608 29.573.204 5.406-.219 10.995-.445 16.765-.445 3.894 0 7.503-.042 10.962-.082 10.571-.123 19.697-.229 31.233.903 5.681.557 12.602.158 18.705-.194 3.558-.205 6.918-.399 9.793-.399v4c-2.76 0-6.063.19-9.563.392-6.251.36-13.338.77-19.326.182-11.318-1.11-20.343-1.005-30.797-.884-3.473.04-7.097.082-11.007.082-5.688 0-11.238.224-16.604.44-10.168.41-19.772.796-30.125-.22-24.308-2.388-51.331-1.384-77.465-.414-13.602.505-27.668 1.027-40.806 1.027-4.722 0-9.537.283-14.192.557-4.622.272-9.315.548-13.993.548z"/><path fill="#143854" d="M152.128 8.499c-13.79 0-27.914-1.894-40.97-3.644l-4.442-.593c-4.65-.616-10.29.121-15.745.833-3.279.428-6.668.87-9.889 1.031-8.731.438-18.245.65-29.084.65-7 0-16.663-.27-26.008-.531-9.346-.261-19.011-.531-25.99-.53v-4c7.035 0 16.728.271 26.101.532 9.318.26 18.953.529 25.897.529 10.771 0 20.219-.211 28.884-.646 3.062-.153 6.371-.585 9.572-1.002 5.712-.745 11.619-1.516 16.787-.832l4.45.594c20.939 2.809 44.674 5.991 64.826.954C186.658-.69 197.41-.059 207.809.553c4.656.273 9.471.557 14.193.557 13.137 0 27.203.522 40.806 1.027 26.134.97 53.157 1.973 77.464-.414 10.355-1.017 19.958-.63 30.125-.22 5.367.216 10.916.44 16.604.44 3.91 0 7.534.042 11.008.083 10.451.122 19.478.226 30.797-.884 5.788-.569 12.615 0 18.64.5 3.765.313 7.32.608 10.25.608v4c-3.096 0-6.731-.302-10.581-.622-5.854-.487-12.492-1.037-17.918-.506-11.536 1.133-20.667 1.028-31.233.903-3.459-.04-7.068-.082-10.962-.082-5.77 0-11.359-.225-16.765-.443-10.024-.404-19.494-.786-29.573.204-24.576 2.415-51.737 1.407-78.004.431-14.193-.528-27.597-1.026-40.66-1.026-4.839 0-9.713-.287-14.427-.563-10.564-.621-20.541-1.208-30.088 1.178-8.084 2.02-16.654 2.775-25.357 2.775z"/></svg>